<?xml version="1.0" encoding="utf-8" standalone="no"?>
<!DOCTYPE svg PUBLIC "-//W3C//DTD SVG 1.1//EN"
  "http://www.w3.org/Graphics/SVG/1.1/DTD/svg11.dtd">
<svg xmlns:xlink="http://www.w3.org/1999/xlink" width="360pt" height="194.4pt" viewBox="0 0 360 194.4" xmlns="http://www.w3.org/2000/svg" version="1.1">
 <metadata>
  <rdf:RDF xmlns:dc="http://purl.org/dc/elements/1.1/" xmlns:cc="http://creativecommons.org/ns#" xmlns:rdf="http://www.w3.org/1999/02/22-rdf-syntax-ns#">
   <cc:Work>
    <dc:type rdf:resource="http://purl.org/dc/dcmitype/StillImage"/>
    <dc:date>2024-10-29T16:35:08.433738</dc:date>
    <dc:format>image/svg+xml</dc:format>
    <dc:creator>
     <cc:Agent>
      <dc:title>Matplotlib v3.9.2, https://matplotlib.org/</dc:title>
     </cc:Agent>
    </dc:creator>
   </cc:Work>
  </rdf:RDF>
 </metadata>
 <defs>
  <style type="text/css">*{stroke-linejoin: round; stroke-linecap: butt}</style>
 </defs>
 <g id="figure_1">
  <g id="patch_1">
   <path d="M 0 194.4 
L 360 194.4 
L 360 0 
L 0 0 
z
" style="fill: #ffffff"/>
  </g>
  <g id="axes_1">
   <g id="patch_2">
    <path d="M 51.134499 153.781683 
L 349.2 153.781683 
L 349.2 10.8 
L 51.134499 10.8 
z
" style="fill: #ffffff"/>
   </g>
   <g id="matplotlib.axis_1">
    <g id="xtick_1">
     <g id="line2d_1">
      <path d="M 64.682931 153.781683 
L 64.682931 10.8 
" clip-path="url(#p4f2244c28d)" style="fill: none; stroke: #b0b0b0; stroke-width: 0.8; stroke-linecap: square"/>
     </g>
     <g id="line2d_2">
      <defs>
       <path id="mc745dd9808" d="M 0 0 
L 0 3.5 
" style="stroke: #000000; stroke-width: 0.8"/>
      </defs>
      <g>
       <use xlink:href="#mc745dd9808" x="64.682931" y="153.781683" style="stroke: #000000; stroke-width: 0.8"/>
      </g>
     </g>
     <g id="text_1">
      <!-- $\mathdefault{0}$ -->
      <g transform="translate(62.192264 167.700182) scale(0.1 -0.1)">
       <defs>
        <path id="CMR17-30" d="M 2688 2025 
C 2688 2416 2682 3080 2413 3591 
C 2176 4039 1798 4198 1466 4198 
C 1158 4198 768 4058 525 3597 
C 269 3118 243 2524 243 2025 
C 243 1661 250 1106 448 619 
C 723 -39 1216 -128 1466 -128 
C 1760 -128 2208 -7 2470 600 
C 2662 1042 2688 1559 2688 2025 
z
M 1466 -26 
C 1056 -26 813 325 723 812 
C 653 1188 653 1738 653 2096 
C 653 2588 653 2997 736 3387 
C 858 3929 1216 4096 1466 4096 
C 1728 4096 2067 3923 2189 3400 
C 2272 3036 2278 2607 2278 2096 
C 2278 1680 2278 1169 2202 792 
C 2067 95 1690 -26 1466 -26 
z
" transform="scale(0.015625)"/>
       </defs>
       <use xlink:href="#CMR17-30" transform="scale(0.996264)"/>
      </g>
     </g>
    </g>
    <g id="xtick_2">
     <g id="line2d_3">
      <path d="M 103.392737 153.781683 
L 103.392737 10.8 
" clip-path="url(#p4f2244c28d)" style="fill: none; stroke: #b0b0b0; stroke-width: 0.8; stroke-linecap: square"/>
     </g>
     <g id="line2d_4">
      <g>
       <use xlink:href="#mc745dd9808" x="103.392737" y="153.781683" style="stroke: #000000; stroke-width: 0.8"/>
      </g>
     </g>
     <g id="text_2">
      <!-- $\mathdefault{5}$ -->
      <g transform="translate(100.902069 167.700182) scale(0.1 -0.1)">
       <defs>
        <path id="CMR17-35" d="M 730 3692 
C 794 3666 1056 3584 1325 3584 
C 1920 3584 2246 3911 2432 4100 
C 2432 4157 2432 4192 2394 4192 
C 2387 4192 2374 4192 2323 4163 
C 2099 4058 1837 3973 1517 3973 
C 1325 3973 1037 3999 723 4139 
C 653 4171 640 4171 634 4171 
C 602 4171 595 4164 595 4037 
L 595 2203 
C 595 2089 595 2057 659 2057 
C 691 2057 704 2070 736 2114 
C 941 2401 1222 2522 1542 2522 
C 1766 2522 2246 2382 2246 1289 
C 2246 1085 2246 715 2054 421 
C 1894 159 1645 25 1370 25 
C 947 25 518 320 403 814 
C 429 807 480 795 506 795 
C 589 795 749 840 749 1038 
C 749 1210 627 1280 506 1280 
C 358 1280 262 1190 262 1011 
C 262 454 704 -128 1382 -128 
C 2042 -128 2669 440 2669 1264 
C 2669 2030 2170 2624 1549 2624 
C 1222 2624 947 2503 730 2274 
L 730 3692 
z
" transform="scale(0.015625)"/>
       </defs>
       <use xlink:href="#CMR17-35" transform="scale(0.996264)"/>
      </g>
     </g>
    </g>
    <g id="xtick_3">
     <g id="line2d_5">
      <path d="M 142.102542 153.781683 
L 142.102542 10.8 
" clip-path="url(#p4f2244c28d)" style="fill: none; stroke: #b0b0b0; stroke-width: 0.8; stroke-linecap: square"/>
     </g>
     <g id="line2d_6">
      <g>
       <use xlink:href="#mc745dd9808" x="142.102542" y="153.781683" style="stroke: #000000; stroke-width: 0.8"/>
      </g>
     </g>
     <g id="text_3">
      <!-- $\mathdefault{10}$ -->
      <g transform="translate(137.121207 167.700182) scale(0.1 -0.1)">
       <defs>
        <path id="CMR17-31" d="M 1702 4058 
C 1702 4192 1696 4192 1606 4192 
C 1357 3916 979 3827 621 3827 
C 602 3827 570 3827 563 3808 
C 557 3795 557 3782 557 3648 
C 755 3648 1088 3686 1344 3839 
L 1344 461 
C 1344 236 1331 160 781 160 
L 589 160 
L 589 0 
C 896 0 1216 0 1523 0 
C 1830 0 2150 0 2458 0 
L 2458 160 
L 2266 160 
C 1715 160 1702 230 1702 458 
L 1702 4058 
z
" transform="scale(0.015625)"/>
       </defs>
       <use xlink:href="#CMR17-31" transform="scale(0.996264)"/>
       <use xlink:href="#CMR17-30" transform="translate(45.690477 0) scale(0.996264)"/>
      </g>
     </g>
    </g>
    <g id="xtick_4">
     <g id="line2d_7">
      <path d="M 180.812347 153.781683 
L 180.812347 10.8 
" clip-path="url(#p4f2244c28d)" style="fill: none; stroke: #b0b0b0; stroke-width: 0.8; stroke-linecap: square"/>
     </g>
     <g id="line2d_8">
      <g>
       <use xlink:href="#mc745dd9808" x="180.812347" y="153.781683" style="stroke: #000000; stroke-width: 0.8"/>
      </g>
     </g>
     <g id="text_4">
      <!-- $\mathdefault{15}$ -->
      <g transform="translate(175.831012 167.700182) scale(0.1 -0.1)">
       <use xlink:href="#CMR17-31" transform="scale(0.996264)"/>
       <use xlink:href="#CMR17-35" transform="translate(45.690477 0) scale(0.996264)"/>
      </g>
     </g>
    </g>
    <g id="xtick_5">
     <g id="line2d_9">
      <path d="M 219.522152 153.781683 
L 219.522152 10.8 
" clip-path="url(#p4f2244c28d)" style="fill: none; stroke: #b0b0b0; stroke-width: 0.8; stroke-linecap: square"/>
     </g>
     <g id="line2d_10">
      <g>
       <use xlink:href="#mc745dd9808" x="219.522152" y="153.781683" style="stroke: #000000; stroke-width: 0.8"/>
      </g>
     </g>
     <g id="text_5">
      <!-- $\mathdefault{20}$ -->
      <g transform="translate(214.540817 167.700182) scale(0.1 -0.1)">
       <defs>
        <path id="CMR17-32" d="M 2669 989 
L 2554 989 
C 2490 536 2438 459 2413 420 
C 2381 369 1920 369 1830 369 
L 602 369 
C 832 619 1280 1072 1824 1597 
C 2214 1967 2669 2402 2669 3035 
C 2669 3790 2067 4224 1395 4224 
C 691 4224 262 3604 262 3030 
C 262 2780 448 2748 525 2748 
C 589 2748 781 2787 781 3010 
C 781 3207 614 3264 525 3264 
C 486 3264 448 3258 422 3245 
C 544 3790 915 4058 1306 4058 
C 1862 4058 2227 3617 2227 3035 
C 2227 2479 1901 2000 1536 1584 
L 262 146 
L 262 0 
L 2515 0 
L 2669 989 
z
" transform="scale(0.015625)"/>
       </defs>
       <use xlink:href="#CMR17-32" transform="scale(0.996264)"/>
       <use xlink:href="#CMR17-30" transform="translate(45.690477 0) scale(0.996264)"/>
      </g>
     </g>
    </g>
    <g id="xtick_6">
     <g id="line2d_11">
      <path d="M 258.231958 153.781683 
L 258.231958 10.8 
" clip-path="url(#p4f2244c28d)" style="fill: none; stroke: #b0b0b0; stroke-width: 0.8; stroke-linecap: square"/>
     </g>
     <g id="line2d_12">
      <g>
       <use xlink:href="#mc745dd9808" x="258.231958" y="153.781683" style="stroke: #000000; stroke-width: 0.8"/>
      </g>
     </g>
     <g id="text_6">
      <!-- $\mathdefault{25}$ -->
      <g transform="translate(253.250622 167.700182) scale(0.1 -0.1)">
       <use xlink:href="#CMR17-32" transform="scale(0.996264)"/>
       <use xlink:href="#CMR17-35" transform="translate(45.690477 0) scale(0.996264)"/>
      </g>
     </g>
    </g>
    <g id="xtick_7">
     <g id="line2d_13">
      <path d="M 296.941763 153.781683 
L 296.941763 10.8 
" clip-path="url(#p4f2244c28d)" style="fill: none; stroke: #b0b0b0; stroke-width: 0.8; stroke-linecap: square"/>
     </g>
     <g id="line2d_14">
      <g>
       <use xlink:href="#mc745dd9808" x="296.941763" y="153.781683" style="stroke: #000000; stroke-width: 0.8"/>
      </g>
     </g>
     <g id="text_7">
      <!-- $\mathdefault{30}$ -->
      <g transform="translate(291.960428 167.700182) scale(0.1 -0.1)">
       <defs>
        <path id="CMR17-33" d="M 1414 2157 
C 1984 2157 2234 1662 2234 1090 
C 2234 320 1824 25 1453 25 
C 1114 25 563 194 390 693 
C 422 680 454 680 486 680 
C 640 680 755 782 755 948 
C 755 1133 614 1216 486 1216 
C 378 1216 211 1165 211 926 
C 211 335 787 -128 1466 -128 
C 2176 -128 2720 430 2720 1085 
C 2720 1707 2208 2157 1600 2227 
C 2086 2328 2554 2756 2554 3329 
C 2554 3820 2048 4179 1472 4179 
C 890 4179 378 3829 378 3329 
C 378 3110 544 3072 627 3072 
C 762 3072 877 3155 877 3321 
C 877 3486 762 3569 627 3569 
C 602 3569 570 3569 544 3557 
C 730 3959 1235 4032 1459 4032 
C 1683 4032 2106 3925 2106 3320 
C 2106 3143 2080 2828 1862 2550 
C 1670 2304 1453 2304 1242 2284 
C 1210 2284 1062 2269 1037 2269 
C 992 2263 966 2257 966 2208 
C 966 2163 973 2157 1101 2157 
L 1414 2157 
z
" transform="scale(0.015625)"/>
       </defs>
       <use xlink:href="#CMR17-33" transform="scale(0.996264)"/>
       <use xlink:href="#CMR17-30" transform="translate(45.690477 0) scale(0.996264)"/>
      </g>
     </g>
    </g>
    <g id="xtick_8">
     <g id="line2d_15">
      <path d="M 335.651568 153.781683 
L 335.651568 10.8 
" clip-path="url(#p4f2244c28d)" style="fill: none; stroke: #b0b0b0; stroke-width: 0.8; stroke-linecap: square"/>
     </g>
     <g id="line2d_16">
      <g>
       <use xlink:href="#mc745dd9808" x="335.651568" y="153.781683" style="stroke: #000000; stroke-width: 0.8"/>
      </g>
     </g>
     <g id="text_8">
      <!-- $\mathdefault{35}$ -->
      <g transform="translate(330.670233 167.700182) scale(0.1 -0.1)">
       <use xlink:href="#CMR17-33" transform="scale(0.996264)"/>
       <use xlink:href="#CMR17-35" transform="translate(45.690477 0) scale(0.996264)"/>
      </g>
     </g>
    </g>
    <g id="text_9">
     <!-- Time $t$ [s] -->
     <g transform="translate(178.968942 181.10934) scale(0.1 -0.1)">
      <defs>
       <path id="CMR17-54" d="M 3981 4326 
L 288 4326 
L 179 2918 
L 294 2918 
C 378 3976 467 4160 1453 4160 
C 1568 4160 1754 4160 1805 4154 
C 1926 4135 1926 4058 1926 3912 
L 1926 459 
C 1926 230 1907 160 1376 160 
L 1197 160 
L 1197 0 
C 1504 0 1824 0 2138 0 
C 2451 0 2771 0 3078 0 
L 3078 160 
L 2899 160 
C 2368 160 2349 230 2349 459 
L 2349 3912 
C 2349 4052 2349 4129 2464 4154 
C 2515 4160 2701 4160 2816 4160 
C 3795 4160 3891 3976 3974 2918 
L 4090 2918 
L 3981 4326 
z
" transform="scale(0.015625)"/>
       <path id="CMR17-69" d="M 992 3909 
C 992 4049 877 4170 730 4170 
C 589 4170 467 4056 467 3909 
C 467 3769 582 3648 730 3648 
C 870 3648 992 3763 992 3909 
z
M 243 2706 
L 243 2541 
C 602 2541 653 2502 653 2197 
L 653 427 
C 653 184 627 153 218 153 
L 218 -13 
C 371 0 646 0 806 0 
C 960 0 1222 0 1370 -13 
L 1370 153 
C 992 153 979 191 979 420 
L 979 2776 
L 243 2706 
z
" transform="scale(0.015625)"/>
       <path id="CMR17-6d" d="M 4326 1933 
C 4326 2252 4269 2790 3507 2790 
C 3072 2790 2771 2496 2656 2151 
L 2650 2151 
C 2573 2676 2195 2790 1837 2790 
C 1331 2790 1069 2400 973 2144 
L 966 2144 
L 966 2790 
L 211 2720 
L 211 2554 
C 589 2554 646 2515 646 2208 
L 646 428 
C 646 184 621 153 211 153 
L 211 -13 
C 365 0 646 0 813 0 
C 979 0 1267 0 1421 -13 
L 1421 153 
C 1011 153 986 178 986 428 
L 986 1658 
C 986 2247 1344 2688 1792 2688 
C 2266 2688 2317 2266 2317 1958 
L 2317 428 
C 2317 184 2291 153 1882 153 
L 1882 -13 
C 2035 0 2317 0 2483 0 
C 2650 0 2938 0 3091 -13 
L 3091 153 
C 2682 153 2656 178 2656 428 
L 2656 1658 
C 2656 2247 3014 2688 3462 2688 
C 3936 2688 3987 2266 3987 1958 
L 3987 428 
C 3987 184 3962 153 3552 153 
L 3552 -13 
C 3706 0 3987 0 4154 0 
C 4320 0 4608 0 4762 -13 
L 4762 153 
C 4352 153 4326 178 4326 428 
L 4326 1933 
z
" transform="scale(0.015625)"/>
       <path id="CMR17-65" d="M 2438 1472 
C 2464 1498 2464 1511 2464 1576 
C 2464 2238 2118 2816 1389 2816 
C 710 2816 173 2169 173 1383 
C 173 551 781 -64 1459 -64 
C 2176 -64 2458 607 2458 740 
C 2458 784 2419 784 2406 784 
C 2362 784 2355 771 2330 696 
C 2189 265 1837 51 1504 51 
C 1229 51 954 203 781 480 
C 582 803 582 1176 582 1472 
L 2438 1472 
z
M 589 1568 
C 634 2505 1126 2714 1382 2714 
C 1818 2714 2112 2297 2118 1568 
L 589 1568 
z
" transform="scale(0.015625)"/>
       <path id="CMMI12-74" d="M 1286 2566 
L 1875 2566 
C 1997 2566 2061 2566 2061 2681 
C 2061 2752 2022 2752 1894 2752 
L 1331 2752 
L 1568 3692 
C 1594 3781 1594 3794 1594 3840 
C 1594 3943 1510 4000 1427 4000 
C 1376 4000 1229 3981 1178 3775 
L 928 2752 
L 326 2752 
C 198 2752 141 2752 141 2630 
C 141 2566 186 2566 307 2566 
L 877 2566 
L 454 881 
C 403 658 384 594 384 511 
C 384 211 595 -64 954 -64 
C 1600 -64 1946 868 1946 912 
C 1946 951 1920 970 1882 970 
C 1869 970 1843 970 1830 944 
C 1824 938 1818 931 1773 829 
C 1638 511 1344 64 973 64 
C 781 64 768 224 768 364 
C 768 370 768 492 787 568 
L 1286 2566 
z
" transform="scale(0.015625)"/>
       <path id="CMR17-5b" d="M 1504 -1600 
L 1504 -1377 
L 902 -1377 
L 902 4544 
L 1504 4544 
L 1504 4767 
L 678 4767 
L 678 -1600 
L 1504 -1600 
z
" transform="scale(0.015625)"/>
       <path id="CMR17-73" d="M 1978 2697 
C 1978 2813 1971 2819 1933 2819 
C 1907 2819 1901 2813 1824 2717 
C 1805 2691 1747 2626 1728 2601 
C 1523 2819 1235 2819 1126 2819 
C 416 2819 160 2447 160 2076 
C 160 1498 813 1365 998 1325 
C 1402 1243 1542 1217 1677 1101 
C 1760 1025 1901 884 1901 654 
C 1901 384 1747 38 1158 38 
C 602 38 403 460 288 1021 
C 269 1110 269 1117 218 1117 
C 166 1117 160 1110 160 983 
L 160 63 
C 160 -51 166 -58 205 -58 
C 237 -58 243 -51 275 0 
C 314 57 410 211 448 276 
C 576 103 800 -64 1158 -64 
C 1792 -64 2131 283 2131 784 
C 2131 1112 1958 1285 1875 1362 
C 1683 1561 1459 1606 1190 1657 
C 838 1735 390 1825 390 2217 
C 390 2383 480 2737 1126 2737 
C 1811 2737 1850 2094 1862 1888 
C 1869 1856 1901 1849 1920 1849 
C 1978 1849 1978 1869 1978 1978 
L 1978 2697 
z
" transform="scale(0.015625)"/>
       <path id="CMR17-5d" d="M 915 4767 
L 90 4767 
L 90 4544 
L 691 4544 
L 691 -1377 
L 90 -1377 
L 90 -1600 
L 915 -1600 
L 915 4767 
z
" transform="scale(0.015625)"/>
      </defs>
      <use xlink:href="#CMR17-54" transform="scale(0.996264)"/>
      <use xlink:href="#CMR17-69" transform="translate(66.509881 0) scale(0.996264)"/>
      <use xlink:href="#CMR17-6d" transform="translate(91.380939 0) scale(0.996264)"/>
      <use xlink:href="#CMR17-65" transform="translate(168.300529 0) scale(0.996264)"/>
      <use xlink:href="#CMMI12-74" transform="translate(238.862156 0) scale(0.996264)"/>
      <use xlink:href="#CMR17-5b" transform="translate(304.164452 0) scale(0.996264)"/>
      <use xlink:href="#CMR17-73" transform="translate(329.035511 0) scale(0.996264)"/>
      <use xlink:href="#CMR17-5d" transform="translate(364.836848 0) scale(0.996264)"/>
     </g>
    </g>
   </g>
   <g id="matplotlib.axis_2">
    <g id="ytick_1">
     <g id="line2d_17">
      <path d="M 51.134499 146.341673 
L 349.2 146.341673 
" clip-path="url(#p4f2244c28d)" style="fill: none; stroke: #b0b0b0; stroke-width: 0.8; stroke-linecap: square"/>
     </g>
     <g id="line2d_18">
      <defs>
       <path id="m5cc9595262" d="M 0 0 
L -3.5 0 
" style="stroke: #000000; stroke-width: 0.8"/>
      </defs>
      <g>
       <use xlink:href="#m5cc9595262" x="51.134499" y="146.341673" style="stroke: #000000; stroke-width: 0.8"/>
      </g>
     </g>
     <g id="text_10">
      <!-- $\mathdefault{−1.5}$ -->
      <g transform="translate(23.655677 149.800922) scale(0.1 -0.1)">
       <defs>
        <path id="CMSY10-0" d="M 4218 1472 
C 4326 1472 4442 1472 4442 1600 
C 4442 1728 4326 1728 4218 1728 
L 755 1728 
C 646 1728 531 1728 531 1600 
C 531 1472 646 1472 755 1472 
L 4218 1472 
z
" transform="scale(0.015625)"/>
        <path id="CMMI12-3a" d="M 1178 307 
C 1178 492 1024 619 870 619 
C 685 619 557 466 557 313 
C 557 128 710 0 864 0 
C 1050 0 1178 153 1178 307 
z
" transform="scale(0.015625)"/>
       </defs>
       <use xlink:href="#CMSY10-0" transform="scale(0.996264)"/>
       <use xlink:href="#CMR17-31" transform="translate(77.487468 0) scale(0.996264)"/>
       <use xlink:href="#CMMI12-3a" transform="translate(123.177945 0) scale(0.996264)"/>
       <use xlink:href="#CMR17-35" transform="translate(150.275122 0) scale(0.996264)"/>
      </g>
     </g>
    </g>
    <g id="ytick_2">
     <g id="line2d_19">
      <path d="M 51.134499 122.880734 
L 349.2 122.880734 
" clip-path="url(#p4f2244c28d)" style="fill: none; stroke: #b0b0b0; stroke-width: 0.8; stroke-linecap: square"/>
     </g>
     <g id="line2d_20">
      <g>
       <use xlink:href="#m5cc9595262" x="51.134499" y="122.880734" style="stroke: #000000; stroke-width: 0.8"/>
      </g>
     </g>
     <g id="text_11">
      <!-- $\mathdefault{−1.0}$ -->
      <g transform="translate(23.655677 126.339984) scale(0.1 -0.1)">
       <use xlink:href="#CMSY10-0" transform="scale(0.996264)"/>
       <use xlink:href="#CMR17-31" transform="translate(77.487468 0) scale(0.996264)"/>
       <use xlink:href="#CMMI12-3a" transform="translate(123.177945 0) scale(0.996264)"/>
       <use xlink:href="#CMR17-30" transform="translate(150.275122 0) scale(0.996264)"/>
      </g>
     </g>
    </g>
    <g id="ytick_3">
     <g id="line2d_21">
      <path d="M 51.134499 99.419796 
L 349.2 99.419796 
" clip-path="url(#p4f2244c28d)" style="fill: none; stroke: #b0b0b0; stroke-width: 0.8; stroke-linecap: square"/>
     </g>
     <g id="line2d_22">
      <g>
       <use xlink:href="#m5cc9595262" x="51.134499" y="99.419796" style="stroke: #000000; stroke-width: 0.8"/>
      </g>
     </g>
     <g id="text_12">
      <!-- $\mathdefault{−0.5}$ -->
      <g transform="translate(23.655677 102.879045) scale(0.1 -0.1)">
       <use xlink:href="#CMSY10-0" transform="scale(0.996264)"/>
       <use xlink:href="#CMR17-30" transform="translate(77.487468 0) scale(0.996264)"/>
       <use xlink:href="#CMMI12-3a" transform="translate(123.177945 0) scale(0.996264)"/>
       <use xlink:href="#CMR17-35" transform="translate(150.275122 0) scale(0.996264)"/>
      </g>
     </g>
    </g>
    <g id="ytick_4">
     <g id="line2d_23">
      <path d="M 51.134499 75.958857 
L 349.2 75.958857 
" clip-path="url(#p4f2244c28d)" style="fill: none; stroke: #b0b0b0; stroke-width: 0.8; stroke-linecap: square"/>
     </g>
     <g id="line2d_24">
      <g>
       <use xlink:href="#m5cc9595262" x="51.134499" y="75.958857" style="stroke: #000000; stroke-width: 0.8"/>
      </g>
     </g>
     <g id="text_13">
      <!-- $\mathdefault{0.0}$ -->
      <g transform="translate(31.40442 79.418106) scale(0.1 -0.1)">
       <use xlink:href="#CMR17-30" transform="scale(0.996264)"/>
       <use xlink:href="#CMMI12-3a" transform="translate(45.690477 0) scale(0.996264)"/>
       <use xlink:href="#CMR17-30" transform="translate(72.787654 0) scale(0.996264)"/>
      </g>
     </g>
    </g>
    <g id="ytick_5">
     <g id="line2d_25">
      <path d="M 51.134499 52.497918 
L 349.2 52.497918 
" clip-path="url(#p4f2244c28d)" style="fill: none; stroke: #b0b0b0; stroke-width: 0.8; stroke-linecap: square"/>
     </g>
     <g id="line2d_26">
      <g>
       <use xlink:href="#m5cc9595262" x="51.134499" y="52.497918" style="stroke: #000000; stroke-width: 0.8"/>
      </g>
     </g>
     <g id="text_14">
      <!-- $\mathdefault{0.5}$ -->
      <g transform="translate(31.40442 55.957167) scale(0.1 -0.1)">
       <use xlink:href="#CMR17-30" transform="scale(0.996264)"/>
       <use xlink:href="#CMMI12-3a" transform="translate(45.690477 0) scale(0.996264)"/>
       <use xlink:href="#CMR17-35" transform="translate(72.787654 0) scale(0.996264)"/>
      </g>
     </g>
    </g>
    <g id="ytick_6">
     <g id="line2d_27">
      <path d="M 51.134499 29.036979 
L 349.2 29.036979 
" clip-path="url(#p4f2244c28d)" style="fill: none; stroke: #b0b0b0; stroke-width: 0.8; stroke-linecap: square"/>
     </g>
     <g id="line2d_28">
      <g>
       <use xlink:href="#m5cc9595262" x="51.134499" y="29.036979" style="stroke: #000000; stroke-width: 0.8"/>
      </g>
     </g>
     <g id="text_15">
      <!-- $\mathdefault{1.0}$ -->
      <g transform="translate(31.40442 32.496229) scale(0.1 -0.1)">
       <use xlink:href="#CMR17-31" transform="scale(0.996264)"/>
       <use xlink:href="#CMMI12-3a" transform="translate(45.690477 0) scale(0.996264)"/>
       <use xlink:href="#CMR17-30" transform="translate(72.787654 0) scale(0.996264)"/>
      </g>
     </g>
    </g>
    <g id="text_16">
     <!-- Control signal $\tau$ -->
     <g transform="translate(17.718498 116.750227) rotate(-90) scale(0.1 -0.1)">
      <defs>
       <path id="CMR17-43" d="M 3974 4289 
C 3974 4403 3968 4410 3930 4410 
C 3904 4410 3898 4403 3853 4327 
L 3571 3792 
C 3258 4187 2874 4416 2381 4416 
C 1286 4416 294 3456 294 2148 
C 294 826 1286 -128 2387 -128 
C 3366 -128 3974 730 3974 1461 
C 3974 1524 3974 1550 3917 1550 
C 3866 1550 3866 1531 3859 1474 
C 3808 585 3168 38 2477 38 
C 1824 38 781 495 781 2147 
C 781 3805 1843 4250 2464 4250 
C 3187 4250 3712 3628 3834 2745 
C 3846 2668 3846 2655 3904 2655 
C 3974 2655 3974 2668 3974 2783 
L 3974 4289 
z
" transform="scale(0.015625)"/>
       <path id="CMR17-6f" d="M 2758 1356 
C 2758 2176 2163 2816 1466 2816 
C 768 2816 173 2176 173 1356 
C 173 551 768 -64 1466 -64 
C 2163 -64 2758 551 2758 1356 
z
M 1466 51 
C 1165 51 909 230 762 480 
C 602 767 582 1126 582 1408 
C 582 1677 595 2010 762 2298 
C 890 2509 1139 2714 1466 2714 
C 1754 2714 1997 2554 2150 2330 
C 2349 2029 2349 1607 2349 1408 
C 2349 1158 2336 775 2163 467 
C 1984 173 1709 51 1466 51 
z
" transform="scale(0.015625)"/>
       <path id="CMR17-6e" d="M 2656 1933 
C 2656 2259 2592 2790 1837 2790 
C 1331 2790 1069 2400 973 2144 
L 966 2144 
L 966 2790 
L 211 2720 
L 211 2554 
C 589 2554 646 2515 646 2208 
L 646 428 
C 646 184 621 153 211 153 
L 211 -13 
C 365 0 646 0 813 0 
C 979 0 1267 0 1421 -13 
L 1421 153 
C 1011 153 986 178 986 428 
L 986 1658 
C 986 2247 1344 2688 1792 2688 
C 2266 2688 2317 2266 2317 1958 
L 2317 428 
C 2317 184 2291 153 1882 153 
L 1882 -13 
C 2035 0 2317 0 2483 0 
C 2650 0 2938 0 3091 -13 
L 3091 153 
C 2682 153 2656 178 2656 428 
L 2656 1933 
z
" transform="scale(0.015625)"/>
       <path id="CMR17-74" d="M 966 2560 
L 1862 2560 
L 1862 2725 
L 966 2725 
L 966 3904 
L 851 3904 
C 838 3245 614 2668 70 2668 
L 70 2560 
L 627 2560 
L 627 771 
C 627 650 627 -64 1370 -64 
C 1747 -64 1965 306 1965 777 
L 1965 1140 
L 1850 1140 
L 1850 783 
C 1850 344 1677 51 1408 51 
C 1222 51 966 178 966 758 
L 966 2560 
z
" transform="scale(0.015625)"/>
       <path id="CMR17-72" d="M 960 1497 
C 960 2112 1222 2688 1702 2688 
C 1747 2688 1792 2682 1837 2662 
C 1837 2662 1696 2617 1696 2452 
C 1696 2298 1818 2234 1914 2234 
C 1990 2234 2131 2279 2131 2458 
C 2131 2663 1926 2790 1709 2790 
C 1222 2790 1011 2317 947 2093 
L 941 2093 
L 941 2790 
L 198 2720 
L 198 2554 
C 576 2554 634 2515 634 2208 
L 634 428 
C 634 184 608 153 198 153 
L 198 -13 
C 352 0 646 0 813 0 
C 998 0 1325 0 1498 -13 
L 1498 153 
C 1037 153 960 153 960 440 
L 960 1497 
z
" transform="scale(0.015625)"/>
       <path id="CMR17-6c" d="M 979 4396 
L 218 4326 
L 218 4160 
C 595 4160 653 4122 653 3817 
L 653 426 
C 653 184 627 153 218 153 
L 218 -13 
C 371 0 653 0 813 0 
C 979 0 1261 0 1414 -13 
L 1414 153 
C 1005 153 979 178 979 426 
L 979 4396 
z
" transform="scale(0.015625)"/>
       <path id="CMR17-67" d="M 710 1164 
C 832 1068 1043 960 1299 960 
C 1805 960 2240 1357 2240 1888 
C 2240 2054 2189 2310 1997 2509 
C 2176 2692 2438 2752 2586 2752 
C 2611 2752 2650 2752 2682 2734 
C 2656 2728 2598 2703 2598 2605 
C 2598 2527 2656 2471 2739 2471 
C 2835 2471 2886 2533 2886 2614 
C 2886 2731 2790 2854 2586 2854 
C 2330 2854 2106 2738 1926 2580 
C 1734 2753 1504 2816 1299 2816 
C 794 2816 358 2419 358 1888 
C 358 1522 570 1292 634 1228 
C 442 1004 442 743 442 711 
C 442 545 506 302 723 168 
C 390 85 128 -169 128 -486 
C 128 -943 736 -1280 1466 -1280 
C 2170 -1280 2803 -956 2803 -479 
C 2803 384 1856 384 1363 384 
C 1216 384 954 384 922 391 
C 723 423 589 602 589 826 
C 589 883 589 1024 710 1164 
z
M 1299 1068 
C 736 1068 736 1760 736 1889 
C 736 2016 736 2708 1299 2708 
C 1862 2708 1862 2016 1862 1889 
C 1862 1760 1862 1068 1299 1068 
z
M 1466 -1171 
C 826 -1171 384 -835 384 -486 
C 384 -289 493 -105 634 -4 
C 794 104 858 104 1293 104 
C 1818 104 2547 104 2547 -486 
C 2547 -835 2106 -1171 1466 -1171 
z
" transform="scale(0.015625)"/>
       <path id="CMR17-61" d="M 2304 1653 
C 2304 2072 2304 2294 2035 2543 
C 1798 2752 1523 2816 1306 2816 
C 800 2816 435 2407 435 1971 
C 435 1728 627 1728 666 1728 
C 749 1728 896 1778 896 1954 
C 896 2112 774 2181 666 2181 
C 640 2181 608 2174 589 2168 
C 723 2592 1069 2714 1293 2714 
C 1613 2714 1965 2429 1965 1885 
L 1965 1600 
C 1587 1600 1133 1549 774 1357 
C 371 1133 256 813 256 570 
C 256 77 832 -64 1171 -64 
C 1523 -64 1850 139 1990 511 
C 2003 233 2182 -18 2464 -18 
C 2598 -18 2938 70 2938 567 
L 2938 920 
L 2822 920 
L 2822 562 
C 2822 178 2650 128 2566 128 
C 2304 128 2304 458 2304 738 
L 2304 1653 
z
M 1965 870 
C 1965 317 1568 38 1216 38 
C 896 38 646 275 646 570 
C 646 761 730 1100 1101 1305 
C 1408 1478 1760 1504 1965 1504 
L 1965 870 
z
" transform="scale(0.015625)"/>
       <path id="CMMI12-1c" d="M 1837 2408 
L 2899 2408 
C 2982 2408 3194 2408 3194 2612 
C 3194 2752 3072 2752 2957 2752 
L 1197 2752 
C 1050 2752 832 2752 538 2440 
C 371 2255 166 1917 166 1879 
C 166 1841 198 1828 237 1828 
C 282 1828 288 1847 320 1885 
C 653 2408 986 2408 1146 2408 
L 1677 2408 
L 1011 223 
C 979 127 979 114 979 95 
C 979 25 1024 -64 1152 -64 
C 1350 -64 1382 108 1402 203 
L 1837 2408 
z
" transform="scale(0.015625)"/>
      </defs>
      <use xlink:href="#CMR17-43" transform="scale(0.996264)"/>
      <use xlink:href="#CMR17-6f" transform="translate(66.509881 0) scale(0.996264)"/>
      <use xlink:href="#CMR17-6e" transform="translate(112.200358 0) scale(0.996264)"/>
      <use xlink:href="#CMR17-74" transform="translate(160.493274 0) scale(0.996264)"/>
      <use xlink:href="#CMR17-72" transform="translate(195.774041 0) scale(0.996264)"/>
      <use xlink:href="#CMR17-6f" transform="translate(231.054809 0) scale(0.996264)"/>
      <use xlink:href="#CMR17-6c" transform="translate(276.745286 0) scale(0.996264)"/>
      <use xlink:href="#CMR17-73" transform="translate(331.692311 0) scale(0.996264)"/>
      <use xlink:href="#CMR17-69" transform="translate(367.493649 0) scale(0.996264)"/>
      <use xlink:href="#CMR17-67" transform="translate(392.364707 0) scale(0.996264)"/>
      <use xlink:href="#CMR17-6e" transform="translate(438.055184 0) scale(0.996264)"/>
      <use xlink:href="#CMR17-61" transform="translate(488.950554 0) scale(0.996264)"/>
      <use xlink:href="#CMR17-6c" transform="translate(534.641031 0) scale(0.996264)"/>
      <use xlink:href="#CMMI12-1c" transform="translate(589.588056 0) scale(0.996264)"/>
     </g>
    </g>
   </g>
   <g id="line2d_29">
    <path d="M 64.682931 84.88121 
L 64.83777 76.326134 
L 64.99261 76.223226 
L 66.231323 76.850334 
L 67.470037 77.122913 
L 69.173269 77.264641 
L 71.805535 77.227379 
L 73.818445 77.206104 
L 78.463622 77.213895 
L 89.612046 77.208716 
L 103.392737 77.20908 
L 103.470156 73.691116 
L 103.547576 75.159251 
L 103.624995 75.498401 
L 103.702415 75.475538 
L 104.399191 74.524552 
L 105.095968 74.052946 
L 106.025003 73.730573 
L 107.418556 73.522861 
L 109.354047 73.452244 
L 142.102542 73.499009 
L 142.179961 76.230787 
L 142.257381 76.03094 
L 142.48964 76.045807 
L 143.341256 76.224723 
L 145.276746 76.385874 
L 147.831593 76.344122 
L 149.921922 76.345682 
L 159.831633 76.347052 
L 171.986511 76.344663 
L 180.812347 76.344799 
L 180.889767 73.821781 
L 181.044606 75.467195 
L 181.199445 75.350367 
L 181.741382 74.643292 
L 182.438159 74.14493 
L 183.289775 73.826966 
L 184.528488 73.605583 
L 186.386559 73.505249 
L 191.960771 73.54572 
L 193.664002 73.546607 
L 204.657587 73.553369 
L 215.186654 73.551261 
L 219.522152 73.551547 
L 219.676992 75.681403 
L 219.831831 75.815155 
L 220.606027 75.363593 
L 221.689901 75.071198 
L 223.238294 74.899958 
L 225.328623 74.886126 
L 231.367353 74.934821 
L 248.399667 74.930164 
L 258.231958 74.930557 
L 258.309377 77.825965 
L 258.386797 76.624034 
L 258.464216 76.348192 
L 258.541636 76.371858 
L 259.315832 77.26684 
L 260.012609 77.667604 
L 261.019064 77.969027 
L 262.567456 78.156582 
L 265.66424 78.181505 
L 272.554586 78.144665 
L 277.896539 78.153122 
L 296.941763 78.149812 
L 297.019182 74.115489 
L 297.096602 75.381254 
L 297.174022 75.645088 
L 297.251441 75.597251 
L 297.870798 74.789161 
L 298.567575 74.340464 
L 299.49661 74.024336 
L 300.967583 73.80356 
L 302.748234 73.741307 
L 335.651568 73.79696 
L 335.651568 73.79696 
" clip-path="url(#p4f2244c28d)" style="fill: none; stroke: #1f77b4; stroke-width: 2; stroke-linecap: square"/>
   </g>
   <g id="line2d_30">
    <path d="M 64.682931 74.044417 
L 64.760351 73.138296 
L 64.91519 74.336432 
L 65.070029 74.405152 
L 66.541002 74.085802 
L 68.553912 73.951915 
L 71.495857 73.903916 
L 95.031419 73.884497 
L 103.392737 73.877584 
L 103.470156 85.527266 
L 103.547576 82.692901 
L 103.702415 81.665824 
L 103.934674 81.840929 
L 104.476611 82.191319 
L 105.328227 82.446443 
L 106.72178 82.572983 
L 112.218572 82.671002 
L 139.238016 82.95685 
L 142.102542 82.979189 
L 142.179961 77.468056 
L 142.257381 77.855761 
L 142.41222 77.939636 
L 143.186416 77.805386 
L 145.663844 77.70896 
L 150.618699 77.767483 
L 174.154261 78.009306 
L 180.812347 78.062491 
L 180.889767 83.010175 
L 181.044606 79.665083 
L 181.199445 79.480294 
L 182.12848 80.014783 
L 183.057516 80.224271 
L 184.838167 80.336713 
L 192.038191 80.417338 
L 193.586583 80.440876 
L 207.98663 80.523233 
L 219.522152 80.577878 
L 219.676992 74.506956 
L 219.831831 74.099818 
L 221.147964 74.475636 
L 222.851196 74.615519 
L 238.877055 74.577469 
L 246.386757 74.532367 
L 258.231958 74.47496 
L 258.309377 70.915697 
L 258.464216 73.91609 
L 258.619056 74.025787 
L 259.238413 73.605981 
L 260.090028 73.346621 
L 261.483581 73.191151 
L 264.812625 73.118754 
L 279.986868 73.059257 
L 296.941763 73.014147 
L 297.019182 80.513266 
L 297.096602 78.061233 
L 297.251441 77.283615 
L 298.180477 77.923328 
L 299.186932 78.149471 
L 301.045002 78.278709 
L 306.309536 78.338456 
L 318.851513 78.358459 
L 327.832187 78.377047 
L 335.651568 78.387807 
L 335.651568 78.387807 
" clip-path="url(#p4f2244c28d)" style="fill: none; stroke: #ff7f0e; stroke-width: 2; stroke-linecap: square"/>
   </g>
   <g id="line2d_31">
    <path d="M 64.682931 17.299167 
L 64.760351 71.138212 
L 64.83777 64.871113 
L 65.147449 48.758342 
L 65.457127 41.911852 
L 65.766806 39.014648 
L 66.076484 37.76901 
L 66.463582 37.131961 
L 66.9281 36.840521 
L 67.857135 36.61075 
L 70.102304 36.301827 
L 79.470077 35.42128 
L 81.405567 35.284572 
L 85.276548 35.029164 
L 92.78625 34.677312 
L 103.392737 34.35724 
L 103.470156 79.560353 
L 103.547576 76.341536 
L 103.934674 59.151609 
L 104.244352 54.564874 
L 104.554031 52.816408 
L 104.863709 52.162851 
L 105.250807 51.890494 
L 105.870164 51.778732 
L 106.489521 51.712012 
L 110.437921 51.319893 
L 114.696 51.005461 
L 115.005678 50.969647 
L 116.55407 50.966673 
L 118.257302 50.865751 
L 118.721819 50.847336 
L 119.960533 50.769299 
L 120.50247 50.743611 
L 121.508925 50.686285 
L 122.205702 50.646314 
L 122.979898 50.614075 
L 123.831514 50.56356 
L 124.760549 50.560518 
L 133.199287 50.27608 
L 139.470275 50.134173 
L 142.102542 50.091048 
L 142.257381 85.236207 
L 142.567059 88.969827 
L 142.876738 90.519462 
L 143.186416 91.163797 
L 143.573514 91.474878 
L 144.192871 91.621313 
L 146.747718 91.782596 
L 153.870323 92.088484 
L 180.812347 92.603311 
L 181.044606 61.110133 
L 181.354284 43.400291 
L 181.663963 36.427698 
L 181.973641 33.644906 
L 182.28332 32.534475 
L 182.592998 32.083227 
L 183.057516 31.825336 
L 184.21881 31.573091 
L 187.393014 31.036284 
L 191.496253 30.5976 
L 193.509163 30.413747 
L 194.12852 30.305269 
L 197.070465 30.005161 
L 197.999501 29.93983 
L 198.696277 29.876868 
L 199.547893 29.81621 
L 200.322089 29.766403 
L 201.096285 29.697489 
L 201.947901 29.663844 
L 203.960811 29.516054 
L 205.586622 29.412013 
L 208.993085 29.250741 
L 212.399548 29.103794 
L 216.193109 28.967733 
L 219.522152 28.866153 
L 219.676992 88.914088 
L 219.98667 93.998185 
L 220.296348 96.270638 
L 220.606027 97.262577 
L 220.993125 97.768539 
L 221.457643 97.989085 
L 222.386678 98.118019 
L 223.006035 98.10599 
L 224.477007 98.276282 
L 228.735086 98.550645 
L 229.122184 98.569715 
L 230.902835 98.694398 
L 236.709306 98.967859 
L 238.877055 99.037461 
L 242.438357 99.155982 
L 247.393212 99.278935 
L 258.231958 99.466494 
L 258.309377 84.885693 
L 258.386797 86.002406 
L 258.851314 82.764808 
L 259.160993 82.336078 
L 259.548091 82.244984 
L 269.148123 82.409889 
L 269.457801 82.379661 
L 271.006193 82.483882 
L 272.709425 82.495448 
L 273.251362 82.493754 
L 274.412656 82.501991 
L 275.032013 82.489109 
L 275.883629 82.493845 
L 276.657825 82.488423 
L 277.432021 82.50624 
L 278.283637 82.487029 
L 280.219127 82.508996 
L 281.999778 82.533434 
L 296.941763 82.566003 
L 297.174022 78.370261 
L 297.4837 72.440646 
L 297.793379 70.41857 
L 298.103057 69.651143 
L 298.490155 69.325959 
L 299.109512 69.20924 
L 303.367591 69.010333 
L 307.315991 68.988135 
L 311.264391 68.887254 
L 311.961167 68.888969 
L 313.199881 68.88185 
L 316.838603 68.784728 
L 318.464415 68.756736 
L 327.754768 68.678614 
L 335.651568 68.620905 
L 335.651568 68.620905 
" clip-path="url(#p4f2244c28d)" style="fill: none; stroke: #2ca02c; stroke-width: 2; stroke-linecap: square"/>
   </g>
   <g id="line2d_32">
    <path d="M 64.682931 71.01586 
L 64.760351 76.076984 
L 64.83777 75.883746 
L 65.070029 75.760768 
L 67.00552 75.527401 
L 69.328108 75.454538 
L 84.192673 75.505962 
L 103.392737 75.505125 
L 103.470156 75.391813 
L 103.624995 76.078643 
L 103.934674 76.092675 
L 105.095968 76.129582 
L 108.115333 76.206256 
L 116.244392 76.164901 
L 138.928338 76.168523 
L 142.102542 76.168463 
L 142.334801 75.883108 
L 144.967067 75.728136 
L 150.928377 75.760894 
L 176.24459 75.75937 
L 180.812347 75.759438 
L 180.889767 75.437785 
L 181.044606 76.070777 
L 181.354284 76.102402 
L 182.902677 76.173234 
L 185.534943 76.228408 
L 193.818842 76.183677 
L 219.522152 76.187496 
L 219.599572 75.606433 
L 219.676992 75.814227 
L 219.90925 75.810716 
L 220.838286 75.575457 
L 222.618937 75.388901 
L 225.018945 75.380724 
L 231.444772 75.413741 
L 258.231958 75.410264 
L 258.309377 76.425666 
L 258.386797 75.985883 
L 258.541636 75.831487 
L 260.864224 75.793155 
L 264.115848 75.820728 
L 276.967503 75.819651 
L 296.941763 75.821287 
L 297.019182 75.510989 
L 297.174022 76.091986 
L 297.56112 76.078978 
L 299.186932 76.144874 
L 301.664359 76.168621 
L 308.322446 76.13667 
L 335.651568 76.135049 
L 335.651568 76.135049 
" clip-path="url(#p4f2244c28d)" style="fill: none; stroke: #d62728; stroke-width: 2; stroke-linecap: square"/>
   </g>
   <g id="line2d_33">
    <path d="M 64.682931 84.662376 
L 64.760351 77.732811 
L 64.91519 83.991638 
L 64.99261 84.141645 
L 65.379708 83.673709 
L 65.921645 83.659877 
L 69.637786 83.731453 
L 89.612046 83.897458 
L 94.72174 83.939043 
L 103.392737 83.997317 
L 103.470156 83.740546 
L 103.624995 74.228561 
L 103.934674 80.061291 
L 104.166933 80.969396 
L 104.399191 81.085371 
L 110.283082 80.88969 
L 114.696 80.872834 
L 115.005678 80.89468 
L 116.244392 80.979742 
L 117.560525 80.911975 
L 118.954078 80.942424 
L 119.805694 80.959429 
L 120.65731 80.944551 
L 121.431506 80.970177 
L 122.283121 80.947515 
L 123.212157 80.991822 
L 128.786369 81.001111 
L 131.805734 81.017177 
L 142.102542 81.056442 
L 142.179961 73.446753 
L 142.257381 74.073452 
L 142.644479 72.021081 
L 142.876738 71.836417 
L 143.573514 71.801662 
L 180.812347 71.657447 
L 180.889767 80.493131 
L 181.044606 69.862447 
L 181.431704 74.360063 
L 181.663963 74.753197 
L 181.973641 74.770132 
L 183.599453 74.615024 
L 185.457524 74.525647 
L 186.23172 74.561915 
L 218.360858 74.541417 
L 219.522152 74.54225 
L 219.599572 78.438066 
L 219.754411 73.924245 
L 220.06409 76.449989 
L 220.296348 76.820367 
L 220.683446 76.862077 
L 224.01249 76.790608 
L 239.651251 76.799929 
L 252.425487 76.803018 
L 258.231958 76.80644 
L 258.309377 72.036944 
L 258.464216 81.424657 
L 258.773895 77.439387 
L 259.006154 76.802788 
L 259.315832 76.741711 
L 261.328742 76.916192 
L 265.819079 76.924392 
L 266.825534 76.923319 
L 296.941763 76.950883 
L 297.019182 83.104549 
L 297.096602 75.389716 
L 297.174022 75.851203 
L 297.4837 81.60009 
L 297.715959 82.385347 
L 297.948218 82.467238 
L 301.50952 82.26989 
L 302.748234 82.299483 
L 335.651568 82.518527 
L 335.651568 82.518527 
" clip-path="url(#p4f2244c28d)" style="fill: none; stroke: #9467bd; stroke-width: 2; stroke-linecap: square"/>
   </g>
   <g id="line2d_34">
    <path d="M 64.682931 147.282516 
L 64.760351 90.795757 
L 64.83777 97.181226 
L 65.147449 112.209705 
L 65.457127 118.945288 
L 65.766806 122.018009 
L 66.076484 123.433597 
L 66.463582 124.206396 
L 66.9281 124.576137 
L 67.624876 124.801191 
L 71.418437 125.490828 
L 75.211998 126.049347 
L 79.624916 126.566249 
L 85.508806 127.080881 
L 93.250768 127.548413 
L 103.237897 127.920977 
L 103.392737 127.925296 
L 103.547576 67.946326 
L 103.934674 47.617026 
L 104.244352 41.13427 
L 104.554031 38.279875 
L 104.863709 37.001773 
L 105.250807 36.333217 
L 105.715325 36.03198 
L 106.72178 35.772911 
L 110.128243 35.131728 
L 118.799239 34.096501 
L 125.844424 33.526685 
L 131.573475 33.199263 
L 139.470275 32.887777 
L 142.102542 32.810315 
L 142.257381 85.79728 
L 142.567059 92.263014 
L 142.876738 95.157317 
L 143.186416 96.45998 
L 143.573514 97.144055 
L 144.038032 97.445109 
L 144.812228 97.603773 
L 148.528369 97.947407 
L 156.967107 98.454268 
L 168.502629 98.861589 
L 180.812347 99.088127 
L 180.967186 71.064242 
L 181.354284 54.722144 
L 181.663963 49.433792 
L 181.973641 47.111232 
L 182.28332 46.074859 
L 182.670418 45.534584 
L 183.134935 45.291795 
L 184.29623 45.051568 
L 187.547853 44.554174 
L 197.612403 43.642232 
L 209.070505 43.03472 
L 217.97376 42.765275 
L 219.522152 42.73063 
L 219.676992 79.481553 
L 219.831831 79.177704 
L 220.141509 78.598193 
L 220.606027 78.268913 
L 221.302803 78.085766 
L 223.006035 77.941721 
L 224.477007 77.969202 
L 228.425408 78.051434 
L 231.444772 78.07654 
L 246.077079 78.104618 
L 258.231958 78.116468 
L 258.696475 62.393567 
L 259.006154 57.564935 
L 259.315832 55.432713 
L 259.625511 54.464541 
L 260.012609 53.947939 
L 260.477126 53.710574 
L 261.561001 53.492306 
L 264.425526 53.109286 
L 275.961048 52.334293 
L 280.838484 52.108834 
L 296.709504 51.682986 
L 296.941763 51.679217 
L 297.096602 85.518149 
L 297.251441 86.193273 
L 297.4837 86.3932 
L 298.025637 86.943385 
L 298.567575 87.120848 
L 299.806288 87.214696 
L 309.019222 87.373932 
L 312.812783 87.421306 
L 335.651568 87.571355 
L 335.651568 87.571355 
" clip-path="url(#p4f2244c28d)" style="fill: none; stroke: #8c564b; stroke-width: 2; stroke-linecap: square"/>
   </g>
   <g id="patch_3">
    <path d="M 51.134499 153.781683 
L 51.134499 10.8 
" style="fill: none; stroke: #000000; stroke-width: 0.8; stroke-linejoin: miter; stroke-linecap: square"/>
   </g>
   <g id="patch_4">
    <path d="M 349.2 153.781683 
L 349.2 10.8 
" style="fill: none; stroke: #000000; stroke-width: 0.8; stroke-linejoin: miter; stroke-linecap: square"/>
   </g>
   <g id="patch_5">
    <path d="M 51.134499 153.781683 
L 349.2 153.781683 
" style="fill: none; stroke: #000000; stroke-width: 0.8; stroke-linejoin: miter; stroke-linecap: square"/>
   </g>
   <g id="patch_6">
    <path d="M 51.134499 10.8 
L 349.2 10.8 
" style="fill: none; stroke: #000000; stroke-width: 0.8; stroke-linejoin: miter; stroke-linecap: square"/>
   </g>
   <g id="legend_1">
    <g id="patch_7">
     <path d="M 58.134499 125.602377 
L 98.460941 125.602377 
Q 100.460941 125.602377 100.460941 123.602377 
L 100.460941 40.979307 
Q 100.460941 38.979307 98.460941 38.979307 
L 58.134499 38.979307 
Q 56.134499 38.979307 56.134499 40.979307 
L 56.134499 123.602377 
Q 56.134499 125.602377 58.134499 125.602377 
z
" style="fill: #ffffff; opacity: 0.8; stroke: #cccccc; stroke-linejoin: miter"/>
    </g>
    <g id="line2d_35">
     <path d="M 60.134499 46.479307 
L 70.134499 46.479307 
L 80.134499 46.479307 
" style="fill: none; stroke: #1f77b4; stroke-width: 2; stroke-linecap: square"/>
    </g>
    <g id="text_17">
     <!-- $\tau_{1}$ -->
     <g transform="translate(88.134499 49.979307) scale(0.1 -0.1)">
      <use xlink:href="#CMMI12-1c" transform="scale(0.996264)"/>
      <use xlink:href="#CMR17-31" transform="translate(42.363841 -14.943915) scale(0.697382)"/>
     </g>
    </g>
    <g id="line2d_36">
     <path d="M 60.134499 60.416485 
L 70.134499 60.416485 
L 80.134499 60.416485 
" style="fill: none; stroke: #ff7f0e; stroke-width: 2; stroke-linecap: square"/>
    </g>
    <g id="text_18">
     <!-- $\tau_{2}$ -->
     <g transform="translate(88.134499 63.916485) scale(0.1 -0.1)">
      <use xlink:href="#CMMI12-1c" transform="scale(0.996264)"/>
      <use xlink:href="#CMR17-32" transform="translate(42.363841 -14.943915) scale(0.697382)"/>
     </g>
    </g>
    <g id="line2d_37">
     <path d="M 60.134499 74.353663 
L 70.134499 74.353663 
L 80.134499 74.353663 
" style="fill: none; stroke: #2ca02c; stroke-width: 2; stroke-linecap: square"/>
    </g>
    <g id="text_19">
     <!-- $\tau_{3}$ -->
     <g transform="translate(88.134499 77.853663) scale(0.1 -0.1)">
      <use xlink:href="#CMMI12-1c" transform="scale(0.996264)"/>
      <use xlink:href="#CMR17-33" transform="translate(42.363841 -14.943915) scale(0.697382)"/>
     </g>
    </g>
    <g id="line2d_38">
     <path d="M 60.134499 88.290842 
L 70.134499 88.290842 
L 80.134499 88.290842 
" style="fill: none; stroke: #d62728; stroke-width: 2; stroke-linecap: square"/>
    </g>
    <g id="text_20">
     <!-- $\tau_{4}$ -->
     <g transform="translate(88.134499 91.790842) scale(0.1 -0.1)">
      <defs>
       <path id="CMR17-34" d="M 2150 4122 
C 2150 4256 2144 4256 2029 4256 
L 128 1254 
L 128 1088 
L 1779 1088 
L 1779 457 
C 1779 224 1766 160 1318 160 
L 1197 160 
L 1197 0 
C 1402 0 1747 0 1965 0 
C 2182 0 2528 0 2733 0 
L 2733 160 
L 2611 160 
C 2163 160 2150 224 2150 457 
L 2150 1088 
L 2803 1088 
L 2803 1254 
L 2150 1254 
L 2150 4122 
z
M 1798 3703 
L 1798 1254 
L 256 1254 
L 1798 3703 
z
" transform="scale(0.015625)"/>
      </defs>
      <use xlink:href="#CMMI12-1c" transform="scale(0.996264)"/>
      <use xlink:href="#CMR17-34" transform="translate(42.363841 -14.943915) scale(0.697382)"/>
     </g>
    </g>
    <g id="line2d_39">
     <path d="M 60.134499 102.22802 
L 70.134499 102.22802 
L 80.134499 102.22802 
" style="fill: none; stroke: #9467bd; stroke-width: 2; stroke-linecap: square"/>
    </g>
    <g id="text_21">
     <!-- $\tau_{5}$ -->
     <g transform="translate(88.134499 105.72802) scale(0.1 -0.1)">
      <use xlink:href="#CMMI12-1c" transform="scale(0.996264)"/>
      <use xlink:href="#CMR17-35" transform="translate(42.363841 -14.943915) scale(0.697382)"/>
     </g>
    </g>
    <g id="line2d_40">
     <path d="M 60.134499 116.165198 
L 70.134499 116.165198 
L 80.134499 116.165198 
" style="fill: none; stroke: #8c564b; stroke-width: 2; stroke-linecap: square"/>
    </g>
    <g id="text_22">
     <!-- $\tau_{6}$ -->
     <g transform="translate(88.134499 119.665198) scale(0.1 -0.1)">
      <defs>
       <path id="CMR17-36" d="M 678 2176 
C 678 3690 1395 4032 1811 4032 
C 1946 4032 2272 4009 2400 3776 
C 2298 3776 2106 3776 2106 3553 
C 2106 3381 2246 3323 2336 3323 
C 2394 3323 2566 3348 2566 3560 
C 2566 3954 2246 4179 1805 4179 
C 1043 4179 243 3390 243 1984 
C 243 253 966 -128 1478 -128 
C 2099 -128 2688 427 2688 1283 
C 2688 2081 2170 2662 1517 2662 
C 1126 2662 838 2407 678 1960 
L 678 2176 
z
M 1478 25 
C 691 25 691 1200 691 1436 
C 691 1896 909 2560 1504 2560 
C 1613 2560 1926 2560 2138 2120 
C 2253 1870 2253 1609 2253 1289 
C 2253 944 2253 690 2118 434 
C 1978 171 1773 25 1478 25 
z
" transform="scale(0.015625)"/>
      </defs>
      <use xlink:href="#CMMI12-1c" transform="scale(0.996264)"/>
      <use xlink:href="#CMR17-36" transform="translate(42.363841 -14.943915) scale(0.697382)"/>
     </g>
    </g>
   </g>
  </g>
 </g>
 <defs>
  <clipPath id="p4f2244c28d">
   <rect x="51.134499" y="10.8" width="298.065501" height="142.981683"/>
  </clipPath>
 </defs>
</svg>
