<?xml version="1.0" encoding="utf-8" standalone="no"?>
<!DOCTYPE svg PUBLIC "-//W3C//DTD SVG 1.1//EN"
  "http://www.w3.org/Graphics/SVG/1.1/DTD/svg11.dtd">
<svg xmlns:xlink="http://www.w3.org/1999/xlink" width="360pt" height="194.4pt" viewBox="0 0 360 194.4" xmlns="http://www.w3.org/2000/svg" version="1.1">
 <metadata>
  <rdf:RDF xmlns:dc="http://purl.org/dc/elements/1.1/" xmlns:cc="http://creativecommons.org/ns#" xmlns:rdf="http://www.w3.org/1999/02/22-rdf-syntax-ns#">
   <cc:Work>
    <dc:type rdf:resource="http://purl.org/dc/dcmitype/StillImage"/>
    <dc:date>2024-10-29T16:35:07.125330</dc:date>
    <dc:format>image/svg+xml</dc:format>
    <dc:creator>
     <cc:Agent>
      <dc:title>Matplotlib v3.9.2, https://matplotlib.org/</dc:title>
     </cc:Agent>
    </dc:creator>
   </cc:Work>
  </rdf:RDF>
 </metadata>
 <defs>
  <style type="text/css">*{stroke-linejoin: round; stroke-linecap: butt}</style>
 </defs>
 <g id="figure_1">
  <g id="patch_1">
   <path d="M 0 194.4 
L 360 194.4 
L 360 0 
L 0 0 
z
" style="fill: #ffffff"/>
  </g>
  <g id="axes_1">
   <g id="patch_2">
    <path d="M 57.222798 153.781683 
L 349.2 153.781683 
L 349.2 10.8 
L 57.222798 10.8 
z
" style="fill: #ffffff"/>
   </g>
   <g id="matplotlib.axis_1">
    <g id="xtick_1">
     <g id="line2d_1">
      <path d="M 70.494489 153.781683 
L 70.494489 10.8 
" clip-path="url(#pa4fc096110)" style="fill: none; stroke: #b0b0b0; stroke-width: 0.8; stroke-linecap: square"/>
     </g>
     <g id="line2d_2">
      <defs>
       <path id="mbaa0bad713" d="M 0 0 
L 0 3.5 
" style="stroke: #000000; stroke-width: 0.8"/>
      </defs>
      <g>
       <use xlink:href="#mbaa0bad713" x="70.494489" y="153.781683" style="stroke: #000000; stroke-width: 0.8"/>
      </g>
     </g>
     <g id="text_1">
      <!-- $\mathdefault{0}$ -->
      <g transform="translate(68.003821 167.700182) scale(0.1 -0.1)">
       <defs>
        <path id="CMR17-30" d="M 2688 2025 
C 2688 2416 2682 3080 2413 3591 
C 2176 4039 1798 4198 1466 4198 
C 1158 4198 768 4058 525 3597 
C 269 3118 243 2524 243 2025 
C 243 1661 250 1106 448 619 
C 723 -39 1216 -128 1466 -128 
C 1760 -128 2208 -7 2470 600 
C 2662 1042 2688 1559 2688 2025 
z
M 1466 -26 
C 1056 -26 813 325 723 812 
C 653 1188 653 1738 653 2096 
C 653 2588 653 2997 736 3387 
C 858 3929 1216 4096 1466 4096 
C 1728 4096 2067 3923 2189 3400 
C 2272 3036 2278 2607 2278 2096 
C 2278 1680 2278 1169 2202 792 
C 2067 95 1690 -26 1466 -26 
z
" transform="scale(0.015625)"/>
       </defs>
       <use xlink:href="#CMR17-30" transform="scale(0.996264)"/>
      </g>
     </g>
    </g>
    <g id="xtick_2">
     <g id="line2d_3">
      <path d="M 108.413606 153.781683 
L 108.413606 10.8 
" clip-path="url(#pa4fc096110)" style="fill: none; stroke: #b0b0b0; stroke-width: 0.8; stroke-linecap: square"/>
     </g>
     <g id="line2d_4">
      <g>
       <use xlink:href="#mbaa0bad713" x="108.413606" y="153.781683" style="stroke: #000000; stroke-width: 0.8"/>
      </g>
     </g>
     <g id="text_2">
      <!-- $\mathdefault{5}$ -->
      <g transform="translate(105.922939 167.700182) scale(0.1 -0.1)">
       <defs>
        <path id="CMR17-35" d="M 730 3692 
C 794 3666 1056 3584 1325 3584 
C 1920 3584 2246 3911 2432 4100 
C 2432 4157 2432 4192 2394 4192 
C 2387 4192 2374 4192 2323 4163 
C 2099 4058 1837 3973 1517 3973 
C 1325 3973 1037 3999 723 4139 
C 653 4171 640 4171 634 4171 
C 602 4171 595 4164 595 4037 
L 595 2203 
C 595 2089 595 2057 659 2057 
C 691 2057 704 2070 736 2114 
C 941 2401 1222 2522 1542 2522 
C 1766 2522 2246 2382 2246 1289 
C 2246 1085 2246 715 2054 421 
C 1894 159 1645 25 1370 25 
C 947 25 518 320 403 814 
C 429 807 480 795 506 795 
C 589 795 749 840 749 1038 
C 749 1210 627 1280 506 1280 
C 358 1280 262 1190 262 1011 
C 262 454 704 -128 1382 -128 
C 2042 -128 2669 440 2669 1264 
C 2669 2030 2170 2624 1549 2624 
C 1222 2624 947 2503 730 2274 
L 730 3692 
z
" transform="scale(0.015625)"/>
       </defs>
       <use xlink:href="#CMR17-35" transform="scale(0.996264)"/>
      </g>
     </g>
    </g>
    <g id="xtick_3">
     <g id="line2d_5">
      <path d="M 146.332723 153.781683 
L 146.332723 10.8 
" clip-path="url(#pa4fc096110)" style="fill: none; stroke: #b0b0b0; stroke-width: 0.8; stroke-linecap: square"/>
     </g>
     <g id="line2d_6">
      <g>
       <use xlink:href="#mbaa0bad713" x="146.332723" y="153.781683" style="stroke: #000000; stroke-width: 0.8"/>
      </g>
     </g>
     <g id="text_3">
      <!-- $\mathdefault{10}$ -->
      <g transform="translate(141.351388 167.700182) scale(0.1 -0.1)">
       <defs>
        <path id="CMR17-31" d="M 1702 4058 
C 1702 4192 1696 4192 1606 4192 
C 1357 3916 979 3827 621 3827 
C 602 3827 570 3827 563 3808 
C 557 3795 557 3782 557 3648 
C 755 3648 1088 3686 1344 3839 
L 1344 461 
C 1344 236 1331 160 781 160 
L 589 160 
L 589 0 
C 896 0 1216 0 1523 0 
C 1830 0 2150 0 2458 0 
L 2458 160 
L 2266 160 
C 1715 160 1702 230 1702 458 
L 1702 4058 
z
" transform="scale(0.015625)"/>
       </defs>
       <use xlink:href="#CMR17-31" transform="scale(0.996264)"/>
       <use xlink:href="#CMR17-30" transform="translate(45.690477 0) scale(0.996264)"/>
      </g>
     </g>
    </g>
    <g id="xtick_4">
     <g id="line2d_7">
      <path d="M 184.25184 153.781683 
L 184.25184 10.8 
" clip-path="url(#pa4fc096110)" style="fill: none; stroke: #b0b0b0; stroke-width: 0.8; stroke-linecap: square"/>
     </g>
     <g id="line2d_8">
      <g>
       <use xlink:href="#mbaa0bad713" x="184.25184" y="153.781683" style="stroke: #000000; stroke-width: 0.8"/>
      </g>
     </g>
     <g id="text_4">
      <!-- $\mathdefault{15}$ -->
      <g transform="translate(179.270505 167.700182) scale(0.1 -0.1)">
       <use xlink:href="#CMR17-31" transform="scale(0.996264)"/>
       <use xlink:href="#CMR17-35" transform="translate(45.690477 0) scale(0.996264)"/>
      </g>
     </g>
    </g>
    <g id="xtick_5">
     <g id="line2d_9">
      <path d="M 222.170958 153.781683 
L 222.170958 10.8 
" clip-path="url(#pa4fc096110)" style="fill: none; stroke: #b0b0b0; stroke-width: 0.8; stroke-linecap: square"/>
     </g>
     <g id="line2d_10">
      <g>
       <use xlink:href="#mbaa0bad713" x="222.170958" y="153.781683" style="stroke: #000000; stroke-width: 0.8"/>
      </g>
     </g>
     <g id="text_5">
      <!-- $\mathdefault{20}$ -->
      <g transform="translate(217.189622 167.700182) scale(0.1 -0.1)">
       <defs>
        <path id="CMR17-32" d="M 2669 989 
L 2554 989 
C 2490 536 2438 459 2413 420 
C 2381 369 1920 369 1830 369 
L 602 369 
C 832 619 1280 1072 1824 1597 
C 2214 1967 2669 2402 2669 3035 
C 2669 3790 2067 4224 1395 4224 
C 691 4224 262 3604 262 3030 
C 262 2780 448 2748 525 2748 
C 589 2748 781 2787 781 3010 
C 781 3207 614 3264 525 3264 
C 486 3264 448 3258 422 3245 
C 544 3790 915 4058 1306 4058 
C 1862 4058 2227 3617 2227 3035 
C 2227 2479 1901 2000 1536 1584 
L 262 146 
L 262 0 
L 2515 0 
L 2669 989 
z
" transform="scale(0.015625)"/>
       </defs>
       <use xlink:href="#CMR17-32" transform="scale(0.996264)"/>
       <use xlink:href="#CMR17-30" transform="translate(45.690477 0) scale(0.996264)"/>
      </g>
     </g>
    </g>
    <g id="xtick_6">
     <g id="line2d_11">
      <path d="M 260.090075 153.781683 
L 260.090075 10.8 
" clip-path="url(#pa4fc096110)" style="fill: none; stroke: #b0b0b0; stroke-width: 0.8; stroke-linecap: square"/>
     </g>
     <g id="line2d_12">
      <g>
       <use xlink:href="#mbaa0bad713" x="260.090075" y="153.781683" style="stroke: #000000; stroke-width: 0.8"/>
      </g>
     </g>
     <g id="text_6">
      <!-- $\mathdefault{25}$ -->
      <g transform="translate(255.108739 167.700182) scale(0.1 -0.1)">
       <use xlink:href="#CMR17-32" transform="scale(0.996264)"/>
       <use xlink:href="#CMR17-35" transform="translate(45.690477 0) scale(0.996264)"/>
      </g>
     </g>
    </g>
    <g id="xtick_7">
     <g id="line2d_13">
      <path d="M 298.009192 153.781683 
L 298.009192 10.8 
" clip-path="url(#pa4fc096110)" style="fill: none; stroke: #b0b0b0; stroke-width: 0.8; stroke-linecap: square"/>
     </g>
     <g id="line2d_14">
      <g>
       <use xlink:href="#mbaa0bad713" x="298.009192" y="153.781683" style="stroke: #000000; stroke-width: 0.8"/>
      </g>
     </g>
     <g id="text_7">
      <!-- $\mathdefault{30}$ -->
      <g transform="translate(293.027857 167.700182) scale(0.1 -0.1)">
       <defs>
        <path id="CMR17-33" d="M 1414 2157 
C 1984 2157 2234 1662 2234 1090 
C 2234 320 1824 25 1453 25 
C 1114 25 563 194 390 693 
C 422 680 454 680 486 680 
C 640 680 755 782 755 948 
C 755 1133 614 1216 486 1216 
C 378 1216 211 1165 211 926 
C 211 335 787 -128 1466 -128 
C 2176 -128 2720 430 2720 1085 
C 2720 1707 2208 2157 1600 2227 
C 2086 2328 2554 2756 2554 3329 
C 2554 3820 2048 4179 1472 4179 
C 890 4179 378 3829 378 3329 
C 378 3110 544 3072 627 3072 
C 762 3072 877 3155 877 3321 
C 877 3486 762 3569 627 3569 
C 602 3569 570 3569 544 3557 
C 730 3959 1235 4032 1459 4032 
C 1683 4032 2106 3925 2106 3320 
C 2106 3143 2080 2828 1862 2550 
C 1670 2304 1453 2304 1242 2284 
C 1210 2284 1062 2269 1037 2269 
C 992 2263 966 2257 966 2208 
C 966 2163 973 2157 1101 2157 
L 1414 2157 
z
" transform="scale(0.015625)"/>
       </defs>
       <use xlink:href="#CMR17-33" transform="scale(0.996264)"/>
       <use xlink:href="#CMR17-30" transform="translate(45.690477 0) scale(0.996264)"/>
      </g>
     </g>
    </g>
    <g id="xtick_8">
     <g id="line2d_15">
      <path d="M 335.928309 153.781683 
L 335.928309 10.8 
" clip-path="url(#pa4fc096110)" style="fill: none; stroke: #b0b0b0; stroke-width: 0.8; stroke-linecap: square"/>
     </g>
     <g id="line2d_16">
      <g>
       <use xlink:href="#mbaa0bad713" x="335.928309" y="153.781683" style="stroke: #000000; stroke-width: 0.8"/>
      </g>
     </g>
     <g id="text_8">
      <!-- $\mathdefault{35}$ -->
      <g transform="translate(330.946974 167.700182) scale(0.1 -0.1)">
       <use xlink:href="#CMR17-33" transform="scale(0.996264)"/>
       <use xlink:href="#CMR17-35" transform="translate(45.690477 0) scale(0.996264)"/>
      </g>
     </g>
    </g>
    <g id="text_9">
     <!-- Time $t$ [s] -->
     <g transform="translate(182.013091 181.10934) scale(0.1 -0.1)">
      <defs>
       <path id="CMR17-54" d="M 3981 4326 
L 288 4326 
L 179 2918 
L 294 2918 
C 378 3976 467 4160 1453 4160 
C 1568 4160 1754 4160 1805 4154 
C 1926 4135 1926 4058 1926 3912 
L 1926 459 
C 1926 230 1907 160 1376 160 
L 1197 160 
L 1197 0 
C 1504 0 1824 0 2138 0 
C 2451 0 2771 0 3078 0 
L 3078 160 
L 2899 160 
C 2368 160 2349 230 2349 459 
L 2349 3912 
C 2349 4052 2349 4129 2464 4154 
C 2515 4160 2701 4160 2816 4160 
C 3795 4160 3891 3976 3974 2918 
L 4090 2918 
L 3981 4326 
z
" transform="scale(0.015625)"/>
       <path id="CMR17-69" d="M 992 3909 
C 992 4049 877 4170 730 4170 
C 589 4170 467 4056 467 3909 
C 467 3769 582 3648 730 3648 
C 870 3648 992 3763 992 3909 
z
M 243 2706 
L 243 2541 
C 602 2541 653 2502 653 2197 
L 653 427 
C 653 184 627 153 218 153 
L 218 -13 
C 371 0 646 0 806 0 
C 960 0 1222 0 1370 -13 
L 1370 153 
C 992 153 979 191 979 420 
L 979 2776 
L 243 2706 
z
" transform="scale(0.015625)"/>
       <path id="CMR17-6d" d="M 4326 1933 
C 4326 2252 4269 2790 3507 2790 
C 3072 2790 2771 2496 2656 2151 
L 2650 2151 
C 2573 2676 2195 2790 1837 2790 
C 1331 2790 1069 2400 973 2144 
L 966 2144 
L 966 2790 
L 211 2720 
L 211 2554 
C 589 2554 646 2515 646 2208 
L 646 428 
C 646 184 621 153 211 153 
L 211 -13 
C 365 0 646 0 813 0 
C 979 0 1267 0 1421 -13 
L 1421 153 
C 1011 153 986 178 986 428 
L 986 1658 
C 986 2247 1344 2688 1792 2688 
C 2266 2688 2317 2266 2317 1958 
L 2317 428 
C 2317 184 2291 153 1882 153 
L 1882 -13 
C 2035 0 2317 0 2483 0 
C 2650 0 2938 0 3091 -13 
L 3091 153 
C 2682 153 2656 178 2656 428 
L 2656 1658 
C 2656 2247 3014 2688 3462 2688 
C 3936 2688 3987 2266 3987 1958 
L 3987 428 
C 3987 184 3962 153 3552 153 
L 3552 -13 
C 3706 0 3987 0 4154 0 
C 4320 0 4608 0 4762 -13 
L 4762 153 
C 4352 153 4326 178 4326 428 
L 4326 1933 
z
" transform="scale(0.015625)"/>
       <path id="CMR17-65" d="M 2438 1472 
C 2464 1498 2464 1511 2464 1576 
C 2464 2238 2118 2816 1389 2816 
C 710 2816 173 2169 173 1383 
C 173 551 781 -64 1459 -64 
C 2176 -64 2458 607 2458 740 
C 2458 784 2419 784 2406 784 
C 2362 784 2355 771 2330 696 
C 2189 265 1837 51 1504 51 
C 1229 51 954 203 781 480 
C 582 803 582 1176 582 1472 
L 2438 1472 
z
M 589 1568 
C 634 2505 1126 2714 1382 2714 
C 1818 2714 2112 2297 2118 1568 
L 589 1568 
z
" transform="scale(0.015625)"/>
       <path id="CMMI12-74" d="M 1286 2566 
L 1875 2566 
C 1997 2566 2061 2566 2061 2681 
C 2061 2752 2022 2752 1894 2752 
L 1331 2752 
L 1568 3692 
C 1594 3781 1594 3794 1594 3840 
C 1594 3943 1510 4000 1427 4000 
C 1376 4000 1229 3981 1178 3775 
L 928 2752 
L 326 2752 
C 198 2752 141 2752 141 2630 
C 141 2566 186 2566 307 2566 
L 877 2566 
L 454 881 
C 403 658 384 594 384 511 
C 384 211 595 -64 954 -64 
C 1600 -64 1946 868 1946 912 
C 1946 951 1920 970 1882 970 
C 1869 970 1843 970 1830 944 
C 1824 938 1818 931 1773 829 
C 1638 511 1344 64 973 64 
C 781 64 768 224 768 364 
C 768 370 768 492 787 568 
L 1286 2566 
z
" transform="scale(0.015625)"/>
       <path id="CMR17-5b" d="M 1504 -1600 
L 1504 -1377 
L 902 -1377 
L 902 4544 
L 1504 4544 
L 1504 4767 
L 678 4767 
L 678 -1600 
L 1504 -1600 
z
" transform="scale(0.015625)"/>
       <path id="CMR17-73" d="M 1978 2697 
C 1978 2813 1971 2819 1933 2819 
C 1907 2819 1901 2813 1824 2717 
C 1805 2691 1747 2626 1728 2601 
C 1523 2819 1235 2819 1126 2819 
C 416 2819 160 2447 160 2076 
C 160 1498 813 1365 998 1325 
C 1402 1243 1542 1217 1677 1101 
C 1760 1025 1901 884 1901 654 
C 1901 384 1747 38 1158 38 
C 602 38 403 460 288 1021 
C 269 1110 269 1117 218 1117 
C 166 1117 160 1110 160 983 
L 160 63 
C 160 -51 166 -58 205 -58 
C 237 -58 243 -51 275 0 
C 314 57 410 211 448 276 
C 576 103 800 -64 1158 -64 
C 1792 -64 2131 283 2131 784 
C 2131 1112 1958 1285 1875 1362 
C 1683 1561 1459 1606 1190 1657 
C 838 1735 390 1825 390 2217 
C 390 2383 480 2737 1126 2737 
C 1811 2737 1850 2094 1862 1888 
C 1869 1856 1901 1849 1920 1849 
C 1978 1849 1978 1869 1978 1978 
L 1978 2697 
z
" transform="scale(0.015625)"/>
       <path id="CMR17-5d" d="M 915 4767 
L 90 4767 
L 90 4544 
L 691 4544 
L 691 -1377 
L 90 -1377 
L 90 -1600 
L 915 -1600 
L 915 4767 
z
" transform="scale(0.015625)"/>
      </defs>
      <use xlink:href="#CMR17-54" transform="scale(0.996264)"/>
      <use xlink:href="#CMR17-69" transform="translate(66.509881 0) scale(0.996264)"/>
      <use xlink:href="#CMR17-6d" transform="translate(91.380939 0) scale(0.996264)"/>
      <use xlink:href="#CMR17-65" transform="translate(168.300529 0) scale(0.996264)"/>
      <use xlink:href="#CMMI12-74" transform="translate(238.862156 0) scale(0.996264)"/>
      <use xlink:href="#CMR17-5b" transform="translate(304.164452 0) scale(0.996264)"/>
      <use xlink:href="#CMR17-73" transform="translate(329.035511 0) scale(0.996264)"/>
      <use xlink:href="#CMR17-5d" transform="translate(364.836848 0) scale(0.996264)"/>
     </g>
    </g>
   </g>
   <g id="matplotlib.axis_2">
    <g id="ytick_1">
     <g id="line2d_17">
      <path d="M 57.222798 150.748562 
L 349.2 150.748562 
" clip-path="url(#pa4fc096110)" style="fill: none; stroke: #b0b0b0; stroke-width: 0.8; stroke-linecap: square"/>
     </g>
     <g id="line2d_18">
      <defs>
       <path id="mf81b7984df" d="M 0 0 
L -3.5 0 
" style="stroke: #000000; stroke-width: 0.8"/>
      </defs>
      <g>
       <use xlink:href="#mf81b7984df" x="57.222798" y="150.748562" style="stroke: #000000; stroke-width: 0.8"/>
      </g>
     </g>
     <g id="text_10">
      <!-- $\mathdefault{−0.10}$ -->
      <g transform="translate(24.76264 154.207812) scale(0.1 -0.1)">
       <defs>
        <path id="CMSY10-0" d="M 4218 1472 
C 4326 1472 4442 1472 4442 1600 
C 4442 1728 4326 1728 4218 1728 
L 755 1728 
C 646 1728 531 1728 531 1600 
C 531 1472 646 1472 755 1472 
L 4218 1472 
z
" transform="scale(0.015625)"/>
        <path id="CMMI12-3a" d="M 1178 307 
C 1178 492 1024 619 870 619 
C 685 619 557 466 557 313 
C 557 128 710 0 864 0 
C 1050 0 1178 153 1178 307 
z
" transform="scale(0.015625)"/>
       </defs>
       <use xlink:href="#CMSY10-0" transform="scale(0.996264)"/>
       <use xlink:href="#CMR17-30" transform="translate(77.487468 0) scale(0.996264)"/>
       <use xlink:href="#CMMI12-3a" transform="translate(123.177945 0) scale(0.996264)"/>
       <use xlink:href="#CMR17-31" transform="translate(150.275122 0) scale(0.996264)"/>
       <use xlink:href="#CMR17-30" transform="translate(195.965599 0) scale(0.996264)"/>
      </g>
     </g>
    </g>
    <g id="ytick_2">
     <g id="line2d_19">
      <path d="M 57.222798 114.517603 
L 349.2 114.517603 
" clip-path="url(#pa4fc096110)" style="fill: none; stroke: #b0b0b0; stroke-width: 0.8; stroke-linecap: square"/>
     </g>
     <g id="line2d_20">
      <g>
       <use xlink:href="#mf81b7984df" x="57.222798" y="114.517603" style="stroke: #000000; stroke-width: 0.8"/>
      </g>
     </g>
     <g id="text_11">
      <!-- $\mathdefault{−0.05}$ -->
      <g transform="translate(24.76264 117.976853) scale(0.1 -0.1)">
       <use xlink:href="#CMSY10-0" transform="scale(0.996264)"/>
       <use xlink:href="#CMR17-30" transform="translate(77.487468 0) scale(0.996264)"/>
       <use xlink:href="#CMMI12-3a" transform="translate(123.177945 0) scale(0.996264)"/>
       <use xlink:href="#CMR17-30" transform="translate(150.275122 0) scale(0.996264)"/>
       <use xlink:href="#CMR17-35" transform="translate(195.965599 0) scale(0.996264)"/>
      </g>
     </g>
    </g>
    <g id="ytick_3">
     <g id="line2d_21">
      <path d="M 57.222798 78.286644 
L 349.2 78.286644 
" clip-path="url(#pa4fc096110)" style="fill: none; stroke: #b0b0b0; stroke-width: 0.8; stroke-linecap: square"/>
     </g>
     <g id="line2d_22">
      <g>
       <use xlink:href="#mf81b7984df" x="57.222798" y="78.286644" style="stroke: #000000; stroke-width: 0.8"/>
      </g>
     </g>
     <g id="text_12">
      <!-- $\mathdefault{0.00}$ -->
      <g transform="translate(32.511384 81.745894) scale(0.1 -0.1)">
       <use xlink:href="#CMR17-30" transform="scale(0.996264)"/>
       <use xlink:href="#CMMI12-3a" transform="translate(45.690477 0) scale(0.996264)"/>
       <use xlink:href="#CMR17-30" transform="translate(72.787654 0) scale(0.996264)"/>
       <use xlink:href="#CMR17-30" transform="translate(118.478131 0) scale(0.996264)"/>
      </g>
     </g>
    </g>
    <g id="ytick_4">
     <g id="line2d_23">
      <path d="M 57.222798 42.055685 
L 349.2 42.055685 
" clip-path="url(#pa4fc096110)" style="fill: none; stroke: #b0b0b0; stroke-width: 0.8; stroke-linecap: square"/>
     </g>
     <g id="line2d_24">
      <g>
       <use xlink:href="#mf81b7984df" x="57.222798" y="42.055685" style="stroke: #000000; stroke-width: 0.8"/>
      </g>
     </g>
     <g id="text_13">
      <!-- $\mathdefault{0.05}$ -->
      <g transform="translate(32.511384 45.514935) scale(0.1 -0.1)">
       <use xlink:href="#CMR17-30" transform="scale(0.996264)"/>
       <use xlink:href="#CMMI12-3a" transform="translate(45.690477 0) scale(0.996264)"/>
       <use xlink:href="#CMR17-30" transform="translate(72.787654 0) scale(0.996264)"/>
       <use xlink:href="#CMR17-35" transform="translate(118.478131 0) scale(0.996264)"/>
      </g>
     </g>
    </g>
    <g id="text_14">
     <!-- Linear strains $\sigma$ [-] -->
     <g transform="translate(18.27198 123.104853) rotate(-90) scale(0.1 -0.1)">
      <defs>
       <path id="CMR17-4c" d="M 3469 1615 
L 3354 1615 
C 3302 983 3219 166 2125 166 
L 1530 166 
C 1274 166 1261 197 1261 414 
L 1261 3898 
C 1261 4129 1274 4192 1760 4192 
L 1901 4192 
L 1901 4352 
C 1638 4352 1331 4352 1069 4352 
C 870 4352 512 4352 326 4352 
L 326 4192 
C 768 4192 838 4192 838 3905 
L 838 452 
C 838 166 768 166 326 166 
L 326 0 
L 3315 0 
L 3469 1615 
z
" transform="scale(0.015625)"/>
       <path id="CMR17-6e" d="M 2656 1933 
C 2656 2259 2592 2790 1837 2790 
C 1331 2790 1069 2400 973 2144 
L 966 2144 
L 966 2790 
L 211 2720 
L 211 2554 
C 589 2554 646 2515 646 2208 
L 646 428 
C 646 184 621 153 211 153 
L 211 -13 
C 365 0 646 0 813 0 
C 979 0 1267 0 1421 -13 
L 1421 153 
C 1011 153 986 178 986 428 
L 986 1658 
C 986 2247 1344 2688 1792 2688 
C 2266 2688 2317 2266 2317 1958 
L 2317 428 
C 2317 184 2291 153 1882 153 
L 1882 -13 
C 2035 0 2317 0 2483 0 
C 2650 0 2938 0 3091 -13 
L 3091 153 
C 2682 153 2656 178 2656 428 
L 2656 1933 
z
" transform="scale(0.015625)"/>
       <path id="CMR17-61" d="M 2304 1653 
C 2304 2072 2304 2294 2035 2543 
C 1798 2752 1523 2816 1306 2816 
C 800 2816 435 2407 435 1971 
C 435 1728 627 1728 666 1728 
C 749 1728 896 1778 896 1954 
C 896 2112 774 2181 666 2181 
C 640 2181 608 2174 589 2168 
C 723 2592 1069 2714 1293 2714 
C 1613 2714 1965 2429 1965 1885 
L 1965 1600 
C 1587 1600 1133 1549 774 1357 
C 371 1133 256 813 256 570 
C 256 77 832 -64 1171 -64 
C 1523 -64 1850 139 1990 511 
C 2003 233 2182 -18 2464 -18 
C 2598 -18 2938 70 2938 567 
L 2938 920 
L 2822 920 
L 2822 562 
C 2822 178 2650 128 2566 128 
C 2304 128 2304 458 2304 738 
L 2304 1653 
z
M 1965 870 
C 1965 317 1568 38 1216 38 
C 896 38 646 275 646 570 
C 646 761 730 1100 1101 1305 
C 1408 1478 1760 1504 1965 1504 
L 1965 870 
z
" transform="scale(0.015625)"/>
       <path id="CMR17-72" d="M 960 1497 
C 960 2112 1222 2688 1702 2688 
C 1747 2688 1792 2682 1837 2662 
C 1837 2662 1696 2617 1696 2452 
C 1696 2298 1818 2234 1914 2234 
C 1990 2234 2131 2279 2131 2458 
C 2131 2663 1926 2790 1709 2790 
C 1222 2790 1011 2317 947 2093 
L 941 2093 
L 941 2790 
L 198 2720 
L 198 2554 
C 576 2554 634 2515 634 2208 
L 634 428 
C 634 184 608 153 198 153 
L 198 -13 
C 352 0 646 0 813 0 
C 998 0 1325 0 1498 -13 
L 1498 153 
C 1037 153 960 153 960 440 
L 960 1497 
z
" transform="scale(0.015625)"/>
       <path id="CMR17-74" d="M 966 2560 
L 1862 2560 
L 1862 2725 
L 966 2725 
L 966 3904 
L 851 3904 
C 838 3245 614 2668 70 2668 
L 70 2560 
L 627 2560 
L 627 771 
C 627 650 627 -64 1370 -64 
C 1747 -64 1965 306 1965 777 
L 1965 1140 
L 1850 1140 
L 1850 783 
C 1850 344 1677 51 1408 51 
C 1222 51 966 178 966 758 
L 966 2560 
z
" transform="scale(0.015625)"/>
       <path id="CMMI12-1b" d="M 3251 2408 
C 3334 2408 3546 2408 3546 2612 
C 3546 2752 3424 2752 3309 2752 
L 1894 2752 
C 934 2752 243 1686 243 932 
C 243 390 595 -64 1171 -64 
C 1926 -64 2752 747 2752 1705 
C 2752 1954 2694 2196 2541 2408 
L 3251 2408 
z
M 1178 64 
C 851 64 614 313 614 754 
C 614 1137 845 2408 1786 2408 
C 2061 2408 2368 2274 2368 1781 
C 2368 1558 2266 1021 2042 652 
C 1811 275 1466 64 1178 64 
z
" transform="scale(0.015625)"/>
       <path id="CMR17-2d" d="M 1632 1216 
L 1632 1496 
L 26 1496 
L 26 1216 
L 1632 1216 
z
" transform="scale(0.015625)"/>
      </defs>
      <use xlink:href="#CMR17-4c" transform="scale(0.996264)"/>
      <use xlink:href="#CMR17-69" transform="translate(57.381408 0) scale(0.996264)"/>
      <use xlink:href="#CMR17-6e" transform="translate(82.252466 0) scale(0.996264)"/>
      <use xlink:href="#CMR17-65" transform="translate(133.147836 0) scale(0.996264)"/>
      <use xlink:href="#CMR17-61" transform="translate(173.633497 0) scale(0.996264)"/>
      <use xlink:href="#CMR17-72" transform="translate(219.323974 0) scale(0.996264)"/>
      <use xlink:href="#CMR17-73" transform="translate(284.680708 0) scale(0.996264)"/>
      <use xlink:href="#CMR17-74" transform="translate(320.482045 0) scale(0.996264)"/>
      <use xlink:href="#CMR17-72" transform="translate(355.762813 0) scale(0.996264)"/>
      <use xlink:href="#CMR17-61" transform="translate(391.043581 0) scale(0.996264)"/>
      <use xlink:href="#CMR17-69" transform="translate(436.734058 0) scale(0.996264)"/>
      <use xlink:href="#CMR17-6e" transform="translate(461.605117 0) scale(0.996264)"/>
      <use xlink:href="#CMR17-73" transform="translate(512.500486 0) scale(0.996264)"/>
      <use xlink:href="#CMMI12-1b" transform="translate(578.37779 0) scale(0.996264)"/>
      <use xlink:href="#CMR17-5b" transform="translate(667.47381 0) scale(0.996264)"/>
      <use xlink:href="#CMR17-2d" transform="translate(692.344869 0) scale(0.996264)"/>
      <use xlink:href="#CMR17-5d" transform="translate(722.420835 0) scale(0.996264)"/>
     </g>
    </g>
   </g>
   <g id="line2d_25">
    <path d="M 70.494489 84.284116 
L 108.413606 84.284116 
L 108.565283 110.127636 
L 184.25184 110.056678 
L 184.403517 86.305706 
L 222.170958 86.305706 
L 222.322634 42.10116 
L 260.090075 42.10116 
L 260.241751 86.332346 
L 298.009192 86.332346 
L 298.160868 65.234102 
L 335.928309 65.234102 
L 335.928309 65.234102 
" clip-path="url(#pa4fc096110)" style="fill: none; stroke-dasharray: 3.5,5.775; stroke-dashoffset: 0; stroke: #1f77b4; stroke-width: 3.5"/>
   </g>
   <g id="line2d_26">
    <path d="M 70.494489 112.762407 
L 108.413606 112.762407 
L 108.565283 89.336206 
L 146.332723 89.336206 
L 146.4844 65.488448 
L 184.25184 65.488448 
L 184.403517 66.305904 
L 222.170958 66.305904 
L 222.322634 72.756235 
L 260.090075 72.756235 
L 260.241751 89.904746 
L 298.009192 89.904746 
L 298.160868 92.441169 
L 335.928309 92.441169 
L 335.928309 92.441169 
" clip-path="url(#pa4fc096110)" style="fill: none; stroke-dasharray: 3.5,5.775; stroke-dashoffset: 0; stroke: #ff7f0e; stroke-width: 3.5"/>
   </g>
   <g id="line2d_27">
    <path d="M 70.494489 20.852263 
L 108.413606 20.852263 
L 108.565283 43.904046 
L 146.332723 43.904046 
L 146.4844 92.004296 
L 184.25184 92.004296 
L 184.403517 17.299167 
L 222.170958 17.299167 
L 222.322634 101.186342 
L 260.090075 101.186342 
L 260.241751 83.263069 
L 298.009192 83.263069 
L 298.160868 65.876152 
L 335.928309 65.876152 
L 335.928309 65.876152 
" clip-path="url(#pa4fc096110)" style="fill: none; stroke-dasharray: 3.5,5.775; stroke-dashoffset: 0; stroke: #2ca02c; stroke-width: 3.5"/>
   </g>
   <g id="line2d_28">
    <path d="M 70.494489 147.282516 
L 108.413606 147.282516 
L 108.565283 21.61368 
L 146.332723 21.61368 
L 146.4844 106.169411 
L 184.25184 106.169411 
L 184.403517 34.962253 
L 222.170958 34.962253 
L 222.322634 79.685588 
L 260.090075 79.685588 
L 260.241751 46.555264 
L 298.009192 46.555264 
L 298.160868 95.890345 
L 335.928309 95.890345 
L 335.928309 95.890345 
" clip-path="url(#pa4fc096110)" style="fill: none; stroke-dasharray: 3.5,5.775; stroke-dashoffset: 0; stroke: #d62728; stroke-width: 3.5"/>
   </g>
   <g id="line2d_29">
    <path d="M 70.494489 78.286644 
L 70.646166 82.135544 
L 70.949518 79.710827 
L 71.32871 77.574271 
L 71.707901 76.627189 
L 72.011254 76.429358 
L 72.314607 76.565699 
L 72.693798 77.043237 
L 73.376342 78.348356 
L 74.817268 81.200833 
L 75.803165 82.701504 
L 76.637386 83.586449 
L 77.395768 84.090359 
L 78.002474 84.27031 
L 78.457504 84.470807 
L 79.215886 84.677707 
L 80.35346 84.761863 
L 81.491033 84.676252 
L 82.47693 84.894385 
L 83.538665 84.762237 
L 84.221209 84.886042 
L 85.282945 84.80406 
L 85.889651 84.852196 
L 86.723871 84.786812 
L 87.482254 84.818178 
L 88.240636 84.788964 
L 88.999018 84.794042 
L 89.833239 84.795223 
L 90.743298 84.756179 
L 108.413606 84.638165 
L 108.565283 68.640133 
L 109.475341 91.617941 
L 109.930371 96.57976 
L 110.3854 99.343498 
L 110.84043 100.884414 
L 111.295459 101.728793 
L 111.826327 102.284074 
L 112.508871 102.66497 
L 114.25315 103.230891 
L 116.376621 103.452133 
L 119.86518 103.57396 
L 120.851077 103.772361 
L 122.595356 103.928362 
L 123.353738 103.990146 
L 124.112121 104.067921 
L 124.946341 104.178157 
L 125.780562 104.265335 
L 126.690621 104.349831 
L 128.4349 104.532852 
L 131.999297 104.924951 
L 138.673062 105.535275 
L 143.981738 105.970962 
L 146.332723 106.152192 
L 146.408562 80.358327 
L 146.4844 81.120787 
L 148.683709 92.747392 
L 149.442091 95.575313 
L 150.35215 98.212479 
L 151.110532 99.775601 
L 151.868914 100.83183 
L 153.234003 102.074431 
L 154.144061 102.531995 
L 155.281635 102.816377 
L 156.267532 103.254736 
L 157.405106 103.394008 
L 158.08765 103.594704 
L 158.92187 103.639616 
L 159.680253 103.82372 
L 160.438635 103.865922 
L 161.197017 104.012593 
L 161.9554 104.072987 
L 162.713782 104.181901 
L 163.472164 104.264637 
L 164.230547 104.342446 
L 165.064767 104.456839 
L 166.884885 104.639874 
L 168.705002 104.805093 
L 177.047208 105.580348 
L 184.25184 106.15369 
L 184.403517 68.161059 
L 184.70687 74.932822 
L 185.161899 82.156222 
L 185.54109 85.208917 
L 185.920282 86.653055 
L 186.223635 87.102929 
L 186.526987 87.175581 
L 186.83034 87.017897 
L 187.512885 86.26544 
L 188.802135 84.84334 
L 190.394737 83.789434 
L 191.532311 83.337753 
L 193.883296 82.688753 
L 195.248384 82.564807 
L 196.765149 82.759044 
L 197.675208 82.685734 
L 205.183193 83.17445 
L 206.699958 83.256318 
L 208.671752 83.370878 
L 210.795222 83.489558 
L 213.90459 83.643867 
L 222.170958 84.032539 
L 222.322634 71.848493 
L 222.474311 71.577125 
L 222.625987 71.501376 
L 222.853502 70.913937 
L 223.308531 68.861231 
L 226.114546 54.490469 
L 227.024605 51.562302 
L 227.782987 49.805194 
L 228.541369 48.590558 
L 229.451428 47.621509 
L 230.058134 47.084088 
L 230.892355 46.659871 
L 231.49906 46.55847 
L 232.409119 46.421496 
L 234.001722 46.053971 
L 234.684266 45.948712 
L 235.36681 45.809999 
L 236.352707 45.754994 
L 237.11109 45.677387 
L 237.94531 45.606657 
L 238.779531 45.565575 
L 240.599649 45.433575 
L 242.495604 45.28989 
L 260.090075 44.392929 
L 260.241751 87.849114 
L 260.545104 82.801416 
L 260.924295 78.681825 
L 261.227648 77.17374 
L 261.531001 76.648119 
L 261.758516 76.684447 
L 262.061869 77.101695 
L 262.592736 78.390679 
L 264.337016 83.021754 
L 265.398751 84.812818 
L 266.232972 85.839799 
L 267.218869 86.678446 
L 268.356442 87.319115 
L 270.100722 87.921133 
L 270.934942 88.005856 
L 271.845001 87.900177 
L 272.679222 87.999709 
L 273.513442 88.028039 
L 274.423501 87.956893 
L 275.33356 87.997756 
L 276.16778 87.948157 
L 277.002001 87.945486 
L 277.836222 87.927851 
L 278.670442 87.884627 
L 280.263045 87.837466 
L 289.06028 87.624477 
L 293.838089 87.514587 
L 298.009192 87.424298 
L 298.160868 68.306005 
L 298.919251 77.188175 
L 299.222604 77.947994 
L 299.450118 77.969976 
L 299.677633 77.676107 
L 300.056824 76.748776 
L 300.966883 73.68751 
L 302.028618 70.40969 
L 302.711162 68.888011 
L 303.621221 67.310797 
L 304.455442 66.283764 
L 305.365501 65.508764 
L 306.427236 64.901819 
L 308.171515 64.273296 
L 308.929898 64.208234 
L 309.991633 64.281796 
L 313.101 64.11506 
L 314.162736 64.152478 
L 314.921118 64.169086 
L 315.6795 64.172298 
L 316.513721 64.202854 
L 318.106324 64.234471 
L 328.268647 64.392453 
L 335.549118 64.499181 
L 335.928309 64.505624 
L 335.928309 64.505624 
" clip-path="url(#pa4fc096110)" style="fill: none; stroke: #1f77b4; stroke-width: 2; stroke-linecap: square"/>
   </g>
   <g id="line2d_30">
    <path d="M 70.494489 78.286644 
L 70.646166 102.634106 
L 70.722004 103.183669 
L 70.949518 102.425983 
L 71.101195 102.780094 
L 72.087092 106.278374 
L 72.693798 107.416183 
L 73.300504 108.111751 
L 74.058886 108.651742 
L 74.286401 108.610113 
L 76.258195 109.178612 
L 77.547445 109.185826 
L 78.078312 109.100253 
L 78.685018 109.293819 
L 79.519239 109.234804 
L 79.974268 109.258632 
L 80.580974 109.054352 
L 81.415195 109.158357 
L 81.794386 109.369823 
L 82.325254 109.36568 
L 83.235312 109.110069 
L 84.069533 109.403027 
L 84.903754 109.183033 
L 85.662136 109.410758 
L 86.420518 109.241334 
L 87.178901 109.419946 
L 87.937283 109.309657 
L 88.619827 109.440973 
L 89.378209 109.358102 
L 90.060753 109.460377 
L 90.819136 109.40642 
L 91.50168 109.480891 
L 92.260062 109.452594 
L 93.018445 109.493401 
L 93.700989 109.49596 
L 94.459371 109.519944 
L 95.217753 109.54653 
L 96.051974 109.540324 
L 98.099606 109.615494 
L 100.981459 109.678309 
L 108.413606 109.828477 
L 108.489444 50.307188 
L 108.565283 57.032132 
L 108.868636 87.979946 
L 109.020312 90.392512 
L 109.09615 90.485667 
L 109.247827 89.89015 
L 109.854533 87.029242 
L 110.233724 86.286181 
L 110.612915 86.036231 
L 111.219621 85.99965 
L 111.978003 86.412484 
L 112.888062 87.097992 
L 113.191415 87.431911 
L 113.798121 87.606309 
L 115.163209 87.735909 
L 116.300783 87.392341 
L 116.755812 87.167388 
L 117.590033 86.852685 
L 117.893385 86.782224 
L 119.41015 86.897805 
L 120.092694 87.351682 
L 120.926915 87.092363 
L 121.230268 86.911815 
L 121.98865 86.976348 
L 122.595356 87.289146 
L 122.974547 87.209741 
L 123.429577 86.93317 
L 123.808768 87.00865 
L 124.339635 87.300652 
L 124.718827 87.174617 
L 125.098018 86.991264 
L 125.477209 87.095385 
L 125.932238 87.289368 
L 126.311429 87.167045 
L 126.690621 87.04637 
L 127.069812 87.171299 
L 127.449003 87.285281 
L 127.904032 87.142805 
L 128.283224 87.105663 
L 129.193282 87.228707 
L 129.72415 87.143338 
L 130.634209 87.241735 
L 131.165076 87.180166 
L 131.999297 87.271533 
L 132.606003 87.215674 
L 133.440223 87.281232 
L 134.046929 87.249635 
L 134.805312 87.305175 
L 135.487856 87.281763 
L 136.246238 87.316718 
L 137.004621 87.323571 
L 137.687165 87.330171 
L 138.445547 87.349568 
L 139.279768 87.334686 
L 141.175723 87.381927 
L 142.540812 87.399059 
L 144.285091 87.436103 
L 146.332723 87.441544 
L 146.560238 71.050144 
L 146.787753 66.625119 
L 147.015267 66.063433 
L 147.242782 66.231764 
L 148.152841 67.069066 
L 148.835385 67.420956 
L 149.138738 67.413245 
L 150.276312 67.703006 
L 151.413885 67.688237 
L 152.399782 67.702093 
L 152.778973 67.67339 
L 153.689032 67.597232 
L 153.916547 67.61685 
L 154.295738 67.415283 
L 155.281635 67.506111 
L 155.584988 67.625072 
L 156.267532 67.563159 
L 156.646723 67.386465 
L 157.101753 67.396163 
L 157.708458 67.630172 
L 158.011811 67.531819 
L 158.466841 67.339499 
L 158.846032 67.450984 
L 159.225223 67.589849 
L 159.604414 67.478818 
L 160.059444 67.340454 
L 160.514473 67.505736 
L 160.893664 67.526572 
L 161.652047 67.362073 
L 162.334591 67.490163 
L 163.168811 67.376728 
L 163.775517 67.453444 
L 164.609738 67.369821 
L 165.216444 67.418499 
L 165.974826 67.347747 
L 166.65737 67.385944 
L 167.415752 67.339571 
L 168.174135 67.344039 
L 168.856679 67.328954 
L 169.615061 67.318882 
L 170.449282 67.327899 
L 172.193561 67.301189 
L 174.165355 67.251796 
L 178.336458 67.205422 
L 184.25184 67.141275 
L 184.327679 46.28545 
L 184.403517 47.732163 
L 184.70687 69.558386 
L 184.858546 71.217239 
L 184.934385 71.182769 
L 185.161899 70.070696 
L 185.692767 67.624225 
L 186.071958 66.804067 
L 186.451149 66.4595 
L 187.057855 66.286579 
L 187.588723 66.440905 
L 188.57462 66.908223 
L 189.029649 67.381986 
L 189.712193 67.493433 
L 191.304796 67.498464 
L 192.366532 67.133895 
L 192.821561 66.941929 
L 193.27659 66.753698 
L 193.504105 66.559946 
L 193.883296 66.634624 
L 194.641679 66.677898 
L 195.096708 66.67719 
L 195.324223 66.849493 
L 195.627576 67.116452 
L 196.006767 67.140884 
L 196.613473 66.919123 
L 196.992664 66.644484 
L 197.59937 66.745232 
L 197.902723 66.914964 
L 198.206076 67.011172 
L 198.736943 66.927071 
L 199.191973 66.698761 
L 199.571164 66.755623 
L 200.102031 67.008427 
L 200.405384 66.929584 
L 200.936252 66.700529 
L 201.315443 66.853637 
L 201.694634 66.979042 
L 202.073826 66.837108 
L 202.453017 66.719781 
L 202.832208 66.852212 
L 203.211399 66.947795 
L 203.666428 66.782461 
L 204.04562 66.752696 
L 204.804002 66.898584 
L 205.486546 66.762684 
L 206.320767 66.85739 
L 206.927473 66.772675 
L 207.685855 66.858602 
L 208.368399 66.781687 
L 209.126781 66.840102 
L 209.809325 66.789269 
L 210.567708 66.8235 
L 211.250252 66.795074 
L 211.932796 66.821232 
L 212.691178 66.798871 
L 213.449561 66.797033 
L 214.207943 66.809227 
L 214.966325 66.779778 
L 216.634766 66.771362 
L 219.06159 66.77602 
L 220.957546 66.769803 
L 222.170958 66.761413 
L 222.246796 64.275261 
L 222.398472 71.296575 
L 222.625987 78.554549 
L 222.777663 79.036436 
L 223.005178 78.144598 
L 223.611884 75.51802 
L 224.142752 74.145281 
L 224.673619 73.314883 
L 225.128649 72.916801 
L 225.50784 72.825198 
L 225.735355 72.81323 
L 226.948766 72.376604 
L 228.010502 72.304784 
L 229.37559 72.271666 
L 229.678943 72.126256 
L 230.816516 72.326907 
L 231.802413 72.596393 
L 232.484957 72.409459 
L 232.939987 72.199223 
L 233.546693 72.380609 
L 234.001722 72.55727 
L 235.290972 72.373849 
L 235.746002 72.506861 
L 236.276869 72.355798 
L 236.65606 72.331556 
L 237.641957 72.420574 
L 238.172825 72.355018 
L 239.082884 72.425635 
L 239.68959 72.381826 
L 240.447972 72.437644 
L 241.130516 72.396126 
L 241.888899 72.431635 
L 242.647281 72.420192 
L 243.405663 72.417793 
L 244.164046 72.437447 
L 245.074104 72.406461 
L 258.952501 72.456634 
L 260.090075 72.460626 
L 260.165913 106.688498 
L 260.241751 104.788632 
L 260.545104 84.696498 
L 260.696781 83.498768 
L 260.848457 84.054473 
L 261.531001 87.738547 
L 261.986031 88.863142 
L 262.516898 89.478298 
L 262.896089 89.657218 
L 263.502795 89.643668 
L 264.261178 89.467434 
L 264.716207 89.078148 
L 265.550428 89.039366 
L 267.218869 89.155558 
L 268.88731 89.655585 
L 269.190663 89.781418 
L 270.783266 89.673136 
L 271.238295 89.295677 
L 271.693325 89.388419 
L 272.982575 89.720642 
L 273.361766 89.624477 
L 273.740957 89.417312 
L 274.195986 89.447681 
L 274.87853 89.747343 
L 275.181883 89.613964 
L 275.561075 89.421788 
L 275.940266 89.516146 
L 276.395295 89.724625 
L 276.774486 89.607101 
L 277.153677 89.457111 
L 277.532869 89.562402 
L 277.987898 89.6954 
L 279.125472 89.620047 
L 279.504663 89.670814 
L 280.414722 89.564811 
L 280.945589 89.657437 
L 281.855648 89.57851 
L 282.386516 89.645446 
L 283.296574 89.592104 
L 283.90328 89.622432 
L 284.585824 89.57561 
L 285.344207 89.614422 
L 286.026751 89.589448 
L 286.785133 89.60869 
L 287.543516 89.611089 
L 288.301898 89.596946 
L 289.136118 89.630141 
L 292.245486 89.62448 
L 294.21728 89.610318 
L 297.857515 89.629707 
L 298.009192 89.625344 
L 298.08503 56.943288 
L 298.160868 64.957433 
L 298.388383 90.837807 
L 298.615898 95.477048 
L 298.691736 95.366664 
L 299.070927 93.031286 
L 299.525957 90.968012 
L 299.980986 89.953385 
L 300.511854 89.403739 
L 300.891045 89.233956 
L 301.573589 89.259765 
L 302.180295 89.399078 
L 302.559486 89.746844 
L 303.24203 89.801071 
L 305.289662 89.722064 
L 306.730589 89.351009 
L 307.033942 89.130233 
L 308.854059 89.502112 
L 309.157412 89.701561 
L 309.612442 89.682789 
L 310.143309 89.464126 
L 310.446662 89.287804 
L 311.129206 89.418753 
L 311.735912 89.652973 
L 312.190942 89.562694 
L 312.570133 89.396176 
L 312.949324 89.438176 
L 313.55603 89.68872 
L 313.935221 89.548377 
L 314.314412 89.437802 
L 314.693603 89.575861 
L 315.072795 89.698306 
L 315.451986 89.584111 
L 315.831177 89.493348 
L 316.286206 89.65261 
L 316.665397 89.694621 
L 317.499618 89.588261 
L 318.106324 89.706367 
L 318.940545 89.630548 
L 319.54725 89.718699 
L 320.381471 89.672007 
L 320.988177 89.732643 
L 321.822397 89.710981 
L 322.504942 89.738097 
L 323.187486 89.734177 
L 323.945868 89.758044 
L 324.70425 89.779977 
L 325.462633 89.774406 
L 326.979397 89.798848 
L 331.833044 89.91345 
L 335.928309 89.982313 
L 335.928309 89.982313 
" clip-path="url(#pa4fc096110)" style="fill: none; stroke: #ff7f0e; stroke-width: 2; stroke-linecap: square"/>
   </g>
   <g id="line2d_31">
    <path d="M 70.494489 78.286644 
L 70.797842 46.550638 
L 71.101195 33.090416 
L 71.404548 27.573883 
L 71.707901 25.352701 
L 72.011254 24.48903 
L 72.314607 24.175893 
L 72.769636 24.06517 
L 76.48571 23.830966 
L 80.35346 23.211317 
L 83.386989 22.868149 
L 85.737974 22.621548 
L 100.753945 21.665088 
L 108.413606 21.397673 
L 108.489444 72.169084 
L 108.565283 65.457733 
L 108.868636 50.175109 
L 109.171989 45.297444 
L 109.399503 44.22913 
L 109.627018 44.047418 
L 109.854533 44.224146 
L 111.067944 45.545171 
L 111.826327 45.907126 
L 112.9639 46.160815 
L 113.722283 46.215477 
L 115.390724 46.045865 
L 119.637665 45.465495 
L 120.396047 45.45381 
L 123.960444 45.141899 
L 124.870503 45.093108 
L 125.780562 45.050489 
L 127.676518 44.945335 
L 130.027503 44.812652 
L 132.30265 44.707903 
L 135.791209 44.580686 
L 146.332723 44.292063 
L 146.4844 82.277593 
L 146.787753 87.067189 
L 147.091106 89.059721 
L 147.394459 89.900086 
L 147.77365 90.323256 
L 148.304517 90.534916 
L 149.669606 90.729719 
L 152.778973 90.892913 
L 165.82315 91.445328 
L 179.777385 91.733787 
L 184.25184 91.789956 
L 184.479355 48.712395 
L 184.782708 29.500938 
L 185.086061 22.626738 
L 185.389414 20.437639 
L 185.616929 20.000894 
L 185.844443 19.973227 
L 186.299473 20.284229 
L 187.057855 20.764366 
L 187.892076 21.010721 
L 189.257164 21.132231 
L 190.622252 20.933619 
L 192.366532 20.525873 
L 194.338326 20.066796 
L 201.315443 19.256347 
L 202.453017 19.133095 
L 207.154987 18.745942 
L 210.49187 18.521939 
L 215.118002 18.253334 
L 222.170958 17.96062 
L 222.322634 84.923765 
L 222.625987 92.426208 
L 222.92934 95.831799 
L 223.308531 97.657312 
L 223.687722 98.422556 
L 224.142752 98.83999 
L 224.825296 99.137119 
L 226.417899 99.522699 
L 228.617208 99.641981 
L 231.49906 99.836837 
L 232.560796 99.889343 
L 233.546693 99.938641 
L 234.760104 100.012683 
L 238.172825 100.206385 
L 244.239884 100.479118 
L 250.913648 100.685036 
L 260.090075 100.875921 
L 260.241751 78.302412 
L 260.469266 77.705625 
L 260.620942 77.952363 
L 262.061869 81.575346 
L 262.668575 82.202904 
L 263.426957 82.648719 
L 264.716207 83.088308 
L 265.702104 83.195077 
L 267.673898 83.143874 
L 270.024883 82.988257 
L 271.162457 83.08989 
L 272.148354 83.09608 
L 273.513442 83.084149 
L 274.499339 83.088456 
L 275.409398 83.110331 
L 276.395295 83.090268 
L 279.959692 83.140304 
L 282.310677 83.141679 
L 298.009192 83.213135 
L 298.236707 70.206932 
L 298.54006 65.53028 
L 298.767574 64.529733 
L 298.995089 64.349937 
L 299.222604 64.513148 
L 300.66353 66.030049 
L 301.497751 66.417779 
L 302.862839 66.755554 
L 304.152089 66.766136 
L 305.82053 66.608479 
L 307.944001 66.387285 
L 329.254544 66.063663 
L 335.928309 66.007647 
L 335.928309 66.007647 
" clip-path="url(#pa4fc096110)" style="fill: none; stroke: #2ca02c; stroke-width: 2; stroke-linecap: square"/>
   </g>
   <g id="line2d_32">
    <path d="M 70.494489 78.286644 
L 70.797842 112.289195 
L 71.101195 127.731012 
L 71.480386 135.992103 
L 71.859577 139.280444 
L 72.238768 140.694731 
L 72.693798 141.484006 
L 73.300504 142.020263 
L 74.362239 142.582674 
L 75.727327 143.051598 
L 77.77496 143.477234 
L 90.21243 145.36278 
L 96.65868 145.944744 
L 104.470018 146.418821 
L 108.413606 146.590011 
L 108.565283 59.433475 
L 108.868636 36.677012 
L 109.171989 27.787141 
L 109.475341 24.666129 
L 109.702856 23.958596 
L 109.930371 23.869563 
L 110.233724 24.143162 
L 111.295459 25.318323 
L 111.978003 25.680422 
L 112.812224 25.86348 
L 114.025636 25.854253 
L 115.466562 25.59959 
L 120.244371 24.546427 
L 126.918135 23.631799 
L 132.30265 23.105381 
L 140.644856 22.548369 
L 146.332723 22.293392 
L 146.4844 86.380395 
L 146.787753 95.86865 
L 147.091106 100.126377 
L 147.394459 102.054089 
L 147.77365 103.081364 
L 148.152841 103.49986 
L 148.683709 103.746161 
L 149.821282 103.976251 
L 152.854811 104.301251 
L 161.045341 104.990927 
L 168.932517 105.412003 
L 179.853223 105.758588 
L 184.25184 105.848291 
L 184.403517 63.741491 
L 184.70687 45.647709 
L 185.010223 38.725403 
L 185.313576 36.438149 
L 185.54109 36.015812 
L 185.768605 36.070637 
L 186.223635 36.644356 
L 186.982017 37.547423 
L 187.664561 37.99931 
L 188.498782 38.26695 
L 189.484679 38.358011 
L 190.773929 38.254981 
L 192.518208 37.880661 
L 194.641679 37.455779 
L 200.784576 36.747566 
L 209.050943 36.083621 
L 218.530722 35.622016 
L 222.170958 35.500702 
L 222.246796 77.995396 
L 222.322634 77.822961 
L 222.625987 77.39339 
L 222.853502 77.430414 
L 223.308531 77.808925 
L 224.597781 78.973597 
L 225.50784 79.483071 
L 226.493737 79.756326 
L 227.555472 79.794867 
L 229.754781 79.576909 
L 231.271546 79.592009 
L 236.352707 79.618884 
L 243.860693 79.642328 
L 260.090075 79.667892 
L 260.393428 59.017669 
L 260.696781 50.687023 
L 261.000134 47.713055 
L 261.227648 47.009891 
L 261.455163 46.899345 
L 261.758516 47.145074 
L 263.047766 48.531311 
L 263.806148 48.935915 
L 264.716207 49.176657 
L 265.777942 49.242394 
L 267.067192 49.094511 
L 271.238295 48.413489 
L 287.846868 47.28977 
L 298.009192 46.970717 
L 298.160868 81.902111 
L 298.615898 87.004531 
L 299.070927 89.996468 
L 299.601795 92.031821 
L 300.132662 93.259487 
L 300.739368 94.117566 
L 301.421912 94.706109 
L 302.331971 95.187414 
L 303.469545 95.511528 
L 304.758795 95.619006 
L 306.578912 95.504014 
L 308.247353 95.474986 
L 315.6795 95.635022 
L 330.164603 95.776652 
L 335.928309 95.807944 
L 335.928309 95.807944 
" clip-path="url(#pa4fc096110)" style="fill: none; stroke: #d62728; stroke-width: 2; stroke-linecap: square"/>
   </g>
   <g id="patch_3">
    <path d="M 57.222798 153.781683 
L 57.222798 10.8 
" style="fill: none; stroke: #000000; stroke-width: 0.8; stroke-linejoin: miter; stroke-linecap: square"/>
   </g>
   <g id="patch_4">
    <path d="M 349.2 153.781683 
L 349.2 10.8 
" style="fill: none; stroke: #000000; stroke-width: 0.8; stroke-linejoin: miter; stroke-linecap: square"/>
   </g>
   <g id="patch_5">
    <path d="M 57.222798 153.781683 
L 349.2 153.781683 
" style="fill: none; stroke: #000000; stroke-width: 0.8; stroke-linejoin: miter; stroke-linecap: square"/>
   </g>
   <g id="patch_6">
    <path d="M 57.222798 10.8 
L 349.2 10.8 
" style="fill: none; stroke: #000000; stroke-width: 0.8; stroke-linejoin: miter; stroke-linecap: square"/>
   </g>
   <g id="legend_1">
    <g id="patch_7">
     <path d="M 290.0129 148.047525 
L 342.2 148.047525 
Q 344.2 148.047525 344.2 146.047525 
L 344.2 17.8 
Q 344.2 15.8 342.2 15.8 
L 290.0129 15.8 
Q 288.0129 15.8 288.0129 17.8 
L 288.0129 146.047525 
Q 288.0129 148.047525 290.0129 148.047525 
z
" style="fill: #ffffff; opacity: 0.8; stroke: #cccccc; stroke-linejoin: miter"/>
    </g>
    <g id="line2d_33">
     <path d="M 292.0129 24.758302 
L 302.0129 24.758302 
L 312.0129 24.758302 
" style="fill: none; stroke-dasharray: 3.5,5.775; stroke-dashoffset: 0; stroke: #1f77b4; stroke-width: 3.5"/>
    </g>
    <g id="text_15">
     <!-- $\sigma_{\mathrm{sh},1}^\mathrm{d}$ -->
     <g transform="translate(320.0129 28.258302) scale(0.1 -0.1)">
      <defs>
       <path id="CMR17-64" d="M 1869 4326 
L 1869 4160 
C 2246 4160 2304 4122 2304 3820 
L 2304 2345 
C 2278 2377 2016 2790 1498 2790 
C 845 2790 211 2208 211 1364 
C 211 525 806 -64 1434 -64 
C 1978 -64 2259 337 2291 380 
L 2291 -63 
L 3066 -63 
L 3066 128 
C 2688 128 2630 166 2630 473 
L 2630 4396 
L 1869 4326 
z
M 2291 755 
C 2291 563 2176 390 2029 262 
C 1811 70 1594 38 1472 38 
C 1286 38 621 134 621 1356 
C 621 2612 1363 2688 1530 2688 
C 1824 2688 2061 2522 2208 2291 
C 2291 2157 2291 2138 2291 2023 
L 2291 755 
z
" transform="scale(0.015625)"/>
       <path id="CMR17-68" d="M 2656 1933 
C 2656 2259 2592 2790 1837 2790 
C 1312 2790 1056 2368 979 2157 
L 973 2157 
L 973 4396 
L 211 4326 
L 211 4160 
C 589 4160 646 4122 646 3817 
L 646 426 
C 646 184 621 153 211 153 
L 211 -13 
C 365 0 646 0 813 0 
C 979 0 1267 0 1421 -13 
L 1421 153 
C 1011 153 986 178 986 428 
L 986 1658 
C 986 2247 1344 2688 1792 2688 
C 2266 2688 2317 2266 2317 1958 
L 2317 428 
C 2317 184 2291 153 1882 153 
L 1882 -13 
C 2035 0 2317 0 2483 0 
C 2650 0 2938 0 3091 -13 
L 3091 153 
C 2682 153 2656 178 2656 428 
L 2656 1933 
z
" transform="scale(0.015625)"/>
       <path id="CMMI12-3b" d="M 1248 -31 
C 1248 343 1126 619 864 619 
C 659 619 557 453 557 313 
C 557 172 653 0 870 0 
C 954 0 1024 26 1082 83 
C 1094 96 1101 96 1107 96 
C 1120 96 1120 5 1120 -27 
C 1120 -240 1082 -659 710 -1080 
C 640 -1157 640 -1170 640 -1183 
C 640 -1216 672 -1248 704 -1248 
C 755 -1248 1248 -771 1248 -31 
z
" transform="scale(0.015625)"/>
      </defs>
      <use xlink:href="#CMMI12-1b" transform="scale(0.996264)"/>
      <use xlink:href="#CMR17-64" transform="translate(59.020054 36.153639) scale(0.697382)"/>
      <use xlink:href="#CMR17-73" transform="translate(55.445461 -28.215451) scale(0.697382)"/>
      <use xlink:href="#CMR17-68" transform="translate(80.506283 -28.215451) scale(0.697382)"/>
      <use xlink:href="#CMMI12-3b" transform="translate(116.132892 -28.215451) scale(0.697382)"/>
      <use xlink:href="#CMR17-31" transform="translate(135.100824 -28.215451) scale(0.697382)"/>
     </g>
    </g>
    <g id="line2d_34">
     <path d="M 292.0129 42.39413 
L 302.0129 42.39413 
L 312.0129 42.39413 
" style="fill: none; stroke-dasharray: 3.5,5.775; stroke-dashoffset: 0; stroke: #ff7f0e; stroke-width: 3.5"/>
    </g>
    <g id="text_16">
     <!-- $\sigma_{\mathrm{sh},2}^\mathrm{d}$ -->
     <g transform="translate(320.0129 45.89413) scale(0.1 -0.1)">
      <use xlink:href="#CMMI12-1b" transform="scale(0.996264)"/>
      <use xlink:href="#CMR17-64" transform="translate(59.020054 36.153639) scale(0.697382)"/>
      <use xlink:href="#CMR17-73" transform="translate(55.445461 -28.215451) scale(0.697382)"/>
      <use xlink:href="#CMR17-68" transform="translate(80.506283 -28.215451) scale(0.697382)"/>
      <use xlink:href="#CMMI12-3b" transform="translate(116.132892 -28.215451) scale(0.697382)"/>
      <use xlink:href="#CMR17-32" transform="translate(135.100824 -28.215451) scale(0.697382)"/>
     </g>
    </g>
    <g id="line2d_35">
     <path d="M 292.0129 60.029958 
L 302.0129 60.029958 
L 312.0129 60.029958 
" style="fill: none; stroke-dasharray: 3.5,5.775; stroke-dashoffset: 0; stroke: #2ca02c; stroke-width: 3.5"/>
    </g>
    <g id="text_17">
     <!-- $\sigma_{\mathrm{ax},1}^\mathrm{d}$ -->
     <g transform="translate(320.0129 63.529958) scale(0.1 -0.1)">
      <defs>
       <path id="CMR17-78" d="M 1664 1477 
C 1856 1726 2074 2006 2253 2216 
C 2464 2458 2707 2560 2989 2560 
L 2989 2726 
C 2880 2726 2656 2726 2541 2726 
C 2368 2726 2170 2726 2022 2732 
L 2022 2566 
C 2112 2553 2163 2489 2163 2400 
C 2163 2285 2099 2215 2067 2171 
L 1594 1573 
L 1030 2306 
C 973 2376 973 2388 973 2420 
C 973 2497 1037 2560 1146 2560 
L 1146 2732 
C 992 2726 717 2726 557 2726 
C 384 2726 179 2726 38 2732 
L 38 2560 
C 384 2560 461 2534 614 2343 
L 1350 1395 
C 1363 1382 1395 1344 1395 1325 
C 1395 1299 838 619 768 530 
C 480 185 179 160 6 160 
L 6 0 
C 115 0 339 0 454 0 
C 582 0 864 0 979 -6 
L 979 160 
C 941 166 838 179 838 325 
C 838 440 890 510 947 586 
L 1478 1236 
L 2035 512 
C 2086 442 2163 346 2163 301 
C 2163 211 2086 160 1984 160 
L 1984 -6 
C 2138 0 2413 0 2573 0 
C 2746 0 2950 0 3091 -6 
L 3091 160 
C 2771 160 2675 172 2522 370 
L 1664 1477 
z
" transform="scale(0.015625)"/>
      </defs>
      <use xlink:href="#CMMI12-1b" transform="scale(0.996264)"/>
      <use xlink:href="#CMR17-64" transform="translate(59.020054 36.153639) scale(0.697382)"/>
      <use xlink:href="#CMR17-61" transform="translate(55.445461 -24.740171) scale(0.697382)"/>
      <use xlink:href="#CMR17-78" transform="translate(87.428643 -24.740171) scale(0.697382)"/>
      <use xlink:href="#CMMI12-3b" transform="translate(121.23353 -24.740171) scale(0.697382)"/>
      <use xlink:href="#CMR17-31" transform="translate(140.201463 -24.740171) scale(0.697382)"/>
     </g>
    </g>
    <g id="line2d_36">
     <path d="M 292.0129 77.317103 
L 302.0129 77.317103 
L 312.0129 77.317103 
" style="fill: none; stroke-dasharray: 3.5,5.775; stroke-dashoffset: 0; stroke: #d62728; stroke-width: 3.5"/>
    </g>
    <g id="text_18">
     <!-- $\sigma_{\mathrm{ax},2}^\mathrm{d}$ -->
     <g transform="translate(320.0129 80.817103) scale(0.1 -0.1)">
      <use xlink:href="#CMMI12-1b" transform="scale(0.996264)"/>
      <use xlink:href="#CMR17-64" transform="translate(59.020054 36.153639) scale(0.697382)"/>
      <use xlink:href="#CMR17-61" transform="translate(55.445461 -24.740171) scale(0.697382)"/>
      <use xlink:href="#CMR17-78" transform="translate(87.428643 -24.740171) scale(0.697382)"/>
      <use xlink:href="#CMMI12-3b" transform="translate(121.23353 -24.740171) scale(0.697382)"/>
      <use xlink:href="#CMR17-32" transform="translate(140.201463 -24.740171) scale(0.697382)"/>
     </g>
    </g>
    <g id="line2d_37">
     <path d="M 292.0129 93.145945 
L 302.0129 93.145945 
L 312.0129 93.145945 
" style="fill: none; stroke: #1f77b4; stroke-width: 2; stroke-linecap: square"/>
    </g>
    <g id="text_19">
     <!-- $\sigma_{\mathrm{sh},1}$ -->
     <g transform="translate(320.0129 96.645945) scale(0.1 -0.1)">
      <use xlink:href="#CMMI12-1b" transform="scale(0.996264)"/>
      <use xlink:href="#CMR17-73" transform="translate(55.445461 -14.943915) scale(0.697382)"/>
      <use xlink:href="#CMR17-68" transform="translate(80.506283 -14.943915) scale(0.697382)"/>
      <use xlink:href="#CMMI12-3b" transform="translate(116.132892 -14.943915) scale(0.697382)"/>
      <use xlink:href="#CMR17-31" transform="translate(135.100824 -14.943915) scale(0.697382)"/>
     </g>
    </g>
    <g id="line2d_38">
     <path d="M 292.0129 107.99634 
L 302.0129 107.99634 
L 312.0129 107.99634 
" style="fill: none; stroke: #ff7f0e; stroke-width: 2; stroke-linecap: square"/>
    </g>
    <g id="text_20">
     <!-- $\sigma_{\mathrm{sh},2}$ -->
     <g transform="translate(320.0129 111.49634) scale(0.1 -0.1)">
      <use xlink:href="#CMMI12-1b" transform="scale(0.996264)"/>
      <use xlink:href="#CMR17-73" transform="translate(55.445461 -14.943915) scale(0.697382)"/>
      <use xlink:href="#CMR17-68" transform="translate(80.506283 -14.943915) scale(0.697382)"/>
      <use xlink:href="#CMMI12-3b" transform="translate(116.132892 -14.943915) scale(0.697382)"/>
      <use xlink:href="#CMR17-32" transform="translate(135.100824 -14.943915) scale(0.697382)"/>
     </g>
    </g>
    <g id="line2d_39">
     <path d="M 292.0129 122.846735 
L 302.0129 122.846735 
L 312.0129 122.846735 
" style="fill: none; stroke: #2ca02c; stroke-width: 2; stroke-linecap: square"/>
    </g>
    <g id="text_21">
     <!-- $\sigma_{\mathrm{ax},1}$ -->
     <g transform="translate(320.0129 126.346735) scale(0.1 -0.1)">
      <use xlink:href="#CMMI12-1b" transform="scale(0.996264)"/>
      <use xlink:href="#CMR17-61" transform="translate(55.445461 -14.943915) scale(0.697382)"/>
      <use xlink:href="#CMR17-78" transform="translate(87.428643 -14.943915) scale(0.697382)"/>
      <use xlink:href="#CMMI12-3b" transform="translate(121.23353 -14.943915) scale(0.697382)"/>
      <use xlink:href="#CMR17-31" transform="translate(140.201463 -14.943915) scale(0.697382)"/>
     </g>
    </g>
    <g id="line2d_40">
     <path d="M 292.0129 137.69713 
L 302.0129 137.69713 
L 312.0129 137.69713 
" style="fill: none; stroke: #d62728; stroke-width: 2; stroke-linecap: square"/>
    </g>
    <g id="text_22">
     <!-- $\sigma_{\mathrm{ax},2}$ -->
     <g transform="translate(320.0129 141.19713) scale(0.1 -0.1)">
      <use xlink:href="#CMMI12-1b" transform="scale(0.996264)"/>
      <use xlink:href="#CMR17-61" transform="translate(55.445461 -14.943915) scale(0.697382)"/>
      <use xlink:href="#CMR17-78" transform="translate(87.428643 -14.943915) scale(0.697382)"/>
      <use xlink:href="#CMMI12-3b" transform="translate(121.23353 -14.943915) scale(0.697382)"/>
      <use xlink:href="#CMR17-32" transform="translate(140.201463 -14.943915) scale(0.697382)"/>
     </g>
    </g>
   </g>
  </g>
 </g>
 <defs>
  <clipPath id="pa4fc096110">
   <rect x="57.222798" y="10.8" width="291.977202" height="142.981683"/>
  </clipPath>
 </defs>
</svg>
