<?xml version="1.0" encoding="utf-8" standalone="no"?>
<!DOCTYPE svg PUBLIC "-//W3C//DTD SVG 1.1//EN"
  "http://www.w3.org/Graphics/SVG/1.1/DTD/svg11.dtd">
<svg xmlns:xlink="http://www.w3.org/1999/xlink" width="360pt" height="194.4pt" viewBox="0 0 360 194.4" xmlns="http://www.w3.org/2000/svg" version="1.1">
 <metadata>
  <rdf:RDF xmlns:dc="http://purl.org/dc/elements/1.1/" xmlns:cc="http://creativecommons.org/ns#" xmlns:rdf="http://www.w3.org/1999/02/22-rdf-syntax-ns#">
   <cc:Work>
    <dc:type rdf:resource="http://purl.org/dc/dcmitype/StillImage"/>
    <dc:date>2024-10-29T16:35:11.732058</dc:date>
    <dc:format>image/svg+xml</dc:format>
    <dc:creator>
     <cc:Agent>
      <dc:title>Matplotlib v3.9.2, https://matplotlib.org/</dc:title>
     </cc:Agent>
    </dc:creator>
   </cc:Work>
  </rdf:RDF>
 </metadata>
 <defs>
  <style type="text/css">*{stroke-linejoin: round; stroke-linecap: butt}</style>
 </defs>
 <g id="figure_1">
  <g id="patch_1">
   <path d="M 0 194.4 
L 360 194.4 
L 360 0 
L 0 0 
z
" style="fill: #ffffff"/>
  </g>
  <g id="axes_1">
   <g id="patch_2">
    <path d="M 52.241463 153.781683 
L 349.2 153.781683 
L 349.2 10.8 
L 52.241463 10.8 
z
" style="fill: #ffffff"/>
   </g>
   <g id="matplotlib.axis_1">
    <g id="xtick_1">
     <g id="line2d_1">
      <path d="M 65.739578 153.781683 
L 65.739578 10.8 
" clip-path="url(#p1c1a12d550)" style="fill: none; stroke: #b0b0b0; stroke-width: 0.8; stroke-linecap: square"/>
     </g>
     <g id="line2d_2">
      <defs>
       <path id="m20012cde57" d="M 0 0 
L 0 3.5 
" style="stroke: #000000; stroke-width: 0.8"/>
      </defs>
      <g>
       <use xlink:href="#m20012cde57" x="65.739578" y="153.781683" style="stroke: #000000; stroke-width: 0.8"/>
      </g>
     </g>
     <g id="text_1">
      <!-- $\mathdefault{0}$ -->
      <g transform="translate(63.248911 167.700182) scale(0.1 -0.1)">
       <defs>
        <path id="CMR17-30" d="M 2688 2025 
C 2688 2416 2682 3080 2413 3591 
C 2176 4039 1798 4198 1466 4198 
C 1158 4198 768 4058 525 3597 
C 269 3118 243 2524 243 2025 
C 243 1661 250 1106 448 619 
C 723 -39 1216 -128 1466 -128 
C 1760 -128 2208 -7 2470 600 
C 2662 1042 2688 1559 2688 2025 
z
M 1466 -26 
C 1056 -26 813 325 723 812 
C 653 1188 653 1738 653 2096 
C 653 2588 653 2997 736 3387 
C 858 3929 1216 4096 1466 4096 
C 1728 4096 2067 3923 2189 3400 
C 2272 3036 2278 2607 2278 2096 
C 2278 1680 2278 1169 2202 792 
C 2067 95 1690 -26 1466 -26 
z
" transform="scale(0.015625)"/>
       </defs>
       <use xlink:href="#CMR17-30" transform="scale(0.996264)"/>
      </g>
     </g>
    </g>
    <g id="xtick_2">
     <g id="line2d_3">
      <path d="M 104.305622 153.781683 
L 104.305622 10.8 
" clip-path="url(#p1c1a12d550)" style="fill: none; stroke: #b0b0b0; stroke-width: 0.8; stroke-linecap: square"/>
     </g>
     <g id="line2d_4">
      <g>
       <use xlink:href="#m20012cde57" x="104.305622" y="153.781683" style="stroke: #000000; stroke-width: 0.8"/>
      </g>
     </g>
     <g id="text_2">
      <!-- $\mathdefault{5}$ -->
      <g transform="translate(101.814954 167.700182) scale(0.1 -0.1)">
       <defs>
        <path id="CMR17-35" d="M 730 3692 
C 794 3666 1056 3584 1325 3584 
C 1920 3584 2246 3911 2432 4100 
C 2432 4157 2432 4192 2394 4192 
C 2387 4192 2374 4192 2323 4163 
C 2099 4058 1837 3973 1517 3973 
C 1325 3973 1037 3999 723 4139 
C 653 4171 640 4171 634 4171 
C 602 4171 595 4164 595 4037 
L 595 2203 
C 595 2089 595 2057 659 2057 
C 691 2057 704 2070 736 2114 
C 941 2401 1222 2522 1542 2522 
C 1766 2522 2246 2382 2246 1289 
C 2246 1085 2246 715 2054 421 
C 1894 159 1645 25 1370 25 
C 947 25 518 320 403 814 
C 429 807 480 795 506 795 
C 589 795 749 840 749 1038 
C 749 1210 627 1280 506 1280 
C 358 1280 262 1190 262 1011 
C 262 454 704 -128 1382 -128 
C 2042 -128 2669 440 2669 1264 
C 2669 2030 2170 2624 1549 2624 
C 1222 2624 947 2503 730 2274 
L 730 3692 
z
" transform="scale(0.015625)"/>
       </defs>
       <use xlink:href="#CMR17-35" transform="scale(0.996264)"/>
      </g>
     </g>
    </g>
    <g id="xtick_3">
     <g id="line2d_5">
      <path d="M 142.871666 153.781683 
L 142.871666 10.8 
" clip-path="url(#p1c1a12d550)" style="fill: none; stroke: #b0b0b0; stroke-width: 0.8; stroke-linecap: square"/>
     </g>
     <g id="line2d_6">
      <g>
       <use xlink:href="#m20012cde57" x="142.871666" y="153.781683" style="stroke: #000000; stroke-width: 0.8"/>
      </g>
     </g>
     <g id="text_3">
      <!-- $\mathdefault{10}$ -->
      <g transform="translate(137.89033 167.700182) scale(0.1 -0.1)">
       <defs>
        <path id="CMR17-31" d="M 1702 4058 
C 1702 4192 1696 4192 1606 4192 
C 1357 3916 979 3827 621 3827 
C 602 3827 570 3827 563 3808 
C 557 3795 557 3782 557 3648 
C 755 3648 1088 3686 1344 3839 
L 1344 461 
C 1344 236 1331 160 781 160 
L 589 160 
L 589 0 
C 896 0 1216 0 1523 0 
C 1830 0 2150 0 2458 0 
L 2458 160 
L 2266 160 
C 1715 160 1702 230 1702 458 
L 1702 4058 
z
" transform="scale(0.015625)"/>
       </defs>
       <use xlink:href="#CMR17-31" transform="scale(0.996264)"/>
       <use xlink:href="#CMR17-30" transform="translate(45.690477 0) scale(0.996264)"/>
      </g>
     </g>
    </g>
    <g id="xtick_4">
     <g id="line2d_7">
      <path d="M 181.43771 153.781683 
L 181.43771 10.8 
" clip-path="url(#p1c1a12d550)" style="fill: none; stroke: #b0b0b0; stroke-width: 0.8; stroke-linecap: square"/>
     </g>
     <g id="line2d_8">
      <g>
       <use xlink:href="#m20012cde57" x="181.43771" y="153.781683" style="stroke: #000000; stroke-width: 0.8"/>
      </g>
     </g>
     <g id="text_4">
      <!-- $\mathdefault{15}$ -->
      <g transform="translate(176.456374 167.700182) scale(0.1 -0.1)">
       <use xlink:href="#CMR17-31" transform="scale(0.996264)"/>
       <use xlink:href="#CMR17-35" transform="translate(45.690477 0) scale(0.996264)"/>
      </g>
     </g>
    </g>
    <g id="xtick_5">
     <g id="line2d_9">
      <path d="M 220.003753 153.781683 
L 220.003753 10.8 
" clip-path="url(#p1c1a12d550)" style="fill: none; stroke: #b0b0b0; stroke-width: 0.8; stroke-linecap: square"/>
     </g>
     <g id="line2d_10">
      <g>
       <use xlink:href="#m20012cde57" x="220.003753" y="153.781683" style="stroke: #000000; stroke-width: 0.8"/>
      </g>
     </g>
     <g id="text_5">
      <!-- $\mathdefault{20}$ -->
      <g transform="translate(215.022418 167.700182) scale(0.1 -0.1)">
       <defs>
        <path id="CMR17-32" d="M 2669 989 
L 2554 989 
C 2490 536 2438 459 2413 420 
C 2381 369 1920 369 1830 369 
L 602 369 
C 832 619 1280 1072 1824 1597 
C 2214 1967 2669 2402 2669 3035 
C 2669 3790 2067 4224 1395 4224 
C 691 4224 262 3604 262 3030 
C 262 2780 448 2748 525 2748 
C 589 2748 781 2787 781 3010 
C 781 3207 614 3264 525 3264 
C 486 3264 448 3258 422 3245 
C 544 3790 915 4058 1306 4058 
C 1862 4058 2227 3617 2227 3035 
C 2227 2479 1901 2000 1536 1584 
L 262 146 
L 262 0 
L 2515 0 
L 2669 989 
z
" transform="scale(0.015625)"/>
       </defs>
       <use xlink:href="#CMR17-32" transform="scale(0.996264)"/>
       <use xlink:href="#CMR17-30" transform="translate(45.690477 0) scale(0.996264)"/>
      </g>
     </g>
    </g>
    <g id="xtick_6">
     <g id="line2d_11">
      <path d="M 258.569797 153.781683 
L 258.569797 10.8 
" clip-path="url(#p1c1a12d550)" style="fill: none; stroke: #b0b0b0; stroke-width: 0.8; stroke-linecap: square"/>
     </g>
     <g id="line2d_12">
      <g>
       <use xlink:href="#m20012cde57" x="258.569797" y="153.781683" style="stroke: #000000; stroke-width: 0.8"/>
      </g>
     </g>
     <g id="text_6">
      <!-- $\mathdefault{25}$ -->
      <g transform="translate(253.588462 167.700182) scale(0.1 -0.1)">
       <use xlink:href="#CMR17-32" transform="scale(0.996264)"/>
       <use xlink:href="#CMR17-35" transform="translate(45.690477 0) scale(0.996264)"/>
      </g>
     </g>
    </g>
    <g id="xtick_7">
     <g id="line2d_13">
      <path d="M 297.135841 153.781683 
L 297.135841 10.8 
" clip-path="url(#p1c1a12d550)" style="fill: none; stroke: #b0b0b0; stroke-width: 0.8; stroke-linecap: square"/>
     </g>
     <g id="line2d_14">
      <g>
       <use xlink:href="#m20012cde57" x="297.135841" y="153.781683" style="stroke: #000000; stroke-width: 0.8"/>
      </g>
     </g>
     <g id="text_7">
      <!-- $\mathdefault{30}$ -->
      <g transform="translate(292.154506 167.700182) scale(0.1 -0.1)">
       <defs>
        <path id="CMR17-33" d="M 1414 2157 
C 1984 2157 2234 1662 2234 1090 
C 2234 320 1824 25 1453 25 
C 1114 25 563 194 390 693 
C 422 680 454 680 486 680 
C 640 680 755 782 755 948 
C 755 1133 614 1216 486 1216 
C 378 1216 211 1165 211 926 
C 211 335 787 -128 1466 -128 
C 2176 -128 2720 430 2720 1085 
C 2720 1707 2208 2157 1600 2227 
C 2086 2328 2554 2756 2554 3329 
C 2554 3820 2048 4179 1472 4179 
C 890 4179 378 3829 378 3329 
C 378 3110 544 3072 627 3072 
C 762 3072 877 3155 877 3321 
C 877 3486 762 3569 627 3569 
C 602 3569 570 3569 544 3557 
C 730 3959 1235 4032 1459 4032 
C 1683 4032 2106 3925 2106 3320 
C 2106 3143 2080 2828 1862 2550 
C 1670 2304 1453 2304 1242 2284 
C 1210 2284 1062 2269 1037 2269 
C 992 2263 966 2257 966 2208 
C 966 2163 973 2157 1101 2157 
L 1414 2157 
z
" transform="scale(0.015625)"/>
       </defs>
       <use xlink:href="#CMR17-33" transform="scale(0.996264)"/>
       <use xlink:href="#CMR17-30" transform="translate(45.690477 0) scale(0.996264)"/>
      </g>
     </g>
    </g>
    <g id="xtick_8">
     <g id="line2d_15">
      <path d="M 335.701885 153.781683 
L 335.701885 10.8 
" clip-path="url(#p1c1a12d550)" style="fill: none; stroke: #b0b0b0; stroke-width: 0.8; stroke-linecap: square"/>
     </g>
     <g id="line2d_16">
      <g>
       <use xlink:href="#m20012cde57" x="335.701885" y="153.781683" style="stroke: #000000; stroke-width: 0.8"/>
      </g>
     </g>
     <g id="text_8">
      <!-- $\mathdefault{35}$ -->
      <g transform="translate(330.720549 167.700182) scale(0.1 -0.1)">
       <use xlink:href="#CMR17-33" transform="scale(0.996264)"/>
       <use xlink:href="#CMR17-35" transform="translate(45.690477 0) scale(0.996264)"/>
      </g>
     </g>
    </g>
    <g id="text_9">
     <!-- Time $t$ [s] -->
     <g transform="translate(179.522424 181.10934) scale(0.1 -0.1)">
      <defs>
       <path id="CMR17-54" d="M 3981 4326 
L 288 4326 
L 179 2918 
L 294 2918 
C 378 3976 467 4160 1453 4160 
C 1568 4160 1754 4160 1805 4154 
C 1926 4135 1926 4058 1926 3912 
L 1926 459 
C 1926 230 1907 160 1376 160 
L 1197 160 
L 1197 0 
C 1504 0 1824 0 2138 0 
C 2451 0 2771 0 3078 0 
L 3078 160 
L 2899 160 
C 2368 160 2349 230 2349 459 
L 2349 3912 
C 2349 4052 2349 4129 2464 4154 
C 2515 4160 2701 4160 2816 4160 
C 3795 4160 3891 3976 3974 2918 
L 4090 2918 
L 3981 4326 
z
" transform="scale(0.015625)"/>
       <path id="CMR17-69" d="M 992 3909 
C 992 4049 877 4170 730 4170 
C 589 4170 467 4056 467 3909 
C 467 3769 582 3648 730 3648 
C 870 3648 992 3763 992 3909 
z
M 243 2706 
L 243 2541 
C 602 2541 653 2502 653 2197 
L 653 427 
C 653 184 627 153 218 153 
L 218 -13 
C 371 0 646 0 806 0 
C 960 0 1222 0 1370 -13 
L 1370 153 
C 992 153 979 191 979 420 
L 979 2776 
L 243 2706 
z
" transform="scale(0.015625)"/>
       <path id="CMR17-6d" d="M 4326 1933 
C 4326 2252 4269 2790 3507 2790 
C 3072 2790 2771 2496 2656 2151 
L 2650 2151 
C 2573 2676 2195 2790 1837 2790 
C 1331 2790 1069 2400 973 2144 
L 966 2144 
L 966 2790 
L 211 2720 
L 211 2554 
C 589 2554 646 2515 646 2208 
L 646 428 
C 646 184 621 153 211 153 
L 211 -13 
C 365 0 646 0 813 0 
C 979 0 1267 0 1421 -13 
L 1421 153 
C 1011 153 986 178 986 428 
L 986 1658 
C 986 2247 1344 2688 1792 2688 
C 2266 2688 2317 2266 2317 1958 
L 2317 428 
C 2317 184 2291 153 1882 153 
L 1882 -13 
C 2035 0 2317 0 2483 0 
C 2650 0 2938 0 3091 -13 
L 3091 153 
C 2682 153 2656 178 2656 428 
L 2656 1658 
C 2656 2247 3014 2688 3462 2688 
C 3936 2688 3987 2266 3987 1958 
L 3987 428 
C 3987 184 3962 153 3552 153 
L 3552 -13 
C 3706 0 3987 0 4154 0 
C 4320 0 4608 0 4762 -13 
L 4762 153 
C 4352 153 4326 178 4326 428 
L 4326 1933 
z
" transform="scale(0.015625)"/>
       <path id="CMR17-65" d="M 2438 1472 
C 2464 1498 2464 1511 2464 1576 
C 2464 2238 2118 2816 1389 2816 
C 710 2816 173 2169 173 1383 
C 173 551 781 -64 1459 -64 
C 2176 -64 2458 607 2458 740 
C 2458 784 2419 784 2406 784 
C 2362 784 2355 771 2330 696 
C 2189 265 1837 51 1504 51 
C 1229 51 954 203 781 480 
C 582 803 582 1176 582 1472 
L 2438 1472 
z
M 589 1568 
C 634 2505 1126 2714 1382 2714 
C 1818 2714 2112 2297 2118 1568 
L 589 1568 
z
" transform="scale(0.015625)"/>
       <path id="CMMI12-74" d="M 1286 2566 
L 1875 2566 
C 1997 2566 2061 2566 2061 2681 
C 2061 2752 2022 2752 1894 2752 
L 1331 2752 
L 1568 3692 
C 1594 3781 1594 3794 1594 3840 
C 1594 3943 1510 4000 1427 4000 
C 1376 4000 1229 3981 1178 3775 
L 928 2752 
L 326 2752 
C 198 2752 141 2752 141 2630 
C 141 2566 186 2566 307 2566 
L 877 2566 
L 454 881 
C 403 658 384 594 384 511 
C 384 211 595 -64 954 -64 
C 1600 -64 1946 868 1946 912 
C 1946 951 1920 970 1882 970 
C 1869 970 1843 970 1830 944 
C 1824 938 1818 931 1773 829 
C 1638 511 1344 64 973 64 
C 781 64 768 224 768 364 
C 768 370 768 492 787 568 
L 1286 2566 
z
" transform="scale(0.015625)"/>
       <path id="CMR17-5b" d="M 1504 -1600 
L 1504 -1377 
L 902 -1377 
L 902 4544 
L 1504 4544 
L 1504 4767 
L 678 4767 
L 678 -1600 
L 1504 -1600 
z
" transform="scale(0.015625)"/>
       <path id="CMR17-73" d="M 1978 2697 
C 1978 2813 1971 2819 1933 2819 
C 1907 2819 1901 2813 1824 2717 
C 1805 2691 1747 2626 1728 2601 
C 1523 2819 1235 2819 1126 2819 
C 416 2819 160 2447 160 2076 
C 160 1498 813 1365 998 1325 
C 1402 1243 1542 1217 1677 1101 
C 1760 1025 1901 884 1901 654 
C 1901 384 1747 38 1158 38 
C 602 38 403 460 288 1021 
C 269 1110 269 1117 218 1117 
C 166 1117 160 1110 160 983 
L 160 63 
C 160 -51 166 -58 205 -58 
C 237 -58 243 -51 275 0 
C 314 57 410 211 448 276 
C 576 103 800 -64 1158 -64 
C 1792 -64 2131 283 2131 784 
C 2131 1112 1958 1285 1875 1362 
C 1683 1561 1459 1606 1190 1657 
C 838 1735 390 1825 390 2217 
C 390 2383 480 2737 1126 2737 
C 1811 2737 1850 2094 1862 1888 
C 1869 1856 1901 1849 1920 1849 
C 1978 1849 1978 1869 1978 1978 
L 1978 2697 
z
" transform="scale(0.015625)"/>
       <path id="CMR17-5d" d="M 915 4767 
L 90 4767 
L 90 4544 
L 691 4544 
L 691 -1377 
L 90 -1377 
L 90 -1600 
L 915 -1600 
L 915 4767 
z
" transform="scale(0.015625)"/>
      </defs>
      <use xlink:href="#CMR17-54" transform="scale(0.996264)"/>
      <use xlink:href="#CMR17-69" transform="translate(66.509881 0) scale(0.996264)"/>
      <use xlink:href="#CMR17-6d" transform="translate(91.380939 0) scale(0.996264)"/>
      <use xlink:href="#CMR17-65" transform="translate(168.300529 0) scale(0.996264)"/>
      <use xlink:href="#CMMI12-74" transform="translate(238.862156 0) scale(0.996264)"/>
      <use xlink:href="#CMR17-5b" transform="translate(304.164452 0) scale(0.996264)"/>
      <use xlink:href="#CMR17-73" transform="translate(329.035511 0) scale(0.996264)"/>
      <use xlink:href="#CMR17-5d" transform="translate(364.836848 0) scale(0.996264)"/>
     </g>
    </g>
   </g>
   <g id="matplotlib.axis_2">
    <g id="ytick_1">
     <g id="line2d_17">
      <path d="M 52.241463 151.122456 
L 349.2 151.122456 
" clip-path="url(#p1c1a12d550)" style="fill: none; stroke: #b0b0b0; stroke-width: 0.8; stroke-linecap: square"/>
     </g>
     <g id="line2d_18">
      <defs>
       <path id="m58dfa42445" d="M 0 0 
L -3.5 0 
" style="stroke: #000000; stroke-width: 0.8"/>
      </defs>
      <g>
       <use xlink:href="#m58dfa42445" x="52.241463" y="151.122456" style="stroke: #000000; stroke-width: 0.8"/>
      </g>
     </g>
     <g id="text_10">
      <!-- $\mathdefault{−1.0}$ -->
      <g transform="translate(24.76264 154.581706) scale(0.1 -0.1)">
       <defs>
        <path id="CMSY10-0" d="M 4218 1472 
C 4326 1472 4442 1472 4442 1600 
C 4442 1728 4326 1728 4218 1728 
L 755 1728 
C 646 1728 531 1728 531 1600 
C 531 1472 646 1472 755 1472 
L 4218 1472 
z
" transform="scale(0.015625)"/>
        <path id="CMMI12-3a" d="M 1178 307 
C 1178 492 1024 619 870 619 
C 685 619 557 466 557 313 
C 557 128 710 0 864 0 
C 1050 0 1178 153 1178 307 
z
" transform="scale(0.015625)"/>
       </defs>
       <use xlink:href="#CMSY10-0" transform="scale(0.996264)"/>
       <use xlink:href="#CMR17-31" transform="translate(77.487468 0) scale(0.996264)"/>
       <use xlink:href="#CMMI12-3a" transform="translate(123.177945 0) scale(0.996264)"/>
       <use xlink:href="#CMR17-30" transform="translate(150.275122 0) scale(0.996264)"/>
      </g>
     </g>
    </g>
    <g id="ytick_2">
     <g id="line2d_19">
      <path d="M 52.241463 113.658995 
L 349.2 113.658995 
" clip-path="url(#p1c1a12d550)" style="fill: none; stroke: #b0b0b0; stroke-width: 0.8; stroke-linecap: square"/>
     </g>
     <g id="line2d_20">
      <g>
       <use xlink:href="#m58dfa42445" x="52.241463" y="113.658995" style="stroke: #000000; stroke-width: 0.8"/>
      </g>
     </g>
     <g id="text_11">
      <!-- $\mathdefault{−0.5}$ -->
      <g transform="translate(24.76264 117.118244) scale(0.1 -0.1)">
       <use xlink:href="#CMSY10-0" transform="scale(0.996264)"/>
       <use xlink:href="#CMR17-30" transform="translate(77.487468 0) scale(0.996264)"/>
       <use xlink:href="#CMMI12-3a" transform="translate(123.177945 0) scale(0.996264)"/>
       <use xlink:href="#CMR17-35" transform="translate(150.275122 0) scale(0.996264)"/>
      </g>
     </g>
    </g>
    <g id="ytick_3">
     <g id="line2d_21">
      <path d="M 52.241463 76.195533 
L 349.2 76.195533 
" clip-path="url(#p1c1a12d550)" style="fill: none; stroke: #b0b0b0; stroke-width: 0.8; stroke-linecap: square"/>
     </g>
     <g id="line2d_22">
      <g>
       <use xlink:href="#m58dfa42445" x="52.241463" y="76.195533" style="stroke: #000000; stroke-width: 0.8"/>
      </g>
     </g>
     <g id="text_12">
      <!-- $\mathdefault{0.0}$ -->
      <g transform="translate(32.511384 79.654782) scale(0.1 -0.1)">
       <use xlink:href="#CMR17-30" transform="scale(0.996264)"/>
       <use xlink:href="#CMMI12-3a" transform="translate(45.690477 0) scale(0.996264)"/>
       <use xlink:href="#CMR17-30" transform="translate(72.787654 0) scale(0.996264)"/>
      </g>
     </g>
    </g>
    <g id="ytick_4">
     <g id="line2d_23">
      <path d="M 52.241463 38.732072 
L 349.2 38.732072 
" clip-path="url(#p1c1a12d550)" style="fill: none; stroke: #b0b0b0; stroke-width: 0.8; stroke-linecap: square"/>
     </g>
     <g id="line2d_24">
      <g>
       <use xlink:href="#m58dfa42445" x="52.241463" y="38.732072" style="stroke: #000000; stroke-width: 0.8"/>
      </g>
     </g>
     <g id="text_13">
      <!-- $\mathdefault{0.5}$ -->
      <g transform="translate(32.511384 42.191321) scale(0.1 -0.1)">
       <use xlink:href="#CMR17-30" transform="scale(0.996264)"/>
       <use xlink:href="#CMMI12-3a" transform="translate(45.690477 0) scale(0.996264)"/>
       <use xlink:href="#CMR17-35" transform="translate(72.787654 0) scale(0.996264)"/>
      </g>
     </g>
    </g>
    <g id="text_14">
     <!-- Bending torque [Nm] -->
     <g transform="translate(18.27198 128.174435) rotate(-90) scale(0.1 -0.1)">
      <defs>
       <path id="CMR17-42" d="M 333 4352 
L 333 4186 
C 774 4186 845 4186 845 3900 
L 845 452 
C 845 166 774 166 333 166 
L 333 0 
L 2534 0 
C 3354 0 3885 583 3885 1164 
C 3885 1741 3360 2233 2675 2233 
C 3290 2356 3718 2771 3718 3264 
C 3718 3802 3194 4352 2368 4352 
L 333 4352 
z
M 1248 2304 
L 1248 3937 
C 1248 4155 1261 4186 1517 4186 
L 2336 4186 
C 2970 4186 3251 3674 3251 3277 
C 3251 2791 2861 2304 2170 2304 
L 1248 2304 
z
M 1517 166 
C 1261 166 1248 197 1248 413 
L 1248 2202 
L 2432 2202 
C 3091 2202 3411 1625 3411 1162 
C 3411 699 3046 166 2349 166 
L 1517 166 
z
" transform="scale(0.015625)"/>
       <path id="CMR17-6e" d="M 2656 1933 
C 2656 2259 2592 2790 1837 2790 
C 1331 2790 1069 2400 973 2144 
L 966 2144 
L 966 2790 
L 211 2720 
L 211 2554 
C 589 2554 646 2515 646 2208 
L 646 428 
C 646 184 621 153 211 153 
L 211 -13 
C 365 0 646 0 813 0 
C 979 0 1267 0 1421 -13 
L 1421 153 
C 1011 153 986 178 986 428 
L 986 1658 
C 986 2247 1344 2688 1792 2688 
C 2266 2688 2317 2266 2317 1958 
L 2317 428 
C 2317 184 2291 153 1882 153 
L 1882 -13 
C 2035 0 2317 0 2483 0 
C 2650 0 2938 0 3091 -13 
L 3091 153 
C 2682 153 2656 178 2656 428 
L 2656 1933 
z
" transform="scale(0.015625)"/>
       <path id="CMR17-64" d="M 1869 4326 
L 1869 4160 
C 2246 4160 2304 4122 2304 3820 
L 2304 2345 
C 2278 2377 2016 2790 1498 2790 
C 845 2790 211 2208 211 1364 
C 211 525 806 -64 1434 -64 
C 1978 -64 2259 337 2291 380 
L 2291 -63 
L 3066 -63 
L 3066 128 
C 2688 128 2630 166 2630 473 
L 2630 4396 
L 1869 4326 
z
M 2291 755 
C 2291 563 2176 390 2029 262 
C 1811 70 1594 38 1472 38 
C 1286 38 621 134 621 1356 
C 621 2612 1363 2688 1530 2688 
C 1824 2688 2061 2522 2208 2291 
C 2291 2157 2291 2138 2291 2023 
L 2291 755 
z
" transform="scale(0.015625)"/>
       <path id="CMR17-67" d="M 710 1164 
C 832 1068 1043 960 1299 960 
C 1805 960 2240 1357 2240 1888 
C 2240 2054 2189 2310 1997 2509 
C 2176 2692 2438 2752 2586 2752 
C 2611 2752 2650 2752 2682 2734 
C 2656 2728 2598 2703 2598 2605 
C 2598 2527 2656 2471 2739 2471 
C 2835 2471 2886 2533 2886 2614 
C 2886 2731 2790 2854 2586 2854 
C 2330 2854 2106 2738 1926 2580 
C 1734 2753 1504 2816 1299 2816 
C 794 2816 358 2419 358 1888 
C 358 1522 570 1292 634 1228 
C 442 1004 442 743 442 711 
C 442 545 506 302 723 168 
C 390 85 128 -169 128 -486 
C 128 -943 736 -1280 1466 -1280 
C 2170 -1280 2803 -956 2803 -479 
C 2803 384 1856 384 1363 384 
C 1216 384 954 384 922 391 
C 723 423 589 602 589 826 
C 589 883 589 1024 710 1164 
z
M 1299 1068 
C 736 1068 736 1760 736 1889 
C 736 2016 736 2708 1299 2708 
C 1862 2708 1862 2016 1862 1889 
C 1862 1760 1862 1068 1299 1068 
z
M 1466 -1171 
C 826 -1171 384 -835 384 -486 
C 384 -289 493 -105 634 -4 
C 794 104 858 104 1293 104 
C 1818 104 2547 104 2547 -486 
C 2547 -835 2106 -1171 1466 -1171 
z
" transform="scale(0.015625)"/>
       <path id="CMR17-74" d="M 966 2560 
L 1862 2560 
L 1862 2725 
L 966 2725 
L 966 3904 
L 851 3904 
C 838 3245 614 2668 70 2668 
L 70 2560 
L 627 2560 
L 627 771 
C 627 650 627 -64 1370 -64 
C 1747 -64 1965 306 1965 777 
L 1965 1140 
L 1850 1140 
L 1850 783 
C 1850 344 1677 51 1408 51 
C 1222 51 966 178 966 758 
L 966 2560 
z
" transform="scale(0.015625)"/>
       <path id="CMR17-6f" d="M 2758 1356 
C 2758 2176 2163 2816 1466 2816 
C 768 2816 173 2176 173 1356 
C 173 551 768 -64 1466 -64 
C 2163 -64 2758 551 2758 1356 
z
M 1466 51 
C 1165 51 909 230 762 480 
C 602 767 582 1126 582 1408 
C 582 1677 595 2010 762 2298 
C 890 2509 1139 2714 1466 2714 
C 1754 2714 1997 2554 2150 2330 
C 2349 2029 2349 1607 2349 1408 
C 2349 1158 2336 775 2163 467 
C 1984 173 1709 51 1466 51 
z
" transform="scale(0.015625)"/>
       <path id="CMR17-72" d="M 960 1497 
C 960 2112 1222 2688 1702 2688 
C 1747 2688 1792 2682 1837 2662 
C 1837 2662 1696 2617 1696 2452 
C 1696 2298 1818 2234 1914 2234 
C 1990 2234 2131 2279 2131 2458 
C 2131 2663 1926 2790 1709 2790 
C 1222 2790 1011 2317 947 2093 
L 941 2093 
L 941 2790 
L 198 2720 
L 198 2554 
C 576 2554 634 2515 634 2208 
L 634 428 
C 634 184 608 153 198 153 
L 198 -13 
C 352 0 646 0 813 0 
C 998 0 1325 0 1498 -13 
L 1498 153 
C 1037 153 960 153 960 440 
L 960 1497 
z
" transform="scale(0.015625)"/>
       <path id="CMR17-71" d="M 2630 2802 
L 2528 2802 
L 2336 2172 
C 2189 2509 1920 2802 1491 2802 
C 838 2802 211 2223 211 1383 
C 211 548 800 -38 1440 -38 
C 1933 -38 2208 338 2291 478 
L 2291 -789 
C 2291 -1031 2266 -1063 1856 -1063 
L 1856 -1228 
C 2010 -1216 2291 -1216 2458 -1216 
C 2624 -1216 2912 -1216 3066 -1228 
L 3066 -1063 
C 2656 -1063 2630 -1037 2630 -789 
L 2630 2802 
z
M 2304 886 
C 2304 612 2074 357 2054 338 
C 1856 115 1626 64 1472 64 
C 992 64 621 669 621 1375 
C 621 2121 1043 2688 1536 2688 
C 2048 2688 2304 2108 2304 1777 
L 2304 886 
z
" transform="scale(0.015625)"/>
       <path id="CMR17-75" d="M 1882 2693 
L 1882 2528 
C 2259 2528 2317 2489 2317 2186 
L 2317 1032 
C 2317 500 2029 38 1555 38 
C 1030 38 986 348 986 678 
L 986 2763 
L 211 2693 
L 211 2528 
C 467 2528 640 2528 646 2274 
L 646 1058 
C 646 633 646 361 813 183 
C 896 101 1056 -64 1517 -64 
C 2061 -64 2272 377 2323 506 
L 2330 506 
L 2330 -63 
L 3091 -63 
L 3091 128 
C 2714 128 2656 166 2656 473 
L 2656 2763 
L 1882 2693 
z
" transform="scale(0.015625)"/>
       <path id="CMR17-4e" d="M 1312 4250 
C 1267 4320 1261 4320 1139 4320 
L 326 4320 
L 326 4160 
L 448 4160 
C 704 4160 819 4129 838 4122 
L 838 610 
C 838 451 838 153 326 153 
L 326 -13 
C 474 0 742 0 902 0 
C 1062 0 1331 0 1478 -13 
L 1478 153 
C 966 153 966 451 966 610 
L 966 4033 
C 1011 3995 1011 3982 1056 3919 
L 3430 76 
C 3475 0 3494 0 3526 0 
C 3590 0 3590 19 3590 139 
L 3590 3705 
C 3590 3863 3590 4160 4102 4160 
L 4102 4326 
C 3955 4320 3686 4320 3526 4320 
C 3366 4320 3098 4320 2950 4326 
L 2950 4160 
C 3462 4160 3462 3862 3462 3703 
L 3462 763 
L 1312 4250 
z
" transform="scale(0.015625)"/>
      </defs>
      <use xlink:href="#CMR17-42" transform="scale(0.996264)"/>
      <use xlink:href="#CMR17-65" transform="translate(65.188754 0) scale(0.996264)"/>
      <use xlink:href="#CMR17-6e" transform="translate(105.674415 0) scale(0.996264)"/>
      <use xlink:href="#CMR17-64" transform="translate(156.569785 0) scale(0.996264)"/>
      <use xlink:href="#CMR17-69" transform="translate(207.465154 0) scale(0.996264)"/>
      <use xlink:href="#CMR17-6e" transform="translate(232.336213 0) scale(0.996264)"/>
      <use xlink:href="#CMR17-67" transform="translate(283.231583 0) scale(0.996264)"/>
      <use xlink:href="#CMR17-74" transform="translate(358.998026 0) scale(0.996264)"/>
      <use xlink:href="#CMR17-6f" transform="translate(394.278794 0) scale(0.996264)"/>
      <use xlink:href="#CMR17-72" transform="translate(439.969271 0) scale(0.996264)"/>
      <use xlink:href="#CMR17-71" transform="translate(475.250039 0) scale(0.996264)"/>
      <use xlink:href="#CMR17-75" transform="translate(523.542955 0) scale(0.996264)"/>
      <use xlink:href="#CMR17-65" transform="translate(574.438325 0) scale(0.996264)"/>
      <use xlink:href="#CMR17-5b" transform="translate(644.999951 0) scale(0.996264)"/>
      <use xlink:href="#CMR17-4e" transform="translate(669.87101 0) scale(0.996264)"/>
      <use xlink:href="#CMR17-6d" transform="translate(738.94344 0) scale(0.996264)"/>
      <use xlink:href="#CMR17-5d" transform="translate(815.86303 0) scale(0.996264)"/>
     </g>
    </g>
   </g>
   <g id="line2d_25">
    <path d="M 65.739578 147.282516 
L 104.305622 147.282516 
L 104.459886 17.299167 
L 142.871666 17.299167 
L 143.02593 107.845219 
L 181.43771 107.845219 
L 181.591974 30.840318 
L 220.003753 30.840318 
L 220.158017 79.065511 
L 258.569797 79.065511 
L 258.724061 43.213407 
L 297.135841 43.213407 
L 297.290105 92.151029 
L 335.701885 92.151029 
L 335.701885 92.151029 
" clip-path="url(#p1c1a12d550)" style="fill: none; stroke: #1f77b4; stroke-width: 1.5; stroke-linecap: square"/>
    <defs>
     <path id="m07edf47728" d="M 0 2.5 
C 0.663008 2.5 1.29895 2.236584 1.767767 1.767767 
C 2.236584 1.29895 2.5 0.663008 2.5 0 
C 2.5 -0.663008 2.236584 -1.29895 1.767767 -1.767767 
C 1.29895 -2.236584 0.663008 -2.5 0 -2.5 
C -0.663008 -2.5 -1.29895 -2.236584 -1.767767 -1.767767 
C -2.236584 -1.29895 -2.5 -0.663008 -2.5 0 
C -2.5 0.663008 -2.236584 1.29895 -1.767767 1.767767 
C -1.29895 2.236584 -0.663008 2.5 0 2.5 
z
" style="stroke: #1f77b4"/>
    </defs>
    <g clip-path="url(#p1c1a12d550)">
     <use xlink:href="#m07edf47728" x="65.739578" y="147.282516" style="fill: #1f77b4; stroke: #1f77b4"/>
     <use xlink:href="#m07edf47728" x="73.452787" y="147.282516" style="fill: #1f77b4; stroke: #1f77b4"/>
     <use xlink:href="#m07edf47728" x="81.165996" y="147.282516" style="fill: #1f77b4; stroke: #1f77b4"/>
     <use xlink:href="#m07edf47728" x="88.879204" y="147.282516" style="fill: #1f77b4; stroke: #1f77b4"/>
     <use xlink:href="#m07edf47728" x="96.592413" y="147.282516" style="fill: #1f77b4; stroke: #1f77b4"/>
     <use xlink:href="#m07edf47728" x="104.305622" y="147.282516" style="fill: #1f77b4; stroke: #1f77b4"/>
     <use xlink:href="#m07edf47728" x="112.018831" y="17.299167" style="fill: #1f77b4; stroke: #1f77b4"/>
     <use xlink:href="#m07edf47728" x="119.732039" y="17.299167" style="fill: #1f77b4; stroke: #1f77b4"/>
     <use xlink:href="#m07edf47728" x="127.445248" y="17.299167" style="fill: #1f77b4; stroke: #1f77b4"/>
     <use xlink:href="#m07edf47728" x="135.158457" y="17.299167" style="fill: #1f77b4; stroke: #1f77b4"/>
     <use xlink:href="#m07edf47728" x="142.871666" y="17.299167" style="fill: #1f77b4; stroke: #1f77b4"/>
     <use xlink:href="#m07edf47728" x="150.584874" y="107.845219" style="fill: #1f77b4; stroke: #1f77b4"/>
     <use xlink:href="#m07edf47728" x="158.298083" y="107.845219" style="fill: #1f77b4; stroke: #1f77b4"/>
     <use xlink:href="#m07edf47728" x="166.011292" y="107.845219" style="fill: #1f77b4; stroke: #1f77b4"/>
     <use xlink:href="#m07edf47728" x="173.724501" y="107.845219" style="fill: #1f77b4; stroke: #1f77b4"/>
     <use xlink:href="#m07edf47728" x="181.43771" y="107.845219" style="fill: #1f77b4; stroke: #1f77b4"/>
     <use xlink:href="#m07edf47728" x="189.150918" y="30.840318" style="fill: #1f77b4; stroke: #1f77b4"/>
     <use xlink:href="#m07edf47728" x="196.864127" y="30.840318" style="fill: #1f77b4; stroke: #1f77b4"/>
     <use xlink:href="#m07edf47728" x="204.577336" y="30.840318" style="fill: #1f77b4; stroke: #1f77b4"/>
     <use xlink:href="#m07edf47728" x="212.290545" y="30.840318" style="fill: #1f77b4; stroke: #1f77b4"/>
     <use xlink:href="#m07edf47728" x="220.003753" y="30.840318" style="fill: #1f77b4; stroke: #1f77b4"/>
     <use xlink:href="#m07edf47728" x="227.716962" y="79.065511" style="fill: #1f77b4; stroke: #1f77b4"/>
     <use xlink:href="#m07edf47728" x="235.430171" y="79.065511" style="fill: #1f77b4; stroke: #1f77b4"/>
     <use xlink:href="#m07edf47728" x="243.14338" y="79.065511" style="fill: #1f77b4; stroke: #1f77b4"/>
     <use xlink:href="#m07edf47728" x="250.856588" y="79.065511" style="fill: #1f77b4; stroke: #1f77b4"/>
     <use xlink:href="#m07edf47728" x="258.569797" y="79.065511" style="fill: #1f77b4; stroke: #1f77b4"/>
     <use xlink:href="#m07edf47728" x="266.283006" y="43.213407" style="fill: #1f77b4; stroke: #1f77b4"/>
     <use xlink:href="#m07edf47728" x="273.996215" y="43.213407" style="fill: #1f77b4; stroke: #1f77b4"/>
     <use xlink:href="#m07edf47728" x="281.709423" y="43.213407" style="fill: #1f77b4; stroke: #1f77b4"/>
     <use xlink:href="#m07edf47728" x="289.422632" y="43.213407" style="fill: #1f77b4; stroke: #1f77b4"/>
     <use xlink:href="#m07edf47728" x="297.135841" y="43.213407" style="fill: #1f77b4; stroke: #1f77b4"/>
     <use xlink:href="#m07edf47728" x="304.84905" y="92.151029" style="fill: #1f77b4; stroke: #1f77b4"/>
     <use xlink:href="#m07edf47728" x="312.562258" y="92.151029" style="fill: #1f77b4; stroke: #1f77b4"/>
     <use xlink:href="#m07edf47728" x="320.275467" y="92.151029" style="fill: #1f77b4; stroke: #1f77b4"/>
     <use xlink:href="#m07edf47728" x="327.988676" y="92.151029" style="fill: #1f77b4; stroke: #1f77b4"/>
     <use xlink:href="#m07edf47728" x="335.701885" y="92.151029" style="fill: #1f77b4; stroke: #1f77b4"/>
    </g>
   </g>
   <g id="line2d_26">
    <path d="M 65.739578 75.469251 
L 104.305622 75.469251 
L 104.459886 76.598555 
L 142.871666 76.598555 
L 143.02593 75.916826 
L 181.43771 75.916826 
L 181.591974 76.614955 
L 220.003753 76.614955 
L 220.158017 75.368972 
L 258.569797 75.368972 
L 258.724061 75.898034 
L 297.135841 75.898034 
L 297.290105 76.549508 
L 335.701885 76.549508 
L 335.701885 76.549508 
" clip-path="url(#p1c1a12d550)" style="fill: none; stroke: #ff7f0e; stroke-width: 1.5; stroke-linecap: square"/>
    <defs>
     <path id="m6694204a55" d="M 0 2.5 
C 0.663008 2.5 1.29895 2.236584 1.767767 1.767767 
C 2.236584 1.29895 2.5 0.663008 2.5 0 
C 2.5 -0.663008 2.236584 -1.29895 1.767767 -1.767767 
C 1.29895 -2.236584 0.663008 -2.5 0 -2.5 
C -0.663008 -2.5 -1.29895 -2.236584 -1.767767 -1.767767 
C -2.236584 -1.29895 -2.5 -0.663008 -2.5 0 
C -2.5 0.663008 -2.236584 1.29895 -1.767767 1.767767 
C -1.29895 2.236584 -0.663008 2.5 0 2.5 
z
" style="stroke: #ff7f0e"/>
    </defs>
    <g clip-path="url(#p1c1a12d550)">
     <use xlink:href="#m6694204a55" x="65.739578" y="75.469251" style="fill: #ff7f0e; stroke: #ff7f0e"/>
     <use xlink:href="#m6694204a55" x="73.452787" y="75.469251" style="fill: #ff7f0e; stroke: #ff7f0e"/>
     <use xlink:href="#m6694204a55" x="81.165996" y="75.469251" style="fill: #ff7f0e; stroke: #ff7f0e"/>
     <use xlink:href="#m6694204a55" x="88.879204" y="75.469251" style="fill: #ff7f0e; stroke: #ff7f0e"/>
     <use xlink:href="#m6694204a55" x="96.592413" y="75.469251" style="fill: #ff7f0e; stroke: #ff7f0e"/>
     <use xlink:href="#m6694204a55" x="104.305622" y="75.469251" style="fill: #ff7f0e; stroke: #ff7f0e"/>
     <use xlink:href="#m6694204a55" x="112.018831" y="76.598555" style="fill: #ff7f0e; stroke: #ff7f0e"/>
     <use xlink:href="#m6694204a55" x="119.732039" y="76.598555" style="fill: #ff7f0e; stroke: #ff7f0e"/>
     <use xlink:href="#m6694204a55" x="127.445248" y="76.598555" style="fill: #ff7f0e; stroke: #ff7f0e"/>
     <use xlink:href="#m6694204a55" x="135.158457" y="76.598555" style="fill: #ff7f0e; stroke: #ff7f0e"/>
     <use xlink:href="#m6694204a55" x="142.871666" y="76.598555" style="fill: #ff7f0e; stroke: #ff7f0e"/>
     <use xlink:href="#m6694204a55" x="150.584874" y="75.916826" style="fill: #ff7f0e; stroke: #ff7f0e"/>
     <use xlink:href="#m6694204a55" x="158.298083" y="75.916826" style="fill: #ff7f0e; stroke: #ff7f0e"/>
     <use xlink:href="#m6694204a55" x="166.011292" y="75.916826" style="fill: #ff7f0e; stroke: #ff7f0e"/>
     <use xlink:href="#m6694204a55" x="173.724501" y="75.916826" style="fill: #ff7f0e; stroke: #ff7f0e"/>
     <use xlink:href="#m6694204a55" x="181.43771" y="75.916826" style="fill: #ff7f0e; stroke: #ff7f0e"/>
     <use xlink:href="#m6694204a55" x="189.150918" y="76.614955" style="fill: #ff7f0e; stroke: #ff7f0e"/>
     <use xlink:href="#m6694204a55" x="196.864127" y="76.614955" style="fill: #ff7f0e; stroke: #ff7f0e"/>
     <use xlink:href="#m6694204a55" x="204.577336" y="76.614955" style="fill: #ff7f0e; stroke: #ff7f0e"/>
     <use xlink:href="#m6694204a55" x="212.290545" y="76.614955" style="fill: #ff7f0e; stroke: #ff7f0e"/>
     <use xlink:href="#m6694204a55" x="220.003753" y="76.614955" style="fill: #ff7f0e; stroke: #ff7f0e"/>
     <use xlink:href="#m6694204a55" x="227.716962" y="75.368972" style="fill: #ff7f0e; stroke: #ff7f0e"/>
     <use xlink:href="#m6694204a55" x="235.430171" y="75.368972" style="fill: #ff7f0e; stroke: #ff7f0e"/>
     <use xlink:href="#m6694204a55" x="243.14338" y="75.368972" style="fill: #ff7f0e; stroke: #ff7f0e"/>
     <use xlink:href="#m6694204a55" x="250.856588" y="75.368972" style="fill: #ff7f0e; stroke: #ff7f0e"/>
     <use xlink:href="#m6694204a55" x="258.569797" y="75.368972" style="fill: #ff7f0e; stroke: #ff7f0e"/>
     <use xlink:href="#m6694204a55" x="266.283006" y="75.898034" style="fill: #ff7f0e; stroke: #ff7f0e"/>
     <use xlink:href="#m6694204a55" x="273.996215" y="75.898034" style="fill: #ff7f0e; stroke: #ff7f0e"/>
     <use xlink:href="#m6694204a55" x="281.709423" y="75.898034" style="fill: #ff7f0e; stroke: #ff7f0e"/>
     <use xlink:href="#m6694204a55" x="289.422632" y="75.898034" style="fill: #ff7f0e; stroke: #ff7f0e"/>
     <use xlink:href="#m6694204a55" x="297.135841" y="75.898034" style="fill: #ff7f0e; stroke: #ff7f0e"/>
     <use xlink:href="#m6694204a55" x="304.84905" y="76.549508" style="fill: #ff7f0e; stroke: #ff7f0e"/>
     <use xlink:href="#m6694204a55" x="312.562258" y="76.549508" style="fill: #ff7f0e; stroke: #ff7f0e"/>
     <use xlink:href="#m6694204a55" x="320.275467" y="76.549508" style="fill: #ff7f0e; stroke: #ff7f0e"/>
     <use xlink:href="#m6694204a55" x="327.988676" y="76.549508" style="fill: #ff7f0e; stroke: #ff7f0e"/>
     <use xlink:href="#m6694204a55" x="335.701885" y="76.549508" style="fill: #ff7f0e; stroke: #ff7f0e"/>
    </g>
   </g>
   <g id="line2d_27">
    <path d="M 65.739578 88.735042 
L 65.893842 75.073919 
L 66.048106 74.909592 
L 67.127956 75.828057 
L 68.053541 76.219832 
L 69.287654 76.496835 
L 89.110601 76.48271 
L 103.919961 76.484138 
L 104.305622 76.483846 
L 104.382754 75.937367 
L 104.537018 78.82332 
L 104.61415 78.786812 
L 105.308339 77.268234 
L 105.925396 76.57755 
L 106.619585 76.138034 
L 107.622302 75.798277 
L 108.933547 75.613822 
L 110.630453 75.564516 
L 142.871666 75.630603 
L 142.948798 76.031993 
L 143.103062 75.663482 
L 144.645704 76.13076 
L 146.111213 76.282802 
L 148.116648 76.244261 
L 150.43061 76.22564 
L 160.612046 76.216498 
L 166.936877 76.213239 
L 181.43771 76.214054 
L 181.514842 76.075024 
L 181.669106 78.702495 
L 181.746238 78.685793 
L 182.594691 77.064966 
L 183.211748 76.470898 
L 183.983068 76.049772 
L 184.754389 75.809551 
L 186.065635 75.621978 
L 187.685409 75.567104 
L 190.539296 75.646632 
L 191.464881 75.657636 
L 207.739751 75.647223 
L 220.003753 75.643503 
L 220.23515 77.405408 
L 220.312282 77.382981 
L 221.00647 76.711338 
L 221.854923 76.295532 
L 223.011905 76.00318 
L 224.246018 75.885859 
L 226.251452 75.921033 
L 229.336736 75.976453 
L 236.278624 75.967576 
L 244.223229 75.970479 
L 258.569797 75.970416 
L 258.646929 76.181514 
L 258.801193 73.821741 
L 258.878325 73.859532 
L 259.572514 75.190596 
L 260.189571 75.816923 
L 260.960892 76.267858 
L 261.886477 76.555132 
L 263.197722 76.738428 
L 264.894628 76.775159 
L 280.783838 76.700899 
L 289.885425 76.698868 
L 297.135841 76.698648 
L 297.212973 76.204801 
L 297.367237 78.647332 
L 297.521501 78.369318 
L 297.984294 77.39246 
L 298.601351 76.688362 
L 299.295539 76.232392 
L 300.298256 75.872407 
L 301.609502 75.667174 
L 303.152144 75.60919 
L 306.931616 75.70977 
L 320.044071 75.698102 
L 335.701885 75.696159 
L 335.701885 75.696159 
" clip-path="url(#p1c1a12d550)" style="fill: none; stroke: #1f77b4; stroke-width: 1.5; stroke-linecap: square"/>
    <defs>
     <path id="mc54f3139e3" d="M -0 2.5 
L 2.5 -2.5 
L -2.5 -2.5 
z
" style="stroke: #1f77b4; stroke-linejoin: miter"/>
    </defs>
    <g clip-path="url(#p1c1a12d550)">
     <use xlink:href="#mc54f3139e3" x="65.739578" y="88.735042" style="fill: #1f77b4; stroke: #1f77b4; stroke-linejoin: miter"/>
     <use xlink:href="#mc54f3139e3" x="73.452787" y="76.474972" style="fill: #1f77b4; stroke: #1f77b4; stroke-linejoin: miter"/>
     <use xlink:href="#mc54f3139e3" x="81.165996" y="76.488194" style="fill: #1f77b4; stroke: #1f77b4; stroke-linejoin: miter"/>
     <use xlink:href="#mc54f3139e3" x="88.879204" y="76.482101" style="fill: #1f77b4; stroke: #1f77b4; stroke-linejoin: miter"/>
     <use xlink:href="#mc54f3139e3" x="96.592413" y="76.484631" style="fill: #1f77b4; stroke: #1f77b4; stroke-linejoin: miter"/>
     <use xlink:href="#mc54f3139e3" x="104.305622" y="76.483846" style="fill: #1f77b4; stroke: #1f77b4; stroke-linejoin: miter"/>
     <use xlink:href="#mc54f3139e3" x="112.018831" y="75.589432" style="fill: #1f77b4; stroke: #1f77b4; stroke-linejoin: miter"/>
     <use xlink:href="#mc54f3139e3" x="119.732039" y="75.622783" style="fill: #1f77b4; stroke: #1f77b4; stroke-linejoin: miter"/>
     <use xlink:href="#mc54f3139e3" x="127.445248" y="75.629466" style="fill: #1f77b4; stroke: #1f77b4; stroke-linejoin: miter"/>
     <use xlink:href="#mc54f3139e3" x="135.158457" y="75.632703" style="fill: #1f77b4; stroke: #1f77b4; stroke-linejoin: miter"/>
     <use xlink:href="#mc54f3139e3" x="142.871666" y="75.630603" style="fill: #1f77b4; stroke: #1f77b4; stroke-linejoin: miter"/>
     <use xlink:href="#mc54f3139e3" x="150.584874" y="76.221137" style="fill: #1f77b4; stroke: #1f77b4; stroke-linejoin: miter"/>
     <use xlink:href="#mc54f3139e3" x="158.298083" y="76.209708" style="fill: #1f77b4; stroke: #1f77b4; stroke-linejoin: miter"/>
     <use xlink:href="#mc54f3139e3" x="166.011292" y="76.216203" style="fill: #1f77b4; stroke: #1f77b4; stroke-linejoin: miter"/>
     <use xlink:href="#mc54f3139e3" x="173.724501" y="76.213631" style="fill: #1f77b4; stroke: #1f77b4; stroke-linejoin: miter"/>
     <use xlink:href="#mc54f3139e3" x="181.43771" y="76.214054" style="fill: #1f77b4; stroke: #1f77b4; stroke-linejoin: miter"/>
     <use xlink:href="#mc54f3139e3" x="189.150918" y="75.603557" style="fill: #1f77b4; stroke: #1f77b4; stroke-linejoin: miter"/>
     <use xlink:href="#mc54f3139e3" x="196.864127" y="75.636786" style="fill: #1f77b4; stroke: #1f77b4; stroke-linejoin: miter"/>
     <use xlink:href="#mc54f3139e3" x="204.577336" y="75.644285" style="fill: #1f77b4; stroke: #1f77b4; stroke-linejoin: miter"/>
     <use xlink:href="#mc54f3139e3" x="212.290545" y="75.645027" style="fill: #1f77b4; stroke: #1f77b4; stroke-linejoin: miter"/>
     <use xlink:href="#mc54f3139e3" x="220.003753" y="75.643503" style="fill: #1f77b4; stroke: #1f77b4; stroke-linejoin: miter"/>
     <use xlink:href="#mc54f3139e3" x="227.716962" y="75.97638" style="fill: #1f77b4; stroke: #1f77b4; stroke-linejoin: miter"/>
     <use xlink:href="#mc54f3139e3" x="235.430171" y="75.973438" style="fill: #1f77b4; stroke: #1f77b4; stroke-linejoin: miter"/>
     <use xlink:href="#mc54f3139e3" x="243.14338" y="75.968879" style="fill: #1f77b4; stroke: #1f77b4; stroke-linejoin: miter"/>
     <use xlink:href="#mc54f3139e3" x="250.856588" y="75.970696" style="fill: #1f77b4; stroke: #1f77b4; stroke-linejoin: miter"/>
     <use xlink:href="#mc54f3139e3" x="258.569797" y="75.970416" style="fill: #1f77b4; stroke: #1f77b4; stroke-linejoin: miter"/>
     <use xlink:href="#mc54f3139e3" x="266.283006" y="76.743215" style="fill: #1f77b4; stroke: #1f77b4; stroke-linejoin: miter"/>
     <use xlink:href="#mc54f3139e3" x="273.996215" y="76.692606" style="fill: #1f77b4; stroke: #1f77b4; stroke-linejoin: miter"/>
     <use xlink:href="#mc54f3139e3" x="281.709423" y="76.695341" style="fill: #1f77b4; stroke: #1f77b4; stroke-linejoin: miter"/>
     <use xlink:href="#mc54f3139e3" x="289.422632" y="76.700011" style="fill: #1f77b4; stroke: #1f77b4; stroke-linejoin: miter"/>
     <use xlink:href="#mc54f3139e3" x="297.135841" y="76.698648" style="fill: #1f77b4; stroke: #1f77b4; stroke-linejoin: miter"/>
     <use xlink:href="#mc54f3139e3" x="304.84905" y="75.656358" style="fill: #1f77b4; stroke: #1f77b4; stroke-linejoin: miter"/>
     <use xlink:href="#mc54f3139e3" x="312.562258" y="75.700833" style="fill: #1f77b4; stroke: #1f77b4; stroke-linejoin: miter"/>
     <use xlink:href="#mc54f3139e3" x="320.275467" y="75.698653" style="fill: #1f77b4; stroke: #1f77b4; stroke-linejoin: miter"/>
     <use xlink:href="#mc54f3139e3" x="327.988676" y="75.69495" style="fill: #1f77b4; stroke: #1f77b4; stroke-linejoin: miter"/>
     <use xlink:href="#mc54f3139e3" x="335.701885" y="75.696159" style="fill: #1f77b4; stroke: #1f77b4; stroke-linejoin: miter"/>
    </g>
   </g>
   <g id="line2d_28">
    <path d="M 65.739578 69.02862 
L 65.81671 77.110446 
L 65.893842 76.801875 
L 66.125239 76.605498 
L 67.590748 76.29716 
L 69.51905 76.114763 
L 72.372938 76.187927 
L 74.764032 76.192713 
L 87.336563 76.196792 
L 104.305622 76.197276 
L 104.382754 74.88703 
L 104.537018 75.983791 
L 104.768414 76.017673 
L 105.462603 76.016153 
L 109.010679 76.187569 
L 114.795586 76.125417 
L 142.871666 76.127219 
L 142.948798 76.521609 
L 143.02593 76.392169 
L 143.41159 76.320088 
L 146.265478 76.10026 
L 181.43771 76.1558 
L 181.514842 74.944041 
L 181.669106 75.954829 
L 181.900502 76.011358 
L 182.826087 76.049362 
L 185.602842 76.207776 
L 207.508355 76.141826 
L 220.003753 76.141212 
L 220.23515 76.853066 
L 220.852206 76.558735 
L 221.932055 76.269765 
L 223.474697 76.094086 
L 225.557264 76.101654 
L 229.876661 76.151124 
L 236.432888 76.146822 
L 249.005418 76.145949 
L 258.569797 76.146077 
L 258.646929 77.238454 
L 258.801193 76.332011 
L 259.03259 76.306305 
L 259.80391 76.318134 
L 263.351987 76.228413 
L 267.748516 76.283724 
L 289.499764 76.273916 
L 297.135841 76.273353 
L 297.212973 75.126383 
L 297.367237 76.054146 
L 297.598633 76.053763 
L 298.292822 76.048343 
L 301.686634 76.181592 
L 307.008748 76.117872 
L 313.487843 76.12008 
L 335.701885 76.122909 
L 335.701885 76.122909 
" clip-path="url(#p1c1a12d550)" style="fill: none; stroke: #ff7f0e; stroke-width: 1.5; stroke-linecap: square"/>
    <defs>
     <path id="m3dd484516c" d="M -0 2.5 
L 2.5 -2.5 
L -2.5 -2.5 
z
" style="stroke: #ff7f0e; stroke-linejoin: miter"/>
    </defs>
    <g clip-path="url(#p1c1a12d550)">
     <use xlink:href="#m3dd484516c" x="65.739578" y="69.02862" style="fill: #ff7f0e; stroke: #ff7f0e; stroke-linejoin: miter"/>
     <use xlink:href="#m3dd484516c" x="73.452787" y="76.218115" style="fill: #ff7f0e; stroke: #ff7f0e; stroke-linejoin: miter"/>
     <use xlink:href="#m3dd484516c" x="81.165996" y="76.199842" style="fill: #ff7f0e; stroke: #ff7f0e; stroke-linejoin: miter"/>
     <use xlink:href="#m3dd484516c" x="88.879204" y="76.196733" style="fill: #ff7f0e; stroke: #ff7f0e; stroke-linejoin: miter"/>
     <use xlink:href="#m3dd484516c" x="96.592413" y="76.197577" style="fill: #ff7f0e; stroke: #ff7f0e; stroke-linejoin: miter"/>
     <use xlink:href="#m3dd484516c" x="104.305622" y="76.197276" style="fill: #ff7f0e; stroke: #ff7f0e; stroke-linejoin: miter"/>
     <use xlink:href="#m3dd484516c" x="112.018831" y="76.135922" style="fill: #ff7f0e; stroke: #ff7f0e; stroke-linejoin: miter"/>
     <use xlink:href="#m3dd484516c" x="119.732039" y="76.123989" style="fill: #ff7f0e; stroke: #ff7f0e; stroke-linejoin: miter"/>
     <use xlink:href="#m3dd484516c" x="127.445248" y="76.126697" style="fill: #ff7f0e; stroke: #ff7f0e; stroke-linejoin: miter"/>
     <use xlink:href="#m3dd484516c" x="135.158457" y="76.128039" style="fill: #ff7f0e; stroke: #ff7f0e; stroke-linejoin: miter"/>
     <use xlink:href="#m3dd484516c" x="142.871666" y="76.127219" style="fill: #ff7f0e; stroke: #ff7f0e; stroke-linejoin: miter"/>
     <use xlink:href="#m3dd484516c" x="150.584874" y="76.146647" style="fill: #ff7f0e; stroke: #ff7f0e; stroke-linejoin: miter"/>
     <use xlink:href="#m3dd484516c" x="158.298083" y="76.154054" style="fill: #ff7f0e; stroke: #ff7f0e; stroke-linejoin: miter"/>
     <use xlink:href="#m3dd484516c" x="166.011292" y="76.156341" style="fill: #ff7f0e; stroke: #ff7f0e; stroke-linejoin: miter"/>
     <use xlink:href="#m3dd484516c" x="173.724501" y="76.15557" style="fill: #ff7f0e; stroke: #ff7f0e; stroke-linejoin: miter"/>
     <use xlink:href="#m3dd484516c" x="181.43771" y="76.1558" style="fill: #ff7f0e; stroke: #ff7f0e; stroke-linejoin: miter"/>
     <use xlink:href="#m3dd484516c" x="189.150918" y="76.143531" style="fill: #ff7f0e; stroke: #ff7f0e; stroke-linejoin: miter"/>
     <use xlink:href="#m3dd484516c" x="196.864127" y="76.13953" style="fill: #ff7f0e; stroke: #ff7f0e; stroke-linejoin: miter"/>
     <use xlink:href="#m3dd484516c" x="204.577336" y="76.141433" style="fill: #ff7f0e; stroke: #ff7f0e; stroke-linejoin: miter"/>
     <use xlink:href="#m3dd484516c" x="212.290545" y="76.141767" style="fill: #ff7f0e; stroke: #ff7f0e; stroke-linejoin: miter"/>
     <use xlink:href="#m3dd484516c" x="220.003753" y="76.141212" style="fill: #ff7f0e; stroke: #ff7f0e; stroke-linejoin: miter"/>
     <use xlink:href="#m3dd484516c" x="227.716962" y="76.158418" style="fill: #ff7f0e; stroke: #ff7f0e; stroke-linejoin: miter"/>
     <use xlink:href="#m3dd484516c" x="235.430171" y="76.148083" style="fill: #ff7f0e; stroke: #ff7f0e; stroke-linejoin: miter"/>
     <use xlink:href="#m3dd484516c" x="243.14338" y="76.145551" style="fill: #ff7f0e; stroke: #ff7f0e; stroke-linejoin: miter"/>
     <use xlink:href="#m3dd484516c" x="250.856588" y="76.146237" style="fill: #ff7f0e; stroke: #ff7f0e; stroke-linejoin: miter"/>
     <use xlink:href="#m3dd484516c" x="258.569797" y="76.146077" style="fill: #ff7f0e; stroke: #ff7f0e; stroke-linejoin: miter"/>
     <use xlink:href="#m3dd484516c" x="266.283006" y="76.263347" style="fill: #ff7f0e; stroke: #ff7f0e; stroke-linejoin: miter"/>
     <use xlink:href="#m3dd484516c" x="273.996215" y="76.270578" style="fill: #ff7f0e; stroke: #ff7f0e; stroke-linejoin: miter"/>
     <use xlink:href="#m3dd484516c" x="281.709423" y="76.271884" style="fill: #ff7f0e; stroke: #ff7f0e; stroke-linejoin: miter"/>
     <use xlink:href="#m3dd484516c" x="289.422632" y="76.273874" style="fill: #ff7f0e; stroke: #ff7f0e; stroke-linejoin: miter"/>
     <use xlink:href="#m3dd484516c" x="297.135841" y="76.273353" style="fill: #ff7f0e; stroke: #ff7f0e; stroke-linejoin: miter"/>
     <use xlink:href="#m3dd484516c" x="304.84905" y="76.128667" style="fill: #ff7f0e; stroke: #ff7f0e; stroke-linejoin: miter"/>
     <use xlink:href="#m3dd484516c" x="312.562258" y="76.125446" style="fill: #ff7f0e; stroke: #ff7f0e; stroke-linejoin: miter"/>
     <use xlink:href="#m3dd484516c" x="320.275467" y="76.123883" style="fill: #ff7f0e; stroke: #ff7f0e; stroke-linejoin: miter"/>
     <use xlink:href="#m3dd484516c" x="327.988676" y="76.122445" style="fill: #ff7f0e; stroke: #ff7f0e; stroke-linejoin: miter"/>
     <use xlink:href="#m3dd484516c" x="335.701885" y="76.122909" style="fill: #ff7f0e; stroke: #ff7f0e; stroke-linejoin: miter"/>
    </g>
   </g>
   <g id="line2d_29">
    <path d="M 65.739578 90.44314 
L 65.893842 76.782017 
L 66.048106 76.61769 
L 67.127956 77.536155 
L 68.053541 77.92793 
L 69.287654 78.204933 
L 89.110601 78.190808 
L 103.919961 78.192236 
L 104.305622 78.191944 
L 104.382754 72.574304 
L 104.459886 74.918688 
L 104.537018 75.460257 
L 104.61415 75.423749 
L 105.308339 73.905172 
L 105.925396 73.214487 
L 106.619585 72.774971 
L 107.622302 72.435214 
L 108.933547 72.250759 
L 110.630453 72.201454 
L 142.871666 72.26754 
L 142.948798 76.629763 
L 143.02593 76.310638 
L 143.180194 76.290034 
L 143.874383 76.563646 
L 145.339893 76.830071 
L 165.085707 76.811353 
L 179.740804 76.811656 
L 181.43771 76.811823 
L 181.514842 72.782956 
L 181.669106 75.410426 
L 181.746238 75.393724 
L 182.594691 73.772897 
L 183.211748 73.178829 
L 183.983068 72.757703 
L 184.754389 72.517482 
L 186.065635 72.329909 
L 187.685409 72.275035 
L 190.539296 72.354563 
L 191.464881 72.365567 
L 207.739751 72.355154 
L 220.003753 72.351435 
L 220.158017 75.752482 
L 220.312282 75.966064 
L 221.00647 75.294422 
L 221.854923 74.878615 
L 223.011905 74.586263 
L 224.246018 74.468942 
L 226.251452 74.504116 
L 229.336736 74.559536 
L 236.278624 74.550659 
L 244.223229 74.553562 
L 258.569797 74.553499 
L 258.646929 79.177014 
L 258.724061 77.257718 
L 258.801193 76.817241 
L 258.878325 76.855032 
L 259.572514 78.186096 
L 260.189571 78.812423 
L 260.960892 79.263358 
L 261.886477 79.550632 
L 263.197722 79.733928 
L 264.894628 79.770658 
L 280.783838 79.696399 
L 289.885425 79.694368 
L 297.135841 79.694147 
L 297.212973 73.251962 
L 297.290105 75.273191 
L 297.367237 75.694493 
L 297.444369 75.618105 
L 297.984294 74.439621 
L 298.601351 73.735523 
L 299.295539 73.279553 
L 300.298256 72.919568 
L 301.609502 72.714335 
L 303.152144 72.656351 
L 306.931616 72.756931 
L 320.044071 72.745263 
L 335.701885 72.74332 
L 335.701885 72.74332 
" clip-path="url(#p1c1a12d550)" style="fill: none; stroke: #1f77b4; stroke-width: 2; stroke-linecap: square"/>
   </g>
   <g id="line2d_30">
    <path d="M 65.739578 68.302338 
L 65.81671 76.384164 
L 65.893842 76.075593 
L 66.125239 75.879216 
L 67.590748 75.570878 
L 69.51905 75.388481 
L 72.372938 75.461645 
L 74.764032 75.466431 
L 87.336563 75.47051 
L 104.305622 75.470994 
L 104.382754 75.290053 
L 104.537018 76.386813 
L 104.768414 76.420696 
L 105.462603 76.419175 
L 109.010679 76.590591 
L 114.795586 76.52844 
L 142.871666 76.530241 
L 143.103062 76.074574 
L 145.108496 75.861496 
L 146.882534 75.828883 
L 154.13295 75.878527 
L 181.43771 75.877093 
L 181.514842 75.363463 
L 181.669106 76.374251 
L 181.900502 76.43078 
L 182.826087 76.468784 
L 185.602842 76.627198 
L 207.508355 76.561248 
L 220.003753 76.560634 
L 220.080885 75.632767 
L 220.158017 75.964582 
L 220.312282 76.003557 
L 221.160735 75.627647 
L 222.47198 75.354503 
L 223.93749 75.251814 
L 226.559981 75.318793 
L 228.642547 75.3125 
L 239.518171 75.320573 
L 258.569797 75.319516 
L 258.646929 76.940955 
L 258.724061 76.23869 
L 258.878325 75.992143 
L 260.575231 75.967654 
L 262.580666 75.917453 
L 273.302026 75.979382 
L 297.135841 75.975855 
L 297.212973 75.480357 
L 297.367237 76.40812 
L 297.598633 76.407737 
L 298.292822 76.402318 
L 301.686634 76.535567 
L 307.008748 76.471846 
L 313.487843 76.474054 
L 335.701885 76.476884 
L 335.701885 76.476884 
" clip-path="url(#p1c1a12d550)" style="fill: none; stroke: #ff7f0e; stroke-width: 2; stroke-linecap: square"/>
   </g>
   <g id="patch_3">
    <path d="M 52.241463 153.781683 
L 52.241463 10.8 
" style="fill: none; stroke: #000000; stroke-width: 0.8; stroke-linejoin: miter; stroke-linecap: square"/>
   </g>
   <g id="patch_4">
    <path d="M 349.2 153.781683 
L 349.2 10.8 
" style="fill: none; stroke: #000000; stroke-width: 0.8; stroke-linejoin: miter; stroke-linecap: square"/>
   </g>
   <g id="patch_5">
    <path d="M 52.241463 153.781683 
L 349.2 153.781683 
" style="fill: none; stroke: #000000; stroke-width: 0.8; stroke-linejoin: miter; stroke-linecap: square"/>
   </g>
   <g id="patch_6">
    <path d="M 52.241463 10.8 
L 349.2 10.8 
" style="fill: none; stroke: #000000; stroke-width: 0.8; stroke-linejoin: miter; stroke-linecap: square"/>
   </g>
   <g id="legend_1">
    <g id="patch_7">
     <path d="M 59.241463 127.42881 
L 108.804143 127.42881 
Q 110.804143 127.42881 110.804143 125.42881 
L 110.804143 39.152873 
Q 110.804143 37.152873 108.804143 37.152873 
L 59.241463 37.152873 
Q 57.241463 37.152873 57.241463 39.152873 
L 57.241463 125.42881 
Q 57.241463 127.42881 59.241463 127.42881 
z
" style="fill: #ffffff; opacity: 0.8; stroke: #cccccc; stroke-linejoin: miter"/>
    </g>
    <g id="line2d_31">
     <path d="M 61.241463 44.652873 
L 71.241463 44.652873 
L 81.241463 44.652873 
" style="fill: none; stroke: #1f77b4; stroke-width: 1.5; stroke-linecap: square"/>
     <g>
      <use xlink:href="#m07edf47728" x="71.241463" y="44.652873" style="fill: #1f77b4; stroke: #1f77b4"/>
     </g>
    </g>
    <g id="text_15">
     <!-- $\tau_\mathrm{ff,1}$ -->
     <g transform="translate(89.241463 48.152873) scale(0.1 -0.1)">
      <defs>
       <path id="CMMI12-1c" d="M 1837 2408 
L 2899 2408 
C 2982 2408 3194 2408 3194 2612 
C 3194 2752 3072 2752 2957 2752 
L 1197 2752 
C 1050 2752 832 2752 538 2440 
C 371 2255 166 1917 166 1879 
C 166 1841 198 1828 237 1828 
C 282 1828 288 1847 320 1885 
C 653 2408 986 2408 1146 2408 
L 1677 2408 
L 1011 223 
C 979 127 979 114 979 95 
C 979 25 1024 -64 1152 -64 
C 1350 -64 1382 108 1402 203 
L 1837 2408 
z
" transform="scale(0.015625)"/>
       <path id="CMR17-b" d="M 2554 2560 
L 3283 2560 
L 3283 2725 
L 2541 2725 
L 2541 3494 
C 2541 4022 2810 4352 3085 4352 
C 3168 4352 3264 4327 3328 4282 
C 3277 4269 3142 4225 3142 4067 
C 3142 3901 3270 3850 3360 3850 
C 3450 3850 3578 3901 3578 4067 
C 3578 4308 3347 4454 3091 4454 
C 2842 4454 2637 4333 2477 4181 
C 2330 4390 2086 4454 1837 4454 
C 1338 4454 634 4168 634 3469 
L 634 2725 
L 122 2725 
L 122 2560 
L 634 2560 
L 634 427 
C 634 184 608 153 198 153 
L 198 -13 
C 352 0 634 0 794 0 
C 960 0 1242 0 1395 -13 
L 1395 153 
C 986 153 960 178 960 427 
L 960 2560 
L 2227 2560 
L 2227 427 
C 2227 184 2202 153 1792 153 
L 1792 -13 
C 1946 0 2240 0 2406 0 
C 2592 0 2918 0 3091 -13 
L 3091 153 
C 2630 153 2554 153 2554 439 
L 2554 2560 
z
M 947 2725 
L 947 3469 
C 947 4047 1395 4352 1824 4352 
C 1920 4352 2170 4332 2323 4187 
C 2208 4187 2099 4136 2099 3977 
C 2099 3812 2246 3767 2259 3767 
C 2227 3652 2227 3526 2227 3481 
L 2227 2725 
L 947 2725 
z
" transform="scale(0.015625)"/>
       <path id="CMMI12-3b" d="M 1248 -31 
C 1248 343 1126 619 864 619 
C 659 619 557 453 557 313 
C 557 172 653 0 870 0 
C 954 0 1024 26 1082 83 
C 1094 96 1101 96 1107 96 
C 1120 96 1120 5 1120 -27 
C 1120 -240 1082 -659 710 -1080 
C 640 -1157 640 -1170 640 -1183 
C 640 -1216 672 -1248 704 -1248 
C 755 -1248 1248 -771 1248 -31 
z
" transform="scale(0.015625)"/>
      </defs>
      <use xlink:href="#CMMI12-1c" transform="scale(0.996264)"/>
      <use xlink:href="#CMR17-b" transform="translate(42.363841 -14.943915) scale(0.697382)"/>
      <use xlink:href="#CMMI12-3b" transform="translate(83.138776 -14.943915) scale(0.697382)"/>
      <use xlink:href="#CMR17-31" transform="translate(102.106709 -14.943915) scale(0.697382)"/>
     </g>
    </g>
    <g id="line2d_32">
     <path d="M 61.241463 59.503268 
L 71.241463 59.503268 
L 81.241463 59.503268 
" style="fill: none; stroke: #ff7f0e; stroke-width: 1.5; stroke-linecap: square"/>
     <g>
      <use xlink:href="#m6694204a55" x="71.241463" y="59.503268" style="fill: #ff7f0e; stroke: #ff7f0e"/>
     </g>
    </g>
    <g id="text_16">
     <!-- $\tau_\mathrm{ff,2}$ -->
     <g transform="translate(89.241463 63.003268) scale(0.1 -0.1)">
      <use xlink:href="#CMMI12-1c" transform="scale(0.996264)"/>
      <use xlink:href="#CMR17-b" transform="translate(42.363841 -14.943915) scale(0.697382)"/>
      <use xlink:href="#CMMI12-3b" transform="translate(83.138776 -14.943915) scale(0.697382)"/>
      <use xlink:href="#CMR17-32" transform="translate(102.106709 -14.943915) scale(0.697382)"/>
     </g>
    </g>
    <g id="line2d_33">
     <path d="M 61.241463 74.353663 
L 71.241463 74.353663 
L 81.241463 74.353663 
" style="fill: none; stroke: #1f77b4; stroke-width: 1.5; stroke-linecap: square"/>
     <g>
      <use xlink:href="#mc54f3139e3" x="71.241463" y="74.353663" style="fill: #1f77b4; stroke: #1f77b4; stroke-linejoin: miter"/>
     </g>
    </g>
    <g id="text_17">
     <!-- $\tau_{\mathrm{fb},1}$ -->
     <g transform="translate(89.241463 77.853663) scale(0.1 -0.1)">
      <defs>
       <path id="CMR17-66" d="M 979 2560 
L 1709 2560 
L 1709 2725 
L 966 2725 
L 966 3494 
C 966 4022 1235 4352 1510 4352 
C 1594 4352 1690 4327 1754 4282 
C 1702 4269 1568 4225 1568 4067 
C 1568 3901 1696 3850 1786 3850 
C 1875 3850 2003 3901 2003 4067 
C 2003 4308 1773 4454 1517 4454 
C 1152 4454 653 4156 653 3481 
L 653 2725 
L 141 2725 
L 141 2560 
L 653 2560 
L 653 427 
C 653 184 627 153 218 153 
L 218 -13 
C 371 0 666 0 832 0 
C 1018 0 1344 0 1517 -13 
L 1517 153 
C 1056 153 979 153 979 439 
L 979 2560 
z
" transform="scale(0.015625)"/>
       <path id="CMR17-62" d="M 960 4396 
L 198 4326 
L 198 4160 
C 576 4160 634 4122 634 3817 
L 634 -13 
L 749 -13 
L 934 441 
C 1120 141 1395 -64 1766 -64 
C 2406 -64 3053 500 3053 1370 
C 3053 2188 2477 2790 1830 2790 
C 1434 2790 1152 2579 960 2330 
L 960 4396 
z
M 973 2004 
C 973 2118 973 2138 1062 2272 
C 1312 2657 1670 2688 1792 2688 
C 1984 2688 2643 2585 2643 1376 
C 2643 108 1888 38 1734 38 
C 1536 38 1248 114 1043 486 
C 973 608 973 621 973 735 
L 973 2004 
z
" transform="scale(0.015625)"/>
      </defs>
      <use xlink:href="#CMMI12-1c" transform="scale(0.996264)"/>
      <use xlink:href="#CMR17-66" transform="translate(42.363841 -14.943915) scale(0.697382)"/>
      <use xlink:href="#CMR17-62" transform="translate(61.595205 -14.943915) scale(0.697382)"/>
      <use xlink:href="#CMMI12-3b" transform="translate(97.221813 -14.943915) scale(0.697382)"/>
      <use xlink:href="#CMR17-31" transform="translate(116.189746 -14.943915) scale(0.697382)"/>
     </g>
    </g>
    <g id="line2d_34">
     <path d="M 61.241463 89.204058 
L 71.241463 89.204058 
L 81.241463 89.204058 
" style="fill: none; stroke: #ff7f0e; stroke-width: 1.5; stroke-linecap: square"/>
     <g>
      <use xlink:href="#m3dd484516c" x="71.241463" y="89.204058" style="fill: #ff7f0e; stroke: #ff7f0e; stroke-linejoin: miter"/>
     </g>
    </g>
    <g id="text_18">
     <!-- $\tau_{\mathrm{fb},2}$ -->
     <g transform="translate(89.241463 92.704058) scale(0.1 -0.1)">
      <use xlink:href="#CMMI12-1c" transform="scale(0.996264)"/>
      <use xlink:href="#CMR17-66" transform="translate(42.363841 -14.943915) scale(0.697382)"/>
      <use xlink:href="#CMR17-62" transform="translate(61.595205 -14.943915) scale(0.697382)"/>
      <use xlink:href="#CMMI12-3b" transform="translate(97.221813 -14.943915) scale(0.697382)"/>
      <use xlink:href="#CMR17-32" transform="translate(116.189746 -14.943915) scale(0.697382)"/>
     </g>
    </g>
    <g id="line2d_35">
     <path d="M 61.241463 104.054453 
L 71.241463 104.054453 
L 81.241463 104.054453 
" style="fill: none; stroke: #1f77b4; stroke-width: 2; stroke-linecap: square"/>
    </g>
    <g id="text_19">
     <!-- $\tau_1$ -->
     <g transform="translate(89.241463 107.554453) scale(0.1 -0.1)">
      <use xlink:href="#CMMI12-1c" transform="scale(0.996264)"/>
      <use xlink:href="#CMR17-31" transform="translate(42.363841 -14.943915) scale(0.697382)"/>
     </g>
    </g>
    <g id="line2d_36">
     <path d="M 61.241463 117.991632 
L 71.241463 117.991632 
L 81.241463 117.991632 
" style="fill: none; stroke: #ff7f0e; stroke-width: 2; stroke-linecap: square"/>
    </g>
    <g id="text_20">
     <!-- $\tau_2$ -->
     <g transform="translate(89.241463 121.491632) scale(0.1 -0.1)">
      <use xlink:href="#CMMI12-1c" transform="scale(0.996264)"/>
      <use xlink:href="#CMR17-32" transform="translate(42.363841 -14.943915) scale(0.697382)"/>
     </g>
    </g>
   </g>
  </g>
 </g>
 <defs>
  <clipPath id="p1c1a12d550">
   <rect x="52.241463" y="10.8" width="296.958537" height="142.981683"/>
  </clipPath>
 </defs>
</svg>
