<?xml version="1.0" encoding="utf-8" standalone="no"?>
<!DOCTYPE svg PUBLIC "-//W3C//DTD SVG 1.1//EN"
  "http://www.w3.org/Graphics/SVG/1.1/DTD/svg11.dtd">
<svg xmlns:xlink="http://www.w3.org/1999/xlink" width="360pt" height="252pt" viewBox="0 0 360 252" xmlns="http://www.w3.org/2000/svg" version="1.1">
 <metadata>
  <rdf:RDF xmlns:dc="http://purl.org/dc/elements/1.1/" xmlns:cc="http://creativecommons.org/ns#" xmlns:rdf="http://www.w3.org/1999/02/22-rdf-syntax-ns#">
   <cc:Work>
    <dc:type rdf:resource="http://purl.org/dc/dcmitype/StillImage"/>
    <dc:date>2024-10-21T20:01:40.839599</dc:date>
    <dc:format>image/svg+xml</dc:format>
    <dc:creator>
     <cc:Agent>
      <dc:title>Matplotlib v3.9.2, https://matplotlib.org/</dc:title>
     </cc:Agent>
    </dc:creator>
   </cc:Work>
  </rdf:RDF>
 </metadata>
 <defs>
  <style type="text/css">*{stroke-linejoin: round; stroke-linecap: butt}</style>
 </defs>
 <g id="figure_1">
  <g id="patch_1">
   <path d="M 0 252 
L 360 252 
L 360 0 
L 0 0 
z
" style="fill: #ffffff"/>
  </g>
  <g id="axes_1">
   <g id="patch_2">
    <path d="M 57.222798 211.381683 
L 349.2 211.381683 
L 349.2 13.825525 
L 57.222798 13.825525 
z
" style="fill: #ffffff"/>
   </g>
   <g id="matplotlib.axis_1">
    <g id="xtick_1">
     <g id="line2d_1">
      <path d="M 70.494489 211.381683 
L 70.494489 13.825525 
" clip-path="url(#pe94f693b7d)" style="fill: none; stroke: #b0b0b0; stroke-width: 0.8; stroke-linecap: square"/>
     </g>
     <g id="line2d_2">
      <defs>
       <path id="mcbd0a1c31d" d="M 0 0 
L 0 3.5 
" style="stroke: #000000; stroke-width: 0.8"/>
      </defs>
      <g>
       <use xlink:href="#mcbd0a1c31d" x="70.494489" y="211.381683" style="stroke: #000000; stroke-width: 0.8"/>
      </g>
     </g>
     <g id="text_1">
      <!-- $\mathdefault{0}$ -->
      <g transform="translate(68.003821 225.300182) scale(0.1 -0.1)">
       <defs>
        <path id="CMR17-30" d="M 2688 2025 
C 2688 2416 2682 3080 2413 3591 
C 2176 4039 1798 4198 1466 4198 
C 1158 4198 768 4058 525 3597 
C 269 3118 243 2524 243 2025 
C 243 1661 250 1106 448 619 
C 723 -39 1216 -128 1466 -128 
C 1760 -128 2208 -7 2470 600 
C 2662 1042 2688 1559 2688 2025 
z
M 1466 -26 
C 1056 -26 813 325 723 812 
C 653 1188 653 1738 653 2096 
C 653 2588 653 2997 736 3387 
C 858 3929 1216 4096 1466 4096 
C 1728 4096 2067 3923 2189 3400 
C 2272 3036 2278 2607 2278 2096 
C 2278 1680 2278 1169 2202 792 
C 2067 95 1690 -26 1466 -26 
z
" transform="scale(0.015625)"/>
       </defs>
       <use xlink:href="#CMR17-30" transform="scale(0.996264)"/>
      </g>
     </g>
    </g>
    <g id="xtick_2">
     <g id="line2d_3">
      <path d="M 108.413606 211.381683 
L 108.413606 13.825525 
" clip-path="url(#pe94f693b7d)" style="fill: none; stroke: #b0b0b0; stroke-width: 0.8; stroke-linecap: square"/>
     </g>
     <g id="line2d_4">
      <g>
       <use xlink:href="#mcbd0a1c31d" x="108.413606" y="211.381683" style="stroke: #000000; stroke-width: 0.8"/>
      </g>
     </g>
     <g id="text_2">
      <!-- $\mathdefault{5}$ -->
      <g transform="translate(105.922939 225.300182) scale(0.1 -0.1)">
       <defs>
        <path id="CMR17-35" d="M 730 3692 
C 794 3666 1056 3584 1325 3584 
C 1920 3584 2246 3911 2432 4100 
C 2432 4157 2432 4192 2394 4192 
C 2387 4192 2374 4192 2323 4163 
C 2099 4058 1837 3973 1517 3973 
C 1325 3973 1037 3999 723 4139 
C 653 4171 640 4171 634 4171 
C 602 4171 595 4164 595 4037 
L 595 2203 
C 595 2089 595 2057 659 2057 
C 691 2057 704 2070 736 2114 
C 941 2401 1222 2522 1542 2522 
C 1766 2522 2246 2382 2246 1289 
C 2246 1085 2246 715 2054 421 
C 1894 159 1645 25 1370 25 
C 947 25 518 320 403 814 
C 429 807 480 795 506 795 
C 589 795 749 840 749 1038 
C 749 1210 627 1280 506 1280 
C 358 1280 262 1190 262 1011 
C 262 454 704 -128 1382 -128 
C 2042 -128 2669 440 2669 1264 
C 2669 2030 2170 2624 1549 2624 
C 1222 2624 947 2503 730 2274 
L 730 3692 
z
" transform="scale(0.015625)"/>
       </defs>
       <use xlink:href="#CMR17-35" transform="scale(0.996264)"/>
      </g>
     </g>
    </g>
    <g id="xtick_3">
     <g id="line2d_5">
      <path d="M 146.332723 211.381683 
L 146.332723 13.825525 
" clip-path="url(#pe94f693b7d)" style="fill: none; stroke: #b0b0b0; stroke-width: 0.8; stroke-linecap: square"/>
     </g>
     <g id="line2d_6">
      <g>
       <use xlink:href="#mcbd0a1c31d" x="146.332723" y="211.381683" style="stroke: #000000; stroke-width: 0.8"/>
      </g>
     </g>
     <g id="text_3">
      <!-- $\mathdefault{10}$ -->
      <g transform="translate(141.351388 225.300182) scale(0.1 -0.1)">
       <defs>
        <path id="CMR17-31" d="M 1702 4058 
C 1702 4192 1696 4192 1606 4192 
C 1357 3916 979 3827 621 3827 
C 602 3827 570 3827 563 3808 
C 557 3795 557 3782 557 3648 
C 755 3648 1088 3686 1344 3839 
L 1344 461 
C 1344 236 1331 160 781 160 
L 589 160 
L 589 0 
C 896 0 1216 0 1523 0 
C 1830 0 2150 0 2458 0 
L 2458 160 
L 2266 160 
C 1715 160 1702 230 1702 458 
L 1702 4058 
z
" transform="scale(0.015625)"/>
       </defs>
       <use xlink:href="#CMR17-31" transform="scale(0.996264)"/>
       <use xlink:href="#CMR17-30" transform="translate(45.690477 0) scale(0.996264)"/>
      </g>
     </g>
    </g>
    <g id="xtick_4">
     <g id="line2d_7">
      <path d="M 184.25184 211.381683 
L 184.25184 13.825525 
" clip-path="url(#pe94f693b7d)" style="fill: none; stroke: #b0b0b0; stroke-width: 0.8; stroke-linecap: square"/>
     </g>
     <g id="line2d_8">
      <g>
       <use xlink:href="#mcbd0a1c31d" x="184.25184" y="211.381683" style="stroke: #000000; stroke-width: 0.8"/>
      </g>
     </g>
     <g id="text_4">
      <!-- $\mathdefault{15}$ -->
      <g transform="translate(179.270505 225.300182) scale(0.1 -0.1)">
       <use xlink:href="#CMR17-31" transform="scale(0.996264)"/>
       <use xlink:href="#CMR17-35" transform="translate(45.690477 0) scale(0.996264)"/>
      </g>
     </g>
    </g>
    <g id="xtick_5">
     <g id="line2d_9">
      <path d="M 222.170958 211.381683 
L 222.170958 13.825525 
" clip-path="url(#pe94f693b7d)" style="fill: none; stroke: #b0b0b0; stroke-width: 0.8; stroke-linecap: square"/>
     </g>
     <g id="line2d_10">
      <g>
       <use xlink:href="#mcbd0a1c31d" x="222.170958" y="211.381683" style="stroke: #000000; stroke-width: 0.8"/>
      </g>
     </g>
     <g id="text_5">
      <!-- $\mathdefault{20}$ -->
      <g transform="translate(217.189622 225.300182) scale(0.1 -0.1)">
       <defs>
        <path id="CMR17-32" d="M 2669 989 
L 2554 989 
C 2490 536 2438 459 2413 420 
C 2381 369 1920 369 1830 369 
L 602 369 
C 832 619 1280 1072 1824 1597 
C 2214 1967 2669 2402 2669 3035 
C 2669 3790 2067 4224 1395 4224 
C 691 4224 262 3604 262 3030 
C 262 2780 448 2748 525 2748 
C 589 2748 781 2787 781 3010 
C 781 3207 614 3264 525 3264 
C 486 3264 448 3258 422 3245 
C 544 3790 915 4058 1306 4058 
C 1862 4058 2227 3617 2227 3035 
C 2227 2479 1901 2000 1536 1584 
L 262 146 
L 262 0 
L 2515 0 
L 2669 989 
z
" transform="scale(0.015625)"/>
       </defs>
       <use xlink:href="#CMR17-32" transform="scale(0.996264)"/>
       <use xlink:href="#CMR17-30" transform="translate(45.690477 0) scale(0.996264)"/>
      </g>
     </g>
    </g>
    <g id="xtick_6">
     <g id="line2d_11">
      <path d="M 260.090075 211.381683 
L 260.090075 13.825525 
" clip-path="url(#pe94f693b7d)" style="fill: none; stroke: #b0b0b0; stroke-width: 0.8; stroke-linecap: square"/>
     </g>
     <g id="line2d_12">
      <g>
       <use xlink:href="#mcbd0a1c31d" x="260.090075" y="211.381683" style="stroke: #000000; stroke-width: 0.8"/>
      </g>
     </g>
     <g id="text_6">
      <!-- $\mathdefault{25}$ -->
      <g transform="translate(255.108739 225.300182) scale(0.1 -0.1)">
       <use xlink:href="#CMR17-32" transform="scale(0.996264)"/>
       <use xlink:href="#CMR17-35" transform="translate(45.690477 0) scale(0.996264)"/>
      </g>
     </g>
    </g>
    <g id="xtick_7">
     <g id="line2d_13">
      <path d="M 298.009192 211.381683 
L 298.009192 13.825525 
" clip-path="url(#pe94f693b7d)" style="fill: none; stroke: #b0b0b0; stroke-width: 0.8; stroke-linecap: square"/>
     </g>
     <g id="line2d_14">
      <g>
       <use xlink:href="#mcbd0a1c31d" x="298.009192" y="211.381683" style="stroke: #000000; stroke-width: 0.8"/>
      </g>
     </g>
     <g id="text_7">
      <!-- $\mathdefault{30}$ -->
      <g transform="translate(293.027857 225.300182) scale(0.1 -0.1)">
       <defs>
        <path id="CMR17-33" d="M 1414 2157 
C 1984 2157 2234 1662 2234 1090 
C 2234 320 1824 25 1453 25 
C 1114 25 563 194 390 693 
C 422 680 454 680 486 680 
C 640 680 755 782 755 948 
C 755 1133 614 1216 486 1216 
C 378 1216 211 1165 211 926 
C 211 335 787 -128 1466 -128 
C 2176 -128 2720 430 2720 1085 
C 2720 1707 2208 2157 1600 2227 
C 2086 2328 2554 2756 2554 3329 
C 2554 3820 2048 4179 1472 4179 
C 890 4179 378 3829 378 3329 
C 378 3110 544 3072 627 3072 
C 762 3072 877 3155 877 3321 
C 877 3486 762 3569 627 3569 
C 602 3569 570 3569 544 3557 
C 730 3959 1235 4032 1459 4032 
C 1683 4032 2106 3925 2106 3320 
C 2106 3143 2080 2828 1862 2550 
C 1670 2304 1453 2304 1242 2284 
C 1210 2284 1062 2269 1037 2269 
C 992 2263 966 2257 966 2208 
C 966 2163 973 2157 1101 2157 
L 1414 2157 
z
" transform="scale(0.015625)"/>
       </defs>
       <use xlink:href="#CMR17-33" transform="scale(0.996264)"/>
       <use xlink:href="#CMR17-30" transform="translate(45.690477 0) scale(0.996264)"/>
      </g>
     </g>
    </g>
    <g id="xtick_8">
     <g id="line2d_15">
      <path d="M 335.928309 211.381683 
L 335.928309 13.825525 
" clip-path="url(#pe94f693b7d)" style="fill: none; stroke: #b0b0b0; stroke-width: 0.8; stroke-linecap: square"/>
     </g>
     <g id="line2d_16">
      <g>
       <use xlink:href="#mcbd0a1c31d" x="335.928309" y="211.381683" style="stroke: #000000; stroke-width: 0.8"/>
      </g>
     </g>
     <g id="text_8">
      <!-- $\mathdefault{35}$ -->
      <g transform="translate(330.946974 225.300182) scale(0.1 -0.1)">
       <use xlink:href="#CMR17-33" transform="scale(0.996264)"/>
       <use xlink:href="#CMR17-35" transform="translate(45.690477 0) scale(0.996264)"/>
      </g>
     </g>
    </g>
    <g id="text_9">
     <!-- Time $t$ [s] -->
     <g transform="translate(182.013091 238.70934) scale(0.1 -0.1)">
      <defs>
       <path id="CMR17-54" d="M 3981 4326 
L 288 4326 
L 179 2918 
L 294 2918 
C 378 3976 467 4160 1453 4160 
C 1568 4160 1754 4160 1805 4154 
C 1926 4135 1926 4058 1926 3912 
L 1926 459 
C 1926 230 1907 160 1376 160 
L 1197 160 
L 1197 0 
C 1504 0 1824 0 2138 0 
C 2451 0 2771 0 3078 0 
L 3078 160 
L 2899 160 
C 2368 160 2349 230 2349 459 
L 2349 3912 
C 2349 4052 2349 4129 2464 4154 
C 2515 4160 2701 4160 2816 4160 
C 3795 4160 3891 3976 3974 2918 
L 4090 2918 
L 3981 4326 
z
" transform="scale(0.015625)"/>
       <path id="CMR17-69" d="M 992 3909 
C 992 4049 877 4170 730 4170 
C 589 4170 467 4056 467 3909 
C 467 3769 582 3648 730 3648 
C 870 3648 992 3763 992 3909 
z
M 243 2706 
L 243 2541 
C 602 2541 653 2502 653 2197 
L 653 427 
C 653 184 627 153 218 153 
L 218 -13 
C 371 0 646 0 806 0 
C 960 0 1222 0 1370 -13 
L 1370 153 
C 992 153 979 191 979 420 
L 979 2776 
L 243 2706 
z
" transform="scale(0.015625)"/>
       <path id="CMR17-6d" d="M 4326 1933 
C 4326 2252 4269 2790 3507 2790 
C 3072 2790 2771 2496 2656 2151 
L 2650 2151 
C 2573 2676 2195 2790 1837 2790 
C 1331 2790 1069 2400 973 2144 
L 966 2144 
L 966 2790 
L 211 2720 
L 211 2554 
C 589 2554 646 2515 646 2208 
L 646 428 
C 646 184 621 153 211 153 
L 211 -13 
C 365 0 646 0 813 0 
C 979 0 1267 0 1421 -13 
L 1421 153 
C 1011 153 986 178 986 428 
L 986 1658 
C 986 2247 1344 2688 1792 2688 
C 2266 2688 2317 2266 2317 1958 
L 2317 428 
C 2317 184 2291 153 1882 153 
L 1882 -13 
C 2035 0 2317 0 2483 0 
C 2650 0 2938 0 3091 -13 
L 3091 153 
C 2682 153 2656 178 2656 428 
L 2656 1658 
C 2656 2247 3014 2688 3462 2688 
C 3936 2688 3987 2266 3987 1958 
L 3987 428 
C 3987 184 3962 153 3552 153 
L 3552 -13 
C 3706 0 3987 0 4154 0 
C 4320 0 4608 0 4762 -13 
L 4762 153 
C 4352 153 4326 178 4326 428 
L 4326 1933 
z
" transform="scale(0.015625)"/>
       <path id="CMR17-65" d="M 2438 1472 
C 2464 1498 2464 1511 2464 1576 
C 2464 2238 2118 2816 1389 2816 
C 710 2816 173 2169 173 1383 
C 173 551 781 -64 1459 -64 
C 2176 -64 2458 607 2458 740 
C 2458 784 2419 784 2406 784 
C 2362 784 2355 771 2330 696 
C 2189 265 1837 51 1504 51 
C 1229 51 954 203 781 480 
C 582 803 582 1176 582 1472 
L 2438 1472 
z
M 589 1568 
C 634 2505 1126 2714 1382 2714 
C 1818 2714 2112 2297 2118 1568 
L 589 1568 
z
" transform="scale(0.015625)"/>
       <path id="CMMI12-74" d="M 1286 2566 
L 1875 2566 
C 1997 2566 2061 2566 2061 2681 
C 2061 2752 2022 2752 1894 2752 
L 1331 2752 
L 1568 3692 
C 1594 3781 1594 3794 1594 3840 
C 1594 3943 1510 4000 1427 4000 
C 1376 4000 1229 3981 1178 3775 
L 928 2752 
L 326 2752 
C 198 2752 141 2752 141 2630 
C 141 2566 186 2566 307 2566 
L 877 2566 
L 454 881 
C 403 658 384 594 384 511 
C 384 211 595 -64 954 -64 
C 1600 -64 1946 868 1946 912 
C 1946 951 1920 970 1882 970 
C 1869 970 1843 970 1830 944 
C 1824 938 1818 931 1773 829 
C 1638 511 1344 64 973 64 
C 781 64 768 224 768 364 
C 768 370 768 492 787 568 
L 1286 2566 
z
" transform="scale(0.015625)"/>
       <path id="CMR17-5b" d="M 1504 -1600 
L 1504 -1377 
L 902 -1377 
L 902 4544 
L 1504 4544 
L 1504 4767 
L 678 4767 
L 678 -1600 
L 1504 -1600 
z
" transform="scale(0.015625)"/>
       <path id="CMR17-73" d="M 1978 2697 
C 1978 2813 1971 2819 1933 2819 
C 1907 2819 1901 2813 1824 2717 
C 1805 2691 1747 2626 1728 2601 
C 1523 2819 1235 2819 1126 2819 
C 416 2819 160 2447 160 2076 
C 160 1498 813 1365 998 1325 
C 1402 1243 1542 1217 1677 1101 
C 1760 1025 1901 884 1901 654 
C 1901 384 1747 38 1158 38 
C 602 38 403 460 288 1021 
C 269 1110 269 1117 218 1117 
C 166 1117 160 1110 160 983 
L 160 63 
C 160 -51 166 -58 205 -58 
C 237 -58 243 -51 275 0 
C 314 57 410 211 448 276 
C 576 103 800 -64 1158 -64 
C 1792 -64 2131 283 2131 784 
C 2131 1112 1958 1285 1875 1362 
C 1683 1561 1459 1606 1190 1657 
C 838 1735 390 1825 390 2217 
C 390 2383 480 2737 1126 2737 
C 1811 2737 1850 2094 1862 1888 
C 1869 1856 1901 1849 1920 1849 
C 1978 1849 1978 1869 1978 1978 
L 1978 2697 
z
" transform="scale(0.015625)"/>
       <path id="CMR17-5d" d="M 915 4767 
L 90 4767 
L 90 4544 
L 691 4544 
L 691 -1377 
L 90 -1377 
L 90 -1600 
L 915 -1600 
L 915 4767 
z
" transform="scale(0.015625)"/>
      </defs>
      <use xlink:href="#CMR17-54" transform="scale(0.996264)"/>
      <use xlink:href="#CMR17-69" transform="translate(66.509881 0) scale(0.996264)"/>
      <use xlink:href="#CMR17-6d" transform="translate(91.380939 0) scale(0.996264)"/>
      <use xlink:href="#CMR17-65" transform="translate(168.300529 0) scale(0.996264)"/>
      <use xlink:href="#CMMI12-74" transform="translate(238.862156 0) scale(0.996264)"/>
      <use xlink:href="#CMR17-5b" transform="translate(304.164452 0) scale(0.996264)"/>
      <use xlink:href="#CMR17-73" transform="translate(329.035511 0) scale(0.996264)"/>
      <use xlink:href="#CMR17-5d" transform="translate(364.836848 0) scale(0.996264)"/>
     </g>
    </g>
   </g>
   <g id="matplotlib.axis_2">
    <g id="ytick_1">
     <g id="line2d_17">
      <path d="M 57.222798 186.677484 
L 349.2 186.677484 
" clip-path="url(#pe94f693b7d)" style="fill: none; stroke: #b0b0b0; stroke-width: 0.8; stroke-linecap: square"/>
     </g>
     <g id="line2d_18">
      <defs>
       <path id="m501caff900" d="M 0 0 
L -3.5 0 
" style="stroke: #000000; stroke-width: 0.8"/>
      </defs>
      <g>
       <use xlink:href="#m501caff900" x="57.222798" y="186.677484" style="stroke: #000000; stroke-width: 0.8"/>
      </g>
     </g>
     <g id="text_10">
      <!-- $\mathdefault{−0.10}$ -->
      <g transform="translate(24.76264 190.136733) scale(0.1 -0.1)">
       <defs>
        <path id="CMSY10-0" d="M 4218 1472 
C 4326 1472 4442 1472 4442 1600 
C 4442 1728 4326 1728 4218 1728 
L 755 1728 
C 646 1728 531 1728 531 1600 
C 531 1472 646 1472 755 1472 
L 4218 1472 
z
" transform="scale(0.015625)"/>
        <path id="CMMI12-3a" d="M 1178 307 
C 1178 492 1024 619 870 619 
C 685 619 557 466 557 313 
C 557 128 710 0 864 0 
C 1050 0 1178 153 1178 307 
z
" transform="scale(0.015625)"/>
       </defs>
       <use xlink:href="#CMSY10-0" transform="scale(0.996264)"/>
       <use xlink:href="#CMR17-30" transform="translate(77.487468 0) scale(0.996264)"/>
       <use xlink:href="#CMMI12-3a" transform="translate(123.177945 0) scale(0.996264)"/>
       <use xlink:href="#CMR17-31" transform="translate(150.275122 0) scale(0.996264)"/>
       <use xlink:href="#CMR17-30" transform="translate(195.965599 0) scale(0.996264)"/>
      </g>
     </g>
    </g>
    <g id="ytick_2">
     <g id="line2d_19">
      <path d="M 57.222798 152.195409 
L 349.2 152.195409 
" clip-path="url(#pe94f693b7d)" style="fill: none; stroke: #b0b0b0; stroke-width: 0.8; stroke-linecap: square"/>
     </g>
     <g id="line2d_20">
      <g>
       <use xlink:href="#m501caff900" x="57.222798" y="152.195409" style="stroke: #000000; stroke-width: 0.8"/>
      </g>
     </g>
     <g id="text_11">
      <!-- $\mathdefault{−0.05}$ -->
      <g transform="translate(24.76264 155.654658) scale(0.1 -0.1)">
       <use xlink:href="#CMSY10-0" transform="scale(0.996264)"/>
       <use xlink:href="#CMR17-30" transform="translate(77.487468 0) scale(0.996264)"/>
       <use xlink:href="#CMMI12-3a" transform="translate(123.177945 0) scale(0.996264)"/>
       <use xlink:href="#CMR17-30" transform="translate(150.275122 0) scale(0.996264)"/>
       <use xlink:href="#CMR17-35" transform="translate(195.965599 0) scale(0.996264)"/>
      </g>
     </g>
    </g>
    <g id="ytick_3">
     <g id="line2d_21">
      <path d="M 57.222798 117.713334 
L 349.2 117.713334 
" clip-path="url(#pe94f693b7d)" style="fill: none; stroke: #b0b0b0; stroke-width: 0.8; stroke-linecap: square"/>
     </g>
     <g id="line2d_22">
      <g>
       <use xlink:href="#m501caff900" x="57.222798" y="117.713334" style="stroke: #000000; stroke-width: 0.8"/>
      </g>
     </g>
     <g id="text_12">
      <!-- $\mathdefault{0.00}$ -->
      <g transform="translate(32.511384 121.172583) scale(0.1 -0.1)">
       <use xlink:href="#CMR17-30" transform="scale(0.996264)"/>
       <use xlink:href="#CMMI12-3a" transform="translate(45.690477 0) scale(0.996264)"/>
       <use xlink:href="#CMR17-30" transform="translate(72.787654 0) scale(0.996264)"/>
       <use xlink:href="#CMR17-30" transform="translate(118.478131 0) scale(0.996264)"/>
      </g>
     </g>
    </g>
    <g id="ytick_4">
     <g id="line2d_23">
      <path d="M 57.222798 83.231259 
L 349.2 83.231259 
" clip-path="url(#pe94f693b7d)" style="fill: none; stroke: #b0b0b0; stroke-width: 0.8; stroke-linecap: square"/>
     </g>
     <g id="line2d_24">
      <g>
       <use xlink:href="#m501caff900" x="57.222798" y="83.231259" style="stroke: #000000; stroke-width: 0.8"/>
      </g>
     </g>
     <g id="text_13">
      <!-- $\mathdefault{0.05}$ -->
      <g transform="translate(32.511384 86.690508) scale(0.1 -0.1)">
       <use xlink:href="#CMR17-30" transform="scale(0.996264)"/>
       <use xlink:href="#CMMI12-3a" transform="translate(45.690477 0) scale(0.996264)"/>
       <use xlink:href="#CMR17-30" transform="translate(72.787654 0) scale(0.996264)"/>
       <use xlink:href="#CMR17-35" transform="translate(118.478131 0) scale(0.996264)"/>
      </g>
     </g>
    </g>
    <g id="ytick_5">
     <g id="line2d_25">
      <path d="M 57.222798 48.749184 
L 349.2 48.749184 
" clip-path="url(#pe94f693b7d)" style="fill: none; stroke: #b0b0b0; stroke-width: 0.8; stroke-linecap: square"/>
     </g>
     <g id="line2d_26">
      <g>
       <use xlink:href="#m501caff900" x="57.222798" y="48.749184" style="stroke: #000000; stroke-width: 0.8"/>
      </g>
     </g>
     <g id="text_14">
      <!-- $\mathdefault{0.10}$ -->
      <g transform="translate(32.511384 52.208433) scale(0.1 -0.1)">
       <use xlink:href="#CMR17-30" transform="scale(0.996264)"/>
       <use xlink:href="#CMMI12-3a" transform="translate(45.690477 0) scale(0.996264)"/>
       <use xlink:href="#CMR17-31" transform="translate(72.787654 0) scale(0.996264)"/>
       <use xlink:href="#CMR17-30" transform="translate(118.478131 0) scale(0.996264)"/>
      </g>
     </g>
    </g>
    <g id="ytick_6">
     <g id="line2d_27">
      <path d="M 57.222798 14.267109 
L 349.2 14.267109 
" clip-path="url(#pe94f693b7d)" style="fill: none; stroke: #b0b0b0; stroke-width: 0.8; stroke-linecap: square"/>
     </g>
     <g id="line2d_28">
      <g>
       <use xlink:href="#m501caff900" x="57.222798" y="14.267109" style="stroke: #000000; stroke-width: 0.8"/>
      </g>
     </g>
     <g id="text_15">
      <!-- $\mathdefault{0.15}$ -->
      <g transform="translate(32.511384 17.726358) scale(0.1 -0.1)">
       <use xlink:href="#CMR17-30" transform="scale(0.996264)"/>
       <use xlink:href="#CMMI12-3a" transform="translate(45.690477 0) scale(0.996264)"/>
       <use xlink:href="#CMR17-31" transform="translate(72.787654 0) scale(0.996264)"/>
       <use xlink:href="#CMR17-35" transform="translate(118.478131 0) scale(0.996264)"/>
      </g>
     </g>
    </g>
    <g id="text_16">
     <!-- Linear strains $\sigma$ [rad/m] -->
     <g transform="translate(18.27198 165.608054) rotate(-90) scale(0.1 -0.1)">
      <defs>
       <path id="CMR17-4c" d="M 3469 1615 
L 3354 1615 
C 3302 983 3219 166 2125 166 
L 1530 166 
C 1274 166 1261 197 1261 414 
L 1261 3898 
C 1261 4129 1274 4192 1760 4192 
L 1901 4192 
L 1901 4352 
C 1638 4352 1331 4352 1069 4352 
C 870 4352 512 4352 326 4352 
L 326 4192 
C 768 4192 838 4192 838 3905 
L 838 452 
C 838 166 768 166 326 166 
L 326 0 
L 3315 0 
L 3469 1615 
z
" transform="scale(0.015625)"/>
       <path id="CMR17-6e" d="M 2656 1933 
C 2656 2259 2592 2790 1837 2790 
C 1331 2790 1069 2400 973 2144 
L 966 2144 
L 966 2790 
L 211 2720 
L 211 2554 
C 589 2554 646 2515 646 2208 
L 646 428 
C 646 184 621 153 211 153 
L 211 -13 
C 365 0 646 0 813 0 
C 979 0 1267 0 1421 -13 
L 1421 153 
C 1011 153 986 178 986 428 
L 986 1658 
C 986 2247 1344 2688 1792 2688 
C 2266 2688 2317 2266 2317 1958 
L 2317 428 
C 2317 184 2291 153 1882 153 
L 1882 -13 
C 2035 0 2317 0 2483 0 
C 2650 0 2938 0 3091 -13 
L 3091 153 
C 2682 153 2656 178 2656 428 
L 2656 1933 
z
" transform="scale(0.015625)"/>
       <path id="CMR17-61" d="M 2304 1653 
C 2304 2072 2304 2294 2035 2543 
C 1798 2752 1523 2816 1306 2816 
C 800 2816 435 2407 435 1971 
C 435 1728 627 1728 666 1728 
C 749 1728 896 1778 896 1954 
C 896 2112 774 2181 666 2181 
C 640 2181 608 2174 589 2168 
C 723 2592 1069 2714 1293 2714 
C 1613 2714 1965 2429 1965 1885 
L 1965 1600 
C 1587 1600 1133 1549 774 1357 
C 371 1133 256 813 256 570 
C 256 77 832 -64 1171 -64 
C 1523 -64 1850 139 1990 511 
C 2003 233 2182 -18 2464 -18 
C 2598 -18 2938 70 2938 567 
L 2938 920 
L 2822 920 
L 2822 562 
C 2822 178 2650 128 2566 128 
C 2304 128 2304 458 2304 738 
L 2304 1653 
z
M 1965 870 
C 1965 317 1568 38 1216 38 
C 896 38 646 275 646 570 
C 646 761 730 1100 1101 1305 
C 1408 1478 1760 1504 1965 1504 
L 1965 870 
z
" transform="scale(0.015625)"/>
       <path id="CMR17-72" d="M 960 1497 
C 960 2112 1222 2688 1702 2688 
C 1747 2688 1792 2682 1837 2662 
C 1837 2662 1696 2617 1696 2452 
C 1696 2298 1818 2234 1914 2234 
C 1990 2234 2131 2279 2131 2458 
C 2131 2663 1926 2790 1709 2790 
C 1222 2790 1011 2317 947 2093 
L 941 2093 
L 941 2790 
L 198 2720 
L 198 2554 
C 576 2554 634 2515 634 2208 
L 634 428 
C 634 184 608 153 198 153 
L 198 -13 
C 352 0 646 0 813 0 
C 998 0 1325 0 1498 -13 
L 1498 153 
C 1037 153 960 153 960 440 
L 960 1497 
z
" transform="scale(0.015625)"/>
       <path id="CMR17-74" d="M 966 2560 
L 1862 2560 
L 1862 2725 
L 966 2725 
L 966 3904 
L 851 3904 
C 838 3245 614 2668 70 2668 
L 70 2560 
L 627 2560 
L 627 771 
C 627 650 627 -64 1370 -64 
C 1747 -64 1965 306 1965 777 
L 1965 1140 
L 1850 1140 
L 1850 783 
C 1850 344 1677 51 1408 51 
C 1222 51 966 178 966 758 
L 966 2560 
z
" transform="scale(0.015625)"/>
       <path id="CMMI12-1b" d="M 3251 2408 
C 3334 2408 3546 2408 3546 2612 
C 3546 2752 3424 2752 3309 2752 
L 1894 2752 
C 934 2752 243 1686 243 932 
C 243 390 595 -64 1171 -64 
C 1926 -64 2752 747 2752 1705 
C 2752 1954 2694 2196 2541 2408 
L 3251 2408 
z
M 1178 64 
C 851 64 614 313 614 754 
C 614 1137 845 2408 1786 2408 
C 2061 2408 2368 2274 2368 1781 
C 2368 1558 2266 1021 2042 652 
C 1811 275 1466 64 1178 64 
z
" transform="scale(0.015625)"/>
       <path id="CMR17-64" d="M 1869 4326 
L 1869 4160 
C 2246 4160 2304 4122 2304 3820 
L 2304 2345 
C 2278 2377 2016 2790 1498 2790 
C 845 2790 211 2208 211 1364 
C 211 525 806 -64 1434 -64 
C 1978 -64 2259 337 2291 380 
L 2291 -63 
L 3066 -63 
L 3066 128 
C 2688 128 2630 166 2630 473 
L 2630 4396 
L 1869 4326 
z
M 2291 755 
C 2291 563 2176 390 2029 262 
C 1811 70 1594 38 1472 38 
C 1286 38 621 134 621 1356 
C 621 2612 1363 2688 1530 2688 
C 1824 2688 2061 2522 2208 2291 
C 2291 2157 2291 2138 2291 2023 
L 2291 755 
z
" transform="scale(0.015625)"/>
       <path id="CMR17-2f" d="M 2605 4545 
C 2637 4627 2637 4640 2637 4653 
C 2637 4729 2579 4768 2528 4768 
C 2451 4768 2426 4717 2400 4640 
L 326 -1377 
C 294 -1460 294 -1473 294 -1486 
C 294 -1562 352 -1600 403 -1600 
C 480 -1600 506 -1549 531 -1473 
L 2605 4545 
z
" transform="scale(0.015625)"/>
      </defs>
      <use xlink:href="#CMR17-4c" transform="scale(0.996264)"/>
      <use xlink:href="#CMR17-69" transform="translate(57.381408 0) scale(0.996264)"/>
      <use xlink:href="#CMR17-6e" transform="translate(82.252466 0) scale(0.996264)"/>
      <use xlink:href="#CMR17-65" transform="translate(133.147836 0) scale(0.996264)"/>
      <use xlink:href="#CMR17-61" transform="translate(173.633497 0) scale(0.996264)"/>
      <use xlink:href="#CMR17-72" transform="translate(219.323974 0) scale(0.996264)"/>
      <use xlink:href="#CMR17-73" transform="translate(284.680708 0) scale(0.996264)"/>
      <use xlink:href="#CMR17-74" transform="translate(320.482045 0) scale(0.996264)"/>
      <use xlink:href="#CMR17-72" transform="translate(355.762813 0) scale(0.996264)"/>
      <use xlink:href="#CMR17-61" transform="translate(391.043581 0) scale(0.996264)"/>
      <use xlink:href="#CMR17-69" transform="translate(436.734058 0) scale(0.996264)"/>
      <use xlink:href="#CMR17-6e" transform="translate(461.605117 0) scale(0.996264)"/>
      <use xlink:href="#CMR17-73" transform="translate(512.500486 0) scale(0.996264)"/>
      <use xlink:href="#CMMI12-1b" transform="translate(578.37779 0) scale(0.996264)"/>
      <use xlink:href="#CMR17-5b" transform="translate(667.47381 0) scale(0.996264)"/>
      <use xlink:href="#CMR17-72" transform="translate(692.344869 0) scale(0.996264)"/>
      <use xlink:href="#CMR17-61" transform="translate(727.625637 0) scale(0.996264)"/>
      <use xlink:href="#CMR17-64" transform="translate(773.316114 0) scale(0.996264)"/>
      <use xlink:href="#CMR17-2f" transform="translate(824.211484 0) scale(0.996264)"/>
      <use xlink:href="#CMR17-6d" transform="translate(869.901961 0) scale(0.996264)"/>
      <use xlink:href="#CMR17-5d" transform="translate(946.821551 0) scale(0.996264)"/>
     </g>
    </g>
   </g>
   <g id="line2d_29">
    <path d="M 70.494489 123.421305 
L 108.413606 123.421305 
L 108.565283 148.017347 
L 184.25184 147.949815 
L 184.403517 125.345312 
L 222.170958 125.345312 
L 222.322634 83.274539 
L 260.090075 83.274539 
L 260.241751 125.370666 
L 298.009192 125.370666 
L 298.160868 105.290844 
L 335.928309 105.290844 
L 335.928309 105.290844 
" clip-path="url(#pe94f693b7d)" style="fill: none; stroke-dasharray: 3.5,5.775; stroke-dashoffset: 0; stroke: #1f77b4; stroke-width: 3.5"/>
   </g>
   <g id="line2d_30">
    <path d="M 70.494489 150.524937 
L 108.413606 150.524937 
L 108.565283 128.229529 
L 146.332723 128.229529 
L 146.4844 105.532912 
L 184.25184 105.532912 
L 184.403517 106.310909 
L 222.170958 106.310909 
L 222.322634 112.44988 
L 260.090075 112.44988 
L 260.241751 128.770624 
L 298.009192 128.770624 
L 298.160868 131.184614 
L 335.928309 131.184614 
L 335.928309 131.184614 
" clip-path="url(#pe94f693b7d)" style="fill: none; stroke-dasharray: 3.5,5.775; stroke-dashoffset: 0; stroke: #ff7f0e; stroke-width: 3.5"/>
   </g>
   <g id="line2d_31">
    <path d="M 70.494489 63.051334 
L 108.413606 63.051334 
L 108.565283 84.990398 
L 146.332723 84.990398 
L 146.4844 130.768829 
L 184.25184 130.768829 
L 184.403517 59.669748 
L 222.170958 59.669748 
L 222.322634 139.507653 
L 260.090075 139.507653 
L 260.241751 122.449544 
L 298.009192 122.449544 
L 298.160868 105.901901 
L 335.928309 105.901901 
L 335.928309 105.901901 
" clip-path="url(#pe94f693b7d)" style="fill: none; stroke-dasharray: 3.5,5.775; stroke-dashoffset: 0; stroke: #2ca02c; stroke-width: 3.5"/>
   </g>
   <g id="line2d_32">
    <path d="M 70.494489 183.378745 
L 108.413606 183.378745 
L 108.565283 63.775997 
L 146.332723 63.775997 
L 146.4844 144.250187 
L 184.25184 144.250187 
L 184.403517 76.480229 
L 222.170958 76.480229 
L 222.322634 119.04475 
L 260.090075 119.04475 
L 260.241751 87.51364 
L 298.009192 87.51364 
L 298.160868 134.467297 
L 335.928309 134.467297 
L 335.928309 134.467297 
" clip-path="url(#pe94f693b7d)" style="fill: none; stroke-dasharray: 3.5,5.775; stroke-dashoffset: 0; stroke: #d62728; stroke-width: 3.5"/>
   </g>
   <g id="line2d_33">
    <path d="M 70.494489 117.713334 
L 70.722004 126.766135 
L 70.949518 121.608774 
L 71.252871 117.756796 
L 71.556224 116.414734 
L 71.783739 116.068739 
L 72.011254 116.112741 
L 72.314607 116.512326 
L 74.968945 121.162322 
L 76.03068 122.324534 
L 77.926636 122.945022 
L 78.229989 123.019021 
L 78.836695 123.268123 
L 79.443401 123.244779 
L 79.974268 123.42817 
L 80.732651 123.419236 
L 81.18768 123.507114 
L 81.794386 123.452378 
L 82.325254 123.557737 
L 83.007798 123.516685 
L 83.462827 123.585257 
L 84.145371 123.540829 
L 84.676239 123.58353 
L 85.207106 123.53772 
L 85.813812 123.589672 
L 86.34468 123.549951 
L 86.951386 123.590905 
L 87.482254 123.559099 
L 88.088959 123.589201 
L 88.619827 123.56647 
L 89.150695 123.601677 
L 89.757401 123.572804 
L 90.288268 123.597058 
L 90.894974 123.578494 
L 91.425842 123.591751 
L 91.956709 123.568955 
L 92.563415 123.586085 
L 93.094283 123.574161 
L 93.700989 123.580319 
L 94.231856 123.579208 
L 94.762724 123.588318 
L 95.36943 123.584024 
L 95.900298 123.582266 
L 96.507003 123.588505 
L 97.037871 123.576359 
L 97.644577 123.592523 
L 98.251283 123.56019 
L 98.933827 123.60743 
L 104.39418 123.598649 
L 107.124356 123.554861 
L 108.413606 123.554843 
L 108.565283 95.51039 
L 108.641121 95.246712 
L 109.247827 126.989934 
L 109.627018 132.682173 
L 110.006209 135.235985 
L 110.3854 136.46357 
L 110.84043 137.232952 
L 111.598812 137.965123 
L 112.205518 138.274256 
L 113.343091 138.525228 
L 113.722283 138.458184 
L 114.25315 138.349924 
L 114.859856 138.461969 
L 115.466562 138.574804 
L 116.376621 138.557832 
L 116.907488 138.62952 
L 117.590033 138.602729 
L 118.196738 138.673866 
L 118.803444 138.654711 
L 119.41015 138.719609 
L 120.016856 138.707213 
L 120.623562 138.759275 
L 121.230268 138.75952 
L 121.836974 138.795434 
L 122.367841 138.794029 
L 122.974547 138.841813 
L 123.581253 138.846115 
L 124.187959 138.874426 
L 124.718827 138.881078 
L 125.325532 138.918061 
L 125.932238 138.933064 
L 126.463106 138.9608 
L 127.069812 138.968123 
L 127.676518 138.991396 
L 128.207385 139.003254 
L 128.814091 139.033203 
L 129.420797 139.054923 
L 129.951665 139.074643 
L 130.558371 139.089915 
L 131.089238 139.11576 
L 131.695944 139.124812 
L 132.30265 139.145214 
L 132.833518 139.159611 
L 133.440223 139.185901 
L 133.971091 139.194315 
L 134.577797 139.2264 
L 135.184503 139.24522 
L 135.715371 139.266706 
L 136.322076 139.279587 
L 136.928782 139.295394 
L 137.45965 139.313794 
L 138.066356 139.335344 
L 138.597223 139.347855 
L 139.203929 139.375164 
L 139.810635 139.398087 
L 140.341503 139.414839 
L 140.948209 139.431824 
L 141.479076 139.454351 
L 142.085782 139.465371 
L 142.692488 139.482201 
L 143.223356 139.498748 
L 143.830062 139.52141 
L 144.360929 139.531975 
L 144.967635 139.560499 
L 145.574341 139.581341 
L 146.105209 139.599449 
L 146.332723 139.571604 
L 146.408562 120.529571 
L 146.4844 121.891461 
L 146.560238 122.286078 
L 146.636076 122.178593 
L 146.787753 121.924963 
L 146.939429 122.26588 
L 147.697812 125.666813 
L 148.532032 129.177641 
L 149.366253 131.996854 
L 150.276312 134.205693 
L 150.883017 135.294121 
L 151.262209 135.660668 
L 151.868914 136.169311 
L 152.47562 136.819852 
L 153.385679 137.252602 
L 153.76487 137.465053 
L 154.371576 137.526131 
L 154.978282 137.82368 
L 155.584988 137.835972 
L 156.115856 138.047003 
L 156.7984 138.043369 
L 157.329267 138.184182 
L 157.935973 138.159931 
L 158.466841 138.286051 
L 159.073547 138.247326 
L 159.604414 138.361506 
L 160.21112 138.317184 
L 160.741988 138.421323 
L 161.348694 138.376554 
L 161.879561 138.471773 
L 162.486267 138.429685 
L 163.017135 138.516525 
L 163.623841 138.47913 
L 164.154708 138.557728 
L 164.761414 138.526408 
L 165.292282 138.596652 
L 165.898988 138.572417 
L 166.429855 138.634051 
L 167.036561 138.617677 
L 167.567429 138.670385 
L 168.098297 138.642158 
L 168.705002 138.705943 
L 169.23587 138.686434 
L 169.842576 138.74092 
L 170.373444 138.730598 
L 170.904311 138.789896 
L 171.511017 138.774687 
L 172.041885 138.824373 
L 172.648591 138.818694 
L 173.179458 138.858413 
L 173.710326 138.843263 
L 174.317032 138.892094 
L 174.847899 138.886837 
L 175.378767 138.939169 
L 175.985473 138.930417 
L 176.516341 138.972628 
L 177.123046 138.973935 
L 177.653914 139.005715 
L 178.184782 138.998661 
L 178.791488 139.038514 
L 179.322355 139.0418 
L 179.853223 139.084393 
L 180.459929 139.084907 
L 180.990796 139.116962 
L 181.521664 139.109859 
L 182.12837 139.149231 
L 182.659238 139.152553 
L 183.190105 139.194096 
L 183.796811 139.195229 
L 184.25184 139.237465 
L 184.403517 95.892567 
L 184.479355 94.672806 
L 185.161899 121.901851 
L 185.465252 124.608564 
L 185.768605 125.555015 
L 185.99612 125.701178 
L 186.299473 125.508406 
L 186.906179 124.709797 
L 187.512885 124.012871 
L 188.802135 122.678728 
L 190.470576 121.363761 
L 191.304796 121.226902 
L 191.98734 120.955158 
L 192.897399 120.856148 
L 193.352429 120.783605 
L 194.034973 120.775654 
L 194.56584 120.700388 
L 195.248384 120.714746 
L 195.779252 120.66676 
L 196.385958 120.702108 
L 196.992664 120.66128 
L 197.59937 120.687601 
L 198.130237 120.65554 
L 198.736943 120.699214 
L 199.343649 120.674909 
L 199.950355 120.700575 
L 200.481223 120.683259 
L 201.087928 120.72027 
L 201.694634 120.711438 
L 202.225502 120.74125 
L 202.832208 120.724619 
L 203.438914 120.748762 
L 203.969781 120.739029 
L 204.576487 120.771213 
L 205.107355 120.754227 
L 205.714061 120.793749 
L 206.320767 120.78611 
L 206.851634 120.816233 
L 207.45834 120.80164 
L 208.065046 120.824704 
L 208.595914 120.817335 
L 209.20262 120.847304 
L 209.733487 120.833152 
L 210.340193 120.869792 
L 210.946899 120.86533 
L 211.477767 120.892134 
L 212.084472 120.880902 
L 212.61534 120.914304 
L 213.222046 120.896461 
L 213.828752 120.92261 
L 214.359619 120.912023 
L 214.966325 120.944826 
L 215.497193 120.927607 
L 216.103899 120.966918 
L 216.710605 120.95929 
L 217.241472 120.988861 
L 217.848178 120.974492 
L 218.454884 120.996713 
L 218.985752 120.989661 
L 219.592458 121.018669 
L 220.123325 121.004828 
L 220.730031 121.040522 
L 221.336737 121.03629 
L 221.867605 121.062244 
L 222.170958 121.016971 
L 222.322634 106.332885 
L 222.398472 105.241457 
L 222.853502 111.22395 
L 222.92934 111.217275 
L 223.156855 110.784647 
L 223.460208 109.513766 
L 225.735355 97.87385 
L 226.645413 95.020037 
L 227.176281 93.729114 
L 227.63131 93.081795 
L 228.238016 92.485732 
L 228.996399 91.550681 
L 229.678943 91.229313 
L 230.20981 90.809689 
L 231.119869 90.508046 
L 231.49906 90.377384 
L 232.105766 90.311854 
L 232.636634 90.13126 
L 233.319178 90.088736 
L 233.850046 89.983819 
L 234.456752 89.964907 
L 234.987619 89.884164 
L 235.594325 89.87803 
L 236.125193 89.815773 
L 236.731899 89.813304 
L 237.262766 89.765967 
L 237.869472 89.761828 
L 238.40034 89.727263 
L 238.931207 89.735739 
L 239.537913 89.6952 
L 240.068781 89.696378 
L 240.675487 89.667091 
L 241.206354 89.659995 
L 241.81306 89.64129 
L 242.343928 89.625484 
L 242.950634 89.61677 
L 243.481501 89.592241 
L 244.088207 89.592866 
L 244.619075 89.559963 
L 245.225781 89.569133 
L 245.832487 89.51727 
L 247.197575 89.487269 
L 248.031795 89.468103 
L 249.396884 89.435929 
L 250.306943 89.411263 
L 252.961281 89.386051 
L 254.250531 89.366465 
L 257.359898 89.284287 
L 258.724987 89.261352 
L 260.090075 89.204714 
L 260.241751 137.463962 
L 260.317589 138.482011 
L 260.924295 117.469275 
L 261.227648 115.541854 
L 261.455163 115.276318 
L 261.606839 115.419884 
L 261.910192 116.14203 
L 263.881986 121.777242 
L 264.716207 123.308932 
L 266.005457 125.152259 
L 266.460486 125.391757 
L 267.143031 125.789723 
L 267.673898 126.121402 
L 268.659795 126.407275 
L 269.038986 126.500209 
L 269.645692 126.541126 
L 270.252398 126.69166 
L 270.859104 126.696009 
L 271.46581 126.792074 
L 272.072516 126.788306 
L 272.603383 126.85467 
L 273.210089 126.825369 
L 273.816795 126.874983 
L 274.347663 126.8449 
L 274.954369 126.892951 
L 275.561075 126.869514 
L 276.091942 126.901056 
L 276.698648 126.871224 
L 277.305354 126.887885 
L 277.836222 126.869571 
L 278.442927 126.886833 
L 278.973795 126.865986 
L 279.580501 126.883621 
L 280.111369 126.861311 
L 280.718074 126.879082 
L 281.248942 126.85604 
L 281.855648 126.873719 
L 282.386516 126.850462 
L 282.993221 126.867838 
L 283.524089 126.84474 
L 284.130795 126.861628 
L 284.661663 126.83897 
L 285.268369 126.855207 
L 285.799236 126.833202 
L 286.405942 126.848649 
L 286.93681 126.827465 
L 287.543516 126.842001 
L 288.074383 126.821772 
L 288.681089 126.835295 
L 289.211957 126.81613 
L 289.818663 126.828552 
L 290.34953 126.810539 
L 290.956236 126.821787 
L 291.487104 126.804999 
L 292.09381 126.815011 
L 292.624677 126.799508 
L 293.231383 126.808231 
L 293.762251 126.794063 
L 294.368957 126.801454 
L 294.899824 126.788662 
L 295.50653 126.794684 
L 296.037398 126.783302 
L 296.644104 126.787926 
L 297.174971 126.77798 
L 297.781677 126.781183 
L 298.009192 126.7473 
L 298.160868 97.458552 
L 298.236707 96.948182 
L 298.691736 115.415108 
L 298.995089 118.034634 
L 299.222604 118.573057 
L 299.37428 118.483504 
L 299.601795 117.975314 
L 300.132662 116.004617 
L 301.118559 112.464954 
L 302.028618 109.997728 
L 302.938677 108.275089 
L 303.848736 106.818346 
L 304.303765 106.50235 
L 304.986309 106.066568 
L 305.593015 105.648328 
L 306.578912 105.305844 
L 307.033942 105.216268 
L 307.564809 105.129084 
L 308.095677 104.990502 
L 308.778221 104.945593 
L 309.309089 104.869485 
L 309.915795 104.855224 
L 310.446662 104.796751 
L 311.053368 104.801115 
L 311.660074 104.768198 
L 312.190942 104.768705 
L 312.797648 104.746329 
L 313.328515 104.749205 
L 313.935221 104.735473 
L 314.541927 104.723798 
L 315.072795 104.731181 
L 315.6795 104.717318 
L 316.286206 104.742081 
L 316.892912 104.703737 
L 318.258 104.703856 
L 319.092221 104.70995 
L 319.774765 104.753126 
L 335.928309 104.739047 
L 335.928309 104.739047 
" clip-path="url(#pe94f693b7d)" style="fill: none; stroke: #1f77b4; stroke-width: 2; stroke-linecap: square"/>
   </g>
   <g id="line2d_34">
    <path d="M 70.494489 117.713334 
L 70.646166 171.356318 
L 70.949518 131.499244 
L 71.32871 141.696183 
L 71.935416 144.627556 
L 72.390445 145.657134 
L 72.693798 146.175741 
L 72.769636 146.130991 
L 72.997151 145.844054 
L 73.528018 146.337235 
L 74.210563 146.504576 
L 75.044783 146.575804 
L 75.272298 146.855607 
L 75.879004 146.644724 
L 76.03068 146.596263 
L 76.334033 146.271226 
L 76.864901 146.563555 
L 77.092415 146.797579 
L 77.395768 146.708813 
L 77.850798 146.273071 
L 78.078312 146.430521 
L 78.457504 146.81683 
L 78.685018 146.655483 
L 79.06421 146.285646 
L 79.291724 146.456643 
L 79.670915 146.797488 
L 79.89843 146.618799 
L 80.201783 146.315068 
L 80.429298 146.431852 
L 80.808489 146.783278 
L 81.036004 146.648453 
L 81.415195 146.346664 
L 81.642709 146.505069 
L 81.946062 146.76706 
L 82.173577 146.659882 
L 82.552768 146.369257 
L 82.780283 146.506887 
L 83.159474 146.750188 
L 83.462827 146.511121 
L 83.690342 146.389678 
L 83.917857 146.517209 
L 84.297048 146.742823 
L 84.600401 146.517017 
L 84.827915 146.407855 
L 85.05543 146.532617 
L 85.358783 146.743001 
L 85.586298 146.651812 
L 85.965489 146.424658 
L 86.268842 146.61895 
L 86.572195 146.729487 
L 87.254739 146.512203 
L 87.63393 146.737741 
L 87.937283 146.570746 
L 88.240636 146.457724 
L 88.92318 146.674625 
L 89.378209 146.475302 
L 90.060753 146.662628 
L 90.439945 146.47549 
L 90.743298 146.638804 
L 91.046651 146.725698 
L 91.729195 146.555547 
L 92.108386 146.735567 
L 92.487577 146.537752 
L 92.715092 146.506245 
L 93.397636 146.671306 
L 93.776827 146.506951 
L 94.156018 146.699393 
L 94.459371 146.699802 
L 94.9144 146.520825 
L 95.672783 146.644306 
L 96.051974 146.5371 
L 96.65868 146.712527 
L 97.189548 146.555637 
L 97.720415 146.730848 
L 98.327121 146.576185 
L 98.857989 146.723291 
L 99.388856 146.568099 
L 99.995562 146.713747 
L 100.450592 146.565475 
L 101.133136 146.702656 
L 101.588165 146.581367 
L 102.194871 146.724279 
L 102.725739 146.599716 
L 103.256606 146.741661 
L 103.863312 146.620086 
L 104.318342 146.754597 
L 105.000886 146.641944 
L 105.455915 146.75002 
L 106.062621 146.632154 
L 106.593489 146.743018 
L 107.124356 146.625744 
L 107.731062 146.734103 
L 108.186091 146.622976 
L 108.413606 146.709822 
L 108.489444 28.219183 
L 108.565283 43.40941 
L 108.792797 147.992061 
L 108.868636 151.464128 
L 109.323665 130.762436 
L 109.854533 127.384767 
L 110.309562 126.156015 
L 110.688753 125.959629 
L 111.143783 125.915601 
L 111.219621 125.93212 
L 111.522974 126.486527 
L 112.12968 126.144193 
L 112.357194 126.11915 
L 112.584709 126.221776 
L 113.343091 125.789101 
L 113.570606 125.419103 
L 113.798121 125.013001 
L 114.101474 125.337463 
L 114.404827 125.6086 
L 114.632341 125.747416 
L 114.859856 126.073959 
L 115.466562 125.67579 
L 115.694077 125.366731 
L 115.99743 125.46958 
L 116.224944 125.793672 
L 116.452459 126.026802 
L 116.679974 125.894703 
L 117.210841 125.397675 
L 117.438356 125.678644 
L 117.741709 126.020327 
L 117.969224 125.83279 
L 118.348415 125.376024 
L 118.57593 125.558814 
L 118.955121 126.001635 
L 119.182635 125.820549 
L 119.561827 125.403086 
L 119.789341 125.59044 
L 120.168532 125.983348 
L 120.396047 125.78773 
L 120.6994 125.42464 
L 120.926915 125.543146 
L 121.381944 125.964003 
L 121.609459 125.739819 
L 121.912812 125.436113 
L 122.140327 125.597082 
L 122.519518 125.970113 
L 122.747032 125.787295 
L 123.050385 125.450288 
L 123.2779 125.568305 
L 123.657091 125.969867 
L 123.884606 125.823709 
L 124.263797 125.457748 
L 124.491312 125.633937 
L 124.794665 125.96594 
L 125.022179 125.852966 
L 125.401371 125.463617 
L 125.628885 125.610956 
L 126.008077 125.968395 
L 126.235591 125.791185 
L 126.538944 125.47207 
L 126.766459 125.592251 
L 127.14565 125.97182 
L 127.373165 125.818623 
L 127.752356 125.47878 
L 127.979871 125.665273 
L 128.283224 125.973072 
L 128.510738 125.843274 
L 128.889929 125.480913 
L 129.117444 125.646535 
L 129.496635 125.970896 
L 129.72415 125.774893 
L 130.027503 125.484976 
L 130.255018 125.62971 
L 130.634209 125.977699 
L 130.861724 125.800394 
L 131.165076 125.490871 
L 131.392591 125.614505 
L 131.771782 125.982715 
L 131.999297 125.824521 
L 132.378488 125.498261 
L 132.606003 125.690674 
L 132.909356 125.98597 
L 133.136871 125.847398 
L 133.516062 125.498921 
L 133.743576 125.673595 
L 134.046929 125.987452 
L 134.274444 125.869099 
L 134.653635 125.501251 
L 134.88115 125.657479 
L 135.260341 125.989234 
L 135.487856 125.80089 
L 135.791209 125.505294 
L 136.018723 125.642329 
L 136.397915 125.995759 
L 136.625429 125.824863 
L 136.928782 125.511105 
L 137.156297 125.628163 
L 137.535488 126.000612 
L 137.763003 125.848028 
L 138.142194 125.516082 
L 138.369709 125.703726 
L 138.673062 126.003721 
L 138.900576 125.870323 
L 139.279768 125.516906 
L 139.507282 125.687054 
L 139.810635 126.005012 
L 140.03815 125.891689 
L 140.417341 125.519418 
L 140.644856 125.671125 
L 141.024047 126.008613 
L 141.251562 125.824284 
L 141.554915 125.523703 
L 141.782429 125.65603 
L 142.16162 126.014858 
L 142.389135 125.848245 
L 142.692488 125.529844 
L 142.920003 125.641846 
L 143.299194 126.019359 
L 143.526709 125.871457 
L 143.9059 125.532973 
L 144.133415 125.716317 
L 144.436767 126.02202 
L 144.664282 125.893815 
L 145.043473 125.534129 
L 145.270988 125.699438 
L 145.650179 126.020872 
L 145.877694 125.824256 
L 146.181047 125.537072 
L 146.332723 125.605437 
L 146.4844 115.598447 
L 146.711914 102.224444 
L 147.242782 106.505774 
L 147.925326 107.43293 
L 148.152841 107.288546 
L 148.759547 107.708122 
L 149.442091 107.779309 
L 150.048797 107.831835 
L 150.276312 108.056818 
L 150.807179 107.856783 
L 150.958856 107.853715 
L 151.338047 107.49828 
L 151.868914 107.8621 
L 152.096429 108.01513 
L 152.399782 107.860298 
L 152.778973 107.448803 
L 153.006488 107.595342 
L 153.385679 108.032953 
L 153.613194 107.881852 
L 153.992385 107.452492 
L 154.2199 107.606136 
L 154.599091 108.005545 
L 154.826606 107.843011 
L 155.205797 107.477541 
L 155.433311 107.649464 
L 155.736664 107.974101 
L 155.964179 107.869323 
L 156.419208 107.508238 
L 156.722561 107.805345 
L 156.950076 107.952449 
L 157.177591 107.802756 
L 157.556782 107.514723 
L 157.784297 107.685907 
L 158.08765 107.934017 
L 158.315164 107.808341 
L 158.694356 107.522348 
L 158.92187 107.675174 
L 159.225223 107.918027 
L 159.452738 107.806116 
L 159.831929 107.529116 
L 160.059444 107.671631 
L 160.362797 107.904773 
L 160.590311 107.7991 
L 160.969503 107.5347 
L 161.197017 107.672707 
L 161.50037 107.893686 
L 161.727885 107.788933 
L 162.107076 107.539375 
L 162.410429 107.75108 
L 162.637944 107.884036 
L 162.865458 107.776526 
L 163.24465 107.543568 
L 163.548003 107.755138 
L 163.775517 107.875155 
L 164.003032 107.762417 
L 164.382223 107.5477 
L 164.685576 107.760854 
L 164.913091 107.866488 
L 165.140605 107.746952 
L 165.519797 107.552135 
L 166.202341 107.790854 
L 166.65737 107.557167 
L 167.339914 107.774305 
L 167.719105 107.546404 
L 168.022458 107.721854 
L 168.325811 107.837791 
L 169.008355 107.612443 
L 169.463385 107.826421 
L 170.145929 107.623874 
L 170.52512 107.832396 
L 170.828473 107.657939 
L 171.131826 107.555386 
L 171.81437 107.756517 
L 172.193561 107.54569 
L 172.496914 107.708621 
L 172.800267 107.814315 
L 173.482811 107.608829 
L 173.937841 107.802944 
L 174.544546 107.576669 
L 175.075414 107.789966 
L 175.68212 107.58666 
L 176.137149 107.80121 
L 176.895532 107.648908 
L 177.198885 107.801566 
L 177.502238 107.65669 
L 177.805591 107.544556 
L 178.563973 107.691655 
L 178.943164 107.548517 
L 179.625708 107.722964 
L 180.004899 107.538018 
L 180.308252 107.692403 
L 180.611605 107.777955 
L 181.294149 107.602342 
L 181.67334 107.78239 
L 181.976693 107.628996 
L 182.280046 107.543126 
L 182.96259 107.711932 
L 183.341782 107.532956 
L 183.645135 107.682756 
L 183.948488 107.764981 
L 184.25184 107.590063 
L 184.327679 22.80535 
L 184.403517 30.05211 
L 184.631032 127.225101 
L 184.70687 131.383245 
L 185.237738 111.681494 
L 185.768605 108.559786 
L 186.223635 107.438042 
L 186.678664 107.2262 
L 187.057855 107.254723 
L 187.28537 107.743724 
L 188.347105 107.361655 
L 188.57462 107.382337 
L 189.333002 106.872368 
L 189.560517 106.247491 
L 189.712193 106.340901 
L 190.318899 106.908215 
L 190.470576 107.107038 
L 190.69809 107.379574 
L 191.532311 106.616938 
L 191.911502 106.849848 
L 192.290693 107.228102 
L 192.594046 106.981345 
L 192.897399 106.622087 
L 193.124914 106.753346 
L 193.579943 107.225906 
L 193.807458 107.014718 
L 194.110811 106.630791 
L 194.338326 106.754474 
L 194.793355 107.211825 
L 195.02087 106.991274 
L 195.324223 106.642132 
L 195.551737 106.784299 
L 195.930929 107.209143 
L 196.158443 107.051438 
L 196.537634 106.654147 
L 196.765149 106.828658 
L 197.14434 107.193 
L 197.371855 106.999072 
L 197.675208 106.663265 
L 197.902723 106.788617 
L 198.281914 107.188556 
L 198.509429 107.037034 
L 198.88862 106.668975 
L 199.116134 106.845491 
L 199.419487 107.178509 
L 199.647002 107.065489 
L 200.026193 106.671301 
L 200.253708 106.814346 
L 200.632899 107.175564 
L 200.860414 107.002762 
L 201.163767 106.67706 
L 201.391281 106.788896 
L 201.770473 107.173062 
L 201.997987 107.027812 
L 202.377178 106.677194 
L 202.604693 106.852893 
L 202.908046 107.167922 
L 203.135561 107.049173 
L 203.514752 106.676173 
L 203.742267 106.828252 
L 204.121458 107.164258 
L 204.348973 106.980252 
L 204.652325 106.677421 
L 204.87984 106.806155 
L 205.259031 107.165117 
L 205.486546 107.002081 
L 205.865737 106.682314 
L 206.093252 106.875948 
L 206.396605 107.163919 
L 206.62412 107.022077 
L 207.003311 106.678171 
L 207.230825 106.852752 
L 207.534178 107.160738 
L 207.761693 107.040464 
L 208.140884 106.675931 
L 208.368399 106.830917 
L 208.74759 107.15693 
L 208.975105 106.96913 
L 209.278458 106.675588 
L 209.505972 106.810363 
L 209.885164 107.158929 
L 210.112678 106.989481 
L 210.416031 106.677165 
L 210.643546 106.791044 
L 211.022737 107.15911 
L 211.250252 107.008805 
L 211.629443 106.67705 
L 211.856958 106.859853 
L 212.160311 107.15742 
L 212.387825 107.027079 
L 212.767017 106.673581 
L 212.994531 106.838171 
L 213.297884 107.1538 
L 213.525399 107.044274 
L 213.90459 106.671927 
L 214.132105 106.817389 
L 214.511296 107.153682 
L 214.738811 106.97428 
L 215.042164 106.67217 
L 215.269678 106.79758 
L 215.648869 107.155076 
L 215.876384 106.994048 
L 216.255575 106.675641 
L 216.48309 106.86827 
L 216.786443 107.154618 
L 217.013958 107.012954 
L 217.393149 106.671049 
L 217.620664 106.846043 
L 217.924016 107.152217 
L 218.151531 107.030904 
L 218.530722 106.668261 
L 218.758237 106.824572 
L 219.137428 107.148422 
L 219.364943 106.959153 
L 219.668296 106.667378 
L 219.895811 106.80398 
L 220.275002 107.150895 
L 220.502516 106.979637 
L 220.805869 106.668495 
L 221.033384 106.784369 
L 221.412575 107.151508 
L 221.64009 106.999337 
L 222.019281 106.668747 
L 222.170958 106.765826 
L 222.246796 74.339313 
L 222.322634 82.060967 
L 222.550149 130.089423 
L 222.625987 129.832019 
L 222.92934 118.055638 
L 223.232693 115.906912 
L 223.687722 113.71074 
L 224.066913 112.959927 
L 224.294428 112.917047 
L 224.446105 113.023468 
L 225.204487 112.261007 
L 225.811193 112.131113 
L 226.34206 112.062794 
L 226.645413 111.504016 
L 226.721252 111.561191 
L 227.100443 111.864533 
L 227.327958 111.967848 
L 227.782987 112.542647 
L 228.313855 111.881427 
L 228.541369 111.690504 
L 228.92056 112.119941 
L 229.223913 112.46626 
L 229.527266 112.15896 
L 229.830619 111.783741 
L 230.058134 111.937371 
L 230.513163 112.377428 
L 230.816516 112.088389 
L 231.119869 111.858358 
L 231.423222 112.131818 
L 231.650737 112.337374 
L 231.878252 112.229198 
L 232.333281 111.902557 
L 232.636634 112.179438 
L 232.864149 112.311467 
L 233.091663 112.169537 
L 233.470855 111.91641 
L 233.774207 112.161574 
L 234.001722 112.295357 
L 234.229237 112.170625 
L 234.608428 111.930364 
L 234.911781 112.15902 
L 235.139296 112.282765 
L 235.36681 112.163028 
L 235.746002 111.943404 
L 236.049354 112.164194 
L 236.276869 112.272301 
L 236.580222 112.081676 
L 236.883575 111.956087 
L 237.566119 112.195672 
L 238.021149 111.969095 
L 238.703693 112.179016 
L 239.082884 111.964754 
L 239.386237 112.138572 
L 239.68959 112.241789 
L 240.372134 112.040837 
L 240.751325 112.245407 
L 241.054678 112.084773 
L 241.358031 111.985123 
L 242.040575 112.175573 
L 242.419766 111.982853 
L 242.723119 112.135194 
L 243.026472 112.228597 
L 243.709016 112.051247 
L 244.088207 112.232117 
L 244.39156 112.085514 
L 244.694913 112.000964 
L 245.377457 112.165518 
L 245.756648 111.997638 
L 246.13584 112.185094 
L 246.439193 112.187957 
L 246.894222 112.005666 
L 247.652604 112.126939 
L 248.031795 112.016443 
L 248.638501 112.189888 
L 249.169369 112.029767 
L 249.700237 112.203244 
L 250.306943 112.045327 
L 250.83781 112.190344 
L 251.368678 112.032286 
L 251.975384 112.175294 
L 252.430413 112.024497 
L 253.112957 112.158583 
L 253.567987 112.035453 
L 254.174692 112.175734 
L 254.70556 112.049025 
L 255.236428 112.188826 
L 255.843134 112.064738 
L 256.298163 112.197587 
L 256.980707 112.082016 
L 257.435737 112.187417 
L 258.042442 112.06682 
L 258.497472 112.195372 
L 259.180016 112.083489 
L 259.635045 112.185789 
L 260.090075 112.036757 
L 260.165913 202.401858 
L 260.241751 193.646605 
L 260.469266 105.156232 
L 260.545104 102.926571 
L 260.924295 122.091607 
L 261.379325 125.521741 
L 261.758516 127.158562 
L 262.061869 127.696028 
L 262.516898 128.006718 
L 262.744413 128.067858 
L 263.047766 127.57247 
L 263.123604 127.631351 
L 263.502795 127.922795 
L 263.881986 128.007572 
L 264.109501 127.910829 
L 264.943722 128.379998 
L 265.095398 128.611654 
L 265.322913 129.007639 
L 265.626266 128.67848 
L 265.929619 128.442352 
L 266.157133 128.306103 
L 266.384648 128.010657 
L 266.991354 128.414471 
L 267.218869 128.689058 
L 267.522222 128.569737 
L 268.053089 128.086531 
L 268.280604 128.321386 
L 268.583957 128.700547 
L 268.811472 128.553714 
L 269.266501 128.080277 
L 269.494016 128.304559 
L 269.797369 128.675662 
L 270.024883 128.53812 
L 270.479913 128.108123 
L 270.707428 128.336693 
L 271.01078 128.653348 
L 271.238295 128.496852 
L 271.617486 128.113889 
L 271.845001 128.287226 
L 272.224192 128.630978 
L 272.451707 128.438946 
L 272.75506 128.128738 
L 272.982575 128.259436 
L 273.361766 128.623811 
L 273.58928 128.46572 
L 273.968472 128.144228 
L 274.195986 128.329878 
L 274.499339 128.615242 
L 274.726854 128.482372 
L 275.106045 128.149424 
L 275.33356 128.31501 
L 275.636913 128.607347 
L 275.864427 128.492924 
L 276.243619 128.154827 
L 276.471133 128.305652 
L 276.850325 128.598673 
L 277.077839 128.415395 
L 277.381192 128.1598 
L 277.608707 128.299911 
L 277.987898 128.596845 
L 278.215413 128.422121 
L 278.518766 128.164145 
L 278.74628 128.296637 
L 279.125472 128.595109 
L 279.352986 128.426477 
L 279.656339 128.167847 
L 279.883854 128.295107 
L 280.263045 128.593569 
L 280.49056 128.429103 
L 280.793913 128.170966 
L 281.021427 128.294852 
L 281.400619 128.592246 
L 281.628133 128.430433 
L 281.931486 128.173584 
L 282.159001 128.295557 
L 282.538192 128.591128 
L 282.765707 128.430766 
L 283.06906 128.175786 
L 283.296574 128.297004 
L 283.675766 128.590185 
L 283.90328 128.430315 
L 284.206633 128.177651 
L 284.434148 128.299039 
L 284.813339 128.589384 
L 285.040854 128.429238 
L 285.344207 128.179249 
L 285.571721 128.301548 
L 285.950913 128.58869 
L 286.178427 128.427652 
L 286.48178 128.180641 
L 286.709295 128.304447 
L 287.088486 128.588073 
L 287.316001 128.425649 
L 287.619354 128.181879 
L 287.846868 128.307671 
L 288.22606 128.587503 
L 288.453574 128.423299 
L 288.756927 128.183007 
L 288.984442 128.311168 
L 289.363633 128.586958 
L 289.591148 128.42066 
L 289.894501 128.184061 
L 290.122016 128.314897 
L 290.501207 128.586416 
L 290.728721 128.417779 
L 291.032074 128.185072 
L 291.259589 128.318825 
L 291.63878 128.585861 
L 291.866295 128.414695 
L 292.169648 128.186065 
L 292.397163 128.322924 
L 292.776354 128.585278 
L 293.003868 128.411439 
L 293.307221 128.18706 
L 293.534736 128.327171 
L 293.838089 128.589054 
L 294.065604 128.48777 
L 294.444795 128.188076 
L 294.67231 128.331544 
L 294.975662 128.589954 
L 295.203177 128.484808 
L 295.582368 128.189125 
L 295.809883 128.336027 
L 296.113236 128.590829 
L 296.340751 128.481744 
L 296.719942 128.190218 
L 296.947457 128.340605 
L 297.25081 128.591665 
L 297.478324 128.478591 
L 297.857515 128.191364 
L 298.009192 128.270724 
L 298.08503 46.387074 
L 298.160868 64.435852 
L 298.388383 154.727956 
L 298.464221 154.828804 
L 298.767574 135.096248 
L 298.995089 132.852994 
L 299.525957 129.665353 
L 299.980986 128.544948 
L 300.511854 128.218186 
L 300.66353 128.18237 
L 300.966883 128.656449 
L 301.042721 128.591803 
L 301.421912 128.312552 
L 301.95278 128.242628 
L 302.180295 128.282751 
L 303.014515 127.712521 
L 303.24203 127.264231 
L 304.076251 128.005287 
L 304.303765 128.312256 
L 305.289662 127.685412 
L 305.593015 127.951235 
L 305.82053 128.188209 
L 306.048045 128.096472 
L 306.578912 127.667286 
L 306.806427 127.892991 
L 307.10978 128.181483 
L 307.337295 128.024928 
L 307.716486 127.664647 
L 307.944001 127.836548 
L 308.323192 128.1602 
L 308.550706 127.972533 
L 308.854059 127.687516 
L 309.081574 127.820531 
L 309.460765 128.151453 
L 309.68828 127.992917 
L 309.991633 127.711196 
L 310.219148 127.821203 
L 310.598339 128.141906 
L 310.825853 127.999923 
L 311.205045 127.734771 
L 311.508398 127.994994 
L 311.735912 128.134311 
L 311.963427 127.999527 
L 312.342618 127.750929 
L 312.645971 128.001361 
L 312.873486 128.128579 
L 313.101 127.994576 
L 313.404353 127.759513 
L 313.631868 127.860683 
L 314.011059 128.123945 
L 314.238574 127.986572 
L 314.541927 127.771163 
L 314.769442 127.879672 
L 315.148633 128.119609 
L 315.451986 127.903435 
L 315.6795 127.782422 
L 315.907015 127.900382 
L 316.286206 128.114903 
L 316.589559 127.89476 
L 316.817074 127.794062 
L 317.120427 127.992288 
L 317.42378 128.109312 
L 318.106324 127.882261 
L 318.485515 128.119464 
L 318.788868 127.938804 
L 319.092221 127.820606 
L 319.774765 128.049394 
L 320.153956 127.820946 
L 320.457309 127.993221 
L 320.760662 128.113896 
L 321.443206 127.896699 
L 321.898236 128.108199 
L 322.504942 127.872801 
L 323.035809 128.100422 
L 323.642515 127.893846 
L 324.097544 128.118345 
L 324.780089 127.916571 
L 325.235118 128.112959 
L 325.841824 127.894997 
L 326.372691 128.105101 
L 326.903559 127.881522 
L 327.510265 128.094904 
L 328.041133 127.898961 
L 328.572 128.11718 
L 329.178706 127.918798 
L 329.709574 128.108658 
L 330.240441 127.904918 
L 330.847147 128.097691 
L 331.302177 127.898478 
L 332.060559 128.036416 
L 332.363912 127.899756 
L 332.667265 128.04164 
L 332.970618 128.13671 
L 333.653162 127.966722 
L 334.108191 128.131407 
L 334.714897 127.948552 
L 335.245765 128.123132 
L 335.776633 127.936021 
L 335.928309 128.016569 
L 335.928309 128.016569 
" clip-path="url(#pe94f693b7d)" style="fill: none; stroke: #ff7f0e; stroke-width: 2; stroke-linecap: square"/>
   </g>
   <g id="line2d_35">
    <path d="M 70.494489 117.713334 
L 70.797842 76.914974 
L 71.025357 69.458778 
L 71.252871 67.692892 
L 71.480386 67.350699 
L 71.859577 67.413427 
L 72.61796 67.523829 
L 73.90721 67.431003 
L 77.547445 66.882979 
L 78.457504 66.762579 
L 82.325254 66.340496 
L 84.069533 66.16528 
L 85.813812 65.997688 
L 88.392312 65.769137 
L 91.425842 65.513582 
L 95.066077 65.245493 
L 99.009665 64.976869 
L 103.10493 64.739324 
L 108.034415 64.498259 
L 108.413606 64.479963 
L 108.489444 109.927475 
L 108.565283 97.893278 
L 108.792797 79.024947 
L 108.868636 79.156656 
L 109.399503 85.809518 
L 109.702856 87.259071 
L 110.006209 87.760872 
L 110.3854 87.914419 
L 111.67465 88.049294 
L 113.570606 87.698102 
L 114.025636 87.559812 
L 115.618238 87.512114 
L 116.149106 87.456963 
L 116.755812 87.481992 
L 117.514194 87.372449 
L 118.045062 87.371591 
L 118.651768 87.267534 
L 119.258474 87.278679 
L 119.86518 87.184572 
L 120.471885 87.186126 
L 121.078591 87.107375 
L 121.685297 87.094766 
L 122.216165 87.024522 
L 122.822871 87.026192 
L 123.429577 86.955656 
L 124.036282 86.938831 
L 124.56715 86.880084 
L 125.173856 86.874147 
L 125.780562 86.818363 
L 126.311429 86.811164 
L 126.918135 86.748549 
L 127.524841 86.730835 
L 128.055709 86.681559 
L 128.662415 86.67248 
L 129.193282 86.617211 
L 129.799988 86.616058 
L 130.406694 86.566058 
L 130.937562 86.56153 
L 131.544268 86.506012 
L 132.075135 86.508842 
L 132.681841 86.448163 
L 133.288547 86.440059 
L 133.819415 86.392436 
L 134.426121 86.391675 
L 135.032826 86.350278 
L 135.563694 86.345024 
L 136.1704 86.29814 
L 136.701268 86.300025 
L 137.307973 86.247828 
L 137.914679 86.238799 
L 138.445547 86.199299 
L 139.052253 86.197558 
L 139.58312 86.152514 
L 140.189826 86.157846 
L 140.796532 86.119392 
L 141.3274 86.119581 
L 141.934106 86.075484 
L 142.464973 86.082682 
L 143.071679 86.033094 
L 143.678385 86.029895 
L 144.209253 85.992198 
L 144.815959 85.996209 
L 145.346826 85.952776 
L 145.953532 85.963781 
L 146.332723 85.903419 
L 146.4844 123.12516 
L 146.711914 127.165457 
L 146.939429 128.42261 
L 147.242782 128.873819 
L 147.697812 129.026641 
L 149.214576 129.152937 
L 182.735076 130.209879 
L 184.25184 130.237425 
L 184.479355 73.578391 
L 184.70687 59.433868 
L 184.782708 59.537745 
L 185.465252 64.050969 
L 185.768605 64.639857 
L 186.071958 64.822507 
L 186.906179 64.861238 
L 188.498782 64.683838 
L 189.40884 64.419185 
L 189.788032 64.264064 
L 192.821561 63.911072 
L 193.27659 63.855067 
L 193.807458 63.837208 
L 194.56584 63.703487 
L 195.096708 63.651709 
L 195.703414 63.54635 
L 196.234281 63.518393 
L 196.916826 63.405842 
L 197.447693 63.364685 
L 198.054399 63.264663 
L 198.661105 63.214975 
L 199.191973 63.130109 
L 199.798678 63.093713 
L 200.405384 63.007581 
L 200.936252 62.975946 
L 201.542958 62.883349 
L 202.149664 62.839881 
L 202.680531 62.764037 
L 203.287237 62.730585 
L 203.893943 62.656402 
L 204.424811 62.624944 
L 205.031517 62.545603 
L 205.638223 62.501444 
L 206.16909 62.438898 
L 206.775796 62.403707 
L 207.382502 62.344393 
L 207.91337 62.309433 
L 208.520075 62.245161 
L 209.050943 62.218493 
L 209.657649 62.149454 
L 210.188517 62.130756 
L 210.795222 62.057163 
L 211.401928 62.026226 
L 211.932796 61.968184 
L 212.539502 61.945319 
L 213.146208 61.891527 
L 213.677075 61.867341 
L 214.283781 61.808578 
L 214.814649 61.79216 
L 215.421355 61.728533 
L 216.028061 61.700285 
L 216.558928 61.651318 
L 217.165634 61.63102 
L 217.696502 61.576863 
L 218.303208 61.564302 
L 218.909914 61.514928 
L 219.440781 61.500007 
L 220.047487 61.445387 
L 220.578355 61.438014 
L 221.185061 61.378276 
L 221.791766 61.359887 
L 222.170958 61.301705 
L 222.322634 126.291938 
L 222.701825 133.962295 
L 223.005178 136.013718 
L 223.308531 136.745794 
L 223.611884 136.982509 
L 224.597781 137.23332 
L 226.569575 137.144666 
L 226.948766 137.151227 
L 228.465531 137.29568 
L 228.92056 137.348281 
L 229.527266 137.442731 
L 230.20981 137.441362 
L 230.816516 137.514279 
L 231.49906 137.54064 
L 232.105766 137.577328 
L 232.712472 137.622355 
L 233.319178 137.643215 
L 233.925884 137.702337 
L 234.684266 137.708582 
L 237.94531 137.892075 
L 240.447972 138.02045 
L 241.964737 138.118974 
L 248.335148 138.361859 
L 249.851913 138.425321 
L 251.672031 138.479813 
L 253.264634 138.531356 
L 254.857237 138.571496 
L 256.601516 138.628428 
L 258.269957 138.674906 
L 259.938398 138.715509 
L 260.090075 138.712004 
L 260.241751 116.232789 
L 260.393428 111.079403 
L 260.469266 111.215151 
L 261.000134 119.286274 
L 261.303486 120.923569 
L 261.606839 121.53953 
L 261.986031 121.785699 
L 262.744413 121.961398 
L 263.654472 122.075115 
L 266.30881 122.007862 
L 266.839678 122.024944 
L 267.901413 122.034033 
L 268.356442 122.022242 
L 268.88731 121.98063 
L 269.569854 122.041908 
L 270.17656 122.016253 
L 270.783266 122.052874 
L 271.314133 122.023439 
L 271.996678 122.060013 
L 272.527545 122.047792 
L 273.134251 122.079353 
L 273.740957 122.073335 
L 274.271825 122.096119 
L 274.87853 122.083733 
L 275.485236 122.098237 
L 276.016104 122.094701 
L 276.62281 122.112601 
L 277.229516 122.120361 
L 277.760383 122.125913 
L 278.367089 122.131226 
L 278.897957 122.138369 
L 279.504663 122.142041 
L 280.111369 122.137664 
L 280.642236 122.152723 
L 281.248942 122.148879 
L 281.77981 122.163222 
L 282.386516 122.159512 
L 282.917383 122.173501 
L 283.524089 122.16962 
L 284.130795 122.196523 
L 284.737501 122.168705 
L 285.344207 122.216375 
L 286.785133 122.220395 
L 287.467677 122.212117 
L 288.074383 122.205587 
L 288.681089 122.233624 
L 289.287795 122.20347 
L 289.894501 122.25176 
L 291.335427 122.251915 
L 292.017971 122.246543 
L 292.624677 122.23571 
L 293.231383 122.266523 
L 293.838089 122.232847 
L 294.520633 122.287162 
L 298.009192 122.305826 
L 298.312545 99.680851 
L 298.388383 99.030555 
L 299.146765 105.740309 
L 299.450118 106.419305 
L 299.829309 106.701947 
L 300.587692 106.86255 
L 302.028618 106.907092 
L 302.938677 106.795538 
L 303.621221 106.668919 
L 304.910471 106.725678 
L 305.517177 106.669697 
L 306.275559 106.688223 
L 306.806427 106.643388 
L 307.488971 106.657689 
L 308.019839 106.620607 
L 308.626545 106.636839 
L 309.233251 106.603026 
L 309.839956 106.597809 
L 310.446662 106.587938 
L 310.97753 106.5738 
L 311.584236 106.563006 
L 312.190942 106.536016 
L 312.797648 106.549163 
L 313.480192 106.495058 
L 318.333839 106.434855 
L 319.016383 106.402743 
L 320.533147 106.394841 
L 321.29153 106.364413 
L 324.097544 106.360506 
L 335.928309 106.191871 
L 335.928309 106.191871 
" clip-path="url(#pe94f693b7d)" style="fill: none; stroke: #2ca02c; stroke-width: 2; stroke-linecap: square"/>
   </g>
   <g id="line2d_36">
    <path d="M 70.494489 117.713334 
L 70.722004 153.599965 
L 71.025357 168.733008 
L 71.32871 173.691219 
L 71.632063 175.357038 
L 72.011254 176.126627 
L 72.466283 176.518133 
L 73.224665 176.857339 
L 74.513915 177.165655 
L 86.723871 179.294857 
L 94.383533 180.248604 
L 102.422386 181.010628 
L 108.413606 181.455162 
L 108.565283 90.709098 
L 108.792797 64.498894 
L 108.944474 61.439408 
L 109.020312 61.629748 
L 110.006209 68.41918 
L 110.3854 69.130433 
L 110.84043 69.46857 
L 111.447136 69.59213 
L 112.433033 69.535465 
L 116.224944 68.783162 
L 118.57593 68.396212 
L 122.216165 67.845945 
L 125.325532 67.428153 
L 141.782429 65.842205 
L 146.332723 65.541349 
L 146.4844 128.803665 
L 146.787753 137.963513 
L 147.091106 140.279436 
L 147.394459 140.893201 
L 147.77365 141.113489 
L 148.683709 141.277022 
L 154.978282 141.848362 
L 162.562105 142.404366 
L 174.317032 143.023234 
L 184.25184 143.381058 
L 184.479355 86.810777 
L 184.70687 73.065495 
L 184.782708 72.627436 
L 184.934385 73.605429 
L 185.54109 78.635691 
L 185.920282 79.986746 
L 186.299473 80.588066 
L 186.754502 80.89002 
L 187.361208 81.013815 
L 188.347105 80.984921 
L 199.798678 79.468369 
L 203.893943 79.075966 
L 206.851634 78.822405 
L 211.098575 78.494852 
L 219.289105 77.994656 
L 222.170958 77.861559 
L 222.246796 117.245671 
L 222.322634 116.723509 
L 222.550149 114.856082 
L 222.701825 115.293238 
L 223.232693 117.325937 
L 223.687722 118.189355 
L 224.21859 118.677813 
L 224.901134 118.904906 
L 225.735355 118.919373 
L 228.08634 118.841818 
L 233.167502 118.874267 
L 237.262766 118.89947 
L 243.329825 118.926742 
L 250.382781 118.954786 
L 260.090075 118.980607 
L 260.469266 85.361932 
L 260.620942 83.865689 
L 260.848457 85.411037 
L 261.379325 88.861751 
L 261.758516 90.001916 
L 262.137707 90.53659 
L 262.668575 90.864254 
L 263.351119 90.995022 
L 264.261178 90.960636 
L 269.418178 90.331415 
L 284.509986 89.183116 
L 292.017971 88.801992 
L 296.189074 88.632329 
L 298.009192 88.556064 
L 298.160868 121.798019 
L 298.312545 119.604369 
L 298.388383 119.827969 
L 299.146765 130.112374 
L 299.525957 131.785651 
L 299.905148 132.561374 
L 300.360177 133.011536 
L 300.966883 133.300489 
L 301.876942 133.478272 
L 303.166192 133.467649 
L 306.654751 133.577887 
L 335.928309 134.145055 
L 335.928309 134.145055 
" clip-path="url(#pe94f693b7d)" style="fill: none; stroke: #d62728; stroke-width: 2; stroke-linecap: square"/>
   </g>
   <g id="patch_3">
    <path d="M 57.222798 211.381683 
L 57.222798 13.825525 
" style="fill: none; stroke: #000000; stroke-width: 0.8; stroke-linejoin: miter; stroke-linecap: square"/>
   </g>
   <g id="patch_4">
    <path d="M 349.2 211.381683 
L 349.2 13.825525 
" style="fill: none; stroke: #000000; stroke-width: 0.8; stroke-linejoin: miter; stroke-linecap: square"/>
   </g>
   <g id="patch_5">
    <path d="M 57.222798 211.381683 
L 349.2 211.381683 
" style="fill: none; stroke: #000000; stroke-width: 0.8; stroke-linejoin: miter; stroke-linecap: square"/>
   </g>
   <g id="patch_6">
    <path d="M 57.222798 13.825525 
L 349.2 13.825525 
" style="fill: none; stroke: #000000; stroke-width: 0.8; stroke-linejoin: miter; stroke-linecap: square"/>
   </g>
   <g id="legend_1">
    <g id="patch_7">
     <path d="M 64.222798 206.381683 
L 116.409899 206.381683 
Q 118.409899 206.381683 118.409899 204.381683 
L 118.409899 76.134158 
Q 118.409899 74.134158 116.409899 74.134158 
L 64.222798 74.134158 
Q 62.222798 74.134158 62.222798 76.134158 
L 62.222798 204.381683 
Q 62.222798 206.381683 64.222798 206.381683 
z
" style="fill: #ffffff; opacity: 0.8; stroke: #cccccc; stroke-linejoin: miter"/>
    </g>
    <g id="line2d_37">
     <path d="M 66.222798 83.09246 
L 76.222798 83.09246 
L 86.222798 83.09246 
" style="fill: none; stroke-dasharray: 3.5,5.775; stroke-dashoffset: 0; stroke: #1f77b4; stroke-width: 3.5"/>
    </g>
    <g id="text_17">
     <!-- $\sigma_{\mathrm{sh},1}^\mathrm{d}$ -->
     <g transform="translate(94.222798 86.59246) scale(0.1 -0.1)">
      <defs>
       <path id="CMR17-68" d="M 2656 1933 
C 2656 2259 2592 2790 1837 2790 
C 1312 2790 1056 2368 979 2157 
L 973 2157 
L 973 4396 
L 211 4326 
L 211 4160 
C 589 4160 646 4122 646 3817 
L 646 426 
C 646 184 621 153 211 153 
L 211 -13 
C 365 0 646 0 813 0 
C 979 0 1267 0 1421 -13 
L 1421 153 
C 1011 153 986 178 986 428 
L 986 1658 
C 986 2247 1344 2688 1792 2688 
C 2266 2688 2317 2266 2317 1958 
L 2317 428 
C 2317 184 2291 153 1882 153 
L 1882 -13 
C 2035 0 2317 0 2483 0 
C 2650 0 2938 0 3091 -13 
L 3091 153 
C 2682 153 2656 178 2656 428 
L 2656 1933 
z
" transform="scale(0.015625)"/>
       <path id="CMMI12-3b" d="M 1248 -31 
C 1248 343 1126 619 864 619 
C 659 619 557 453 557 313 
C 557 172 653 0 870 0 
C 954 0 1024 26 1082 83 
C 1094 96 1101 96 1107 96 
C 1120 96 1120 5 1120 -27 
C 1120 -240 1082 -659 710 -1080 
C 640 -1157 640 -1170 640 -1183 
C 640 -1216 672 -1248 704 -1248 
C 755 -1248 1248 -771 1248 -31 
z
" transform="scale(0.015625)"/>
      </defs>
      <use xlink:href="#CMMI12-1b" transform="scale(0.996264)"/>
      <use xlink:href="#CMR17-64" transform="translate(59.020054 36.153639) scale(0.697382)"/>
      <use xlink:href="#CMR17-73" transform="translate(55.445461 -28.215451) scale(0.697382)"/>
      <use xlink:href="#CMR17-68" transform="translate(80.506283 -28.215451) scale(0.697382)"/>
      <use xlink:href="#CMMI12-3b" transform="translate(116.132892 -28.215451) scale(0.697382)"/>
      <use xlink:href="#CMR17-31" transform="translate(135.100824 -28.215451) scale(0.697382)"/>
     </g>
    </g>
    <g id="line2d_38">
     <path d="M 66.222798 100.728288 
L 76.222798 100.728288 
L 86.222798 100.728288 
" style="fill: none; stroke-dasharray: 3.5,5.775; stroke-dashoffset: 0; stroke: #ff7f0e; stroke-width: 3.5"/>
    </g>
    <g id="text_18">
     <!-- $\sigma_{\mathrm{sh},2}^\mathrm{d}$ -->
     <g transform="translate(94.222798 104.228288) scale(0.1 -0.1)">
      <use xlink:href="#CMMI12-1b" transform="scale(0.996264)"/>
      <use xlink:href="#CMR17-64" transform="translate(59.020054 36.153639) scale(0.697382)"/>
      <use xlink:href="#CMR17-73" transform="translate(55.445461 -28.215451) scale(0.697382)"/>
      <use xlink:href="#CMR17-68" transform="translate(80.506283 -28.215451) scale(0.697382)"/>
      <use xlink:href="#CMMI12-3b" transform="translate(116.132892 -28.215451) scale(0.697382)"/>
      <use xlink:href="#CMR17-32" transform="translate(135.100824 -28.215451) scale(0.697382)"/>
     </g>
    </g>
    <g id="line2d_39">
     <path d="M 66.222798 118.364116 
L 76.222798 118.364116 
L 86.222798 118.364116 
" style="fill: none; stroke-dasharray: 3.5,5.775; stroke-dashoffset: 0; stroke: #2ca02c; stroke-width: 3.5"/>
    </g>
    <g id="text_19">
     <!-- $\sigma_{\mathrm{ax},1}^\mathrm{d}$ -->
     <g transform="translate(94.222798 121.864116) scale(0.1 -0.1)">
      <defs>
       <path id="CMR17-78" d="M 1664 1477 
C 1856 1726 2074 2006 2253 2216 
C 2464 2458 2707 2560 2989 2560 
L 2989 2726 
C 2880 2726 2656 2726 2541 2726 
C 2368 2726 2170 2726 2022 2732 
L 2022 2566 
C 2112 2553 2163 2489 2163 2400 
C 2163 2285 2099 2215 2067 2171 
L 1594 1573 
L 1030 2306 
C 973 2376 973 2388 973 2420 
C 973 2497 1037 2560 1146 2560 
L 1146 2732 
C 992 2726 717 2726 557 2726 
C 384 2726 179 2726 38 2732 
L 38 2560 
C 384 2560 461 2534 614 2343 
L 1350 1395 
C 1363 1382 1395 1344 1395 1325 
C 1395 1299 838 619 768 530 
C 480 185 179 160 6 160 
L 6 0 
C 115 0 339 0 454 0 
C 582 0 864 0 979 -6 
L 979 160 
C 941 166 838 179 838 325 
C 838 440 890 510 947 586 
L 1478 1236 
L 2035 512 
C 2086 442 2163 346 2163 301 
C 2163 211 2086 160 1984 160 
L 1984 -6 
C 2138 0 2413 0 2573 0 
C 2746 0 2950 0 3091 -6 
L 3091 160 
C 2771 160 2675 172 2522 370 
L 1664 1477 
z
" transform="scale(0.015625)"/>
      </defs>
      <use xlink:href="#CMMI12-1b" transform="scale(0.996264)"/>
      <use xlink:href="#CMR17-64" transform="translate(59.020054 36.153639) scale(0.697382)"/>
      <use xlink:href="#CMR17-61" transform="translate(55.445461 -24.740171) scale(0.697382)"/>
      <use xlink:href="#CMR17-78" transform="translate(87.428643 -24.740171) scale(0.697382)"/>
      <use xlink:href="#CMMI12-3b" transform="translate(121.23353 -24.740171) scale(0.697382)"/>
      <use xlink:href="#CMR17-31" transform="translate(140.201463 -24.740171) scale(0.697382)"/>
     </g>
    </g>
    <g id="line2d_40">
     <path d="M 66.222798 135.651261 
L 76.222798 135.651261 
L 86.222798 135.651261 
" style="fill: none; stroke-dasharray: 3.5,5.775; stroke-dashoffset: 0; stroke: #d62728; stroke-width: 3.5"/>
    </g>
    <g id="text_20">
     <!-- $\sigma_{\mathrm{ax},2}^\mathrm{d}$ -->
     <g transform="translate(94.222798 139.151261) scale(0.1 -0.1)">
      <use xlink:href="#CMMI12-1b" transform="scale(0.996264)"/>
      <use xlink:href="#CMR17-64" transform="translate(59.020054 36.153639) scale(0.697382)"/>
      <use xlink:href="#CMR17-61" transform="translate(55.445461 -24.740171) scale(0.697382)"/>
      <use xlink:href="#CMR17-78" transform="translate(87.428643 -24.740171) scale(0.697382)"/>
      <use xlink:href="#CMMI12-3b" transform="translate(121.23353 -24.740171) scale(0.697382)"/>
      <use xlink:href="#CMR17-32" transform="translate(140.201463 -24.740171) scale(0.697382)"/>
     </g>
    </g>
    <g id="line2d_41">
     <path d="M 66.222798 151.480103 
L 76.222798 151.480103 
L 86.222798 151.480103 
" style="fill: none; stroke: #1f77b4; stroke-width: 2; stroke-linecap: square"/>
    </g>
    <g id="text_21">
     <!-- $\sigma_{\mathrm{sh},1}$ -->
     <g transform="translate(94.222798 154.980103) scale(0.1 -0.1)">
      <use xlink:href="#CMMI12-1b" transform="scale(0.996264)"/>
      <use xlink:href="#CMR17-73" transform="translate(55.445461 -14.943915) scale(0.697382)"/>
      <use xlink:href="#CMR17-68" transform="translate(80.506283 -14.943915) scale(0.697382)"/>
      <use xlink:href="#CMMI12-3b" transform="translate(116.132892 -14.943915) scale(0.697382)"/>
      <use xlink:href="#CMR17-31" transform="translate(135.100824 -14.943915) scale(0.697382)"/>
     </g>
    </g>
    <g id="line2d_42">
     <path d="M 66.222798 166.330498 
L 76.222798 166.330498 
L 86.222798 166.330498 
" style="fill: none; stroke: #ff7f0e; stroke-width: 2; stroke-linecap: square"/>
    </g>
    <g id="text_22">
     <!-- $\sigma_{\mathrm{sh},2}$ -->
     <g transform="translate(94.222798 169.830498) scale(0.1 -0.1)">
      <use xlink:href="#CMMI12-1b" transform="scale(0.996264)"/>
      <use xlink:href="#CMR17-73" transform="translate(55.445461 -14.943915) scale(0.697382)"/>
      <use xlink:href="#CMR17-68" transform="translate(80.506283 -14.943915) scale(0.697382)"/>
      <use xlink:href="#CMMI12-3b" transform="translate(116.132892 -14.943915) scale(0.697382)"/>
      <use xlink:href="#CMR17-32" transform="translate(135.100824 -14.943915) scale(0.697382)"/>
     </g>
    </g>
    <g id="line2d_43">
     <path d="M 66.222798 181.180893 
L 76.222798 181.180893 
L 86.222798 181.180893 
" style="fill: none; stroke: #2ca02c; stroke-width: 2; stroke-linecap: square"/>
    </g>
    <g id="text_23">
     <!-- $\sigma_{\mathrm{ax},1}$ -->
     <g transform="translate(94.222798 184.680893) scale(0.1 -0.1)">
      <use xlink:href="#CMMI12-1b" transform="scale(0.996264)"/>
      <use xlink:href="#CMR17-61" transform="translate(55.445461 -14.943915) scale(0.697382)"/>
      <use xlink:href="#CMR17-78" transform="translate(87.428643 -14.943915) scale(0.697382)"/>
      <use xlink:href="#CMMI12-3b" transform="translate(121.23353 -14.943915) scale(0.697382)"/>
      <use xlink:href="#CMR17-31" transform="translate(140.201463 -14.943915) scale(0.697382)"/>
     </g>
    </g>
    <g id="line2d_44">
     <path d="M 66.222798 196.031288 
L 76.222798 196.031288 
L 86.222798 196.031288 
" style="fill: none; stroke: #d62728; stroke-width: 2; stroke-linecap: square"/>
    </g>
    <g id="text_24">
     <!-- $\sigma_{\mathrm{ax},2}$ -->
     <g transform="translate(94.222798 199.531288) scale(0.1 -0.1)">
      <use xlink:href="#CMMI12-1b" transform="scale(0.996264)"/>
      <use xlink:href="#CMR17-61" transform="translate(55.445461 -14.943915) scale(0.697382)"/>
      <use xlink:href="#CMR17-78" transform="translate(87.428643 -14.943915) scale(0.697382)"/>
      <use xlink:href="#CMMI12-3b" transform="translate(121.23353 -14.943915) scale(0.697382)"/>
      <use xlink:href="#CMR17-32" transform="translate(140.201463 -14.943915) scale(0.697382)"/>
     </g>
    </g>
   </g>
  </g>
 </g>
 <defs>
  <clipPath id="pe94f693b7d">
   <rect x="57.222798" y="13.825525" width="291.977202" height="197.556158"/>
  </clipPath>
 </defs>
</svg>
