<?xml version="1.0" encoding="utf-8" standalone="no"?>
<!DOCTYPE svg PUBLIC "-//W3C//DTD SVG 1.1//EN"
  "http://www.w3.org/Graphics/SVG/1.1/DTD/svg11.dtd">
<svg xmlns:xlink="http://www.w3.org/1999/xlink" width="360pt" height="252pt" viewBox="0 0 360 252" xmlns="http://www.w3.org/2000/svg" version="1.1">
 <metadata>
  <rdf:RDF xmlns:dc="http://purl.org/dc/elements/1.1/" xmlns:cc="http://creativecommons.org/ns#" xmlns:rdf="http://www.w3.org/1999/02/22-rdf-syntax-ns#">
   <cc:Work>
    <dc:type rdf:resource="http://purl.org/dc/dcmitype/StillImage"/>
    <dc:date>2024-10-22T10:33:40.523351</dc:date>
    <dc:format>image/svg+xml</dc:format>
    <dc:creator>
     <cc:Agent>
      <dc:title>Matplotlib v3.9.2, https://matplotlib.org/</dc:title>
     </cc:Agent>
    </dc:creator>
   </cc:Work>
  </rdf:RDF>
 </metadata>
 <defs>
  <style type="text/css">*{stroke-linejoin: round; stroke-linecap: butt}</style>
 </defs>
 <g id="figure_1">
  <g id="patch_1">
   <path d="M 0 252 
L 360 252 
L 360 0 
L 0 0 
z
" style="fill: #ffffff"/>
  </g>
  <g id="axes_1">
   <g id="patch_2">
    <path d="M 62.204133 211.381683 
L 349.2 211.381683 
L 349.2 10.8 
L 62.204133 10.8 
z
" style="fill: #ffffff"/>
   </g>
   <g id="matplotlib.axis_1">
    <g id="xtick_1">
     <g id="line2d_1">
      <path d="M 75.2494 211.381683 
L 75.2494 10.8 
" clip-path="url(#p0741283550)" style="fill: none; stroke: #b0b0b0; stroke-width: 0.8; stroke-linecap: square"/>
     </g>
     <g id="line2d_2">
      <defs>
       <path id="m07ca496601" d="M 0 0 
L 0 3.5 
" style="stroke: #000000; stroke-width: 0.8"/>
      </defs>
      <g>
       <use xlink:href="#m07ca496601" x="75.2494" y="211.381683" style="stroke: #000000; stroke-width: 0.8"/>
      </g>
     </g>
     <g id="text_1">
      <!-- $\mathdefault{0}$ -->
      <g transform="translate(72.758732 225.300182) scale(0.1 -0.1)">
       <defs>
        <path id="CMR17-30" d="M 2688 2025 
C 2688 2416 2682 3080 2413 3591 
C 2176 4039 1798 4198 1466 4198 
C 1158 4198 768 4058 525 3597 
C 269 3118 243 2524 243 2025 
C 243 1661 250 1106 448 619 
C 723 -39 1216 -128 1466 -128 
C 1760 -128 2208 -7 2470 600 
C 2662 1042 2688 1559 2688 2025 
z
M 1466 -26 
C 1056 -26 813 325 723 812 
C 653 1188 653 1738 653 2096 
C 653 2588 653 2997 736 3387 
C 858 3929 1216 4096 1466 4096 
C 1728 4096 2067 3923 2189 3400 
C 2272 3036 2278 2607 2278 2096 
C 2278 1680 2278 1169 2202 792 
C 2067 95 1690 -26 1466 -26 
z
" transform="scale(0.015625)"/>
       </defs>
       <use xlink:href="#CMR17-30" transform="scale(0.996264)"/>
      </g>
     </g>
    </g>
    <g id="xtick_2">
     <g id="line2d_3">
      <path d="M 112.52159 211.381683 
L 112.52159 10.8 
" clip-path="url(#p0741283550)" style="fill: none; stroke: #b0b0b0; stroke-width: 0.8; stroke-linecap: square"/>
     </g>
     <g id="line2d_4">
      <g>
       <use xlink:href="#m07ca496601" x="112.52159" y="211.381683" style="stroke: #000000; stroke-width: 0.8"/>
      </g>
     </g>
     <g id="text_2">
      <!-- $\mathdefault{5}$ -->
      <g transform="translate(110.030923 225.300182) scale(0.1 -0.1)">
       <defs>
        <path id="CMR17-35" d="M 730 3692 
C 794 3666 1056 3584 1325 3584 
C 1920 3584 2246 3911 2432 4100 
C 2432 4157 2432 4192 2394 4192 
C 2387 4192 2374 4192 2323 4163 
C 2099 4058 1837 3973 1517 3973 
C 1325 3973 1037 3999 723 4139 
C 653 4171 640 4171 634 4171 
C 602 4171 595 4164 595 4037 
L 595 2203 
C 595 2089 595 2057 659 2057 
C 691 2057 704 2070 736 2114 
C 941 2401 1222 2522 1542 2522 
C 1766 2522 2246 2382 2246 1289 
C 2246 1085 2246 715 2054 421 
C 1894 159 1645 25 1370 25 
C 947 25 518 320 403 814 
C 429 807 480 795 506 795 
C 589 795 749 840 749 1038 
C 749 1210 627 1280 506 1280 
C 358 1280 262 1190 262 1011 
C 262 454 704 -128 1382 -128 
C 2042 -128 2669 440 2669 1264 
C 2669 2030 2170 2624 1549 2624 
C 1222 2624 947 2503 730 2274 
L 730 3692 
z
" transform="scale(0.015625)"/>
       </defs>
       <use xlink:href="#CMR17-35" transform="scale(0.996264)"/>
      </g>
     </g>
    </g>
    <g id="xtick_3">
     <g id="line2d_5">
      <path d="M 149.793781 211.381683 
L 149.793781 10.8 
" clip-path="url(#p0741283550)" style="fill: none; stroke: #b0b0b0; stroke-width: 0.8; stroke-linecap: square"/>
     </g>
     <g id="line2d_6">
      <g>
       <use xlink:href="#m07ca496601" x="149.793781" y="211.381683" style="stroke: #000000; stroke-width: 0.8"/>
      </g>
     </g>
     <g id="text_3">
      <!-- $\mathdefault{10}$ -->
      <g transform="translate(144.812446 225.300182) scale(0.1 -0.1)">
       <defs>
        <path id="CMR17-31" d="M 1702 4058 
C 1702 4192 1696 4192 1606 4192 
C 1357 3916 979 3827 621 3827 
C 602 3827 570 3827 563 3808 
C 557 3795 557 3782 557 3648 
C 755 3648 1088 3686 1344 3839 
L 1344 461 
C 1344 236 1331 160 781 160 
L 589 160 
L 589 0 
C 896 0 1216 0 1523 0 
C 1830 0 2150 0 2458 0 
L 2458 160 
L 2266 160 
C 1715 160 1702 230 1702 458 
L 1702 4058 
z
" transform="scale(0.015625)"/>
       </defs>
       <use xlink:href="#CMR17-31" transform="scale(0.996264)"/>
       <use xlink:href="#CMR17-30" transform="translate(45.690477 0) scale(0.996264)"/>
      </g>
     </g>
    </g>
    <g id="xtick_4">
     <g id="line2d_7">
      <path d="M 187.065971 211.381683 
L 187.065971 10.8 
" clip-path="url(#p0741283550)" style="fill: none; stroke: #b0b0b0; stroke-width: 0.8; stroke-linecap: square"/>
     </g>
     <g id="line2d_8">
      <g>
       <use xlink:href="#m07ca496601" x="187.065971" y="211.381683" style="stroke: #000000; stroke-width: 0.8"/>
      </g>
     </g>
     <g id="text_4">
      <!-- $\mathdefault{15}$ -->
      <g transform="translate(182.084636 225.300182) scale(0.1 -0.1)">
       <use xlink:href="#CMR17-31" transform="scale(0.996264)"/>
       <use xlink:href="#CMR17-35" transform="translate(45.690477 0) scale(0.996264)"/>
      </g>
     </g>
    </g>
    <g id="xtick_5">
     <g id="line2d_9">
      <path d="M 224.338162 211.381683 
L 224.338162 10.8 
" clip-path="url(#p0741283550)" style="fill: none; stroke: #b0b0b0; stroke-width: 0.8; stroke-linecap: square"/>
     </g>
     <g id="line2d_10">
      <g>
       <use xlink:href="#m07ca496601" x="224.338162" y="211.381683" style="stroke: #000000; stroke-width: 0.8"/>
      </g>
     </g>
     <g id="text_5">
      <!-- $\mathdefault{20}$ -->
      <g transform="translate(219.356827 225.300182) scale(0.1 -0.1)">
       <defs>
        <path id="CMR17-32" d="M 2669 989 
L 2554 989 
C 2490 536 2438 459 2413 420 
C 2381 369 1920 369 1830 369 
L 602 369 
C 832 619 1280 1072 1824 1597 
C 2214 1967 2669 2402 2669 3035 
C 2669 3790 2067 4224 1395 4224 
C 691 4224 262 3604 262 3030 
C 262 2780 448 2748 525 2748 
C 589 2748 781 2787 781 3010 
C 781 3207 614 3264 525 3264 
C 486 3264 448 3258 422 3245 
C 544 3790 915 4058 1306 4058 
C 1862 4058 2227 3617 2227 3035 
C 2227 2479 1901 2000 1536 1584 
L 262 146 
L 262 0 
L 2515 0 
L 2669 989 
z
" transform="scale(0.015625)"/>
       </defs>
       <use xlink:href="#CMR17-32" transform="scale(0.996264)"/>
       <use xlink:href="#CMR17-30" transform="translate(45.690477 0) scale(0.996264)"/>
      </g>
     </g>
    </g>
    <g id="xtick_6">
     <g id="line2d_11">
      <path d="M 261.610352 211.381683 
L 261.610352 10.8 
" clip-path="url(#p0741283550)" style="fill: none; stroke: #b0b0b0; stroke-width: 0.8; stroke-linecap: square"/>
     </g>
     <g id="line2d_12">
      <g>
       <use xlink:href="#m07ca496601" x="261.610352" y="211.381683" style="stroke: #000000; stroke-width: 0.8"/>
      </g>
     </g>
     <g id="text_6">
      <!-- $\mathdefault{25}$ -->
      <g transform="translate(256.629017 225.300182) scale(0.1 -0.1)">
       <use xlink:href="#CMR17-32" transform="scale(0.996264)"/>
       <use xlink:href="#CMR17-35" transform="translate(45.690477 0) scale(0.996264)"/>
      </g>
     </g>
    </g>
    <g id="xtick_7">
     <g id="line2d_13">
      <path d="M 298.882543 211.381683 
L 298.882543 10.8 
" clip-path="url(#p0741283550)" style="fill: none; stroke: #b0b0b0; stroke-width: 0.8; stroke-linecap: square"/>
     </g>
     <g id="line2d_14">
      <g>
       <use xlink:href="#m07ca496601" x="298.882543" y="211.381683" style="stroke: #000000; stroke-width: 0.8"/>
      </g>
     </g>
     <g id="text_7">
      <!-- $\mathdefault{30}$ -->
      <g transform="translate(293.901208 225.300182) scale(0.1 -0.1)">
       <defs>
        <path id="CMR17-33" d="M 1414 2157 
C 1984 2157 2234 1662 2234 1090 
C 2234 320 1824 25 1453 25 
C 1114 25 563 194 390 693 
C 422 680 454 680 486 680 
C 640 680 755 782 755 948 
C 755 1133 614 1216 486 1216 
C 378 1216 211 1165 211 926 
C 211 335 787 -128 1466 -128 
C 2176 -128 2720 430 2720 1085 
C 2720 1707 2208 2157 1600 2227 
C 2086 2328 2554 2756 2554 3329 
C 2554 3820 2048 4179 1472 4179 
C 890 4179 378 3829 378 3329 
C 378 3110 544 3072 627 3072 
C 762 3072 877 3155 877 3321 
C 877 3486 762 3569 627 3569 
C 602 3569 570 3569 544 3557 
C 730 3959 1235 4032 1459 4032 
C 1683 4032 2106 3925 2106 3320 
C 2106 3143 2080 2828 1862 2550 
C 1670 2304 1453 2304 1242 2284 
C 1210 2284 1062 2269 1037 2269 
C 992 2263 966 2257 966 2208 
C 966 2163 973 2157 1101 2157 
L 1414 2157 
z
" transform="scale(0.015625)"/>
       </defs>
       <use xlink:href="#CMR17-33" transform="scale(0.996264)"/>
       <use xlink:href="#CMR17-30" transform="translate(45.690477 0) scale(0.996264)"/>
      </g>
     </g>
    </g>
    <g id="xtick_8">
     <g id="line2d_15">
      <path d="M 336.154733 211.381683 
L 336.154733 10.8 
" clip-path="url(#p0741283550)" style="fill: none; stroke: #b0b0b0; stroke-width: 0.8; stroke-linecap: square"/>
     </g>
     <g id="line2d_16">
      <g>
       <use xlink:href="#m07ca496601" x="336.154733" y="211.381683" style="stroke: #000000; stroke-width: 0.8"/>
      </g>
     </g>
     <g id="text_8">
      <!-- $\mathdefault{35}$ -->
      <g transform="translate(331.173398 225.300182) scale(0.1 -0.1)">
       <use xlink:href="#CMR17-33" transform="scale(0.996264)"/>
       <use xlink:href="#CMR17-35" transform="translate(45.690477 0) scale(0.996264)"/>
      </g>
     </g>
    </g>
    <g id="text_9">
     <!-- Time $t$ [s] -->
     <g transform="translate(184.503759 238.70934) scale(0.1 -0.1)">
      <defs>
       <path id="CMR17-54" d="M 3981 4326 
L 288 4326 
L 179 2918 
L 294 2918 
C 378 3976 467 4160 1453 4160 
C 1568 4160 1754 4160 1805 4154 
C 1926 4135 1926 4058 1926 3912 
L 1926 459 
C 1926 230 1907 160 1376 160 
L 1197 160 
L 1197 0 
C 1504 0 1824 0 2138 0 
C 2451 0 2771 0 3078 0 
L 3078 160 
L 2899 160 
C 2368 160 2349 230 2349 459 
L 2349 3912 
C 2349 4052 2349 4129 2464 4154 
C 2515 4160 2701 4160 2816 4160 
C 3795 4160 3891 3976 3974 2918 
L 4090 2918 
L 3981 4326 
z
" transform="scale(0.015625)"/>
       <path id="CMR17-69" d="M 992 3909 
C 992 4049 877 4170 730 4170 
C 589 4170 467 4056 467 3909 
C 467 3769 582 3648 730 3648 
C 870 3648 992 3763 992 3909 
z
M 243 2706 
L 243 2541 
C 602 2541 653 2502 653 2197 
L 653 427 
C 653 184 627 153 218 153 
L 218 -13 
C 371 0 646 0 806 0 
C 960 0 1222 0 1370 -13 
L 1370 153 
C 992 153 979 191 979 420 
L 979 2776 
L 243 2706 
z
" transform="scale(0.015625)"/>
       <path id="CMR17-6d" d="M 4326 1933 
C 4326 2252 4269 2790 3507 2790 
C 3072 2790 2771 2496 2656 2151 
L 2650 2151 
C 2573 2676 2195 2790 1837 2790 
C 1331 2790 1069 2400 973 2144 
L 966 2144 
L 966 2790 
L 211 2720 
L 211 2554 
C 589 2554 646 2515 646 2208 
L 646 428 
C 646 184 621 153 211 153 
L 211 -13 
C 365 0 646 0 813 0 
C 979 0 1267 0 1421 -13 
L 1421 153 
C 1011 153 986 178 986 428 
L 986 1658 
C 986 2247 1344 2688 1792 2688 
C 2266 2688 2317 2266 2317 1958 
L 2317 428 
C 2317 184 2291 153 1882 153 
L 1882 -13 
C 2035 0 2317 0 2483 0 
C 2650 0 2938 0 3091 -13 
L 3091 153 
C 2682 153 2656 178 2656 428 
L 2656 1658 
C 2656 2247 3014 2688 3462 2688 
C 3936 2688 3987 2266 3987 1958 
L 3987 428 
C 3987 184 3962 153 3552 153 
L 3552 -13 
C 3706 0 3987 0 4154 0 
C 4320 0 4608 0 4762 -13 
L 4762 153 
C 4352 153 4326 178 4326 428 
L 4326 1933 
z
" transform="scale(0.015625)"/>
       <path id="CMR17-65" d="M 2438 1472 
C 2464 1498 2464 1511 2464 1576 
C 2464 2238 2118 2816 1389 2816 
C 710 2816 173 2169 173 1383 
C 173 551 781 -64 1459 -64 
C 2176 -64 2458 607 2458 740 
C 2458 784 2419 784 2406 784 
C 2362 784 2355 771 2330 696 
C 2189 265 1837 51 1504 51 
C 1229 51 954 203 781 480 
C 582 803 582 1176 582 1472 
L 2438 1472 
z
M 589 1568 
C 634 2505 1126 2714 1382 2714 
C 1818 2714 2112 2297 2118 1568 
L 589 1568 
z
" transform="scale(0.015625)"/>
       <path id="CMMI12-74" d="M 1286 2566 
L 1875 2566 
C 1997 2566 2061 2566 2061 2681 
C 2061 2752 2022 2752 1894 2752 
L 1331 2752 
L 1568 3692 
C 1594 3781 1594 3794 1594 3840 
C 1594 3943 1510 4000 1427 4000 
C 1376 4000 1229 3981 1178 3775 
L 928 2752 
L 326 2752 
C 198 2752 141 2752 141 2630 
C 141 2566 186 2566 307 2566 
L 877 2566 
L 454 881 
C 403 658 384 594 384 511 
C 384 211 595 -64 954 -64 
C 1600 -64 1946 868 1946 912 
C 1946 951 1920 970 1882 970 
C 1869 970 1843 970 1830 944 
C 1824 938 1818 931 1773 829 
C 1638 511 1344 64 973 64 
C 781 64 768 224 768 364 
C 768 370 768 492 787 568 
L 1286 2566 
z
" transform="scale(0.015625)"/>
       <path id="CMR17-5b" d="M 1504 -1600 
L 1504 -1377 
L 902 -1377 
L 902 4544 
L 1504 4544 
L 1504 4767 
L 678 4767 
L 678 -1600 
L 1504 -1600 
z
" transform="scale(0.015625)"/>
       <path id="CMR17-73" d="M 1978 2697 
C 1978 2813 1971 2819 1933 2819 
C 1907 2819 1901 2813 1824 2717 
C 1805 2691 1747 2626 1728 2601 
C 1523 2819 1235 2819 1126 2819 
C 416 2819 160 2447 160 2076 
C 160 1498 813 1365 998 1325 
C 1402 1243 1542 1217 1677 1101 
C 1760 1025 1901 884 1901 654 
C 1901 384 1747 38 1158 38 
C 602 38 403 460 288 1021 
C 269 1110 269 1117 218 1117 
C 166 1117 160 1110 160 983 
L 160 63 
C 160 -51 166 -58 205 -58 
C 237 -58 243 -51 275 0 
C 314 57 410 211 448 276 
C 576 103 800 -64 1158 -64 
C 1792 -64 2131 283 2131 784 
C 2131 1112 1958 1285 1875 1362 
C 1683 1561 1459 1606 1190 1657 
C 838 1735 390 1825 390 2217 
C 390 2383 480 2737 1126 2737 
C 1811 2737 1850 2094 1862 1888 
C 1869 1856 1901 1849 1920 1849 
C 1978 1849 1978 1869 1978 1978 
L 1978 2697 
z
" transform="scale(0.015625)"/>
       <path id="CMR17-5d" d="M 915 4767 
L 90 4767 
L 90 4544 
L 691 4544 
L 691 -1377 
L 90 -1377 
L 90 -1600 
L 915 -1600 
L 915 4767 
z
" transform="scale(0.015625)"/>
      </defs>
      <use xlink:href="#CMR17-54" transform="scale(0.996264)"/>
      <use xlink:href="#CMR17-69" transform="translate(66.509881 0) scale(0.996264)"/>
      <use xlink:href="#CMR17-6d" transform="translate(91.380939 0) scale(0.996264)"/>
      <use xlink:href="#CMR17-65" transform="translate(168.300529 0) scale(0.996264)"/>
      <use xlink:href="#CMMI12-74" transform="translate(238.862156 0) scale(0.996264)"/>
      <use xlink:href="#CMR17-5b" transform="translate(304.164452 0) scale(0.996264)"/>
      <use xlink:href="#CMR17-73" transform="translate(329.035511 0) scale(0.996264)"/>
      <use xlink:href="#CMR17-5d" transform="translate(364.836848 0) scale(0.996264)"/>
     </g>
    </g>
   </g>
   <g id="matplotlib.axis_2">
    <g id="ytick_1">
     <g id="line2d_17">
      <path d="M 62.204133 207.126673 
L 349.2 207.126673 
" clip-path="url(#p0741283550)" style="fill: none; stroke: #b0b0b0; stroke-width: 0.8; stroke-linecap: square"/>
     </g>
     <g id="line2d_18">
      <defs>
       <path id="m7fab0eaae5" d="M 0 0 
L -3.5 0 
" style="stroke: #000000; stroke-width: 0.8"/>
      </defs>
      <g>
       <use xlink:href="#m7fab0eaae5" x="62.204133" y="207.126673" style="stroke: #000000; stroke-width: 0.8"/>
      </g>
     </g>
     <g id="text_10">
      <!-- $\mathdefault{−0.100}$ -->
      <g transform="translate(24.76264 210.585922) scale(0.1 -0.1)">
       <defs>
        <path id="CMSY10-0" d="M 4218 1472 
C 4326 1472 4442 1472 4442 1600 
C 4442 1728 4326 1728 4218 1728 
L 755 1728 
C 646 1728 531 1728 531 1600 
C 531 1472 646 1472 755 1472 
L 4218 1472 
z
" transform="scale(0.015625)"/>
        <path id="CMMI12-3a" d="M 1178 307 
C 1178 492 1024 619 870 619 
C 685 619 557 466 557 313 
C 557 128 710 0 864 0 
C 1050 0 1178 153 1178 307 
z
" transform="scale(0.015625)"/>
       </defs>
       <use xlink:href="#CMSY10-0" transform="scale(0.996264)"/>
       <use xlink:href="#CMR17-30" transform="translate(77.487468 0) scale(0.996264)"/>
       <use xlink:href="#CMMI12-3a" transform="translate(123.177945 0) scale(0.996264)"/>
       <use xlink:href="#CMR17-31" transform="translate(150.275122 0) scale(0.996264)"/>
       <use xlink:href="#CMR17-30" transform="translate(195.965599 0) scale(0.996264)"/>
       <use xlink:href="#CMR17-30" transform="translate(241.656076 0) scale(0.996264)"/>
      </g>
     </g>
    </g>
    <g id="ytick_2">
     <g id="line2d_19">
      <path d="M 62.204133 181.713395 
L 349.2 181.713395 
" clip-path="url(#p0741283550)" style="fill: none; stroke: #b0b0b0; stroke-width: 0.8; stroke-linecap: square"/>
     </g>
     <g id="line2d_20">
      <g>
       <use xlink:href="#m7fab0eaae5" x="62.204133" y="181.713395" style="stroke: #000000; stroke-width: 0.8"/>
      </g>
     </g>
     <g id="text_11">
      <!-- $\mathdefault{−0.075}$ -->
      <g transform="translate(24.76264 185.172644) scale(0.1 -0.1)">
       <defs>
        <path id="CMR17-37" d="M 2886 3941 
L 2886 4081 
L 1382 4081 
C 634 4081 621 4165 595 4288 
L 480 4288 
L 294 3094 
L 410 3094 
C 429 3215 474 3540 550 3661 
C 589 3712 1062 3712 1171 3712 
L 2579 3712 
L 1869 2661 
C 1395 1954 1069 999 1069 165 
C 1069 89 1069 -128 1299 -128 
C 1530 -128 1530 89 1530 171 
L 1530 465 
C 1530 1508 1709 2196 2003 2636 
L 2886 3941 
z
" transform="scale(0.015625)"/>
       </defs>
       <use xlink:href="#CMSY10-0" transform="scale(0.996264)"/>
       <use xlink:href="#CMR17-30" transform="translate(77.487468 0) scale(0.996264)"/>
       <use xlink:href="#CMMI12-3a" transform="translate(123.177945 0) scale(0.996264)"/>
       <use xlink:href="#CMR17-30" transform="translate(150.275122 0) scale(0.996264)"/>
       <use xlink:href="#CMR17-37" transform="translate(195.965599 0) scale(0.996264)"/>
       <use xlink:href="#CMR17-35" transform="translate(241.656076 0) scale(0.996264)"/>
      </g>
     </g>
    </g>
    <g id="ytick_3">
     <g id="line2d_21">
      <path d="M 62.204133 156.300116 
L 349.2 156.300116 
" clip-path="url(#p0741283550)" style="fill: none; stroke: #b0b0b0; stroke-width: 0.8; stroke-linecap: square"/>
     </g>
     <g id="line2d_22">
      <g>
       <use xlink:href="#m7fab0eaae5" x="62.204133" y="156.300116" style="stroke: #000000; stroke-width: 0.8"/>
      </g>
     </g>
     <g id="text_12">
      <!-- $\mathdefault{−0.050}$ -->
      <g transform="translate(24.76264 159.759365) scale(0.1 -0.1)">
       <use xlink:href="#CMSY10-0" transform="scale(0.996264)"/>
       <use xlink:href="#CMR17-30" transform="translate(77.487468 0) scale(0.996264)"/>
       <use xlink:href="#CMMI12-3a" transform="translate(123.177945 0) scale(0.996264)"/>
       <use xlink:href="#CMR17-30" transform="translate(150.275122 0) scale(0.996264)"/>
       <use xlink:href="#CMR17-35" transform="translate(195.965599 0) scale(0.996264)"/>
       <use xlink:href="#CMR17-30" transform="translate(241.656076 0) scale(0.996264)"/>
      </g>
     </g>
    </g>
    <g id="ytick_4">
     <g id="line2d_23">
      <path d="M 62.204133 130.886837 
L 349.2 130.886837 
" clip-path="url(#p0741283550)" style="fill: none; stroke: #b0b0b0; stroke-width: 0.8; stroke-linecap: square"/>
     </g>
     <g id="line2d_24">
      <g>
       <use xlink:href="#m7fab0eaae5" x="62.204133" y="130.886837" style="stroke: #000000; stroke-width: 0.8"/>
      </g>
     </g>
     <g id="text_13">
      <!-- $\mathdefault{−0.025}$ -->
      <g transform="translate(24.76264 134.346086) scale(0.1 -0.1)">
       <use xlink:href="#CMSY10-0" transform="scale(0.996264)"/>
       <use xlink:href="#CMR17-30" transform="translate(77.487468 0) scale(0.996264)"/>
       <use xlink:href="#CMMI12-3a" transform="translate(123.177945 0) scale(0.996264)"/>
       <use xlink:href="#CMR17-30" transform="translate(150.275122 0) scale(0.996264)"/>
       <use xlink:href="#CMR17-32" transform="translate(195.965599 0) scale(0.996264)"/>
       <use xlink:href="#CMR17-35" transform="translate(241.656076 0) scale(0.996264)"/>
      </g>
     </g>
    </g>
    <g id="ytick_5">
     <g id="line2d_25">
      <path d="M 62.204133 105.473558 
L 349.2 105.473558 
" clip-path="url(#p0741283550)" style="fill: none; stroke: #b0b0b0; stroke-width: 0.8; stroke-linecap: square"/>
     </g>
     <g id="line2d_26">
      <g>
       <use xlink:href="#m7fab0eaae5" x="62.204133" y="105.473558" style="stroke: #000000; stroke-width: 0.8"/>
      </g>
     </g>
     <g id="text_14">
      <!-- $\mathdefault{0.000}$ -->
      <g transform="translate(32.511384 108.932808) scale(0.1 -0.1)">
       <use xlink:href="#CMR17-30" transform="scale(0.996264)"/>
       <use xlink:href="#CMMI12-3a" transform="translate(45.690477 0) scale(0.996264)"/>
       <use xlink:href="#CMR17-30" transform="translate(72.787654 0) scale(0.996264)"/>
       <use xlink:href="#CMR17-30" transform="translate(118.478131 0) scale(0.996264)"/>
       <use xlink:href="#CMR17-30" transform="translate(164.168608 0) scale(0.996264)"/>
      </g>
     </g>
    </g>
    <g id="ytick_6">
     <g id="line2d_27">
      <path d="M 62.204133 80.06028 
L 349.2 80.06028 
" clip-path="url(#p0741283550)" style="fill: none; stroke: #b0b0b0; stroke-width: 0.8; stroke-linecap: square"/>
     </g>
     <g id="line2d_28">
      <g>
       <use xlink:href="#m7fab0eaae5" x="62.204133" y="80.06028" style="stroke: #000000; stroke-width: 0.8"/>
      </g>
     </g>
     <g id="text_15">
      <!-- $\mathdefault{0.025}$ -->
      <g transform="translate(32.511384 83.519529) scale(0.1 -0.1)">
       <use xlink:href="#CMR17-30" transform="scale(0.996264)"/>
       <use xlink:href="#CMMI12-3a" transform="translate(45.690477 0) scale(0.996264)"/>
       <use xlink:href="#CMR17-30" transform="translate(72.787654 0) scale(0.996264)"/>
       <use xlink:href="#CMR17-32" transform="translate(118.478131 0) scale(0.996264)"/>
       <use xlink:href="#CMR17-35" transform="translate(164.168608 0) scale(0.996264)"/>
      </g>
     </g>
    </g>
    <g id="ytick_7">
     <g id="line2d_29">
      <path d="M 62.204133 54.647001 
L 349.2 54.647001 
" clip-path="url(#p0741283550)" style="fill: none; stroke: #b0b0b0; stroke-width: 0.8; stroke-linecap: square"/>
     </g>
     <g id="line2d_30">
      <g>
       <use xlink:href="#m7fab0eaae5" x="62.204133" y="54.647001" style="stroke: #000000; stroke-width: 0.8"/>
      </g>
     </g>
     <g id="text_16">
      <!-- $\mathdefault{0.050}$ -->
      <g transform="translate(32.511384 58.10625) scale(0.1 -0.1)">
       <use xlink:href="#CMR17-30" transform="scale(0.996264)"/>
       <use xlink:href="#CMMI12-3a" transform="translate(45.690477 0) scale(0.996264)"/>
       <use xlink:href="#CMR17-30" transform="translate(72.787654 0) scale(0.996264)"/>
       <use xlink:href="#CMR17-35" transform="translate(118.478131 0) scale(0.996264)"/>
       <use xlink:href="#CMR17-30" transform="translate(164.168608 0) scale(0.996264)"/>
      </g>
     </g>
    </g>
    <g id="ytick_8">
     <g id="line2d_31">
      <path d="M 62.204133 29.233722 
L 349.2 29.233722 
" clip-path="url(#p0741283550)" style="fill: none; stroke: #b0b0b0; stroke-width: 0.8; stroke-linecap: square"/>
     </g>
     <g id="line2d_32">
      <g>
       <use xlink:href="#m7fab0eaae5" x="62.204133" y="29.233722" style="stroke: #000000; stroke-width: 0.8"/>
      </g>
     </g>
     <g id="text_17">
      <!-- $\mathdefault{0.075}$ -->
      <g transform="translate(32.511384 32.692971) scale(0.1 -0.1)">
       <use xlink:href="#CMR17-30" transform="scale(0.996264)"/>
       <use xlink:href="#CMMI12-3a" transform="translate(45.690477 0) scale(0.996264)"/>
       <use xlink:href="#CMR17-30" transform="translate(72.787654 0) scale(0.996264)"/>
       <use xlink:href="#CMR17-37" transform="translate(118.478131 0) scale(0.996264)"/>
       <use xlink:href="#CMR17-35" transform="translate(164.168608 0) scale(0.996264)"/>
      </g>
     </g>
    </g>
    <g id="text_18">
     <!-- Linear strains $\sigma$ [rad/m] -->
     <g transform="translate(18.27198 164.095291) rotate(-90) scale(0.1 -0.1)">
      <defs>
       <path id="CMR17-4c" d="M 3469 1615 
L 3354 1615 
C 3302 983 3219 166 2125 166 
L 1530 166 
C 1274 166 1261 197 1261 414 
L 1261 3898 
C 1261 4129 1274 4192 1760 4192 
L 1901 4192 
L 1901 4352 
C 1638 4352 1331 4352 1069 4352 
C 870 4352 512 4352 326 4352 
L 326 4192 
C 768 4192 838 4192 838 3905 
L 838 452 
C 838 166 768 166 326 166 
L 326 0 
L 3315 0 
L 3469 1615 
z
" transform="scale(0.015625)"/>
       <path id="CMR17-6e" d="M 2656 1933 
C 2656 2259 2592 2790 1837 2790 
C 1331 2790 1069 2400 973 2144 
L 966 2144 
L 966 2790 
L 211 2720 
L 211 2554 
C 589 2554 646 2515 646 2208 
L 646 428 
C 646 184 621 153 211 153 
L 211 -13 
C 365 0 646 0 813 0 
C 979 0 1267 0 1421 -13 
L 1421 153 
C 1011 153 986 178 986 428 
L 986 1658 
C 986 2247 1344 2688 1792 2688 
C 2266 2688 2317 2266 2317 1958 
L 2317 428 
C 2317 184 2291 153 1882 153 
L 1882 -13 
C 2035 0 2317 0 2483 0 
C 2650 0 2938 0 3091 -13 
L 3091 153 
C 2682 153 2656 178 2656 428 
L 2656 1933 
z
" transform="scale(0.015625)"/>
       <path id="CMR17-61" d="M 2304 1653 
C 2304 2072 2304 2294 2035 2543 
C 1798 2752 1523 2816 1306 2816 
C 800 2816 435 2407 435 1971 
C 435 1728 627 1728 666 1728 
C 749 1728 896 1778 896 1954 
C 896 2112 774 2181 666 2181 
C 640 2181 608 2174 589 2168 
C 723 2592 1069 2714 1293 2714 
C 1613 2714 1965 2429 1965 1885 
L 1965 1600 
C 1587 1600 1133 1549 774 1357 
C 371 1133 256 813 256 570 
C 256 77 832 -64 1171 -64 
C 1523 -64 1850 139 1990 511 
C 2003 233 2182 -18 2464 -18 
C 2598 -18 2938 70 2938 567 
L 2938 920 
L 2822 920 
L 2822 562 
C 2822 178 2650 128 2566 128 
C 2304 128 2304 458 2304 738 
L 2304 1653 
z
M 1965 870 
C 1965 317 1568 38 1216 38 
C 896 38 646 275 646 570 
C 646 761 730 1100 1101 1305 
C 1408 1478 1760 1504 1965 1504 
L 1965 870 
z
" transform="scale(0.015625)"/>
       <path id="CMR17-72" d="M 960 1497 
C 960 2112 1222 2688 1702 2688 
C 1747 2688 1792 2682 1837 2662 
C 1837 2662 1696 2617 1696 2452 
C 1696 2298 1818 2234 1914 2234 
C 1990 2234 2131 2279 2131 2458 
C 2131 2663 1926 2790 1709 2790 
C 1222 2790 1011 2317 947 2093 
L 941 2093 
L 941 2790 
L 198 2720 
L 198 2554 
C 576 2554 634 2515 634 2208 
L 634 428 
C 634 184 608 153 198 153 
L 198 -13 
C 352 0 646 0 813 0 
C 998 0 1325 0 1498 -13 
L 1498 153 
C 1037 153 960 153 960 440 
L 960 1497 
z
" transform="scale(0.015625)"/>
       <path id="CMR17-74" d="M 966 2560 
L 1862 2560 
L 1862 2725 
L 966 2725 
L 966 3904 
L 851 3904 
C 838 3245 614 2668 70 2668 
L 70 2560 
L 627 2560 
L 627 771 
C 627 650 627 -64 1370 -64 
C 1747 -64 1965 306 1965 777 
L 1965 1140 
L 1850 1140 
L 1850 783 
C 1850 344 1677 51 1408 51 
C 1222 51 966 178 966 758 
L 966 2560 
z
" transform="scale(0.015625)"/>
       <path id="CMMI12-1b" d="M 3251 2408 
C 3334 2408 3546 2408 3546 2612 
C 3546 2752 3424 2752 3309 2752 
L 1894 2752 
C 934 2752 243 1686 243 932 
C 243 390 595 -64 1171 -64 
C 1926 -64 2752 747 2752 1705 
C 2752 1954 2694 2196 2541 2408 
L 3251 2408 
z
M 1178 64 
C 851 64 614 313 614 754 
C 614 1137 845 2408 1786 2408 
C 2061 2408 2368 2274 2368 1781 
C 2368 1558 2266 1021 2042 652 
C 1811 275 1466 64 1178 64 
z
" transform="scale(0.015625)"/>
       <path id="CMR17-64" d="M 1869 4326 
L 1869 4160 
C 2246 4160 2304 4122 2304 3820 
L 2304 2345 
C 2278 2377 2016 2790 1498 2790 
C 845 2790 211 2208 211 1364 
C 211 525 806 -64 1434 -64 
C 1978 -64 2259 337 2291 380 
L 2291 -63 
L 3066 -63 
L 3066 128 
C 2688 128 2630 166 2630 473 
L 2630 4396 
L 1869 4326 
z
M 2291 755 
C 2291 563 2176 390 2029 262 
C 1811 70 1594 38 1472 38 
C 1286 38 621 134 621 1356 
C 621 2612 1363 2688 1530 2688 
C 1824 2688 2061 2522 2208 2291 
C 2291 2157 2291 2138 2291 2023 
L 2291 755 
z
" transform="scale(0.015625)"/>
       <path id="CMR17-2f" d="M 2605 4545 
C 2637 4627 2637 4640 2637 4653 
C 2637 4729 2579 4768 2528 4768 
C 2451 4768 2426 4717 2400 4640 
L 326 -1377 
C 294 -1460 294 -1473 294 -1486 
C 294 -1562 352 -1600 403 -1600 
C 480 -1600 506 -1549 531 -1473 
L 2605 4545 
z
" transform="scale(0.015625)"/>
      </defs>
      <use xlink:href="#CMR17-4c" transform="scale(0.996264)"/>
      <use xlink:href="#CMR17-69" transform="translate(57.381408 0) scale(0.996264)"/>
      <use xlink:href="#CMR17-6e" transform="translate(82.252466 0) scale(0.996264)"/>
      <use xlink:href="#CMR17-65" transform="translate(133.147836 0) scale(0.996264)"/>
      <use xlink:href="#CMR17-61" transform="translate(173.633497 0) scale(0.996264)"/>
      <use xlink:href="#CMR17-72" transform="translate(219.323974 0) scale(0.996264)"/>
      <use xlink:href="#CMR17-73" transform="translate(284.680708 0) scale(0.996264)"/>
      <use xlink:href="#CMR17-74" transform="translate(320.482045 0) scale(0.996264)"/>
      <use xlink:href="#CMR17-72" transform="translate(355.762813 0) scale(0.996264)"/>
      <use xlink:href="#CMR17-61" transform="translate(391.043581 0) scale(0.996264)"/>
      <use xlink:href="#CMR17-69" transform="translate(436.734058 0) scale(0.996264)"/>
      <use xlink:href="#CMR17-6e" transform="translate(461.605117 0) scale(0.996264)"/>
      <use xlink:href="#CMR17-73" transform="translate(512.500486 0) scale(0.996264)"/>
      <use xlink:href="#CMMI12-1b" transform="translate(578.37779 0) scale(0.996264)"/>
      <use xlink:href="#CMR17-5b" transform="translate(667.47381 0) scale(0.996264)"/>
      <use xlink:href="#CMR17-72" transform="translate(692.344869 0) scale(0.996264)"/>
      <use xlink:href="#CMR17-61" transform="translate(727.625637 0) scale(0.996264)"/>
      <use xlink:href="#CMR17-64" transform="translate(773.316114 0) scale(0.996264)"/>
      <use xlink:href="#CMR17-2f" transform="translate(824.211484 0) scale(0.996264)"/>
      <use xlink:href="#CMR17-6d" transform="translate(869.901961 0) scale(0.996264)"/>
      <use xlink:href="#CMR17-5d" transform="translate(946.821551 0) scale(0.996264)"/>
     </g>
    </g>
   </g>
   <g id="line2d_33">
    <path d="M 75.2494 113.887104 
L 112.52159 113.887104 
L 112.670679 150.141656 
L 187.065971 150.042112 
L 187.21506 116.723089 
L 224.338162 116.723089 
L 224.487251 54.710795 
L 261.610352 54.710795 
L 261.759441 116.760461 
L 298.882543 116.760461 
L 299.031632 87.162815 
L 336.154733 87.162815 
L 336.154733 87.162815 
" clip-path="url(#p0741283550)" style="fill: none; stroke-dasharray: 3.5,5.775; stroke-dashoffset: 0; stroke: #1f77b4; stroke-width: 3.5"/>
   </g>
   <g id="line2d_34">
    <path d="M 75.2494 153.837841 
L 112.52159 153.837841 
L 112.670679 120.974423 
L 149.793781 120.974423 
L 149.94287 87.519624 
L 187.065971 87.519624 
L 187.21506 88.666391 
L 224.338162 88.666391 
L 224.487251 97.71523 
L 261.610352 97.71523 
L 261.759441 121.771998 
L 298.882543 121.771998 
L 299.031632 125.330217 
L 336.154733 125.330217 
L 336.154733 125.330217 
" clip-path="url(#p0741283550)" style="fill: none; stroke-dasharray: 3.5,5.775; stroke-dashoffset: 0; stroke: #ff7f0e; stroke-width: 3.5"/>
   </g>
   <g id="line2d_35">
    <path d="M 75.2494 24.901805 
L 112.52159 24.901805 
L 112.670679 57.239972 
L 149.793781 57.239972 
L 149.94287 124.71735 
L 187.065971 124.71735 
L 187.21506 19.917349 
L 224.338162 19.917349 
L 224.487251 137.598371 
L 261.610352 137.598371 
L 261.759441 112.454729 
L 298.882543 112.454729 
L 299.031632 88.063514 
L 336.154733 88.063514 
L 336.154733 88.063514 
" clip-path="url(#p0741283550)" style="fill: none; stroke-dasharray: 3.5,5.775; stroke-dashoffset: 0; stroke: #2ca02c; stroke-width: 3.5"/>
   </g>
   <g id="line2d_36">
    <path d="M 75.2494 202.264334 
L 112.52159 202.264334 
L 112.670679 25.969958 
L 149.793781 25.969958 
L 149.94287 144.588864 
L 187.065971 144.588864 
L 187.21506 44.695987 
L 224.338162 44.695987 
L 224.487251 107.436064 
L 261.610352 107.436064 
L 261.759441 60.959229 
L 298.882543 60.959229 
L 299.031632 130.168889 
L 336.154733 130.168889 
L 336.154733 130.168889 
" clip-path="url(#p0741283550)" style="fill: none; stroke-dasharray: 3.5,5.775; stroke-dashoffset: 0; stroke: #d62728; stroke-width: 3.5"/>
   </g>
   <g id="line2d_37">
    <path d="M 75.2494 105.473558 
L 75.398489 110.872982 
L 75.696666 107.471472 
L 76.069388 104.474206 
L 76.44211 103.145594 
L 76.665743 102.886467 
L 76.889376 102.915732 
L 77.187554 103.28135 
L 77.63482 104.278818 
L 78.454808 106.756742 
L 79.200252 108.809799 
L 80.318418 111.385993 
L 81.138406 112.720415 
L 81.88385 113.503399 
L 82.405661 113.796852 
L 83.002016 114.099328 
L 83.598371 114.378937 
L 84.716536 114.629703 
L 85.685613 114.404215 
L 86.058335 114.437211 
L 86.952868 114.752888 
L 87.400134 114.597139 
L 87.921945 114.505395 
L 88.891022 114.690409 
L 89.561921 114.551141 
L 90.456454 114.664272 
L 91.127353 114.575918 
L 91.872797 114.652608 
L 92.618241 114.581747 
L 93.363685 114.6165 
L 94.109128 114.583251 
L 94.854572 114.581674 
L 95.600016 114.579225 
L 96.34546 114.551822 
L 97.314537 114.571052 
L 100.892667 114.50094 
L 103.278087 114.47376 
L 110.359803 114.402277 
L 112.52159 114.383782 
L 112.670679 91.940962 
L 113.565212 124.175352 
L 114.012478 131.136034 
L 114.459744 135.01314 
L 114.907011 137.174812 
L 115.354277 138.359348 
L 115.876088 139.138324 
L 116.472443 139.628509 
L 117.96333 140.390646 
L 119.454218 140.695417 
L 121.094194 140.789448 
L 121.914182 140.71301 
L 123.181437 140.729631 
L 123.628703 140.876368 
L 124.448691 141.16752 
L 125.119591 141.209467 
L 126.014123 141.283158 
L 126.9832 141.542572 
L 127.803189 141.588037 
L 128.697721 141.797169 
L 129.443165 141.87016 
L 130.263153 142.031832 
L 131.008597 142.129678 
L 131.828585 142.256755 
L 132.648573 142.400011 
L 134.28855 142.644824 
L 139.506656 143.348073 
L 142.413887 143.720567 
L 149.793781 144.564708 
L 149.868325 108.379816 
L 149.94287 109.449432 
L 152.104657 125.7598 
L 152.850101 129.726946 
L 153.670089 133.163733 
L 154.415533 135.434067 
L 155.086432 136.855769 
L 156.055509 138.29522 
L 156.800953 139.039101 
L 157.471852 139.486119 
L 158.515474 139.832005 
L 159.633639 140.505353 
L 160.528172 140.603786 
L 161.34816 140.976939 
L 162.093604 141.003774 
L 162.913592 141.298215 
L 163.584491 141.326593 
L 164.40448 141.563175 
L 165.075379 141.619413 
L 165.820823 141.802969 
L 166.566267 141.891069 
L 167.237166 142.026257 
L 167.98261 142.122671 
L 168.728054 142.24129 
L 169.473498 142.364004 
L 170.293486 142.459269 
L 172.306184 142.777208 
L 174.318882 143.037114 
L 177.449746 143.448557 
L 181.027877 143.891914 
L 187.065971 144.566809 
L 187.21506 91.268893 
L 187.513238 100.768653 
L 187.960504 110.901991 
L 188.333226 115.18446 
L 188.705948 117.210367 
L 189.004125 117.841473 
L 189.227758 117.954513 
L 189.525936 117.802452 
L 189.973202 117.176741 
L 191.687723 114.51401 
L 193.029522 113.25001 
L 193.924054 112.706013 
L 195.265853 112.138032 
L 197.204007 111.532931 
L 198.023995 111.520744 
L 198.993072 111.76714 
L 199.514883 111.708475 
L 200.260327 111.644816 
L 204.956623 112.076517 
L 205.627522 112.177192 
L 206.298422 112.20729 
L 207.043866 112.292963 
L 207.863854 112.328155 
L 209.802008 112.513831 
L 211.36744 112.646957 
L 215.989191 112.978182 
L 219.343688 113.215326 
L 223.443629 113.481678 
L 224.338162 113.53418 
L 224.487251 96.441805 
L 224.636339 96.061117 
L 224.785428 95.954852 
L 225.009061 95.130764 
L 225.456328 92.251128 
L 228.21447 72.091122 
L 229.109002 67.983347 
L 229.854446 65.51839 
L 230.59989 63.814439 
L 231.345334 62.681158 
L 232.239866 61.565837 
L 232.98531 61.069373 
L 233.432576 60.964586 
L 234.103476 60.867252 
L 234.699831 60.587923 
L 235.296186 60.269091 
L 235.743452 60.233438 
L 236.339807 60.227615 
L 237.905239 59.939627 
L 243.19789 59.293675 
L 244.316056 59.184101 
L 261.610352 57.9258 
L 261.759441 118.888257 
L 262.057619 111.8071 
L 262.430341 106.027937 
L 262.728518 103.912322 
L 263.026696 103.174955 
L 263.175784 103.163884 
L 263.399418 103.459745 
L 263.772139 104.497252 
L 264.517583 107.456024 
L 265.710293 111.900139 
L 266.530282 113.97913 
L 267.424814 115.730396 
L 268.319347 116.933201 
L 269.213879 117.773424 
L 270.033867 118.307126 
L 271.972021 119.120868 
L 272.344743 119.083987 
L 273.090187 118.96141 
L 273.761086 119.042825 
L 274.581075 119.181544 
L 276.071962 119.120248 
L 276.593773 119.09678 
L 277.339217 119.013674 
L 278.084661 119.056661 
L 278.904649 118.978554 
L 279.650093 118.97907 
L 280.395536 118.932156 
L 281.14098 118.911007 
L 281.960968 118.889169 
L 282.855501 118.821132 
L 298.360732 118.307577 
L 298.882543 118.292304 
L 299.031632 91.47223 
L 299.777075 103.932571 
L 300.075253 104.998483 
L 300.224342 105.076527 
L 300.37343 104.933255 
L 300.671608 104.168075 
L 301.193419 101.975847 
L 302.982484 93.868225 
L 303.877016 91.287588 
L 304.771549 89.346395 
L 305.591537 88.130832 
L 306.411525 87.273463 
L 307.753324 86.273055 
L 308.424224 85.954581 
L 309.467845 85.690911 
L 310.660555 85.826874 
L 311.331454 85.631359 
L 312.002354 85.604783 
L 312.822342 85.702171 
L 313.865963 85.623789 
L 314.536863 85.685437 
L 315.356851 85.639166 
L 316.102295 85.694411 
L 316.847739 85.679648 
L 317.667727 85.70916 
L 318.413171 85.737486 
L 319.233159 85.734152 
L 321.022224 85.78861 
L 322.736745 85.851701 
L 327.656674 85.9532 
L 336.154733 86.140871 
L 336.154733 86.140871 
" clip-path="url(#p0741283550)" style="fill: none; stroke: #1f77b4; stroke-width: 2; stroke-linecap: square"/>
   </g>
   <g id="line2d_38">
    <path d="M 75.2494 105.473558 
L 75.398489 139.629366 
L 75.473033 140.400319 
L 75.696666 139.337401 
L 75.845755 139.834164 
L 76.814832 144.741723 
L 77.411187 146.337897 
L 78.007542 147.313674 
L 78.752986 148.071199 
L 78.976619 148.0128 
L 80.840229 148.800493 
L 82.032939 148.859506 
L 82.852927 148.860805 
L 83.07656 149.004301 
L 83.672915 148.881536 
L 84.120181 148.889147 
L 84.567448 148.922574 
L 85.089258 148.624356 
L 86.058335 148.875294 
L 86.356513 149.078558 
L 86.803779 149.092303 
L 87.027412 148.958441 
L 87.400134 148.657126 
L 87.772856 148.714163 
L 88.071033 149.013575 
L 88.369211 149.161617 
L 88.667389 149.08626 
L 89.189199 148.754186 
L 89.487377 148.864938 
L 90.009187 149.169183 
L 90.307365 149.051921 
L 90.680087 148.857285 
L 90.978264 148.935955 
L 91.500075 149.178934 
L 91.872797 149.036383 
L 92.245519 148.950141 
L 93.28914 149.093271 
L 93.661862 149.025177 
L 94.705483 149.138118 
L 95.15275 149.109398 
L 95.898193 149.23437 
L 96.569093 149.175923 
L 97.314537 149.265772 
L 97.985436 149.238772 
L 98.73088 149.300164 
L 99.401779 149.297834 
L 100.147223 149.337518 
L 100.892667 149.365189 
L 101.638111 149.37203 
L 102.532643 149.433689 
L 112.52159 149.721981 
L 112.596135 66.222611 
L 112.670679 75.65669 
L 112.968857 119.071795 
L 113.117945 122.45626 
L 113.19249 122.586942 
L 113.341579 121.751523 
L 113.937934 117.7381 
L 114.310656 116.695698 
L 114.608833 116.378443 
L 115.130644 116.246388 
L 115.503366 116.436351 
L 116.696076 117.480072 
L 116.845165 117.642706 
L 117.217886 118.302984 
L 117.739697 118.52874 
L 119.006952 118.766179 
L 119.901484 118.454527 
L 120.34875 118.170855 
L 120.721472 117.931899 
L 121.466916 117.602169 
L 121.690549 117.400042 
L 122.883259 117.374625 
L 123.330526 117.553715 
L 124.001425 118.190435 
L 124.746869 117.897412 
L 125.194135 117.566841 
L 125.865035 117.663899 
L 126.386845 118.091411 
L 126.759567 118.052419 
L 127.430467 117.604051 
L 127.728644 117.785904 
L 128.101366 118.109075 
L 128.399544 118.062622 
L 129.070443 117.699082 
L 129.368621 117.901221 
L 129.741342 118.103018 
L 130.03952 117.990124 
L 130.486786 117.762129 
L 130.784964 117.881365 
L 131.23223 118.097285 
L 131.530408 117.989989 
L 131.977674 117.829882 
L 132.350396 118.000874 
L 132.723118 118.096072 
L 133.692195 117.991341 
L 134.139461 118.104817 
L 135.033994 118.001033 
L 135.555804 118.115283 
L 136.375792 118.02134 
L 136.972147 118.127107 
L 137.792136 118.067824 
L 138.388491 118.140349 
L 139.133934 118.092349 
L 139.804834 118.155338 
L 140.475733 118.119077 
L 141.221177 118.172399 
L 141.892077 118.159607 
L 142.63752 118.191705 
L 143.30842 118.197536 
L 144.053864 118.213235 
L 144.799307 118.242866 
L 145.619296 118.228133 
L 148.675615 118.299965 
L 149.793781 118.316499 
L 150.017414 95.321842 
L 150.241047 89.114201 
L 150.46468 88.326241 
L 150.688314 88.562383 
L 151.508302 89.661574 
L 152.179201 90.269527 
L 152.477379 90.190689 
L 153.893722 90.646762 
L 154.937343 90.585145 
L 155.682787 90.578821 
L 155.90642 90.638704 
L 157.09913 90.510942 
L 157.248219 90.50545 
L 157.620941 90.222681 
L 158.515474 90.269417 
L 158.888195 90.516985 
L 159.559095 90.430129 
L 159.931817 90.182254 
L 160.304539 90.155091 
L 161.124527 90.492068 
L 161.869971 90.131597 
L 162.689959 90.417139 
L 163.286314 90.117708 
L 163.584491 90.254103 
L 163.957213 90.406944 
L 164.255391 90.301449 
L 164.702657 90.117716 
L 165.075379 90.260388 
L 165.448101 90.344627 
L 166.417178 90.200126 
L 166.864444 90.292365 
L 167.833521 90.184454 
L 168.280787 90.243376 
L 169.17532 90.147275 
L 169.697131 90.197433 
L 170.517119 90.116469 
L 171.113474 90.154544 
L 171.933462 90.101575 
L 172.529817 90.114833 
L 173.275261 90.073524 
L 174.020705 90.066838 
L 174.766149 90.06241 
L 175.586137 90.020202 
L 177.524291 90.011063 
L 179.313356 89.979845 
L 181.549687 89.933155 
L 184.531462 89.88527 
L 187.065971 89.83829 
L 187.140516 60.580721 
L 187.21506 62.61024 
L 187.513238 93.229131 
L 187.662326 95.556251 
L 187.736871 95.507895 
L 187.960504 93.947824 
L 188.482315 90.515797 
L 188.855037 89.365239 
L 189.227758 88.881862 
L 189.824114 88.63928 
L 190.27138 88.812949 
L 191.315001 89.511353 
L 191.687723 90.131427 
L 192.134989 90.2888 
L 193.625877 90.451731 
L 194.52041 90.131463 
L 195.116765 89.756898 
L 195.564031 89.533739 
L 195.862208 89.418793 
L 196.160386 89.022774 
L 196.384019 89.071314 
L 196.90583 89.190402 
L 197.874907 89.296212 
L 198.247629 89.803467 
L 198.545806 89.850707 
L 198.993072 89.676415 
L 199.29125 89.425123 
L 199.589427 89.141367 
L 200.036694 89.24688 
L 200.409416 89.438672 
L 200.707593 89.646642 
L 201.154859 89.630369 
L 201.378493 89.457598 
L 201.751214 89.21751 
L 202.049392 89.248095 
L 202.794836 89.630748 
L 203.093013 89.393635 
L 203.391191 89.222529 
L 203.689368 89.304728 
L 204.211179 89.610703 
L 204.509357 89.474591 
L 204.882078 89.250096 
L 205.180256 89.324935 
L 205.702067 89.566867 
L 206.074789 89.380733 
L 206.44751 89.274763 
L 207.416587 89.423676 
L 207.863854 89.291121 
L 208.832931 89.405796 
L 209.280197 89.305173 
L 210.17473 89.41519 
L 210.69654 89.317322 
L 211.516528 89.415791 
L 212.112883 89.327856 
L 212.858327 89.411376 
L 213.529227 89.336631 
L 214.27467 89.389318 
L 214.94557 89.343321 
L 215.616469 89.3839 
L 216.361913 89.347646 
L 217.032813 89.365902 
L 217.778256 89.349496 
L 218.449156 89.350288 
L 219.1946 89.348942 
L 219.940043 89.328693 
L 220.834576 89.35752 
L 224.338162 89.305401 
L 224.412706 85.817705 
L 224.561795 95.667548 
L 224.785428 105.849388 
L 224.934517 106.525403 
L 225.15815 105.274289 
L 225.754505 101.589597 
L 226.276316 99.663852 
L 226.798126 98.498928 
L 227.245393 97.94048 
L 227.54357 97.757515 
L 227.767203 97.828943 
L 228.438103 97.405324 
L 229.183547 97.149916 
L 230.152624 97.084102 
L 231.419878 97.035453 
L 231.718056 96.831464 
L 232.761677 97.073073 
L 233.730754 97.504909 
L 234.327109 97.286325 
L 234.550742 97.158793 
L 234.84892 96.935482 
L 235.147097 97.014027 
L 236.04163 97.412271 
L 237.085251 97.107329 
L 237.830695 97.338591 
L 238.725227 97.167987 
L 239.247038 97.331907 
L 240.365204 97.258677 
L 240.81247 97.296697 
L 241.557914 97.189991 
L 242.228813 97.285605 
L 242.974257 97.210051 
L 243.645157 97.27507 
L 244.3906 97.228503 
L 245.0615 97.266738 
L 245.806944 97.244121 
L 246.477843 97.261207 
L 247.223287 97.256656 
L 247.968731 97.250288 
L 248.788719 97.278771 
L 250.801417 97.25629 
L 253.634104 97.267258 
L 261.610352 97.300536 
L 261.684897 145.317065 
L 261.759441 142.65184 
L 262.057619 114.465614 
L 262.206707 112.78538 
L 262.355796 113.56495 
L 263.026696 118.733149 
L 263.473962 120.310785 
L 263.921228 121.060239 
L 264.219406 121.371148 
L 264.666672 121.447056 
L 265.337571 121.301599 
L 265.784838 121.032987 
L 266.083015 120.641168 
L 266.530282 120.564682 
L 268.244802 120.599321 
L 269.139335 120.98739 
L 269.512057 121.168853 
L 270.257501 121.422464 
L 270.481134 121.591684 
L 271.748388 121.60879 
L 272.12111 121.447085 
L 272.568376 120.917567 
L 272.941098 121.010149 
L 274.133808 121.522256 
L 274.655619 121.378823 
L 275.028341 121.088202 
L 275.401063 121.09247 
L 275.624696 121.284492 
L 275.922874 121.536431 
L 276.221051 121.531958 
L 276.519229 121.279788 
L 276.817406 121.094481 
L 277.115584 121.168219 
L 277.711939 121.514697 
L 278.010116 121.354447 
L 278.382838 121.144033 
L 278.681016 121.23703 
L 279.128282 121.481302 
L 279.426459 121.391745 
L 279.873726 121.185109 
L 280.246448 121.327725 
L 280.61917 121.453999 
L 280.991891 121.310689 
L 281.364613 121.221554 
L 282.33369 121.346921 
L 282.780957 121.248431 
L 283.750034 121.339157 
L 284.1973 121.2727 
L 285.091832 121.354785 
L 285.613643 121.294868 
L 286.433631 121.364718 
L 287.029986 121.314887 
L 287.77543 121.371277 
L 288.44633 121.332493 
L 289.191773 121.364245 
L 289.862673 121.347488 
L 290.608117 121.360004 
L 291.35356 121.369423 
L 292.099004 121.350835 
L 292.993537 121.388601 
L 298.882543 121.380039 
L 298.957087 75.532056 
L 299.031632 86.774689 
L 299.255265 123.080941 
L 299.478898 129.589095 
L 299.553442 129.434243 
L 299.926164 126.158061 
L 300.37343 123.263599 
L 300.820697 121.840232 
L 301.267963 121.175484 
L 301.566141 120.880775 
L 302.013407 120.811589 
L 302.758851 120.973903 
L 302.982484 121.062623 
L 303.355206 121.550485 
L 303.877016 121.621905 
L 305.740626 121.597832 
L 306.635158 121.26101 
L 307.082425 121.09677 
L 307.455147 120.99519 
L 307.753324 120.685473 
L 309.467845 121.076109 
L 309.766022 121.453076 
L 310.0642 121.506373 
L 310.586011 121.33182 
L 310.809644 121.153876 
L 311.107821 120.906522 
L 311.629632 121.038662 
L 311.92781 121.224722 
L 312.225987 121.408361 
L 312.747798 121.353719 
L 313.269608 121.050177 
L 313.567786 121.11747 
L 314.164141 121.468947 
L 314.462318 121.336344 
L 314.83504 121.11939 
L 315.133218 121.193584 
L 315.655029 121.482394 
L 315.953206 121.373939 
L 316.400472 121.194869 
L 316.773194 121.372236 
L 317.145916 121.490442 
L 317.593182 121.303397 
L 317.965904 121.296612 
L 318.636804 121.493703 
L 319.382248 121.36001 
L 320.053147 121.511002 
L 320.798591 121.421259 
L 321.46949 121.530563 
L 322.14039 121.460693 
L 322.885834 121.55292 
L 323.556733 121.515974 
L 324.302177 121.578332 
L 324.973076 121.567669 
L 325.71852 121.606785 
L 326.389419 121.615818 
L 327.134863 121.638007 
L 327.880307 121.670626 
L 328.77484 121.664513 
L 336.154733 121.880813 
L 336.154733 121.880813 
" clip-path="url(#p0741283550)" style="fill: none; stroke: #ff7f0e; stroke-width: 2; stroke-linecap: square"/>
   </g>
   <g id="line2d_39">
    <path d="M 75.2494 105.473558 
L 75.622122 54.56853 
L 75.920299 39.444144 
L 76.218477 33.266153 
L 76.516654 30.795225 
L 76.814832 29.846912 
L 77.113009 29.512454 
L 77.560276 29.405389 
L 80.392962 29.266501 
L 82.927471 28.569824 
L 84.045637 28.318817 
L 90.605542 27.350541 
L 105.290785 26.023333 
L 112.52159 25.666933 
L 112.596135 96.891545 
L 112.670679 87.476535 
L 112.968857 66.037324 
L 113.267034 59.194698 
L 113.490667 57.696014 
L 113.714301 57.441101 
L 113.937934 57.689024 
L 115.130644 59.542222 
L 115.801543 60.013394 
L 116.621531 60.301682 
L 117.888786 60.473351 
L 119.379674 60.24462 
L 123.40507 59.403102 
L 124.225058 59.425804 
L 127.728644 58.971391 
L 128.623177 58.926146 
L 129.368621 58.839024 
L 130.188609 58.785518 
L 131.008597 58.723741 
L 131.977674 58.62378 
L 138.015769 58.261992 
L 141.519355 58.082924 
L 146.439284 57.895189 
L 149.793781 57.784301 
L 149.94287 111.072256 
L 150.241047 117.791334 
L 150.539225 120.586556 
L 150.837402 121.765461 
L 151.210124 122.359105 
L 151.65739 122.629326 
L 152.626467 122.863481 
L 154.490077 123.060509 
L 168.280787 123.90289 
L 178.567912 124.245869 
L 187.065971 124.416662 
L 187.289605 63.985358 
L 187.587782 37.034588 
L 187.88596 27.391126 
L 188.184137 24.32015 
L 188.40777 23.707464 
L 188.631403 23.66865 
L 189.004125 24.019815 
L 189.749569 24.730727 
L 190.495013 25.082987 
L 191.613179 25.291789 
L 192.284078 25.257527 
L 193.700421 24.911067 
L 196.011297 24.065214 
L 196.682197 23.859996 
L 198.09854 23.662167 
L 198.843984 23.574951 
L 201.005771 23.156998 
L 208.162031 22.103145 
L 210.100185 21.904675 
L 212.634694 21.653819 
L 223.070907 20.90969 
L 224.338162 20.845268 
L 224.487251 114.784435 
L 224.785428 125.309228 
L 225.083606 130.086758 
L 225.456328 132.647676 
L 225.82905 133.721198 
L 226.276316 134.306795 
L 226.872671 134.689312 
L 228.289014 135.226338 
L 229.705357 135.380845 
L 233.730754 135.744598 
L 234.699831 135.768223 
L 235.445275 135.834481 
L 236.637985 135.951771 
L 237.607062 136.061487 
L 240.961559 136.303308 
L 244.316056 136.504668 
L 249.31053 136.763195 
L 261.610352 137.162898 
L 261.759441 105.495678 
L 261.983074 104.658476 
L 262.132163 105.004612 
L 263.548506 110.08711 
L 264.070317 110.883754 
L 264.741216 111.493117 
L 265.561205 111.940171 
L 266.753915 112.330632 
L 268.095714 112.371144 
L 270.257501 112.140381 
L 271.002944 112.070452 
L 272.344743 112.178093 
L 273.015643 112.241116 
L 276.519229 112.216579 
L 277.264672 112.248822 
L 278.084661 112.237457 
L 278.904649 112.250005 
L 279.799181 112.277107 
L 281.81188 112.277012 
L 283.750034 112.294307 
L 285.911821 112.314853 
L 289.117229 112.33291 
L 295.378957 112.371148 
L 298.882543 112.384679 
L 299.106176 94.138943 
L 299.404354 87.578308 
L 299.627987 86.174692 
L 299.85162 85.922465 
L 300.075253 86.151425 
L 301.491596 88.279408 
L 302.23704 88.786171 
L 303.355206 89.235609 
L 304.10065 89.331775 
L 305.591537 89.245471 
L 309.542389 88.8034 
L 310.287833 88.853855 
L 315.282307 88.610844 
L 316.251384 88.578631 
L 318.040449 88.531274 
L 320.351325 88.487763 
L 322.513112 88.446489 
L 327.060319 88.363578 
L 333.247502 88.27772 
L 336.154733 88.247981 
L 336.154733 88.247981 
" clip-path="url(#p0741283550)" style="fill: none; stroke: #2ca02c; stroke-width: 2; stroke-linecap: square"/>
   </g>
   <g id="line2d_40">
    <path d="M 75.2494 105.473558 
L 75.547577 153.173996 
L 75.920299 178.103995 
L 76.293021 187.703982 
L 76.665743 191.570599 
L 77.038465 193.269985 
L 77.485731 194.25223 
L 78.082086 194.951784 
L 78.976619 195.624197 
L 80.094785 196.20958 
L 81.585672 196.716011 
L 86.65469 198.016814 
L 91.052809 198.96284 
L 95.823649 199.74833 
L 101.414478 200.434836 
L 107.974383 201.005487 
L 112.52159 201.292854 
L 112.670679 79.025412 
L 112.968857 47.101535 
L 113.267034 34.63039 
L 113.565212 30.252083 
L 113.788845 29.259521 
L 113.937934 29.116019 
L 114.161567 29.283305 
L 115.801543 31.54481 
L 116.472443 31.850305 
L 117.292431 31.964308 
L 118.261508 31.882278 
L 119.528762 31.535652 
L 123.628703 30.193492 
L 130.635875 28.813361 
L 135.555804 28.114384 
L 141.742988 27.478937 
L 148.75016 26.981857 
L 149.793781 26.923492 
L 149.94287 116.827866 
L 150.241047 130.138453 
L 150.539225 136.111402 
L 150.911947 139.221579 
L 151.284669 140.4172 
L 151.65739 140.914511 
L 152.179201 141.220833 
L 153.222822 141.512192 
L 155.608243 141.888016 
L 165.149923 143.018107 
L 172.678906 143.566126 
L 181.326054 143.964103 
L 187.065971 144.138381 
L 187.21506 85.068907 
L 187.513238 59.686067 
L 187.811415 49.975119 
L 188.109593 46.766447 
L 188.333226 46.173972 
L 188.482315 46.179908 
L 188.780492 46.609855 
L 189.824114 48.414467 
L 190.420469 48.956519 
L 191.165912 49.309451 
L 191.985901 49.450802 
L 192.954978 49.407917 
L 194.222232 49.120443 
L 197.949451 48.078499 
L 203.614824 47.159485 
L 208.385664 46.568769 
L 213.603771 46.088831 
L 220.014588 45.662238 
L 224.338162 45.45135 
L 224.412706 105.064982 
L 224.487251 104.823081 
L 224.710884 104.276797 
L 224.934517 104.227768 
L 225.232694 104.500936 
L 227.170848 106.83783 
L 227.916292 107.309564 
L 228.661736 107.549398 
L 229.556269 107.593649 
L 230.972612 107.40159 
L 232.239866 107.256278 
L 234.699831 107.318643 
L 261.610352 107.411241 
L 261.90853 78.4421 
L 262.206707 66.755462 
L 262.504885 62.583436 
L 262.728518 61.597002 
L 262.952151 61.441923 
L 263.175784 61.669863 
L 264.741216 63.938517 
L 265.48666 64.412653 
L 266.306648 64.668699 
L 267.201181 64.728866 
L 268.244802 64.577678 
L 270.033867 64.034724 
L 271.524755 63.690959 
L 276.221051 63.082207 
L 282.110057 62.476823 
L 289.042685 61.980954 
L 297.4662 61.591087 
L 298.882543 61.542047 
L 299.031632 110.545512 
L 299.478898 117.703435 
L 299.926164 121.900671 
L 300.447975 124.755963 
L 300.969786 126.478193 
L 301.566141 127.681948 
L 302.23704 128.507584 
L 303.057028 129.140309 
L 304.026105 129.575901 
L 305.069726 129.76979 
L 306.262437 129.74978 
L 308.946034 129.586203 
L 314.760496 129.779198 
L 326.389419 129.967497 
L 336.154733 130.053292 
L 336.154733 130.053292 
" clip-path="url(#p0741283550)" style="fill: none; stroke: #d62728; stroke-width: 2; stroke-linecap: square"/>
   </g>
   <g id="patch_3">
    <path d="M 62.204133 211.381683 
L 62.204133 10.8 
" style="fill: none; stroke: #000000; stroke-width: 0.8; stroke-linejoin: miter; stroke-linecap: square"/>
   </g>
   <g id="patch_4">
    <path d="M 349.2 211.381683 
L 349.2 10.8 
" style="fill: none; stroke: #000000; stroke-width: 0.8; stroke-linejoin: miter; stroke-linecap: square"/>
   </g>
   <g id="patch_5">
    <path d="M 62.204133 211.381683 
L 349.2 211.381683 
" style="fill: none; stroke: #000000; stroke-width: 0.8; stroke-linejoin: miter; stroke-linecap: square"/>
   </g>
   <g id="patch_6">
    <path d="M 62.204133 10.8 
L 349.2 10.8 
" style="fill: none; stroke: #000000; stroke-width: 0.8; stroke-linejoin: miter; stroke-linecap: square"/>
   </g>
   <g id="legend_1">
    <g id="patch_7">
     <path d="M 69.204133 177.214604 
L 121.391234 177.214604 
Q 123.391234 177.214604 123.391234 175.214604 
L 123.391234 46.967079 
Q 123.391234 44.967079 121.391234 44.967079 
L 69.204133 44.967079 
Q 67.204133 44.967079 67.204133 46.967079 
L 67.204133 175.214604 
Q 67.204133 177.214604 69.204133 177.214604 
z
" style="fill: #ffffff; opacity: 0.8; stroke: #cccccc; stroke-linejoin: miter"/>
    </g>
    <g id="line2d_41">
     <path d="M 71.204133 53.925381 
L 81.204133 53.925381 
L 91.204133 53.925381 
" style="fill: none; stroke-dasharray: 3.5,5.775; stroke-dashoffset: 0; stroke: #1f77b4; stroke-width: 3.5"/>
    </g>
    <g id="text_19">
     <!-- $\sigma_{\mathrm{sh},1}^\mathrm{d}$ -->
     <g transform="translate(99.204133 57.425381) scale(0.1 -0.1)">
      <defs>
       <path id="CMR17-68" d="M 2656 1933 
C 2656 2259 2592 2790 1837 2790 
C 1312 2790 1056 2368 979 2157 
L 973 2157 
L 973 4396 
L 211 4326 
L 211 4160 
C 589 4160 646 4122 646 3817 
L 646 426 
C 646 184 621 153 211 153 
L 211 -13 
C 365 0 646 0 813 0 
C 979 0 1267 0 1421 -13 
L 1421 153 
C 1011 153 986 178 986 428 
L 986 1658 
C 986 2247 1344 2688 1792 2688 
C 2266 2688 2317 2266 2317 1958 
L 2317 428 
C 2317 184 2291 153 1882 153 
L 1882 -13 
C 2035 0 2317 0 2483 0 
C 2650 0 2938 0 3091 -13 
L 3091 153 
C 2682 153 2656 178 2656 428 
L 2656 1933 
z
" transform="scale(0.015625)"/>
       <path id="CMMI12-3b" d="M 1248 -31 
C 1248 343 1126 619 864 619 
C 659 619 557 453 557 313 
C 557 172 653 0 870 0 
C 954 0 1024 26 1082 83 
C 1094 96 1101 96 1107 96 
C 1120 96 1120 5 1120 -27 
C 1120 -240 1082 -659 710 -1080 
C 640 -1157 640 -1170 640 -1183 
C 640 -1216 672 -1248 704 -1248 
C 755 -1248 1248 -771 1248 -31 
z
" transform="scale(0.015625)"/>
      </defs>
      <use xlink:href="#CMMI12-1b" transform="scale(0.996264)"/>
      <use xlink:href="#CMR17-64" transform="translate(59.020054 36.153639) scale(0.697382)"/>
      <use xlink:href="#CMR17-73" transform="translate(55.445461 -28.215451) scale(0.697382)"/>
      <use xlink:href="#CMR17-68" transform="translate(80.506283 -28.215451) scale(0.697382)"/>
      <use xlink:href="#CMMI12-3b" transform="translate(116.132892 -28.215451) scale(0.697382)"/>
      <use xlink:href="#CMR17-31" transform="translate(135.100824 -28.215451) scale(0.697382)"/>
     </g>
    </g>
    <g id="line2d_42">
     <path d="M 71.204133 71.561209 
L 81.204133 71.561209 
L 91.204133 71.561209 
" style="fill: none; stroke-dasharray: 3.5,5.775; stroke-dashoffset: 0; stroke: #ff7f0e; stroke-width: 3.5"/>
    </g>
    <g id="text_20">
     <!-- $\sigma_{\mathrm{sh},2}^\mathrm{d}$ -->
     <g transform="translate(99.204133 75.061209) scale(0.1 -0.1)">
      <use xlink:href="#CMMI12-1b" transform="scale(0.996264)"/>
      <use xlink:href="#CMR17-64" transform="translate(59.020054 36.153639) scale(0.697382)"/>
      <use xlink:href="#CMR17-73" transform="translate(55.445461 -28.215451) scale(0.697382)"/>
      <use xlink:href="#CMR17-68" transform="translate(80.506283 -28.215451) scale(0.697382)"/>
      <use xlink:href="#CMMI12-3b" transform="translate(116.132892 -28.215451) scale(0.697382)"/>
      <use xlink:href="#CMR17-32" transform="translate(135.100824 -28.215451) scale(0.697382)"/>
     </g>
    </g>
    <g id="line2d_43">
     <path d="M 71.204133 89.197037 
L 81.204133 89.197037 
L 91.204133 89.197037 
" style="fill: none; stroke-dasharray: 3.5,5.775; stroke-dashoffset: 0; stroke: #2ca02c; stroke-width: 3.5"/>
    </g>
    <g id="text_21">
     <!-- $\sigma_{\mathrm{ax},1}^\mathrm{d}$ -->
     <g transform="translate(99.204133 92.697037) scale(0.1 -0.1)">
      <defs>
       <path id="CMR17-78" d="M 1664 1477 
C 1856 1726 2074 2006 2253 2216 
C 2464 2458 2707 2560 2989 2560 
L 2989 2726 
C 2880 2726 2656 2726 2541 2726 
C 2368 2726 2170 2726 2022 2732 
L 2022 2566 
C 2112 2553 2163 2489 2163 2400 
C 2163 2285 2099 2215 2067 2171 
L 1594 1573 
L 1030 2306 
C 973 2376 973 2388 973 2420 
C 973 2497 1037 2560 1146 2560 
L 1146 2732 
C 992 2726 717 2726 557 2726 
C 384 2726 179 2726 38 2732 
L 38 2560 
C 384 2560 461 2534 614 2343 
L 1350 1395 
C 1363 1382 1395 1344 1395 1325 
C 1395 1299 838 619 768 530 
C 480 185 179 160 6 160 
L 6 0 
C 115 0 339 0 454 0 
C 582 0 864 0 979 -6 
L 979 160 
C 941 166 838 179 838 325 
C 838 440 890 510 947 586 
L 1478 1236 
L 2035 512 
C 2086 442 2163 346 2163 301 
C 2163 211 2086 160 1984 160 
L 1984 -6 
C 2138 0 2413 0 2573 0 
C 2746 0 2950 0 3091 -6 
L 3091 160 
C 2771 160 2675 172 2522 370 
L 1664 1477 
z
" transform="scale(0.015625)"/>
      </defs>
      <use xlink:href="#CMMI12-1b" transform="scale(0.996264)"/>
      <use xlink:href="#CMR17-64" transform="translate(59.020054 36.153639) scale(0.697382)"/>
      <use xlink:href="#CMR17-61" transform="translate(55.445461 -24.740171) scale(0.697382)"/>
      <use xlink:href="#CMR17-78" transform="translate(87.428643 -24.740171) scale(0.697382)"/>
      <use xlink:href="#CMMI12-3b" transform="translate(121.23353 -24.740171) scale(0.697382)"/>
      <use xlink:href="#CMR17-31" transform="translate(140.201463 -24.740171) scale(0.697382)"/>
     </g>
    </g>
    <g id="line2d_44">
     <path d="M 71.204133 106.484182 
L 81.204133 106.484182 
L 91.204133 106.484182 
" style="fill: none; stroke-dasharray: 3.5,5.775; stroke-dashoffset: 0; stroke: #d62728; stroke-width: 3.5"/>
    </g>
    <g id="text_22">
     <!-- $\sigma_{\mathrm{ax},2}^\mathrm{d}$ -->
     <g transform="translate(99.204133 109.984182) scale(0.1 -0.1)">
      <use xlink:href="#CMMI12-1b" transform="scale(0.996264)"/>
      <use xlink:href="#CMR17-64" transform="translate(59.020054 36.153639) scale(0.697382)"/>
      <use xlink:href="#CMR17-61" transform="translate(55.445461 -24.740171) scale(0.697382)"/>
      <use xlink:href="#CMR17-78" transform="translate(87.428643 -24.740171) scale(0.697382)"/>
      <use xlink:href="#CMMI12-3b" transform="translate(121.23353 -24.740171) scale(0.697382)"/>
      <use xlink:href="#CMR17-32" transform="translate(140.201463 -24.740171) scale(0.697382)"/>
     </g>
    </g>
    <g id="line2d_45">
     <path d="M 71.204133 122.313024 
L 81.204133 122.313024 
L 91.204133 122.313024 
" style="fill: none; stroke: #1f77b4; stroke-width: 2; stroke-linecap: square"/>
    </g>
    <g id="text_23">
     <!-- $\sigma_{\mathrm{sh},1}$ -->
     <g transform="translate(99.204133 125.813024) scale(0.1 -0.1)">
      <use xlink:href="#CMMI12-1b" transform="scale(0.996264)"/>
      <use xlink:href="#CMR17-73" transform="translate(55.445461 -14.943915) scale(0.697382)"/>
      <use xlink:href="#CMR17-68" transform="translate(80.506283 -14.943915) scale(0.697382)"/>
      <use xlink:href="#CMMI12-3b" transform="translate(116.132892 -14.943915) scale(0.697382)"/>
      <use xlink:href="#CMR17-31" transform="translate(135.100824 -14.943915) scale(0.697382)"/>
     </g>
    </g>
    <g id="line2d_46">
     <path d="M 71.204133 137.163419 
L 81.204133 137.163419 
L 91.204133 137.163419 
" style="fill: none; stroke: #ff7f0e; stroke-width: 2; stroke-linecap: square"/>
    </g>
    <g id="text_24">
     <!-- $\sigma_{\mathrm{sh},2}$ -->
     <g transform="translate(99.204133 140.663419) scale(0.1 -0.1)">
      <use xlink:href="#CMMI12-1b" transform="scale(0.996264)"/>
      <use xlink:href="#CMR17-73" transform="translate(55.445461 -14.943915) scale(0.697382)"/>
      <use xlink:href="#CMR17-68" transform="translate(80.506283 -14.943915) scale(0.697382)"/>
      <use xlink:href="#CMMI12-3b" transform="translate(116.132892 -14.943915) scale(0.697382)"/>
      <use xlink:href="#CMR17-32" transform="translate(135.100824 -14.943915) scale(0.697382)"/>
     </g>
    </g>
    <g id="line2d_47">
     <path d="M 71.204133 152.013814 
L 81.204133 152.013814 
L 91.204133 152.013814 
" style="fill: none; stroke: #2ca02c; stroke-width: 2; stroke-linecap: square"/>
    </g>
    <g id="text_25">
     <!-- $\sigma_{\mathrm{ax},1}$ -->
     <g transform="translate(99.204133 155.513814) scale(0.1 -0.1)">
      <use xlink:href="#CMMI12-1b" transform="scale(0.996264)"/>
      <use xlink:href="#CMR17-61" transform="translate(55.445461 -14.943915) scale(0.697382)"/>
      <use xlink:href="#CMR17-78" transform="translate(87.428643 -14.943915) scale(0.697382)"/>
      <use xlink:href="#CMMI12-3b" transform="translate(121.23353 -14.943915) scale(0.697382)"/>
      <use xlink:href="#CMR17-31" transform="translate(140.201463 -14.943915) scale(0.697382)"/>
     </g>
    </g>
    <g id="line2d_48">
     <path d="M 71.204133 166.864209 
L 81.204133 166.864209 
L 91.204133 166.864209 
" style="fill: none; stroke: #d62728; stroke-width: 2; stroke-linecap: square"/>
    </g>
    <g id="text_26">
     <!-- $\sigma_{\mathrm{ax},2}$ -->
     <g transform="translate(99.204133 170.364209) scale(0.1 -0.1)">
      <use xlink:href="#CMMI12-1b" transform="scale(0.996264)"/>
      <use xlink:href="#CMR17-61" transform="translate(55.445461 -14.943915) scale(0.697382)"/>
      <use xlink:href="#CMR17-78" transform="translate(87.428643 -14.943915) scale(0.697382)"/>
      <use xlink:href="#CMMI12-3b" transform="translate(121.23353 -14.943915) scale(0.697382)"/>
      <use xlink:href="#CMR17-32" transform="translate(140.201463 -14.943915) scale(0.697382)"/>
     </g>
    </g>
   </g>
  </g>
 </g>
 <defs>
  <clipPath id="p0741283550">
   <rect x="62.204133" y="10.8" width="286.995867" height="200.581683"/>
  </clipPath>
 </defs>
</svg>
