<?xml version="1.0" encoding="utf-8" standalone="no"?>
<!DOCTYPE svg PUBLIC "-//W3C//DTD SVG 1.1//EN"
  "http://www.w3.org/Graphics/SVG/1.1/DTD/svg11.dtd">
<svg xmlns:xlink="http://www.w3.org/1999/xlink" width="360pt" height="216pt" viewBox="0 0 360 216" xmlns="http://www.w3.org/2000/svg" version="1.1">
 <metadata>
  <rdf:RDF xmlns:dc="http://purl.org/dc/elements/1.1/" xmlns:cc="http://creativecommons.org/ns#" xmlns:rdf="http://www.w3.org/1999/02/22-rdf-syntax-ns#">
   <cc:Work>
    <dc:type rdf:resource="http://purl.org/dc/dcmitype/StillImage"/>
    <dc:date>2024-10-24T18:03:53.276179</dc:date>
    <dc:format>image/svg+xml</dc:format>
    <dc:creator>
     <cc:Agent>
      <dc:title>Matplotlib v3.9.2, https://matplotlib.org/</dc:title>
     </cc:Agent>
    </dc:creator>
   </cc:Work>
  </rdf:RDF>
 </metadata>
 <defs>
  <style type="text/css">*{stroke-linejoin: round; stroke-linecap: butt}</style>
 </defs>
 <g id="figure_1">
  <g id="patch_1">
   <path d="M 0 216 
L 360 216 
L 360 0 
L 0 0 
z
" style="fill: #ffffff"/>
  </g>
  <g id="axes_1">
   <g id="patch_2">
    <path d="M 62.204133 175.381683 
L 349.2 175.381683 
L 349.2 10.8 
L 62.204133 10.8 
z
" style="fill: #ffffff"/>
   </g>
   <g id="matplotlib.axis_1">
    <g id="xtick_1">
     <g id="line2d_1">
      <path d="M 75.2494 175.381683 
L 75.2494 10.8 
" clip-path="url(#pb4413afe4c)" style="fill: none; stroke: #b0b0b0; stroke-width: 0.8; stroke-linecap: square"/>
     </g>
     <g id="line2d_2">
      <defs>
       <path id="m3feaf63cff" d="M 0 0 
L 0 3.5 
" style="stroke: #000000; stroke-width: 0.8"/>
      </defs>
      <g>
       <use xlink:href="#m3feaf63cff" x="75.2494" y="175.381683" style="stroke: #000000; stroke-width: 0.8"/>
      </g>
     </g>
     <g id="text_1">
      <!-- $\mathdefault{0}$ -->
      <g transform="translate(72.758732 189.300182) scale(0.1 -0.1)">
       <defs>
        <path id="CMR17-30" d="M 2688 2025 
C 2688 2416 2682 3080 2413 3591 
C 2176 4039 1798 4198 1466 4198 
C 1158 4198 768 4058 525 3597 
C 269 3118 243 2524 243 2025 
C 243 1661 250 1106 448 619 
C 723 -39 1216 -128 1466 -128 
C 1760 -128 2208 -7 2470 600 
C 2662 1042 2688 1559 2688 2025 
z
M 1466 -26 
C 1056 -26 813 325 723 812 
C 653 1188 653 1738 653 2096 
C 653 2588 653 2997 736 3387 
C 858 3929 1216 4096 1466 4096 
C 1728 4096 2067 3923 2189 3400 
C 2272 3036 2278 2607 2278 2096 
C 2278 1680 2278 1169 2202 792 
C 2067 95 1690 -26 1466 -26 
z
" transform="scale(0.015625)"/>
       </defs>
       <use xlink:href="#CMR17-30" transform="scale(0.996264)"/>
      </g>
     </g>
    </g>
    <g id="xtick_2">
     <g id="line2d_3">
      <path d="M 112.52159 175.381683 
L 112.52159 10.8 
" clip-path="url(#pb4413afe4c)" style="fill: none; stroke: #b0b0b0; stroke-width: 0.8; stroke-linecap: square"/>
     </g>
     <g id="line2d_4">
      <g>
       <use xlink:href="#m3feaf63cff" x="112.52159" y="175.381683" style="stroke: #000000; stroke-width: 0.8"/>
      </g>
     </g>
     <g id="text_2">
      <!-- $\mathdefault{5}$ -->
      <g transform="translate(110.030923 189.300182) scale(0.1 -0.1)">
       <defs>
        <path id="CMR17-35" d="M 730 3692 
C 794 3666 1056 3584 1325 3584 
C 1920 3584 2246 3911 2432 4100 
C 2432 4157 2432 4192 2394 4192 
C 2387 4192 2374 4192 2323 4163 
C 2099 4058 1837 3973 1517 3973 
C 1325 3973 1037 3999 723 4139 
C 653 4171 640 4171 634 4171 
C 602 4171 595 4164 595 4037 
L 595 2203 
C 595 2089 595 2057 659 2057 
C 691 2057 704 2070 736 2114 
C 941 2401 1222 2522 1542 2522 
C 1766 2522 2246 2382 2246 1289 
C 2246 1085 2246 715 2054 421 
C 1894 159 1645 25 1370 25 
C 947 25 518 320 403 814 
C 429 807 480 795 506 795 
C 589 795 749 840 749 1038 
C 749 1210 627 1280 506 1280 
C 358 1280 262 1190 262 1011 
C 262 454 704 -128 1382 -128 
C 2042 -128 2669 440 2669 1264 
C 2669 2030 2170 2624 1549 2624 
C 1222 2624 947 2503 730 2274 
L 730 3692 
z
" transform="scale(0.015625)"/>
       </defs>
       <use xlink:href="#CMR17-35" transform="scale(0.996264)"/>
      </g>
     </g>
    </g>
    <g id="xtick_3">
     <g id="line2d_5">
      <path d="M 149.793781 175.381683 
L 149.793781 10.8 
" clip-path="url(#pb4413afe4c)" style="fill: none; stroke: #b0b0b0; stroke-width: 0.8; stroke-linecap: square"/>
     </g>
     <g id="line2d_6">
      <g>
       <use xlink:href="#m3feaf63cff" x="149.793781" y="175.381683" style="stroke: #000000; stroke-width: 0.8"/>
      </g>
     </g>
     <g id="text_3">
      <!-- $\mathdefault{10}$ -->
      <g transform="translate(144.812446 189.300182) scale(0.1 -0.1)">
       <defs>
        <path id="CMR17-31" d="M 1702 4058 
C 1702 4192 1696 4192 1606 4192 
C 1357 3916 979 3827 621 3827 
C 602 3827 570 3827 563 3808 
C 557 3795 557 3782 557 3648 
C 755 3648 1088 3686 1344 3839 
L 1344 461 
C 1344 236 1331 160 781 160 
L 589 160 
L 589 0 
C 896 0 1216 0 1523 0 
C 1830 0 2150 0 2458 0 
L 2458 160 
L 2266 160 
C 1715 160 1702 230 1702 458 
L 1702 4058 
z
" transform="scale(0.015625)"/>
       </defs>
       <use xlink:href="#CMR17-31" transform="scale(0.996264)"/>
       <use xlink:href="#CMR17-30" transform="translate(45.690477 0) scale(0.996264)"/>
      </g>
     </g>
    </g>
    <g id="xtick_4">
     <g id="line2d_7">
      <path d="M 187.065971 175.381683 
L 187.065971 10.8 
" clip-path="url(#pb4413afe4c)" style="fill: none; stroke: #b0b0b0; stroke-width: 0.8; stroke-linecap: square"/>
     </g>
     <g id="line2d_8">
      <g>
       <use xlink:href="#m3feaf63cff" x="187.065971" y="175.381683" style="stroke: #000000; stroke-width: 0.8"/>
      </g>
     </g>
     <g id="text_4">
      <!-- $\mathdefault{15}$ -->
      <g transform="translate(182.084636 189.300182) scale(0.1 -0.1)">
       <use xlink:href="#CMR17-31" transform="scale(0.996264)"/>
       <use xlink:href="#CMR17-35" transform="translate(45.690477 0) scale(0.996264)"/>
      </g>
     </g>
    </g>
    <g id="xtick_5">
     <g id="line2d_9">
      <path d="M 224.338162 175.381683 
L 224.338162 10.8 
" clip-path="url(#pb4413afe4c)" style="fill: none; stroke: #b0b0b0; stroke-width: 0.8; stroke-linecap: square"/>
     </g>
     <g id="line2d_10">
      <g>
       <use xlink:href="#m3feaf63cff" x="224.338162" y="175.381683" style="stroke: #000000; stroke-width: 0.8"/>
      </g>
     </g>
     <g id="text_5">
      <!-- $\mathdefault{20}$ -->
      <g transform="translate(219.356827 189.300182) scale(0.1 -0.1)">
       <defs>
        <path id="CMR17-32" d="M 2669 989 
L 2554 989 
C 2490 536 2438 459 2413 420 
C 2381 369 1920 369 1830 369 
L 602 369 
C 832 619 1280 1072 1824 1597 
C 2214 1967 2669 2402 2669 3035 
C 2669 3790 2067 4224 1395 4224 
C 691 4224 262 3604 262 3030 
C 262 2780 448 2748 525 2748 
C 589 2748 781 2787 781 3010 
C 781 3207 614 3264 525 3264 
C 486 3264 448 3258 422 3245 
C 544 3790 915 4058 1306 4058 
C 1862 4058 2227 3617 2227 3035 
C 2227 2479 1901 2000 1536 1584 
L 262 146 
L 262 0 
L 2515 0 
L 2669 989 
z
" transform="scale(0.015625)"/>
       </defs>
       <use xlink:href="#CMR17-32" transform="scale(0.996264)"/>
       <use xlink:href="#CMR17-30" transform="translate(45.690477 0) scale(0.996264)"/>
      </g>
     </g>
    </g>
    <g id="xtick_6">
     <g id="line2d_11">
      <path d="M 261.610352 175.381683 
L 261.610352 10.8 
" clip-path="url(#pb4413afe4c)" style="fill: none; stroke: #b0b0b0; stroke-width: 0.8; stroke-linecap: square"/>
     </g>
     <g id="line2d_12">
      <g>
       <use xlink:href="#m3feaf63cff" x="261.610352" y="175.381683" style="stroke: #000000; stroke-width: 0.8"/>
      </g>
     </g>
     <g id="text_6">
      <!-- $\mathdefault{25}$ -->
      <g transform="translate(256.629017 189.300182) scale(0.1 -0.1)">
       <use xlink:href="#CMR17-32" transform="scale(0.996264)"/>
       <use xlink:href="#CMR17-35" transform="translate(45.690477 0) scale(0.996264)"/>
      </g>
     </g>
    </g>
    <g id="xtick_7">
     <g id="line2d_13">
      <path d="M 298.882543 175.381683 
L 298.882543 10.8 
" clip-path="url(#pb4413afe4c)" style="fill: none; stroke: #b0b0b0; stroke-width: 0.8; stroke-linecap: square"/>
     </g>
     <g id="line2d_14">
      <g>
       <use xlink:href="#m3feaf63cff" x="298.882543" y="175.381683" style="stroke: #000000; stroke-width: 0.8"/>
      </g>
     </g>
     <g id="text_7">
      <!-- $\mathdefault{30}$ -->
      <g transform="translate(293.901208 189.300182) scale(0.1 -0.1)">
       <defs>
        <path id="CMR17-33" d="M 1414 2157 
C 1984 2157 2234 1662 2234 1090 
C 2234 320 1824 25 1453 25 
C 1114 25 563 194 390 693 
C 422 680 454 680 486 680 
C 640 680 755 782 755 948 
C 755 1133 614 1216 486 1216 
C 378 1216 211 1165 211 926 
C 211 335 787 -128 1466 -128 
C 2176 -128 2720 430 2720 1085 
C 2720 1707 2208 2157 1600 2227 
C 2086 2328 2554 2756 2554 3329 
C 2554 3820 2048 4179 1472 4179 
C 890 4179 378 3829 378 3329 
C 378 3110 544 3072 627 3072 
C 762 3072 877 3155 877 3321 
C 877 3486 762 3569 627 3569 
C 602 3569 570 3569 544 3557 
C 730 3959 1235 4032 1459 4032 
C 1683 4032 2106 3925 2106 3320 
C 2106 3143 2080 2828 1862 2550 
C 1670 2304 1453 2304 1242 2284 
C 1210 2284 1062 2269 1037 2269 
C 992 2263 966 2257 966 2208 
C 966 2163 973 2157 1101 2157 
L 1414 2157 
z
" transform="scale(0.015625)"/>
       </defs>
       <use xlink:href="#CMR17-33" transform="scale(0.996264)"/>
       <use xlink:href="#CMR17-30" transform="translate(45.690477 0) scale(0.996264)"/>
      </g>
     </g>
    </g>
    <g id="xtick_8">
     <g id="line2d_15">
      <path d="M 336.154733 175.381683 
L 336.154733 10.8 
" clip-path="url(#pb4413afe4c)" style="fill: none; stroke: #b0b0b0; stroke-width: 0.8; stroke-linecap: square"/>
     </g>
     <g id="line2d_16">
      <g>
       <use xlink:href="#m3feaf63cff" x="336.154733" y="175.381683" style="stroke: #000000; stroke-width: 0.8"/>
      </g>
     </g>
     <g id="text_8">
      <!-- $\mathdefault{35}$ -->
      <g transform="translate(331.173398 189.300182) scale(0.1 -0.1)">
       <use xlink:href="#CMR17-33" transform="scale(0.996264)"/>
       <use xlink:href="#CMR17-35" transform="translate(45.690477 0) scale(0.996264)"/>
      </g>
     </g>
    </g>
    <g id="text_9">
     <!-- Time $t$ [s] -->
     <g transform="translate(184.503759 202.70934) scale(0.1 -0.1)">
      <defs>
       <path id="CMR17-54" d="M 3981 4326 
L 288 4326 
L 179 2918 
L 294 2918 
C 378 3976 467 4160 1453 4160 
C 1568 4160 1754 4160 1805 4154 
C 1926 4135 1926 4058 1926 3912 
L 1926 459 
C 1926 230 1907 160 1376 160 
L 1197 160 
L 1197 0 
C 1504 0 1824 0 2138 0 
C 2451 0 2771 0 3078 0 
L 3078 160 
L 2899 160 
C 2368 160 2349 230 2349 459 
L 2349 3912 
C 2349 4052 2349 4129 2464 4154 
C 2515 4160 2701 4160 2816 4160 
C 3795 4160 3891 3976 3974 2918 
L 4090 2918 
L 3981 4326 
z
" transform="scale(0.015625)"/>
       <path id="CMR17-69" d="M 992 3909 
C 992 4049 877 4170 730 4170 
C 589 4170 467 4056 467 3909 
C 467 3769 582 3648 730 3648 
C 870 3648 992 3763 992 3909 
z
M 243 2706 
L 243 2541 
C 602 2541 653 2502 653 2197 
L 653 427 
C 653 184 627 153 218 153 
L 218 -13 
C 371 0 646 0 806 0 
C 960 0 1222 0 1370 -13 
L 1370 153 
C 992 153 979 191 979 420 
L 979 2776 
L 243 2706 
z
" transform="scale(0.015625)"/>
       <path id="CMR17-6d" d="M 4326 1933 
C 4326 2252 4269 2790 3507 2790 
C 3072 2790 2771 2496 2656 2151 
L 2650 2151 
C 2573 2676 2195 2790 1837 2790 
C 1331 2790 1069 2400 973 2144 
L 966 2144 
L 966 2790 
L 211 2720 
L 211 2554 
C 589 2554 646 2515 646 2208 
L 646 428 
C 646 184 621 153 211 153 
L 211 -13 
C 365 0 646 0 813 0 
C 979 0 1267 0 1421 -13 
L 1421 153 
C 1011 153 986 178 986 428 
L 986 1658 
C 986 2247 1344 2688 1792 2688 
C 2266 2688 2317 2266 2317 1958 
L 2317 428 
C 2317 184 2291 153 1882 153 
L 1882 -13 
C 2035 0 2317 0 2483 0 
C 2650 0 2938 0 3091 -13 
L 3091 153 
C 2682 153 2656 178 2656 428 
L 2656 1658 
C 2656 2247 3014 2688 3462 2688 
C 3936 2688 3987 2266 3987 1958 
L 3987 428 
C 3987 184 3962 153 3552 153 
L 3552 -13 
C 3706 0 3987 0 4154 0 
C 4320 0 4608 0 4762 -13 
L 4762 153 
C 4352 153 4326 178 4326 428 
L 4326 1933 
z
" transform="scale(0.015625)"/>
       <path id="CMR17-65" d="M 2438 1472 
C 2464 1498 2464 1511 2464 1576 
C 2464 2238 2118 2816 1389 2816 
C 710 2816 173 2169 173 1383 
C 173 551 781 -64 1459 -64 
C 2176 -64 2458 607 2458 740 
C 2458 784 2419 784 2406 784 
C 2362 784 2355 771 2330 696 
C 2189 265 1837 51 1504 51 
C 1229 51 954 203 781 480 
C 582 803 582 1176 582 1472 
L 2438 1472 
z
M 589 1568 
C 634 2505 1126 2714 1382 2714 
C 1818 2714 2112 2297 2118 1568 
L 589 1568 
z
" transform="scale(0.015625)"/>
       <path id="CMMI12-74" d="M 1286 2566 
L 1875 2566 
C 1997 2566 2061 2566 2061 2681 
C 2061 2752 2022 2752 1894 2752 
L 1331 2752 
L 1568 3692 
C 1594 3781 1594 3794 1594 3840 
C 1594 3943 1510 4000 1427 4000 
C 1376 4000 1229 3981 1178 3775 
L 928 2752 
L 326 2752 
C 198 2752 141 2752 141 2630 
C 141 2566 186 2566 307 2566 
L 877 2566 
L 454 881 
C 403 658 384 594 384 511 
C 384 211 595 -64 954 -64 
C 1600 -64 1946 868 1946 912 
C 1946 951 1920 970 1882 970 
C 1869 970 1843 970 1830 944 
C 1824 938 1818 931 1773 829 
C 1638 511 1344 64 973 64 
C 781 64 768 224 768 364 
C 768 370 768 492 787 568 
L 1286 2566 
z
" transform="scale(0.015625)"/>
       <path id="CMR17-5b" d="M 1504 -1600 
L 1504 -1377 
L 902 -1377 
L 902 4544 
L 1504 4544 
L 1504 4767 
L 678 4767 
L 678 -1600 
L 1504 -1600 
z
" transform="scale(0.015625)"/>
       <path id="CMR17-73" d="M 1978 2697 
C 1978 2813 1971 2819 1933 2819 
C 1907 2819 1901 2813 1824 2717 
C 1805 2691 1747 2626 1728 2601 
C 1523 2819 1235 2819 1126 2819 
C 416 2819 160 2447 160 2076 
C 160 1498 813 1365 998 1325 
C 1402 1243 1542 1217 1677 1101 
C 1760 1025 1901 884 1901 654 
C 1901 384 1747 38 1158 38 
C 602 38 403 460 288 1021 
C 269 1110 269 1117 218 1117 
C 166 1117 160 1110 160 983 
L 160 63 
C 160 -51 166 -58 205 -58 
C 237 -58 243 -51 275 0 
C 314 57 410 211 448 276 
C 576 103 800 -64 1158 -64 
C 1792 -64 2131 283 2131 784 
C 2131 1112 1958 1285 1875 1362 
C 1683 1561 1459 1606 1190 1657 
C 838 1735 390 1825 390 2217 
C 390 2383 480 2737 1126 2737 
C 1811 2737 1850 2094 1862 1888 
C 1869 1856 1901 1849 1920 1849 
C 1978 1849 1978 1869 1978 1978 
L 1978 2697 
z
" transform="scale(0.015625)"/>
       <path id="CMR17-5d" d="M 915 4767 
L 90 4767 
L 90 4544 
L 691 4544 
L 691 -1377 
L 90 -1377 
L 90 -1600 
L 915 -1600 
L 915 4767 
z
" transform="scale(0.015625)"/>
      </defs>
      <use xlink:href="#CMR17-54" transform="scale(0.996264)"/>
      <use xlink:href="#CMR17-69" transform="translate(66.509881 0) scale(0.996264)"/>
      <use xlink:href="#CMR17-6d" transform="translate(91.380939 0) scale(0.996264)"/>
      <use xlink:href="#CMR17-65" transform="translate(168.300529 0) scale(0.996264)"/>
      <use xlink:href="#CMMI12-74" transform="translate(238.862156 0) scale(0.996264)"/>
      <use xlink:href="#CMR17-5b" transform="translate(304.164452 0) scale(0.996264)"/>
      <use xlink:href="#CMR17-73" transform="translate(329.035511 0) scale(0.996264)"/>
      <use xlink:href="#CMR17-5d" transform="translate(364.836848 0) scale(0.996264)"/>
     </g>
    </g>
   </g>
   <g id="matplotlib.axis_2">
    <g id="ytick_1">
     <g id="line2d_17">
      <path d="M 62.204133 171.890354 
L 349.2 171.890354 
" clip-path="url(#pb4413afe4c)" style="fill: none; stroke: #b0b0b0; stroke-width: 0.8; stroke-linecap: square"/>
     </g>
     <g id="line2d_18">
      <defs>
       <path id="md188cee896" d="M 0 0 
L -3.5 0 
" style="stroke: #000000; stroke-width: 0.8"/>
      </defs>
      <g>
       <use xlink:href="#md188cee896" x="62.204133" y="171.890354" style="stroke: #000000; stroke-width: 0.8"/>
      </g>
     </g>
     <g id="text_10">
      <!-- $\mathdefault{−0.100}$ -->
      <g transform="translate(24.76264 175.349603) scale(0.1 -0.1)">
       <defs>
        <path id="CMSY10-0" d="M 4218 1472 
C 4326 1472 4442 1472 4442 1600 
C 4442 1728 4326 1728 4218 1728 
L 755 1728 
C 646 1728 531 1728 531 1600 
C 531 1472 646 1472 755 1472 
L 4218 1472 
z
" transform="scale(0.015625)"/>
        <path id="CMMI12-3a" d="M 1178 307 
C 1178 492 1024 619 870 619 
C 685 619 557 466 557 313 
C 557 128 710 0 864 0 
C 1050 0 1178 153 1178 307 
z
" transform="scale(0.015625)"/>
       </defs>
       <use xlink:href="#CMSY10-0" transform="scale(0.996264)"/>
       <use xlink:href="#CMR17-30" transform="translate(77.487468 0) scale(0.996264)"/>
       <use xlink:href="#CMMI12-3a" transform="translate(123.177945 0) scale(0.996264)"/>
       <use xlink:href="#CMR17-31" transform="translate(150.275122 0) scale(0.996264)"/>
       <use xlink:href="#CMR17-30" transform="translate(195.965599 0) scale(0.996264)"/>
       <use xlink:href="#CMR17-30" transform="translate(241.656076 0) scale(0.996264)"/>
      </g>
     </g>
    </g>
    <g id="ytick_2">
     <g id="line2d_19">
      <path d="M 62.204133 151.0382 
L 349.2 151.0382 
" clip-path="url(#pb4413afe4c)" style="fill: none; stroke: #b0b0b0; stroke-width: 0.8; stroke-linecap: square"/>
     </g>
     <g id="line2d_20">
      <g>
       <use xlink:href="#md188cee896" x="62.204133" y="151.0382" style="stroke: #000000; stroke-width: 0.8"/>
      </g>
     </g>
     <g id="text_11">
      <!-- $\mathdefault{−0.075}$ -->
      <g transform="translate(24.76264 154.497449) scale(0.1 -0.1)">
       <defs>
        <path id="CMR17-37" d="M 2886 3941 
L 2886 4081 
L 1382 4081 
C 634 4081 621 4165 595 4288 
L 480 4288 
L 294 3094 
L 410 3094 
C 429 3215 474 3540 550 3661 
C 589 3712 1062 3712 1171 3712 
L 2579 3712 
L 1869 2661 
C 1395 1954 1069 999 1069 165 
C 1069 89 1069 -128 1299 -128 
C 1530 -128 1530 89 1530 171 
L 1530 465 
C 1530 1508 1709 2196 2003 2636 
L 2886 3941 
z
" transform="scale(0.015625)"/>
       </defs>
       <use xlink:href="#CMSY10-0" transform="scale(0.996264)"/>
       <use xlink:href="#CMR17-30" transform="translate(77.487468 0) scale(0.996264)"/>
       <use xlink:href="#CMMI12-3a" transform="translate(123.177945 0) scale(0.996264)"/>
       <use xlink:href="#CMR17-30" transform="translate(150.275122 0) scale(0.996264)"/>
       <use xlink:href="#CMR17-37" transform="translate(195.965599 0) scale(0.996264)"/>
       <use xlink:href="#CMR17-35" transform="translate(241.656076 0) scale(0.996264)"/>
      </g>
     </g>
    </g>
    <g id="ytick_3">
     <g id="line2d_21">
      <path d="M 62.204133 130.186046 
L 349.2 130.186046 
" clip-path="url(#pb4413afe4c)" style="fill: none; stroke: #b0b0b0; stroke-width: 0.8; stroke-linecap: square"/>
     </g>
     <g id="line2d_22">
      <g>
       <use xlink:href="#md188cee896" x="62.204133" y="130.186046" style="stroke: #000000; stroke-width: 0.8"/>
      </g>
     </g>
     <g id="text_12">
      <!-- $\mathdefault{−0.050}$ -->
      <g transform="translate(24.76264 133.645295) scale(0.1 -0.1)">
       <use xlink:href="#CMSY10-0" transform="scale(0.996264)"/>
       <use xlink:href="#CMR17-30" transform="translate(77.487468 0) scale(0.996264)"/>
       <use xlink:href="#CMMI12-3a" transform="translate(123.177945 0) scale(0.996264)"/>
       <use xlink:href="#CMR17-30" transform="translate(150.275122 0) scale(0.996264)"/>
       <use xlink:href="#CMR17-35" transform="translate(195.965599 0) scale(0.996264)"/>
       <use xlink:href="#CMR17-30" transform="translate(241.656076 0) scale(0.996264)"/>
      </g>
     </g>
    </g>
    <g id="ytick_4">
     <g id="line2d_23">
      <path d="M 62.204133 109.333891 
L 349.2 109.333891 
" clip-path="url(#pb4413afe4c)" style="fill: none; stroke: #b0b0b0; stroke-width: 0.8; stroke-linecap: square"/>
     </g>
     <g id="line2d_24">
      <g>
       <use xlink:href="#md188cee896" x="62.204133" y="109.333891" style="stroke: #000000; stroke-width: 0.8"/>
      </g>
     </g>
     <g id="text_13">
      <!-- $\mathdefault{−0.025}$ -->
      <g transform="translate(24.76264 112.793141) scale(0.1 -0.1)">
       <use xlink:href="#CMSY10-0" transform="scale(0.996264)"/>
       <use xlink:href="#CMR17-30" transform="translate(77.487468 0) scale(0.996264)"/>
       <use xlink:href="#CMMI12-3a" transform="translate(123.177945 0) scale(0.996264)"/>
       <use xlink:href="#CMR17-30" transform="translate(150.275122 0) scale(0.996264)"/>
       <use xlink:href="#CMR17-32" transform="translate(195.965599 0) scale(0.996264)"/>
       <use xlink:href="#CMR17-35" transform="translate(241.656076 0) scale(0.996264)"/>
      </g>
     </g>
    </g>
    <g id="ytick_5">
     <g id="line2d_25">
      <path d="M 62.204133 88.481737 
L 349.2 88.481737 
" clip-path="url(#pb4413afe4c)" style="fill: none; stroke: #b0b0b0; stroke-width: 0.8; stroke-linecap: square"/>
     </g>
     <g id="line2d_26">
      <g>
       <use xlink:href="#md188cee896" x="62.204133" y="88.481737" style="stroke: #000000; stroke-width: 0.8"/>
      </g>
     </g>
     <g id="text_14">
      <!-- $\mathdefault{0.000}$ -->
      <g transform="translate(32.511384 91.940986) scale(0.1 -0.1)">
       <use xlink:href="#CMR17-30" transform="scale(0.996264)"/>
       <use xlink:href="#CMMI12-3a" transform="translate(45.690477 0) scale(0.996264)"/>
       <use xlink:href="#CMR17-30" transform="translate(72.787654 0) scale(0.996264)"/>
       <use xlink:href="#CMR17-30" transform="translate(118.478131 0) scale(0.996264)"/>
       <use xlink:href="#CMR17-30" transform="translate(164.168608 0) scale(0.996264)"/>
      </g>
     </g>
    </g>
    <g id="ytick_6">
     <g id="line2d_27">
      <path d="M 62.204133 67.629583 
L 349.2 67.629583 
" clip-path="url(#pb4413afe4c)" style="fill: none; stroke: #b0b0b0; stroke-width: 0.8; stroke-linecap: square"/>
     </g>
     <g id="line2d_28">
      <g>
       <use xlink:href="#md188cee896" x="62.204133" y="67.629583" style="stroke: #000000; stroke-width: 0.8"/>
      </g>
     </g>
     <g id="text_15">
      <!-- $\mathdefault{0.025}$ -->
      <g transform="translate(32.511384 71.088832) scale(0.1 -0.1)">
       <use xlink:href="#CMR17-30" transform="scale(0.996264)"/>
       <use xlink:href="#CMMI12-3a" transform="translate(45.690477 0) scale(0.996264)"/>
       <use xlink:href="#CMR17-30" transform="translate(72.787654 0) scale(0.996264)"/>
       <use xlink:href="#CMR17-32" transform="translate(118.478131 0) scale(0.996264)"/>
       <use xlink:href="#CMR17-35" transform="translate(164.168608 0) scale(0.996264)"/>
      </g>
     </g>
    </g>
    <g id="ytick_7">
     <g id="line2d_29">
      <path d="M 62.204133 46.777429 
L 349.2 46.777429 
" clip-path="url(#pb4413afe4c)" style="fill: none; stroke: #b0b0b0; stroke-width: 0.8; stroke-linecap: square"/>
     </g>
     <g id="line2d_30">
      <g>
       <use xlink:href="#md188cee896" x="62.204133" y="46.777429" style="stroke: #000000; stroke-width: 0.8"/>
      </g>
     </g>
     <g id="text_16">
      <!-- $\mathdefault{0.050}$ -->
      <g transform="translate(32.511384 50.236678) scale(0.1 -0.1)">
       <use xlink:href="#CMR17-30" transform="scale(0.996264)"/>
       <use xlink:href="#CMMI12-3a" transform="translate(45.690477 0) scale(0.996264)"/>
       <use xlink:href="#CMR17-30" transform="translate(72.787654 0) scale(0.996264)"/>
       <use xlink:href="#CMR17-35" transform="translate(118.478131 0) scale(0.996264)"/>
       <use xlink:href="#CMR17-30" transform="translate(164.168608 0) scale(0.996264)"/>
      </g>
     </g>
    </g>
    <g id="ytick_8">
     <g id="line2d_31">
      <path d="M 62.204133 25.925275 
L 349.2 25.925275 
" clip-path="url(#pb4413afe4c)" style="fill: none; stroke: #b0b0b0; stroke-width: 0.8; stroke-linecap: square"/>
     </g>
     <g id="line2d_32">
      <g>
       <use xlink:href="#md188cee896" x="62.204133" y="25.925275" style="stroke: #000000; stroke-width: 0.8"/>
      </g>
     </g>
     <g id="text_17">
      <!-- $\mathdefault{0.075}$ -->
      <g transform="translate(32.511384 29.384524) scale(0.1 -0.1)">
       <use xlink:href="#CMR17-30" transform="scale(0.996264)"/>
       <use xlink:href="#CMMI12-3a" transform="translate(45.690477 0) scale(0.996264)"/>
       <use xlink:href="#CMR17-30" transform="translate(72.787654 0) scale(0.996264)"/>
       <use xlink:href="#CMR17-37" transform="translate(118.478131 0) scale(0.996264)"/>
       <use xlink:href="#CMR17-35" transform="translate(164.168608 0) scale(0.996264)"/>
      </g>
     </g>
    </g>
    <g id="text_18">
     <!-- Linear strains $\sigma$ [-] -->
     <g transform="translate(18.27198 133.904853) rotate(-90) scale(0.1 -0.1)">
      <defs>
       <path id="CMR17-4c" d="M 3469 1615 
L 3354 1615 
C 3302 983 3219 166 2125 166 
L 1530 166 
C 1274 166 1261 197 1261 414 
L 1261 3898 
C 1261 4129 1274 4192 1760 4192 
L 1901 4192 
L 1901 4352 
C 1638 4352 1331 4352 1069 4352 
C 870 4352 512 4352 326 4352 
L 326 4192 
C 768 4192 838 4192 838 3905 
L 838 452 
C 838 166 768 166 326 166 
L 326 0 
L 3315 0 
L 3469 1615 
z
" transform="scale(0.015625)"/>
       <path id="CMR17-6e" d="M 2656 1933 
C 2656 2259 2592 2790 1837 2790 
C 1331 2790 1069 2400 973 2144 
L 966 2144 
L 966 2790 
L 211 2720 
L 211 2554 
C 589 2554 646 2515 646 2208 
L 646 428 
C 646 184 621 153 211 153 
L 211 -13 
C 365 0 646 0 813 0 
C 979 0 1267 0 1421 -13 
L 1421 153 
C 1011 153 986 178 986 428 
L 986 1658 
C 986 2247 1344 2688 1792 2688 
C 2266 2688 2317 2266 2317 1958 
L 2317 428 
C 2317 184 2291 153 1882 153 
L 1882 -13 
C 2035 0 2317 0 2483 0 
C 2650 0 2938 0 3091 -13 
L 3091 153 
C 2682 153 2656 178 2656 428 
L 2656 1933 
z
" transform="scale(0.015625)"/>
       <path id="CMR17-61" d="M 2304 1653 
C 2304 2072 2304 2294 2035 2543 
C 1798 2752 1523 2816 1306 2816 
C 800 2816 435 2407 435 1971 
C 435 1728 627 1728 666 1728 
C 749 1728 896 1778 896 1954 
C 896 2112 774 2181 666 2181 
C 640 2181 608 2174 589 2168 
C 723 2592 1069 2714 1293 2714 
C 1613 2714 1965 2429 1965 1885 
L 1965 1600 
C 1587 1600 1133 1549 774 1357 
C 371 1133 256 813 256 570 
C 256 77 832 -64 1171 -64 
C 1523 -64 1850 139 1990 511 
C 2003 233 2182 -18 2464 -18 
C 2598 -18 2938 70 2938 567 
L 2938 920 
L 2822 920 
L 2822 562 
C 2822 178 2650 128 2566 128 
C 2304 128 2304 458 2304 738 
L 2304 1653 
z
M 1965 870 
C 1965 317 1568 38 1216 38 
C 896 38 646 275 646 570 
C 646 761 730 1100 1101 1305 
C 1408 1478 1760 1504 1965 1504 
L 1965 870 
z
" transform="scale(0.015625)"/>
       <path id="CMR17-72" d="M 960 1497 
C 960 2112 1222 2688 1702 2688 
C 1747 2688 1792 2682 1837 2662 
C 1837 2662 1696 2617 1696 2452 
C 1696 2298 1818 2234 1914 2234 
C 1990 2234 2131 2279 2131 2458 
C 2131 2663 1926 2790 1709 2790 
C 1222 2790 1011 2317 947 2093 
L 941 2093 
L 941 2790 
L 198 2720 
L 198 2554 
C 576 2554 634 2515 634 2208 
L 634 428 
C 634 184 608 153 198 153 
L 198 -13 
C 352 0 646 0 813 0 
C 998 0 1325 0 1498 -13 
L 1498 153 
C 1037 153 960 153 960 440 
L 960 1497 
z
" transform="scale(0.015625)"/>
       <path id="CMR17-74" d="M 966 2560 
L 1862 2560 
L 1862 2725 
L 966 2725 
L 966 3904 
L 851 3904 
C 838 3245 614 2668 70 2668 
L 70 2560 
L 627 2560 
L 627 771 
C 627 650 627 -64 1370 -64 
C 1747 -64 1965 306 1965 777 
L 1965 1140 
L 1850 1140 
L 1850 783 
C 1850 344 1677 51 1408 51 
C 1222 51 966 178 966 758 
L 966 2560 
z
" transform="scale(0.015625)"/>
       <path id="CMMI12-1b" d="M 3251 2408 
C 3334 2408 3546 2408 3546 2612 
C 3546 2752 3424 2752 3309 2752 
L 1894 2752 
C 934 2752 243 1686 243 932 
C 243 390 595 -64 1171 -64 
C 1926 -64 2752 747 2752 1705 
C 2752 1954 2694 2196 2541 2408 
L 3251 2408 
z
M 1178 64 
C 851 64 614 313 614 754 
C 614 1137 845 2408 1786 2408 
C 2061 2408 2368 2274 2368 1781 
C 2368 1558 2266 1021 2042 652 
C 1811 275 1466 64 1178 64 
z
" transform="scale(0.015625)"/>
       <path id="CMR17-2d" d="M 1632 1216 
L 1632 1496 
L 26 1496 
L 26 1216 
L 1632 1216 
z
" transform="scale(0.015625)"/>
      </defs>
      <use xlink:href="#CMR17-4c" transform="scale(0.996264)"/>
      <use xlink:href="#CMR17-69" transform="translate(57.381408 0) scale(0.996264)"/>
      <use xlink:href="#CMR17-6e" transform="translate(82.252466 0) scale(0.996264)"/>
      <use xlink:href="#CMR17-65" transform="translate(133.147836 0) scale(0.996264)"/>
      <use xlink:href="#CMR17-61" transform="translate(173.633497 0) scale(0.996264)"/>
      <use xlink:href="#CMR17-72" transform="translate(219.323974 0) scale(0.996264)"/>
      <use xlink:href="#CMR17-73" transform="translate(284.680708 0) scale(0.996264)"/>
      <use xlink:href="#CMR17-74" transform="translate(320.482045 0) scale(0.996264)"/>
      <use xlink:href="#CMR17-72" transform="translate(355.762813 0) scale(0.996264)"/>
      <use xlink:href="#CMR17-61" transform="translate(391.043581 0) scale(0.996264)"/>
      <use xlink:href="#CMR17-69" transform="translate(436.734058 0) scale(0.996264)"/>
      <use xlink:href="#CMR17-6e" transform="translate(461.605117 0) scale(0.996264)"/>
      <use xlink:href="#CMR17-73" transform="translate(512.500486 0) scale(0.996264)"/>
      <use xlink:href="#CMMI12-1b" transform="translate(578.37779 0) scale(0.996264)"/>
      <use xlink:href="#CMR17-5b" transform="translate(667.47381 0) scale(0.996264)"/>
      <use xlink:href="#CMR17-2d" transform="translate(692.344869 0) scale(0.996264)"/>
      <use xlink:href="#CMR17-5d" transform="translate(722.420835 0) scale(0.996264)"/>
     </g>
    </g>
   </g>
   <g id="line2d_33">
    <path d="M 75.2494 95.385237 
L 112.52159 95.385237 
L 112.670679 125.132893 
L 187.065971 125.051216 
L 187.21506 97.712225 
L 224.338162 97.712225 
L 224.487251 46.829773 
L 261.610352 46.829773 
L 261.759441 97.742889 
L 298.882543 97.742889 
L 299.031632 73.45737 
L 336.154733 73.45737 
L 336.154733 73.45737 
" clip-path="url(#pb4413afe4c)" style="fill: none; stroke-dasharray: 3.5,5.775; stroke-dashoffset: 0; stroke: #1f77b4; stroke-width: 3.5"/>
   </g>
   <g id="line2d_34">
    <path d="M 75.2494 128.165695 
L 112.52159 128.165695 
L 112.670679 101.200537 
L 149.793781 101.200537 
L 149.94287 73.750139 
L 187.065971 73.750139 
L 187.21506 74.691086 
L 224.338162 74.691086 
L 224.487251 82.115858 
L 261.610352 82.115858 
L 261.759441 101.854965 
L 298.882543 101.854965 
L 299.031632 104.774562 
L 336.154733 104.774562 
L 336.154733 104.774562 
" clip-path="url(#pb4413afe4c)" style="fill: none; stroke-dasharray: 3.5,5.775; stroke-dashoffset: 0; stroke: #ff7f0e; stroke-width: 3.5"/>
   </g>
   <g id="line2d_35">
    <path d="M 75.2494 22.370841 
L 112.52159 22.370841 
L 112.670679 48.905018 
L 149.793781 48.905018 
L 149.94287 104.271692 
L 187.065971 104.271692 
L 187.21506 18.280986 
L 224.338162 18.280986 
L 224.487251 114.840853 
L 261.610352 114.840853 
L 261.759441 94.209941 
L 298.882543 94.209941 
L 299.031632 74.196413 
L 336.154733 74.196413 
L 336.154733 74.196413 
" clip-path="url(#pb4413afe4c)" style="fill: none; stroke-dasharray: 3.5,5.775; stroke-dashoffset: 0; stroke: #2ca02c; stroke-width: 3.5"/>
   </g>
   <g id="line2d_36">
    <path d="M 75.2494 167.900698 
L 112.52159 167.900698 
L 112.670679 23.247284 
L 149.793781 23.247284 
L 149.94287 120.576706 
L 187.065971 120.576706 
L 187.21506 38.612403 
L 224.338162 38.612403 
L 224.487251 90.092017 
L 261.610352 90.092017 
L 261.759441 51.956751 
L 298.882543 51.956751 
L 299.031632 108.744799 
L 336.154733 108.744799 
L 336.154733 108.744799 
" clip-path="url(#pb4413afe4c)" style="fill: none; stroke-dasharray: 3.5,5.775; stroke-dashoffset: 0; stroke: #d62728; stroke-width: 3.5"/>
   </g>
   <g id="line2d_37">
    <path d="M 75.2494 88.481737 
L 75.398489 92.912083 
L 75.696666 90.121069 
L 76.069388 87.661747 
L 76.44211 86.571591 
L 76.740288 86.343873 
L 76.963921 86.433009 
L 77.336643 86.917201 
L 77.932998 88.187202 
L 79.722063 92.278824 
L 80.616595 93.780106 
L 81.362039 94.654306 
L 82.107483 95.203213 
L 83.672915 95.806652 
L 84.791081 95.973414 
L 85.834702 95.794689 
L 86.207424 95.893179 
L 87.027412 96.087698 
L 88.071033 95.935587 
L 88.741933 96.078094 
L 89.785554 95.983727 
L 90.381909 96.039136 
L 91.201897 95.963874 
L 91.872797 96.01335 
L 92.692785 95.966351 
L 93.438229 95.972196 
L 94.183673 95.965343 
L 94.929117 95.946131 
L 95.749105 95.963513 
L 97.687259 95.920919 
L 99.476324 95.89948 
L 102.234466 95.876446 
L 106.185318 95.841335 
L 112.52159 95.792771 
L 112.670679 77.377944 
L 113.565212 103.82697 
L 114.012478 109.538363 
L 114.459744 112.719613 
L 114.907011 114.493313 
L 115.354277 115.465251 
L 115.876088 116.104418 
L 116.546987 116.542854 
L 118.186963 117.180048 
L 120.125117 117.439454 
L 121.616005 117.427837 
L 122.659626 117.388045 
L 123.554159 117.49896 
L 124.448691 117.769418 
L 125.194135 117.801968 
L 126.088668 117.887193 
L 127.057745 118.074248 
L 127.877733 118.135594 
L 128.697721 118.286059 
L 129.517709 118.365402 
L 130.337698 118.479124 
L 131.157686 118.593225 
L 132.052218 118.675279 
L 138.090313 119.40316 
L 140.699366 119.679662 
L 144.128408 120.032075 
L 149.793781 120.556885 
L 149.868325 90.866386 
L 149.94287 91.744029 
L 152.104657 105.127045 
L 152.850101 108.382175 
L 153.744633 111.417734 
L 154.490077 113.216993 
L 155.160976 114.3348 
L 156.279142 115.623066 
L 157.248219 116.333648 
L 160.080906 117.223393 
L 160.528172 117.306861 
L 161.34816 117.613042 
L 162.168148 117.664739 
L 162.913592 117.876656 
L 163.659036 117.925232 
L 164.40448 118.094061 
L 165.149923 118.163579 
L 165.820823 118.290818 
L 166.566267 118.363106 
L 167.31171 118.473871 
L 168.057154 118.571569 
L 168.877142 118.655034 
L 170.591663 118.866798 
L 172.604362 119.126411 
L 176.107947 119.499117 
L 179.536989 119.860137 
L 187.065971 120.55861 
L 187.21506 76.826497 
L 187.513238 84.621259 
L 187.960504 92.935885 
L 188.333226 96.449745 
L 188.705948 98.112047 
L 189.004125 98.629883 
L 189.302303 98.71351 
L 189.60048 98.532005 
L 190.196835 97.772831 
L 191.538634 96.028941 
L 193.104066 94.815824 
L 194.147688 94.32476 
L 195.71312 93.830632 
L 197.949451 93.422462 
L 199.142161 93.65492 
L 202.34757 93.71806 
L 203.167558 93.812807 
L 203.987546 93.846631 
L 204.73299 93.911124 
L 205.552978 93.968772 
L 206.372966 94.005007 
L 207.938398 94.108546 
L 224.338162 95.095654 
L 224.487251 81.070985 
L 224.636339 80.758622 
L 224.785428 80.671429 
L 225.009061 79.995247 
L 225.456328 77.632442 
L 228.21447 61.090714 
L 229.109002 57.720194 
L 229.854446 55.697643 
L 230.59989 54.299514 
L 231.419878 53.282196 
L 232.090778 52.565463 
L 232.910766 52.077161 
L 233.432576 51.961147 
L 234.252565 51.843038 
L 234.774375 51.6076 
L 235.445275 51.354681 
L 236.116174 51.377344 
L 236.637985 51.258568 
L 237.308884 51.0989 
L 238.203417 51.057685 
L 238.948861 50.941889 
L 239.768849 50.881754 
L 240.514293 50.814719 
L 241.334281 50.730433 
L 242.825168 50.609703 
L 245.956032 50.39392 
L 248.341453 50.229757 
L 257.883133 49.662471 
L 261.610352 49.467756 
L 261.759441 99.488792 
L 262.057619 93.678547 
L 262.430341 88.936617 
L 262.728518 87.200709 
L 263.026696 86.595682 
L 263.250329 86.637499 
L 263.548506 87.117779 
L 264.070317 88.601488 
L 265.784838 93.932172 
L 266.828459 95.993809 
L 267.648447 97.175934 
L 268.54298 98.080277 
L 269.586601 98.80164 
L 271.077489 99.468317 
L 272.195654 99.686343 
L 273.239276 99.546789 
L 273.910175 99.648485 
L 274.730163 99.709999 
L 275.69924 99.612854 
L 276.519229 99.67542 
L 277.339217 99.5917 
L 278.159205 99.613722 
L 278.979193 99.571316 
L 279.724637 99.551437 
L 280.544625 99.536564 
L 281.364613 99.480962 
L 283.302767 99.441265 
L 285.017288 99.395663 
L 290.086306 99.23022 
L 294.037158 99.119384 
L 298.882543 98.9998 
L 299.031632 76.99334 
L 299.777075 87.217323 
L 300.075253 88.091927 
L 300.224342 88.155964 
L 300.447975 87.924218 
L 300.820697 86.960285 
L 301.566141 84.096271 
L 302.758851 79.651562 
L 303.42975 77.838126 
L 304.398827 75.847787 
L 305.218815 74.665602 
L 306.113348 73.773524 
L 307.156969 73.074889 
L 308.796946 72.370671 
L 309.542389 72.262039 
L 310.586011 72.364459 
L 311.182366 72.22896 
L 311.92781 72.165772 
L 312.896886 72.247783 
L 313.791419 72.181238 
L 314.611407 72.234726 
L 315.431395 72.219302 
L 316.176839 72.243819 
L 316.922283 72.250849 
L 317.742271 72.25848 
L 318.636804 72.306725 
L 327.283952 72.462822 
L 332.129337 72.551959 
L 336.154733 72.618842 
L 336.154733 72.618842 
" clip-path="url(#pb4413afe4c)" style="fill: none; stroke: #1f77b4; stroke-width: 2; stroke-linecap: square"/>
   </g>
   <g id="line2d_38">
    <path d="M 75.2494 88.481737 
L 75.398489 116.507329 
L 75.473033 117.139913 
L 75.696666 116.267765 
L 75.845755 116.67537 
L 76.814832 120.70213 
L 77.411187 122.011826 
L 78.007542 122.812472 
L 78.752986 123.434038 
L 78.976619 123.386121 
L 80.914773 124.040502 
L 82.107483 124.07482 
L 82.703838 123.950305 
L 83.225649 124.187388 
L 84.120181 124.105183 
L 84.567448 124.13261 
L 85.163803 123.89747 
L 85.983791 124.017186 
L 86.356513 124.260599 
L 86.803779 124.271877 
L 87.027412 124.16204 
L 87.400134 123.914805 
L 87.8474 123.999997 
L 88.369211 124.32875 
L 88.741933 124.21875 
L 89.189199 123.994444 
L 89.561921 124.137134 
L 89.934643 124.332941 
L 90.307365 124.238742 
L 90.754631 124.080036 
L 91.127353 124.226988 
L 91.500075 124.342959 
L 91.947341 124.194244 
L 92.320063 124.169125 
L 93.140051 124.323339 
L 93.736406 124.228522 
L 94.556395 124.348926 
L 95.15275 124.285904 
L 95.972738 124.374848 
L 96.569093 124.340489 
L 97.389081 124.402845 
L 98.059981 124.405791 
L 98.73088 124.442431 
L 99.476324 124.452348 
L 100.221768 124.46639 
L 101.041756 124.51239 
L 102.905365 124.543822 
L 104.545342 124.575637 
L 112.52159 124.788541 
L 112.596135 56.275472 
L 112.670679 64.016341 
L 112.968857 99.639389 
L 113.117945 102.416417 
L 113.19249 102.523645 
L 113.341579 101.838165 
L 113.937934 98.545064 
L 114.310656 97.68975 
L 114.683377 97.402041 
L 115.279733 97.359933 
L 115.950632 97.780903 
L 116.845165 98.466791 
L 117.217886 99.008563 
L 117.739697 99.193801 
L 119.081496 99.374555 
L 120.125117 99.04887 
L 121.988727 98.266493 
L 123.330526 98.393771 
L 124.001425 98.916214 
L 124.746869 98.675782 
L 125.26868 98.406827 
L 125.939579 98.54832 
L 126.312301 98.818688 
L 126.759567 98.802969 
L 127.430467 98.435073 
L 127.728644 98.584288 
L 128.101366 98.849457 
L 128.399544 98.811341 
L 129.070443 98.513049 
L 129.443165 98.736297 
L 129.741342 98.844487 
L 130.114064 98.703685 
L 130.486786 98.564779 
L 130.859508 98.708582 
L 131.23223 98.839782 
L 131.604952 98.712631 
L 131.977674 98.620373 
L 132.499485 98.820262 
L 132.872206 98.803261 
L 133.468562 98.676397 
L 134.28855 98.813944 
L 134.884905 98.718788 
L 135.704893 98.823957 
L 136.301248 98.75966 
L 137.046692 98.851434 
L 137.717591 98.798751 
L 138.463035 98.862682 
L 139.133934 98.835733 
L 139.804834 98.887416 
L 140.550278 98.870321 
L 141.221177 98.901415 
L 141.966621 98.902383 
L 142.712065 98.909096 
L 143.457509 98.941141 
L 144.352041 98.920717 
L 149.793781 99.019652 
L 150.017414 80.15203 
L 150.241047 75.058525 
L 150.46468 74.411986 
L 150.688314 74.605746 
L 151.582846 75.569538 
L 152.253746 75.974588 
L 152.477379 75.941807 
L 153.968266 76.318867 
L 155.160976 76.235933 
L 155.608243 76.194687 
L 155.90642 76.309412 
L 158.515474 76.006405 
L 158.888195 76.209539 
L 159.559095 76.138272 
L 159.931817 75.934886 
L 160.379083 75.946049 
L 160.900894 76.211985 
L 161.199071 76.153199 
L 161.720882 75.880825 
L 162.019059 75.959134 
L 162.466326 76.168995 
L 162.764503 76.088941 
L 163.286314 75.881924 
L 163.659036 76.03586 
L 164.031758 76.113095 
L 165.000835 75.965226 
L 165.448101 76.068116 
L 166.491722 75.976108 
L 166.938989 76.011983 
L 167.684432 75.897118 
L 168.355332 75.971759 
L 169.100776 75.890319 
L 169.771675 75.934286 
L 170.517119 75.880908 
L 171.188018 75.899864 
L 171.933462 75.868687 
L 172.604362 75.868552 
L 173.349805 75.853784 
L 174.095249 75.831063 
L 174.989782 75.846552 
L 187.065971 75.652655 
L 187.140516 51.646176 
L 187.21506 53.311442 
L 187.513238 78.434916 
L 187.662326 80.344368 
L 187.736871 80.304691 
L 187.960504 79.024619 
L 188.482315 76.208565 
L 188.855037 75.264507 
L 189.227758 74.867886 
L 189.824114 74.668842 
L 190.27138 74.811341 
L 191.315001 75.384396 
L 191.687723 75.893181 
L 192.209534 76.033208 
L 193.774966 76.124083 
L 194.893131 75.750878 
L 195.71312 75.365024 
L 195.936753 75.206528 
L 196.160386 74.983507 
L 196.458563 75.049186 
L 197.129463 75.135474 
L 197.800362 75.144332 
L 198.545806 75.662844 
L 199.067617 75.484975 
L 199.365794 75.219158 
L 199.589427 75.080815 
L 200.185782 75.196783 
L 200.48396 75.392156 
L 200.782138 75.502898 
L 201.303948 75.406092 
L 201.751214 75.143292 
L 202.123936 75.208744 
L 202.645747 75.499739 
L 202.943925 75.408985 
L 203.391191 75.14741 
L 203.689368 75.214856 
L 204.211179 75.465915 
L 204.509357 75.354232 
L 204.956623 75.167488 
L 205.329345 75.319924 
L 205.702067 75.429947 
L 206.074789 75.27722 
L 206.44751 75.190269 
L 207.416587 75.312456 
L 207.863854 75.203691 
L 208.832931 75.297784 
L 209.280197 75.215221 
L 210.249274 75.281579 
L 210.69654 75.22519 
L 211.591073 75.286555 
L 212.112883 75.233833 
L 212.932872 75.286875 
L 213.529227 75.241034 
L 214.27467 75.284264 
L 214.94557 75.246522 
L 215.691014 75.268429 
L 216.436458 75.260497 
L 217.107357 75.254939 
L 217.852801 75.26017 
L 218.598245 75.23602 
L 220.089132 75.225078 
L 224.338162 75.215408 
L 224.412706 72.353677 
L 224.561795 80.43569 
L 224.785428 88.790114 
L 224.934517 89.344799 
L 225.15815 88.318232 
L 225.82905 85.016642 
L 226.35086 83.547681 
L 226.872671 82.656412 
L 227.319937 82.257116 
L 227.54357 82.150554 
L 227.767203 82.209162 
L 229.705357 81.600576 
L 231.568967 81.423446 
L 231.867144 81.414412 
L 233.358032 81.864692 
L 233.65621 81.951777 
L 234.327109 81.763932 
L 234.625286 81.58798 
L 234.923464 81.474699 
L 235.445275 81.645702 
L 236.04163 81.867274 
L 237.085251 81.617062 
L 237.905239 81.787928 
L 238.576139 81.627023 
L 239.545216 81.72949 
L 239.992482 81.644393 
L 241.110648 81.692935 
L 241.557914 81.684888 
L 242.303358 81.749138 
L 242.974257 81.701348 
L 243.719701 81.742221 
L 244.3906 81.716488 
L 245.136044 81.737188 
L 245.881488 81.739489 
L 246.626932 81.726376 
L 247.44692 81.758985 
L 250.577784 81.750984 
L 252.515938 81.746657 
L 255.646802 81.766528 
L 261.610352 81.775592 
L 261.684897 121.174211 
L 261.759441 118.987335 
L 262.057619 95.859916 
L 262.206707 94.481247 
L 262.355796 95.120902 
L 263.026696 99.361523 
L 263.473962 100.656008 
L 263.995773 101.364094 
L 264.29395 101.552207 
L 264.815761 101.576285 
L 265.710293 101.351589 
L 266.15756 100.903495 
L 266.903003 100.858386 
L 268.54298 100.971922 
L 269.213879 101.258149 
L 269.73569 101.401817 
L 270.257501 101.568165 
L 270.481134 101.707014 
L 271.822933 101.706433 
L 272.12111 101.588367 
L 272.568376 101.153886 
L 272.941098 101.229852 
L 274.208353 101.645784 
L 274.655619 101.532357 
L 275.028341 101.293895 
L 275.475607 101.328852 
L 276.071962 101.679658 
L 276.37014 101.583194 
L 276.817406 101.299048 
L 277.115584 101.359551 
L 277.711939 101.643844 
L 278.084661 101.458468 
L 278.457382 101.341931 
L 278.830104 101.508827 
L 279.202826 101.613994 
L 279.650093 101.423428 
L 280.022814 101.394261 
L 280.768258 101.567941 
L 281.439158 101.415847 
L 282.259146 101.532476 
L 282.855501 101.437554 
L 283.600945 101.541522 
L 284.271844 101.457824 
L 285.017288 101.530003 
L 285.688187 101.476107 
L 286.433631 101.520783 
L 287.104531 101.492036 
L 287.77543 101.526165 
L 288.520874 101.505402 
L 289.266318 101.510243 
L 290.011762 101.525432 
L 290.757205 101.501718 
L 292.322637 101.501184 
L 298.733454 101.538377 
L 298.882543 101.533355 
L 298.957087 63.914076 
L 299.031632 73.138904 
L 299.255265 102.928982 
L 299.478898 108.269066 
L 299.553442 108.142006 
L 299.926164 105.453827 
L 300.37343 103.078857 
L 300.820697 101.910953 
L 301.342507 101.278272 
L 301.715229 101.08284 
L 302.311584 101.099359 
L 302.982484 101.272908 
L 303.355206 101.673209 
L 303.951561 101.733959 
L 305.889715 101.678905 
L 306.784247 101.364823 
L 307.604235 101.031593 
L 307.827869 100.976147 
L 308.573312 101.13293 
L 309.467845 101.283973 
L 309.766022 101.593283 
L 310.138744 101.629075 
L 310.735099 101.420811 
L 311.107821 101.144823 
L 311.704176 101.269827 
L 312.673253 101.542813 
L 313.493242 101.286296 
L 314.31323 101.579026 
L 315.058674 101.346966 
L 315.804117 101.59482 
L 316.549561 101.414626 
L 317.220461 101.613097 
L 318.040449 101.49067 
L 318.636804 101.626618 
L 319.456792 101.539345 
L 320.053147 101.640813 
L 320.798591 101.567176 
L 321.46949 101.656863 
L 322.214934 101.614556 
L 322.885834 101.675207 
L 323.631277 101.65863 
L 324.302177 101.696058 
L 325.047621 101.699344 
L 325.793064 101.711703 
L 326.538508 101.74635 
L 327.433041 101.733135 
L 336.154733 101.94425 
L 336.154733 101.94425 
" clip-path="url(#pb4413afe4c)" style="fill: none; stroke: #ff7f0e; stroke-width: 2; stroke-linecap: square"/>
   </g>
   <g id="line2d_39">
    <path d="M 75.2494 88.481737 
L 75.622122 46.713042 
L 75.920299 34.30315 
L 76.218477 29.233973 
L 76.516654 27.206522 
L 76.814832 26.42841 
L 77.113009 26.15398 
L 77.560276 26.066131 
L 80.467507 25.938091 
L 86.952868 24.790236 
L 89.785554 24.461865 
L 92.245519 24.214957 
L 99.92359 23.592954 
L 109.316182 23.114569 
L 112.52159 22.998646 
L 112.596135 81.440007 
L 112.670679 73.714784 
L 112.968857 56.123439 
L 113.267034 50.508914 
L 113.490667 49.279211 
L 113.714301 49.070049 
L 113.937934 49.273475 
L 115.130644 50.794065 
L 115.876088 51.210699 
L 116.845165 51.457268 
L 117.516064 51.568233 
L 118.783318 51.470023 
L 120.572384 51.113067 
L 122.883259 50.697198 
L 136.524881 49.808291 
L 139.73029 49.674136 
L 145.917473 49.452929 
L 149.793781 49.351652 
L 149.94287 93.075592 
L 150.241047 98.588743 
L 150.539225 100.882285 
L 150.837402 101.849602 
L 151.210124 102.336699 
L 151.731935 102.580334 
L 152.924645 102.788217 
L 155.459154 102.961837 
L 161.795426 103.33297 
L 172.306184 103.732022 
L 186.245983 104.013996 
L 187.065971 104.024971 
L 187.289605 54.439756 
L 187.587782 32.326057 
L 187.88596 24.413383 
L 188.184137 21.893581 
L 188.40777 21.390858 
L 188.631403 21.359011 
L 189.07867 21.716996 
L 189.824114 22.269666 
L 190.644102 22.553237 
L 191.911356 22.697072 
L 192.954978 22.540954 
L 195.265853 21.921539 
L 197.204007 21.432087 
L 198.396717 21.34585 
L 199.365794 21.148211 
L 200.111238 20.999124 
L 211.36744 19.80626 
L 217.33099 19.384492 
L 223.070907 19.095223 
L 224.338162 19.042363 
L 224.487251 96.121516 
L 224.785428 104.75734 
L 225.15815 109.266062 
L 225.530872 111.016531 
L 225.903594 111.767908 
L 226.35086 112.192087 
L 227.096304 112.534257 
L 228.438103 112.916233 
L 230.301712 113.048846 
L 233.507121 113.287481 
L 234.476198 113.350447 
L 235.594363 113.417993 
L 236.488896 113.493354 
L 237.532517 113.572009 
L 239.768849 113.699447 
L 244.166967 113.93585 
L 254.677725 114.3254 
L 261.610352 114.483537 
L 261.759441 88.499886 
L 261.983074 87.812944 
L 262.132163 88.096957 
L 263.548506 92.267258 
L 264.070317 92.920922 
L 264.815761 93.462895 
L 265.859382 93.903294 
L 266.530282 94.082198 
L 267.87208 94.149922 
L 270.182956 93.965776 
L 271.152033 93.894727 
L 272.419288 93.998384 
L 273.239276 94.02749 
L 276.519229 94.014534 
L 277.339217 94.033214 
L 278.233749 94.047288 
L 279.724637 94.059469 
L 281.662791 94.071252 
L 283.750034 94.078311 
L 286.359087 94.092834 
L 292.322637 94.131072 
L 298.882543 94.152464 
L 299.106176 79.181436 
L 299.404354 73.79829 
L 299.627987 72.646593 
L 299.85162 72.439635 
L 300.075253 72.627502 
L 301.491596 74.373559 
L 302.311584 74.819862 
L 303.578839 75.19909 
L 304.62246 75.228588 
L 306.635158 75.02576 
L 308.573312 74.786313 
L 334.216579 74.362936 
L 336.154733 74.347772 
L 336.154733 74.347772 
" clip-path="url(#pb4413afe4c)" style="fill: none; stroke: #2ca02c; stroke-width: 2; stroke-linecap: square"/>
   </g>
   <g id="line2d_40">
    <path d="M 75.2494 88.481737 
L 75.547577 127.620996 
L 75.920299 148.076608 
L 76.293021 155.953608 
L 76.665743 159.126253 
L 77.038465 160.520637 
L 77.485731 161.32659 
L 78.082086 161.90059 
L 79.051163 162.490858 
L 80.318418 163.007035 
L 82.107483 163.462902 
L 92.543696 165.412311 
L 98.134525 166.091088 
L 104.69443 166.655487 
L 112.52159 167.103577 
L 112.670679 66.780451 
L 112.968857 40.586208 
L 113.267034 30.353359 
L 113.565212 26.760862 
L 113.788845 25.946443 
L 114.012478 25.84396 
L 114.310656 26.158891 
L 115.354277 27.511581 
L 116.025176 27.928383 
L 116.845165 28.139094 
L 117.96333 28.136812 
L 119.305129 27.876459 
L 124.672325 26.523646 
L 128.623177 25.860193 
L 136.226704 24.943177 
L 142.861154 24.408733 
L 149.793781 24.02968 
L 149.94287 97.798196 
L 150.241047 108.719826 
L 150.539225 113.620762 
L 150.911947 116.17273 
L 151.284669 117.153764 
L 151.65739 117.561818 
L 152.253746 117.837046 
L 153.521 118.100368 
L 157.09913 118.5326 
L 162.019059 119.036548 
L 169.920764 119.594661 
L 178.717001 119.981895 
L 187.065971 120.207075 
L 187.21506 71.739272 
L 187.513238 50.912094 
L 187.811415 42.944047 
L 188.109593 40.311261 
L 188.333226 39.825122 
L 188.482315 39.829993 
L 188.780492 40.182774 
L 189.824114 41.663497 
L 190.495013 42.147914 
L 191.315001 42.433148 
L 192.433167 42.518256 
L 193.700421 42.360648 
L 195.489486 41.884287 
L 197.204007 41.494756 
L 201.900303 40.841102 
L 207.938398 40.19181 
L 214.349215 39.706706 
L 224.338162 39.232195 
L 224.412706 88.146491 
L 224.487251 87.948006 
L 224.785428 87.45354 
L 225.009061 87.496157 
L 225.456328 87.93185 
L 226.723582 89.272466 
L 227.618115 89.858906 
L 228.512647 90.160222 
L 229.481724 90.224041 
L 230.972612 90.06373 
L 232.388955 89.942867 
L 261.610352 90.071648 
L 261.90853 66.301831 
L 262.206707 56.712688 
L 262.504885 53.289448 
L 262.728518 52.480058 
L 262.952151 52.352812 
L 263.250329 52.635662 
L 264.517583 54.231316 
L 265.263027 54.697043 
L 266.15756 54.974153 
L 267.126637 55.051857 
L 268.319347 54.911006 
L 273.015643 54.052362 
L 280.171903 53.344284 
L 290.086306 52.746351 
L 298.882543 52.434966 
L 299.031632 92.643387 
L 299.478898 98.51662 
L 299.926164 101.960544 
L 300.447975 104.303374 
L 300.969786 105.716502 
L 301.566141 106.704209 
L 302.23704 107.381662 
L 303.057028 107.900827 
L 304.10065 108.27627 
L 305.218815 108.425692 
L 306.560614 108.374079 
L 308.796946 108.261694 
L 320.873135 108.518799 
L 336.154733 108.649949 
L 336.154733 108.649949 
" clip-path="url(#pb4413afe4c)" style="fill: none; stroke: #d62728; stroke-width: 2; stroke-linecap: square"/>
   </g>
   <g id="patch_3">
    <path d="M 62.204133 175.381683 
L 62.204133 10.8 
" style="fill: none; stroke: #000000; stroke-width: 0.8; stroke-linejoin: miter; stroke-linecap: square"/>
   </g>
   <g id="patch_4">
    <path d="M 349.2 175.381683 
L 349.2 10.8 
" style="fill: none; stroke: #000000; stroke-width: 0.8; stroke-linejoin: miter; stroke-linecap: square"/>
   </g>
   <g id="patch_5">
    <path d="M 62.204133 175.381683 
L 349.2 175.381683 
" style="fill: none; stroke: #000000; stroke-width: 0.8; stroke-linejoin: miter; stroke-linecap: square"/>
   </g>
   <g id="patch_6">
    <path d="M 62.204133 10.8 
L 349.2 10.8 
" style="fill: none; stroke: #000000; stroke-width: 0.8; stroke-linejoin: miter; stroke-linecap: square"/>
   </g>
   <g id="legend_1">
    <g id="patch_7">
     <path d="M 69.204133 159.214604 
L 121.391234 159.214604 
Q 123.391234 159.214604 123.391234 157.214604 
L 123.391234 28.967079 
Q 123.391234 26.967079 121.391234 26.967079 
L 69.204133 26.967079 
Q 67.204133 26.967079 67.204133 28.967079 
L 67.204133 157.214604 
Q 67.204133 159.214604 69.204133 159.214604 
z
" style="fill: #ffffff; opacity: 0.8; stroke: #cccccc; stroke-linejoin: miter"/>
    </g>
    <g id="line2d_41">
     <path d="M 71.204133 35.925381 
L 81.204133 35.925381 
L 91.204133 35.925381 
" style="fill: none; stroke-dasharray: 3.5,5.775; stroke-dashoffset: 0; stroke: #1f77b4; stroke-width: 3.5"/>
    </g>
    <g id="text_19">
     <!-- $\sigma_{\mathrm{sh},1}^\mathrm{d}$ -->
     <g transform="translate(99.204133 39.425381) scale(0.1 -0.1)">
      <defs>
       <path id="CMR17-64" d="M 1869 4326 
L 1869 4160 
C 2246 4160 2304 4122 2304 3820 
L 2304 2345 
C 2278 2377 2016 2790 1498 2790 
C 845 2790 211 2208 211 1364 
C 211 525 806 -64 1434 -64 
C 1978 -64 2259 337 2291 380 
L 2291 -63 
L 3066 -63 
L 3066 128 
C 2688 128 2630 166 2630 473 
L 2630 4396 
L 1869 4326 
z
M 2291 755 
C 2291 563 2176 390 2029 262 
C 1811 70 1594 38 1472 38 
C 1286 38 621 134 621 1356 
C 621 2612 1363 2688 1530 2688 
C 1824 2688 2061 2522 2208 2291 
C 2291 2157 2291 2138 2291 2023 
L 2291 755 
z
" transform="scale(0.015625)"/>
       <path id="CMR17-68" d="M 2656 1933 
C 2656 2259 2592 2790 1837 2790 
C 1312 2790 1056 2368 979 2157 
L 973 2157 
L 973 4396 
L 211 4326 
L 211 4160 
C 589 4160 646 4122 646 3817 
L 646 426 
C 646 184 621 153 211 153 
L 211 -13 
C 365 0 646 0 813 0 
C 979 0 1267 0 1421 -13 
L 1421 153 
C 1011 153 986 178 986 428 
L 986 1658 
C 986 2247 1344 2688 1792 2688 
C 2266 2688 2317 2266 2317 1958 
L 2317 428 
C 2317 184 2291 153 1882 153 
L 1882 -13 
C 2035 0 2317 0 2483 0 
C 2650 0 2938 0 3091 -13 
L 3091 153 
C 2682 153 2656 178 2656 428 
L 2656 1933 
z
" transform="scale(0.015625)"/>
       <path id="CMMI12-3b" d="M 1248 -31 
C 1248 343 1126 619 864 619 
C 659 619 557 453 557 313 
C 557 172 653 0 870 0 
C 954 0 1024 26 1082 83 
C 1094 96 1101 96 1107 96 
C 1120 96 1120 5 1120 -27 
C 1120 -240 1082 -659 710 -1080 
C 640 -1157 640 -1170 640 -1183 
C 640 -1216 672 -1248 704 -1248 
C 755 -1248 1248 -771 1248 -31 
z
" transform="scale(0.015625)"/>
      </defs>
      <use xlink:href="#CMMI12-1b" transform="scale(0.996264)"/>
      <use xlink:href="#CMR17-64" transform="translate(59.020054 36.153639) scale(0.697382)"/>
      <use xlink:href="#CMR17-73" transform="translate(55.445461 -28.215451) scale(0.697382)"/>
      <use xlink:href="#CMR17-68" transform="translate(80.506283 -28.215451) scale(0.697382)"/>
      <use xlink:href="#CMMI12-3b" transform="translate(116.132892 -28.215451) scale(0.697382)"/>
      <use xlink:href="#CMR17-31" transform="translate(135.100824 -28.215451) scale(0.697382)"/>
     </g>
    </g>
    <g id="line2d_42">
     <path d="M 71.204133 53.561209 
L 81.204133 53.561209 
L 91.204133 53.561209 
" style="fill: none; stroke-dasharray: 3.5,5.775; stroke-dashoffset: 0; stroke: #ff7f0e; stroke-width: 3.5"/>
    </g>
    <g id="text_20">
     <!-- $\sigma_{\mathrm{sh},2}^\mathrm{d}$ -->
     <g transform="translate(99.204133 57.061209) scale(0.1 -0.1)">
      <use xlink:href="#CMMI12-1b" transform="scale(0.996264)"/>
      <use xlink:href="#CMR17-64" transform="translate(59.020054 36.153639) scale(0.697382)"/>
      <use xlink:href="#CMR17-73" transform="translate(55.445461 -28.215451) scale(0.697382)"/>
      <use xlink:href="#CMR17-68" transform="translate(80.506283 -28.215451) scale(0.697382)"/>
      <use xlink:href="#CMMI12-3b" transform="translate(116.132892 -28.215451) scale(0.697382)"/>
      <use xlink:href="#CMR17-32" transform="translate(135.100824 -28.215451) scale(0.697382)"/>
     </g>
    </g>
    <g id="line2d_43">
     <path d="M 71.204133 71.197037 
L 81.204133 71.197037 
L 91.204133 71.197037 
" style="fill: none; stroke-dasharray: 3.5,5.775; stroke-dashoffset: 0; stroke: #2ca02c; stroke-width: 3.5"/>
    </g>
    <g id="text_21">
     <!-- $\sigma_{\mathrm{ax},1}^\mathrm{d}$ -->
     <g transform="translate(99.204133 74.697037) scale(0.1 -0.1)">
      <defs>
       <path id="CMR17-78" d="M 1664 1477 
C 1856 1726 2074 2006 2253 2216 
C 2464 2458 2707 2560 2989 2560 
L 2989 2726 
C 2880 2726 2656 2726 2541 2726 
C 2368 2726 2170 2726 2022 2732 
L 2022 2566 
C 2112 2553 2163 2489 2163 2400 
C 2163 2285 2099 2215 2067 2171 
L 1594 1573 
L 1030 2306 
C 973 2376 973 2388 973 2420 
C 973 2497 1037 2560 1146 2560 
L 1146 2732 
C 992 2726 717 2726 557 2726 
C 384 2726 179 2726 38 2732 
L 38 2560 
C 384 2560 461 2534 614 2343 
L 1350 1395 
C 1363 1382 1395 1344 1395 1325 
C 1395 1299 838 619 768 530 
C 480 185 179 160 6 160 
L 6 0 
C 115 0 339 0 454 0 
C 582 0 864 0 979 -6 
L 979 160 
C 941 166 838 179 838 325 
C 838 440 890 510 947 586 
L 1478 1236 
L 2035 512 
C 2086 442 2163 346 2163 301 
C 2163 211 2086 160 1984 160 
L 1984 -6 
C 2138 0 2413 0 2573 0 
C 2746 0 2950 0 3091 -6 
L 3091 160 
C 2771 160 2675 172 2522 370 
L 1664 1477 
z
" transform="scale(0.015625)"/>
      </defs>
      <use xlink:href="#CMMI12-1b" transform="scale(0.996264)"/>
      <use xlink:href="#CMR17-64" transform="translate(59.020054 36.153639) scale(0.697382)"/>
      <use xlink:href="#CMR17-61" transform="translate(55.445461 -24.740171) scale(0.697382)"/>
      <use xlink:href="#CMR17-78" transform="translate(87.428643 -24.740171) scale(0.697382)"/>
      <use xlink:href="#CMMI12-3b" transform="translate(121.23353 -24.740171) scale(0.697382)"/>
      <use xlink:href="#CMR17-31" transform="translate(140.201463 -24.740171) scale(0.697382)"/>
     </g>
    </g>
    <g id="line2d_44">
     <path d="M 71.204133 88.484182 
L 81.204133 88.484182 
L 91.204133 88.484182 
" style="fill: none; stroke-dasharray: 3.5,5.775; stroke-dashoffset: 0; stroke: #d62728; stroke-width: 3.5"/>
    </g>
    <g id="text_22">
     <!-- $\sigma_{\mathrm{ax},2}^\mathrm{d}$ -->
     <g transform="translate(99.204133 91.984182) scale(0.1 -0.1)">
      <use xlink:href="#CMMI12-1b" transform="scale(0.996264)"/>
      <use xlink:href="#CMR17-64" transform="translate(59.020054 36.153639) scale(0.697382)"/>
      <use xlink:href="#CMR17-61" transform="translate(55.445461 -24.740171) scale(0.697382)"/>
      <use xlink:href="#CMR17-78" transform="translate(87.428643 -24.740171) scale(0.697382)"/>
      <use xlink:href="#CMMI12-3b" transform="translate(121.23353 -24.740171) scale(0.697382)"/>
      <use xlink:href="#CMR17-32" transform="translate(140.201463 -24.740171) scale(0.697382)"/>
     </g>
    </g>
    <g id="line2d_45">
     <path d="M 71.204133 104.313024 
L 81.204133 104.313024 
L 91.204133 104.313024 
" style="fill: none; stroke: #1f77b4; stroke-width: 2; stroke-linecap: square"/>
    </g>
    <g id="text_23">
     <!-- $\sigma_{\mathrm{sh},1}$ -->
     <g transform="translate(99.204133 107.813024) scale(0.1 -0.1)">
      <use xlink:href="#CMMI12-1b" transform="scale(0.996264)"/>
      <use xlink:href="#CMR17-73" transform="translate(55.445461 -14.943915) scale(0.697382)"/>
      <use xlink:href="#CMR17-68" transform="translate(80.506283 -14.943915) scale(0.697382)"/>
      <use xlink:href="#CMMI12-3b" transform="translate(116.132892 -14.943915) scale(0.697382)"/>
      <use xlink:href="#CMR17-31" transform="translate(135.100824 -14.943915) scale(0.697382)"/>
     </g>
    </g>
    <g id="line2d_46">
     <path d="M 71.204133 119.163419 
L 81.204133 119.163419 
L 91.204133 119.163419 
" style="fill: none; stroke: #ff7f0e; stroke-width: 2; stroke-linecap: square"/>
    </g>
    <g id="text_24">
     <!-- $\sigma_{\mathrm{sh},2}$ -->
     <g transform="translate(99.204133 122.663419) scale(0.1 -0.1)">
      <use xlink:href="#CMMI12-1b" transform="scale(0.996264)"/>
      <use xlink:href="#CMR17-73" transform="translate(55.445461 -14.943915) scale(0.697382)"/>
      <use xlink:href="#CMR17-68" transform="translate(80.506283 -14.943915) scale(0.697382)"/>
      <use xlink:href="#CMMI12-3b" transform="translate(116.132892 -14.943915) scale(0.697382)"/>
      <use xlink:href="#CMR17-32" transform="translate(135.100824 -14.943915) scale(0.697382)"/>
     </g>
    </g>
    <g id="line2d_47">
     <path d="M 71.204133 134.013814 
L 81.204133 134.013814 
L 91.204133 134.013814 
" style="fill: none; stroke: #2ca02c; stroke-width: 2; stroke-linecap: square"/>
    </g>
    <g id="text_25">
     <!-- $\sigma_{\mathrm{ax},1}$ -->
     <g transform="translate(99.204133 137.513814) scale(0.1 -0.1)">
      <use xlink:href="#CMMI12-1b" transform="scale(0.996264)"/>
      <use xlink:href="#CMR17-61" transform="translate(55.445461 -14.943915) scale(0.697382)"/>
      <use xlink:href="#CMR17-78" transform="translate(87.428643 -14.943915) scale(0.697382)"/>
      <use xlink:href="#CMMI12-3b" transform="translate(121.23353 -14.943915) scale(0.697382)"/>
      <use xlink:href="#CMR17-31" transform="translate(140.201463 -14.943915) scale(0.697382)"/>
     </g>
    </g>
    <g id="line2d_48">
     <path d="M 71.204133 148.864209 
L 81.204133 148.864209 
L 91.204133 148.864209 
" style="fill: none; stroke: #d62728; stroke-width: 2; stroke-linecap: square"/>
    </g>
    <g id="text_26">
     <!-- $\sigma_{\mathrm{ax},2}$ -->
     <g transform="translate(99.204133 152.364209) scale(0.1 -0.1)">
      <use xlink:href="#CMMI12-1b" transform="scale(0.996264)"/>
      <use xlink:href="#CMR17-61" transform="translate(55.445461 -14.943915) scale(0.697382)"/>
      <use xlink:href="#CMR17-78" transform="translate(87.428643 -14.943915) scale(0.697382)"/>
      <use xlink:href="#CMMI12-3b" transform="translate(121.23353 -14.943915) scale(0.697382)"/>
      <use xlink:href="#CMR17-32" transform="translate(140.201463 -14.943915) scale(0.697382)"/>
     </g>
    </g>
   </g>
  </g>
 </g>
 <defs>
  <clipPath id="pb4413afe4c">
   <rect x="62.204133" y="10.8" width="286.995867" height="164.581683"/>
  </clipPath>
 </defs>
</svg>
