<?xml version="1.0" encoding="utf-8" standalone="no"?>
<!DOCTYPE svg PUBLIC "-//W3C//DTD SVG 1.1//EN"
  "http://www.w3.org/Graphics/SVG/1.1/DTD/svg11.dtd">
<svg xmlns:xlink="http://www.w3.org/1999/xlink" width="360pt" height="216pt" viewBox="0 0 360 216" xmlns="http://www.w3.org/2000/svg" version="1.1">
 <metadata>
  <rdf:RDF xmlns:dc="http://purl.org/dc/elements/1.1/" xmlns:cc="http://creativecommons.org/ns#" xmlns:rdf="http://www.w3.org/1999/02/22-rdf-syntax-ns#">
   <cc:Work>
    <dc:type rdf:resource="http://purl.org/dc/dcmitype/StillImage"/>
    <dc:date>2024-10-24T18:03:57.334581</dc:date>
    <dc:format>image/svg+xml</dc:format>
    <dc:creator>
     <cc:Agent>
      <dc:title>Matplotlib v3.9.2, https://matplotlib.org/</dc:title>
     </cc:Agent>
    </dc:creator>
   </cc:Work>
  </rdf:RDF>
 </metadata>
 <defs>
  <style type="text/css">*{stroke-linejoin: round; stroke-linecap: butt}</style>
 </defs>
 <g id="figure_1">
  <g id="patch_1">
   <path d="M 0 216 
L 360 216 
L 360 0 
L 0 0 
z
" style="fill: #ffffff"/>
  </g>
  <g id="axes_1">
   <g id="patch_2">
    <path d="M 57.222798 175.381683 
L 349.2 175.381683 
L 349.2 10.8 
L 57.222798 10.8 
z
" style="fill: #ffffff"/>
   </g>
   <g id="matplotlib.axis_1">
    <g id="xtick_1">
     <g id="line2d_1">
      <path d="M 70.494489 175.381683 
L 70.494489 10.8 
" clip-path="url(#p7310bb680b)" style="fill: none; stroke: #b0b0b0; stroke-width: 0.8; stroke-linecap: square"/>
     </g>
     <g id="line2d_2">
      <defs>
       <path id="mb78fb37971" d="M 0 0 
L 0 3.5 
" style="stroke: #000000; stroke-width: 0.8"/>
      </defs>
      <g>
       <use xlink:href="#mb78fb37971" x="70.494489" y="175.381683" style="stroke: #000000; stroke-width: 0.8"/>
      </g>
     </g>
     <g id="text_1">
      <!-- $\mathdefault{0}$ -->
      <g transform="translate(68.003821 189.300182) scale(0.1 -0.1)">
       <defs>
        <path id="CMR17-30" d="M 2688 2025 
C 2688 2416 2682 3080 2413 3591 
C 2176 4039 1798 4198 1466 4198 
C 1158 4198 768 4058 525 3597 
C 269 3118 243 2524 243 2025 
C 243 1661 250 1106 448 619 
C 723 -39 1216 -128 1466 -128 
C 1760 -128 2208 -7 2470 600 
C 2662 1042 2688 1559 2688 2025 
z
M 1466 -26 
C 1056 -26 813 325 723 812 
C 653 1188 653 1738 653 2096 
C 653 2588 653 2997 736 3387 
C 858 3929 1216 4096 1466 4096 
C 1728 4096 2067 3923 2189 3400 
C 2272 3036 2278 2607 2278 2096 
C 2278 1680 2278 1169 2202 792 
C 2067 95 1690 -26 1466 -26 
z
" transform="scale(0.015625)"/>
       </defs>
       <use xlink:href="#CMR17-30" transform="scale(0.996264)"/>
      </g>
     </g>
    </g>
    <g id="xtick_2">
     <g id="line2d_3">
      <path d="M 108.413606 175.381683 
L 108.413606 10.8 
" clip-path="url(#p7310bb680b)" style="fill: none; stroke: #b0b0b0; stroke-width: 0.8; stroke-linecap: square"/>
     </g>
     <g id="line2d_4">
      <g>
       <use xlink:href="#mb78fb37971" x="108.413606" y="175.381683" style="stroke: #000000; stroke-width: 0.8"/>
      </g>
     </g>
     <g id="text_2">
      <!-- $\mathdefault{5}$ -->
      <g transform="translate(105.922939 189.300182) scale(0.1 -0.1)">
       <defs>
        <path id="CMR17-35" d="M 730 3692 
C 794 3666 1056 3584 1325 3584 
C 1920 3584 2246 3911 2432 4100 
C 2432 4157 2432 4192 2394 4192 
C 2387 4192 2374 4192 2323 4163 
C 2099 4058 1837 3973 1517 3973 
C 1325 3973 1037 3999 723 4139 
C 653 4171 640 4171 634 4171 
C 602 4171 595 4164 595 4037 
L 595 2203 
C 595 2089 595 2057 659 2057 
C 691 2057 704 2070 736 2114 
C 941 2401 1222 2522 1542 2522 
C 1766 2522 2246 2382 2246 1289 
C 2246 1085 2246 715 2054 421 
C 1894 159 1645 25 1370 25 
C 947 25 518 320 403 814 
C 429 807 480 795 506 795 
C 589 795 749 840 749 1038 
C 749 1210 627 1280 506 1280 
C 358 1280 262 1190 262 1011 
C 262 454 704 -128 1382 -128 
C 2042 -128 2669 440 2669 1264 
C 2669 2030 2170 2624 1549 2624 
C 1222 2624 947 2503 730 2274 
L 730 3692 
z
" transform="scale(0.015625)"/>
       </defs>
       <use xlink:href="#CMR17-35" transform="scale(0.996264)"/>
      </g>
     </g>
    </g>
    <g id="xtick_3">
     <g id="line2d_5">
      <path d="M 146.332723 175.381683 
L 146.332723 10.8 
" clip-path="url(#p7310bb680b)" style="fill: none; stroke: #b0b0b0; stroke-width: 0.8; stroke-linecap: square"/>
     </g>
     <g id="line2d_6">
      <g>
       <use xlink:href="#mb78fb37971" x="146.332723" y="175.381683" style="stroke: #000000; stroke-width: 0.8"/>
      </g>
     </g>
     <g id="text_3">
      <!-- $\mathdefault{10}$ -->
      <g transform="translate(141.351388 189.300182) scale(0.1 -0.1)">
       <defs>
        <path id="CMR17-31" d="M 1702 4058 
C 1702 4192 1696 4192 1606 4192 
C 1357 3916 979 3827 621 3827 
C 602 3827 570 3827 563 3808 
C 557 3795 557 3782 557 3648 
C 755 3648 1088 3686 1344 3839 
L 1344 461 
C 1344 236 1331 160 781 160 
L 589 160 
L 589 0 
C 896 0 1216 0 1523 0 
C 1830 0 2150 0 2458 0 
L 2458 160 
L 2266 160 
C 1715 160 1702 230 1702 458 
L 1702 4058 
z
" transform="scale(0.015625)"/>
       </defs>
       <use xlink:href="#CMR17-31" transform="scale(0.996264)"/>
       <use xlink:href="#CMR17-30" transform="translate(45.690477 0) scale(0.996264)"/>
      </g>
     </g>
    </g>
    <g id="xtick_4">
     <g id="line2d_7">
      <path d="M 184.25184 175.381683 
L 184.25184 10.8 
" clip-path="url(#p7310bb680b)" style="fill: none; stroke: #b0b0b0; stroke-width: 0.8; stroke-linecap: square"/>
     </g>
     <g id="line2d_8">
      <g>
       <use xlink:href="#mb78fb37971" x="184.25184" y="175.381683" style="stroke: #000000; stroke-width: 0.8"/>
      </g>
     </g>
     <g id="text_4">
      <!-- $\mathdefault{15}$ -->
      <g transform="translate(179.270505 189.300182) scale(0.1 -0.1)">
       <use xlink:href="#CMR17-31" transform="scale(0.996264)"/>
       <use xlink:href="#CMR17-35" transform="translate(45.690477 0) scale(0.996264)"/>
      </g>
     </g>
    </g>
    <g id="xtick_5">
     <g id="line2d_9">
      <path d="M 222.170958 175.381683 
L 222.170958 10.8 
" clip-path="url(#p7310bb680b)" style="fill: none; stroke: #b0b0b0; stroke-width: 0.8; stroke-linecap: square"/>
     </g>
     <g id="line2d_10">
      <g>
       <use xlink:href="#mb78fb37971" x="222.170958" y="175.381683" style="stroke: #000000; stroke-width: 0.8"/>
      </g>
     </g>
     <g id="text_5">
      <!-- $\mathdefault{20}$ -->
      <g transform="translate(217.189622 189.300182) scale(0.1 -0.1)">
       <defs>
        <path id="CMR17-32" d="M 2669 989 
L 2554 989 
C 2490 536 2438 459 2413 420 
C 2381 369 1920 369 1830 369 
L 602 369 
C 832 619 1280 1072 1824 1597 
C 2214 1967 2669 2402 2669 3035 
C 2669 3790 2067 4224 1395 4224 
C 691 4224 262 3604 262 3030 
C 262 2780 448 2748 525 2748 
C 589 2748 781 2787 781 3010 
C 781 3207 614 3264 525 3264 
C 486 3264 448 3258 422 3245 
C 544 3790 915 4058 1306 4058 
C 1862 4058 2227 3617 2227 3035 
C 2227 2479 1901 2000 1536 1584 
L 262 146 
L 262 0 
L 2515 0 
L 2669 989 
z
" transform="scale(0.015625)"/>
       </defs>
       <use xlink:href="#CMR17-32" transform="scale(0.996264)"/>
       <use xlink:href="#CMR17-30" transform="translate(45.690477 0) scale(0.996264)"/>
      </g>
     </g>
    </g>
    <g id="xtick_6">
     <g id="line2d_11">
      <path d="M 260.090075 175.381683 
L 260.090075 10.8 
" clip-path="url(#p7310bb680b)" style="fill: none; stroke: #b0b0b0; stroke-width: 0.8; stroke-linecap: square"/>
     </g>
     <g id="line2d_12">
      <g>
       <use xlink:href="#mb78fb37971" x="260.090075" y="175.381683" style="stroke: #000000; stroke-width: 0.8"/>
      </g>
     </g>
     <g id="text_6">
      <!-- $\mathdefault{25}$ -->
      <g transform="translate(255.108739 189.300182) scale(0.1 -0.1)">
       <use xlink:href="#CMR17-32" transform="scale(0.996264)"/>
       <use xlink:href="#CMR17-35" transform="translate(45.690477 0) scale(0.996264)"/>
      </g>
     </g>
    </g>
    <g id="xtick_7">
     <g id="line2d_13">
      <path d="M 298.009192 175.381683 
L 298.009192 10.8 
" clip-path="url(#p7310bb680b)" style="fill: none; stroke: #b0b0b0; stroke-width: 0.8; stroke-linecap: square"/>
     </g>
     <g id="line2d_14">
      <g>
       <use xlink:href="#mb78fb37971" x="298.009192" y="175.381683" style="stroke: #000000; stroke-width: 0.8"/>
      </g>
     </g>
     <g id="text_7">
      <!-- $\mathdefault{30}$ -->
      <g transform="translate(293.027857 189.300182) scale(0.1 -0.1)">
       <defs>
        <path id="CMR17-33" d="M 1414 2157 
C 1984 2157 2234 1662 2234 1090 
C 2234 320 1824 25 1453 25 
C 1114 25 563 194 390 693 
C 422 680 454 680 486 680 
C 640 680 755 782 755 948 
C 755 1133 614 1216 486 1216 
C 378 1216 211 1165 211 926 
C 211 335 787 -128 1466 -128 
C 2176 -128 2720 430 2720 1085 
C 2720 1707 2208 2157 1600 2227 
C 2086 2328 2554 2756 2554 3329 
C 2554 3820 2048 4179 1472 4179 
C 890 4179 378 3829 378 3329 
C 378 3110 544 3072 627 3072 
C 762 3072 877 3155 877 3321 
C 877 3486 762 3569 627 3569 
C 602 3569 570 3569 544 3557 
C 730 3959 1235 4032 1459 4032 
C 1683 4032 2106 3925 2106 3320 
C 2106 3143 2080 2828 1862 2550 
C 1670 2304 1453 2304 1242 2284 
C 1210 2284 1062 2269 1037 2269 
C 992 2263 966 2257 966 2208 
C 966 2163 973 2157 1101 2157 
L 1414 2157 
z
" transform="scale(0.015625)"/>
       </defs>
       <use xlink:href="#CMR17-33" transform="scale(0.996264)"/>
       <use xlink:href="#CMR17-30" transform="translate(45.690477 0) scale(0.996264)"/>
      </g>
     </g>
    </g>
    <g id="xtick_8">
     <g id="line2d_15">
      <path d="M 335.928309 175.381683 
L 335.928309 10.8 
" clip-path="url(#p7310bb680b)" style="fill: none; stroke: #b0b0b0; stroke-width: 0.8; stroke-linecap: square"/>
     </g>
     <g id="line2d_16">
      <g>
       <use xlink:href="#mb78fb37971" x="335.928309" y="175.381683" style="stroke: #000000; stroke-width: 0.8"/>
      </g>
     </g>
     <g id="text_8">
      <!-- $\mathdefault{35}$ -->
      <g transform="translate(330.946974 189.300182) scale(0.1 -0.1)">
       <use xlink:href="#CMR17-33" transform="scale(0.996264)"/>
       <use xlink:href="#CMR17-35" transform="translate(45.690477 0) scale(0.996264)"/>
      </g>
     </g>
    </g>
    <g id="text_9">
     <!-- Time $t$ [s] -->
     <g transform="translate(182.013091 202.70934) scale(0.1 -0.1)">
      <defs>
       <path id="CMR17-54" d="M 3981 4326 
L 288 4326 
L 179 2918 
L 294 2918 
C 378 3976 467 4160 1453 4160 
C 1568 4160 1754 4160 1805 4154 
C 1926 4135 1926 4058 1926 3912 
L 1926 459 
C 1926 230 1907 160 1376 160 
L 1197 160 
L 1197 0 
C 1504 0 1824 0 2138 0 
C 2451 0 2771 0 3078 0 
L 3078 160 
L 2899 160 
C 2368 160 2349 230 2349 459 
L 2349 3912 
C 2349 4052 2349 4129 2464 4154 
C 2515 4160 2701 4160 2816 4160 
C 3795 4160 3891 3976 3974 2918 
L 4090 2918 
L 3981 4326 
z
" transform="scale(0.015625)"/>
       <path id="CMR17-69" d="M 992 3909 
C 992 4049 877 4170 730 4170 
C 589 4170 467 4056 467 3909 
C 467 3769 582 3648 730 3648 
C 870 3648 992 3763 992 3909 
z
M 243 2706 
L 243 2541 
C 602 2541 653 2502 653 2197 
L 653 427 
C 653 184 627 153 218 153 
L 218 -13 
C 371 0 646 0 806 0 
C 960 0 1222 0 1370 -13 
L 1370 153 
C 992 153 979 191 979 420 
L 979 2776 
L 243 2706 
z
" transform="scale(0.015625)"/>
       <path id="CMR17-6d" d="M 4326 1933 
C 4326 2252 4269 2790 3507 2790 
C 3072 2790 2771 2496 2656 2151 
L 2650 2151 
C 2573 2676 2195 2790 1837 2790 
C 1331 2790 1069 2400 973 2144 
L 966 2144 
L 966 2790 
L 211 2720 
L 211 2554 
C 589 2554 646 2515 646 2208 
L 646 428 
C 646 184 621 153 211 153 
L 211 -13 
C 365 0 646 0 813 0 
C 979 0 1267 0 1421 -13 
L 1421 153 
C 1011 153 986 178 986 428 
L 986 1658 
C 986 2247 1344 2688 1792 2688 
C 2266 2688 2317 2266 2317 1958 
L 2317 428 
C 2317 184 2291 153 1882 153 
L 1882 -13 
C 2035 0 2317 0 2483 0 
C 2650 0 2938 0 3091 -13 
L 3091 153 
C 2682 153 2656 178 2656 428 
L 2656 1658 
C 2656 2247 3014 2688 3462 2688 
C 3936 2688 3987 2266 3987 1958 
L 3987 428 
C 3987 184 3962 153 3552 153 
L 3552 -13 
C 3706 0 3987 0 4154 0 
C 4320 0 4608 0 4762 -13 
L 4762 153 
C 4352 153 4326 178 4326 428 
L 4326 1933 
z
" transform="scale(0.015625)"/>
       <path id="CMR17-65" d="M 2438 1472 
C 2464 1498 2464 1511 2464 1576 
C 2464 2238 2118 2816 1389 2816 
C 710 2816 173 2169 173 1383 
C 173 551 781 -64 1459 -64 
C 2176 -64 2458 607 2458 740 
C 2458 784 2419 784 2406 784 
C 2362 784 2355 771 2330 696 
C 2189 265 1837 51 1504 51 
C 1229 51 954 203 781 480 
C 582 803 582 1176 582 1472 
L 2438 1472 
z
M 589 1568 
C 634 2505 1126 2714 1382 2714 
C 1818 2714 2112 2297 2118 1568 
L 589 1568 
z
" transform="scale(0.015625)"/>
       <path id="CMMI12-74" d="M 1286 2566 
L 1875 2566 
C 1997 2566 2061 2566 2061 2681 
C 2061 2752 2022 2752 1894 2752 
L 1331 2752 
L 1568 3692 
C 1594 3781 1594 3794 1594 3840 
C 1594 3943 1510 4000 1427 4000 
C 1376 4000 1229 3981 1178 3775 
L 928 2752 
L 326 2752 
C 198 2752 141 2752 141 2630 
C 141 2566 186 2566 307 2566 
L 877 2566 
L 454 881 
C 403 658 384 594 384 511 
C 384 211 595 -64 954 -64 
C 1600 -64 1946 868 1946 912 
C 1946 951 1920 970 1882 970 
C 1869 970 1843 970 1830 944 
C 1824 938 1818 931 1773 829 
C 1638 511 1344 64 973 64 
C 781 64 768 224 768 364 
C 768 370 768 492 787 568 
L 1286 2566 
z
" transform="scale(0.015625)"/>
       <path id="CMR17-5b" d="M 1504 -1600 
L 1504 -1377 
L 902 -1377 
L 902 4544 
L 1504 4544 
L 1504 4767 
L 678 4767 
L 678 -1600 
L 1504 -1600 
z
" transform="scale(0.015625)"/>
       <path id="CMR17-73" d="M 1978 2697 
C 1978 2813 1971 2819 1933 2819 
C 1907 2819 1901 2813 1824 2717 
C 1805 2691 1747 2626 1728 2601 
C 1523 2819 1235 2819 1126 2819 
C 416 2819 160 2447 160 2076 
C 160 1498 813 1365 998 1325 
C 1402 1243 1542 1217 1677 1101 
C 1760 1025 1901 884 1901 654 
C 1901 384 1747 38 1158 38 
C 602 38 403 460 288 1021 
C 269 1110 269 1117 218 1117 
C 166 1117 160 1110 160 983 
L 160 63 
C 160 -51 166 -58 205 -58 
C 237 -58 243 -51 275 0 
C 314 57 410 211 448 276 
C 576 103 800 -64 1158 -64 
C 1792 -64 2131 283 2131 784 
C 2131 1112 1958 1285 1875 1362 
C 1683 1561 1459 1606 1190 1657 
C 838 1735 390 1825 390 2217 
C 390 2383 480 2737 1126 2737 
C 1811 2737 1850 2094 1862 1888 
C 1869 1856 1901 1849 1920 1849 
C 1978 1849 1978 1869 1978 1978 
L 1978 2697 
z
" transform="scale(0.015625)"/>
       <path id="CMR17-5d" d="M 915 4767 
L 90 4767 
L 90 4544 
L 691 4544 
L 691 -1377 
L 90 -1377 
L 90 -1600 
L 915 -1600 
L 915 4767 
z
" transform="scale(0.015625)"/>
      </defs>
      <use xlink:href="#CMR17-54" transform="scale(0.996264)"/>
      <use xlink:href="#CMR17-69" transform="translate(66.509881 0) scale(0.996264)"/>
      <use xlink:href="#CMR17-6d" transform="translate(91.380939 0) scale(0.996264)"/>
      <use xlink:href="#CMR17-65" transform="translate(168.300529 0) scale(0.996264)"/>
      <use xlink:href="#CMMI12-74" transform="translate(238.862156 0) scale(0.996264)"/>
      <use xlink:href="#CMR17-5b" transform="translate(304.164452 0) scale(0.996264)"/>
      <use xlink:href="#CMR17-73" transform="translate(329.035511 0) scale(0.996264)"/>
      <use xlink:href="#CMR17-5d" transform="translate(364.836848 0) scale(0.996264)"/>
     </g>
    </g>
   </g>
   <g id="matplotlib.axis_2">
    <g id="ytick_1">
     <g id="line2d_17">
      <path d="M 57.222798 166.216147 
L 349.2 166.216147 
" clip-path="url(#p7310bb680b)" style="fill: none; stroke: #b0b0b0; stroke-width: 0.8; stroke-linecap: square"/>
     </g>
     <g id="line2d_18">
      <defs>
       <path id="m82f731e71c" d="M 0 0 
L -3.5 0 
" style="stroke: #000000; stroke-width: 0.8"/>
      </defs>
      <g>
       <use xlink:href="#m82f731e71c" x="57.222798" y="166.216147" style="stroke: #000000; stroke-width: 0.8"/>
      </g>
     </g>
     <g id="text_10">
      <!-- $\mathdefault{−0.20}$ -->
      <g transform="translate(24.76264 169.675396) scale(0.1 -0.1)">
       <defs>
        <path id="CMSY10-0" d="M 4218 1472 
C 4326 1472 4442 1472 4442 1600 
C 4442 1728 4326 1728 4218 1728 
L 755 1728 
C 646 1728 531 1728 531 1600 
C 531 1472 646 1472 755 1472 
L 4218 1472 
z
" transform="scale(0.015625)"/>
        <path id="CMMI12-3a" d="M 1178 307 
C 1178 492 1024 619 870 619 
C 685 619 557 466 557 313 
C 557 128 710 0 864 0 
C 1050 0 1178 153 1178 307 
z
" transform="scale(0.015625)"/>
       </defs>
       <use xlink:href="#CMSY10-0" transform="scale(0.996264)"/>
       <use xlink:href="#CMR17-30" transform="translate(77.487468 0) scale(0.996264)"/>
       <use xlink:href="#CMMI12-3a" transform="translate(123.177945 0) scale(0.996264)"/>
       <use xlink:href="#CMR17-32" transform="translate(150.275122 0) scale(0.996264)"/>
       <use xlink:href="#CMR17-30" transform="translate(195.965599 0) scale(0.996264)"/>
      </g>
     </g>
    </g>
    <g id="ytick_2">
     <g id="line2d_19">
      <path d="M 57.222798 144.741212 
L 349.2 144.741212 
" clip-path="url(#p7310bb680b)" style="fill: none; stroke: #b0b0b0; stroke-width: 0.8; stroke-linecap: square"/>
     </g>
     <g id="line2d_20">
      <g>
       <use xlink:href="#m82f731e71c" x="57.222798" y="144.741212" style="stroke: #000000; stroke-width: 0.8"/>
      </g>
     </g>
     <g id="text_11">
      <!-- $\mathdefault{−0.15}$ -->
      <g transform="translate(24.76264 148.200461) scale(0.1 -0.1)">
       <use xlink:href="#CMSY10-0" transform="scale(0.996264)"/>
       <use xlink:href="#CMR17-30" transform="translate(77.487468 0) scale(0.996264)"/>
       <use xlink:href="#CMMI12-3a" transform="translate(123.177945 0) scale(0.996264)"/>
       <use xlink:href="#CMR17-31" transform="translate(150.275122 0) scale(0.996264)"/>
       <use xlink:href="#CMR17-35" transform="translate(195.965599 0) scale(0.996264)"/>
      </g>
     </g>
    </g>
    <g id="ytick_3">
     <g id="line2d_21">
      <path d="M 57.222798 123.266276 
L 349.2 123.266276 
" clip-path="url(#p7310bb680b)" style="fill: none; stroke: #b0b0b0; stroke-width: 0.8; stroke-linecap: square"/>
     </g>
     <g id="line2d_22">
      <g>
       <use xlink:href="#m82f731e71c" x="57.222798" y="123.266276" style="stroke: #000000; stroke-width: 0.8"/>
      </g>
     </g>
     <g id="text_12">
      <!-- $\mathdefault{−0.10}$ -->
      <g transform="translate(24.76264 126.725525) scale(0.1 -0.1)">
       <use xlink:href="#CMSY10-0" transform="scale(0.996264)"/>
       <use xlink:href="#CMR17-30" transform="translate(77.487468 0) scale(0.996264)"/>
       <use xlink:href="#CMMI12-3a" transform="translate(123.177945 0) scale(0.996264)"/>
       <use xlink:href="#CMR17-31" transform="translate(150.275122 0) scale(0.996264)"/>
       <use xlink:href="#CMR17-30" transform="translate(195.965599 0) scale(0.996264)"/>
      </g>
     </g>
    </g>
    <g id="ytick_4">
     <g id="line2d_23">
      <path d="M 57.222798 101.79134 
L 349.2 101.79134 
" clip-path="url(#p7310bb680b)" style="fill: none; stroke: #b0b0b0; stroke-width: 0.8; stroke-linecap: square"/>
     </g>
     <g id="line2d_24">
      <g>
       <use xlink:href="#m82f731e71c" x="57.222798" y="101.79134" style="stroke: #000000; stroke-width: 0.8"/>
      </g>
     </g>
     <g id="text_13">
      <!-- $\mathdefault{−0.05}$ -->
      <g transform="translate(24.76264 105.250589) scale(0.1 -0.1)">
       <use xlink:href="#CMSY10-0" transform="scale(0.996264)"/>
       <use xlink:href="#CMR17-30" transform="translate(77.487468 0) scale(0.996264)"/>
       <use xlink:href="#CMMI12-3a" transform="translate(123.177945 0) scale(0.996264)"/>
       <use xlink:href="#CMR17-30" transform="translate(150.275122 0) scale(0.996264)"/>
       <use xlink:href="#CMR17-35" transform="translate(195.965599 0) scale(0.996264)"/>
      </g>
     </g>
    </g>
    <g id="ytick_5">
     <g id="line2d_25">
      <path d="M 57.222798 80.316404 
L 349.2 80.316404 
" clip-path="url(#p7310bb680b)" style="fill: none; stroke: #b0b0b0; stroke-width: 0.8; stroke-linecap: square"/>
     </g>
     <g id="line2d_26">
      <g>
       <use xlink:href="#m82f731e71c" x="57.222798" y="80.316404" style="stroke: #000000; stroke-width: 0.8"/>
      </g>
     </g>
     <g id="text_14">
      <!-- $\mathdefault{0.00}$ -->
      <g transform="translate(32.511384 83.775654) scale(0.1 -0.1)">
       <use xlink:href="#CMR17-30" transform="scale(0.996264)"/>
       <use xlink:href="#CMMI12-3a" transform="translate(45.690477 0) scale(0.996264)"/>
       <use xlink:href="#CMR17-30" transform="translate(72.787654 0) scale(0.996264)"/>
       <use xlink:href="#CMR17-30" transform="translate(118.478131 0) scale(0.996264)"/>
      </g>
     </g>
    </g>
    <g id="ytick_6">
     <g id="line2d_27">
      <path d="M 57.222798 58.841469 
L 349.2 58.841469 
" clip-path="url(#p7310bb680b)" style="fill: none; stroke: #b0b0b0; stroke-width: 0.8; stroke-linecap: square"/>
     </g>
     <g id="line2d_28">
      <g>
       <use xlink:href="#m82f731e71c" x="57.222798" y="58.841469" style="stroke: #000000; stroke-width: 0.8"/>
      </g>
     </g>
     <g id="text_15">
      <!-- $\mathdefault{0.05}$ -->
      <g transform="translate(32.511384 62.300718) scale(0.1 -0.1)">
       <use xlink:href="#CMR17-30" transform="scale(0.996264)"/>
       <use xlink:href="#CMMI12-3a" transform="translate(45.690477 0) scale(0.996264)"/>
       <use xlink:href="#CMR17-30" transform="translate(72.787654 0) scale(0.996264)"/>
       <use xlink:href="#CMR17-35" transform="translate(118.478131 0) scale(0.996264)"/>
      </g>
     </g>
    </g>
    <g id="ytick_7">
     <g id="line2d_29">
      <path d="M 57.222798 37.366533 
L 349.2 37.366533 
" clip-path="url(#p7310bb680b)" style="fill: none; stroke: #b0b0b0; stroke-width: 0.8; stroke-linecap: square"/>
     </g>
     <g id="line2d_30">
      <g>
       <use xlink:href="#m82f731e71c" x="57.222798" y="37.366533" style="stroke: #000000; stroke-width: 0.8"/>
      </g>
     </g>
     <g id="text_16">
      <!-- $\mathdefault{0.10}$ -->
      <g transform="translate(32.511384 40.825782) scale(0.1 -0.1)">
       <use xlink:href="#CMR17-30" transform="scale(0.996264)"/>
       <use xlink:href="#CMMI12-3a" transform="translate(45.690477 0) scale(0.996264)"/>
       <use xlink:href="#CMR17-31" transform="translate(72.787654 0) scale(0.996264)"/>
       <use xlink:href="#CMR17-30" transform="translate(118.478131 0) scale(0.996264)"/>
      </g>
     </g>
    </g>
    <g id="ytick_8">
     <g id="line2d_31">
      <path d="M 57.222798 15.891597 
L 349.2 15.891597 
" clip-path="url(#p7310bb680b)" style="fill: none; stroke: #b0b0b0; stroke-width: 0.8; stroke-linecap: square"/>
     </g>
     <g id="line2d_32">
      <g>
       <use xlink:href="#m82f731e71c" x="57.222798" y="15.891597" style="stroke: #000000; stroke-width: 0.8"/>
      </g>
     </g>
     <g id="text_17">
      <!-- $\mathdefault{0.15}$ -->
      <g transform="translate(32.511384 19.350846) scale(0.1 -0.1)">
       <use xlink:href="#CMR17-30" transform="scale(0.996264)"/>
       <use xlink:href="#CMMI12-3a" transform="translate(45.690477 0) scale(0.996264)"/>
       <use xlink:href="#CMR17-31" transform="translate(72.787654 0) scale(0.996264)"/>
       <use xlink:href="#CMR17-35" transform="translate(118.478131 0) scale(0.996264)"/>
      </g>
     </g>
    </g>
    <g id="text_18">
     <!-- Shear force [N] -->
     <g transform="translate(18.27198 125.49715) rotate(-90) scale(0.1 -0.1)">
      <defs>
       <path id="CMR17-53" d="M 2803 4290 
C 2803 4404 2797 4411 2758 4411 
C 2720 4411 2707 4385 2682 4328 
L 2490 3907 
C 2246 4257 1875 4416 1472 4416 
C 819 4416 294 3901 294 3253 
C 294 3056 339 2776 557 2510 
C 794 2218 1018 2167 1530 2033 
C 1722 1982 2042 1899 2106 1874 
C 2470 1722 2662 1341 2662 985 
C 2662 527 2336 38 1779 38 
C 1094 38 454 419 410 1311 
C 403 1413 397 1419 352 1419 
C 301 1419 294 1413 294 1285 
L 294 -1 
C 294 -115 301 -122 339 -122 
C 384 -122 397 -90 486 108 
C 493 127 493 140 614 381 
C 934 -39 1472 -128 1779 -128 
C 2477 -128 2970 451 2970 1124 
C 2970 1454 2848 1708 2778 1823 
C 2509 2230 2221 2306 1914 2382 
C 1869 2402 1856 2402 1498 2490 
C 1152 2579 1005 2624 845 2796 
C 666 2992 602 3196 602 3399 
C 602 3812 934 4263 1478 4263 
C 2157 4263 2579 3786 2675 2993 
C 2694 2878 2701 2872 2746 2872 
C 2803 2872 2803 2891 2803 2999 
L 2803 4290 
z
" transform="scale(0.015625)"/>
       <path id="CMR17-68" d="M 2656 1933 
C 2656 2259 2592 2790 1837 2790 
C 1312 2790 1056 2368 979 2157 
L 973 2157 
L 973 4396 
L 211 4326 
L 211 4160 
C 589 4160 646 4122 646 3817 
L 646 426 
C 646 184 621 153 211 153 
L 211 -13 
C 365 0 646 0 813 0 
C 979 0 1267 0 1421 -13 
L 1421 153 
C 1011 153 986 178 986 428 
L 986 1658 
C 986 2247 1344 2688 1792 2688 
C 2266 2688 2317 2266 2317 1958 
L 2317 428 
C 2317 184 2291 153 1882 153 
L 1882 -13 
C 2035 0 2317 0 2483 0 
C 2650 0 2938 0 3091 -13 
L 3091 153 
C 2682 153 2656 178 2656 428 
L 2656 1933 
z
" transform="scale(0.015625)"/>
       <path id="CMR17-61" d="M 2304 1653 
C 2304 2072 2304 2294 2035 2543 
C 1798 2752 1523 2816 1306 2816 
C 800 2816 435 2407 435 1971 
C 435 1728 627 1728 666 1728 
C 749 1728 896 1778 896 1954 
C 896 2112 774 2181 666 2181 
C 640 2181 608 2174 589 2168 
C 723 2592 1069 2714 1293 2714 
C 1613 2714 1965 2429 1965 1885 
L 1965 1600 
C 1587 1600 1133 1549 774 1357 
C 371 1133 256 813 256 570 
C 256 77 832 -64 1171 -64 
C 1523 -64 1850 139 1990 511 
C 2003 233 2182 -18 2464 -18 
C 2598 -18 2938 70 2938 567 
L 2938 920 
L 2822 920 
L 2822 562 
C 2822 178 2650 128 2566 128 
C 2304 128 2304 458 2304 738 
L 2304 1653 
z
M 1965 870 
C 1965 317 1568 38 1216 38 
C 896 38 646 275 646 570 
C 646 761 730 1100 1101 1305 
C 1408 1478 1760 1504 1965 1504 
L 1965 870 
z
" transform="scale(0.015625)"/>
       <path id="CMR17-72" d="M 960 1497 
C 960 2112 1222 2688 1702 2688 
C 1747 2688 1792 2682 1837 2662 
C 1837 2662 1696 2617 1696 2452 
C 1696 2298 1818 2234 1914 2234 
C 1990 2234 2131 2279 2131 2458 
C 2131 2663 1926 2790 1709 2790 
C 1222 2790 1011 2317 947 2093 
L 941 2093 
L 941 2790 
L 198 2720 
L 198 2554 
C 576 2554 634 2515 634 2208 
L 634 428 
C 634 184 608 153 198 153 
L 198 -13 
C 352 0 646 0 813 0 
C 998 0 1325 0 1498 -13 
L 1498 153 
C 1037 153 960 153 960 440 
L 960 1497 
z
" transform="scale(0.015625)"/>
       <path id="CMR17-66" d="M 979 2560 
L 1709 2560 
L 1709 2725 
L 966 2725 
L 966 3494 
C 966 4022 1235 4352 1510 4352 
C 1594 4352 1690 4327 1754 4282 
C 1702 4269 1568 4225 1568 4067 
C 1568 3901 1696 3850 1786 3850 
C 1875 3850 2003 3901 2003 4067 
C 2003 4308 1773 4454 1517 4454 
C 1152 4454 653 4156 653 3481 
L 653 2725 
L 141 2725 
L 141 2560 
L 653 2560 
L 653 427 
C 653 184 627 153 218 153 
L 218 -13 
C 371 0 666 0 832 0 
C 1018 0 1344 0 1517 -13 
L 1517 153 
C 1056 153 979 153 979 439 
L 979 2560 
z
" transform="scale(0.015625)"/>
       <path id="CMR17-6f" d="M 2758 1356 
C 2758 2176 2163 2816 1466 2816 
C 768 2816 173 2176 173 1356 
C 173 551 768 -64 1466 -64 
C 2163 -64 2758 551 2758 1356 
z
M 1466 51 
C 1165 51 909 230 762 480 
C 602 767 582 1126 582 1408 
C 582 1677 595 2010 762 2298 
C 890 2509 1139 2714 1466 2714 
C 1754 2714 1997 2554 2150 2330 
C 2349 2029 2349 1607 2349 1408 
C 2349 1158 2336 775 2163 467 
C 1984 173 1709 51 1466 51 
z
" transform="scale(0.015625)"/>
       <path id="CMR17-63" d="M 2234 2240 
C 2112 2240 1933 2240 1933 2017 
C 1933 1838 2080 1787 2163 1787 
C 2208 1787 2394 1807 2394 2024 
C 2394 2467 1958 2803 1466 2803 
C 787 2803 211 2178 211 1363 
C 211 516 813 -64 1466 -64 
C 2259 -64 2458 677 2458 748 
C 2458 774 2451 793 2406 793 
C 2362 793 2355 787 2330 703 
C 2163 180 1798 51 1523 51 
C 1114 51 621 427 621 1369 
C 621 2338 1094 2688 1472 2688 
C 1722 2688 2093 2573 2234 2240 
z
" transform="scale(0.015625)"/>
       <path id="CMR17-4e" d="M 1312 4250 
C 1267 4320 1261 4320 1139 4320 
L 326 4320 
L 326 4160 
L 448 4160 
C 704 4160 819 4129 838 4122 
L 838 610 
C 838 451 838 153 326 153 
L 326 -13 
C 474 0 742 0 902 0 
C 1062 0 1331 0 1478 -13 
L 1478 153 
C 966 153 966 451 966 610 
L 966 4033 
C 1011 3995 1011 3982 1056 3919 
L 3430 76 
C 3475 0 3494 0 3526 0 
C 3590 0 3590 19 3590 139 
L 3590 3705 
C 3590 3863 3590 4160 4102 4160 
L 4102 4326 
C 3955 4320 3686 4320 3526 4320 
C 3366 4320 3098 4320 2950 4326 
L 2950 4160 
C 3462 4160 3462 3862 3462 3703 
L 3462 763 
L 1312 4250 
z
" transform="scale(0.015625)"/>
      </defs>
      <use xlink:href="#CMR17-53" transform="scale(0.996264)"/>
      <use xlink:href="#CMR17-68" transform="translate(50.89537 0) scale(0.996264)"/>
      <use xlink:href="#CMR17-65" transform="translate(101.79074 0) scale(0.996264)"/>
      <use xlink:href="#CMR17-61" transform="translate(142.2764 0) scale(0.996264)"/>
      <use xlink:href="#CMR17-72" transform="translate(187.966877 0) scale(0.996264)"/>
      <use xlink:href="#CMR17-66" transform="translate(253.323611 0) scale(0.996264)"/>
      <use xlink:href="#CMR17-6f" transform="translate(280.797124 0) scale(0.996264)"/>
      <use xlink:href="#CMR17-72" transform="translate(326.487601 0) scale(0.996264)"/>
      <use xlink:href="#CMR17-63" transform="translate(361.768369 0) scale(0.996264)"/>
      <use xlink:href="#CMR17-65" transform="translate(402.254029 0) scale(0.996264)"/>
      <use xlink:href="#CMR17-5b" transform="translate(472.815656 0) scale(0.996264)"/>
      <use xlink:href="#CMR17-4e" transform="translate(497.686714 0) scale(0.996264)"/>
      <use xlink:href="#CMR17-5d" transform="translate(566.759144 0) scale(0.996264)"/>
     </g>
    </g>
   </g>
   <g id="line2d_33">
    <path d="M 70.494489 61.015188 
L 108.413606 61.015188 
L 108.565283 137.588282 
L 146.332723 137.588282 
L 146.4844 92.044654 
L 184.25184 92.044654 
L 184.403517 119.361379 
L 222.170958 119.361379 
L 222.322634 72.355829 
L 260.090075 72.355829 
L 260.241751 53.950431 
L 298.009192 53.950431 
L 298.160868 102.761497 
L 335.928309 102.761497 
L 335.928309 102.761497 
" clip-path="url(#p7310bb680b)" style="fill: none; stroke: #1f77b4; stroke-width: 1.5; stroke-linecap: square"/>
    <defs>
     <path id="m5caa7dadf0" d="M 0 2.5 
C 0.663008 2.5 1.29895 2.236584 1.767767 1.767767 
C 2.236584 1.29895 2.5 0.663008 2.5 0 
C 2.5 -0.663008 2.236584 -1.29895 1.767767 -1.767767 
C 1.29895 -2.236584 0.663008 -2.5 0 -2.5 
C -0.663008 -2.5 -1.29895 -2.236584 -1.767767 -1.767767 
C -2.236584 -1.29895 -2.5 -0.663008 -2.5 0 
C -2.5 0.663008 -2.236584 1.29895 -1.767767 1.767767 
C -1.29895 2.236584 -0.663008 2.5 0 2.5 
z
" style="stroke: #1f77b4"/>
    </defs>
    <g clip-path="url(#p7310bb680b)">
     <use xlink:href="#m5caa7dadf0" x="70.494489" y="61.015188" style="fill: #1f77b4; stroke: #1f77b4"/>
     <use xlink:href="#m5caa7dadf0" x="78.078312" y="61.015188" style="fill: #1f77b4; stroke: #1f77b4"/>
     <use xlink:href="#m5caa7dadf0" x="85.662136" y="61.015188" style="fill: #1f77b4; stroke: #1f77b4"/>
     <use xlink:href="#m5caa7dadf0" x="93.245959" y="61.015188" style="fill: #1f77b4; stroke: #1f77b4"/>
     <use xlink:href="#m5caa7dadf0" x="100.829783" y="61.015188" style="fill: #1f77b4; stroke: #1f77b4"/>
     <use xlink:href="#m5caa7dadf0" x="108.413606" y="61.015188" style="fill: #1f77b4; stroke: #1f77b4"/>
     <use xlink:href="#m5caa7dadf0" x="115.99743" y="137.588282" style="fill: #1f77b4; stroke: #1f77b4"/>
     <use xlink:href="#m5caa7dadf0" x="123.581253" y="137.588282" style="fill: #1f77b4; stroke: #1f77b4"/>
     <use xlink:href="#m5caa7dadf0" x="131.165076" y="137.588282" style="fill: #1f77b4; stroke: #1f77b4"/>
     <use xlink:href="#m5caa7dadf0" x="138.7489" y="137.588282" style="fill: #1f77b4; stroke: #1f77b4"/>
     <use xlink:href="#m5caa7dadf0" x="146.332723" y="137.588282" style="fill: #1f77b4; stroke: #1f77b4"/>
     <use xlink:href="#m5caa7dadf0" x="153.916547" y="92.044654" style="fill: #1f77b4; stroke: #1f77b4"/>
     <use xlink:href="#m5caa7dadf0" x="161.50037" y="92.044654" style="fill: #1f77b4; stroke: #1f77b4"/>
     <use xlink:href="#m5caa7dadf0" x="169.084194" y="92.044654" style="fill: #1f77b4; stroke: #1f77b4"/>
     <use xlink:href="#m5caa7dadf0" x="176.668017" y="92.044654" style="fill: #1f77b4; stroke: #1f77b4"/>
     <use xlink:href="#m5caa7dadf0" x="184.25184" y="92.044654" style="fill: #1f77b4; stroke: #1f77b4"/>
     <use xlink:href="#m5caa7dadf0" x="191.835664" y="119.361379" style="fill: #1f77b4; stroke: #1f77b4"/>
     <use xlink:href="#m5caa7dadf0" x="199.419487" y="119.361379" style="fill: #1f77b4; stroke: #1f77b4"/>
     <use xlink:href="#m5caa7dadf0" x="207.003311" y="119.361379" style="fill: #1f77b4; stroke: #1f77b4"/>
     <use xlink:href="#m5caa7dadf0" x="214.587134" y="119.361379" style="fill: #1f77b4; stroke: #1f77b4"/>
     <use xlink:href="#m5caa7dadf0" x="222.170958" y="119.361379" style="fill: #1f77b4; stroke: #1f77b4"/>
     <use xlink:href="#m5caa7dadf0" x="229.754781" y="72.355829" style="fill: #1f77b4; stroke: #1f77b4"/>
     <use xlink:href="#m5caa7dadf0" x="237.338604" y="72.355829" style="fill: #1f77b4; stroke: #1f77b4"/>
     <use xlink:href="#m5caa7dadf0" x="244.922428" y="72.355829" style="fill: #1f77b4; stroke: #1f77b4"/>
     <use xlink:href="#m5caa7dadf0" x="252.506251" y="72.355829" style="fill: #1f77b4; stroke: #1f77b4"/>
     <use xlink:href="#m5caa7dadf0" x="260.090075" y="72.355829" style="fill: #1f77b4; stroke: #1f77b4"/>
     <use xlink:href="#m5caa7dadf0" x="267.673898" y="53.950431" style="fill: #1f77b4; stroke: #1f77b4"/>
     <use xlink:href="#m5caa7dadf0" x="275.257722" y="53.950431" style="fill: #1f77b4; stroke: #1f77b4"/>
     <use xlink:href="#m5caa7dadf0" x="282.841545" y="53.950431" style="fill: #1f77b4; stroke: #1f77b4"/>
     <use xlink:href="#m5caa7dadf0" x="290.425368" y="53.950431" style="fill: #1f77b4; stroke: #1f77b4"/>
     <use xlink:href="#m5caa7dadf0" x="298.009192" y="53.950431" style="fill: #1f77b4; stroke: #1f77b4"/>
     <use xlink:href="#m5caa7dadf0" x="305.593015" y="102.761497" style="fill: #1f77b4; stroke: #1f77b4"/>
     <use xlink:href="#m5caa7dadf0" x="313.176839" y="102.761497" style="fill: #1f77b4; stroke: #1f77b4"/>
     <use xlink:href="#m5caa7dadf0" x="320.760662" y="102.761497" style="fill: #1f77b4; stroke: #1f77b4"/>
     <use xlink:href="#m5caa7dadf0" x="328.344486" y="102.761497" style="fill: #1f77b4; stroke: #1f77b4"/>
     <use xlink:href="#m5caa7dadf0" x="335.928309" y="102.761497" style="fill: #1f77b4; stroke: #1f77b4"/>
    </g>
   </g>
   <g id="line2d_34">
    <path d="M 70.494489 149.766647 
L 108.413606 149.766647 
L 108.565283 124.364155 
L 146.332723 124.364155 
L 146.4844 43.130388 
L 184.25184 43.130388 
L 184.403517 67.955011 
L 222.170958 67.955011 
L 222.322634 87.853176 
L 260.090075 87.853176 
L 260.241751 88.937626 
L 298.009192 88.937626 
L 298.160868 137.142203 
L 335.928309 137.142203 
L 335.928309 137.142203 
" clip-path="url(#p7310bb680b)" style="fill: none; stroke: #ff7f0e; stroke-width: 1.5; stroke-linecap: square"/>
    <defs>
     <path id="mb22dac319a" d="M 0 2.5 
C 0.663008 2.5 1.29895 2.236584 1.767767 1.767767 
C 2.236584 1.29895 2.5 0.663008 2.5 0 
C 2.5 -0.663008 2.236584 -1.29895 1.767767 -1.767767 
C 1.29895 -2.236584 0.663008 -2.5 0 -2.5 
C -0.663008 -2.5 -1.29895 -2.236584 -1.767767 -1.767767 
C -2.236584 -1.29895 -2.5 -0.663008 -2.5 0 
C -2.5 0.663008 -2.236584 1.29895 -1.767767 1.767767 
C -1.29895 2.236584 -0.663008 2.5 0 2.5 
z
" style="stroke: #ff7f0e"/>
    </defs>
    <g clip-path="url(#p7310bb680b)">
     <use xlink:href="#mb22dac319a" x="70.494489" y="149.766647" style="fill: #ff7f0e; stroke: #ff7f0e"/>
     <use xlink:href="#mb22dac319a" x="78.078312" y="149.766647" style="fill: #ff7f0e; stroke: #ff7f0e"/>
     <use xlink:href="#mb22dac319a" x="85.662136" y="149.766647" style="fill: #ff7f0e; stroke: #ff7f0e"/>
     <use xlink:href="#mb22dac319a" x="93.245959" y="149.766647" style="fill: #ff7f0e; stroke: #ff7f0e"/>
     <use xlink:href="#mb22dac319a" x="100.829783" y="149.766647" style="fill: #ff7f0e; stroke: #ff7f0e"/>
     <use xlink:href="#mb22dac319a" x="108.413606" y="149.766647" style="fill: #ff7f0e; stroke: #ff7f0e"/>
     <use xlink:href="#mb22dac319a" x="115.99743" y="124.364155" style="fill: #ff7f0e; stroke: #ff7f0e"/>
     <use xlink:href="#mb22dac319a" x="123.581253" y="124.364155" style="fill: #ff7f0e; stroke: #ff7f0e"/>
     <use xlink:href="#mb22dac319a" x="131.165076" y="124.364155" style="fill: #ff7f0e; stroke: #ff7f0e"/>
     <use xlink:href="#mb22dac319a" x="138.7489" y="124.364155" style="fill: #ff7f0e; stroke: #ff7f0e"/>
     <use xlink:href="#mb22dac319a" x="146.332723" y="124.364155" style="fill: #ff7f0e; stroke: #ff7f0e"/>
     <use xlink:href="#mb22dac319a" x="153.916547" y="43.130388" style="fill: #ff7f0e; stroke: #ff7f0e"/>
     <use xlink:href="#mb22dac319a" x="161.50037" y="43.130388" style="fill: #ff7f0e; stroke: #ff7f0e"/>
     <use xlink:href="#mb22dac319a" x="169.084194" y="43.130388" style="fill: #ff7f0e; stroke: #ff7f0e"/>
     <use xlink:href="#mb22dac319a" x="176.668017" y="43.130388" style="fill: #ff7f0e; stroke: #ff7f0e"/>
     <use xlink:href="#mb22dac319a" x="184.25184" y="43.130388" style="fill: #ff7f0e; stroke: #ff7f0e"/>
     <use xlink:href="#mb22dac319a" x="191.835664" y="67.955011" style="fill: #ff7f0e; stroke: #ff7f0e"/>
     <use xlink:href="#mb22dac319a" x="199.419487" y="67.955011" style="fill: #ff7f0e; stroke: #ff7f0e"/>
     <use xlink:href="#mb22dac319a" x="207.003311" y="67.955011" style="fill: #ff7f0e; stroke: #ff7f0e"/>
     <use xlink:href="#mb22dac319a" x="214.587134" y="67.955011" style="fill: #ff7f0e; stroke: #ff7f0e"/>
     <use xlink:href="#mb22dac319a" x="222.170958" y="67.955011" style="fill: #ff7f0e; stroke: #ff7f0e"/>
     <use xlink:href="#mb22dac319a" x="229.754781" y="87.853176" style="fill: #ff7f0e; stroke: #ff7f0e"/>
     <use xlink:href="#mb22dac319a" x="237.338604" y="87.853176" style="fill: #ff7f0e; stroke: #ff7f0e"/>
     <use xlink:href="#mb22dac319a" x="244.922428" y="87.853176" style="fill: #ff7f0e; stroke: #ff7f0e"/>
     <use xlink:href="#mb22dac319a" x="252.506251" y="87.853176" style="fill: #ff7f0e; stroke: #ff7f0e"/>
     <use xlink:href="#mb22dac319a" x="260.090075" y="87.853176" style="fill: #ff7f0e; stroke: #ff7f0e"/>
     <use xlink:href="#mb22dac319a" x="267.673898" y="88.937626" style="fill: #ff7f0e; stroke: #ff7f0e"/>
     <use xlink:href="#mb22dac319a" x="275.257722" y="88.937626" style="fill: #ff7f0e; stroke: #ff7f0e"/>
     <use xlink:href="#mb22dac319a" x="282.841545" y="88.937626" style="fill: #ff7f0e; stroke: #ff7f0e"/>
     <use xlink:href="#mb22dac319a" x="290.425368" y="88.937626" style="fill: #ff7f0e; stroke: #ff7f0e"/>
     <use xlink:href="#mb22dac319a" x="298.009192" y="88.937626" style="fill: #ff7f0e; stroke: #ff7f0e"/>
     <use xlink:href="#mb22dac319a" x="305.593015" y="137.142203" style="fill: #ff7f0e; stroke: #ff7f0e"/>
     <use xlink:href="#mb22dac319a" x="313.176839" y="137.142203" style="fill: #ff7f0e; stroke: #ff7f0e"/>
     <use xlink:href="#mb22dac319a" x="320.760662" y="137.142203" style="fill: #ff7f0e; stroke: #ff7f0e"/>
     <use xlink:href="#mb22dac319a" x="328.344486" y="137.142203" style="fill: #ff7f0e; stroke: #ff7f0e"/>
     <use xlink:href="#mb22dac319a" x="335.928309" y="137.142203" style="fill: #ff7f0e; stroke: #ff7f0e"/>
    </g>
   </g>
   <g id="line2d_35">
    <path d="M 70.494489 82.093825 
L 70.570327 73.79966 
L 70.722004 84.766781 
L 70.797842 85.413287 
L 70.87368 85.395806 
L 71.783739 83.213904 
L 72.466283 82.303914 
L 73.224665 81.655113 
L 73.983048 81.253643 
L 74.134724 81.324614 
L 75.120621 80.956019 
L 76.258195 80.811467 
L 77.547445 80.866404 
L 78.078312 80.874872 
L 78.305827 80.703984 
L 79.367562 80.770266 
L 79.822592 80.728915 
L 79.974268 80.766317 
L 80.201783 80.924055 
L 81.415195 80.734741 
L 81.718548 80.668398 
L 82.325254 80.715831 
L 82.780283 80.909162 
L 83.311151 80.790193 
L 83.614504 80.64088 
L 84.145371 80.740113 
L 84.524562 80.872657 
L 84.979592 80.754163 
L 85.358783 80.648266 
L 85.889651 80.804086 
L 86.268842 80.812289 
L 87.178901 80.708901 
L 87.709768 80.787972 
L 88.695665 80.718289 
L 89.226533 80.750201 
L 90.060753 80.69337 
L 90.667459 80.725618 
L 91.50168 80.688464 
L 92.184224 80.691161 
L 92.942606 80.682245 
L 93.700989 80.663026 
L 94.535209 80.68484 
L 96.734518 80.632211 
L 108.413606 80.566723 
L 108.489444 110.62882 
L 108.641121 76.936403 
L 108.716959 75.283167 
L 108.792797 75.503211 
L 109.323665 79.387291 
L 109.854533 81.430821 
L 110.309562 82.428548 
L 110.84043 83.089074 
L 111.219621 83.381779 
L 112.053841 83.706531 
L 112.812224 83.801189 
L 113.039738 83.804348 
L 114.480665 84.069115 
L 115.5424 84.235399 
L 119.485988 84.772321 
L 119.713503 84.732149 
L 122.519518 85.089304 
L 128.510738 85.768508 
L 129.193282 85.863728 
L 129.875826 85.915539 
L 130.634209 86.004467 
L 131.392591 86.052395 
L 132.985194 86.196138 
L 142.009944 86.985735 
L 146.332723 87.305032 
L 146.408562 82.402585 
L 146.560238 86.749378 
L 146.636076 86.719188 
L 147.015267 85.860671 
L 147.546135 85.376609 
L 148.456194 84.858433 
L 148.759547 84.798747 
L 148.911223 84.848483 
L 149.821282 84.607695 
L 150.807179 84.608026 
L 151.868914 84.781626 
L 152.096429 84.860949 
L 152.323944 84.695289 
L 153.613194 84.910216 
L 153.840709 84.911187 
L 154.144061 85.129704 
L 156.115856 85.176275 
L 156.495047 85.387503 
L 157.101753 85.36988 
L 157.405106 85.289413 
L 157.860135 85.393141 
L 158.315164 85.607386 
L 158.694356 85.565929 
L 159.073547 85.479275 
L 159.528576 85.645831 
L 159.907767 85.768738 
L 161.121179 85.858653 
L 161.576208 85.90022 
L 162.182914 85.861686 
L 163.092973 86.030953 
L 163.623841 86.026769 
L 164.5339 86.171333 
L 165.140605 86.206442 
L 165.898988 86.314846 
L 166.581532 86.360001 
L 167.339914 86.447925 
L 168.098297 86.524474 
L 168.856679 86.57859 
L 169.766738 86.696719 
L 184.25184 87.843735 
L 184.327679 105.815563 
L 184.479355 75.196319 
L 184.555193 73.472393 
L 184.631032 73.504854 
L 185.389414 77.85221 
L 185.920282 79.432909 
L 186.451149 80.314835 
L 187.057855 80.896175 
L 187.892076 81.260224 
L 188.57462 81.393024 
L 188.726296 81.330564 
L 190.394737 81.641136 
L 191.077282 81.705611 
L 195.172546 82.134523 
L 195.475899 82.032299 
L 196.537634 82.176089 
L 196.992664 82.305543 
L 198.661105 82.32285 
L 199.116134 82.429513 
L 210.567708 83.024479 
L 212.236149 83.117 
L 222.170958 83.551569 
L 222.246796 86.406568 
L 222.398472 71.774783 
L 222.474311 71.260297 
L 223.460208 74.231821 
L 224.142752 75.168351 
L 224.901134 75.832217 
L 225.356163 76.078034 
L 225.50784 75.983963 
L 226.493737 76.39055 
L 227.479634 76.494565 
L 229.072237 76.403427 
L 229.299752 76.394781 
L 229.527266 76.515069 
L 230.892355 76.288329 
L 231.195707 76.206111 
L 231.423222 76.103131 
L 233.395016 76.15523 
L 234.07756 76.002547 
L 235.290972 75.978321 
L 235.670163 75.898241 
L 236.959413 75.844948 
L 237.490281 75.838881 
L 238.096987 75.853654 
L 238.931207 75.751763 
L 239.613751 75.741219 
L 240.372134 75.670889 
L 241.054678 75.647467 
L 241.81306 75.592013 
L 242.571443 75.544463 
L 243.405663 75.517502 
L 245.377457 75.388144 
L 247.273413 75.285706 
L 249.700237 75.160377 
L 257.132384 74.818827 
L 260.090075 74.69415 
L 260.165913 60.519891 
L 260.317589 87.983942 
L 260.393428 89.25141 
L 260.469266 88.988054 
L 261.000134 85.474825 
L 261.531001 83.613015 
L 262.061869 82.514398 
L 262.668575 81.753529 
L 263.426957 81.272679 
L 264.261178 80.995286 
L 264.412854 81.068395 
L 265.777942 80.753038 
L 266.612163 80.677594 
L 270.555751 80.388151 
L 270.859104 80.503544 
L 271.162457 80.522547 
L 273.285927 80.345233 
L 273.665119 80.407528 
L 274.271825 80.299632 
L 274.651016 80.228856 
L 275.257722 80.342738 
L 275.788589 80.305516 
L 276.471133 80.198299 
L 277.381192 80.238215 
L 277.987898 80.164079 
L 278.897957 80.182183 
L 279.504663 80.136126 
L 280.263045 80.155587 
L 281.021427 80.111348 
L 281.703971 80.110658 
L 282.462354 80.077815 
L 283.220736 80.056188 
L 284.054957 80.054665 
L 285.875074 80.001024 
L 287.543516 79.942773 
L 290.652883 79.873344 
L 294.368957 79.797883 
L 298.009192 79.728022 
L 298.08503 99.560031 
L 298.236707 70.900922 
L 298.312545 69.997463 
L 299.070927 75.313059 
L 299.601795 76.892376 
L 300.132662 77.824686 
L 300.815207 78.538416 
L 301.649427 78.975603 
L 302.180295 79.101346 
L 302.331971 79.052652 
L 303.545383 79.342562 
L 305.213824 79.482247 
L 306.730589 79.64244 
L 306.958104 79.69344 
L 307.792324 79.644998 
L 308.778221 79.565532 
L 309.157412 79.547794 
L 310.143309 79.730116 
L 310.446662 79.753532 
L 312.039265 79.679097 
L 312.570133 79.78429 
L 316.96875 79.842254 
L 317.575456 79.803199 
L 318.182162 79.827201 
L 318.864706 79.849345 
L 319.623089 79.857522 
L 320.381471 79.862502 
L 321.215692 79.902057 
L 323.187486 79.91248 
L 325.007603 79.938415 
L 327.510265 79.980045 
L 335.928309 80.104668 
L 335.928309 80.104668 
" clip-path="url(#p7310bb680b)" style="fill: none; stroke: #1f77b4; stroke-width: 1.5; stroke-linecap: square"/>
    <defs>
     <path id="m888c77fd76" d="M -0 2.5 
L 2.5 -2.5 
L -2.5 -2.5 
z
" style="stroke: #1f77b4; stroke-linejoin: miter"/>
    </defs>
    <g clip-path="url(#p7310bb680b)">
     <use xlink:href="#m888c77fd76" x="70.494489" y="82.093825" style="fill: #1f77b4; stroke: #1f77b4; stroke-linejoin: miter"/>
     <use xlink:href="#m888c77fd76" x="78.078312" y="80.874872" style="fill: #1f77b4; stroke: #1f77b4; stroke-linejoin: miter"/>
     <use xlink:href="#m888c77fd76" x="85.662136" y="80.707116" style="fill: #1f77b4; stroke: #1f77b4; stroke-linejoin: miter"/>
     <use xlink:href="#m888c77fd76" x="93.245959" y="80.704301" style="fill: #1f77b4; stroke: #1f77b4; stroke-linejoin: miter"/>
     <use xlink:href="#m888c77fd76" x="100.829783" y="80.609114" style="fill: #1f77b4; stroke: #1f77b4; stroke-linejoin: miter"/>
     <use xlink:href="#m888c77fd76" x="108.413606" y="80.566723" style="fill: #1f77b4; stroke: #1f77b4; stroke-linejoin: miter"/>
     <use xlink:href="#m888c77fd76" x="115.99743" y="84.305432" style="fill: #1f77b4; stroke: #1f77b4; stroke-linejoin: miter"/>
     <use xlink:href="#m888c77fd76" x="123.581253" y="85.31953" style="fill: #1f77b4; stroke: #1f77b4; stroke-linejoin: miter"/>
     <use xlink:href="#m888c77fd76" x="131.165076" y="86.054948" style="fill: #1f77b4; stroke: #1f77b4; stroke-linejoin: miter"/>
     <use xlink:href="#m888c77fd76" x="138.7489" y="86.711361" style="fill: #1f77b4; stroke: #1f77b4; stroke-linejoin: miter"/>
     <use xlink:href="#m888c77fd76" x="146.332723" y="87.305032" style="fill: #1f77b4; stroke: #1f77b4; stroke-linejoin: miter"/>
     <use xlink:href="#m888c77fd76" x="153.916547" y="84.999078" style="fill: #1f77b4; stroke: #1f77b4; stroke-linejoin: miter"/>
     <use xlink:href="#m888c77fd76" x="161.50037" y="85.909965" style="fill: #1f77b4; stroke: #1f77b4; stroke-linejoin: miter"/>
     <use xlink:href="#m888c77fd76" x="169.084194" y="86.587674" style="fill: #1f77b4; stroke: #1f77b4; stroke-linejoin: miter"/>
     <use xlink:href="#m888c77fd76" x="176.668017" y="87.279976" style="fill: #1f77b4; stroke: #1f77b4; stroke-linejoin: miter"/>
     <use xlink:href="#m888c77fd76" x="184.25184" y="87.843735" style="fill: #1f77b4; stroke: #1f77b4; stroke-linejoin: miter"/>
     <use xlink:href="#m888c77fd76" x="191.835664" y="81.79246" style="fill: #1f77b4; stroke: #1f77b4; stroke-linejoin: miter"/>
     <use xlink:href="#m888c77fd76" x="199.419487" y="82.429446" style="fill: #1f77b4; stroke: #1f77b4; stroke-linejoin: miter"/>
     <use xlink:href="#m888c77fd76" x="207.003311" y="82.828898" style="fill: #1f77b4; stroke: #1f77b4; stroke-linejoin: miter"/>
     <use xlink:href="#m888c77fd76" x="214.587134" y="83.211471" style="fill: #1f77b4; stroke: #1f77b4; stroke-linejoin: miter"/>
     <use xlink:href="#m888c77fd76" x="222.170958" y="83.551569" style="fill: #1f77b4; stroke: #1f77b4; stroke-linejoin: miter"/>
     <use xlink:href="#m888c77fd76" x="229.754781" y="76.458364" style="fill: #1f77b4; stroke: #1f77b4; stroke-linejoin: miter"/>
     <use xlink:href="#m888c77fd76" x="237.338604" y="75.819503" style="fill: #1f77b4; stroke: #1f77b4; stroke-linejoin: miter"/>
     <use xlink:href="#m888c77fd76" x="244.922428" y="75.433348" style="fill: #1f77b4; stroke: #1f77b4; stroke-linejoin: miter"/>
     <use xlink:href="#m888c77fd76" x="252.506251" y="75.025172" style="fill: #1f77b4; stroke: #1f77b4; stroke-linejoin: miter"/>
     <use xlink:href="#m888c77fd76" x="260.090075" y="74.69415" style="fill: #1f77b4; stroke: #1f77b4; stroke-linejoin: miter"/>
     <use xlink:href="#m888c77fd76" x="267.673898" y="80.572517" style="fill: #1f77b4; stroke: #1f77b4; stroke-linejoin: miter"/>
     <use xlink:href="#m888c77fd76" x="275.257722" y="80.342738" style="fill: #1f77b4; stroke: #1f77b4; stroke-linejoin: miter"/>
     <use xlink:href="#m888c77fd76" x="282.841545" y="80.096758" style="fill: #1f77b4; stroke: #1f77b4; stroke-linejoin: miter"/>
     <use xlink:href="#m888c77fd76" x="290.425368" y="79.876564" style="fill: #1f77b4; stroke: #1f77b4; stroke-linejoin: miter"/>
     <use xlink:href="#m888c77fd76" x="298.009192" y="79.728022" style="fill: #1f77b4; stroke: #1f77b4; stroke-linejoin: miter"/>
     <use xlink:href="#m888c77fd76" x="305.593015" y="79.502342" style="fill: #1f77b4; stroke: #1f77b4; stroke-linejoin: miter"/>
     <use xlink:href="#m888c77fd76" x="313.176839" y="79.675602" style="fill: #1f77b4; stroke: #1f77b4; stroke-linejoin: miter"/>
     <use xlink:href="#m888c77fd76" x="320.760662" y="79.854663" style="fill: #1f77b4; stroke: #1f77b4; stroke-linejoin: miter"/>
     <use xlink:href="#m888c77fd76" x="328.344486" y="80.007433" style="fill: #1f77b4; stroke: #1f77b4; stroke-linejoin: miter"/>
     <use xlink:href="#m888c77fd76" x="335.928309" y="80.104668" style="fill: #1f77b4; stroke: #1f77b4; stroke-linejoin: miter"/>
    </g>
   </g>
   <g id="line2d_36">
    <path d="M 70.494489 90.533699 
L 70.570327 27.104021 
L 70.722004 84.394105 
L 70.797842 85.767197 
L 71.177033 81.483944 
L 71.404548 81.248574 
L 71.935416 81.45785 
L 72.921313 81.737799 
L 73.376342 81.807644 
L 73.528018 81.653705 
L 73.983048 82.095542 
L 74.058886 82.40722 
L 74.134724 82.299955 
L 74.438077 81.939998 
L 74.893107 81.951559 
L 77.471607 82.330281 
L 77.623283 82.435031 
L 78.078312 82.279117 
L 78.229989 81.89265 
L 78.60918 82.387301 
L 79.140048 82.447618 
L 79.367562 82.379134 
L 79.519239 82.311809 
L 79.974268 82.560528 
L 80.125945 82.895112 
L 80.505136 82.50922 
L 81.263518 82.502824 
L 81.491033 82.216837 
L 81.870224 82.506575 
L 82.401092 82.869811 
L 82.552768 83.0632 
L 83.235312 82.615977 
L 83.462827 82.346315 
L 83.76618 82.648347 
L 84.448724 83.054709 
L 85.05543 82.580011 
L 85.207106 82.601686 
L 85.965489 83.150093 
L 86.799709 82.814765 
L 87.406415 83.211043 
L 87.785606 83.035682 
L 88.164798 82.913566 
L 89.150695 83.177605 
L 89.605724 83.054257 
L 90.591621 83.265571 
L 91.046651 83.187412 
L 91.956709 83.374257 
L 92.487577 83.314648 
L 93.321798 83.474107 
L 93.928503 83.43676 
L 94.686886 83.568827 
L 95.36943 83.553971 
L 96.127812 83.652819 
L 96.810356 83.666387 
L 97.568739 83.73974 
L 98.251283 83.774223 
L 99.009665 83.829183 
L 99.768047 83.890925 
L 100.678106 83.922309 
L 108.413606 84.44609 
L 108.489444 107.498231 
L 108.641121 20.43042 
L 108.944474 73.820226 
L 109.171989 82.13255 
L 109.399503 83.194123 
L 109.55118 83.059984 
L 110.3854 81.845763 
L 110.764591 81.595924 
L 110.916268 81.759543 
L 111.447136 81.380419 
L 112.584709 81.198843 
L 112.736386 81.180229 
L 112.888062 80.584568 
L 113.267253 81.129382 
L 113.798121 81.226201 
L 114.404827 81.230768 
L 114.556503 81.097655 
L 115.011533 81.368778 
L 116.755812 81.675182 
L 117.362518 81.716771 
L 117.514194 82.197983 
L 117.590033 82.065901 
L 117.817547 81.738182 
L 118.348415 81.730186 
L 118.879283 81.774784 
L 119.41015 81.521814 
L 119.561827 81.048293 
L 119.713503 81.297586 
L 120.016856 81.696442 
L 120.471885 81.878538 
L 120.775238 81.875773 
L 121.002753 82.227253 
L 121.381944 81.859724 
L 121.912812 81.792779 
L 122.140327 81.461514 
L 123.202062 82.25208 
L 123.960444 81.565113 
L 124.187959 81.766876 
L 124.794665 82.325175 
L 125.098018 82.085869 
L 125.628885 81.742733 
L 126.463106 82.277893 
L 127.14565 81.873058 
L 127.979871 82.290211 
L 128.586577 81.976824 
L 128.965768 82.207671 
L 129.344959 82.358154 
L 130.179179 82.135211 
L 130.785885 82.392211 
L 131.620106 82.226138 
L 132.226812 82.42851 
L 132.985194 82.283874 
L 133.667738 82.466749 
L 134.426121 82.371525 
L 135.032826 82.521537 
L 135.867047 82.455342 
L 136.473753 82.564389 
L 137.232135 82.512422 
L 137.914679 82.608871 
L 138.597223 82.570998 
L 139.355606 82.655377 
L 140.03815 82.645735 
L 140.720694 82.713857 
L 141.479076 82.717269 
L 142.16162 82.7634 
L 142.920003 82.785548 
L 143.678385 82.808351 
L 144.436767 82.86168 
L 145.346826 82.861809 
L 146.332723 82.929326 
L 146.4844 100.244396 
L 146.863591 81.458049 
L 147.091106 79.767724 
L 147.31862 79.498961 
L 147.849488 79.446875 
L 148.60787 79.38248 
L 148.683709 79.212496 
L 148.835385 79.826559 
L 149.290414 79.40471 
L 150.200473 79.41594 
L 151.868914 79.501084 
L 152.020591 79.632576 
L 152.096429 79.516903 
L 152.248106 78.994035 
L 152.703135 79.424729 
L 153.461517 79.358341 
L 153.840709 79.281482 
L 153.992385 79.709551 
L 154.2199 79.437147 
L 154.523253 79.280277 
L 154.826606 79.344343 
L 154.978282 79.405255 
L 155.129958 79.183574 
L 155.281635 78.917513 
L 155.812503 79.179388 
L 156.040017 79.190456 
L 156.34337 79.534456 
L 156.722561 79.314739 
L 156.950076 79.200834 
L 157.253429 78.888686 
L 157.860135 79.256374 
L 158.08765 79.437939 
L 158.466841 79.192122 
L 158.997708 78.881892 
L 159.756091 79.292649 
L 160.514473 78.859089 
L 161.197017 79.209165 
L 162.031238 78.85979 
L 162.637944 79.11251 
L 163.548003 78.862689 
L 164.07887 79.019192 
L 164.913091 78.798314 
L 165.519797 78.930874 
L 166.354017 78.765465 
L 166.960723 78.847344 
L 167.719105 78.710333 
L 168.401649 78.768505 
L 169.084194 78.658962 
L 169.842576 78.694353 
L 170.52512 78.618777 
L 171.283502 78.624801 
L 171.966047 78.575557 
L 172.724429 78.559579 
L 173.406973 78.529517 
L 174.165355 78.498232 
L 174.999576 78.488834 
L 176.819693 78.409571 
L 178.488135 78.331448 
L 182.12837 78.217466 
L 184.25184 78.129532 
L 184.327679 134.182212 
L 184.479355 36.8744 
L 184.858546 78.043264 
L 185.086061 81.641813 
L 185.237738 81.927766 
L 185.389414 81.796827 
L 186.299473 80.602419 
L 186.678664 80.372034 
L 186.906179 80.466313 
L 187.28537 80.176164 
L 188.271267 79.959434 
L 188.498782 79.920219 
L 188.650458 79.308232 
L 188.726296 79.395526 
L 189.029649 79.819679 
L 189.484679 79.888636 
L 190.394737 79.874092 
L 190.546414 79.716698 
L 191.001443 79.952537 
L 192.745723 80.128988 
L 193.124914 80.133923 
L 193.27659 80.667377 
L 193.352429 80.57262 
L 193.73162 79.961781 
L 194.793355 80.118037 
L 195.172546 79.866782 
L 195.324223 79.417728 
L 196.765149 80.47049 
L 197.14434 79.960536 
L 197.751046 79.715126 
L 197.902723 79.643549 
L 198.281914 79.927077 
L 198.585267 80.01949 
L 198.88862 80.289738 
L 199.72284 79.617554 
L 200.17787 79.946676 
L 200.632899 80.220602 
L 201.391281 79.667972 
L 202.225502 80.127295 
L 202.908046 79.701517 
L 203.666428 80.099133 
L 204.424811 79.747336 
L 205.107355 80.05285 
L 205.865737 79.759725 
L 206.548281 80.005539 
L 207.306664 79.772957 
L 207.989208 79.96049 
L 208.671752 79.760767 
L 209.430134 79.918266 
L 210.112678 79.770073 
L 210.795222 79.900753 
L 211.553605 79.776758 
L 212.236149 79.864611 
L 212.918693 79.763449 
L 213.677075 79.831383 
L 214.359619 79.764967 
L 215.042164 79.817303 
L 215.800546 79.763916 
L 216.48309 79.789236 
L 217.165634 79.74843 
L 217.924016 79.763918 
L 218.606561 79.743549 
L 219.364943 79.741355 
L 220.123325 79.74461 
L 220.881708 79.713334 
L 222.170958 79.710912 
L 222.246796 95.473035 
L 222.398472 54.155839 
L 222.701825 77.275208 
L 222.92934 80.665456 
L 223.156855 81.083112 
L 223.460208 80.967265 
L 224.294428 80.632297 
L 224.976972 80.487407 
L 225.128649 80.332056 
L 225.356163 80.428719 
L 225.50784 79.965034 
L 225.811193 80.384746 
L 226.190384 80.417344 
L 228.844722 80.361708 
L 228.996399 80.432215 
L 229.223913 80.298792 
L 229.299752 80.386496 
L 229.451428 80.742083 
L 229.754781 80.330996 
L 230.133972 80.29191 
L 230.66484 80.301435 
L 230.892355 80.205575 
L 231.119869 80.271894 
L 231.271546 79.908719 
L 231.347384 79.952782 
L 231.650737 80.304253 
L 232.484957 80.557075 
L 232.636634 80.724206 
L 233.167502 80.223093 
L 233.470855 80.218462 
L 233.698369 80.019349 
L 234.229237 80.438196 
L 234.456752 80.576173 
L 234.608428 80.638371 
L 235.139296 80.277949 
L 235.442649 80.135073 
L 236.201031 80.569649 
L 237.186928 80.307611 
L 237.793634 80.509816 
L 238.552016 80.282523 
L 239.310399 80.475591 
L 239.992943 80.315217 
L 240.751325 80.465017 
L 241.433869 80.348166 
L 242.192251 80.454883 
L 242.874796 80.37856 
L 243.55734 80.462833 
L 244.315722 80.40548 
L 244.998266 80.457411 
L 245.756648 80.428591 
L 246.439193 80.455349 
L 247.197575 80.44797 
L 247.955957 80.447661 
L 248.71434 80.472204 
L 249.700237 80.446549 
L 252.278737 80.472354 
L 256.753192 80.508617 
L 260.090075 80.537974 
L 260.165913 35.796013 
L 260.317589 121.7263 
L 260.696781 82.098141 
L 260.924295 78.98236 
L 261.075972 78.799551 
L 261.303486 79.078229 
L 261.910192 79.882604 
L 262.289384 80.161228 
L 262.516898 80.084916 
L 262.896089 80.388876 
L 263.73031 80.576468 
L 264.261178 80.763794 
L 264.337016 81.242466 
L 264.412854 81.172445 
L 264.716207 80.746327 
L 265.171236 80.6818 
L 265.777942 80.69629 
L 265.929619 80.873024 
L 266.460486 80.635164 
L 267.59806 80.459094 
L 267.749736 80.36336 
L 268.204766 80.52044 
L 268.735633 80.515257 
L 268.88731 80.086067 
L 269.190663 80.502942 
L 269.645692 80.543098 
L 270.328236 80.561777 
L 270.707428 80.72083 
L 270.934942 81.206022 
L 271.314133 80.649122 
L 271.769163 80.499505 
L 272.072516 80.530448 
L 272.30003 80.193184 
L 272.375869 80.278305 
L 272.679222 80.569377 
L 273.210089 80.665401 
L 273.437604 80.976872 
L 274.423501 80.244533 
L 275.33356 80.92204 
L 276.091942 80.314564 
L 277.002001 80.813202 
L 277.608707 80.38685 
L 277.987898 80.644284 
L 278.367089 80.853216 
L 278.74628 80.61576 
L 279.125472 80.456271 
L 280.03553 80.72776 
L 280.566398 80.501743 
L 281.476457 80.717084 
L 282.007324 80.542928 
L 282.917383 80.703817 
L 283.448251 80.580278 
L 284.282471 80.720632 
L 284.813339 80.599376 
L 285.799236 80.684626 
L 286.254266 80.629056 
L 287.088486 80.721317 
L 287.695192 80.656412 
L 288.453574 80.73095 
L 289.136118 80.681075 
L 289.894501 80.726381 
L 290.577045 80.702797 
L 291.335427 80.724943 
L 292.017971 80.721528 
L 292.776354 80.726444 
L 293.534736 80.746368 
L 294.368957 80.720071 
L 297.478324 80.751183 
L 298.009192 80.775677 
L 298.08503 88.898593 
L 298.160868 18.280986 
L 298.236707 22.505194 
L 298.54006 75.127546 
L 298.767574 82.31539 
L 298.919251 83.03776 
L 299.070927 83.004101 
L 300.056824 81.83972 
L 300.360177 81.713706 
L 300.511854 81.832062 
L 300.891045 81.569401 
L 301.725265 81.461199 
L 302.104457 81.435915 
L 302.256133 80.861872 
L 302.331971 80.973098 
L 302.635324 81.3876 
L 303.166192 81.482994 
L 303.924574 81.494017 
L 304.076251 81.384757 
L 304.455442 81.604256 
L 306.123883 81.878023 
L 306.578912 81.876076 
L 306.654751 81.921588 
L 306.806427 82.408205 
L 307.261456 81.813375 
L 308.171515 82.052077 
L 308.626545 81.878345 
L 308.854059 81.447769 
L 309.309089 81.932484 
L 310.067471 82.338148 
L 310.219148 82.496473 
L 310.598339 82.054234 
L 311.205045 81.845742 
L 311.356721 81.838449 
L 311.735912 82.118164 
L 312.039265 82.256421 
L 312.26678 82.496336 
L 313.252677 82.017198 
L 314.011059 82.545078 
L 314.84528 82.152458 
L 315.527824 82.59824 
L 316.362045 82.295859 
L 316.96875 82.650095 
L 317.42378 82.416272 
L 317.727133 82.37228 
L 318.561353 82.65402 
L 319.168059 82.491923 
L 319.926442 82.736793 
L 320.608986 82.606964 
L 321.367368 82.793882 
L 321.974074 82.695858 
L 322.884133 82.836118 
L 323.415 82.80089 
L 324.249221 82.918938 
L 324.855927 82.901632 
L 325.614309 82.99824 
L 326.296853 82.997977 
L 327.055236 83.067237 
L 327.73778 83.089988 
L 328.496162 83.138987 
L 329.254544 83.1911 
L 330.012927 83.209972 
L 331.60553 83.292228 
L 335.928309 83.534454 
L 335.928309 83.534454 
" clip-path="url(#p7310bb680b)" style="fill: none; stroke: #ff7f0e; stroke-width: 1.5; stroke-linecap: square"/>
    <defs>
     <path id="mbec7d0b11c" d="M -0 2.5 
L 2.5 -2.5 
L -2.5 -2.5 
z
" style="stroke: #ff7f0e; stroke-linejoin: miter"/>
    </defs>
    <g clip-path="url(#p7310bb680b)">
     <use xlink:href="#mbec7d0b11c" x="70.494489" y="90.533699" style="fill: #ff7f0e; stroke: #ff7f0e; stroke-linejoin: miter"/>
     <use xlink:href="#mbec7d0b11c" x="78.078312" y="82.279117" style="fill: #ff7f0e; stroke: #ff7f0e; stroke-linejoin: miter"/>
     <use xlink:href="#mbec7d0b11c" x="85.662136" y="82.997562" style="fill: #ff7f0e; stroke: #ff7f0e; stroke-linejoin: miter"/>
     <use xlink:href="#mbec7d0b11c" x="93.245959" y="83.487986" style="fill: #ff7f0e; stroke: #ff7f0e; stroke-linejoin: miter"/>
     <use xlink:href="#mbec7d0b11c" x="100.829783" y="83.93461" style="fill: #ff7f0e; stroke: #ff7f0e; stroke-linejoin: miter"/>
     <use xlink:href="#mbec7d0b11c" x="108.413606" y="84.44609" style="fill: #ff7f0e; stroke: #ff7f0e; stroke-linejoin: miter"/>
     <use xlink:href="#mbec7d0b11c" x="115.99743" y="81.555397" style="fill: #ff7f0e; stroke: #ff7f0e; stroke-linejoin: miter"/>
     <use xlink:href="#mbec7d0b11c" x="123.581253" y="81.939028" style="fill: #ff7f0e; stroke: #ff7f0e; stroke-linejoin: miter"/>
     <use xlink:href="#mbec7d0b11c" x="131.165076" y="82.224364" style="fill: #ff7f0e; stroke: #ff7f0e; stroke-linejoin: miter"/>
     <use xlink:href="#mbec7d0b11c" x="138.7489" y="82.610142" style="fill: #ff7f0e; stroke: #ff7f0e; stroke-linejoin: miter"/>
     <use xlink:href="#mbec7d0b11c" x="146.332723" y="82.929326" style="fill: #ff7f0e; stroke: #ff7f0e; stroke-linejoin: miter"/>
     <use xlink:href="#mbec7d0b11c" x="153.916547" y="79.543816" style="fill: #ff7f0e; stroke: #ff7f0e; stroke-linejoin: miter"/>
     <use xlink:href="#mbec7d0b11c" x="161.50037" y="79.014392" style="fill: #ff7f0e; stroke: #ff7f0e; stroke-linejoin: miter"/>
     <use xlink:href="#mbec7d0b11c" x="169.084194" y="78.658962" style="fill: #ff7f0e; stroke: #ff7f0e; stroke-linejoin: miter"/>
     <use xlink:href="#mbec7d0b11c" x="176.668017" y="78.424516" style="fill: #ff7f0e; stroke: #ff7f0e; stroke-linejoin: miter"/>
     <use xlink:href="#mbec7d0b11c" x="184.25184" y="78.129532" style="fill: #ff7f0e; stroke: #ff7f0e; stroke-linejoin: miter"/>
     <use xlink:href="#mbec7d0b11c" x="191.835664" y="80.0472" style="fill: #ff7f0e; stroke: #ff7f0e; stroke-linejoin: miter"/>
     <use xlink:href="#mbec7d0b11c" x="199.419487" y="79.927833" style="fill: #ff7f0e; stroke: #ff7f0e; stroke-linejoin: miter"/>
     <use xlink:href="#mbec7d0b11c" x="207.003311" y="79.767464" style="fill: #ff7f0e; stroke: #ff7f0e; stroke-linejoin: miter"/>
     <use xlink:href="#mbec7d0b11c" x="214.587134" y="79.814626" style="fill: #ff7f0e; stroke: #ff7f0e; stroke-linejoin: miter"/>
     <use xlink:href="#mbec7d0b11c" x="222.170958" y="79.710912" style="fill: #ff7f0e; stroke: #ff7f0e; stroke-linejoin: miter"/>
     <use xlink:href="#mbec7d0b11c" x="229.754781" y="80.330996" style="fill: #ff7f0e; stroke: #ff7f0e; stroke-linejoin: miter"/>
     <use xlink:href="#mbec7d0b11c" x="237.338604" y="80.384417" style="fill: #ff7f0e; stroke: #ff7f0e; stroke-linejoin: miter"/>
     <use xlink:href="#mbec7d0b11c" x="244.922428" y="80.46855" style="fill: #ff7f0e; stroke: #ff7f0e; stroke-linejoin: miter"/>
     <use xlink:href="#mbec7d0b11c" x="252.506251" y="80.473341" style="fill: #ff7f0e; stroke: #ff7f0e; stroke-linejoin: miter"/>
     <use xlink:href="#mbec7d0b11c" x="260.090075" y="80.537974" style="fill: #ff7f0e; stroke: #ff7f0e; stroke-linejoin: miter"/>
     <use xlink:href="#mbec7d0b11c" x="267.673898" y="80.367378" style="fill: #ff7f0e; stroke: #ff7f0e; stroke-linejoin: miter"/>
     <use xlink:href="#mbec7d0b11c" x="275.257722" y="80.970687" style="fill: #ff7f0e; stroke: #ff7f0e; stroke-linejoin: miter"/>
     <use xlink:href="#mbec7d0b11c" x="282.841545" y="80.735904" style="fill: #ff7f0e; stroke: #ff7f0e; stroke-linejoin: miter"/>
     <use xlink:href="#mbec7d0b11c" x="290.425368" y="80.681602" style="fill: #ff7f0e; stroke: #ff7f0e; stroke-linejoin: miter"/>
     <use xlink:href="#mbec7d0b11c" x="298.009192" y="80.775677" style="fill: #ff7f0e; stroke: #ff7f0e; stroke-linejoin: miter"/>
     <use xlink:href="#mbec7d0b11c" x="305.593015" y="81.779279" style="fill: #ff7f0e; stroke: #ff7f0e; stroke-linejoin: miter"/>
     <use xlink:href="#mbec7d0b11c" x="313.176839" y="81.960818" style="fill: #ff7f0e; stroke: #ff7f0e; stroke-linejoin: miter"/>
     <use xlink:href="#mbec7d0b11c" x="320.760662" y="82.66999" style="fill: #ff7f0e; stroke: #ff7f0e; stroke-linejoin: miter"/>
     <use xlink:href="#mbec7d0b11c" x="328.344486" y="83.150261" style="fill: #ff7f0e; stroke: #ff7f0e; stroke-linejoin: miter"/>
     <use xlink:href="#mbec7d0b11c" x="335.928309" y="83.534454" style="fill: #ff7f0e; stroke: #ff7f0e; stroke-linejoin: miter"/>
    </g>
   </g>
   <g id="line2d_37">
    <path d="M 70.494489 62.792608 
L 70.570327 54.498443 
L 70.722004 65.465564 
L 70.797842 66.11207 
L 70.87368 66.094589 
L 71.783739 63.912687 
L 72.466283 63.002697 
L 73.224665 62.353896 
L 73.983048 61.952426 
L 74.134724 62.023397 
L 75.120621 61.654802 
L 76.258195 61.51025 
L 77.547445 61.565187 
L 78.078312 61.573655 
L 78.305827 61.402767 
L 79.367562 61.469049 
L 79.822592 61.427699 
L 79.974268 61.4651 
L 80.201783 61.622838 
L 81.415195 61.433524 
L 81.718548 61.367181 
L 82.325254 61.414615 
L 82.780283 61.607946 
L 83.311151 61.488976 
L 83.614504 61.339663 
L 84.145371 61.438896 
L 84.524562 61.571441 
L 84.979592 61.452946 
L 85.358783 61.34705 
L 85.889651 61.502869 
L 86.268842 61.511072 
L 87.178901 61.407685 
L 87.709768 61.486755 
L 88.695665 61.417072 
L 89.226533 61.448984 
L 90.060753 61.392154 
L 90.667459 61.424401 
L 91.50168 61.387247 
L 92.184224 61.389945 
L 92.942606 61.381028 
L 93.700989 61.361809 
L 94.535209 61.383623 
L 96.734518 61.330995 
L 108.413606 61.265507 
L 108.489444 167.900698 
L 108.565283 141.956381 
L 108.716959 132.555045 
L 108.792797 132.775089 
L 109.323665 136.659169 
L 109.854533 138.702699 
L 110.309562 139.700425 
L 110.84043 140.360952 
L 111.219621 140.653657 
L 112.053841 140.978409 
L 112.812224 141.073067 
L 113.039738 141.076226 
L 114.480665 141.340992 
L 115.5424 141.507277 
L 119.485988 142.044199 
L 119.713503 142.004027 
L 122.519518 142.361182 
L 128.510738 143.040386 
L 129.193282 143.135606 
L 129.875826 143.187417 
L 130.634209 143.276345 
L 131.392591 143.324273 
L 132.985194 143.468016 
L 142.009944 144.257613 
L 146.332723 144.57691 
L 146.408562 94.130834 
L 146.4844 97.67969 
L 146.560238 98.477628 
L 146.636076 98.447438 
L 147.015267 97.58892 
L 147.546135 97.104859 
L 148.456194 96.586682 
L 148.759547 96.526996 
L 148.911223 96.576733 
L 149.821282 96.335945 
L 150.807179 96.336275 
L 151.868914 96.509876 
L 152.096429 96.589199 
L 152.323944 96.423538 
L 153.613194 96.638465 
L 153.840709 96.639436 
L 154.144061 96.857953 
L 156.115856 96.904525 
L 156.495047 97.115753 
L 157.101753 97.098129 
L 157.405106 97.017663 
L 157.860135 97.12139 
L 158.315164 97.335635 
L 158.694356 97.294179 
L 159.073547 97.207524 
L 159.528576 97.37408 
L 159.907767 97.496987 
L 161.121179 97.586902 
L 161.576208 97.628469 
L 162.182914 97.589935 
L 163.092973 97.759203 
L 163.623841 97.755019 
L 164.5339 97.899582 
L 165.140605 97.934692 
L 165.898988 98.043096 
L 166.581532 98.08825 
L 167.339914 98.176175 
L 168.098297 98.252723 
L 168.856679 98.306839 
L 169.766738 98.424968 
L 184.25184 99.571984 
L 184.327679 144.860538 
L 184.479355 114.241294 
L 184.555193 112.517368 
L 184.631032 112.549829 
L 185.389414 116.897185 
L 185.920282 118.477883 
L 186.451149 119.35981 
L 187.057855 119.94115 
L 187.892076 120.305199 
L 188.57462 120.437998 
L 188.726296 120.375539 
L 190.394737 120.686111 
L 191.077282 120.750585 
L 195.172546 121.179498 
L 195.475899 121.077273 
L 196.537634 121.221064 
L 196.992664 121.350518 
L 198.661105 121.367825 
L 199.116134 121.474488 
L 210.567708 122.069454 
L 212.236149 122.161975 
L 222.170958 122.596544 
L 222.322634 67.026452 
L 222.474311 63.299722 
L 223.460208 66.271246 
L 224.142752 67.207775 
L 224.901134 67.871642 
L 225.356163 68.117459 
L 225.50784 68.023388 
L 226.493737 68.429975 
L 227.479634 68.533989 
L 229.072237 68.442852 
L 229.299752 68.434205 
L 229.527266 68.554494 
L 230.892355 68.327754 
L 231.195707 68.245536 
L 231.423222 68.142555 
L 233.395016 68.194655 
L 234.07756 68.041971 
L 235.290972 68.017745 
L 235.670163 67.937666 
L 236.959413 67.884372 
L 237.490281 67.878306 
L 238.096987 67.893079 
L 238.931207 67.791187 
L 239.613751 67.780644 
L 240.372134 67.710314 
L 241.054678 67.686892 
L 241.81306 67.631437 
L 242.571443 67.583888 
L 243.405663 67.556926 
L 245.377457 67.427569 
L 247.273413 67.325131 
L 249.700237 67.199802 
L 257.132384 66.858252 
L 260.090075 66.733574 
L 260.165913 34.153917 
L 260.317589 61.617968 
L 260.393428 62.885437 
L 260.469266 62.622081 
L 261.000134 59.108852 
L 261.531001 57.247042 
L 262.061869 56.148424 
L 262.668575 55.387555 
L 263.426957 54.906705 
L 264.261178 54.629312 
L 264.412854 54.702421 
L 265.777942 54.387064 
L 266.612163 54.311621 
L 270.555751 54.022178 
L 270.859104 54.137571 
L 271.162457 54.156573 
L 273.285927 53.97926 
L 273.665119 54.041555 
L 274.271825 53.933658 
L 274.651016 53.862882 
L 275.257722 53.976764 
L 275.788589 53.939543 
L 276.471133 53.832325 
L 277.381192 53.872242 
L 277.987898 53.798105 
L 278.897957 53.81621 
L 279.504663 53.770152 
L 280.263045 53.789614 
L 281.021427 53.745375 
L 281.703971 53.744684 
L 282.462354 53.711842 
L 283.220736 53.690215 
L 284.054957 53.688691 
L 285.875074 53.63505 
L 287.543516 53.576799 
L 290.652883 53.50737 
L 294.368957 53.431909 
L 298.009192 53.362049 
L 298.08503 122.005124 
L 298.160868 99.560477 
L 298.312545 92.442556 
L 299.070927 97.758152 
L 299.601795 99.337469 
L 300.132662 100.269779 
L 300.815207 100.983509 
L 301.649427 101.420696 
L 302.180295 101.546439 
L 302.331971 101.497745 
L 303.545383 101.787655 
L 305.213824 101.92734 
L 306.730589 102.087533 
L 306.958104 102.138533 
L 307.792324 102.090091 
L 308.778221 102.010625 
L 309.157412 101.992887 
L 310.143309 102.175209 
L 310.446662 102.198625 
L 312.039265 102.12419 
L 312.570133 102.229383 
L 316.96875 102.287347 
L 317.575456 102.248292 
L 318.182162 102.272294 
L 318.864706 102.294438 
L 319.623089 102.302615 
L 320.381471 102.307595 
L 321.215692 102.34715 
L 323.187486 102.357573 
L 325.007603 102.383508 
L 327.510265 102.425138 
L 335.928309 102.549761 
L 335.928309 102.549761 
" clip-path="url(#p7310bb680b)" style="fill: none; stroke: #1f77b4; stroke-width: 2; stroke-linecap: square"/>
   </g>
   <g id="line2d_38">
    <path d="M 70.494489 159.983942 
L 70.570327 96.554263 
L 70.722004 153.844348 
L 70.797842 155.21744 
L 71.177033 150.934187 
L 71.404548 150.698816 
L 71.935416 150.908092 
L 72.921313 151.188042 
L 73.376342 151.257887 
L 73.528018 151.103948 
L 73.983048 151.545785 
L 74.058886 151.857463 
L 74.134724 151.750198 
L 74.438077 151.390241 
L 74.893107 151.401802 
L 77.471607 151.780524 
L 77.623283 151.885273 
L 78.078312 151.72936 
L 78.229989 151.342893 
L 78.60918 151.837543 
L 79.140048 151.897861 
L 79.367562 151.829377 
L 79.519239 151.762052 
L 79.974268 152.01077 
L 80.125945 152.345354 
L 80.505136 151.959463 
L 81.263518 151.953066 
L 81.491033 151.66708 
L 81.870224 151.956818 
L 82.401092 152.320053 
L 82.552768 152.513443 
L 83.235312 152.06622 
L 83.462827 151.796558 
L 83.76618 152.09859 
L 84.448724 152.504952 
L 85.05543 152.030254 
L 85.207106 152.051928 
L 85.965489 152.600336 
L 86.799709 152.265008 
L 87.406415 152.661285 
L 87.785606 152.485925 
L 88.164798 152.363809 
L 89.150695 152.627848 
L 89.605724 152.5045 
L 90.591621 152.715813 
L 91.046651 152.637655 
L 91.956709 152.824499 
L 92.487577 152.764891 
L 93.321798 152.924349 
L 93.928503 152.887003 
L 94.686886 153.01907 
L 95.36943 153.004214 
L 96.127812 153.103062 
L 96.810356 153.11663 
L 97.568739 153.189983 
L 98.251283 153.224466 
L 99.009665 153.279426 
L 99.768047 153.341168 
L 100.678106 153.372552 
L 108.413606 153.896333 
L 108.489444 151.545981 
L 108.641121 64.478171 
L 108.944474 117.867977 
L 109.171989 126.1803 
L 109.399503 127.241874 
L 109.55118 127.107734 
L 110.3854 125.893513 
L 110.764591 125.643674 
L 110.916268 125.807293 
L 111.447136 125.428169 
L 112.584709 125.246593 
L 112.736386 125.22798 
L 112.888062 124.632318 
L 113.267253 125.177132 
L 113.798121 125.273951 
L 114.404827 125.278518 
L 114.556503 125.145405 
L 115.011533 125.416528 
L 116.755812 125.722932 
L 117.362518 125.764522 
L 117.514194 126.245733 
L 117.590033 126.113651 
L 117.817547 125.785932 
L 118.348415 125.777936 
L 118.879283 125.822535 
L 119.41015 125.569564 
L 119.561827 125.096043 
L 119.713503 125.345336 
L 120.016856 125.744192 
L 120.471885 125.926288 
L 120.775238 125.923523 
L 121.002753 126.275003 
L 121.381944 125.907474 
L 121.912812 125.84053 
L 122.140327 125.509265 
L 123.202062 126.299831 
L 123.960444 125.612863 
L 124.187959 125.814626 
L 124.794665 126.372926 
L 125.098018 126.133619 
L 125.628885 125.790483 
L 126.463106 126.325643 
L 127.14565 125.920809 
L 127.979871 126.337961 
L 128.586577 126.024574 
L 128.965768 126.255422 
L 129.344959 126.405905 
L 130.179179 126.182961 
L 130.785885 126.439961 
L 131.620106 126.273888 
L 132.226812 126.47626 
L 132.985194 126.331625 
L 133.667738 126.514499 
L 134.426121 126.419276 
L 135.032826 126.569288 
L 135.867047 126.503092 
L 136.473753 126.612139 
L 137.232135 126.560172 
L 137.914679 126.656622 
L 138.597223 126.618748 
L 139.355606 126.703127 
L 140.03815 126.693485 
L 140.720694 126.761608 
L 141.479076 126.765019 
L 142.16162 126.81115 
L 142.920003 126.833299 
L 143.678385 126.856101 
L 144.436767 126.909431 
L 145.346826 126.909559 
L 146.332723 126.977076 
L 146.408562 57.321901 
L 146.4844 63.058379 
L 146.863591 44.272032 
L 147.091106 42.581707 
L 147.31862 42.312944 
L 147.849488 42.260858 
L 148.60787 42.196463 
L 148.683709 42.026479 
L 148.835385 42.640542 
L 149.290414 42.218694 
L 150.200473 42.229923 
L 151.868914 42.315067 
L 152.020591 42.446559 
L 152.096429 42.330886 
L 152.248106 41.808019 
L 152.703135 42.238713 
L 153.461517 42.172324 
L 153.840709 42.095465 
L 153.992385 42.523535 
L 154.2199 42.25113 
L 154.523253 42.09426 
L 154.826606 42.158326 
L 154.978282 42.219238 
L 155.129958 41.997557 
L 155.281635 41.731496 
L 155.812503 41.993372 
L 156.040017 42.004439 
L 156.34337 42.348439 
L 156.722561 42.128722 
L 156.950076 42.014817 
L 157.253429 41.702669 
L 157.860135 42.070358 
L 158.08765 42.251923 
L 158.466841 42.006105 
L 158.997708 41.695875 
L 159.756091 42.106632 
L 160.514473 41.673072 
L 161.197017 42.023149 
L 162.031238 41.673774 
L 162.637944 41.926493 
L 163.548003 41.676672 
L 164.07887 41.833175 
L 164.913091 41.612297 
L 165.519797 41.744857 
L 166.354017 41.579449 
L 166.960723 41.661327 
L 167.719105 41.524316 
L 168.401649 41.582488 
L 169.084194 41.472945 
L 169.842576 41.508337 
L 170.52512 41.432761 
L 171.283502 41.438784 
L 171.966047 41.38954 
L 172.724429 41.373562 
L 173.406973 41.3435 
L 174.165355 41.312215 
L 174.999576 41.302817 
L 176.819693 41.223554 
L 178.488135 41.145432 
L 182.12837 41.031449 
L 184.25184 40.943516 
L 184.327679 121.820818 
L 184.479355 24.513006 
L 184.858546 65.68187 
L 185.086061 69.280419 
L 185.237738 69.566372 
L 185.389414 69.435433 
L 186.299473 68.241025 
L 186.678664 68.01064 
L 186.906179 68.104919 
L 187.28537 67.81477 
L 188.271267 67.598041 
L 188.498782 67.558826 
L 188.650458 66.946838 
L 188.726296 67.034132 
L 189.029649 67.458285 
L 189.484679 67.527243 
L 190.394737 67.512698 
L 190.546414 67.355304 
L 191.001443 67.591143 
L 192.745723 67.767594 
L 193.124914 67.772529 
L 193.27659 68.305984 
L 193.352429 68.211226 
L 193.73162 67.600387 
L 194.793355 67.756643 
L 195.172546 67.505388 
L 195.324223 67.056334 
L 196.765149 68.109096 
L 197.14434 67.599142 
L 197.751046 67.353732 
L 197.902723 67.282155 
L 198.281914 67.565683 
L 198.585267 67.658096 
L 198.88862 67.928344 
L 199.72284 67.25616 
L 200.17787 67.585282 
L 200.632899 67.859208 
L 201.391281 67.306579 
L 202.225502 67.765901 
L 202.908046 67.340123 
L 203.666428 67.73774 
L 204.424811 67.385942 
L 205.107355 67.691456 
L 205.865737 67.398331 
L 206.548281 67.644146 
L 207.306664 67.411563 
L 207.989208 67.599097 
L 208.671752 67.399373 
L 209.430134 67.556872 
L 210.112678 67.40868 
L 210.795222 67.539359 
L 211.553605 67.415365 
L 212.236149 67.503217 
L 212.918693 67.402055 
L 213.677075 67.469989 
L 214.359619 67.403573 
L 215.042164 67.455909 
L 215.800546 67.402523 
L 216.48309 67.427843 
L 217.165634 67.387037 
L 217.924016 67.402525 
L 218.606561 67.382156 
L 219.364943 67.379961 
L 220.123325 67.383216 
L 220.881708 67.35194 
L 222.170958 67.349518 
L 222.246796 103.009807 
L 222.398472 61.692611 
L 222.701825 84.81198 
L 222.92934 88.202228 
L 223.156855 88.619883 
L 223.460208 88.504037 
L 224.294428 88.169069 
L 224.976972 88.024179 
L 225.128649 87.868828 
L 225.356163 87.965491 
L 225.50784 87.501806 
L 225.811193 87.921518 
L 226.190384 87.954115 
L 228.844722 87.898479 
L 228.996399 87.968987 
L 229.223913 87.835564 
L 229.299752 87.923267 
L 229.451428 88.278855 
L 229.754781 87.867768 
L 230.133972 87.828682 
L 230.66484 87.838206 
L 230.892355 87.742347 
L 231.119869 87.808666 
L 231.271546 87.44549 
L 231.347384 87.489554 
L 231.650737 87.841024 
L 232.484957 88.093847 
L 232.636634 88.260978 
L 233.167502 87.759865 
L 233.470855 87.755234 
L 233.698369 87.556121 
L 234.229237 87.974968 
L 234.456752 88.112944 
L 234.608428 88.175143 
L 235.139296 87.81472 
L 235.442649 87.671844 
L 236.201031 88.10642 
L 237.186928 87.844383 
L 237.793634 88.046588 
L 238.552016 87.819295 
L 239.310399 88.012363 
L 239.992943 87.851989 
L 240.751325 88.001789 
L 241.433869 87.884937 
L 242.192251 87.991655 
L 242.874796 87.915331 
L 243.55734 87.999605 
L 244.315722 87.942252 
L 244.998266 87.994182 
L 245.756648 87.965363 
L 246.439193 87.99212 
L 247.197575 87.984741 
L 247.955957 87.984433 
L 248.71434 88.008976 
L 249.700237 87.983321 
L 252.278737 88.009126 
L 256.753192 88.045389 
L 260.090075 88.074746 
L 260.165913 44.417234 
L 260.317589 130.347522 
L 260.696781 90.719362 
L 260.924295 87.603581 
L 261.075972 87.420773 
L 261.303486 87.69945 
L 261.910192 88.503826 
L 262.289384 88.78245 
L 262.516898 88.706137 
L 262.896089 89.010097 
L 263.73031 89.19769 
L 264.261178 89.385015 
L 264.337016 89.863687 
L 264.412854 89.793667 
L 264.716207 89.367549 
L 265.171236 89.303021 
L 265.777942 89.317512 
L 265.929619 89.494245 
L 266.460486 89.256386 
L 267.59806 89.080316 
L 267.749736 88.984582 
L 268.204766 89.141662 
L 268.735633 89.136479 
L 268.88731 88.707289 
L 269.190663 89.124163 
L 269.645692 89.164319 
L 270.328236 89.182999 
L 270.707428 89.342051 
L 270.934942 89.827243 
L 271.314133 89.270343 
L 271.769163 89.120726 
L 272.072516 89.151669 
L 272.30003 88.814405 
L 272.375869 88.899526 
L 272.679222 89.190598 
L 273.210089 89.286622 
L 273.437604 89.598093 
L 274.423501 88.865754 
L 275.33356 89.543261 
L 276.091942 88.935785 
L 277.002001 89.434424 
L 277.608707 89.008072 
L 277.987898 89.265506 
L 278.367089 89.474437 
L 278.74628 89.236982 
L 279.125472 89.077492 
L 280.03553 89.348982 
L 280.566398 89.122965 
L 281.476457 89.338306 
L 282.007324 89.164149 
L 282.917383 89.325038 
L 283.448251 89.2015 
L 284.282471 89.341854 
L 284.813339 89.220597 
L 285.799236 89.305848 
L 286.254266 89.250277 
L 287.088486 89.342539 
L 287.695192 89.277633 
L 288.453574 89.352171 
L 289.136118 89.302296 
L 289.894501 89.347603 
L 290.577045 89.324018 
L 291.335427 89.346164 
L 292.017971 89.34275 
L 292.776354 89.347666 
L 293.534736 89.36759 
L 294.368957 89.341292 
L 297.478324 89.372405 
L 298.009192 89.396899 
L 298.08503 145.724392 
L 298.160868 75.106784 
L 298.236707 79.330992 
L 298.54006 131.953345 
L 298.767574 139.141189 
L 298.919251 139.863558 
L 299.070927 139.8299 
L 300.056824 138.665518 
L 300.360177 138.539505 
L 300.511854 138.65786 
L 300.891045 138.3952 
L 301.725265 138.286997 
L 302.104457 138.261713 
L 302.256133 137.68767 
L 302.331971 137.798896 
L 302.635324 138.213398 
L 303.166192 138.308793 
L 303.924574 138.319816 
L 304.076251 138.210556 
L 304.455442 138.430055 
L 306.123883 138.703822 
L 306.578912 138.701874 
L 306.654751 138.747386 
L 306.806427 139.234004 
L 307.261456 138.639174 
L 308.171515 138.877876 
L 308.626545 138.704144 
L 308.854059 138.273568 
L 309.309089 138.758283 
L 310.067471 139.163946 
L 310.219148 139.322271 
L 310.598339 138.880032 
L 311.205045 138.67154 
L 311.356721 138.664247 
L 311.735912 138.943962 
L 312.039265 139.082219 
L 312.26678 139.322134 
L 313.252677 138.842997 
L 314.011059 139.370876 
L 314.84528 138.978257 
L 315.527824 139.424038 
L 316.362045 139.121657 
L 316.96875 139.475894 
L 317.42378 139.242071 
L 317.727133 139.198078 
L 318.561353 139.479819 
L 319.168059 139.317722 
L 319.926442 139.562592 
L 320.608986 139.432763 
L 321.367368 139.619681 
L 321.974074 139.521657 
L 322.884133 139.661917 
L 323.415 139.626688 
L 324.249221 139.744737 
L 324.855927 139.72743 
L 325.614309 139.824038 
L 326.296853 139.823775 
L 327.055236 139.893035 
L 327.73778 139.915786 
L 328.496162 139.964786 
L 329.254544 140.016899 
L 330.012927 140.03577 
L 331.60553 140.118027 
L 335.928309 140.360253 
L 335.928309 140.360253 
" clip-path="url(#p7310bb680b)" style="fill: none; stroke: #ff7f0e; stroke-width: 2; stroke-linecap: square"/>
   </g>
   <g id="patch_3">
    <path d="M 57.222798 175.381683 
L 57.222798 10.8 
" style="fill: none; stroke: #000000; stroke-width: 0.8; stroke-linejoin: miter; stroke-linecap: square"/>
   </g>
   <g id="patch_4">
    <path d="M 349.2 175.381683 
L 349.2 10.8 
" style="fill: none; stroke: #000000; stroke-width: 0.8; stroke-linejoin: miter; stroke-linecap: square"/>
   </g>
   <g id="patch_5">
    <path d="M 57.222798 175.381683 
L 349.2 175.381683 
" style="fill: none; stroke: #000000; stroke-width: 0.8; stroke-linejoin: miter; stroke-linecap: square"/>
   </g>
   <g id="patch_6">
    <path d="M 57.222798 10.8 
L 349.2 10.8 
" style="fill: none; stroke: #000000; stroke-width: 0.8; stroke-linejoin: miter; stroke-linecap: square"/>
   </g>
   <g id="legend_1">
    <g id="patch_7">
     <path d="M 178.430059 170.381683 
L 227.992739 170.381683 
Q 229.992739 170.381683 229.992739 168.381683 
L 229.992739 82.105747 
Q 229.992739 80.105747 227.992739 80.105747 
L 178.430059 80.105747 
Q 176.430059 80.105747 176.430059 82.105747 
L 176.430059 168.381683 
Q 176.430059 170.381683 178.430059 170.381683 
z
" style="fill: #ffffff; opacity: 0.8; stroke: #cccccc; stroke-linejoin: miter"/>
    </g>
    <g id="line2d_39">
     <path d="M 180.430059 87.605747 
L 190.430059 87.605747 
L 200.430059 87.605747 
" style="fill: none; stroke: #1f77b4; stroke-width: 1.5; stroke-linecap: square"/>
     <g>
      <use xlink:href="#m5caa7dadf0" x="190.430059" y="87.605747" style="fill: #1f77b4; stroke: #1f77b4"/>
     </g>
    </g>
    <g id="text_19">
     <!-- $\tau_\mathrm{ff,1}$ -->
     <g transform="translate(208.430059 91.105747) scale(0.1 -0.1)">
      <defs>
       <path id="CMMI12-1c" d="M 1837 2408 
L 2899 2408 
C 2982 2408 3194 2408 3194 2612 
C 3194 2752 3072 2752 2957 2752 
L 1197 2752 
C 1050 2752 832 2752 538 2440 
C 371 2255 166 1917 166 1879 
C 166 1841 198 1828 237 1828 
C 282 1828 288 1847 320 1885 
C 653 2408 986 2408 1146 2408 
L 1677 2408 
L 1011 223 
C 979 127 979 114 979 95 
C 979 25 1024 -64 1152 -64 
C 1350 -64 1382 108 1402 203 
L 1837 2408 
z
" transform="scale(0.015625)"/>
       <path id="CMR17-b" d="M 2554 2560 
L 3283 2560 
L 3283 2725 
L 2541 2725 
L 2541 3494 
C 2541 4022 2810 4352 3085 4352 
C 3168 4352 3264 4327 3328 4282 
C 3277 4269 3142 4225 3142 4067 
C 3142 3901 3270 3850 3360 3850 
C 3450 3850 3578 3901 3578 4067 
C 3578 4308 3347 4454 3091 4454 
C 2842 4454 2637 4333 2477 4181 
C 2330 4390 2086 4454 1837 4454 
C 1338 4454 634 4168 634 3469 
L 634 2725 
L 122 2725 
L 122 2560 
L 634 2560 
L 634 427 
C 634 184 608 153 198 153 
L 198 -13 
C 352 0 634 0 794 0 
C 960 0 1242 0 1395 -13 
L 1395 153 
C 986 153 960 178 960 427 
L 960 2560 
L 2227 2560 
L 2227 427 
C 2227 184 2202 153 1792 153 
L 1792 -13 
C 1946 0 2240 0 2406 0 
C 2592 0 2918 0 3091 -13 
L 3091 153 
C 2630 153 2554 153 2554 439 
L 2554 2560 
z
M 947 2725 
L 947 3469 
C 947 4047 1395 4352 1824 4352 
C 1920 4352 2170 4332 2323 4187 
C 2208 4187 2099 4136 2099 3977 
C 2099 3812 2246 3767 2259 3767 
C 2227 3652 2227 3526 2227 3481 
L 2227 2725 
L 947 2725 
z
" transform="scale(0.015625)"/>
       <path id="CMMI12-3b" d="M 1248 -31 
C 1248 343 1126 619 864 619 
C 659 619 557 453 557 313 
C 557 172 653 0 870 0 
C 954 0 1024 26 1082 83 
C 1094 96 1101 96 1107 96 
C 1120 96 1120 5 1120 -27 
C 1120 -240 1082 -659 710 -1080 
C 640 -1157 640 -1170 640 -1183 
C 640 -1216 672 -1248 704 -1248 
C 755 -1248 1248 -771 1248 -31 
z
" transform="scale(0.015625)"/>
      </defs>
      <use xlink:href="#CMMI12-1c" transform="scale(0.996264)"/>
      <use xlink:href="#CMR17-b" transform="translate(42.363841 -14.943915) scale(0.697382)"/>
      <use xlink:href="#CMMI12-3b" transform="translate(83.138776 -14.943915) scale(0.697382)"/>
      <use xlink:href="#CMR17-31" transform="translate(102.106709 -14.943915) scale(0.697382)"/>
     </g>
    </g>
    <g id="line2d_40">
     <path d="M 180.430059 102.456142 
L 190.430059 102.456142 
L 200.430059 102.456142 
" style="fill: none; stroke: #ff7f0e; stroke-width: 1.5; stroke-linecap: square"/>
     <g>
      <use xlink:href="#mb22dac319a" x="190.430059" y="102.456142" style="fill: #ff7f0e; stroke: #ff7f0e"/>
     </g>
    </g>
    <g id="text_20">
     <!-- $\tau_\mathrm{ff,2}$ -->
     <g transform="translate(208.430059 105.956142) scale(0.1 -0.1)">
      <use xlink:href="#CMMI12-1c" transform="scale(0.996264)"/>
      <use xlink:href="#CMR17-b" transform="translate(42.363841 -14.943915) scale(0.697382)"/>
      <use xlink:href="#CMMI12-3b" transform="translate(83.138776 -14.943915) scale(0.697382)"/>
      <use xlink:href="#CMR17-32" transform="translate(102.106709 -14.943915) scale(0.697382)"/>
     </g>
    </g>
    <g id="line2d_41">
     <path d="M 180.430059 117.306537 
L 190.430059 117.306537 
L 200.430059 117.306537 
" style="fill: none; stroke: #1f77b4; stroke-width: 1.5; stroke-linecap: square"/>
     <g>
      <use xlink:href="#m888c77fd76" x="190.430059" y="117.306537" style="fill: #1f77b4; stroke: #1f77b4; stroke-linejoin: miter"/>
     </g>
    </g>
    <g id="text_21">
     <!-- $\tau_{\mathrm{fb},1}$ -->
     <g transform="translate(208.430059 120.806537) scale(0.1 -0.1)">
      <defs>
       <path id="CMR17-62" d="M 960 4396 
L 198 4326 
L 198 4160 
C 576 4160 634 4122 634 3817 
L 634 -13 
L 749 -13 
L 934 441 
C 1120 141 1395 -64 1766 -64 
C 2406 -64 3053 500 3053 1370 
C 3053 2188 2477 2790 1830 2790 
C 1434 2790 1152 2579 960 2330 
L 960 4396 
z
M 973 2004 
C 973 2118 973 2138 1062 2272 
C 1312 2657 1670 2688 1792 2688 
C 1984 2688 2643 2585 2643 1376 
C 2643 108 1888 38 1734 38 
C 1536 38 1248 114 1043 486 
C 973 608 973 621 973 735 
L 973 2004 
z
" transform="scale(0.015625)"/>
      </defs>
      <use xlink:href="#CMMI12-1c" transform="scale(0.996264)"/>
      <use xlink:href="#CMR17-66" transform="translate(42.363841 -14.943915) scale(0.697382)"/>
      <use xlink:href="#CMR17-62" transform="translate(61.595205 -14.943915) scale(0.697382)"/>
      <use xlink:href="#CMMI12-3b" transform="translate(97.221813 -14.943915) scale(0.697382)"/>
      <use xlink:href="#CMR17-31" transform="translate(116.189746 -14.943915) scale(0.697382)"/>
     </g>
    </g>
    <g id="line2d_42">
     <path d="M 180.430059 132.156932 
L 190.430059 132.156932 
L 200.430059 132.156932 
" style="fill: none; stroke: #ff7f0e; stroke-width: 1.5; stroke-linecap: square"/>
     <g>
      <use xlink:href="#mbec7d0b11c" x="190.430059" y="132.156932" style="fill: #ff7f0e; stroke: #ff7f0e; stroke-linejoin: miter"/>
     </g>
    </g>
    <g id="text_22">
     <!-- $\tau_{\mathrm{fb},2}$ -->
     <g transform="translate(208.430059 135.656932) scale(0.1 -0.1)">
      <use xlink:href="#CMMI12-1c" transform="scale(0.996264)"/>
      <use xlink:href="#CMR17-66" transform="translate(42.363841 -14.943915) scale(0.697382)"/>
      <use xlink:href="#CMR17-62" transform="translate(61.595205 -14.943915) scale(0.697382)"/>
      <use xlink:href="#CMMI12-3b" transform="translate(97.221813 -14.943915) scale(0.697382)"/>
      <use xlink:href="#CMR17-32" transform="translate(116.189746 -14.943915) scale(0.697382)"/>
     </g>
    </g>
    <g id="line2d_43">
     <path d="M 180.430059 147.007327 
L 190.430059 147.007327 
L 200.430059 147.007327 
" style="fill: none; stroke: #1f77b4; stroke-width: 2; stroke-linecap: square"/>
    </g>
    <g id="text_23">
     <!-- $\tau_1$ -->
     <g transform="translate(208.430059 150.507327) scale(0.1 -0.1)">
      <use xlink:href="#CMMI12-1c" transform="scale(0.996264)"/>
      <use xlink:href="#CMR17-31" transform="translate(42.363841 -14.943915) scale(0.697382)"/>
     </g>
    </g>
    <g id="line2d_44">
     <path d="M 180.430059 160.944505 
L 190.430059 160.944505 
L 200.430059 160.944505 
" style="fill: none; stroke: #ff7f0e; stroke-width: 2; stroke-linecap: square"/>
    </g>
    <g id="text_24">
     <!-- $\tau_2$ -->
     <g transform="translate(208.430059 164.444505) scale(0.1 -0.1)">
      <use xlink:href="#CMMI12-1c" transform="scale(0.996264)"/>
      <use xlink:href="#CMR17-32" transform="translate(42.363841 -14.943915) scale(0.697382)"/>
     </g>
    </g>
   </g>
  </g>
 </g>
 <defs>
  <clipPath id="p7310bb680b">
   <rect x="57.222798" y="10.8" width="291.977202" height="164.581683"/>
  </clipPath>
 </defs>
</svg>
