<?xml version="1.0" encoding="utf-8" standalone="no"?>
<!DOCTYPE svg PUBLIC "-//W3C//DTD SVG 1.1//EN"
  "http://www.w3.org/Graphics/SVG/1.1/DTD/svg11.dtd">
<svg xmlns:xlink="http://www.w3.org/1999/xlink" width="360pt" height="216pt" viewBox="0 0 360 216" xmlns="http://www.w3.org/2000/svg" version="1.1">
 <metadata>
  <rdf:RDF xmlns:dc="http://purl.org/dc/elements/1.1/" xmlns:cc="http://creativecommons.org/ns#" xmlns:rdf="http://www.w3.org/1999/02/22-rdf-syntax-ns#">
   <cc:Work>
    <dc:type rdf:resource="http://purl.org/dc/dcmitype/StillImage"/>
    <dc:date>2024-10-24T18:03:58.175517</dc:date>
    <dc:format>image/svg+xml</dc:format>
    <dc:creator>
     <cc:Agent>
      <dc:title>Matplotlib v3.9.2, https://matplotlib.org/</dc:title>
     </cc:Agent>
    </dc:creator>
   </cc:Work>
  </rdf:RDF>
 </metadata>
 <defs>
  <style type="text/css">*{stroke-linejoin: round; stroke-linecap: butt}</style>
 </defs>
 <g id="figure_1">
  <g id="patch_1">
   <path d="M 0 216 
L 360 216 
L 360 0 
L 0 0 
z
" style="fill: #ffffff"/>
  </g>
  <g id="axes_1">
   <g id="patch_2">
    <path d="M 52.241463 175.381683 
L 349.2 175.381683 
L 349.2 10.8 
L 52.241463 10.8 
z
" style="fill: #ffffff"/>
   </g>
   <g id="matplotlib.axis_1">
    <g id="xtick_1">
     <g id="line2d_1">
      <path d="M 65.739578 175.381683 
L 65.739578 10.8 
" clip-path="url(#p6fd59ed47b)" style="fill: none; stroke: #b0b0b0; stroke-width: 0.8; stroke-linecap: square"/>
     </g>
     <g id="line2d_2">
      <defs>
       <path id="md7c97a96f8" d="M 0 0 
L 0 3.5 
" style="stroke: #000000; stroke-width: 0.8"/>
      </defs>
      <g>
       <use xlink:href="#md7c97a96f8" x="65.739578" y="175.381683" style="stroke: #000000; stroke-width: 0.8"/>
      </g>
     </g>
     <g id="text_1">
      <!-- $\mathdefault{0}$ -->
      <g transform="translate(63.248911 189.300182) scale(0.1 -0.1)">
       <defs>
        <path id="CMR17-30" d="M 2688 2025 
C 2688 2416 2682 3080 2413 3591 
C 2176 4039 1798 4198 1466 4198 
C 1158 4198 768 4058 525 3597 
C 269 3118 243 2524 243 2025 
C 243 1661 250 1106 448 619 
C 723 -39 1216 -128 1466 -128 
C 1760 -128 2208 -7 2470 600 
C 2662 1042 2688 1559 2688 2025 
z
M 1466 -26 
C 1056 -26 813 325 723 812 
C 653 1188 653 1738 653 2096 
C 653 2588 653 2997 736 3387 
C 858 3929 1216 4096 1466 4096 
C 1728 4096 2067 3923 2189 3400 
C 2272 3036 2278 2607 2278 2096 
C 2278 1680 2278 1169 2202 792 
C 2067 95 1690 -26 1466 -26 
z
" transform="scale(0.015625)"/>
       </defs>
       <use xlink:href="#CMR17-30" transform="scale(0.996264)"/>
      </g>
     </g>
    </g>
    <g id="xtick_2">
     <g id="line2d_3">
      <path d="M 104.305622 175.381683 
L 104.305622 10.8 
" clip-path="url(#p6fd59ed47b)" style="fill: none; stroke: #b0b0b0; stroke-width: 0.8; stroke-linecap: square"/>
     </g>
     <g id="line2d_4">
      <g>
       <use xlink:href="#md7c97a96f8" x="104.305622" y="175.381683" style="stroke: #000000; stroke-width: 0.8"/>
      </g>
     </g>
     <g id="text_2">
      <!-- $\mathdefault{5}$ -->
      <g transform="translate(101.814954 189.300182) scale(0.1 -0.1)">
       <defs>
        <path id="CMR17-35" d="M 730 3692 
C 794 3666 1056 3584 1325 3584 
C 1920 3584 2246 3911 2432 4100 
C 2432 4157 2432 4192 2394 4192 
C 2387 4192 2374 4192 2323 4163 
C 2099 4058 1837 3973 1517 3973 
C 1325 3973 1037 3999 723 4139 
C 653 4171 640 4171 634 4171 
C 602 4171 595 4164 595 4037 
L 595 2203 
C 595 2089 595 2057 659 2057 
C 691 2057 704 2070 736 2114 
C 941 2401 1222 2522 1542 2522 
C 1766 2522 2246 2382 2246 1289 
C 2246 1085 2246 715 2054 421 
C 1894 159 1645 25 1370 25 
C 947 25 518 320 403 814 
C 429 807 480 795 506 795 
C 589 795 749 840 749 1038 
C 749 1210 627 1280 506 1280 
C 358 1280 262 1190 262 1011 
C 262 454 704 -128 1382 -128 
C 2042 -128 2669 440 2669 1264 
C 2669 2030 2170 2624 1549 2624 
C 1222 2624 947 2503 730 2274 
L 730 3692 
z
" transform="scale(0.015625)"/>
       </defs>
       <use xlink:href="#CMR17-35" transform="scale(0.996264)"/>
      </g>
     </g>
    </g>
    <g id="xtick_3">
     <g id="line2d_5">
      <path d="M 142.871666 175.381683 
L 142.871666 10.8 
" clip-path="url(#p6fd59ed47b)" style="fill: none; stroke: #b0b0b0; stroke-width: 0.8; stroke-linecap: square"/>
     </g>
     <g id="line2d_6">
      <g>
       <use xlink:href="#md7c97a96f8" x="142.871666" y="175.381683" style="stroke: #000000; stroke-width: 0.8"/>
      </g>
     </g>
     <g id="text_3">
      <!-- $\mathdefault{10}$ -->
      <g transform="translate(137.89033 189.300182) scale(0.1 -0.1)">
       <defs>
        <path id="CMR17-31" d="M 1702 4058 
C 1702 4192 1696 4192 1606 4192 
C 1357 3916 979 3827 621 3827 
C 602 3827 570 3827 563 3808 
C 557 3795 557 3782 557 3648 
C 755 3648 1088 3686 1344 3839 
L 1344 461 
C 1344 236 1331 160 781 160 
L 589 160 
L 589 0 
C 896 0 1216 0 1523 0 
C 1830 0 2150 0 2458 0 
L 2458 160 
L 2266 160 
C 1715 160 1702 230 1702 458 
L 1702 4058 
z
" transform="scale(0.015625)"/>
       </defs>
       <use xlink:href="#CMR17-31" transform="scale(0.996264)"/>
       <use xlink:href="#CMR17-30" transform="translate(45.690477 0) scale(0.996264)"/>
      </g>
     </g>
    </g>
    <g id="xtick_4">
     <g id="line2d_7">
      <path d="M 181.43771 175.381683 
L 181.43771 10.8 
" clip-path="url(#p6fd59ed47b)" style="fill: none; stroke: #b0b0b0; stroke-width: 0.8; stroke-linecap: square"/>
     </g>
     <g id="line2d_8">
      <g>
       <use xlink:href="#md7c97a96f8" x="181.43771" y="175.381683" style="stroke: #000000; stroke-width: 0.8"/>
      </g>
     </g>
     <g id="text_4">
      <!-- $\mathdefault{15}$ -->
      <g transform="translate(176.456374 189.300182) scale(0.1 -0.1)">
       <use xlink:href="#CMR17-31" transform="scale(0.996264)"/>
       <use xlink:href="#CMR17-35" transform="translate(45.690477 0) scale(0.996264)"/>
      </g>
     </g>
    </g>
    <g id="xtick_5">
     <g id="line2d_9">
      <path d="M 220.003753 175.381683 
L 220.003753 10.8 
" clip-path="url(#p6fd59ed47b)" style="fill: none; stroke: #b0b0b0; stroke-width: 0.8; stroke-linecap: square"/>
     </g>
     <g id="line2d_10">
      <g>
       <use xlink:href="#md7c97a96f8" x="220.003753" y="175.381683" style="stroke: #000000; stroke-width: 0.8"/>
      </g>
     </g>
     <g id="text_5">
      <!-- $\mathdefault{20}$ -->
      <g transform="translate(215.022418 189.300182) scale(0.1 -0.1)">
       <defs>
        <path id="CMR17-32" d="M 2669 989 
L 2554 989 
C 2490 536 2438 459 2413 420 
C 2381 369 1920 369 1830 369 
L 602 369 
C 832 619 1280 1072 1824 1597 
C 2214 1967 2669 2402 2669 3035 
C 2669 3790 2067 4224 1395 4224 
C 691 4224 262 3604 262 3030 
C 262 2780 448 2748 525 2748 
C 589 2748 781 2787 781 3010 
C 781 3207 614 3264 525 3264 
C 486 3264 448 3258 422 3245 
C 544 3790 915 4058 1306 4058 
C 1862 4058 2227 3617 2227 3035 
C 2227 2479 1901 2000 1536 1584 
L 262 146 
L 262 0 
L 2515 0 
L 2669 989 
z
" transform="scale(0.015625)"/>
       </defs>
       <use xlink:href="#CMR17-32" transform="scale(0.996264)"/>
       <use xlink:href="#CMR17-30" transform="translate(45.690477 0) scale(0.996264)"/>
      </g>
     </g>
    </g>
    <g id="xtick_6">
     <g id="line2d_11">
      <path d="M 258.569797 175.381683 
L 258.569797 10.8 
" clip-path="url(#p6fd59ed47b)" style="fill: none; stroke: #b0b0b0; stroke-width: 0.8; stroke-linecap: square"/>
     </g>
     <g id="line2d_12">
      <g>
       <use xlink:href="#md7c97a96f8" x="258.569797" y="175.381683" style="stroke: #000000; stroke-width: 0.8"/>
      </g>
     </g>
     <g id="text_6">
      <!-- $\mathdefault{25}$ -->
      <g transform="translate(253.588462 189.300182) scale(0.1 -0.1)">
       <use xlink:href="#CMR17-32" transform="scale(0.996264)"/>
       <use xlink:href="#CMR17-35" transform="translate(45.690477 0) scale(0.996264)"/>
      </g>
     </g>
    </g>
    <g id="xtick_7">
     <g id="line2d_13">
      <path d="M 297.135841 175.381683 
L 297.135841 10.8 
" clip-path="url(#p6fd59ed47b)" style="fill: none; stroke: #b0b0b0; stroke-width: 0.8; stroke-linecap: square"/>
     </g>
     <g id="line2d_14">
      <g>
       <use xlink:href="#md7c97a96f8" x="297.135841" y="175.381683" style="stroke: #000000; stroke-width: 0.8"/>
      </g>
     </g>
     <g id="text_7">
      <!-- $\mathdefault{30}$ -->
      <g transform="translate(292.154506 189.300182) scale(0.1 -0.1)">
       <defs>
        <path id="CMR17-33" d="M 1414 2157 
C 1984 2157 2234 1662 2234 1090 
C 2234 320 1824 25 1453 25 
C 1114 25 563 194 390 693 
C 422 680 454 680 486 680 
C 640 680 755 782 755 948 
C 755 1133 614 1216 486 1216 
C 378 1216 211 1165 211 926 
C 211 335 787 -128 1466 -128 
C 2176 -128 2720 430 2720 1085 
C 2720 1707 2208 2157 1600 2227 
C 2086 2328 2554 2756 2554 3329 
C 2554 3820 2048 4179 1472 4179 
C 890 4179 378 3829 378 3329 
C 378 3110 544 3072 627 3072 
C 762 3072 877 3155 877 3321 
C 877 3486 762 3569 627 3569 
C 602 3569 570 3569 544 3557 
C 730 3959 1235 4032 1459 4032 
C 1683 4032 2106 3925 2106 3320 
C 2106 3143 2080 2828 1862 2550 
C 1670 2304 1453 2304 1242 2284 
C 1210 2284 1062 2269 1037 2269 
C 992 2263 966 2257 966 2208 
C 966 2163 973 2157 1101 2157 
L 1414 2157 
z
" transform="scale(0.015625)"/>
       </defs>
       <use xlink:href="#CMR17-33" transform="scale(0.996264)"/>
       <use xlink:href="#CMR17-30" transform="translate(45.690477 0) scale(0.996264)"/>
      </g>
     </g>
    </g>
    <g id="xtick_8">
     <g id="line2d_15">
      <path d="M 335.701885 175.381683 
L 335.701885 10.8 
" clip-path="url(#p6fd59ed47b)" style="fill: none; stroke: #b0b0b0; stroke-width: 0.8; stroke-linecap: square"/>
     </g>
     <g id="line2d_16">
      <g>
       <use xlink:href="#md7c97a96f8" x="335.701885" y="175.381683" style="stroke: #000000; stroke-width: 0.8"/>
      </g>
     </g>
     <g id="text_8">
      <!-- $\mathdefault{35}$ -->
      <g transform="translate(330.720549 189.300182) scale(0.1 -0.1)">
       <use xlink:href="#CMR17-33" transform="scale(0.996264)"/>
       <use xlink:href="#CMR17-35" transform="translate(45.690477 0) scale(0.996264)"/>
      </g>
     </g>
    </g>
    <g id="text_9">
     <!-- Time $t$ [s] -->
     <g transform="translate(179.522424 202.70934) scale(0.1 -0.1)">
      <defs>
       <path id="CMR17-54" d="M 3981 4326 
L 288 4326 
L 179 2918 
L 294 2918 
C 378 3976 467 4160 1453 4160 
C 1568 4160 1754 4160 1805 4154 
C 1926 4135 1926 4058 1926 3912 
L 1926 459 
C 1926 230 1907 160 1376 160 
L 1197 160 
L 1197 0 
C 1504 0 1824 0 2138 0 
C 2451 0 2771 0 3078 0 
L 3078 160 
L 2899 160 
C 2368 160 2349 230 2349 459 
L 2349 3912 
C 2349 4052 2349 4129 2464 4154 
C 2515 4160 2701 4160 2816 4160 
C 3795 4160 3891 3976 3974 2918 
L 4090 2918 
L 3981 4326 
z
" transform="scale(0.015625)"/>
       <path id="CMR17-69" d="M 992 3909 
C 992 4049 877 4170 730 4170 
C 589 4170 467 4056 467 3909 
C 467 3769 582 3648 730 3648 
C 870 3648 992 3763 992 3909 
z
M 243 2706 
L 243 2541 
C 602 2541 653 2502 653 2197 
L 653 427 
C 653 184 627 153 218 153 
L 218 -13 
C 371 0 646 0 806 0 
C 960 0 1222 0 1370 -13 
L 1370 153 
C 992 153 979 191 979 420 
L 979 2776 
L 243 2706 
z
" transform="scale(0.015625)"/>
       <path id="CMR17-6d" d="M 4326 1933 
C 4326 2252 4269 2790 3507 2790 
C 3072 2790 2771 2496 2656 2151 
L 2650 2151 
C 2573 2676 2195 2790 1837 2790 
C 1331 2790 1069 2400 973 2144 
L 966 2144 
L 966 2790 
L 211 2720 
L 211 2554 
C 589 2554 646 2515 646 2208 
L 646 428 
C 646 184 621 153 211 153 
L 211 -13 
C 365 0 646 0 813 0 
C 979 0 1267 0 1421 -13 
L 1421 153 
C 1011 153 986 178 986 428 
L 986 1658 
C 986 2247 1344 2688 1792 2688 
C 2266 2688 2317 2266 2317 1958 
L 2317 428 
C 2317 184 2291 153 1882 153 
L 1882 -13 
C 2035 0 2317 0 2483 0 
C 2650 0 2938 0 3091 -13 
L 3091 153 
C 2682 153 2656 178 2656 428 
L 2656 1658 
C 2656 2247 3014 2688 3462 2688 
C 3936 2688 3987 2266 3987 1958 
L 3987 428 
C 3987 184 3962 153 3552 153 
L 3552 -13 
C 3706 0 3987 0 4154 0 
C 4320 0 4608 0 4762 -13 
L 4762 153 
C 4352 153 4326 178 4326 428 
L 4326 1933 
z
" transform="scale(0.015625)"/>
       <path id="CMR17-65" d="M 2438 1472 
C 2464 1498 2464 1511 2464 1576 
C 2464 2238 2118 2816 1389 2816 
C 710 2816 173 2169 173 1383 
C 173 551 781 -64 1459 -64 
C 2176 -64 2458 607 2458 740 
C 2458 784 2419 784 2406 784 
C 2362 784 2355 771 2330 696 
C 2189 265 1837 51 1504 51 
C 1229 51 954 203 781 480 
C 582 803 582 1176 582 1472 
L 2438 1472 
z
M 589 1568 
C 634 2505 1126 2714 1382 2714 
C 1818 2714 2112 2297 2118 1568 
L 589 1568 
z
" transform="scale(0.015625)"/>
       <path id="CMMI12-74" d="M 1286 2566 
L 1875 2566 
C 1997 2566 2061 2566 2061 2681 
C 2061 2752 2022 2752 1894 2752 
L 1331 2752 
L 1568 3692 
C 1594 3781 1594 3794 1594 3840 
C 1594 3943 1510 4000 1427 4000 
C 1376 4000 1229 3981 1178 3775 
L 928 2752 
L 326 2752 
C 198 2752 141 2752 141 2630 
C 141 2566 186 2566 307 2566 
L 877 2566 
L 454 881 
C 403 658 384 594 384 511 
C 384 211 595 -64 954 -64 
C 1600 -64 1946 868 1946 912 
C 1946 951 1920 970 1882 970 
C 1869 970 1843 970 1830 944 
C 1824 938 1818 931 1773 829 
C 1638 511 1344 64 973 64 
C 781 64 768 224 768 364 
C 768 370 768 492 787 568 
L 1286 2566 
z
" transform="scale(0.015625)"/>
       <path id="CMR17-5b" d="M 1504 -1600 
L 1504 -1377 
L 902 -1377 
L 902 4544 
L 1504 4544 
L 1504 4767 
L 678 4767 
L 678 -1600 
L 1504 -1600 
z
" transform="scale(0.015625)"/>
       <path id="CMR17-73" d="M 1978 2697 
C 1978 2813 1971 2819 1933 2819 
C 1907 2819 1901 2813 1824 2717 
C 1805 2691 1747 2626 1728 2601 
C 1523 2819 1235 2819 1126 2819 
C 416 2819 160 2447 160 2076 
C 160 1498 813 1365 998 1325 
C 1402 1243 1542 1217 1677 1101 
C 1760 1025 1901 884 1901 654 
C 1901 384 1747 38 1158 38 
C 602 38 403 460 288 1021 
C 269 1110 269 1117 218 1117 
C 166 1117 160 1110 160 983 
L 160 63 
C 160 -51 166 -58 205 -58 
C 237 -58 243 -51 275 0 
C 314 57 410 211 448 276 
C 576 103 800 -64 1158 -64 
C 1792 -64 2131 283 2131 784 
C 2131 1112 1958 1285 1875 1362 
C 1683 1561 1459 1606 1190 1657 
C 838 1735 390 1825 390 2217 
C 390 2383 480 2737 1126 2737 
C 1811 2737 1850 2094 1862 1888 
C 1869 1856 1901 1849 1920 1849 
C 1978 1849 1978 1869 1978 1978 
L 1978 2697 
z
" transform="scale(0.015625)"/>
       <path id="CMR17-5d" d="M 915 4767 
L 90 4767 
L 90 4544 
L 691 4544 
L 691 -1377 
L 90 -1377 
L 90 -1600 
L 915 -1600 
L 915 4767 
z
" transform="scale(0.015625)"/>
      </defs>
      <use xlink:href="#CMR17-54" transform="scale(0.996264)"/>
      <use xlink:href="#CMR17-69" transform="translate(66.509881 0) scale(0.996264)"/>
      <use xlink:href="#CMR17-6d" transform="translate(91.380939 0) scale(0.996264)"/>
      <use xlink:href="#CMR17-65" transform="translate(168.300529 0) scale(0.996264)"/>
      <use xlink:href="#CMMI12-74" transform="translate(238.862156 0) scale(0.996264)"/>
      <use xlink:href="#CMR17-5b" transform="translate(304.164452 0) scale(0.996264)"/>
      <use xlink:href="#CMR17-73" transform="translate(329.035511 0) scale(0.996264)"/>
      <use xlink:href="#CMR17-5d" transform="translate(364.836848 0) scale(0.996264)"/>
     </g>
    </g>
   </g>
   <g id="matplotlib.axis_2">
    <g id="ytick_1">
     <g id="line2d_17">
      <path d="M 52.241463 166.817723 
L 349.2 166.817723 
" clip-path="url(#p6fd59ed47b)" style="fill: none; stroke: #b0b0b0; stroke-width: 0.8; stroke-linecap: square"/>
     </g>
     <g id="line2d_18">
      <defs>
       <path id="ma8f5041eb6" d="M 0 0 
L -3.5 0 
" style="stroke: #000000; stroke-width: 0.8"/>
      </defs>
      <g>
       <use xlink:href="#ma8f5041eb6" x="52.241463" y="166.817723" style="stroke: #000000; stroke-width: 0.8"/>
      </g>
     </g>
     <g id="text_10">
      <!-- $\mathdefault{−1.5}$ -->
      <g transform="translate(24.76264 170.276973) scale(0.1 -0.1)">
       <defs>
        <path id="CMSY10-0" d="M 4218 1472 
C 4326 1472 4442 1472 4442 1600 
C 4442 1728 4326 1728 4218 1728 
L 755 1728 
C 646 1728 531 1728 531 1600 
C 531 1472 646 1472 755 1472 
L 4218 1472 
z
" transform="scale(0.015625)"/>
        <path id="CMMI12-3a" d="M 1178 307 
C 1178 492 1024 619 870 619 
C 685 619 557 466 557 313 
C 557 128 710 0 864 0 
C 1050 0 1178 153 1178 307 
z
" transform="scale(0.015625)"/>
       </defs>
       <use xlink:href="#CMSY10-0" transform="scale(0.996264)"/>
       <use xlink:href="#CMR17-31" transform="translate(77.487468 0) scale(0.996264)"/>
       <use xlink:href="#CMMI12-3a" transform="translate(123.177945 0) scale(0.996264)"/>
       <use xlink:href="#CMR17-35" transform="translate(150.275122 0) scale(0.996264)"/>
      </g>
     </g>
    </g>
    <g id="ytick_2">
     <g id="line2d_19">
      <path d="M 52.241463 139.81258 
L 349.2 139.81258 
" clip-path="url(#p6fd59ed47b)" style="fill: none; stroke: #b0b0b0; stroke-width: 0.8; stroke-linecap: square"/>
     </g>
     <g id="line2d_20">
      <g>
       <use xlink:href="#ma8f5041eb6" x="52.241463" y="139.81258" style="stroke: #000000; stroke-width: 0.8"/>
      </g>
     </g>
     <g id="text_11">
      <!-- $\mathdefault{−1.0}$ -->
      <g transform="translate(24.76264 143.27183) scale(0.1 -0.1)">
       <use xlink:href="#CMSY10-0" transform="scale(0.996264)"/>
       <use xlink:href="#CMR17-31" transform="translate(77.487468 0) scale(0.996264)"/>
       <use xlink:href="#CMMI12-3a" transform="translate(123.177945 0) scale(0.996264)"/>
       <use xlink:href="#CMR17-30" transform="translate(150.275122 0) scale(0.996264)"/>
      </g>
     </g>
    </g>
    <g id="ytick_3">
     <g id="line2d_21">
      <path d="M 52.241463 112.807438 
L 349.2 112.807438 
" clip-path="url(#p6fd59ed47b)" style="fill: none; stroke: #b0b0b0; stroke-width: 0.8; stroke-linecap: square"/>
     </g>
     <g id="line2d_22">
      <g>
       <use xlink:href="#ma8f5041eb6" x="52.241463" y="112.807438" style="stroke: #000000; stroke-width: 0.8"/>
      </g>
     </g>
     <g id="text_12">
      <!-- $\mathdefault{−0.5}$ -->
      <g transform="translate(24.76264 116.266687) scale(0.1 -0.1)">
       <use xlink:href="#CMSY10-0" transform="scale(0.996264)"/>
       <use xlink:href="#CMR17-30" transform="translate(77.487468 0) scale(0.996264)"/>
       <use xlink:href="#CMMI12-3a" transform="translate(123.177945 0) scale(0.996264)"/>
       <use xlink:href="#CMR17-35" transform="translate(150.275122 0) scale(0.996264)"/>
      </g>
     </g>
    </g>
    <g id="ytick_4">
     <g id="line2d_23">
      <path d="M 52.241463 85.802295 
L 349.2 85.802295 
" clip-path="url(#p6fd59ed47b)" style="fill: none; stroke: #b0b0b0; stroke-width: 0.8; stroke-linecap: square"/>
     </g>
     <g id="line2d_24">
      <g>
       <use xlink:href="#ma8f5041eb6" x="52.241463" y="85.802295" style="stroke: #000000; stroke-width: 0.8"/>
      </g>
     </g>
     <g id="text_13">
      <!-- $\mathdefault{0.0}$ -->
      <g transform="translate(32.511384 89.261544) scale(0.1 -0.1)">
       <use xlink:href="#CMR17-30" transform="scale(0.996264)"/>
       <use xlink:href="#CMMI12-3a" transform="translate(45.690477 0) scale(0.996264)"/>
       <use xlink:href="#CMR17-30" transform="translate(72.787654 0) scale(0.996264)"/>
      </g>
     </g>
    </g>
    <g id="ytick_5">
     <g id="line2d_25">
      <path d="M 52.241463 58.797152 
L 349.2 58.797152 
" clip-path="url(#p6fd59ed47b)" style="fill: none; stroke: #b0b0b0; stroke-width: 0.8; stroke-linecap: square"/>
     </g>
     <g id="line2d_26">
      <g>
       <use xlink:href="#ma8f5041eb6" x="52.241463" y="58.797152" style="stroke: #000000; stroke-width: 0.8"/>
      </g>
     </g>
     <g id="text_14">
      <!-- $\mathdefault{0.5}$ -->
      <g transform="translate(32.511384 62.256401) scale(0.1 -0.1)">
       <use xlink:href="#CMR17-30" transform="scale(0.996264)"/>
       <use xlink:href="#CMMI12-3a" transform="translate(45.690477 0) scale(0.996264)"/>
       <use xlink:href="#CMR17-35" transform="translate(72.787654 0) scale(0.996264)"/>
      </g>
     </g>
    </g>
    <g id="ytick_6">
     <g id="line2d_27">
      <path d="M 52.241463 31.792009 
L 349.2 31.792009 
" clip-path="url(#p6fd59ed47b)" style="fill: none; stroke: #b0b0b0; stroke-width: 0.8; stroke-linecap: square"/>
     </g>
     <g id="line2d_28">
      <g>
       <use xlink:href="#ma8f5041eb6" x="52.241463" y="31.792009" style="stroke: #000000; stroke-width: 0.8"/>
      </g>
     </g>
     <g id="text_15">
      <!-- $\mathdefault{1.0}$ -->
      <g transform="translate(32.511384 35.251258) scale(0.1 -0.1)">
       <use xlink:href="#CMR17-31" transform="scale(0.996264)"/>
       <use xlink:href="#CMMI12-3a" transform="translate(45.690477 0) scale(0.996264)"/>
       <use xlink:href="#CMR17-30" transform="translate(72.787654 0) scale(0.996264)"/>
      </g>
     </g>
    </g>
    <g id="text_16">
     <!-- Axial force [N] -->
     <g transform="translate(18.27198 124.929842) rotate(-90) scale(0.1 -0.1)">
      <defs>
       <path id="CMR17-41" d="M 2323 4378 
C 2291 4461 2278 4480 2214 4480 
C 2150 4480 2138 4461 2106 4378 
L 749 566 
C 627 223 371 153 147 153 
L 147 -13 
C 262 0 518 0 640 0 
C 800 0 1056 0 1210 -13 
L 1210 153 
C 909 153 864 361 864 439 
C 864 497 877 530 890 569 
L 1229 1536 
L 2906 1536 
L 3290 442 
C 3322 365 3322 352 3322 327 
C 3322 153 3046 153 2925 153 
L 2925 0 
C 3110 0 3443 0 3642 0 
C 3808 0 4128 0 4282 -13 
L 4282 153 
C 3942 153 3827 153 3744 387 
L 2323 4378 
z
M 2067 3893 
L 2848 1702 
L 1286 1702 
L 2067 3893 
z
" transform="scale(0.015625)"/>
       <path id="CMR17-78" d="M 1664 1477 
C 1856 1726 2074 2006 2253 2216 
C 2464 2458 2707 2560 2989 2560 
L 2989 2726 
C 2880 2726 2656 2726 2541 2726 
C 2368 2726 2170 2726 2022 2732 
L 2022 2566 
C 2112 2553 2163 2489 2163 2400 
C 2163 2285 2099 2215 2067 2171 
L 1594 1573 
L 1030 2306 
C 973 2376 973 2388 973 2420 
C 973 2497 1037 2560 1146 2560 
L 1146 2732 
C 992 2726 717 2726 557 2726 
C 384 2726 179 2726 38 2732 
L 38 2560 
C 384 2560 461 2534 614 2343 
L 1350 1395 
C 1363 1382 1395 1344 1395 1325 
C 1395 1299 838 619 768 530 
C 480 185 179 160 6 160 
L 6 0 
C 115 0 339 0 454 0 
C 582 0 864 0 979 -6 
L 979 160 
C 941 166 838 179 838 325 
C 838 440 890 510 947 586 
L 1478 1236 
L 2035 512 
C 2086 442 2163 346 2163 301 
C 2163 211 2086 160 1984 160 
L 1984 -6 
C 2138 0 2413 0 2573 0 
C 2746 0 2950 0 3091 -6 
L 3091 160 
C 2771 160 2675 172 2522 370 
L 1664 1477 
z
" transform="scale(0.015625)"/>
       <path id="CMR17-61" d="M 2304 1653 
C 2304 2072 2304 2294 2035 2543 
C 1798 2752 1523 2816 1306 2816 
C 800 2816 435 2407 435 1971 
C 435 1728 627 1728 666 1728 
C 749 1728 896 1778 896 1954 
C 896 2112 774 2181 666 2181 
C 640 2181 608 2174 589 2168 
C 723 2592 1069 2714 1293 2714 
C 1613 2714 1965 2429 1965 1885 
L 1965 1600 
C 1587 1600 1133 1549 774 1357 
C 371 1133 256 813 256 570 
C 256 77 832 -64 1171 -64 
C 1523 -64 1850 139 1990 511 
C 2003 233 2182 -18 2464 -18 
C 2598 -18 2938 70 2938 567 
L 2938 920 
L 2822 920 
L 2822 562 
C 2822 178 2650 128 2566 128 
C 2304 128 2304 458 2304 738 
L 2304 1653 
z
M 1965 870 
C 1965 317 1568 38 1216 38 
C 896 38 646 275 646 570 
C 646 761 730 1100 1101 1305 
C 1408 1478 1760 1504 1965 1504 
L 1965 870 
z
" transform="scale(0.015625)"/>
       <path id="CMR17-6c" d="M 979 4396 
L 218 4326 
L 218 4160 
C 595 4160 653 4122 653 3817 
L 653 426 
C 653 184 627 153 218 153 
L 218 -13 
C 371 0 653 0 813 0 
C 979 0 1261 0 1414 -13 
L 1414 153 
C 1005 153 979 178 979 426 
L 979 4396 
z
" transform="scale(0.015625)"/>
       <path id="CMR17-66" d="M 979 2560 
L 1709 2560 
L 1709 2725 
L 966 2725 
L 966 3494 
C 966 4022 1235 4352 1510 4352 
C 1594 4352 1690 4327 1754 4282 
C 1702 4269 1568 4225 1568 4067 
C 1568 3901 1696 3850 1786 3850 
C 1875 3850 2003 3901 2003 4067 
C 2003 4308 1773 4454 1517 4454 
C 1152 4454 653 4156 653 3481 
L 653 2725 
L 141 2725 
L 141 2560 
L 653 2560 
L 653 427 
C 653 184 627 153 218 153 
L 218 -13 
C 371 0 666 0 832 0 
C 1018 0 1344 0 1517 -13 
L 1517 153 
C 1056 153 979 153 979 439 
L 979 2560 
z
" transform="scale(0.015625)"/>
       <path id="CMR17-6f" d="M 2758 1356 
C 2758 2176 2163 2816 1466 2816 
C 768 2816 173 2176 173 1356 
C 173 551 768 -64 1466 -64 
C 2163 -64 2758 551 2758 1356 
z
M 1466 51 
C 1165 51 909 230 762 480 
C 602 767 582 1126 582 1408 
C 582 1677 595 2010 762 2298 
C 890 2509 1139 2714 1466 2714 
C 1754 2714 1997 2554 2150 2330 
C 2349 2029 2349 1607 2349 1408 
C 2349 1158 2336 775 2163 467 
C 1984 173 1709 51 1466 51 
z
" transform="scale(0.015625)"/>
       <path id="CMR17-72" d="M 960 1497 
C 960 2112 1222 2688 1702 2688 
C 1747 2688 1792 2682 1837 2662 
C 1837 2662 1696 2617 1696 2452 
C 1696 2298 1818 2234 1914 2234 
C 1990 2234 2131 2279 2131 2458 
C 2131 2663 1926 2790 1709 2790 
C 1222 2790 1011 2317 947 2093 
L 941 2093 
L 941 2790 
L 198 2720 
L 198 2554 
C 576 2554 634 2515 634 2208 
L 634 428 
C 634 184 608 153 198 153 
L 198 -13 
C 352 0 646 0 813 0 
C 998 0 1325 0 1498 -13 
L 1498 153 
C 1037 153 960 153 960 440 
L 960 1497 
z
" transform="scale(0.015625)"/>
       <path id="CMR17-63" d="M 2234 2240 
C 2112 2240 1933 2240 1933 2017 
C 1933 1838 2080 1787 2163 1787 
C 2208 1787 2394 1807 2394 2024 
C 2394 2467 1958 2803 1466 2803 
C 787 2803 211 2178 211 1363 
C 211 516 813 -64 1466 -64 
C 2259 -64 2458 677 2458 748 
C 2458 774 2451 793 2406 793 
C 2362 793 2355 787 2330 703 
C 2163 180 1798 51 1523 51 
C 1114 51 621 427 621 1369 
C 621 2338 1094 2688 1472 2688 
C 1722 2688 2093 2573 2234 2240 
z
" transform="scale(0.015625)"/>
       <path id="CMR17-4e" d="M 1312 4250 
C 1267 4320 1261 4320 1139 4320 
L 326 4320 
L 326 4160 
L 448 4160 
C 704 4160 819 4129 838 4122 
L 838 610 
C 838 451 838 153 326 153 
L 326 -13 
C 474 0 742 0 902 0 
C 1062 0 1331 0 1478 -13 
L 1478 153 
C 966 153 966 451 966 610 
L 966 4033 
C 1011 3995 1011 3982 1056 3919 
L 3430 76 
C 3475 0 3494 0 3526 0 
C 3590 0 3590 19 3590 139 
L 3590 3705 
C 3590 3863 3590 4160 4102 4160 
L 4102 4326 
C 3955 4320 3686 4320 3526 4320 
C 3366 4320 3098 4320 2950 4326 
L 2950 4160 
C 3462 4160 3462 3862 3462 3703 
L 3462 763 
L 1312 4250 
z
" transform="scale(0.015625)"/>
      </defs>
      <use xlink:href="#CMR17-41" transform="scale(0.996264)"/>
      <use xlink:href="#CMR17-78" transform="translate(69.07243 0) scale(0.996264)"/>
      <use xlink:href="#CMR17-69" transform="translate(117.365346 0) scale(0.996264)"/>
      <use xlink:href="#CMR17-61" transform="translate(142.236404 0) scale(0.996264)"/>
      <use xlink:href="#CMR17-6c" transform="translate(187.926881 0) scale(0.996264)"/>
      <use xlink:href="#CMR17-66" transform="translate(242.873906 0) scale(0.996264)"/>
      <use xlink:href="#CMR17-6f" transform="translate(270.347418 0) scale(0.996264)"/>
      <use xlink:href="#CMR17-72" transform="translate(316.037896 0) scale(0.996264)"/>
      <use xlink:href="#CMR17-63" transform="translate(351.318663 0) scale(0.996264)"/>
      <use xlink:href="#CMR17-65" transform="translate(391.804324 0) scale(0.996264)"/>
      <use xlink:href="#CMR17-5b" transform="translate(462.365951 0) scale(0.996264)"/>
      <use xlink:href="#CMR17-4e" transform="translate(487.237009 0) scale(0.996264)"/>
      <use xlink:href="#CMR17-5d" transform="translate(556.309439 0) scale(0.996264)"/>
     </g>
    </g>
   </g>
   <g id="line2d_29">
    <path d="M 65.739578 43.966594 
L 104.305622 43.966594 
L 104.459886 59.735038 
L 142.871666 59.735038 
L 143.02593 102.750745 
L 181.43771 102.750745 
L 181.591974 38.374977 
L 220.003753 38.374977 
L 220.158017 109.523984 
L 258.569797 109.523984 
L 258.724061 92.445896 
L 297.135841 92.445896 
L 297.290105 78.409109 
L 335.701885 78.409109 
L 335.701885 78.409109 
" clip-path="url(#p6fd59ed47b)" style="fill: none; stroke: #1f77b4; stroke-width: 1.5; stroke-linecap: square"/>
    <defs>
     <path id="m986275d967" d="M 0 2.5 
C 0.663008 2.5 1.29895 2.236584 1.767767 1.767767 
C 2.236584 1.29895 2.5 0.663008 2.5 0 
C 2.5 -0.663008 2.236584 -1.29895 1.767767 -1.767767 
C 1.29895 -2.236584 0.663008 -2.5 0 -2.5 
C -0.663008 -2.5 -1.29895 -2.236584 -1.767767 -1.767767 
C -2.236584 -1.29895 -2.5 -0.663008 -2.5 0 
C -2.5 0.663008 -2.236584 1.29895 -1.767767 1.767767 
C -1.29895 2.236584 -0.663008 2.5 0 2.5 
z
" style="stroke: #1f77b4"/>
    </defs>
    <g clip-path="url(#p6fd59ed47b)">
     <use xlink:href="#m986275d967" x="65.739578" y="43.966594" style="fill: #1f77b4; stroke: #1f77b4"/>
     <use xlink:href="#m986275d967" x="73.452787" y="43.966594" style="fill: #1f77b4; stroke: #1f77b4"/>
     <use xlink:href="#m986275d967" x="81.165996" y="43.966594" style="fill: #1f77b4; stroke: #1f77b4"/>
     <use xlink:href="#m986275d967" x="88.879204" y="43.966594" style="fill: #1f77b4; stroke: #1f77b4"/>
     <use xlink:href="#m986275d967" x="96.592413" y="43.966594" style="fill: #1f77b4; stroke: #1f77b4"/>
     <use xlink:href="#m986275d967" x="104.305622" y="43.966594" style="fill: #1f77b4; stroke: #1f77b4"/>
     <use xlink:href="#m986275d967" x="112.018831" y="59.735038" style="fill: #1f77b4; stroke: #1f77b4"/>
     <use xlink:href="#m986275d967" x="119.732039" y="59.735038" style="fill: #1f77b4; stroke: #1f77b4"/>
     <use xlink:href="#m986275d967" x="127.445248" y="59.735038" style="fill: #1f77b4; stroke: #1f77b4"/>
     <use xlink:href="#m986275d967" x="135.158457" y="59.735038" style="fill: #1f77b4; stroke: #1f77b4"/>
     <use xlink:href="#m986275d967" x="142.871666" y="59.735038" style="fill: #1f77b4; stroke: #1f77b4"/>
     <use xlink:href="#m986275d967" x="150.584874" y="102.750745" style="fill: #1f77b4; stroke: #1f77b4"/>
     <use xlink:href="#m986275d967" x="158.298083" y="102.750745" style="fill: #1f77b4; stroke: #1f77b4"/>
     <use xlink:href="#m986275d967" x="166.011292" y="102.750745" style="fill: #1f77b4; stroke: #1f77b4"/>
     <use xlink:href="#m986275d967" x="173.724501" y="102.750745" style="fill: #1f77b4; stroke: #1f77b4"/>
     <use xlink:href="#m986275d967" x="181.43771" y="102.750745" style="fill: #1f77b4; stroke: #1f77b4"/>
     <use xlink:href="#m986275d967" x="189.150918" y="38.374977" style="fill: #1f77b4; stroke: #1f77b4"/>
     <use xlink:href="#m986275d967" x="196.864127" y="38.374977" style="fill: #1f77b4; stroke: #1f77b4"/>
     <use xlink:href="#m986275d967" x="204.577336" y="38.374977" style="fill: #1f77b4; stroke: #1f77b4"/>
     <use xlink:href="#m986275d967" x="212.290545" y="38.374977" style="fill: #1f77b4; stroke: #1f77b4"/>
     <use xlink:href="#m986275d967" x="220.003753" y="38.374977" style="fill: #1f77b4; stroke: #1f77b4"/>
     <use xlink:href="#m986275d967" x="227.716962" y="109.523984" style="fill: #1f77b4; stroke: #1f77b4"/>
     <use xlink:href="#m986275d967" x="235.430171" y="109.523984" style="fill: #1f77b4; stroke: #1f77b4"/>
     <use xlink:href="#m986275d967" x="243.14338" y="109.523984" style="fill: #1f77b4; stroke: #1f77b4"/>
     <use xlink:href="#m986275d967" x="250.856588" y="109.523984" style="fill: #1f77b4; stroke: #1f77b4"/>
     <use xlink:href="#m986275d967" x="258.569797" y="109.523984" style="fill: #1f77b4; stroke: #1f77b4"/>
     <use xlink:href="#m986275d967" x="266.283006" y="92.445896" style="fill: #1f77b4; stroke: #1f77b4"/>
     <use xlink:href="#m986275d967" x="273.996215" y="92.445896" style="fill: #1f77b4; stroke: #1f77b4"/>
     <use xlink:href="#m986275d967" x="281.709423" y="92.445896" style="fill: #1f77b4; stroke: #1f77b4"/>
     <use xlink:href="#m986275d967" x="289.422632" y="92.445896" style="fill: #1f77b4; stroke: #1f77b4"/>
     <use xlink:href="#m986275d967" x="297.135841" y="92.445896" style="fill: #1f77b4; stroke: #1f77b4"/>
     <use xlink:href="#m986275d967" x="304.84905" y="78.409109" style="fill: #1f77b4; stroke: #1f77b4"/>
     <use xlink:href="#m986275d967" x="312.562258" y="78.409109" style="fill: #1f77b4; stroke: #1f77b4"/>
     <use xlink:href="#m986275d967" x="320.275467" y="78.409109" style="fill: #1f77b4; stroke: #1f77b4"/>
     <use xlink:href="#m986275d967" x="327.988676" y="78.409109" style="fill: #1f77b4; stroke: #1f77b4"/>
     <use xlink:href="#m986275d967" x="335.701885" y="78.409109" style="fill: #1f77b4; stroke: #1f77b4"/>
    </g>
   </g>
   <g id="line2d_30">
    <path d="M 65.739578 137.0446 
L 104.305622 137.0446 
L 104.459886 43.347468 
L 142.871666 43.347468 
L 143.02593 108.616639 
L 181.43771 108.616639 
L 181.591974 53.108464 
L 220.003753 53.108464 
L 220.158017 87.871088 
L 258.569797 87.871088 
L 258.724061 62.027475 
L 297.135841 62.027475 
L 297.290105 97.303646 
L 335.701885 97.303646 
L 335.701885 97.303646 
" clip-path="url(#p6fd59ed47b)" style="fill: none; stroke: #ff7f0e; stroke-width: 1.5; stroke-linecap: square"/>
    <defs>
     <path id="mee0674f125" d="M 0 2.5 
C 0.663008 2.5 1.29895 2.236584 1.767767 1.767767 
C 2.236584 1.29895 2.5 0.663008 2.5 0 
C 2.5 -0.663008 2.236584 -1.29895 1.767767 -1.767767 
C 1.29895 -2.236584 0.663008 -2.5 0 -2.5 
C -0.663008 -2.5 -1.29895 -2.236584 -1.767767 -1.767767 
C -2.236584 -1.29895 -2.5 -0.663008 -2.5 0 
C -2.5 0.663008 -2.236584 1.29895 -1.767767 1.767767 
C -1.29895 2.236584 -0.663008 2.5 0 2.5 
z
" style="stroke: #ff7f0e"/>
    </defs>
    <g clip-path="url(#p6fd59ed47b)">
     <use xlink:href="#mee0674f125" x="65.739578" y="137.0446" style="fill: #ff7f0e; stroke: #ff7f0e"/>
     <use xlink:href="#mee0674f125" x="73.452787" y="137.0446" style="fill: #ff7f0e; stroke: #ff7f0e"/>
     <use xlink:href="#mee0674f125" x="81.165996" y="137.0446" style="fill: #ff7f0e; stroke: #ff7f0e"/>
     <use xlink:href="#mee0674f125" x="88.879204" y="137.0446" style="fill: #ff7f0e; stroke: #ff7f0e"/>
     <use xlink:href="#mee0674f125" x="96.592413" y="137.0446" style="fill: #ff7f0e; stroke: #ff7f0e"/>
     <use xlink:href="#mee0674f125" x="104.305622" y="137.0446" style="fill: #ff7f0e; stroke: #ff7f0e"/>
     <use xlink:href="#mee0674f125" x="112.018831" y="43.347468" style="fill: #ff7f0e; stroke: #ff7f0e"/>
     <use xlink:href="#mee0674f125" x="119.732039" y="43.347468" style="fill: #ff7f0e; stroke: #ff7f0e"/>
     <use xlink:href="#mee0674f125" x="127.445248" y="43.347468" style="fill: #ff7f0e; stroke: #ff7f0e"/>
     <use xlink:href="#mee0674f125" x="135.158457" y="43.347468" style="fill: #ff7f0e; stroke: #ff7f0e"/>
     <use xlink:href="#mee0674f125" x="142.871666" y="43.347468" style="fill: #ff7f0e; stroke: #ff7f0e"/>
     <use xlink:href="#mee0674f125" x="150.584874" y="108.616639" style="fill: #ff7f0e; stroke: #ff7f0e"/>
     <use xlink:href="#mee0674f125" x="158.298083" y="108.616639" style="fill: #ff7f0e; stroke: #ff7f0e"/>
     <use xlink:href="#mee0674f125" x="166.011292" y="108.616639" style="fill: #ff7f0e; stroke: #ff7f0e"/>
     <use xlink:href="#mee0674f125" x="173.724501" y="108.616639" style="fill: #ff7f0e; stroke: #ff7f0e"/>
     <use xlink:href="#mee0674f125" x="181.43771" y="108.616639" style="fill: #ff7f0e; stroke: #ff7f0e"/>
     <use xlink:href="#mee0674f125" x="189.150918" y="53.108464" style="fill: #ff7f0e; stroke: #ff7f0e"/>
     <use xlink:href="#mee0674f125" x="196.864127" y="53.108464" style="fill: #ff7f0e; stroke: #ff7f0e"/>
     <use xlink:href="#mee0674f125" x="204.577336" y="53.108464" style="fill: #ff7f0e; stroke: #ff7f0e"/>
     <use xlink:href="#mee0674f125" x="212.290545" y="53.108464" style="fill: #ff7f0e; stroke: #ff7f0e"/>
     <use xlink:href="#mee0674f125" x="220.003753" y="53.108464" style="fill: #ff7f0e; stroke: #ff7f0e"/>
     <use xlink:href="#mee0674f125" x="227.716962" y="87.871088" style="fill: #ff7f0e; stroke: #ff7f0e"/>
     <use xlink:href="#mee0674f125" x="235.430171" y="87.871088" style="fill: #ff7f0e; stroke: #ff7f0e"/>
     <use xlink:href="#mee0674f125" x="243.14338" y="87.871088" style="fill: #ff7f0e; stroke: #ff7f0e"/>
     <use xlink:href="#mee0674f125" x="250.856588" y="87.871088" style="fill: #ff7f0e; stroke: #ff7f0e"/>
     <use xlink:href="#mee0674f125" x="258.569797" y="87.871088" style="fill: #ff7f0e; stroke: #ff7f0e"/>
     <use xlink:href="#mee0674f125" x="266.283006" y="62.027475" style="fill: #ff7f0e; stroke: #ff7f0e"/>
     <use xlink:href="#mee0674f125" x="273.996215" y="62.027475" style="fill: #ff7f0e; stroke: #ff7f0e"/>
     <use xlink:href="#mee0674f125" x="281.709423" y="62.027475" style="fill: #ff7f0e; stroke: #ff7f0e"/>
     <use xlink:href="#mee0674f125" x="289.422632" y="62.027475" style="fill: #ff7f0e; stroke: #ff7f0e"/>
     <use xlink:href="#mee0674f125" x="297.135841" y="62.027475" style="fill: #ff7f0e; stroke: #ff7f0e"/>
     <use xlink:href="#mee0674f125" x="304.84905" y="97.303646" style="fill: #ff7f0e; stroke: #ff7f0e"/>
     <use xlink:href="#mee0674f125" x="312.562258" y="97.303646" style="fill: #ff7f0e; stroke: #ff7f0e"/>
     <use xlink:href="#mee0674f125" x="320.275467" y="97.303646" style="fill: #ff7f0e; stroke: #ff7f0e"/>
     <use xlink:href="#mee0674f125" x="327.988676" y="97.303646" style="fill: #ff7f0e; stroke: #ff7f0e"/>
     <use xlink:href="#mee0674f125" x="335.701885" y="97.303646" style="fill: #ff7f0e; stroke: #ff7f0e"/>
    </g>
   </g>
   <g id="line2d_31">
    <path d="M 65.739578 60.116687 
L 65.81671 122.089104 
L 65.893842 114.875245 
L 66.202371 96.328345 
L 66.510899 88.447567 
L 66.819427 85.112688 
L 67.127956 83.678874 
L 67.513616 82.945586 
L 67.976409 82.610119 
L 68.824862 82.36188 
L 71.061692 81.999503 
L 80.240411 80.982994 
L 82.785769 80.772641 
L 84.868336 80.621005 
L 88.493544 80.387525 
L 92.890073 80.155442 
L 100.91181 79.849399 
L 104.305622 79.751693 
L 104.382754 116.01512 
L 104.459886 112.310041 
L 104.845547 92.523261 
L 105.154075 87.243615 
L 105.462603 85.231012 
L 105.771132 84.478724 
L 106.156792 84.165222 
L 106.773849 84.036576 
L 107.313773 83.971263 
L 111.016114 83.52624 
L 115.489775 83.18867 
L 115.798303 83.098508 
L 117.263813 83.130169 
L 118.729322 82.95146 
L 120.040568 82.862866 
L 120.580492 82.849324 
L 121.506077 82.815919 
L 122.200266 82.764958 
L 123.048719 82.733086 
L 123.82004 82.695976 
L 124.591361 82.650453 
L 125.362682 82.629833 
L 126.211135 82.563988 
L 128.139437 82.500412 
L 129.759211 82.450484 
L 132.921626 82.341895 
L 136.546835 82.228037 
L 141.56042 82.118177 
L 142.871666 82.093937 
L 142.948798 77.676075 
L 143.02593 79.532708 
L 143.334458 83.83036 
L 143.642987 85.614096 
L 143.951515 86.35577 
L 144.337175 86.713845 
L 144.8771 86.871585 
L 146.651138 87.009693 
L 153.130233 87.353537 
L 161.229103 87.648398 
L 170.022161 87.853834 
L 181.43771 88.012748 
L 181.514842 131.302748 
L 181.591974 124.099997 
L 181.977634 95.752479 
L 182.286162 87.726548 
L 182.594691 84.523365 
L 182.903219 83.245183 
L 183.211748 82.725766 
L 183.67454 82.428916 
L 184.677257 82.174965 
L 187.608277 81.593859 
L 189.690843 81.34111 
L 192.54473 80.919268 
L 192.930391 80.811103 
L 194.935825 80.643869 
L 196.169938 80.533154 
L 196.709863 80.470108 
L 197.866844 80.350087 
L 198.406769 80.29459 
L 199.332354 80.190084 
L 200.026543 80.133586 
L 200.797863 80.055466 
L 201.569184 79.995174 
L 202.340505 79.937941 
L 203.188958 79.85326 
L 204.885864 79.728717 
L 208.896733 79.489982 
L 211.904884 79.332899 
L 220.003753 79.022694 
L 220.080885 73.851533 
L 220.312282 80.538561 
L 220.62081 84.417144 
L 220.929338 86.148305 
L 221.237867 86.905316 
L 221.623527 87.300446 
L 222.163452 87.498375 
L 223.243301 87.602859 
L 223.474697 87.573468 
L 224.785943 87.753342 
L 229.10534 88.097623 
L 229.645264 88.119029 
L 231.419302 88.253266 
L 232.422019 88.335703 
L 233.116208 88.361111 
L 235.275907 88.457513 
L 237.589869 88.58729 
L 240.058096 88.686271 
L 243.606172 88.801242 
L 258.569797 89.139501 
L 258.646929 89.434091 
L 258.724061 90.719505 
L 259.186854 86.992808 
L 259.495382 86.499311 
L 259.881043 86.394455 
L 269.368289 86.606776 
L 269.831082 86.561572 
L 271.296592 86.669443 
L 272.916365 86.66226 
L 273.379158 86.693547 
L 274.690403 86.690288 
L 275.230328 86.68447 
L 276.155913 86.680911 
L 276.850102 86.683978 
L 277.621423 86.685582 
L 278.469876 86.679433 
L 279.318329 86.715333 
L 282.480744 86.72434 
L 284.871839 86.727869 
L 287.340066 86.728373 
L 295.438935 86.761292 
L 297.135841 86.763969 
L 297.212973 99.506752 
L 297.290105 98.567412 
L 297.675765 89.14578 
L 297.984294 86.818232 
L 298.292822 85.934871 
L 298.601351 85.60321 
L 299.064143 85.45242 
L 300.838181 85.322649 
L 303.614936 85.199194 
L 307.625805 85.161104 
L 309.322711 85.118028 
L 309.785503 85.130503 
L 311.096749 85.038996 
L 313.873504 85.002187 
L 314.567693 84.981404 
L 315.416146 84.970168 
L 316.187467 84.968118 
L 316.958787 84.937569 
L 317.884372 84.952685 
L 335.701885 84.748996 
L 335.701885 84.748996 
" clip-path="url(#p6fd59ed47b)" style="fill: none; stroke: #1f77b4; stroke-width: 1.5; stroke-linecap: square"/>
    <defs>
     <path id="m55a3c6bf0d" d="M -0 2.5 
L 2.5 -2.5 
L -2.5 -2.5 
z
" style="stroke: #1f77b4; stroke-linejoin: miter"/>
    </defs>
    <g clip-path="url(#p6fd59ed47b)">
     <use xlink:href="#m55a3c6bf0d" x="65.739578" y="60.116687" style="fill: #1f77b4; stroke: #1f77b4; stroke-linejoin: miter"/>
     <use xlink:href="#m55a3c6bf0d" x="73.452787" y="81.737355" style="fill: #1f77b4; stroke: #1f77b4; stroke-linejoin: miter"/>
     <use xlink:href="#m55a3c6bf0d" x="81.165996" y="80.910676" style="fill: #1f77b4; stroke: #1f77b4; stroke-linejoin: miter"/>
     <use xlink:href="#m55a3c6bf0d" x="88.879204" y="80.361531" style="fill: #1f77b4; stroke: #1f77b4; stroke-linejoin: miter"/>
     <use xlink:href="#m55a3c6bf0d" x="96.592413" y="80.000286" style="fill: #1f77b4; stroke: #1f77b4; stroke-linejoin: miter"/>
     <use xlink:href="#m55a3c6bf0d" x="104.305622" y="79.751693" style="fill: #1f77b4; stroke: #1f77b4; stroke-linejoin: miter"/>
     <use xlink:href="#m55a3c6bf0d" x="112.018831" y="83.46592" style="fill: #1f77b4; stroke: #1f77b4; stroke-linejoin: miter"/>
     <use xlink:href="#m55a3c6bf0d" x="119.732039" y="82.93945" style="fill: #1f77b4; stroke: #1f77b4; stroke-linejoin: miter"/>
     <use xlink:href="#m55a3c6bf0d" x="127.445248" y="82.530032" style="fill: #1f77b4; stroke: #1f77b4; stroke-linejoin: miter"/>
     <use xlink:href="#m55a3c6bf0d" x="135.158457" y="82.265228" style="fill: #1f77b4; stroke: #1f77b4; stroke-linejoin: miter"/>
     <use xlink:href="#m55a3c6bf0d" x="142.871666" y="82.093937" style="fill: #1f77b4; stroke: #1f77b4; stroke-linejoin: miter"/>
     <use xlink:href="#m55a3c6bf0d" x="150.584874" y="87.234822" style="fill: #1f77b4; stroke: #1f77b4; stroke-linejoin: miter"/>
     <use xlink:href="#m55a3c6bf0d" x="158.298083" y="87.556495" style="fill: #1f77b4; stroke: #1f77b4; stroke-linejoin: miter"/>
     <use xlink:href="#m55a3c6bf0d" x="166.011292" y="87.77226" style="fill: #1f77b4; stroke: #1f77b4; stroke-linejoin: miter"/>
     <use xlink:href="#m55a3c6bf0d" x="173.724501" y="87.915361" style="fill: #1f77b4; stroke: #1f77b4; stroke-linejoin: miter"/>
     <use xlink:href="#m55a3c6bf0d" x="181.43771" y="88.012748" style="fill: #1f77b4; stroke: #1f77b4; stroke-linejoin: miter"/>
     <use xlink:href="#m55a3c6bf0d" x="189.150918" y="81.384155" style="fill: #1f77b4; stroke: #1f77b4; stroke-linejoin: miter"/>
     <use xlink:href="#m55a3c6bf0d" x="196.864127" y="80.439122" style="fill: #1f77b4; stroke: #1f77b4; stroke-linejoin: miter"/>
     <use xlink:href="#m55a3c6bf0d" x="204.577336" y="79.759087" style="fill: #1f77b4; stroke: #1f77b4; stroke-linejoin: miter"/>
     <use xlink:href="#m55a3c6bf0d" x="212.290545" y="79.322308" style="fill: #1f77b4; stroke: #1f77b4; stroke-linejoin: miter"/>
     <use xlink:href="#m55a3c6bf0d" x="220.003753" y="79.022694" style="fill: #1f77b4; stroke: #1f77b4; stroke-linejoin: miter"/>
     <use xlink:href="#m55a3c6bf0d" x="227.716962" y="88.061532" style="fill: #1f77b4; stroke: #1f77b4; stroke-linejoin: miter"/>
     <use xlink:href="#m55a3c6bf0d" x="235.430171" y="88.473539" style="fill: #1f77b4; stroke: #1f77b4; stroke-linejoin: miter"/>
     <use xlink:href="#m55a3c6bf0d" x="243.14338" y="88.795267" style="fill: #1f77b4; stroke: #1f77b4; stroke-linejoin: miter"/>
     <use xlink:href="#m55a3c6bf0d" x="250.856588" y="88.996748" style="fill: #1f77b4; stroke: #1f77b4; stroke-linejoin: miter"/>
     <use xlink:href="#m55a3c6bf0d" x="258.569797" y="89.139501" style="fill: #1f77b4; stroke: #1f77b4; stroke-linejoin: miter"/>
     <use xlink:href="#m55a3c6bf0d" x="266.283006" y="86.585016" style="fill: #1f77b4; stroke: #1f77b4; stroke-linejoin: miter"/>
     <use xlink:href="#m55a3c6bf0d" x="273.996215" y="86.61264" style="fill: #1f77b4; stroke: #1f77b4; stroke-linejoin: miter"/>
     <use xlink:href="#m55a3c6bf0d" x="281.709423" y="86.695659" style="fill: #1f77b4; stroke: #1f77b4; stroke-linejoin: miter"/>
     <use xlink:href="#m55a3c6bf0d" x="289.422632" y="86.74878" style="fill: #1f77b4; stroke: #1f77b4; stroke-linejoin: miter"/>
     <use xlink:href="#m55a3c6bf0d" x="297.135841" y="86.763969" style="fill: #1f77b4; stroke: #1f77b4; stroke-linejoin: miter"/>
     <use xlink:href="#m55a3c6bf0d" x="304.84905" y="85.205038" style="fill: #1f77b4; stroke: #1f77b4; stroke-linejoin: miter"/>
     <use xlink:href="#m55a3c6bf0d" x="312.562258" y="84.987807" style="fill: #1f77b4; stroke: #1f77b4; stroke-linejoin: miter"/>
     <use xlink:href="#m55a3c6bf0d" x="320.275467" y="84.888582" style="fill: #1f77b4; stroke: #1f77b4; stroke-linejoin: miter"/>
     <use xlink:href="#m55a3c6bf0d" x="327.988676" y="84.813433" style="fill: #1f77b4; stroke: #1f77b4; stroke-linejoin: miter"/>
     <use xlink:href="#m55a3c6bf0d" x="335.701885" y="84.748996" style="fill: #1f77b4; stroke: #1f77b4; stroke-linejoin: miter"/>
    </g>
   </g>
   <g id="line2d_32">
    <path d="M 65.739578 116.658393 
L 65.81671 51.638276 
L 65.893842 58.988386 
L 66.202371 76.287192 
L 66.510899 84.040308 
L 66.819427 87.57722 
L 67.127956 89.206658 
L 67.513616 90.096202 
L 67.976409 90.5218 
L 68.670597 90.780853 
L 71.910145 91.463393 
L 75.612485 92.121494 
L 85.948185 93.35801 
L 93.50713 93.903429 
L 102.531584 94.317104 
L 104.305622 94.376911 
L 104.382754 123.996093 
L 104.459886 119.034151 
L 104.845547 95.633739 
L 105.154075 88.171643 
L 105.462603 84.88604 
L 105.771132 83.414857 
L 106.156792 82.645304 
L 106.619585 82.29856 
L 107.54517 82.020085 
L 110.784717 81.299293 
L 116.80102 80.425307 
L 124.359965 79.601025 
L 134.695664 78.916197 
L 142.871666 78.590202 
L 142.948798 71.271207 
L 143.02593 74.312648 
L 143.334458 81.75515 
L 143.642987 85.086689 
L 143.951515 86.586144 
L 144.337175 87.37356 
L 144.722836 87.683995 
L 145.339893 87.866347 
L 147.576723 88.132328 
L 153.130233 88.594595 
L 161.306235 89.062623 
L 170.716349 89.393757 
L 181.43771 89.611321 
L 181.514842 116.608645 
L 181.591974 112.86209 
L 181.977634 94.051218 
L 182.286162 87.963964 
L 182.594691 85.290539 
L 182.903219 84.097603 
L 183.28888 83.47571 
L 183.751672 83.196242 
L 184.831521 82.936382 
L 187.993937 82.366417 
L 194.935825 81.595314 
L 200.566467 81.120162 
L 206.19711 80.766429 
L 216.070017 80.35845 
L 220.003753 80.248166 
L 220.158017 87.788366 
L 220.312282 87.438614 
L 220.62081 86.771557 
L 221.00647 86.434024 
L 221.623527 86.212309 
L 223.011905 86.029722 
L 224.400282 86.02027 
L 229.645264 86.145914 
L 237.358473 86.180258 
L 258.569797 86.217059 
L 258.646929 108.349142 
L 258.724061 105.896066 
L 259.109722 92.108207 
L 259.41825 87.596713 
L 259.726778 85.585315 
L 260.112439 84.529813 
L 260.498099 84.119193 
L 261.038024 83.89647 
L 263.429119 83.430787 
L 265.665949 83.210854 
L 269.136893 82.91321 
L 271.296592 82.733435 
L 281.246631 82.11822 
L 297.135841 81.62959 
L 297.212973 82.599402 
L 297.367237 85.974584 
L 298.138558 86.889841 
L 298.601351 87.112216 
L 299.526936 87.239167 
L 301.455238 87.227278 
L 303.075012 87.22913 
L 317.575844 87.549037 
L 335.701885 87.667721 
L 335.701885 87.667721 
" clip-path="url(#p6fd59ed47b)" style="fill: none; stroke: #ff7f0e; stroke-width: 1.5; stroke-linecap: square"/>
    <defs>
     <path id="m8c1c96a6d9" d="M -0 2.5 
L 2.5 -2.5 
L -2.5 -2.5 
z
" style="stroke: #ff7f0e; stroke-linejoin: miter"/>
    </defs>
    <g clip-path="url(#p6fd59ed47b)">
     <use xlink:href="#m8c1c96a6d9" x="65.739578" y="116.658393" style="fill: #ff7f0e; stroke: #ff7f0e; stroke-linejoin: miter"/>
     <use xlink:href="#m8c1c96a6d9" x="73.452787" y="91.785343" style="fill: #ff7f0e; stroke: #ff7f0e; stroke-linejoin: miter"/>
     <use xlink:href="#m8c1c96a6d9" x="81.165996" y="92.876291" style="fill: #ff7f0e; stroke: #ff7f0e; stroke-linejoin: miter"/>
     <use xlink:href="#m8c1c96a6d9" x="88.879204" y="93.59678" style="fill: #ff7f0e; stroke: #ff7f0e; stroke-linejoin: miter"/>
     <use xlink:href="#m8c1c96a6d9" x="96.592413" y="94.068491" style="fill: #ff7f0e; stroke: #ff7f0e; stroke-linejoin: miter"/>
     <use xlink:href="#m8c1c96a6d9" x="104.305622" y="94.376911" style="fill: #ff7f0e; stroke: #ff7f0e; stroke-linejoin: miter"/>
     <use xlink:href="#m8c1c96a6d9" x="112.018831" y="81.122666" style="fill: #ff7f0e; stroke: #ff7f0e; stroke-linejoin: miter"/>
     <use xlink:href="#m8c1c96a6d9" x="119.732039" y="80.062083" style="fill: #ff7f0e; stroke: #ff7f0e; stroke-linejoin: miter"/>
     <use xlink:href="#m8c1c96a6d9" x="127.445248" y="79.355724" style="fill: #ff7f0e; stroke: #ff7f0e; stroke-linejoin: miter"/>
     <use xlink:href="#m8c1c96a6d9" x="135.158457" y="78.893499" style="fill: #ff7f0e; stroke: #ff7f0e; stroke-linejoin: miter"/>
     <use xlink:href="#m8c1c96a6d9" x="142.871666" y="78.590202" style="fill: #ff7f0e; stroke: #ff7f0e; stroke-linejoin: miter"/>
     <use xlink:href="#m8c1c96a6d9" x="150.584874" y="88.400904" style="fill: #ff7f0e; stroke: #ff7f0e; stroke-linejoin: miter"/>
     <use xlink:href="#m8c1c96a6d9" x="158.298083" y="88.914759" style="fill: #ff7f0e; stroke: #ff7f0e; stroke-linejoin: miter"/>
     <use xlink:href="#m8c1c96a6d9" x="166.011292" y="89.249785" style="fill: #ff7f0e; stroke: #ff7f0e; stroke-linejoin: miter"/>
     <use xlink:href="#m8c1c96a6d9" x="173.724501" y="89.468222" style="fill: #ff7f0e; stroke: #ff7f0e; stroke-linejoin: miter"/>
     <use xlink:href="#m8c1c96a6d9" x="181.43771" y="89.611321" style="fill: #ff7f0e; stroke: #ff7f0e; stroke-linejoin: miter"/>
     <use xlink:href="#m8c1c96a6d9" x="189.150918" y="82.246435" style="fill: #ff7f0e; stroke: #ff7f0e; stroke-linejoin: miter"/>
     <use xlink:href="#m8c1c96a6d9" x="196.864127" y="81.413945" style="fill: #ff7f0e; stroke: #ff7f0e; stroke-linejoin: miter"/>
     <use xlink:href="#m8c1c96a6d9" x="204.577336" y="80.855765" style="fill: #ff7f0e; stroke: #ff7f0e; stroke-linejoin: miter"/>
     <use xlink:href="#m8c1c96a6d9" x="212.290545" y="80.488012" style="fill: #ff7f0e; stroke: #ff7f0e; stroke-linejoin: miter"/>
     <use xlink:href="#m8c1c96a6d9" x="220.003753" y="80.248166" style="fill: #ff7f0e; stroke: #ff7f0e; stroke-linejoin: miter"/>
     <use xlink:href="#m8c1c96a6d9" x="227.716962" y="86.185046" style="fill: #ff7f0e; stroke: #ff7f0e; stroke-linejoin: miter"/>
     <use xlink:href="#m8c1c96a6d9" x="235.430171" y="86.182526" style="fill: #ff7f0e; stroke: #ff7f0e; stroke-linejoin: miter"/>
     <use xlink:href="#m8c1c96a6d9" x="243.14338" y="86.196102" style="fill: #ff7f0e; stroke: #ff7f0e; stroke-linejoin: miter"/>
     <use xlink:href="#m8c1c96a6d9" x="250.856588" y="86.209511" style="fill: #ff7f0e; stroke: #ff7f0e; stroke-linejoin: miter"/>
     <use xlink:href="#m8c1c96a6d9" x="258.569797" y="86.217059" style="fill: #ff7f0e; stroke: #ff7f0e; stroke-linejoin: miter"/>
     <use xlink:href="#m8c1c96a6d9" x="266.283006" y="83.177442" style="fill: #ff7f0e; stroke: #ff7f0e; stroke-linejoin: miter"/>
     <use xlink:href="#m8c1c96a6d9" x="273.996215" y="82.534818" style="fill: #ff7f0e; stroke: #ff7f0e; stroke-linejoin: miter"/>
     <use xlink:href="#m8c1c96a6d9" x="281.709423" y="82.099158" style="fill: #ff7f0e; stroke: #ff7f0e; stroke-linejoin: miter"/>
     <use xlink:href="#m8c1c96a6d9" x="289.422632" y="81.813701" style="fill: #ff7f0e; stroke: #ff7f0e; stroke-linejoin: miter"/>
     <use xlink:href="#m8c1c96a6d9" x="297.135841" y="81.62959" style="fill: #ff7f0e; stroke: #ff7f0e; stroke-linejoin: miter"/>
     <use xlink:href="#m8c1c96a6d9" x="304.84905" y="87.341687" style="fill: #ff7f0e; stroke: #ff7f0e; stroke-linejoin: miter"/>
     <use xlink:href="#m8c1c96a6d9" x="312.562258" y="87.49222" style="fill: #ff7f0e; stroke: #ff7f0e; stroke-linejoin: miter"/>
     <use xlink:href="#m8c1c96a6d9" x="320.275467" y="87.575738" style="fill: #ff7f0e; stroke: #ff7f0e; stroke-linejoin: miter"/>
     <use xlink:href="#m8c1c96a6d9" x="327.988676" y="87.630565" style="fill: #ff7f0e; stroke: #ff7f0e; stroke-linejoin: miter"/>
     <use xlink:href="#m8c1c96a6d9" x="335.701885" y="87.667721" style="fill: #ff7f0e; stroke: #ff7f0e; stroke-linejoin: miter"/>
    </g>
   </g>
   <g id="line2d_33">
    <path d="M 65.739578 18.280986 
L 65.81671 80.253403 
L 65.893842 73.039544 
L 66.202371 54.492644 
L 66.510899 46.611866 
L 66.819427 43.276987 
L 67.127956 41.843173 
L 67.513616 41.109885 
L 67.976409 40.774418 
L 68.824862 40.526179 
L 71.061692 40.163802 
L 80.240411 39.147293 
L 82.785769 38.93694 
L 84.868336 38.785304 
L 88.493544 38.551824 
L 92.890073 38.319741 
L 100.91181 38.013698 
L 104.305622 37.915992 
L 104.382754 89.947863 
L 104.459886 86.242784 
L 104.845547 66.456004 
L 105.154075 61.176359 
L 105.462603 59.163755 
L 105.771132 58.411467 
L 106.156792 58.097965 
L 106.773849 57.969319 
L 107.313773 57.904006 
L 111.016114 57.458983 
L 115.489775 57.121413 
L 115.798303 57.031251 
L 117.263813 57.062912 
L 118.729322 56.884203 
L 120.040568 56.795609 
L 120.580492 56.782067 
L 121.506077 56.748662 
L 122.200266 56.697701 
L 123.048719 56.665829 
L 123.82004 56.628719 
L 124.591361 56.583196 
L 125.362682 56.562576 
L 126.211135 56.496731 
L 128.139437 56.433155 
L 129.759211 56.383228 
L 132.921626 56.274639 
L 136.546835 56.16078 
L 141.56042 56.05092 
L 142.871666 56.02668 
L 143.02593 96.481158 
L 143.334458 100.77881 
L 143.642987 102.562546 
L 143.951515 103.30422 
L 144.337175 103.662295 
L 144.8771 103.820035 
L 146.651138 103.958143 
L 153.130233 104.301987 
L 161.229103 104.596848 
L 170.022161 104.802284 
L 181.43771 104.961198 
L 181.669106 68.7104 
L 181.977634 48.325162 
L 182.286162 40.299231 
L 182.594691 37.096047 
L 182.903219 35.817866 
L 183.211748 35.298448 
L 183.67454 35.001598 
L 184.677257 34.747647 
L 187.608277 34.166541 
L 189.690843 33.913792 
L 192.54473 33.49195 
L 192.930391 33.383786 
L 194.935825 33.216551 
L 196.169938 33.105836 
L 196.709863 33.04279 
L 197.866844 32.922769 
L 198.406769 32.867272 
L 199.332354 32.762767 
L 200.026543 32.706268 
L 200.797863 32.628149 
L 201.569184 32.567856 
L 202.340505 32.510623 
L 203.188958 32.425942 
L 204.885864 32.301399 
L 208.896733 32.062664 
L 211.904884 31.905582 
L 220.003753 31.595377 
L 220.158017 100.71465 
L 220.466546 106.566794 
L 220.775074 109.182543 
L 221.083603 110.324332 
L 221.469263 110.906728 
L 221.932055 111.160592 
L 222.780508 111.305186 
L 225.480132 111.546285 
L 229.182472 111.806986 
L 229.568132 111.828937 
L 231.187906 111.969073 
L 232.576284 112.086989 
L 233.424737 112.071599 
L 235.584435 112.212938 
L 237.049945 112.279179 
L 238.901115 112.366443 
L 245.457342 112.581106 
L 250.856588 112.718437 
L 258.569797 112.86119 
L 258.646929 96.077692 
L 258.724061 97.363106 
L 259.186854 93.63641 
L 259.495382 93.142912 
L 259.881043 93.038056 
L 269.368289 93.250377 
L 269.831082 93.205173 
L 271.296592 93.313045 
L 272.916365 93.305862 
L 273.379158 93.337148 
L 274.690403 93.333889 
L 275.230328 93.328072 
L 276.155913 93.324512 
L 276.850102 93.327579 
L 277.621423 93.329183 
L 278.469876 93.323034 
L 279.318329 93.358934 
L 282.480744 93.367942 
L 284.871839 93.37147 
L 287.340066 93.371974 
L 295.438935 93.404893 
L 297.135841 93.407571 
L 297.367237 88.577985 
L 297.675765 81.752594 
L 297.984294 79.425046 
L 298.292822 78.541685 
L 298.601351 78.210024 
L 299.064143 78.059234 
L 300.838181 77.929463 
L 303.614936 77.806008 
L 307.625805 77.767918 
L 309.322711 77.724842 
L 309.785503 77.737317 
L 311.096749 77.64581 
L 313.873504 77.609001 
L 314.567693 77.588218 
L 315.416146 77.576982 
L 316.187467 77.574932 
L 316.958787 77.544383 
L 317.884372 77.559499 
L 335.701885 77.35581 
L 335.701885 77.35581 
" clip-path="url(#p6fd59ed47b)" style="fill: none; stroke: #1f77b4; stroke-width: 2; stroke-linecap: square"/>
   </g>
   <g id="line2d_34">
    <path d="M 65.739578 167.900698 
L 65.81671 102.880581 
L 65.893842 110.230691 
L 66.202371 127.529497 
L 66.510899 135.282613 
L 66.819427 138.819525 
L 67.127956 140.448963 
L 67.513616 141.338507 
L 67.976409 141.764105 
L 68.670597 142.023158 
L 71.910145 142.705698 
L 75.612485 143.363799 
L 85.948185 144.600315 
L 93.50713 145.145734 
L 102.531584 145.559409 
L 104.305622 145.619216 
L 104.459886 76.579324 
L 104.845547 53.178912 
L 105.154075 45.716816 
L 105.462603 42.431214 
L 105.771132 40.96003 
L 106.156792 40.190477 
L 106.619585 39.843733 
L 107.54517 39.565258 
L 110.784717 38.844466 
L 116.80102 37.97048 
L 124.359965 37.146198 
L 134.695664 36.46137 
L 142.871666 36.135376 
L 143.02593 97.126992 
L 143.334458 104.569494 
L 143.642987 107.901033 
L 143.951515 109.400488 
L 144.337175 110.187904 
L 144.722836 110.498339 
L 145.339893 110.680691 
L 147.576723 110.946672 
L 153.130233 111.408939 
L 161.306235 111.876967 
L 170.716349 112.208101 
L 181.43771 112.425665 
L 181.591974 80.168259 
L 181.977634 61.357387 
L 182.286162 55.270133 
L 182.594691 52.596708 
L 182.903219 51.403772 
L 183.28888 50.781879 
L 183.751672 50.502411 
L 184.831521 50.242551 
L 187.993937 49.672586 
L 194.935825 48.901483 
L 200.566467 48.426331 
L 206.19711 48.072598 
L 216.070017 47.664619 
L 220.003753 47.554336 
L 220.158017 89.857159 
L 220.312282 89.507407 
L 220.62081 88.84035 
L 221.00647 88.502817 
L 221.623527 88.281102 
L 223.011905 88.098515 
L 224.400282 88.089064 
L 229.645264 88.214707 
L 237.358473 88.249052 
L 258.569797 88.285852 
L 259.03259 70.187719 
L 259.341118 64.629634 
L 259.649646 62.175301 
L 259.958175 61.060869 
L 260.343835 60.466224 
L 260.806628 60.193001 
L 261.809345 59.957189 
L 264.508968 59.523582 
L 271.065195 58.972235 
L 291.659463 57.978018 
L 297.135841 57.854771 
L 297.290105 96.805693 
L 297.444369 97.582807 
L 297.675765 97.812936 
L 298.138558 98.391192 
L 298.601351 98.613567 
L 299.526936 98.740518 
L 301.455238 98.728629 
L 303.075012 98.730481 
L 317.575844 99.050389 
L 335.701885 99.169073 
L 335.701885 99.169073 
" clip-path="url(#p6fd59ed47b)" style="fill: none; stroke: #ff7f0e; stroke-width: 2; stroke-linecap: square"/>
   </g>
   <g id="patch_3">
    <path d="M 52.241463 175.381683 
L 52.241463 10.8 
" style="fill: none; stroke: #000000; stroke-width: 0.8; stroke-linejoin: miter; stroke-linecap: square"/>
   </g>
   <g id="patch_4">
    <path d="M 349.2 175.381683 
L 349.2 10.8 
" style="fill: none; stroke: #000000; stroke-width: 0.8; stroke-linejoin: miter; stroke-linecap: square"/>
   </g>
   <g id="patch_5">
    <path d="M 52.241463 175.381683 
L 349.2 175.381683 
" style="fill: none; stroke: #000000; stroke-width: 0.8; stroke-linejoin: miter; stroke-linecap: square"/>
   </g>
   <g id="patch_6">
    <path d="M 52.241463 10.8 
L 349.2 10.8 
" style="fill: none; stroke: #000000; stroke-width: 0.8; stroke-linejoin: miter; stroke-linecap: square"/>
   </g>
   <g id="legend_1">
    <g id="patch_7">
     <path d="M 59.241463 138.22881 
L 108.804143 138.22881 
Q 110.804143 138.22881 110.804143 136.22881 
L 110.804143 49.952873 
Q 110.804143 47.952873 108.804143 47.952873 
L 59.241463 47.952873 
Q 57.241463 47.952873 57.241463 49.952873 
L 57.241463 136.22881 
Q 57.241463 138.22881 59.241463 138.22881 
z
" style="fill: #ffffff; opacity: 0.8; stroke: #cccccc; stroke-linejoin: miter"/>
    </g>
    <g id="line2d_35">
     <path d="M 61.241463 55.452873 
L 71.241463 55.452873 
L 81.241463 55.452873 
" style="fill: none; stroke: #1f77b4; stroke-width: 1.5; stroke-linecap: square"/>
     <g>
      <use xlink:href="#m986275d967" x="71.241463" y="55.452873" style="fill: #1f77b4; stroke: #1f77b4"/>
     </g>
    </g>
    <g id="text_17">
     <!-- $\tau_\mathrm{ff,1}$ -->
     <g transform="translate(89.241463 58.952873) scale(0.1 -0.1)">
      <defs>
       <path id="CMMI12-1c" d="M 1837 2408 
L 2899 2408 
C 2982 2408 3194 2408 3194 2612 
C 3194 2752 3072 2752 2957 2752 
L 1197 2752 
C 1050 2752 832 2752 538 2440 
C 371 2255 166 1917 166 1879 
C 166 1841 198 1828 237 1828 
C 282 1828 288 1847 320 1885 
C 653 2408 986 2408 1146 2408 
L 1677 2408 
L 1011 223 
C 979 127 979 114 979 95 
C 979 25 1024 -64 1152 -64 
C 1350 -64 1382 108 1402 203 
L 1837 2408 
z
" transform="scale(0.015625)"/>
       <path id="CMR17-b" d="M 2554 2560 
L 3283 2560 
L 3283 2725 
L 2541 2725 
L 2541 3494 
C 2541 4022 2810 4352 3085 4352 
C 3168 4352 3264 4327 3328 4282 
C 3277 4269 3142 4225 3142 4067 
C 3142 3901 3270 3850 3360 3850 
C 3450 3850 3578 3901 3578 4067 
C 3578 4308 3347 4454 3091 4454 
C 2842 4454 2637 4333 2477 4181 
C 2330 4390 2086 4454 1837 4454 
C 1338 4454 634 4168 634 3469 
L 634 2725 
L 122 2725 
L 122 2560 
L 634 2560 
L 634 427 
C 634 184 608 153 198 153 
L 198 -13 
C 352 0 634 0 794 0 
C 960 0 1242 0 1395 -13 
L 1395 153 
C 986 153 960 178 960 427 
L 960 2560 
L 2227 2560 
L 2227 427 
C 2227 184 2202 153 1792 153 
L 1792 -13 
C 1946 0 2240 0 2406 0 
C 2592 0 2918 0 3091 -13 
L 3091 153 
C 2630 153 2554 153 2554 439 
L 2554 2560 
z
M 947 2725 
L 947 3469 
C 947 4047 1395 4352 1824 4352 
C 1920 4352 2170 4332 2323 4187 
C 2208 4187 2099 4136 2099 3977 
C 2099 3812 2246 3767 2259 3767 
C 2227 3652 2227 3526 2227 3481 
L 2227 2725 
L 947 2725 
z
" transform="scale(0.015625)"/>
       <path id="CMMI12-3b" d="M 1248 -31 
C 1248 343 1126 619 864 619 
C 659 619 557 453 557 313 
C 557 172 653 0 870 0 
C 954 0 1024 26 1082 83 
C 1094 96 1101 96 1107 96 
C 1120 96 1120 5 1120 -27 
C 1120 -240 1082 -659 710 -1080 
C 640 -1157 640 -1170 640 -1183 
C 640 -1216 672 -1248 704 -1248 
C 755 -1248 1248 -771 1248 -31 
z
" transform="scale(0.015625)"/>
      </defs>
      <use xlink:href="#CMMI12-1c" transform="scale(0.996264)"/>
      <use xlink:href="#CMR17-b" transform="translate(42.363841 -14.943915) scale(0.697382)"/>
      <use xlink:href="#CMMI12-3b" transform="translate(83.138776 -14.943915) scale(0.697382)"/>
      <use xlink:href="#CMR17-31" transform="translate(102.106709 -14.943915) scale(0.697382)"/>
     </g>
    </g>
    <g id="line2d_36">
     <path d="M 61.241463 70.303268 
L 71.241463 70.303268 
L 81.241463 70.303268 
" style="fill: none; stroke: #ff7f0e; stroke-width: 1.5; stroke-linecap: square"/>
     <g>
      <use xlink:href="#mee0674f125" x="71.241463" y="70.303268" style="fill: #ff7f0e; stroke: #ff7f0e"/>
     </g>
    </g>
    <g id="text_18">
     <!-- $\tau_\mathrm{ff,2}$ -->
     <g transform="translate(89.241463 73.803268) scale(0.1 -0.1)">
      <use xlink:href="#CMMI12-1c" transform="scale(0.996264)"/>
      <use xlink:href="#CMR17-b" transform="translate(42.363841 -14.943915) scale(0.697382)"/>
      <use xlink:href="#CMMI12-3b" transform="translate(83.138776 -14.943915) scale(0.697382)"/>
      <use xlink:href="#CMR17-32" transform="translate(102.106709 -14.943915) scale(0.697382)"/>
     </g>
    </g>
    <g id="line2d_37">
     <path d="M 61.241463 85.153663 
L 71.241463 85.153663 
L 81.241463 85.153663 
" style="fill: none; stroke: #1f77b4; stroke-width: 1.5; stroke-linecap: square"/>
     <g>
      <use xlink:href="#m55a3c6bf0d" x="71.241463" y="85.153663" style="fill: #1f77b4; stroke: #1f77b4; stroke-linejoin: miter"/>
     </g>
    </g>
    <g id="text_19">
     <!-- $\tau_{\mathrm{fb},1}$ -->
     <g transform="translate(89.241463 88.653663) scale(0.1 -0.1)">
      <defs>
       <path id="CMR17-62" d="M 960 4396 
L 198 4326 
L 198 4160 
C 576 4160 634 4122 634 3817 
L 634 -13 
L 749 -13 
L 934 441 
C 1120 141 1395 -64 1766 -64 
C 2406 -64 3053 500 3053 1370 
C 3053 2188 2477 2790 1830 2790 
C 1434 2790 1152 2579 960 2330 
L 960 4396 
z
M 973 2004 
C 973 2118 973 2138 1062 2272 
C 1312 2657 1670 2688 1792 2688 
C 1984 2688 2643 2585 2643 1376 
C 2643 108 1888 38 1734 38 
C 1536 38 1248 114 1043 486 
C 973 608 973 621 973 735 
L 973 2004 
z
" transform="scale(0.015625)"/>
      </defs>
      <use xlink:href="#CMMI12-1c" transform="scale(0.996264)"/>
      <use xlink:href="#CMR17-66" transform="translate(42.363841 -14.943915) scale(0.697382)"/>
      <use xlink:href="#CMR17-62" transform="translate(61.595205 -14.943915) scale(0.697382)"/>
      <use xlink:href="#CMMI12-3b" transform="translate(97.221813 -14.943915) scale(0.697382)"/>
      <use xlink:href="#CMR17-31" transform="translate(116.189746 -14.943915) scale(0.697382)"/>
     </g>
    </g>
    <g id="line2d_38">
     <path d="M 61.241463 100.004058 
L 71.241463 100.004058 
L 81.241463 100.004058 
" style="fill: none; stroke: #ff7f0e; stroke-width: 1.5; stroke-linecap: square"/>
     <g>
      <use xlink:href="#m8c1c96a6d9" x="71.241463" y="100.004058" style="fill: #ff7f0e; stroke: #ff7f0e; stroke-linejoin: miter"/>
     </g>
    </g>
    <g id="text_20">
     <!-- $\tau_{\mathrm{fb},2}$ -->
     <g transform="translate(89.241463 103.504058) scale(0.1 -0.1)">
      <use xlink:href="#CMMI12-1c" transform="scale(0.996264)"/>
      <use xlink:href="#CMR17-66" transform="translate(42.363841 -14.943915) scale(0.697382)"/>
      <use xlink:href="#CMR17-62" transform="translate(61.595205 -14.943915) scale(0.697382)"/>
      <use xlink:href="#CMMI12-3b" transform="translate(97.221813 -14.943915) scale(0.697382)"/>
      <use xlink:href="#CMR17-32" transform="translate(116.189746 -14.943915) scale(0.697382)"/>
     </g>
    </g>
    <g id="line2d_39">
     <path d="M 61.241463 114.854453 
L 71.241463 114.854453 
L 81.241463 114.854453 
" style="fill: none; stroke: #1f77b4; stroke-width: 2; stroke-linecap: square"/>
    </g>
    <g id="text_21">
     <!-- $\tau_1$ -->
     <g transform="translate(89.241463 118.354453) scale(0.1 -0.1)">
      <use xlink:href="#CMMI12-1c" transform="scale(0.996264)"/>
      <use xlink:href="#CMR17-31" transform="translate(42.363841 -14.943915) scale(0.697382)"/>
     </g>
    </g>
    <g id="line2d_40">
     <path d="M 61.241463 128.791632 
L 71.241463 128.791632 
L 81.241463 128.791632 
" style="fill: none; stroke: #ff7f0e; stroke-width: 2; stroke-linecap: square"/>
    </g>
    <g id="text_22">
     <!-- $\tau_2$ -->
     <g transform="translate(89.241463 132.291632) scale(0.1 -0.1)">
      <use xlink:href="#CMMI12-1c" transform="scale(0.996264)"/>
      <use xlink:href="#CMR17-32" transform="translate(42.363841 -14.943915) scale(0.697382)"/>
     </g>
    </g>
   </g>
  </g>
 </g>
 <defs>
  <clipPath id="p6fd59ed47b">
   <rect x="52.241463" y="10.8" width="296.958537" height="164.581683"/>
  </clipPath>
 </defs>
</svg>
