<?xml version="1.0" encoding="utf-8" standalone="no"?>
<!DOCTYPE svg PUBLIC "-//W3C//DTD SVG 1.1//EN"
  "http://www.w3.org/Graphics/SVG/1.1/DTD/svg11.dtd">
<svg xmlns:xlink="http://www.w3.org/1999/xlink" width="360pt" height="252pt" viewBox="0 0 360 252" xmlns="http://www.w3.org/2000/svg" version="1.1">
 <metadata>
  <rdf:RDF xmlns:dc="http://purl.org/dc/elements/1.1/" xmlns:cc="http://creativecommons.org/ns#" xmlns:rdf="http://www.w3.org/1999/02/22-rdf-syntax-ns#">
   <cc:Work>
    <dc:type rdf:resource="http://purl.org/dc/dcmitype/StillImage"/>
    <dc:date>2024-10-22T10:33:36.537200</dc:date>
    <dc:format>image/svg+xml</dc:format>
    <dc:creator>
     <cc:Agent>
      <dc:title>Matplotlib v3.9.2, https://matplotlib.org/</dc:title>
     </cc:Agent>
    </dc:creator>
   </cc:Work>
  </rdf:RDF>
 </metadata>
 <defs>
  <style type="text/css">*{stroke-linejoin: round; stroke-linecap: butt}</style>
 </defs>
 <g id="figure_1">
  <g id="patch_1">
   <path d="M 0 252 
L 360 252 
L 360 0 
L 0 0 
z
" style="fill: #ffffff"/>
  </g>
  <g id="axes_1">
   <g id="patch_2">
    <path d="M 49.474054 211.381683 
L 349.2 211.381683 
L 349.2 11.513617 
L 49.474054 11.513617 
z
" style="fill: #ffffff"/>
   </g>
   <g id="matplotlib.axis_1">
    <g id="xtick_1">
     <g id="line2d_1">
      <path d="M 63.097961 211.381683 
L 63.097961 11.513617 
" clip-path="url(#pc28fdc8754)" style="fill: none; stroke: #b0b0b0; stroke-width: 0.8; stroke-linecap: square"/>
     </g>
     <g id="line2d_2">
      <defs>
       <path id="mf56c20ec14" d="M 0 0 
L 0 3.5 
" style="stroke: #000000; stroke-width: 0.8"/>
      </defs>
      <g>
       <use xlink:href="#mf56c20ec14" x="63.097961" y="211.381683" style="stroke: #000000; stroke-width: 0.8"/>
      </g>
     </g>
     <g id="text_1">
      <!-- $\mathdefault{0}$ -->
      <g transform="translate(60.607293 225.300182) scale(0.1 -0.1)">
       <defs>
        <path id="CMR17-30" d="M 2688 2025 
C 2688 2416 2682 3080 2413 3591 
C 2176 4039 1798 4198 1466 4198 
C 1158 4198 768 4058 525 3597 
C 269 3118 243 2524 243 2025 
C 243 1661 250 1106 448 619 
C 723 -39 1216 -128 1466 -128 
C 1760 -128 2208 -7 2470 600 
C 2662 1042 2688 1559 2688 2025 
z
M 1466 -26 
C 1056 -26 813 325 723 812 
C 653 1188 653 1738 653 2096 
C 653 2588 653 2997 736 3387 
C 858 3929 1216 4096 1466 4096 
C 1728 4096 2067 3923 2189 3400 
C 2272 3036 2278 2607 2278 2096 
C 2278 1680 2278 1169 2202 792 
C 2067 95 1690 -26 1466 -26 
z
" transform="scale(0.015625)"/>
       </defs>
       <use xlink:href="#CMR17-30" transform="scale(0.996264)"/>
      </g>
     </g>
    </g>
    <g id="xtick_2">
     <g id="line2d_3">
      <path d="M 102.023408 211.381683 
L 102.023408 11.513617 
" clip-path="url(#pc28fdc8754)" style="fill: none; stroke: #b0b0b0; stroke-width: 0.8; stroke-linecap: square"/>
     </g>
     <g id="line2d_4">
      <g>
       <use xlink:href="#mf56c20ec14" x="102.023408" y="211.381683" style="stroke: #000000; stroke-width: 0.8"/>
      </g>
     </g>
     <g id="text_2">
      <!-- $\mathdefault{5}$ -->
      <g transform="translate(99.532741 225.300182) scale(0.1 -0.1)">
       <defs>
        <path id="CMR17-35" d="M 730 3692 
C 794 3666 1056 3584 1325 3584 
C 1920 3584 2246 3911 2432 4100 
C 2432 4157 2432 4192 2394 4192 
C 2387 4192 2374 4192 2323 4163 
C 2099 4058 1837 3973 1517 3973 
C 1325 3973 1037 3999 723 4139 
C 653 4171 640 4171 634 4171 
C 602 4171 595 4164 595 4037 
L 595 2203 
C 595 2089 595 2057 659 2057 
C 691 2057 704 2070 736 2114 
C 941 2401 1222 2522 1542 2522 
C 1766 2522 2246 2382 2246 1289 
C 2246 1085 2246 715 2054 421 
C 1894 159 1645 25 1370 25 
C 947 25 518 320 403 814 
C 429 807 480 795 506 795 
C 589 795 749 840 749 1038 
C 749 1210 627 1280 506 1280 
C 358 1280 262 1190 262 1011 
C 262 454 704 -128 1382 -128 
C 2042 -128 2669 440 2669 1264 
C 2669 2030 2170 2624 1549 2624 
C 1222 2624 947 2503 730 2274 
L 730 3692 
z
" transform="scale(0.015625)"/>
       </defs>
       <use xlink:href="#CMR17-35" transform="scale(0.996264)"/>
      </g>
     </g>
    </g>
    <g id="xtick_3">
     <g id="line2d_5">
      <path d="M 140.948856 211.381683 
L 140.948856 11.513617 
" clip-path="url(#pc28fdc8754)" style="fill: none; stroke: #b0b0b0; stroke-width: 0.8; stroke-linecap: square"/>
     </g>
     <g id="line2d_6">
      <g>
       <use xlink:href="#mf56c20ec14" x="140.948856" y="211.381683" style="stroke: #000000; stroke-width: 0.8"/>
      </g>
     </g>
     <g id="text_3">
      <!-- $\mathdefault{10}$ -->
      <g transform="translate(135.967521 225.300182) scale(0.1 -0.1)">
       <defs>
        <path id="CMR17-31" d="M 1702 4058 
C 1702 4192 1696 4192 1606 4192 
C 1357 3916 979 3827 621 3827 
C 602 3827 570 3827 563 3808 
C 557 3795 557 3782 557 3648 
C 755 3648 1088 3686 1344 3839 
L 1344 461 
C 1344 236 1331 160 781 160 
L 589 160 
L 589 0 
C 896 0 1216 0 1523 0 
C 1830 0 2150 0 2458 0 
L 2458 160 
L 2266 160 
C 1715 160 1702 230 1702 458 
L 1702 4058 
z
" transform="scale(0.015625)"/>
       </defs>
       <use xlink:href="#CMR17-31" transform="scale(0.996264)"/>
       <use xlink:href="#CMR17-30" transform="translate(45.690477 0) scale(0.996264)"/>
      </g>
     </g>
    </g>
    <g id="xtick_4">
     <g id="line2d_7">
      <path d="M 179.874303 211.381683 
L 179.874303 11.513617 
" clip-path="url(#pc28fdc8754)" style="fill: none; stroke: #b0b0b0; stroke-width: 0.8; stroke-linecap: square"/>
     </g>
     <g id="line2d_8">
      <g>
       <use xlink:href="#mf56c20ec14" x="179.874303" y="211.381683" style="stroke: #000000; stroke-width: 0.8"/>
      </g>
     </g>
     <g id="text_4">
      <!-- $\mathdefault{15}$ -->
      <g transform="translate(174.892968 225.300182) scale(0.1 -0.1)">
       <use xlink:href="#CMR17-31" transform="scale(0.996264)"/>
       <use xlink:href="#CMR17-35" transform="translate(45.690477 0) scale(0.996264)"/>
      </g>
     </g>
    </g>
    <g id="xtick_5">
     <g id="line2d_9">
      <path d="M 218.799751 211.381683 
L 218.799751 11.513617 
" clip-path="url(#pc28fdc8754)" style="fill: none; stroke: #b0b0b0; stroke-width: 0.8; stroke-linecap: square"/>
     </g>
     <g id="line2d_10">
      <g>
       <use xlink:href="#mf56c20ec14" x="218.799751" y="211.381683" style="stroke: #000000; stroke-width: 0.8"/>
      </g>
     </g>
     <g id="text_5">
      <!-- $\mathdefault{20}$ -->
      <g transform="translate(213.818416 225.300182) scale(0.1 -0.1)">
       <defs>
        <path id="CMR17-32" d="M 2669 989 
L 2554 989 
C 2490 536 2438 459 2413 420 
C 2381 369 1920 369 1830 369 
L 602 369 
C 832 619 1280 1072 1824 1597 
C 2214 1967 2669 2402 2669 3035 
C 2669 3790 2067 4224 1395 4224 
C 691 4224 262 3604 262 3030 
C 262 2780 448 2748 525 2748 
C 589 2748 781 2787 781 3010 
C 781 3207 614 3264 525 3264 
C 486 3264 448 3258 422 3245 
C 544 3790 915 4058 1306 4058 
C 1862 4058 2227 3617 2227 3035 
C 2227 2479 1901 2000 1536 1584 
L 262 146 
L 262 0 
L 2515 0 
L 2669 989 
z
" transform="scale(0.015625)"/>
       </defs>
       <use xlink:href="#CMR17-32" transform="scale(0.996264)"/>
       <use xlink:href="#CMR17-30" transform="translate(45.690477 0) scale(0.996264)"/>
      </g>
     </g>
    </g>
    <g id="xtick_6">
     <g id="line2d_11">
      <path d="M 257.725198 211.381683 
L 257.725198 11.513617 
" clip-path="url(#pc28fdc8754)" style="fill: none; stroke: #b0b0b0; stroke-width: 0.8; stroke-linecap: square"/>
     </g>
     <g id="line2d_12">
      <g>
       <use xlink:href="#mf56c20ec14" x="257.725198" y="211.381683" style="stroke: #000000; stroke-width: 0.8"/>
      </g>
     </g>
     <g id="text_6">
      <!-- $\mathdefault{25}$ -->
      <g transform="translate(252.743863 225.300182) scale(0.1 -0.1)">
       <use xlink:href="#CMR17-32" transform="scale(0.996264)"/>
       <use xlink:href="#CMR17-35" transform="translate(45.690477 0) scale(0.996264)"/>
      </g>
     </g>
    </g>
    <g id="xtick_7">
     <g id="line2d_13">
      <path d="M 296.650646 211.381683 
L 296.650646 11.513617 
" clip-path="url(#pc28fdc8754)" style="fill: none; stroke: #b0b0b0; stroke-width: 0.8; stroke-linecap: square"/>
     </g>
     <g id="line2d_14">
      <g>
       <use xlink:href="#mf56c20ec14" x="296.650646" y="211.381683" style="stroke: #000000; stroke-width: 0.8"/>
      </g>
     </g>
     <g id="text_7">
      <!-- $\mathdefault{30}$ -->
      <g transform="translate(291.669311 225.300182) scale(0.1 -0.1)">
       <defs>
        <path id="CMR17-33" d="M 1414 2157 
C 1984 2157 2234 1662 2234 1090 
C 2234 320 1824 25 1453 25 
C 1114 25 563 194 390 693 
C 422 680 454 680 486 680 
C 640 680 755 782 755 948 
C 755 1133 614 1216 486 1216 
C 378 1216 211 1165 211 926 
C 211 335 787 -128 1466 -128 
C 2176 -128 2720 430 2720 1085 
C 2720 1707 2208 2157 1600 2227 
C 2086 2328 2554 2756 2554 3329 
C 2554 3820 2048 4179 1472 4179 
C 890 4179 378 3829 378 3329 
C 378 3110 544 3072 627 3072 
C 762 3072 877 3155 877 3321 
C 877 3486 762 3569 627 3569 
C 602 3569 570 3569 544 3557 
C 730 3959 1235 4032 1459 4032 
C 1683 4032 2106 3925 2106 3320 
C 2106 3143 2080 2828 1862 2550 
C 1670 2304 1453 2304 1242 2284 
C 1210 2284 1062 2269 1037 2269 
C 992 2263 966 2257 966 2208 
C 966 2163 973 2157 1101 2157 
L 1414 2157 
z
" transform="scale(0.015625)"/>
       </defs>
       <use xlink:href="#CMR17-33" transform="scale(0.996264)"/>
       <use xlink:href="#CMR17-30" transform="translate(45.690477 0) scale(0.996264)"/>
      </g>
     </g>
    </g>
    <g id="xtick_8">
     <g id="line2d_15">
      <path d="M 335.576093 211.381683 
L 335.576093 11.513617 
" clip-path="url(#pc28fdc8754)" style="fill: none; stroke: #b0b0b0; stroke-width: 0.8; stroke-linecap: square"/>
     </g>
     <g id="line2d_16">
      <g>
       <use xlink:href="#mf56c20ec14" x="335.576093" y="211.381683" style="stroke: #000000; stroke-width: 0.8"/>
      </g>
     </g>
     <g id="text_8">
      <!-- $\mathdefault{35}$ -->
      <g transform="translate(330.594758 225.300182) scale(0.1 -0.1)">
       <use xlink:href="#CMR17-33" transform="scale(0.996264)"/>
       <use xlink:href="#CMR17-35" transform="translate(45.690477 0) scale(0.996264)"/>
      </g>
     </g>
    </g>
    <g id="text_9">
     <!-- Time $t$ [s] -->
     <g transform="translate(178.138719 238.70934) scale(0.1 -0.1)">
      <defs>
       <path id="CMR17-54" d="M 3981 4326 
L 288 4326 
L 179 2918 
L 294 2918 
C 378 3976 467 4160 1453 4160 
C 1568 4160 1754 4160 1805 4154 
C 1926 4135 1926 4058 1926 3912 
L 1926 459 
C 1926 230 1907 160 1376 160 
L 1197 160 
L 1197 0 
C 1504 0 1824 0 2138 0 
C 2451 0 2771 0 3078 0 
L 3078 160 
L 2899 160 
C 2368 160 2349 230 2349 459 
L 2349 3912 
C 2349 4052 2349 4129 2464 4154 
C 2515 4160 2701 4160 2816 4160 
C 3795 4160 3891 3976 3974 2918 
L 4090 2918 
L 3981 4326 
z
" transform="scale(0.015625)"/>
       <path id="CMR17-69" d="M 992 3909 
C 992 4049 877 4170 730 4170 
C 589 4170 467 4056 467 3909 
C 467 3769 582 3648 730 3648 
C 870 3648 992 3763 992 3909 
z
M 243 2706 
L 243 2541 
C 602 2541 653 2502 653 2197 
L 653 427 
C 653 184 627 153 218 153 
L 218 -13 
C 371 0 646 0 806 0 
C 960 0 1222 0 1370 -13 
L 1370 153 
C 992 153 979 191 979 420 
L 979 2776 
L 243 2706 
z
" transform="scale(0.015625)"/>
       <path id="CMR17-6d" d="M 4326 1933 
C 4326 2252 4269 2790 3507 2790 
C 3072 2790 2771 2496 2656 2151 
L 2650 2151 
C 2573 2676 2195 2790 1837 2790 
C 1331 2790 1069 2400 973 2144 
L 966 2144 
L 966 2790 
L 211 2720 
L 211 2554 
C 589 2554 646 2515 646 2208 
L 646 428 
C 646 184 621 153 211 153 
L 211 -13 
C 365 0 646 0 813 0 
C 979 0 1267 0 1421 -13 
L 1421 153 
C 1011 153 986 178 986 428 
L 986 1658 
C 986 2247 1344 2688 1792 2688 
C 2266 2688 2317 2266 2317 1958 
L 2317 428 
C 2317 184 2291 153 1882 153 
L 1882 -13 
C 2035 0 2317 0 2483 0 
C 2650 0 2938 0 3091 -13 
L 3091 153 
C 2682 153 2656 178 2656 428 
L 2656 1658 
C 2656 2247 3014 2688 3462 2688 
C 3936 2688 3987 2266 3987 1958 
L 3987 428 
C 3987 184 3962 153 3552 153 
L 3552 -13 
C 3706 0 3987 0 4154 0 
C 4320 0 4608 0 4762 -13 
L 4762 153 
C 4352 153 4326 178 4326 428 
L 4326 1933 
z
" transform="scale(0.015625)"/>
       <path id="CMR17-65" d="M 2438 1472 
C 2464 1498 2464 1511 2464 1576 
C 2464 2238 2118 2816 1389 2816 
C 710 2816 173 2169 173 1383 
C 173 551 781 -64 1459 -64 
C 2176 -64 2458 607 2458 740 
C 2458 784 2419 784 2406 784 
C 2362 784 2355 771 2330 696 
C 2189 265 1837 51 1504 51 
C 1229 51 954 203 781 480 
C 582 803 582 1176 582 1472 
L 2438 1472 
z
M 589 1568 
C 634 2505 1126 2714 1382 2714 
C 1818 2714 2112 2297 2118 1568 
L 589 1568 
z
" transform="scale(0.015625)"/>
       <path id="CMMI12-74" d="M 1286 2566 
L 1875 2566 
C 1997 2566 2061 2566 2061 2681 
C 2061 2752 2022 2752 1894 2752 
L 1331 2752 
L 1568 3692 
C 1594 3781 1594 3794 1594 3840 
C 1594 3943 1510 4000 1427 4000 
C 1376 4000 1229 3981 1178 3775 
L 928 2752 
L 326 2752 
C 198 2752 141 2752 141 2630 
C 141 2566 186 2566 307 2566 
L 877 2566 
L 454 881 
C 403 658 384 594 384 511 
C 384 211 595 -64 954 -64 
C 1600 -64 1946 868 1946 912 
C 1946 951 1920 970 1882 970 
C 1869 970 1843 970 1830 944 
C 1824 938 1818 931 1773 829 
C 1638 511 1344 64 973 64 
C 781 64 768 224 768 364 
C 768 370 768 492 787 568 
L 1286 2566 
z
" transform="scale(0.015625)"/>
       <path id="CMR17-5b" d="M 1504 -1600 
L 1504 -1377 
L 902 -1377 
L 902 4544 
L 1504 4544 
L 1504 4767 
L 678 4767 
L 678 -1600 
L 1504 -1600 
z
" transform="scale(0.015625)"/>
       <path id="CMR17-73" d="M 1978 2697 
C 1978 2813 1971 2819 1933 2819 
C 1907 2819 1901 2813 1824 2717 
C 1805 2691 1747 2626 1728 2601 
C 1523 2819 1235 2819 1126 2819 
C 416 2819 160 2447 160 2076 
C 160 1498 813 1365 998 1325 
C 1402 1243 1542 1217 1677 1101 
C 1760 1025 1901 884 1901 654 
C 1901 384 1747 38 1158 38 
C 602 38 403 460 288 1021 
C 269 1110 269 1117 218 1117 
C 166 1117 160 1110 160 983 
L 160 63 
C 160 -51 166 -58 205 -58 
C 237 -58 243 -51 275 0 
C 314 57 410 211 448 276 
C 576 103 800 -64 1158 -64 
C 1792 -64 2131 283 2131 784 
C 2131 1112 1958 1285 1875 1362 
C 1683 1561 1459 1606 1190 1657 
C 838 1735 390 1825 390 2217 
C 390 2383 480 2737 1126 2737 
C 1811 2737 1850 2094 1862 1888 
C 1869 1856 1901 1849 1920 1849 
C 1978 1849 1978 1869 1978 1978 
L 1978 2697 
z
" transform="scale(0.015625)"/>
       <path id="CMR17-5d" d="M 915 4767 
L 90 4767 
L 90 4544 
L 691 4544 
L 691 -1377 
L 90 -1377 
L 90 -1600 
L 915 -1600 
L 915 4767 
z
" transform="scale(0.015625)"/>
      </defs>
      <use xlink:href="#CMR17-54" transform="scale(0.996264)"/>
      <use xlink:href="#CMR17-69" transform="translate(66.509881 0) scale(0.996264)"/>
      <use xlink:href="#CMR17-6d" transform="translate(91.380939 0) scale(0.996264)"/>
      <use xlink:href="#CMR17-65" transform="translate(168.300529 0) scale(0.996264)"/>
      <use xlink:href="#CMMI12-74" transform="translate(238.862156 0) scale(0.996264)"/>
      <use xlink:href="#CMR17-5b" transform="translate(304.164452 0) scale(0.996264)"/>
      <use xlink:href="#CMR17-73" transform="translate(329.035511 0) scale(0.996264)"/>
      <use xlink:href="#CMR17-5d" transform="translate(364.836848 0) scale(0.996264)"/>
     </g>
    </g>
   </g>
   <g id="matplotlib.axis_2">
    <g id="ytick_1">
     <g id="line2d_17">
      <path d="M 49.474054 196.262463 
L 349.2 196.262463 
" clip-path="url(#pc28fdc8754)" style="fill: none; stroke: #b0b0b0; stroke-width: 0.8; stroke-linecap: square"/>
     </g>
     <g id="line2d_18">
      <defs>
       <path id="m8c5779fdd3" d="M 0 0 
L -3.5 0 
" style="stroke: #000000; stroke-width: 0.8"/>
      </defs>
      <g>
       <use xlink:href="#m8c5779fdd3" x="49.474054" y="196.262463" style="stroke: #000000; stroke-width: 0.8"/>
      </g>
     </g>
     <g id="text_10">
      <!-- $\mathdefault{−30}$ -->
      <g transform="translate(24.76264 199.721713) scale(0.1 -0.1)">
       <defs>
        <path id="CMSY10-0" d="M 4218 1472 
C 4326 1472 4442 1472 4442 1600 
C 4442 1728 4326 1728 4218 1728 
L 755 1728 
C 646 1728 531 1728 531 1600 
C 531 1472 646 1472 755 1472 
L 4218 1472 
z
" transform="scale(0.015625)"/>
       </defs>
       <use xlink:href="#CMSY10-0" transform="scale(0.996264)"/>
       <use xlink:href="#CMR17-33" transform="translate(77.487468 0) scale(0.996264)"/>
       <use xlink:href="#CMR17-30" transform="translate(123.177945 0) scale(0.996264)"/>
      </g>
     </g>
    </g>
    <g id="ytick_2">
     <g id="line2d_19">
      <path d="M 49.474054 170.273785 
L 349.2 170.273785 
" clip-path="url(#pc28fdc8754)" style="fill: none; stroke: #b0b0b0; stroke-width: 0.8; stroke-linecap: square"/>
     </g>
     <g id="line2d_20">
      <g>
       <use xlink:href="#m8c5779fdd3" x="49.474054" y="170.273785" style="stroke: #000000; stroke-width: 0.8"/>
      </g>
     </g>
     <g id="text_11">
      <!-- $\mathdefault{−20}$ -->
      <g transform="translate(24.76264 173.733034) scale(0.1 -0.1)">
       <use xlink:href="#CMSY10-0" transform="scale(0.996264)"/>
       <use xlink:href="#CMR17-32" transform="translate(77.487468 0) scale(0.996264)"/>
       <use xlink:href="#CMR17-30" transform="translate(123.177945 0) scale(0.996264)"/>
      </g>
     </g>
    </g>
    <g id="ytick_3">
     <g id="line2d_21">
      <path d="M 49.474054 144.285107 
L 349.2 144.285107 
" clip-path="url(#pc28fdc8754)" style="fill: none; stroke: #b0b0b0; stroke-width: 0.8; stroke-linecap: square"/>
     </g>
     <g id="line2d_22">
      <g>
       <use xlink:href="#m8c5779fdd3" x="49.474054" y="144.285107" style="stroke: #000000; stroke-width: 0.8"/>
      </g>
     </g>
     <g id="text_12">
      <!-- $\mathdefault{−10}$ -->
      <g transform="translate(24.76264 147.744356) scale(0.1 -0.1)">
       <use xlink:href="#CMSY10-0" transform="scale(0.996264)"/>
       <use xlink:href="#CMR17-31" transform="translate(77.487468 0) scale(0.996264)"/>
       <use xlink:href="#CMR17-30" transform="translate(123.177945 0) scale(0.996264)"/>
      </g>
     </g>
    </g>
    <g id="ytick_4">
     <g id="line2d_23">
      <path d="M 49.474054 118.296428 
L 349.2 118.296428 
" clip-path="url(#pc28fdc8754)" style="fill: none; stroke: #b0b0b0; stroke-width: 0.8; stroke-linecap: square"/>
     </g>
     <g id="line2d_24">
      <g>
       <use xlink:href="#m8c5779fdd3" x="49.474054" y="118.296428" style="stroke: #000000; stroke-width: 0.8"/>
      </g>
     </g>
     <g id="text_13">
      <!-- $\mathdefault{0}$ -->
      <g transform="translate(37.492719 121.755678) scale(0.1 -0.1)">
       <use xlink:href="#CMR17-30" transform="scale(0.996264)"/>
      </g>
     </g>
    </g>
    <g id="ytick_5">
     <g id="line2d_25">
      <path d="M 49.474054 92.30775 
L 349.2 92.30775 
" clip-path="url(#pc28fdc8754)" style="fill: none; stroke: #b0b0b0; stroke-width: 0.8; stroke-linecap: square"/>
     </g>
     <g id="line2d_26">
      <g>
       <use xlink:href="#m8c5779fdd3" x="49.474054" y="92.30775" style="stroke: #000000; stroke-width: 0.8"/>
      </g>
     </g>
     <g id="text_14">
      <!-- $\mathdefault{10}$ -->
      <g transform="translate(32.511384 95.766999) scale(0.1 -0.1)">
       <use xlink:href="#CMR17-31" transform="scale(0.996264)"/>
       <use xlink:href="#CMR17-30" transform="translate(45.690477 0) scale(0.996264)"/>
      </g>
     </g>
    </g>
    <g id="ytick_6">
     <g id="line2d_27">
      <path d="M 49.474054 66.319072 
L 349.2 66.319072 
" clip-path="url(#pc28fdc8754)" style="fill: none; stroke: #b0b0b0; stroke-width: 0.8; stroke-linecap: square"/>
     </g>
     <g id="line2d_28">
      <g>
       <use xlink:href="#m8c5779fdd3" x="49.474054" y="66.319072" style="stroke: #000000; stroke-width: 0.8"/>
      </g>
     </g>
     <g id="text_15">
      <!-- $\mathdefault{20}$ -->
      <g transform="translate(32.511384 69.778321) scale(0.1 -0.1)">
       <use xlink:href="#CMR17-32" transform="scale(0.996264)"/>
       <use xlink:href="#CMR17-30" transform="translate(45.690477 0) scale(0.996264)"/>
      </g>
     </g>
    </g>
    <g id="ytick_7">
     <g id="line2d_29">
      <path d="M 49.474054 40.330394 
L 349.2 40.330394 
" clip-path="url(#pc28fdc8754)" style="fill: none; stroke: #b0b0b0; stroke-width: 0.8; stroke-linecap: square"/>
     </g>
     <g id="line2d_30">
      <g>
       <use xlink:href="#m8c5779fdd3" x="49.474054" y="40.330394" style="stroke: #000000; stroke-width: 0.8"/>
      </g>
     </g>
     <g id="text_16">
      <!-- $\mathdefault{30}$ -->
      <g transform="translate(32.511384 43.789643) scale(0.1 -0.1)">
       <use xlink:href="#CMR17-33" transform="scale(0.996264)"/>
       <use xlink:href="#CMR17-30" transform="translate(45.690477 0) scale(0.996264)"/>
      </g>
     </g>
    </g>
    <g id="ytick_8">
     <g id="line2d_31">
      <path d="M 49.474054 14.341715 
L 349.2 14.341715 
" clip-path="url(#pc28fdc8754)" style="fill: none; stroke: #b0b0b0; stroke-width: 0.8; stroke-linecap: square"/>
     </g>
     <g id="line2d_32">
      <g>
       <use xlink:href="#m8c5779fdd3" x="49.474054" y="14.341715" style="stroke: #000000; stroke-width: 0.8"/>
      </g>
     </g>
     <g id="text_17">
      <!-- $\mathdefault{40}$ -->
      <g transform="translate(32.511384 17.800964) scale(0.1 -0.1)">
       <defs>
        <path id="CMR17-34" d="M 2150 4122 
C 2150 4256 2144 4256 2029 4256 
L 128 1254 
L 128 1088 
L 1779 1088 
L 1779 457 
C 1779 224 1766 160 1318 160 
L 1197 160 
L 1197 0 
C 1402 0 1747 0 1965 0 
C 2182 0 2528 0 2733 0 
L 2733 160 
L 2611 160 
C 2163 160 2150 224 2150 457 
L 2150 1088 
L 2803 1088 
L 2803 1254 
L 2150 1254 
L 2150 4122 
z
M 1798 3703 
L 1798 1254 
L 256 1254 
L 1798 3703 
z
" transform="scale(0.015625)"/>
       </defs>
       <use xlink:href="#CMR17-34" transform="scale(0.996264)"/>
       <use xlink:href="#CMR17-30" transform="translate(45.690477 0) scale(0.996264)"/>
      </g>
     </g>
    </g>
    <g id="text_18">
     <!-- Bending strain $\kappa_\mathrm{be}$ [rad/m] -->
     <g transform="translate(18.27198 170.658615) rotate(-90) scale(0.1 -0.1)">
      <defs>
       <path id="CMR17-42" d="M 333 4352 
L 333 4186 
C 774 4186 845 4186 845 3900 
L 845 452 
C 845 166 774 166 333 166 
L 333 0 
L 2534 0 
C 3354 0 3885 583 3885 1164 
C 3885 1741 3360 2233 2675 2233 
C 3290 2356 3718 2771 3718 3264 
C 3718 3802 3194 4352 2368 4352 
L 333 4352 
z
M 1248 2304 
L 1248 3937 
C 1248 4155 1261 4186 1517 4186 
L 2336 4186 
C 2970 4186 3251 3674 3251 3277 
C 3251 2791 2861 2304 2170 2304 
L 1248 2304 
z
M 1517 166 
C 1261 166 1248 197 1248 413 
L 1248 2202 
L 2432 2202 
C 3091 2202 3411 1625 3411 1162 
C 3411 699 3046 166 2349 166 
L 1517 166 
z
" transform="scale(0.015625)"/>
       <path id="CMR17-6e" d="M 2656 1933 
C 2656 2259 2592 2790 1837 2790 
C 1331 2790 1069 2400 973 2144 
L 966 2144 
L 966 2790 
L 211 2720 
L 211 2554 
C 589 2554 646 2515 646 2208 
L 646 428 
C 646 184 621 153 211 153 
L 211 -13 
C 365 0 646 0 813 0 
C 979 0 1267 0 1421 -13 
L 1421 153 
C 1011 153 986 178 986 428 
L 986 1658 
C 986 2247 1344 2688 1792 2688 
C 2266 2688 2317 2266 2317 1958 
L 2317 428 
C 2317 184 2291 153 1882 153 
L 1882 -13 
C 2035 0 2317 0 2483 0 
C 2650 0 2938 0 3091 -13 
L 3091 153 
C 2682 153 2656 178 2656 428 
L 2656 1933 
z
" transform="scale(0.015625)"/>
       <path id="CMR17-64" d="M 1869 4326 
L 1869 4160 
C 2246 4160 2304 4122 2304 3820 
L 2304 2345 
C 2278 2377 2016 2790 1498 2790 
C 845 2790 211 2208 211 1364 
C 211 525 806 -64 1434 -64 
C 1978 -64 2259 337 2291 380 
L 2291 -63 
L 3066 -63 
L 3066 128 
C 2688 128 2630 166 2630 473 
L 2630 4396 
L 1869 4326 
z
M 2291 755 
C 2291 563 2176 390 2029 262 
C 1811 70 1594 38 1472 38 
C 1286 38 621 134 621 1356 
C 621 2612 1363 2688 1530 2688 
C 1824 2688 2061 2522 2208 2291 
C 2291 2157 2291 2138 2291 2023 
L 2291 755 
z
" transform="scale(0.015625)"/>
       <path id="CMR17-67" d="M 710 1164 
C 832 1068 1043 960 1299 960 
C 1805 960 2240 1357 2240 1888 
C 2240 2054 2189 2310 1997 2509 
C 2176 2692 2438 2752 2586 2752 
C 2611 2752 2650 2752 2682 2734 
C 2656 2728 2598 2703 2598 2605 
C 2598 2527 2656 2471 2739 2471 
C 2835 2471 2886 2533 2886 2614 
C 2886 2731 2790 2854 2586 2854 
C 2330 2854 2106 2738 1926 2580 
C 1734 2753 1504 2816 1299 2816 
C 794 2816 358 2419 358 1888 
C 358 1522 570 1292 634 1228 
C 442 1004 442 743 442 711 
C 442 545 506 302 723 168 
C 390 85 128 -169 128 -486 
C 128 -943 736 -1280 1466 -1280 
C 2170 -1280 2803 -956 2803 -479 
C 2803 384 1856 384 1363 384 
C 1216 384 954 384 922 391 
C 723 423 589 602 589 826 
C 589 883 589 1024 710 1164 
z
M 1299 1068 
C 736 1068 736 1760 736 1889 
C 736 2016 736 2708 1299 2708 
C 1862 2708 1862 2016 1862 1889 
C 1862 1760 1862 1068 1299 1068 
z
M 1466 -1171 
C 826 -1171 384 -835 384 -486 
C 384 -289 493 -105 634 -4 
C 794 104 858 104 1293 104 
C 1818 104 2547 104 2547 -486 
C 2547 -835 2106 -1171 1466 -1171 
z
" transform="scale(0.015625)"/>
       <path id="CMR17-74" d="M 966 2560 
L 1862 2560 
L 1862 2725 
L 966 2725 
L 966 3904 
L 851 3904 
C 838 3245 614 2668 70 2668 
L 70 2560 
L 627 2560 
L 627 771 
C 627 650 627 -64 1370 -64 
C 1747 -64 1965 306 1965 777 
L 1965 1140 
L 1850 1140 
L 1850 783 
C 1850 344 1677 51 1408 51 
C 1222 51 966 178 966 758 
L 966 2560 
z
" transform="scale(0.015625)"/>
       <path id="CMR17-72" d="M 960 1497 
C 960 2112 1222 2688 1702 2688 
C 1747 2688 1792 2682 1837 2662 
C 1837 2662 1696 2617 1696 2452 
C 1696 2298 1818 2234 1914 2234 
C 1990 2234 2131 2279 2131 2458 
C 2131 2663 1926 2790 1709 2790 
C 1222 2790 1011 2317 947 2093 
L 941 2093 
L 941 2790 
L 198 2720 
L 198 2554 
C 576 2554 634 2515 634 2208 
L 634 428 
C 634 184 608 153 198 153 
L 198 -13 
C 352 0 646 0 813 0 
C 998 0 1325 0 1498 -13 
L 1498 153 
C 1037 153 960 153 960 440 
L 960 1497 
z
" transform="scale(0.015625)"/>
       <path id="CMR17-61" d="M 2304 1653 
C 2304 2072 2304 2294 2035 2543 
C 1798 2752 1523 2816 1306 2816 
C 800 2816 435 2407 435 1971 
C 435 1728 627 1728 666 1728 
C 749 1728 896 1778 896 1954 
C 896 2112 774 2181 666 2181 
C 640 2181 608 2174 589 2168 
C 723 2592 1069 2714 1293 2714 
C 1613 2714 1965 2429 1965 1885 
L 1965 1600 
C 1587 1600 1133 1549 774 1357 
C 371 1133 256 813 256 570 
C 256 77 832 -64 1171 -64 
C 1523 -64 1850 139 1990 511 
C 2003 233 2182 -18 2464 -18 
C 2598 -18 2938 70 2938 567 
L 2938 920 
L 2822 920 
L 2822 562 
C 2822 178 2650 128 2566 128 
C 2304 128 2304 458 2304 738 
L 2304 1653 
z
M 1965 870 
C 1965 317 1568 38 1216 38 
C 896 38 646 275 646 570 
C 646 761 730 1100 1101 1305 
C 1408 1478 1760 1504 1965 1504 
L 1965 870 
z
" transform="scale(0.015625)"/>
       <path id="CMMI12-14" d="M 1363 1600 
C 1574 1714 1811 1912 1971 2046 
C 2355 2377 2496 2479 2739 2574 
C 2714 2536 2707 2485 2707 2441 
C 2707 2268 2854 2236 2918 2236 
C 3123 2236 3238 2427 3238 2548 
C 3238 2586 3226 2752 3002 2752 
C 2618 2752 2240 2431 1958 2198 
C 1587 1876 1402 1738 1139 1656 
L 1382 2656 
C 1382 2759 1299 2816 1216 2816 
C 1158 2816 1018 2797 966 2592 
L 371 224 
C 352 148 352 134 352 96 
C 352 6 422 -64 518 -64 
C 710 -64 749 106 781 244 
C 819 380 1082 1472 1094 1472 
C 1907 1472 2182 1264 2182 943 
C 2182 897 2182 878 2163 806 
C 2138 682 2138 609 2138 570 
C 2138 178 2387 -64 2701 -64 
C 2963 -64 3110 123 3206 291 
C 3341 543 3424 898 3424 923 
C 3424 956 3398 981 3360 981 
C 3302 981 3296 956 3270 852 
C 3187 542 3046 64 2720 64 
C 2579 64 2509 148 2509 374 
C 2509 498 2534 641 2560 737 
C 2573 802 2592 880 2592 951 
C 2592 1541 1786 1600 1363 1600 
z
" transform="scale(0.015625)"/>
       <path id="CMR17-62" d="M 960 4396 
L 198 4326 
L 198 4160 
C 576 4160 634 4122 634 3817 
L 634 -13 
L 749 -13 
L 934 441 
C 1120 141 1395 -64 1766 -64 
C 2406 -64 3053 500 3053 1370 
C 3053 2188 2477 2790 1830 2790 
C 1434 2790 1152 2579 960 2330 
L 960 4396 
z
M 973 2004 
C 973 2118 973 2138 1062 2272 
C 1312 2657 1670 2688 1792 2688 
C 1984 2688 2643 2585 2643 1376 
C 2643 108 1888 38 1734 38 
C 1536 38 1248 114 1043 486 
C 973 608 973 621 973 735 
L 973 2004 
z
" transform="scale(0.015625)"/>
       <path id="CMR17-2f" d="M 2605 4545 
C 2637 4627 2637 4640 2637 4653 
C 2637 4729 2579 4768 2528 4768 
C 2451 4768 2426 4717 2400 4640 
L 326 -1377 
C 294 -1460 294 -1473 294 -1486 
C 294 -1562 352 -1600 403 -1600 
C 480 -1600 506 -1549 531 -1473 
L 2605 4545 
z
" transform="scale(0.015625)"/>
      </defs>
      <use xlink:href="#CMR17-42" transform="scale(0.996264)"/>
      <use xlink:href="#CMR17-65" transform="translate(65.188754 0) scale(0.996264)"/>
      <use xlink:href="#CMR17-6e" transform="translate(105.674415 0) scale(0.996264)"/>
      <use xlink:href="#CMR17-64" transform="translate(156.569785 0) scale(0.996264)"/>
      <use xlink:href="#CMR17-69" transform="translate(207.465154 0) scale(0.996264)"/>
      <use xlink:href="#CMR17-6e" transform="translate(232.336213 0) scale(0.996264)"/>
      <use xlink:href="#CMR17-67" transform="translate(283.231583 0) scale(0.996264)"/>
      <use xlink:href="#CMR17-73" transform="translate(358.998026 0) scale(0.996264)"/>
      <use xlink:href="#CMR17-74" transform="translate(394.799364 0) scale(0.996264)"/>
      <use xlink:href="#CMR17-72" transform="translate(430.080132 0) scale(0.996264)"/>
      <use xlink:href="#CMR17-61" transform="translate(465.360899 0) scale(0.996264)"/>
      <use xlink:href="#CMR17-69" transform="translate(511.051377 0) scale(0.996264)"/>
      <use xlink:href="#CMR17-6e" transform="translate(535.922435 0) scale(0.996264)"/>
      <use xlink:href="#CMMI12-14" transform="translate(616.893771 0) scale(0.996264)"/>
      <use xlink:href="#CMR17-62" transform="translate(673.048395 -14.943915) scale(0.697382)"/>
      <use xlink:href="#CMR17-65" transform="translate(710.496709 -14.943915) scale(0.697382)"/>
      <use xlink:href="#CMR17-5b" transform="translate(769.410639 0) scale(0.996264)"/>
      <use xlink:href="#CMR17-72" transform="translate(794.281698 0) scale(0.996264)"/>
      <use xlink:href="#CMR17-61" transform="translate(829.562465 0) scale(0.996264)"/>
      <use xlink:href="#CMR17-64" transform="translate(875.252942 0) scale(0.996264)"/>
      <use xlink:href="#CMR17-2f" transform="translate(926.148312 0) scale(0.996264)"/>
      <use xlink:href="#CMR17-6d" transform="translate(971.838789 0) scale(0.996264)"/>
      <use xlink:href="#CMR17-5d" transform="translate(1048.758379 0) scale(0.996264)"/>
     </g>
    </g>
   </g>
   <g id="line2d_33">
    <path d="M 63.097961 161.790176 
L 102.023408 161.790176 
L 102.17911 23.791036 
L 140.948856 23.791036 
L 141.104558 131.672099 
L 179.874303 131.672099 
L 180.030005 27.249915 
L 218.799751 27.249915 
L 218.955453 85.201757 
L 257.725198 85.201757 
L 257.8809 199.251744 
L 296.650646 199.251744 
L 296.806348 38.254195 
L 335.576093 38.254195 
L 335.576093 38.254195 
" clip-path="url(#pc28fdc8754)" style="fill: none; stroke-dasharray: 3.5,5.775; stroke-dashoffset: 0; stroke: #1f77b4; stroke-width: 3.5"/>
   </g>
   <g id="line2d_34">
    <path d="M 63.097961 93.437726 
L 102.023408 93.437726 
L 102.17911 132.578867 
L 140.948856 132.578867 
L 141.104558 107.713683 
L 179.874303 107.713683 
L 180.030005 133.885077 
L 218.799751 133.885077 
L 218.955453 96.120969 
L 257.725198 96.120969 
L 257.8809 106.775 
L 296.650646 106.775 
L 296.806348 131.435326 
L 335.576093 131.435326 
L 335.576093 131.435326 
" clip-path="url(#pc28fdc8754)" style="fill: none; stroke-dasharray: 3.5,5.775; stroke-dashoffset: 0; stroke: #ff7f0e; stroke-width: 3.5"/>
   </g>
   <g id="line2d_35">
    <path d="M 63.097961 118.296428 
L 64.032172 139.772845 
L 64.654979 148.386723 
L 65.277786 154.211011 
L 65.978444 158.705991 
L 66.679102 161.873192 
L 67.146207 163.27273 
L 67.613313 164.028281 
L 68.002567 164.302686 
L 68.391822 164.339567 
L 68.858927 164.152425 
L 69.481734 163.628158 
L 70.338094 162.586098 
L 71.428007 161.275805 
L 71.817261 161.203525 
L 72.284367 161.359303 
L 72.907174 161.843243 
L 73.296428 162.056572 
L 73.685683 162.049911 
L 74.230639 161.777611 
L 74.697744 161.609656 
L 75.16485 161.717496 
L 75.787657 161.921439 
L 76.254762 161.796901 
L 76.721868 161.6879 
L 77.266824 161.829311 
L 77.733929 161.856023 
L 78.66814 161.762031 
L 79.368798 161.828826 
L 80.147307 161.759939 
L 80.925816 161.811657 
L 81.704325 161.777263 
L 82.482834 161.795184 
L 83.261343 161.792022 
L 84.039852 161.782869 
L 84.974062 161.809256 
L 95.17253 161.793177 
L 102.023408 161.791272 
L 102.17911 109.642156 
L 102.801917 78.632669 
L 103.424725 58.725898 
L 104.047532 45.704549 
L 104.670339 36.996722 
L 105.293146 31.018647 
L 105.993804 26.327219 
L 106.694462 23.004096 
L 107.161568 21.651582 
L 107.628673 20.915027 
L 108.017927 20.645237 
L 108.407182 20.605839 
L 108.874287 20.788441 
L 109.497094 21.316599 
L 110.353454 22.387997 
L 111.832621 24.374239 
L 112.221876 24.461733 
L 112.688981 24.323099 
L 113.233937 23.914983 
L 113.778894 23.503143 
L 114.168148 23.474939 
L 114.635253 23.675104 
L 115.258061 23.987094 
L 115.725166 23.90348 
L 116.503675 23.654694 
L 117.048631 23.837592 
L 117.515737 23.888366 
L 118.605649 23.765413 
L 119.228456 23.854747 
L 120.240518 23.780937 
L 120.863325 23.828509 
L 121.719685 23.774918 
L 122.420343 23.812454 
L 123.198852 23.777686 
L 123.977361 23.796769 
L 124.75587 23.792174 
L 125.534379 23.784128 
L 126.390739 23.808139 
L 128.337011 23.791913 
L 129.97188 23.780632 
L 133.319468 23.789895 
L 136.04425 23.786951 
L 140.715303 23.794296 
L 140.948856 23.794122 
L 141.104558 119.597142 
L 141.727365 124.370641 
L 142.428023 128.102459 
L 143.206532 131.069963 
L 143.829339 132.710643 
L 144.296444 133.288909 
L 144.685699 133.455677 
L 145.152804 133.383209 
L 145.697761 133.031809 
L 146.476269 132.206564 
L 147.332629 131.256985 
L 147.721884 131.167012 
L 148.188989 131.307721 
L 149.434603 131.915868 
L 149.901709 131.723896 
L 150.446665 131.509177 
L 150.91377 131.61289 
L 151.536578 131.78849 
L 152.081534 131.631824 
L 152.548639 131.5942 
L 153.560701 131.697588 
L 154.183508 131.617983 
L 155.19557 131.676462 
L 155.818377 131.643986 
L 156.674737 131.67989 
L 157.375395 131.659463 
L 158.153904 131.677372 
L 158.932413 131.673451 
L 159.710922 131.665258 
L 160.567281 131.688489 
L 162.591405 131.667422 
L 164.459826 131.662848 
L 167.651713 131.676102 
L 172.478468 131.672462 
L 179.874303 131.671093 
L 180.030005 109.895867 
L 180.652812 80.006176 
L 181.27562 60.780933 
L 181.898427 48.206773 
L 182.521234 39.79674 
L 183.144041 34.021747 
L 183.844699 29.482508 
L 184.545357 26.28368 
L 185.012462 25.024245 
L 185.479568 24.356216 
L 185.868822 24.12943 
L 186.258077 24.125512 
L 186.725182 24.336347 
L 187.347989 24.889431 
L 188.204349 25.976803 
L 189.605665 27.837744 
L 189.99492 27.916218 
L 190.462025 27.766742 
L 191.084832 27.279415 
L 191.551938 26.960147 
L 191.941192 26.941186 
L 192.408298 27.148652 
L 193.031105 27.45021 
L 193.49821 27.352515 
L 194.198868 27.110485 
L 194.665973 27.243095 
L 195.133079 27.356578 
L 195.678035 27.215137 
L 196.14514 27.176823 
L 197.157202 27.270031 
L 197.780009 27.199918 
L 198.71422 27.264937 
L 199.414878 27.226584 
L 200.193387 27.265715 
L 200.971896 27.241673 
L 201.750405 27.251048 
L 202.528914 27.25512 
L 203.307423 27.239525 
L 204.163783 27.269305 
L 206.265757 27.237924 
L 208.367731 27.257 
L 210.547556 27.24316 
L 214.206548 27.255835 
L 218.799751 27.251965 
L 218.877602 116.92628 
L 218.955453 115.272327 
L 219.57826 103.936087 
L 220.201067 96.498715 
L 220.823874 91.453047 
L 221.524532 87.518205 
L 222.22519 84.706073 
L 222.692296 83.571732 
L 223.159401 83.006828 
L 223.548656 82.848742 
L 224.015761 82.929699 
L 224.560717 83.289225 
L 225.339226 84.123856 
L 226.740542 85.73896 
L 227.129797 85.761069 
L 227.596902 85.56025 
L 228.686815 84.91802 
L 229.15392 85.060074 
L 229.854578 85.379448 
L 230.321683 85.270587 
L 230.944491 85.076445 
L 231.489447 85.237754 
L 231.956552 85.284391 
L 232.968614 85.176083 
L 233.591421 85.251959 
L 234.525632 85.187541 
L 235.22629 85.220897 
L 236.004799 85.191167 
L 236.783308 85.204832 
L 237.561817 85.204829 
L 238.418176 85.188213 
L 240.286598 85.194528 
L 242.310721 85.210438 
L 246.203266 85.203871 
L 252.197785 85.203665 
L 257.725198 85.202442 
L 257.8809 125.801592 
L 258.503707 152.508807 
L 259.126515 169.680877 
L 259.749322 180.935236 
L 260.372129 188.484169 
L 261.072787 194.233903 
L 261.773445 198.210573 
L 262.396252 200.668111 
L 262.863357 201.685209 
L 263.330463 202.177489 
L 263.719717 202.296771 
L 264.186823 202.186942 
L 264.731779 201.799516 
L 265.510288 200.92593 
L 267.378709 198.623452 
L 267.767964 198.630119 
L 268.235069 198.851493 
L 269.402833 199.568974 
L 269.869938 199.417288 
L 270.648447 199.058051 
L 271.115552 199.180113 
L 271.738359 199.387708 
L 272.205465 199.262461 
L 272.67257 199.146198 
L 273.217526 199.28536 
L 273.684632 199.324252 
L 274.618843 199.214045 
L 275.319501 199.298931 
L 276.253711 199.240772 
L 276.876519 199.282571 
L 277.732878 199.241039 
L 278.433536 199.266004 
L 279.289896 199.255187 
L 280.068405 199.242818 
L 280.924765 199.27017 
L 282.948888 199.245757 
L 284.739459 199.239517 
L 288.632004 199.249896 
L 292.135294 199.251703 
L 296.650646 199.254027 
L 296.806348 110.898893 
L 297.429155 84.451667 
L 298.051962 67.483336 
L 298.674769 56.351881 
L 299.297576 48.877087 
L 299.998234 43.180414 
L 300.698892 39.236614 
L 301.3217 36.809229 
L 301.788805 35.812188 
L 302.25591 35.33433 
L 302.645165 35.225203 
L 303.11227 35.343504 
L 303.657226 35.735553 
L 304.435735 36.611431 
L 305.603499 38.322181 
L 306.070604 38.798015 
L 306.459859 38.901744 
L 306.926964 38.774672 
L 307.47192 38.380761 
L 308.016877 37.98004 
L 308.406131 37.95362 
L 308.873236 38.153349 
L 309.496044 38.446842 
L 309.963149 38.346561 
L 310.663807 38.12223 
L 311.208763 38.29275 
L 311.675869 38.344478 
L 312.765781 38.236436 
L 313.388588 38.306996 
L 314.322799 38.237613 
L 315.023457 38.279294 
L 315.801966 38.236946 
L 316.580475 38.26367 
L 317.358984 38.251944 
L 318.137493 38.250172 
L 318.916002 38.263218 
L 319.850213 38.23428 
L 335.576093 38.252351 
L 335.576093 38.252351 
" clip-path="url(#pc28fdc8754)" style="fill: none; stroke: #1f77b4; stroke-width: 2; stroke-linecap: square"/>
   </g>
   <g id="line2d_36">
    <path d="M 63.097961 118.296428 
L 63.642917 110.204598 
L 64.343575 103.109349 
L 65.044233 98.248701 
L 65.822742 94.442723 
L 66.445549 92.297995 
L 66.912655 91.428548 
L 67.37976 91.037038 
L 67.769015 90.976631 
L 68.23612 91.139039 
L 68.858927 91.63977 
L 69.715287 92.669281 
L 70.727349 93.918239 
L 71.116603 94.021277 
L 71.583709 93.893981 
L 72.128665 93.499601 
L 72.59577 93.195937 
L 72.985025 93.185665 
L 73.45213 93.39522 
L 73.919235 93.593183 
L 74.386341 93.51497 
L 75.009148 93.3297 
L 75.554104 93.472361 
L 76.02121 93.501748 
L 76.95542 93.413463 
L 77.656078 93.46807 
L 78.512438 93.427656 
L 79.290947 93.441675 
L 80.147307 93.445887 
L 81.237219 93.421583 
L 84.896212 93.444193 
L 94.238319 93.436431 
L 102.023408 93.438072 
L 102.17911 120.177793 
L 102.879768 125.306157 
L 103.658277 129.405482 
L 104.514637 132.662501 
L 104.981742 133.816416 
L 105.448848 134.409091 
L 105.838102 134.588246 
L 106.227357 134.553696 
L 106.694462 134.298675 
L 107.39512 133.613116 
L 108.796436 132.066644 
L 109.185691 132.051322 
L 109.652796 132.257963 
L 110.664858 132.847703 
L 111.131963 132.724624 
L 111.910472 132.425509 
L 112.377577 132.563098 
L 112.844683 132.683281 
L 113.389639 132.548548 
L 113.856744 132.511116 
L 114.790955 132.607626 
L 115.491613 132.549469 
L 116.425824 132.574482 
L 117.204333 132.59021 
L 118.138544 132.557982 
L 140.948856 132.579993 
L 141.104558 117.156492 
L 141.805216 113.190872 
L 142.583725 109.975299 
L 143.440085 107.32455 
L 143.90719 106.488408 
L 144.296444 106.154809 
L 144.685699 106.067956 
L 145.152804 106.207826 
L 145.697761 106.614596 
L 146.476269 107.497796 
L 147.021226 108.083049 
L 147.41048 108.202183 
L 147.877586 108.091718 
L 148.500393 107.650671 
L 148.889647 107.480713 
L 149.356753 107.548899 
L 150.290963 107.843928 
L 151.458727 107.690141 
L 152.003683 107.780076 
L 153.171446 107.730576 
L 153.794254 107.718622 
L 154.494912 107.705742 
L 155.273421 107.714008 
L 156.12978 107.725386 
L 157.8425 107.728056 
L 162.824957 107.70803 
L 179.874303 107.713342 
L 180.030005 120.272613 
L 180.652812 125.316746 
L 181.431321 129.855745 
L 182.20983 133.122588 
L 182.832637 134.974611 
L 183.299743 135.681627 
L 183.688997 135.932456 
L 184.078252 135.953455 
L 184.545357 135.748325 
L 185.168164 135.200657 
L 186.024524 134.130119 
L 186.647331 133.441281 
L 187.036586 133.335896 
L 187.503691 133.462189 
L 188.126498 133.928143 
L 188.515753 134.13482 
L 188.905007 134.126107 
L 189.449964 133.861231 
L 189.917069 133.726447 
L 190.384174 133.853718 
L 190.929131 133.989923 
L 192.408298 133.938637 
L 192.953254 133.887767 
L 193.576061 133.859312 
L 194.432421 133.889243 
L 195.288781 133.895647 
L 197.079351 133.894695 
L 199.337027 133.880872 
L 201.516852 133.889354 
L 204.241634 133.892015 
L 213.739443 133.883295 
L 218.799751 133.885779 
L 218.955453 116.126864 
L 219.57826 108.602308 
L 220.278918 102.905753 
L 220.979576 98.982306 
L 221.758085 95.852518 
L 222.22519 94.674257 
L 222.692296 94.06208 
L 223.08155 93.871135 
L 223.470805 93.895539 
L 223.93791 94.136573 
L 224.560717 94.712088 
L 225.494928 95.916323 
L 226.039884 96.545654 
L 226.429139 96.687985 
L 226.896244 96.596069 
L 227.4412 96.226326 
L 227.986157 95.871825 
L 228.453262 95.892829 
L 229.698876 96.231915 
L 230.555236 96.025681 
L 231.567298 96.159089 
L 232.267956 96.076862 
L 233.202166 96.130222 
L 233.980675 96.117945 
L 234.837035 96.113185 
L 236.549755 96.111757 
L 253.910505 96.120995 
L 257.725198 96.121206 
L 257.803049 117.416665 
L 257.8809 116.780958 
L 258.581558 112.606493 
L 259.360067 109.142155 
L 260.216427 106.300493 
L 260.683532 105.405264 
L 261.150638 104.995102 
L 261.539892 104.925672 
L 262.006998 105.08284 
L 262.629805 105.589588 
L 263.486165 106.625142 
L 264.031121 107.193845 
L 264.420375 107.296116 
L 264.887481 107.167386 
L 265.510288 106.706057 
L 265.899542 106.52666 
L 266.366648 106.583598 
L 267.378709 106.908105 
L 268.468622 106.721813 
L 269.16928 106.843054 
L 270.181342 106.761244 
L 270.804149 106.804615 
L 271.738359 106.778308 
L 272.516868 106.764712 
L 273.606781 106.791754 
L 275.942308 106.767847 
L 278.199984 106.779361 
L 281.39187 106.772386 
L 286.53003 106.777076 
L 296.650646 106.775864 
L 296.806348 119.982618 
L 297.507006 124.713312 
L 298.285515 128.553719 
L 299.141875 131.651117 
L 299.60898 132.714134 
L 300.076085 133.244994 
L 300.46534 133.3888 
L 300.932445 133.297901 
L 301.477401 132.923535 
L 302.25591 132.070131 
L 303.190121 130.994706 
L 303.579376 130.903116 
L 304.046481 131.04117 
L 305.369946 131.675894 
L 305.914902 131.421951 
L 306.382008 131.27993 
L 306.849113 131.400974 
L 307.394069 131.538571 
L 308.873236 131.487532 
L 309.418193 131.436783 
L 310.041 131.411476 
L 310.89736 131.438403 
L 311.75372 131.445801 
L 313.54429 131.443499 
L 315.801966 131.433634 
L 318.137493 131.431292 
L 322.419292 131.434053 
L 328.803066 131.435294 
L 335.576093 131.434659 
L 335.576093 131.434659 
" clip-path="url(#pc28fdc8754)" style="fill: none; stroke: #ff7f0e; stroke-width: 2; stroke-linecap: square"/>
   </g>
   <g id="patch_3">
    <path d="M 49.474054 211.381683 
L 49.474054 11.513617 
" style="fill: none; stroke: #000000; stroke-width: 0.8; stroke-linejoin: miter; stroke-linecap: square"/>
   </g>
   <g id="patch_4">
    <path d="M 349.2 211.381683 
L 349.2 11.513617 
" style="fill: none; stroke: #000000; stroke-width: 0.8; stroke-linejoin: miter; stroke-linecap: square"/>
   </g>
   <g id="patch_5">
    <path d="M 49.474054 211.381683 
L 349.2 211.381683 
" style="fill: none; stroke: #000000; stroke-width: 0.8; stroke-linejoin: miter; stroke-linecap: square"/>
   </g>
   <g id="patch_6">
    <path d="M 49.474054 11.513617 
L 349.2 11.513617 
" style="fill: none; stroke: #000000; stroke-width: 0.8; stroke-linejoin: miter; stroke-linecap: square"/>
   </g>
   <g id="legend_1">
    <g id="patch_7">
     <path d="M 173.219846 206.381683 
L 225.454209 206.381683 
Q 227.454209 206.381683 227.454209 204.381683 
L 227.454209 140.409237 
Q 227.454209 138.409237 225.454209 138.409237 
L 173.219846 138.409237 
Q 171.219846 138.409237 171.219846 140.409237 
L 171.219846 204.381683 
Q 171.219846 206.381683 173.219846 206.381683 
z
" style="fill: #ffffff; opacity: 0.8; stroke: #cccccc; stroke-linejoin: miter"/>
    </g>
    <g id="line2d_37">
     <path d="M 175.219846 147.367539 
L 185.219846 147.367539 
L 195.219846 147.367539 
" style="fill: none; stroke-dasharray: 3.5,5.775; stroke-dashoffset: 0; stroke: #1f77b4; stroke-width: 3.5"/>
    </g>
    <g id="text_19">
     <!-- $\kappa_{\mathrm{be},1}^\mathrm{d}$ -->
     <g transform="translate(203.219846 150.867539) scale(0.1 -0.1)">
      <defs>
       <path id="CMMI12-3b" d="M 1248 -31 
C 1248 343 1126 619 864 619 
C 659 619 557 453 557 313 
C 557 172 653 0 870 0 
C 954 0 1024 26 1082 83 
C 1094 96 1101 96 1107 96 
C 1120 96 1120 5 1120 -27 
C 1120 -240 1082 -659 710 -1080 
C 640 -1157 640 -1170 640 -1183 
C 640 -1216 672 -1248 704 -1248 
C 755 -1248 1248 -771 1248 -31 
z
" transform="scale(0.015625)"/>
      </defs>
      <use xlink:href="#CMMI12-14" transform="scale(0.996264)"/>
      <use xlink:href="#CMR17-64" transform="translate(56.154624 36.153639) scale(0.697382)"/>
      <use xlink:href="#CMR17-62" transform="translate(56.154624 -28.215451) scale(0.697382)"/>
      <use xlink:href="#CMR17-65" transform="translate(93.602938 -28.215451) scale(0.697382)"/>
      <use xlink:href="#CMMI12-3b" transform="translate(121.94277 -28.215451) scale(0.697382)"/>
      <use xlink:href="#CMR17-31" transform="translate(140.910702 -28.215451) scale(0.697382)"/>
     </g>
    </g>
    <g id="line2d_38">
     <path d="M 175.219846 165.003367 
L 185.219846 165.003367 
L 195.219846 165.003367 
" style="fill: none; stroke-dasharray: 3.5,5.775; stroke-dashoffset: 0; stroke: #ff7f0e; stroke-width: 3.5"/>
    </g>
    <g id="text_20">
     <!-- $\kappa_{\mathrm{be},2}^\mathrm{d}$ -->
     <g transform="translate(203.219846 168.503367) scale(0.1 -0.1)">
      <use xlink:href="#CMMI12-14" transform="scale(0.996264)"/>
      <use xlink:href="#CMR17-64" transform="translate(56.154624 36.153639) scale(0.697382)"/>
      <use xlink:href="#CMR17-62" transform="translate(56.154624 -28.215451) scale(0.697382)"/>
      <use xlink:href="#CMR17-65" transform="translate(93.602938 -28.215451) scale(0.697382)"/>
      <use xlink:href="#CMMI12-3b" transform="translate(121.94277 -28.215451) scale(0.697382)"/>
      <use xlink:href="#CMR17-32" transform="translate(140.910702 -28.215451) scale(0.697382)"/>
     </g>
    </g>
    <g id="line2d_39">
     <path d="M 175.219846 181.180893 
L 185.219846 181.180893 
L 195.219846 181.180893 
" style="fill: none; stroke: #1f77b4; stroke-width: 2; stroke-linecap: square"/>
    </g>
    <g id="text_21">
     <!-- $\kappa_{\mathrm{be},1}$ -->
     <g transform="translate(203.219846 184.680893) scale(0.1 -0.1)">
      <use xlink:href="#CMMI12-14" transform="scale(0.996264)"/>
      <use xlink:href="#CMR17-62" transform="translate(56.154624 -14.943915) scale(0.697382)"/>
      <use xlink:href="#CMR17-65" transform="translate(93.602938 -14.943915) scale(0.697382)"/>
      <use xlink:href="#CMMI12-3b" transform="translate(121.94277 -14.943915) scale(0.697382)"/>
      <use xlink:href="#CMR17-31" transform="translate(140.910702 -14.943915) scale(0.697382)"/>
     </g>
    </g>
    <g id="line2d_40">
     <path d="M 175.219846 196.031288 
L 185.219846 196.031288 
L 195.219846 196.031288 
" style="fill: none; stroke: #ff7f0e; stroke-width: 2; stroke-linecap: square"/>
    </g>
    <g id="text_22">
     <!-- $\kappa_{\mathrm{be},2}$ -->
     <g transform="translate(203.219846 199.531288) scale(0.1 -0.1)">
      <use xlink:href="#CMMI12-14" transform="scale(0.996264)"/>
      <use xlink:href="#CMR17-62" transform="translate(56.154624 -14.943915) scale(0.697382)"/>
      <use xlink:href="#CMR17-65" transform="translate(93.602938 -14.943915) scale(0.697382)"/>
      <use xlink:href="#CMMI12-3b" transform="translate(121.94277 -14.943915) scale(0.697382)"/>
      <use xlink:href="#CMR17-32" transform="translate(140.910702 -14.943915) scale(0.697382)"/>
     </g>
    </g>
   </g>
  </g>
 </g>
 <defs>
  <clipPath id="pc28fdc8754">
   <rect x="49.474054" y="11.513617" width="299.725946" height="199.868066"/>
  </clipPath>
 </defs>
</svg>
