<?xml version="1.0" encoding="utf-8" standalone="no"?>
<!DOCTYPE svg PUBLIC "-//W3C//DTD SVG 1.1//EN"
  "http://www.w3.org/Graphics/SVG/1.1/DTD/svg11.dtd">
<svg xmlns:xlink="http://www.w3.org/1999/xlink" width="360pt" height="252pt" viewBox="0 0 360 252" xmlns="http://www.w3.org/2000/svg" version="1.1">
 <metadata>
  <rdf:RDF xmlns:dc="http://purl.org/dc/elements/1.1/" xmlns:cc="http://creativecommons.org/ns#" xmlns:rdf="http://www.w3.org/1999/02/22-rdf-syntax-ns#">
   <cc:Work>
    <dc:type rdf:resource="http://purl.org/dc/dcmitype/StillImage"/>
    <dc:date>2024-10-22T10:34:08.869666</dc:date>
    <dc:format>image/svg+xml</dc:format>
    <dc:creator>
     <cc:Agent>
      <dc:title>Matplotlib v3.9.2, https://matplotlib.org/</dc:title>
     </cc:Agent>
    </dc:creator>
   </cc:Work>
  </rdf:RDF>
 </metadata>
 <defs>
  <style type="text/css">*{stroke-linejoin: round; stroke-linecap: butt}</style>
 </defs>
 <g id="figure_1">
  <g id="patch_1">
   <path d="M 0 252 
L 360 252 
L 360 0 
L 0 0 
z
" style="fill: #ffffff"/>
  </g>
  <g id="axes_1">
   <g id="patch_2">
    <path d="M 51.134499 211.381683 
L 349.2 211.381683 
L 349.2 10.8 
L 51.134499 10.8 
z
" style="fill: #ffffff"/>
   </g>
   <g id="matplotlib.axis_1">
    <g id="xtick_1">
     <g id="line2d_1">
      <path d="M 64.682931 211.381683 
L 64.682931 10.8 
" clip-path="url(#p13c9708935)" style="fill: none; stroke: #b0b0b0; stroke-width: 0.8; stroke-linecap: square"/>
     </g>
     <g id="line2d_2">
      <defs>
       <path id="m8f47008f80" d="M 0 0 
L 0 3.5 
" style="stroke: #000000; stroke-width: 0.8"/>
      </defs>
      <g>
       <use xlink:href="#m8f47008f80" x="64.682931" y="211.381683" style="stroke: #000000; stroke-width: 0.8"/>
      </g>
     </g>
     <g id="text_1">
      <!-- $\mathdefault{0}$ -->
      <g transform="translate(62.192264 225.300182) scale(0.1 -0.1)">
       <defs>
        <path id="CMR17-30" d="M 2688 2025 
C 2688 2416 2682 3080 2413 3591 
C 2176 4039 1798 4198 1466 4198 
C 1158 4198 768 4058 525 3597 
C 269 3118 243 2524 243 2025 
C 243 1661 250 1106 448 619 
C 723 -39 1216 -128 1466 -128 
C 1760 -128 2208 -7 2470 600 
C 2662 1042 2688 1559 2688 2025 
z
M 1466 -26 
C 1056 -26 813 325 723 812 
C 653 1188 653 1738 653 2096 
C 653 2588 653 2997 736 3387 
C 858 3929 1216 4096 1466 4096 
C 1728 4096 2067 3923 2189 3400 
C 2272 3036 2278 2607 2278 2096 
C 2278 1680 2278 1169 2202 792 
C 2067 95 1690 -26 1466 -26 
z
" transform="scale(0.015625)"/>
       </defs>
       <use xlink:href="#CMR17-30" transform="scale(0.996264)"/>
      </g>
     </g>
    </g>
    <g id="xtick_2">
     <g id="line2d_3">
      <path d="M 103.392737 211.381683 
L 103.392737 10.8 
" clip-path="url(#p13c9708935)" style="fill: none; stroke: #b0b0b0; stroke-width: 0.8; stroke-linecap: square"/>
     </g>
     <g id="line2d_4">
      <g>
       <use xlink:href="#m8f47008f80" x="103.392737" y="211.381683" style="stroke: #000000; stroke-width: 0.8"/>
      </g>
     </g>
     <g id="text_2">
      <!-- $\mathdefault{5}$ -->
      <g transform="translate(100.902069 225.300182) scale(0.1 -0.1)">
       <defs>
        <path id="CMR17-35" d="M 730 3692 
C 794 3666 1056 3584 1325 3584 
C 1920 3584 2246 3911 2432 4100 
C 2432 4157 2432 4192 2394 4192 
C 2387 4192 2374 4192 2323 4163 
C 2099 4058 1837 3973 1517 3973 
C 1325 3973 1037 3999 723 4139 
C 653 4171 640 4171 634 4171 
C 602 4171 595 4164 595 4037 
L 595 2203 
C 595 2089 595 2057 659 2057 
C 691 2057 704 2070 736 2114 
C 941 2401 1222 2522 1542 2522 
C 1766 2522 2246 2382 2246 1289 
C 2246 1085 2246 715 2054 421 
C 1894 159 1645 25 1370 25 
C 947 25 518 320 403 814 
C 429 807 480 795 506 795 
C 589 795 749 840 749 1038 
C 749 1210 627 1280 506 1280 
C 358 1280 262 1190 262 1011 
C 262 454 704 -128 1382 -128 
C 2042 -128 2669 440 2669 1264 
C 2669 2030 2170 2624 1549 2624 
C 1222 2624 947 2503 730 2274 
L 730 3692 
z
" transform="scale(0.015625)"/>
       </defs>
       <use xlink:href="#CMR17-35" transform="scale(0.996264)"/>
      </g>
     </g>
    </g>
    <g id="xtick_3">
     <g id="line2d_5">
      <path d="M 142.102542 211.381683 
L 142.102542 10.8 
" clip-path="url(#p13c9708935)" style="fill: none; stroke: #b0b0b0; stroke-width: 0.8; stroke-linecap: square"/>
     </g>
     <g id="line2d_6">
      <g>
       <use xlink:href="#m8f47008f80" x="142.102542" y="211.381683" style="stroke: #000000; stroke-width: 0.8"/>
      </g>
     </g>
     <g id="text_3">
      <!-- $\mathdefault{10}$ -->
      <g transform="translate(137.121207 225.300182) scale(0.1 -0.1)">
       <defs>
        <path id="CMR17-31" d="M 1702 4058 
C 1702 4192 1696 4192 1606 4192 
C 1357 3916 979 3827 621 3827 
C 602 3827 570 3827 563 3808 
C 557 3795 557 3782 557 3648 
C 755 3648 1088 3686 1344 3839 
L 1344 461 
C 1344 236 1331 160 781 160 
L 589 160 
L 589 0 
C 896 0 1216 0 1523 0 
C 1830 0 2150 0 2458 0 
L 2458 160 
L 2266 160 
C 1715 160 1702 230 1702 458 
L 1702 4058 
z
" transform="scale(0.015625)"/>
       </defs>
       <use xlink:href="#CMR17-31" transform="scale(0.996264)"/>
       <use xlink:href="#CMR17-30" transform="translate(45.690477 0) scale(0.996264)"/>
      </g>
     </g>
    </g>
    <g id="xtick_4">
     <g id="line2d_7">
      <path d="M 180.812347 211.381683 
L 180.812347 10.8 
" clip-path="url(#p13c9708935)" style="fill: none; stroke: #b0b0b0; stroke-width: 0.8; stroke-linecap: square"/>
     </g>
     <g id="line2d_8">
      <g>
       <use xlink:href="#m8f47008f80" x="180.812347" y="211.381683" style="stroke: #000000; stroke-width: 0.8"/>
      </g>
     </g>
     <g id="text_4">
      <!-- $\mathdefault{15}$ -->
      <g transform="translate(175.831012 225.300182) scale(0.1 -0.1)">
       <use xlink:href="#CMR17-31" transform="scale(0.996264)"/>
       <use xlink:href="#CMR17-35" transform="translate(45.690477 0) scale(0.996264)"/>
      </g>
     </g>
    </g>
    <g id="xtick_5">
     <g id="line2d_9">
      <path d="M 219.522152 211.381683 
L 219.522152 10.8 
" clip-path="url(#p13c9708935)" style="fill: none; stroke: #b0b0b0; stroke-width: 0.8; stroke-linecap: square"/>
     </g>
     <g id="line2d_10">
      <g>
       <use xlink:href="#m8f47008f80" x="219.522152" y="211.381683" style="stroke: #000000; stroke-width: 0.8"/>
      </g>
     </g>
     <g id="text_5">
      <!-- $\mathdefault{20}$ -->
      <g transform="translate(214.540817 225.300182) scale(0.1 -0.1)">
       <defs>
        <path id="CMR17-32" d="M 2669 989 
L 2554 989 
C 2490 536 2438 459 2413 420 
C 2381 369 1920 369 1830 369 
L 602 369 
C 832 619 1280 1072 1824 1597 
C 2214 1967 2669 2402 2669 3035 
C 2669 3790 2067 4224 1395 4224 
C 691 4224 262 3604 262 3030 
C 262 2780 448 2748 525 2748 
C 589 2748 781 2787 781 3010 
C 781 3207 614 3264 525 3264 
C 486 3264 448 3258 422 3245 
C 544 3790 915 4058 1306 4058 
C 1862 4058 2227 3617 2227 3035 
C 2227 2479 1901 2000 1536 1584 
L 262 146 
L 262 0 
L 2515 0 
L 2669 989 
z
" transform="scale(0.015625)"/>
       </defs>
       <use xlink:href="#CMR17-32" transform="scale(0.996264)"/>
       <use xlink:href="#CMR17-30" transform="translate(45.690477 0) scale(0.996264)"/>
      </g>
     </g>
    </g>
    <g id="xtick_6">
     <g id="line2d_11">
      <path d="M 258.231958 211.381683 
L 258.231958 10.8 
" clip-path="url(#p13c9708935)" style="fill: none; stroke: #b0b0b0; stroke-width: 0.8; stroke-linecap: square"/>
     </g>
     <g id="line2d_12">
      <g>
       <use xlink:href="#m8f47008f80" x="258.231958" y="211.381683" style="stroke: #000000; stroke-width: 0.8"/>
      </g>
     </g>
     <g id="text_6">
      <!-- $\mathdefault{25}$ -->
      <g transform="translate(253.250622 225.300182) scale(0.1 -0.1)">
       <use xlink:href="#CMR17-32" transform="scale(0.996264)"/>
       <use xlink:href="#CMR17-35" transform="translate(45.690477 0) scale(0.996264)"/>
      </g>
     </g>
    </g>
    <g id="xtick_7">
     <g id="line2d_13">
      <path d="M 296.941763 211.381683 
L 296.941763 10.8 
" clip-path="url(#p13c9708935)" style="fill: none; stroke: #b0b0b0; stroke-width: 0.8; stroke-linecap: square"/>
     </g>
     <g id="line2d_14">
      <g>
       <use xlink:href="#m8f47008f80" x="296.941763" y="211.381683" style="stroke: #000000; stroke-width: 0.8"/>
      </g>
     </g>
     <g id="text_7">
      <!-- $\mathdefault{30}$ -->
      <g transform="translate(291.960428 225.300182) scale(0.1 -0.1)">
       <defs>
        <path id="CMR17-33" d="M 1414 2157 
C 1984 2157 2234 1662 2234 1090 
C 2234 320 1824 25 1453 25 
C 1114 25 563 194 390 693 
C 422 680 454 680 486 680 
C 640 680 755 782 755 948 
C 755 1133 614 1216 486 1216 
C 378 1216 211 1165 211 926 
C 211 335 787 -128 1466 -128 
C 2176 -128 2720 430 2720 1085 
C 2720 1707 2208 2157 1600 2227 
C 2086 2328 2554 2756 2554 3329 
C 2554 3820 2048 4179 1472 4179 
C 890 4179 378 3829 378 3329 
C 378 3110 544 3072 627 3072 
C 762 3072 877 3155 877 3321 
C 877 3486 762 3569 627 3569 
C 602 3569 570 3569 544 3557 
C 730 3959 1235 4032 1459 4032 
C 1683 4032 2106 3925 2106 3320 
C 2106 3143 2080 2828 1862 2550 
C 1670 2304 1453 2304 1242 2284 
C 1210 2284 1062 2269 1037 2269 
C 992 2263 966 2257 966 2208 
C 966 2163 973 2157 1101 2157 
L 1414 2157 
z
" transform="scale(0.015625)"/>
       </defs>
       <use xlink:href="#CMR17-33" transform="scale(0.996264)"/>
       <use xlink:href="#CMR17-30" transform="translate(45.690477 0) scale(0.996264)"/>
      </g>
     </g>
    </g>
    <g id="xtick_8">
     <g id="line2d_15">
      <path d="M 335.651568 211.381683 
L 335.651568 10.8 
" clip-path="url(#p13c9708935)" style="fill: none; stroke: #b0b0b0; stroke-width: 0.8; stroke-linecap: square"/>
     </g>
     <g id="line2d_16">
      <g>
       <use xlink:href="#m8f47008f80" x="335.651568" y="211.381683" style="stroke: #000000; stroke-width: 0.8"/>
      </g>
     </g>
     <g id="text_8">
      <!-- $\mathdefault{35}$ -->
      <g transform="translate(330.670233 225.300182) scale(0.1 -0.1)">
       <use xlink:href="#CMR17-33" transform="scale(0.996264)"/>
       <use xlink:href="#CMR17-35" transform="translate(45.690477 0) scale(0.996264)"/>
      </g>
     </g>
    </g>
    <g id="text_9">
     <!-- Time $t$ [s] -->
     <g transform="translate(178.968942 238.70934) scale(0.1 -0.1)">
      <defs>
       <path id="CMR17-54" d="M 3981 4326 
L 288 4326 
L 179 2918 
L 294 2918 
C 378 3976 467 4160 1453 4160 
C 1568 4160 1754 4160 1805 4154 
C 1926 4135 1926 4058 1926 3912 
L 1926 459 
C 1926 230 1907 160 1376 160 
L 1197 160 
L 1197 0 
C 1504 0 1824 0 2138 0 
C 2451 0 2771 0 3078 0 
L 3078 160 
L 2899 160 
C 2368 160 2349 230 2349 459 
L 2349 3912 
C 2349 4052 2349 4129 2464 4154 
C 2515 4160 2701 4160 2816 4160 
C 3795 4160 3891 3976 3974 2918 
L 4090 2918 
L 3981 4326 
z
" transform="scale(0.015625)"/>
       <path id="CMR17-69" d="M 992 3909 
C 992 4049 877 4170 730 4170 
C 589 4170 467 4056 467 3909 
C 467 3769 582 3648 730 3648 
C 870 3648 992 3763 992 3909 
z
M 243 2706 
L 243 2541 
C 602 2541 653 2502 653 2197 
L 653 427 
C 653 184 627 153 218 153 
L 218 -13 
C 371 0 646 0 806 0 
C 960 0 1222 0 1370 -13 
L 1370 153 
C 992 153 979 191 979 420 
L 979 2776 
L 243 2706 
z
" transform="scale(0.015625)"/>
       <path id="CMR17-6d" d="M 4326 1933 
C 4326 2252 4269 2790 3507 2790 
C 3072 2790 2771 2496 2656 2151 
L 2650 2151 
C 2573 2676 2195 2790 1837 2790 
C 1331 2790 1069 2400 973 2144 
L 966 2144 
L 966 2790 
L 211 2720 
L 211 2554 
C 589 2554 646 2515 646 2208 
L 646 428 
C 646 184 621 153 211 153 
L 211 -13 
C 365 0 646 0 813 0 
C 979 0 1267 0 1421 -13 
L 1421 153 
C 1011 153 986 178 986 428 
L 986 1658 
C 986 2247 1344 2688 1792 2688 
C 2266 2688 2317 2266 2317 1958 
L 2317 428 
C 2317 184 2291 153 1882 153 
L 1882 -13 
C 2035 0 2317 0 2483 0 
C 2650 0 2938 0 3091 -13 
L 3091 153 
C 2682 153 2656 178 2656 428 
L 2656 1658 
C 2656 2247 3014 2688 3462 2688 
C 3936 2688 3987 2266 3987 1958 
L 3987 428 
C 3987 184 3962 153 3552 153 
L 3552 -13 
C 3706 0 3987 0 4154 0 
C 4320 0 4608 0 4762 -13 
L 4762 153 
C 4352 153 4326 178 4326 428 
L 4326 1933 
z
" transform="scale(0.015625)"/>
       <path id="CMR17-65" d="M 2438 1472 
C 2464 1498 2464 1511 2464 1576 
C 2464 2238 2118 2816 1389 2816 
C 710 2816 173 2169 173 1383 
C 173 551 781 -64 1459 -64 
C 2176 -64 2458 607 2458 740 
C 2458 784 2419 784 2406 784 
C 2362 784 2355 771 2330 696 
C 2189 265 1837 51 1504 51 
C 1229 51 954 203 781 480 
C 582 803 582 1176 582 1472 
L 2438 1472 
z
M 589 1568 
C 634 2505 1126 2714 1382 2714 
C 1818 2714 2112 2297 2118 1568 
L 589 1568 
z
" transform="scale(0.015625)"/>
       <path id="CMMI12-74" d="M 1286 2566 
L 1875 2566 
C 1997 2566 2061 2566 2061 2681 
C 2061 2752 2022 2752 1894 2752 
L 1331 2752 
L 1568 3692 
C 1594 3781 1594 3794 1594 3840 
C 1594 3943 1510 4000 1427 4000 
C 1376 4000 1229 3981 1178 3775 
L 928 2752 
L 326 2752 
C 198 2752 141 2752 141 2630 
C 141 2566 186 2566 307 2566 
L 877 2566 
L 454 881 
C 403 658 384 594 384 511 
C 384 211 595 -64 954 -64 
C 1600 -64 1946 868 1946 912 
C 1946 951 1920 970 1882 970 
C 1869 970 1843 970 1830 944 
C 1824 938 1818 931 1773 829 
C 1638 511 1344 64 973 64 
C 781 64 768 224 768 364 
C 768 370 768 492 787 568 
L 1286 2566 
z
" transform="scale(0.015625)"/>
       <path id="CMR17-5b" d="M 1504 -1600 
L 1504 -1377 
L 902 -1377 
L 902 4544 
L 1504 4544 
L 1504 4767 
L 678 4767 
L 678 -1600 
L 1504 -1600 
z
" transform="scale(0.015625)"/>
       <path id="CMR17-73" d="M 1978 2697 
C 1978 2813 1971 2819 1933 2819 
C 1907 2819 1901 2813 1824 2717 
C 1805 2691 1747 2626 1728 2601 
C 1523 2819 1235 2819 1126 2819 
C 416 2819 160 2447 160 2076 
C 160 1498 813 1365 998 1325 
C 1402 1243 1542 1217 1677 1101 
C 1760 1025 1901 884 1901 654 
C 1901 384 1747 38 1158 38 
C 602 38 403 460 288 1021 
C 269 1110 269 1117 218 1117 
C 166 1117 160 1110 160 983 
L 160 63 
C 160 -51 166 -58 205 -58 
C 237 -58 243 -51 275 0 
C 314 57 410 211 448 276 
C 576 103 800 -64 1158 -64 
C 1792 -64 2131 283 2131 784 
C 2131 1112 1958 1285 1875 1362 
C 1683 1561 1459 1606 1190 1657 
C 838 1735 390 1825 390 2217 
C 390 2383 480 2737 1126 2737 
C 1811 2737 1850 2094 1862 1888 
C 1869 1856 1901 1849 1920 1849 
C 1978 1849 1978 1869 1978 1978 
L 1978 2697 
z
" transform="scale(0.015625)"/>
       <path id="CMR17-5d" d="M 915 4767 
L 90 4767 
L 90 4544 
L 691 4544 
L 691 -1377 
L 90 -1377 
L 90 -1600 
L 915 -1600 
L 915 4767 
z
" transform="scale(0.015625)"/>
      </defs>
      <use xlink:href="#CMR17-54" transform="scale(0.996264)"/>
      <use xlink:href="#CMR17-69" transform="translate(66.509881 0) scale(0.996264)"/>
      <use xlink:href="#CMR17-6d" transform="translate(91.380939 0) scale(0.996264)"/>
      <use xlink:href="#CMR17-65" transform="translate(168.300529 0) scale(0.996264)"/>
      <use xlink:href="#CMMI12-74" transform="translate(238.862156 0) scale(0.996264)"/>
      <use xlink:href="#CMR17-5b" transform="translate(304.164452 0) scale(0.996264)"/>
      <use xlink:href="#CMR17-73" transform="translate(329.035511 0) scale(0.996264)"/>
      <use xlink:href="#CMR17-5d" transform="translate(364.836848 0) scale(0.996264)"/>
     </g>
    </g>
   </g>
   <g id="matplotlib.axis_2">
    <g id="ytick_1">
     <g id="line2d_17">
      <path d="M 51.134499 200.944474 
L 349.2 200.944474 
" clip-path="url(#p13c9708935)" style="fill: none; stroke: #b0b0b0; stroke-width: 0.8; stroke-linecap: square"/>
     </g>
     <g id="line2d_18">
      <defs>
       <path id="m3a9c66cbcb" d="M 0 0 
L -3.5 0 
" style="stroke: #000000; stroke-width: 0.8"/>
      </defs>
      <g>
       <use xlink:href="#m3a9c66cbcb" x="51.134499" y="200.944474" style="stroke: #000000; stroke-width: 0.8"/>
      </g>
     </g>
     <g id="text_10">
      <!-- $\mathdefault{−1.5}$ -->
      <g transform="translate(23.655677 204.403723) scale(0.1 -0.1)">
       <defs>
        <path id="CMSY10-0" d="M 4218 1472 
C 4326 1472 4442 1472 4442 1600 
C 4442 1728 4326 1728 4218 1728 
L 755 1728 
C 646 1728 531 1728 531 1600 
C 531 1472 646 1472 755 1472 
L 4218 1472 
z
" transform="scale(0.015625)"/>
        <path id="CMMI12-3a" d="M 1178 307 
C 1178 492 1024 619 870 619 
C 685 619 557 466 557 313 
C 557 128 710 0 864 0 
C 1050 0 1178 153 1178 307 
z
" transform="scale(0.015625)"/>
       </defs>
       <use xlink:href="#CMSY10-0" transform="scale(0.996264)"/>
       <use xlink:href="#CMR17-31" transform="translate(77.487468 0) scale(0.996264)"/>
       <use xlink:href="#CMMI12-3a" transform="translate(123.177945 0) scale(0.996264)"/>
       <use xlink:href="#CMR17-35" transform="translate(150.275122 0) scale(0.996264)"/>
      </g>
     </g>
    </g>
    <g id="ytick_2">
     <g id="line2d_19">
      <path d="M 51.134499 168.032324 
L 349.2 168.032324 
" clip-path="url(#p13c9708935)" style="fill: none; stroke: #b0b0b0; stroke-width: 0.8; stroke-linecap: square"/>
     </g>
     <g id="line2d_20">
      <g>
       <use xlink:href="#m3a9c66cbcb" x="51.134499" y="168.032324" style="stroke: #000000; stroke-width: 0.8"/>
      </g>
     </g>
     <g id="text_11">
      <!-- $\mathdefault{−1.0}$ -->
      <g transform="translate(23.655677 171.491573) scale(0.1 -0.1)">
       <use xlink:href="#CMSY10-0" transform="scale(0.996264)"/>
       <use xlink:href="#CMR17-31" transform="translate(77.487468 0) scale(0.996264)"/>
       <use xlink:href="#CMMI12-3a" transform="translate(123.177945 0) scale(0.996264)"/>
       <use xlink:href="#CMR17-30" transform="translate(150.275122 0) scale(0.996264)"/>
      </g>
     </g>
    </g>
    <g id="ytick_3">
     <g id="line2d_21">
      <path d="M 51.134499 135.120174 
L 349.2 135.120174 
" clip-path="url(#p13c9708935)" style="fill: none; stroke: #b0b0b0; stroke-width: 0.8; stroke-linecap: square"/>
     </g>
     <g id="line2d_22">
      <g>
       <use xlink:href="#m3a9c66cbcb" x="51.134499" y="135.120174" style="stroke: #000000; stroke-width: 0.8"/>
      </g>
     </g>
     <g id="text_12">
      <!-- $\mathdefault{−0.5}$ -->
      <g transform="translate(23.655677 138.579423) scale(0.1 -0.1)">
       <use xlink:href="#CMSY10-0" transform="scale(0.996264)"/>
       <use xlink:href="#CMR17-30" transform="translate(77.487468 0) scale(0.996264)"/>
       <use xlink:href="#CMMI12-3a" transform="translate(123.177945 0) scale(0.996264)"/>
       <use xlink:href="#CMR17-35" transform="translate(150.275122 0) scale(0.996264)"/>
      </g>
     </g>
    </g>
    <g id="ytick_4">
     <g id="line2d_23">
      <path d="M 51.134499 102.208024 
L 349.2 102.208024 
" clip-path="url(#p13c9708935)" style="fill: none; stroke: #b0b0b0; stroke-width: 0.8; stroke-linecap: square"/>
     </g>
     <g id="line2d_24">
      <g>
       <use xlink:href="#m3a9c66cbcb" x="51.134499" y="102.208024" style="stroke: #000000; stroke-width: 0.8"/>
      </g>
     </g>
     <g id="text_13">
      <!-- $\mathdefault{0.0}$ -->
      <g transform="translate(31.40442 105.667274) scale(0.1 -0.1)">
       <use xlink:href="#CMR17-30" transform="scale(0.996264)"/>
       <use xlink:href="#CMMI12-3a" transform="translate(45.690477 0) scale(0.996264)"/>
       <use xlink:href="#CMR17-30" transform="translate(72.787654 0) scale(0.996264)"/>
      </g>
     </g>
    </g>
    <g id="ytick_5">
     <g id="line2d_25">
      <path d="M 51.134499 69.295875 
L 349.2 69.295875 
" clip-path="url(#p13c9708935)" style="fill: none; stroke: #b0b0b0; stroke-width: 0.8; stroke-linecap: square"/>
     </g>
     <g id="line2d_26">
      <g>
       <use xlink:href="#m3a9c66cbcb" x="51.134499" y="69.295875" style="stroke: #000000; stroke-width: 0.8"/>
      </g>
     </g>
     <g id="text_14">
      <!-- $\mathdefault{0.5}$ -->
      <g transform="translate(31.40442 72.755124) scale(0.1 -0.1)">
       <use xlink:href="#CMR17-30" transform="scale(0.996264)"/>
       <use xlink:href="#CMMI12-3a" transform="translate(45.690477 0) scale(0.996264)"/>
       <use xlink:href="#CMR17-35" transform="translate(72.787654 0) scale(0.996264)"/>
      </g>
     </g>
    </g>
    <g id="ytick_6">
     <g id="line2d_27">
      <path d="M 51.134499 36.383725 
L 349.2 36.383725 
" clip-path="url(#p13c9708935)" style="fill: none; stroke: #b0b0b0; stroke-width: 0.8; stroke-linecap: square"/>
     </g>
     <g id="line2d_28">
      <g>
       <use xlink:href="#m3a9c66cbcb" x="51.134499" y="36.383725" style="stroke: #000000; stroke-width: 0.8"/>
      </g>
     </g>
     <g id="text_15">
      <!-- $\mathdefault{1.0}$ -->
      <g transform="translate(31.40442 39.842974) scale(0.1 -0.1)">
       <use xlink:href="#CMR17-31" transform="scale(0.996264)"/>
       <use xlink:href="#CMMI12-3a" transform="translate(45.690477 0) scale(0.996264)"/>
       <use xlink:href="#CMR17-30" transform="translate(72.787654 0) scale(0.996264)"/>
      </g>
     </g>
    </g>
    <g id="text_16">
     <!-- Control signal $\tau$ -->
     <g transform="translate(17.718498 145.550227) rotate(-90) scale(0.1 -0.1)">
      <defs>
       <path id="CMR17-43" d="M 3974 4289 
C 3974 4403 3968 4410 3930 4410 
C 3904 4410 3898 4403 3853 4327 
L 3571 3792 
C 3258 4187 2874 4416 2381 4416 
C 1286 4416 294 3456 294 2148 
C 294 826 1286 -128 2387 -128 
C 3366 -128 3974 730 3974 1461 
C 3974 1524 3974 1550 3917 1550 
C 3866 1550 3866 1531 3859 1474 
C 3808 585 3168 38 2477 38 
C 1824 38 781 495 781 2147 
C 781 3805 1843 4250 2464 4250 
C 3187 4250 3712 3628 3834 2745 
C 3846 2668 3846 2655 3904 2655 
C 3974 2655 3974 2668 3974 2783 
L 3974 4289 
z
" transform="scale(0.015625)"/>
       <path id="CMR17-6f" d="M 2758 1356 
C 2758 2176 2163 2816 1466 2816 
C 768 2816 173 2176 173 1356 
C 173 551 768 -64 1466 -64 
C 2163 -64 2758 551 2758 1356 
z
M 1466 51 
C 1165 51 909 230 762 480 
C 602 767 582 1126 582 1408 
C 582 1677 595 2010 762 2298 
C 890 2509 1139 2714 1466 2714 
C 1754 2714 1997 2554 2150 2330 
C 2349 2029 2349 1607 2349 1408 
C 2349 1158 2336 775 2163 467 
C 1984 173 1709 51 1466 51 
z
" transform="scale(0.015625)"/>
       <path id="CMR17-6e" d="M 2656 1933 
C 2656 2259 2592 2790 1837 2790 
C 1331 2790 1069 2400 973 2144 
L 966 2144 
L 966 2790 
L 211 2720 
L 211 2554 
C 589 2554 646 2515 646 2208 
L 646 428 
C 646 184 621 153 211 153 
L 211 -13 
C 365 0 646 0 813 0 
C 979 0 1267 0 1421 -13 
L 1421 153 
C 1011 153 986 178 986 428 
L 986 1658 
C 986 2247 1344 2688 1792 2688 
C 2266 2688 2317 2266 2317 1958 
L 2317 428 
C 2317 184 2291 153 1882 153 
L 1882 -13 
C 2035 0 2317 0 2483 0 
C 2650 0 2938 0 3091 -13 
L 3091 153 
C 2682 153 2656 178 2656 428 
L 2656 1933 
z
" transform="scale(0.015625)"/>
       <path id="CMR17-74" d="M 966 2560 
L 1862 2560 
L 1862 2725 
L 966 2725 
L 966 3904 
L 851 3904 
C 838 3245 614 2668 70 2668 
L 70 2560 
L 627 2560 
L 627 771 
C 627 650 627 -64 1370 -64 
C 1747 -64 1965 306 1965 777 
L 1965 1140 
L 1850 1140 
L 1850 783 
C 1850 344 1677 51 1408 51 
C 1222 51 966 178 966 758 
L 966 2560 
z
" transform="scale(0.015625)"/>
       <path id="CMR17-72" d="M 960 1497 
C 960 2112 1222 2688 1702 2688 
C 1747 2688 1792 2682 1837 2662 
C 1837 2662 1696 2617 1696 2452 
C 1696 2298 1818 2234 1914 2234 
C 1990 2234 2131 2279 2131 2458 
C 2131 2663 1926 2790 1709 2790 
C 1222 2790 1011 2317 947 2093 
L 941 2093 
L 941 2790 
L 198 2720 
L 198 2554 
C 576 2554 634 2515 634 2208 
L 634 428 
C 634 184 608 153 198 153 
L 198 -13 
C 352 0 646 0 813 0 
C 998 0 1325 0 1498 -13 
L 1498 153 
C 1037 153 960 153 960 440 
L 960 1497 
z
" transform="scale(0.015625)"/>
       <path id="CMR17-6c" d="M 979 4396 
L 218 4326 
L 218 4160 
C 595 4160 653 4122 653 3817 
L 653 426 
C 653 184 627 153 218 153 
L 218 -13 
C 371 0 653 0 813 0 
C 979 0 1261 0 1414 -13 
L 1414 153 
C 1005 153 979 178 979 426 
L 979 4396 
z
" transform="scale(0.015625)"/>
       <path id="CMR17-67" d="M 710 1164 
C 832 1068 1043 960 1299 960 
C 1805 960 2240 1357 2240 1888 
C 2240 2054 2189 2310 1997 2509 
C 2176 2692 2438 2752 2586 2752 
C 2611 2752 2650 2752 2682 2734 
C 2656 2728 2598 2703 2598 2605 
C 2598 2527 2656 2471 2739 2471 
C 2835 2471 2886 2533 2886 2614 
C 2886 2731 2790 2854 2586 2854 
C 2330 2854 2106 2738 1926 2580 
C 1734 2753 1504 2816 1299 2816 
C 794 2816 358 2419 358 1888 
C 358 1522 570 1292 634 1228 
C 442 1004 442 743 442 711 
C 442 545 506 302 723 168 
C 390 85 128 -169 128 -486 
C 128 -943 736 -1280 1466 -1280 
C 2170 -1280 2803 -956 2803 -479 
C 2803 384 1856 384 1363 384 
C 1216 384 954 384 922 391 
C 723 423 589 602 589 826 
C 589 883 589 1024 710 1164 
z
M 1299 1068 
C 736 1068 736 1760 736 1889 
C 736 2016 736 2708 1299 2708 
C 1862 2708 1862 2016 1862 1889 
C 1862 1760 1862 1068 1299 1068 
z
M 1466 -1171 
C 826 -1171 384 -835 384 -486 
C 384 -289 493 -105 634 -4 
C 794 104 858 104 1293 104 
C 1818 104 2547 104 2547 -486 
C 2547 -835 2106 -1171 1466 -1171 
z
" transform="scale(0.015625)"/>
       <path id="CMR17-61" d="M 2304 1653 
C 2304 2072 2304 2294 2035 2543 
C 1798 2752 1523 2816 1306 2816 
C 800 2816 435 2407 435 1971 
C 435 1728 627 1728 666 1728 
C 749 1728 896 1778 896 1954 
C 896 2112 774 2181 666 2181 
C 640 2181 608 2174 589 2168 
C 723 2592 1069 2714 1293 2714 
C 1613 2714 1965 2429 1965 1885 
L 1965 1600 
C 1587 1600 1133 1549 774 1357 
C 371 1133 256 813 256 570 
C 256 77 832 -64 1171 -64 
C 1523 -64 1850 139 1990 511 
C 2003 233 2182 -18 2464 -18 
C 2598 -18 2938 70 2938 567 
L 2938 920 
L 2822 920 
L 2822 562 
C 2822 178 2650 128 2566 128 
C 2304 128 2304 458 2304 738 
L 2304 1653 
z
M 1965 870 
C 1965 317 1568 38 1216 38 
C 896 38 646 275 646 570 
C 646 761 730 1100 1101 1305 
C 1408 1478 1760 1504 1965 1504 
L 1965 870 
z
" transform="scale(0.015625)"/>
       <path id="CMMI12-1c" d="M 1837 2408 
L 2899 2408 
C 2982 2408 3194 2408 3194 2612 
C 3194 2752 3072 2752 2957 2752 
L 1197 2752 
C 1050 2752 832 2752 538 2440 
C 371 2255 166 1917 166 1879 
C 166 1841 198 1828 237 1828 
C 282 1828 288 1847 320 1885 
C 653 2408 986 2408 1146 2408 
L 1677 2408 
L 1011 223 
C 979 127 979 114 979 95 
C 979 25 1024 -64 1152 -64 
C 1350 -64 1382 108 1402 203 
L 1837 2408 
z
" transform="scale(0.015625)"/>
      </defs>
      <use xlink:href="#CMR17-43" transform="scale(0.996264)"/>
      <use xlink:href="#CMR17-6f" transform="translate(66.509881 0) scale(0.996264)"/>
      <use xlink:href="#CMR17-6e" transform="translate(112.200358 0) scale(0.996264)"/>
      <use xlink:href="#CMR17-74" transform="translate(160.493274 0) scale(0.996264)"/>
      <use xlink:href="#CMR17-72" transform="translate(195.774041 0) scale(0.996264)"/>
      <use xlink:href="#CMR17-6f" transform="translate(231.054809 0) scale(0.996264)"/>
      <use xlink:href="#CMR17-6c" transform="translate(276.745286 0) scale(0.996264)"/>
      <use xlink:href="#CMR17-73" transform="translate(331.692311 0) scale(0.996264)"/>
      <use xlink:href="#CMR17-69" transform="translate(367.493649 0) scale(0.996264)"/>
      <use xlink:href="#CMR17-67" transform="translate(392.364707 0) scale(0.996264)"/>
      <use xlink:href="#CMR17-6e" transform="translate(438.055184 0) scale(0.996264)"/>
      <use xlink:href="#CMR17-61" transform="translate(488.950554 0) scale(0.996264)"/>
      <use xlink:href="#CMR17-6c" transform="translate(534.641031 0) scale(0.996264)"/>
      <use xlink:href="#CMMI12-1c" transform="translate(589.588056 0) scale(0.996264)"/>
     </g>
    </g>
   </g>
   <g id="line2d_29">
    <path d="M 64.682931 114.724737 
L 64.83777 102.723259 
L 64.99261 102.578895 
L 66.153904 103.423167 
L 67.160359 103.77029 
L 68.553912 103.997454 
L 70.179724 104.048007 
L 81.328148 103.967301 
L 103.392737 103.961898 
L 103.470156 99.026726 
L 103.547576 101.086299 
L 103.624995 101.562074 
L 103.702415 101.530001 
L 104.399191 100.195911 
L 105.018548 99.589136 
L 105.792744 99.171943 
L 106.72178 98.904534 
L 108.192752 98.729932 
L 110.128243 98.701732 
L 124.296031 98.762483 
L 135.134777 98.757036 
L 142.102542 98.75723 
L 142.179961 102.589501 
L 142.257381 102.309146 
L 142.41222 102.291045 
L 143.108997 102.531416 
L 144.657389 102.765791 
L 146.670299 102.80371 
L 151.625154 102.751882 
L 161.380025 102.750804 
L 169.973602 102.749637 
L 180.812347 102.749443 
L 180.889767 99.21003 
L 181.044606 101.518297 
L 181.122026 101.503624 
L 181.973641 100.079706 
L 182.592998 99.55781 
L 183.444614 99.157322 
L 184.528488 98.906737 
L 186.076881 98.774382 
L 188.631728 98.798038 
L 193.431744 98.832849 
L 194.825297 98.837649 
L 219.522152 98.830933 
L 219.676992 101.818798 
L 219.831831 102.006432 
L 220.528607 101.416386 
L 221.380223 101.051095 
L 222.618937 100.781757 
L 223.857651 100.688833 
L 226.180239 100.740826 
L 228.889925 100.770779 
L 236.554467 100.76732 
L 248.012569 100.765645 
L 258.231958 100.765475 
L 258.309377 104.827295 
L 258.386797 103.141168 
L 258.464216 102.754203 
L 258.541636 102.787403 
L 259.238413 103.95676 
L 259.857769 104.506997 
L 260.709385 104.931892 
L 261.870679 105.211572 
L 263.341652 105.343379 
L 265.74166 105.323749 
L 271.238452 105.284621 
L 279.67719 105.281644 
L 286.103017 105.281722 
L 296.941763 105.281603 
L 297.019182 99.622058 
L 297.096602 101.397735 
L 297.174022 101.767854 
L 297.251441 101.700746 
L 297.793379 100.665432 
L 298.412735 100.046873 
L 299.186932 99.613683 
L 300.270806 99.298076 
L 301.741779 99.125366 
L 303.754689 99.113585 
L 311.41923 99.174229 
L 315.057952 99.169801 
L 333.870917 99.174865 
L 335.651568 99.175209 
L 335.651568 99.175209 
" clip-path="url(#p13c9708935)" style="fill: none; stroke: #1f77b4; stroke-width: 2; stroke-linecap: square"/>
   </g>
   <g id="line2d_30">
    <path d="M 64.682931 99.522355 
L 64.760351 98.251204 
L 64.91519 99.932008 
L 65.070029 100.028411 
L 66.308743 99.62424 
L 68.011975 99.398395 
L 70.489402 99.326427 
L 87.444297 99.303214 
L 93.560446 99.3 
L 103.392737 99.288314 
L 103.470156 115.631056 
L 103.547576 111.654871 
L 103.702415 110.214037 
L 103.857254 110.351629 
L 104.321772 110.843028 
L 105.018548 111.216587 
L 105.947584 111.423863 
L 107.650815 111.523647 
L 119.186337 111.746097 
L 121.586345 111.789355 
L 124.992808 111.844041 
L 137.844463 112.009263 
L 142.102542 112.056489 
L 142.179961 104.325202 
L 142.257381 104.869094 
L 142.41222 104.986758 
L 143.031577 104.817963 
L 144.812228 104.695582 
L 146.979977 104.668399 
L 170.438119 105.040192 
L 180.812347 105.159104 
L 180.889767 112.099957 
L 181.044606 107.4073 
L 181.199445 107.148068 
L 182.051061 107.857702 
L 182.825257 108.143396 
L 184.063971 108.310951 
L 187.083336 108.395022 
L 191.341414 108.467027 
L 198.231759 108.521133 
L 203.109195 108.566021 
L 209.767281 108.621523 
L 219.522152 108.687812 
L 219.676992 100.171227 
L 219.831831 99.600074 
L 221.070545 100.110685 
L 222.541517 100.317837 
L 224.554427 100.399774 
L 230.747996 100.356335 
L 236.786725 100.291672 
L 241.354483 100.251938 
L 258.231958 100.126341 
L 258.309377 95.133234 
L 258.464216 99.342331 
L 258.541636 99.536582 
L 258.619056 99.49622 
L 259.160993 98.957788 
L 259.857769 98.6149 
L 260.864224 98.387468 
L 262.567456 98.282972 
L 296.941763 98.077042 
L 297.019182 108.597172 
L 297.096602 105.157341 
L 297.251441 104.066459 
L 298.103057 104.924102 
L 298.877253 105.21371 
L 300.115967 105.404546 
L 302.593394 105.498675 
L 310.180516 105.557763 
L 317.225701 105.566959 
L 331.006392 105.606487 
L 335.651568 105.615474 
L 335.651568 105.615474 
" clip-path="url(#p13c9708935)" style="fill: none; stroke: #ff7f0e; stroke-width: 2; stroke-linecap: square"/>
   </g>
   <g id="line2d_31">
    <path d="M 64.682931 19.917349 
L 64.760351 95.445388 
L 64.83777 86.653596 
L 65.147449 64.049815 
L 65.457127 54.445224 
L 65.766806 50.380886 
L 66.076484 48.633444 
L 66.463582 47.73976 
L 66.85068 47.376415 
L 67.547457 47.090973 
L 69.250688 46.705936 
L 75.753936 45.789911 
L 76.450712 45.695744 
L 79.237818 45.347877 
L 81.560406 45.127144 
L 83.728155 44.913976 
L 87.676556 44.607865 
L 92.70883 44.300281 
L 103.392737 43.847246 
L 103.470156 107.26038 
L 103.547576 102.744865 
L 103.934674 78.629996 
L 104.244352 72.1955 
L 104.554031 69.742667 
L 104.863709 68.825827 
L 105.173388 68.488153 
L 105.715325 68.303893 
L 109.818564 67.679837 
L 113.147607 67.46531 
L 115.857294 67.168582 
L 119.108917 66.885042 
L 119.573435 66.829984 
L 120.65731 66.799306 
L 121.276667 66.731267 
L 122.205702 66.698354 
L 122.902478 66.646087 
L 123.676674 66.61324 
L 124.450871 66.566602 
L 125.225067 66.51635 
L 125.999263 66.493593 
L 126.850879 66.419593 
L 129.018628 66.353968 
L 136.683169 66.05565 
L 140.47673 65.959862 
L 142.102542 65.9194 
L 142.257381 115.222743 
L 142.567059 120.460448 
L 142.876738 122.634353 
L 143.186416 123.538257 
L 143.573514 123.974657 
L 144.115452 124.166899 
L 145.586424 124.308564 
L 151.625154 124.723714 
L 169.431664 125.36581 
L 180.812347 125.557677 
L 181.044606 81.377511 
L 181.354284 56.533279 
L 181.663963 46.751785 
L 181.973641 42.847949 
L 182.28332 41.290183 
L 182.592998 40.65715 
L 182.980096 40.334004 
L 183.676873 40.104187 
L 185.999461 39.455633 
L 189.947861 38.869014 
L 190.18012 38.865634 
L 191.031736 38.642693 
L 193.431744 38.294714 
L 193.741422 38.270627 
L 194.902716 37.989419 
L 196.373689 37.845073 
L 196.915626 37.742506 
L 198.07692 37.624569 
L 198.618857 37.559295 
L 199.470473 37.497966 
L 200.16725 37.39981 
L 201.018865 37.329278 
L 201.715642 37.256667 
L 202.489838 37.18822 
L 203.264034 37.125431 
L 204.11565 37.028607 
L 205.896301 36.888262 
L 208.06405 36.752385 
L 210.231799 36.595563 
L 212.941485 36.437578 
L 219.522152 36.144082 
L 219.676992 120.382254 
L 219.98667 127.514475 
L 220.296348 130.702383 
L 220.606027 132.093923 
L 220.993125 132.80371 
L 221.457643 133.113104 
L 222.231839 133.280043 
L 228.270568 133.897793 
L 229.122184 133.92764 
L 230.670576 134.103085 
L 231.599612 134.145974 
L 232.606067 134.237169 
L 233.9222 134.34543 
L 236.709306 134.486176 
L 238.489957 134.582718 
L 243.677071 134.793379 
L 247.470632 134.92406 
L 258.231958 135.185685 
L 258.309377 114.731025 
L 258.386797 116.297606 
L 258.851314 111.755745 
L 259.160993 111.154302 
L 259.470671 111.029064 
L 260.244867 111.10887 
L 261.63842 111.161238 
L 264.890044 111.178182 
L 268.915864 111.301995 
L 270.154578 111.310345 
L 271.780389 111.280294 
L 272.322327 111.303737 
L 273.56104 111.320769 
L 274.025558 111.316187 
L 275.109433 111.355752 
L 275.65137 111.339889 
L 276.657825 111.368018 
L 277.277182 111.370323 
L 278.128798 111.383109 
L 278.902994 111.402105 
L 279.67719 111.386046 
L 280.606225 111.426641 
L 296.941763 111.476851 
L 297.174022 105.590859 
L 297.4837 97.272507 
L 297.793379 94.435839 
L 298.103057 93.359256 
L 298.412735 92.955048 
L 298.877253 92.771275 
L 300.348226 92.643645 
L 303.290171 92.457122 
L 306.309536 92.475544 
L 308.786963 92.33767 
L 310.025677 92.329518 
L 312.890203 92.233139 
L 313.586979 92.249006 
L 314.516014 92.207448 
L 315.135371 92.208132 
L 315.986987 92.172199 
L 316.761183 92.154555 
L 317.535379 92.150833 
L 318.386995 92.109349 
L 320.322485 92.091658 
L 322.025717 92.077289 
L 335.651568 91.913987 
L 335.651568 91.913987 
" clip-path="url(#p13c9708935)" style="fill: none; stroke: #2ca02c; stroke-width: 2; stroke-linecap: square"/>
   </g>
   <g id="line2d_32">
    <path d="M 64.682931 95.273747 
L 64.760351 102.373739 
L 64.83777 102.102655 
L 65.070029 101.930135 
L 66.695841 101.639293 
L 68.708751 101.497095 
L 81.095889 101.571792 
L 91.470117 101.572025 
L 103.392737 101.571507 
L 103.470156 101.412548 
L 103.624995 102.376067 
L 103.857254 102.405833 
L 104.63145 102.409885 
L 108.037913 102.556885 
L 114.928258 102.507156 
L 142.102542 102.50207 
L 142.334801 102.101761 
L 144.579969 101.899696 
L 146.205781 101.887406 
L 153.483225 101.929293 
L 180.812347 101.92827 
L 180.889767 101.47704 
L 181.044606 102.365031 
L 181.276865 102.414692 
L 182.28332 102.454518 
L 185.070426 102.5867 
L 203.883391 102.527963 
L 219.522152 102.528771 
L 219.599572 101.713626 
L 219.676992 102.005131 
L 219.831831 102.039371 
L 220.760866 101.689151 
L 222.231839 101.441489 
L 223.780231 101.376308 
L 258.231958 101.438432 
L 258.309377 102.862888 
L 258.386797 102.245938 
L 258.541636 102.029343 
L 260.322287 102.002556 
L 262.412617 101.966031 
L 287.883668 102.015612 
L 296.941763 102.015034 
L 297.019182 101.579733 
L 297.174022 102.394785 
L 297.4837 102.383108 
L 298.412735 102.410449 
L 301.277261 102.511595 
L 315.522469 102.456321 
L 335.651568 102.455195 
L 335.651568 102.455195 
" clip-path="url(#p13c9708935)" style="fill: none; stroke: #d62728; stroke-width: 2; stroke-linecap: square"/>
   </g>
   <g id="line2d_33">
    <path d="M 64.682931 114.417746 
L 64.760351 104.696613 
L 64.91519 113.476802 
L 64.99261 113.68724 
L 65.379708 113.030795 
L 65.766806 113.000988 
L 68.94101 113.09854 
L 103.392737 113.484769 
L 103.470156 113.124558 
L 103.624995 99.780682 
L 103.934674 107.963119 
L 104.166933 109.237053 
L 104.399191 109.399748 
L 105.095968 109.243907 
L 106.179843 109.143608 
L 107.728235 109.092547 
L 110.902439 109.142395 
L 114.61858 109.143453 
L 114.850839 109.083075 
L 115.470196 109.192639 
L 117.096008 109.195586 
L 117.870204 109.18666 
L 119.108917 109.171789 
L 119.496016 109.181011 
L 120.425051 109.229899 
L 121.354086 109.227849 
L 122.128282 109.224306 
L 122.902478 109.240564 
L 123.676674 109.230597 
L 124.450871 109.256921 
L 125.302486 109.230343 
L 127.315396 109.270404 
L 129.018628 109.290685 
L 139.934793 109.343505 
L 142.102542 109.359166 
L 142.179961 98.683923 
L 142.257381 99.563086 
L 142.644479 96.68392 
L 142.876738 96.424864 
L 143.418675 96.376974 
L 180.812347 96.173797 
L 180.889767 108.568926 
L 181.044606 93.655683 
L 181.431704 99.965159 
L 181.663963 100.516667 
L 181.973641 100.540424 
L 183.367194 100.329944 
L 183.754292 100.303125 
L 185.844622 100.244478 
L 191.883351 100.261185 
L 192.502708 100.237913 
L 193.818842 100.278857 
L 194.825297 100.223287 
L 195.909171 100.289173 
L 197.147885 100.267066 
L 197.767242 100.269044 
L 198.696277 100.26084 
L 199.393054 100.256106 
L 200.16725 100.252414 
L 200.941446 100.247343 
L 201.715642 100.25703 
L 202.489838 100.237264 
L 203.341454 100.266282 
L 205.431783 100.232085 
L 207.444693 100.241975 
L 209.457603 100.241079 
L 211.857611 100.238717 
L 216.967305 100.220944 
L 219.522152 100.22074 
L 219.599572 105.68598 
L 219.754411 99.353771 
L 220.06409 102.897009 
L 220.296348 103.416593 
L 220.606027 103.479482 
L 224.477007 103.370969 
L 236.709306 103.388209 
L 238.877055 103.367194 
L 242.360937 103.384251 
L 246.928694 103.388706 
L 258.231958 103.397056 
L 258.309377 96.706174 
L 258.464216 109.875715 
L 258.773895 104.284985 
L 259.006154 103.391932 
L 259.238413 103.296829 
L 262.722295 103.635647 
L 263.341652 103.5856 
L 289.5869 103.594402 
L 295.935308 103.595474 
L 296.941763 103.599687 
L 297.019182 112.23235 
L 297.096602 101.409606 
L 297.174022 102.057002 
L 297.4837 110.121821 
L 297.715959 111.223419 
L 297.948218 111.3383 
L 300.890163 111.09086 
L 304.838563 111.15764 
L 305.45792 111.153874 
L 335.651568 111.41025 
L 335.651568 111.41025 
" clip-path="url(#p13c9708935)" style="fill: none; stroke: #9467bd; stroke-width: 2; stroke-linecap: square"/>
   </g>
   <g id="line2d_34">
    <path d="M 64.682931 202.264334 
L 64.760351 123.021953 
L 64.83777 131.979799 
L 65.147449 153.062483 
L 65.457127 162.511488 
L 65.766806 166.822051 
L 66.076484 168.807907 
L 66.463582 169.892027 
L 66.85068 170.352971 
L 67.392618 170.646782 
L 68.553912 170.960286 
L 76.373292 172.696923 
L 83.108799 173.658493 
L 89.534626 174.300056 
L 96.966909 174.80886 
L 103.392737 175.109081 
L 103.547576 90.967654 
L 103.934674 62.448722 
L 104.244352 53.354394 
L 104.554031 49.35011 
L 104.863709 47.557126 
L 105.250807 46.619243 
L 105.637905 46.242669 
L 106.334682 45.954538 
L 109.508886 45.059443 
L 113.457286 44.358337 
L 118.412141 43.530638 
L 126.46378 42.622235 
L 136.760589 41.915321 
L 142.102542 41.677144 
L 142.257381 116.009844 
L 142.567059 125.080292 
L 142.876738 129.140561 
L 143.186416 130.968 
L 143.573514 131.927654 
L 143.960612 132.305992 
L 144.50255 132.511921 
L 146.36062 132.793291 
L 151.470315 133.340182 
L 159.134856 133.90221 
L 166.954237 134.279828 
L 178.799437 134.616384 
L 180.812347 134.654894 
L 180.967186 95.34162 
L 181.354284 72.416127 
L 181.663963 64.997369 
L 181.973641 61.739168 
L 182.28332 60.285294 
L 182.670418 59.52737 
L 183.134935 59.186773 
L 184.063971 58.910418 
L 187.160755 58.2123 
L 193.741422 57.311835 
L 206.825336 56.150002 
L 219.522152 55.593845 
L 219.676992 107.149835 
L 219.831831 106.72358 
L 220.141509 105.910613 
L 220.528607 105.49925 
L 221.070545 105.250622 
L 222.154419 105.057984 
L 223.625392 104.981161 
L 231.90929 105.182975 
L 235.780271 105.187599 
L 240.657706 105.20743 
L 258.231958 105.234826 
L 258.696475 83.177973 
L 259.006154 76.404133 
L 259.315832 73.412948 
L 259.625511 72.054749 
L 260.012609 71.330034 
L 260.477126 70.997047 
L 261.328742 70.747466 
L 263.961009 70.20993 
L 266.128758 70.022191 
L 268.761025 69.724342 
L 270.773935 69.509255 
L 277.354601 68.969622 
L 281.53526 68.714991 
L 288.270767 68.407201 
L 296.941763 68.147361 
L 297.096602 115.618266 
L 297.251441 116.565363 
L 297.4837 116.84583 
L 297.948218 117.550572 
L 298.412735 117.821588 
L 299.186932 117.963288 
L 300.580485 117.98109 
L 303.135332 117.974785 
L 310.877293 118.252665 
L 324.890242 118.429758 
L 335.651568 118.498603 
L 335.651568 118.498603 
" clip-path="url(#p13c9708935)" style="fill: none; stroke: #8c564b; stroke-width: 2; stroke-linecap: square"/>
   </g>
   <g id="patch_3">
    <path d="M 51.134499 211.381683 
L 51.134499 10.8 
" style="fill: none; stroke: #000000; stroke-width: 0.8; stroke-linejoin: miter; stroke-linecap: square"/>
   </g>
   <g id="patch_4">
    <path d="M 349.2 211.381683 
L 349.2 10.8 
" style="fill: none; stroke: #000000; stroke-width: 0.8; stroke-linejoin: miter; stroke-linecap: square"/>
   </g>
   <g id="patch_5">
    <path d="M 51.134499 211.381683 
L 349.2 211.381683 
" style="fill: none; stroke: #000000; stroke-width: 0.8; stroke-linejoin: miter; stroke-linecap: square"/>
   </g>
   <g id="patch_6">
    <path d="M 51.134499 10.8 
L 349.2 10.8 
" style="fill: none; stroke: #000000; stroke-width: 0.8; stroke-linejoin: miter; stroke-linecap: square"/>
   </g>
   <g id="legend_1">
    <g id="patch_7">
     <path d="M 301.873558 206.381683 
L 342.2 206.381683 
Q 344.2 206.381683 344.2 204.381683 
L 344.2 121.758613 
Q 344.2 119.758613 342.2 119.758613 
L 301.873558 119.758613 
Q 299.873558 119.758613 299.873558 121.758613 
L 299.873558 204.381683 
Q 299.873558 206.381683 301.873558 206.381683 
z
" style="fill: #ffffff; opacity: 0.8; stroke: #cccccc; stroke-linejoin: miter"/>
    </g>
    <g id="line2d_35">
     <path d="M 303.873558 127.258613 
L 313.873558 127.258613 
L 323.873558 127.258613 
" style="fill: none; stroke: #1f77b4; stroke-width: 2; stroke-linecap: square"/>
    </g>
    <g id="text_17">
     <!-- $\tau_{1}$ -->
     <g transform="translate(331.873558 130.758613) scale(0.1 -0.1)">
      <use xlink:href="#CMMI12-1c" transform="scale(0.996264)"/>
      <use xlink:href="#CMR17-31" transform="translate(42.363841 -14.943915) scale(0.697382)"/>
     </g>
    </g>
    <g id="line2d_36">
     <path d="M 303.873558 141.195792 
L 313.873558 141.195792 
L 323.873558 141.195792 
" style="fill: none; stroke: #ff7f0e; stroke-width: 2; stroke-linecap: square"/>
    </g>
    <g id="text_18">
     <!-- $\tau_{2}$ -->
     <g transform="translate(331.873558 144.695792) scale(0.1 -0.1)">
      <use xlink:href="#CMMI12-1c" transform="scale(0.996264)"/>
      <use xlink:href="#CMR17-32" transform="translate(42.363841 -14.943915) scale(0.697382)"/>
     </g>
    </g>
    <g id="line2d_37">
     <path d="M 303.873558 155.13297 
L 313.873558 155.13297 
L 323.873558 155.13297 
" style="fill: none; stroke: #2ca02c; stroke-width: 2; stroke-linecap: square"/>
    </g>
    <g id="text_19">
     <!-- $\tau_{3}$ -->
     <g transform="translate(331.873558 158.63297) scale(0.1 -0.1)">
      <use xlink:href="#CMMI12-1c" transform="scale(0.996264)"/>
      <use xlink:href="#CMR17-33" transform="translate(42.363841 -14.943915) scale(0.697382)"/>
     </g>
    </g>
    <g id="line2d_38">
     <path d="M 303.873558 169.070148 
L 313.873558 169.070148 
L 323.873558 169.070148 
" style="fill: none; stroke: #d62728; stroke-width: 2; stroke-linecap: square"/>
    </g>
    <g id="text_20">
     <!-- $\tau_{4}$ -->
     <g transform="translate(331.873558 172.570148) scale(0.1 -0.1)">
      <defs>
       <path id="CMR17-34" d="M 2150 4122 
C 2150 4256 2144 4256 2029 4256 
L 128 1254 
L 128 1088 
L 1779 1088 
L 1779 457 
C 1779 224 1766 160 1318 160 
L 1197 160 
L 1197 0 
C 1402 0 1747 0 1965 0 
C 2182 0 2528 0 2733 0 
L 2733 160 
L 2611 160 
C 2163 160 2150 224 2150 457 
L 2150 1088 
L 2803 1088 
L 2803 1254 
L 2150 1254 
L 2150 4122 
z
M 1798 3703 
L 1798 1254 
L 256 1254 
L 1798 3703 
z
" transform="scale(0.015625)"/>
      </defs>
      <use xlink:href="#CMMI12-1c" transform="scale(0.996264)"/>
      <use xlink:href="#CMR17-34" transform="translate(42.363841 -14.943915) scale(0.697382)"/>
     </g>
    </g>
    <g id="line2d_39">
     <path d="M 303.873558 183.007327 
L 313.873558 183.007327 
L 323.873558 183.007327 
" style="fill: none; stroke: #9467bd; stroke-width: 2; stroke-linecap: square"/>
    </g>
    <g id="text_21">
     <!-- $\tau_{5}$ -->
     <g transform="translate(331.873558 186.507327) scale(0.1 -0.1)">
      <use xlink:href="#CMMI12-1c" transform="scale(0.996264)"/>
      <use xlink:href="#CMR17-35" transform="translate(42.363841 -14.943915) scale(0.697382)"/>
     </g>
    </g>
    <g id="line2d_40">
     <path d="M 303.873558 196.944505 
L 313.873558 196.944505 
L 323.873558 196.944505 
" style="fill: none; stroke: #8c564b; stroke-width: 2; stroke-linecap: square"/>
    </g>
    <g id="text_22">
     <!-- $\tau_{6}$ -->
     <g transform="translate(331.873558 200.444505) scale(0.1 -0.1)">
      <defs>
       <path id="CMR17-36" d="M 678 2176 
C 678 3690 1395 4032 1811 4032 
C 1946 4032 2272 4009 2400 3776 
C 2298 3776 2106 3776 2106 3553 
C 2106 3381 2246 3323 2336 3323 
C 2394 3323 2566 3348 2566 3560 
C 2566 3954 2246 4179 1805 4179 
C 1043 4179 243 3390 243 1984 
C 243 253 966 -128 1478 -128 
C 2099 -128 2688 427 2688 1283 
C 2688 2081 2170 2662 1517 2662 
C 1126 2662 838 2407 678 1960 
L 678 2176 
z
M 1478 25 
C 691 25 691 1200 691 1436 
C 691 1896 909 2560 1504 2560 
C 1613 2560 1926 2560 2138 2120 
C 2253 1870 2253 1609 2253 1289 
C 2253 944 2253 690 2118 434 
C 1978 171 1773 25 1478 25 
z
" transform="scale(0.015625)"/>
      </defs>
      <use xlink:href="#CMMI12-1c" transform="scale(0.996264)"/>
      <use xlink:href="#CMR17-36" transform="translate(42.363841 -14.943915) scale(0.697382)"/>
     </g>
    </g>
   </g>
  </g>
 </g>
 <defs>
  <clipPath id="p13c9708935">
   <rect x="51.134499" y="10.8" width="298.065501" height="200.581683"/>
  </clipPath>
 </defs>
</svg>
