<?xml version="1.0" encoding="utf-8" standalone="no"?>
<!DOCTYPE svg PUBLIC "-//W3C//DTD SVG 1.1//EN"
  "http://www.w3.org/Graphics/SVG/1.1/DTD/svg11.dtd">
<svg xmlns:xlink="http://www.w3.org/1999/xlink" width="360pt" height="194.4pt" viewBox="0 0 360 194.4" xmlns="http://www.w3.org/2000/svg" version="1.1">
 <metadata>
  <rdf:RDF xmlns:dc="http://purl.org/dc/elements/1.1/" xmlns:cc="http://creativecommons.org/ns#" xmlns:rdf="http://www.w3.org/1999/02/22-rdf-syntax-ns#">
   <cc:Work>
    <dc:type rdf:resource="http://purl.org/dc/dcmitype/StillImage"/>
    <dc:date>2024-10-29T16:35:13.688689</dc:date>
    <dc:format>image/svg+xml</dc:format>
    <dc:creator>
     <cc:Agent>
      <dc:title>Matplotlib v3.9.2, https://matplotlib.org/</dc:title>
     </cc:Agent>
    </dc:creator>
   </cc:Work>
  </rdf:RDF>
 </metadata>
 <defs>
  <style type="text/css">*{stroke-linejoin: round; stroke-linecap: butt}</style>
 </defs>
 <g id="figure_1">
  <g id="patch_1">
   <path d="M 0 194.4 
L 360 194.4 
L 360 0 
L 0 0 
z
" style="fill: #ffffff"/>
  </g>
  <g id="axes_1">
   <g id="patch_2">
    <path d="M 52.241463 153.781683 
L 349.2 153.781683 
L 349.2 10.8 
L 52.241463 10.8 
z
" style="fill: #ffffff"/>
   </g>
   <g id="matplotlib.axis_1">
    <g id="xtick_1">
     <g id="line2d_1">
      <path d="M 65.739578 153.781683 
L 65.739578 10.8 
" clip-path="url(#pb84032bdbb)" style="fill: none; stroke: #b0b0b0; stroke-width: 0.8; stroke-linecap: square"/>
     </g>
     <g id="line2d_2">
      <defs>
       <path id="mb889871ef4" d="M 0 0 
L 0 3.5 
" style="stroke: #000000; stroke-width: 0.8"/>
      </defs>
      <g>
       <use xlink:href="#mb889871ef4" x="65.739578" y="153.781683" style="stroke: #000000; stroke-width: 0.8"/>
      </g>
     </g>
     <g id="text_1">
      <!-- $\mathdefault{0}$ -->
      <g transform="translate(63.248911 167.700182) scale(0.1 -0.1)">
       <defs>
        <path id="CMR17-30" d="M 2688 2025 
C 2688 2416 2682 3080 2413 3591 
C 2176 4039 1798 4198 1466 4198 
C 1158 4198 768 4058 525 3597 
C 269 3118 243 2524 243 2025 
C 243 1661 250 1106 448 619 
C 723 -39 1216 -128 1466 -128 
C 1760 -128 2208 -7 2470 600 
C 2662 1042 2688 1559 2688 2025 
z
M 1466 -26 
C 1056 -26 813 325 723 812 
C 653 1188 653 1738 653 2096 
C 653 2588 653 2997 736 3387 
C 858 3929 1216 4096 1466 4096 
C 1728 4096 2067 3923 2189 3400 
C 2272 3036 2278 2607 2278 2096 
C 2278 1680 2278 1169 2202 792 
C 2067 95 1690 -26 1466 -26 
z
" transform="scale(0.015625)"/>
       </defs>
       <use xlink:href="#CMR17-30" transform="scale(0.996264)"/>
      </g>
     </g>
    </g>
    <g id="xtick_2">
     <g id="line2d_3">
      <path d="M 104.305622 153.781683 
L 104.305622 10.8 
" clip-path="url(#pb84032bdbb)" style="fill: none; stroke: #b0b0b0; stroke-width: 0.8; stroke-linecap: square"/>
     </g>
     <g id="line2d_4">
      <g>
       <use xlink:href="#mb889871ef4" x="104.305622" y="153.781683" style="stroke: #000000; stroke-width: 0.8"/>
      </g>
     </g>
     <g id="text_2">
      <!-- $\mathdefault{5}$ -->
      <g transform="translate(101.814954 167.700182) scale(0.1 -0.1)">
       <defs>
        <path id="CMR17-35" d="M 730 3692 
C 794 3666 1056 3584 1325 3584 
C 1920 3584 2246 3911 2432 4100 
C 2432 4157 2432 4192 2394 4192 
C 2387 4192 2374 4192 2323 4163 
C 2099 4058 1837 3973 1517 3973 
C 1325 3973 1037 3999 723 4139 
C 653 4171 640 4171 634 4171 
C 602 4171 595 4164 595 4037 
L 595 2203 
C 595 2089 595 2057 659 2057 
C 691 2057 704 2070 736 2114 
C 941 2401 1222 2522 1542 2522 
C 1766 2522 2246 2382 2246 1289 
C 2246 1085 2246 715 2054 421 
C 1894 159 1645 25 1370 25 
C 947 25 518 320 403 814 
C 429 807 480 795 506 795 
C 589 795 749 840 749 1038 
C 749 1210 627 1280 506 1280 
C 358 1280 262 1190 262 1011 
C 262 454 704 -128 1382 -128 
C 2042 -128 2669 440 2669 1264 
C 2669 2030 2170 2624 1549 2624 
C 1222 2624 947 2503 730 2274 
L 730 3692 
z
" transform="scale(0.015625)"/>
       </defs>
       <use xlink:href="#CMR17-35" transform="scale(0.996264)"/>
      </g>
     </g>
    </g>
    <g id="xtick_3">
     <g id="line2d_5">
      <path d="M 142.871666 153.781683 
L 142.871666 10.8 
" clip-path="url(#pb84032bdbb)" style="fill: none; stroke: #b0b0b0; stroke-width: 0.8; stroke-linecap: square"/>
     </g>
     <g id="line2d_6">
      <g>
       <use xlink:href="#mb889871ef4" x="142.871666" y="153.781683" style="stroke: #000000; stroke-width: 0.8"/>
      </g>
     </g>
     <g id="text_3">
      <!-- $\mathdefault{10}$ -->
      <g transform="translate(137.89033 167.700182) scale(0.1 -0.1)">
       <defs>
        <path id="CMR17-31" d="M 1702 4058 
C 1702 4192 1696 4192 1606 4192 
C 1357 3916 979 3827 621 3827 
C 602 3827 570 3827 563 3808 
C 557 3795 557 3782 557 3648 
C 755 3648 1088 3686 1344 3839 
L 1344 461 
C 1344 236 1331 160 781 160 
L 589 160 
L 589 0 
C 896 0 1216 0 1523 0 
C 1830 0 2150 0 2458 0 
L 2458 160 
L 2266 160 
C 1715 160 1702 230 1702 458 
L 1702 4058 
z
" transform="scale(0.015625)"/>
       </defs>
       <use xlink:href="#CMR17-31" transform="scale(0.996264)"/>
       <use xlink:href="#CMR17-30" transform="translate(45.690477 0) scale(0.996264)"/>
      </g>
     </g>
    </g>
    <g id="xtick_4">
     <g id="line2d_7">
      <path d="M 181.43771 153.781683 
L 181.43771 10.8 
" clip-path="url(#pb84032bdbb)" style="fill: none; stroke: #b0b0b0; stroke-width: 0.8; stroke-linecap: square"/>
     </g>
     <g id="line2d_8">
      <g>
       <use xlink:href="#mb889871ef4" x="181.43771" y="153.781683" style="stroke: #000000; stroke-width: 0.8"/>
      </g>
     </g>
     <g id="text_4">
      <!-- $\mathdefault{15}$ -->
      <g transform="translate(176.456374 167.700182) scale(0.1 -0.1)">
       <use xlink:href="#CMR17-31" transform="scale(0.996264)"/>
       <use xlink:href="#CMR17-35" transform="translate(45.690477 0) scale(0.996264)"/>
      </g>
     </g>
    </g>
    <g id="xtick_5">
     <g id="line2d_9">
      <path d="M 220.003753 153.781683 
L 220.003753 10.8 
" clip-path="url(#pb84032bdbb)" style="fill: none; stroke: #b0b0b0; stroke-width: 0.8; stroke-linecap: square"/>
     </g>
     <g id="line2d_10">
      <g>
       <use xlink:href="#mb889871ef4" x="220.003753" y="153.781683" style="stroke: #000000; stroke-width: 0.8"/>
      </g>
     </g>
     <g id="text_5">
      <!-- $\mathdefault{20}$ -->
      <g transform="translate(215.022418 167.700182) scale(0.1 -0.1)">
       <defs>
        <path id="CMR17-32" d="M 2669 989 
L 2554 989 
C 2490 536 2438 459 2413 420 
C 2381 369 1920 369 1830 369 
L 602 369 
C 832 619 1280 1072 1824 1597 
C 2214 1967 2669 2402 2669 3035 
C 2669 3790 2067 4224 1395 4224 
C 691 4224 262 3604 262 3030 
C 262 2780 448 2748 525 2748 
C 589 2748 781 2787 781 3010 
C 781 3207 614 3264 525 3264 
C 486 3264 448 3258 422 3245 
C 544 3790 915 4058 1306 4058 
C 1862 4058 2227 3617 2227 3035 
C 2227 2479 1901 2000 1536 1584 
L 262 146 
L 262 0 
L 2515 0 
L 2669 989 
z
" transform="scale(0.015625)"/>
       </defs>
       <use xlink:href="#CMR17-32" transform="scale(0.996264)"/>
       <use xlink:href="#CMR17-30" transform="translate(45.690477 0) scale(0.996264)"/>
      </g>
     </g>
    </g>
    <g id="xtick_6">
     <g id="line2d_11">
      <path d="M 258.569797 153.781683 
L 258.569797 10.8 
" clip-path="url(#pb84032bdbb)" style="fill: none; stroke: #b0b0b0; stroke-width: 0.8; stroke-linecap: square"/>
     </g>
     <g id="line2d_12">
      <g>
       <use xlink:href="#mb889871ef4" x="258.569797" y="153.781683" style="stroke: #000000; stroke-width: 0.8"/>
      </g>
     </g>
     <g id="text_6">
      <!-- $\mathdefault{25}$ -->
      <g transform="translate(253.588462 167.700182) scale(0.1 -0.1)">
       <use xlink:href="#CMR17-32" transform="scale(0.996264)"/>
       <use xlink:href="#CMR17-35" transform="translate(45.690477 0) scale(0.996264)"/>
      </g>
     </g>
    </g>
    <g id="xtick_7">
     <g id="line2d_13">
      <path d="M 297.135841 153.781683 
L 297.135841 10.8 
" clip-path="url(#pb84032bdbb)" style="fill: none; stroke: #b0b0b0; stroke-width: 0.8; stroke-linecap: square"/>
     </g>
     <g id="line2d_14">
      <g>
       <use xlink:href="#mb889871ef4" x="297.135841" y="153.781683" style="stroke: #000000; stroke-width: 0.8"/>
      </g>
     </g>
     <g id="text_7">
      <!-- $\mathdefault{30}$ -->
      <g transform="translate(292.154506 167.700182) scale(0.1 -0.1)">
       <defs>
        <path id="CMR17-33" d="M 1414 2157 
C 1984 2157 2234 1662 2234 1090 
C 2234 320 1824 25 1453 25 
C 1114 25 563 194 390 693 
C 422 680 454 680 486 680 
C 640 680 755 782 755 948 
C 755 1133 614 1216 486 1216 
C 378 1216 211 1165 211 926 
C 211 335 787 -128 1466 -128 
C 2176 -128 2720 430 2720 1085 
C 2720 1707 2208 2157 1600 2227 
C 2086 2328 2554 2756 2554 3329 
C 2554 3820 2048 4179 1472 4179 
C 890 4179 378 3829 378 3329 
C 378 3110 544 3072 627 3072 
C 762 3072 877 3155 877 3321 
C 877 3486 762 3569 627 3569 
C 602 3569 570 3569 544 3557 
C 730 3959 1235 4032 1459 4032 
C 1683 4032 2106 3925 2106 3320 
C 2106 3143 2080 2828 1862 2550 
C 1670 2304 1453 2304 1242 2284 
C 1210 2284 1062 2269 1037 2269 
C 992 2263 966 2257 966 2208 
C 966 2163 973 2157 1101 2157 
L 1414 2157 
z
" transform="scale(0.015625)"/>
       </defs>
       <use xlink:href="#CMR17-33" transform="scale(0.996264)"/>
       <use xlink:href="#CMR17-30" transform="translate(45.690477 0) scale(0.996264)"/>
      </g>
     </g>
    </g>
    <g id="xtick_8">
     <g id="line2d_15">
      <path d="M 335.701885 153.781683 
L 335.701885 10.8 
" clip-path="url(#pb84032bdbb)" style="fill: none; stroke: #b0b0b0; stroke-width: 0.8; stroke-linecap: square"/>
     </g>
     <g id="line2d_16">
      <g>
       <use xlink:href="#mb889871ef4" x="335.701885" y="153.781683" style="stroke: #000000; stroke-width: 0.8"/>
      </g>
     </g>
     <g id="text_8">
      <!-- $\mathdefault{35}$ -->
      <g transform="translate(330.720549 167.700182) scale(0.1 -0.1)">
       <use xlink:href="#CMR17-33" transform="scale(0.996264)"/>
       <use xlink:href="#CMR17-35" transform="translate(45.690477 0) scale(0.996264)"/>
      </g>
     </g>
    </g>
    <g id="text_9">
     <!-- Time $t$ [s] -->
     <g transform="translate(179.522424 181.10934) scale(0.1 -0.1)">
      <defs>
       <path id="CMR17-54" d="M 3981 4326 
L 288 4326 
L 179 2918 
L 294 2918 
C 378 3976 467 4160 1453 4160 
C 1568 4160 1754 4160 1805 4154 
C 1926 4135 1926 4058 1926 3912 
L 1926 459 
C 1926 230 1907 160 1376 160 
L 1197 160 
L 1197 0 
C 1504 0 1824 0 2138 0 
C 2451 0 2771 0 3078 0 
L 3078 160 
L 2899 160 
C 2368 160 2349 230 2349 459 
L 2349 3912 
C 2349 4052 2349 4129 2464 4154 
C 2515 4160 2701 4160 2816 4160 
C 3795 4160 3891 3976 3974 2918 
L 4090 2918 
L 3981 4326 
z
" transform="scale(0.015625)"/>
       <path id="CMR17-69" d="M 992 3909 
C 992 4049 877 4170 730 4170 
C 589 4170 467 4056 467 3909 
C 467 3769 582 3648 730 3648 
C 870 3648 992 3763 992 3909 
z
M 243 2706 
L 243 2541 
C 602 2541 653 2502 653 2197 
L 653 427 
C 653 184 627 153 218 153 
L 218 -13 
C 371 0 646 0 806 0 
C 960 0 1222 0 1370 -13 
L 1370 153 
C 992 153 979 191 979 420 
L 979 2776 
L 243 2706 
z
" transform="scale(0.015625)"/>
       <path id="CMR17-6d" d="M 4326 1933 
C 4326 2252 4269 2790 3507 2790 
C 3072 2790 2771 2496 2656 2151 
L 2650 2151 
C 2573 2676 2195 2790 1837 2790 
C 1331 2790 1069 2400 973 2144 
L 966 2144 
L 966 2790 
L 211 2720 
L 211 2554 
C 589 2554 646 2515 646 2208 
L 646 428 
C 646 184 621 153 211 153 
L 211 -13 
C 365 0 646 0 813 0 
C 979 0 1267 0 1421 -13 
L 1421 153 
C 1011 153 986 178 986 428 
L 986 1658 
C 986 2247 1344 2688 1792 2688 
C 2266 2688 2317 2266 2317 1958 
L 2317 428 
C 2317 184 2291 153 1882 153 
L 1882 -13 
C 2035 0 2317 0 2483 0 
C 2650 0 2938 0 3091 -13 
L 3091 153 
C 2682 153 2656 178 2656 428 
L 2656 1658 
C 2656 2247 3014 2688 3462 2688 
C 3936 2688 3987 2266 3987 1958 
L 3987 428 
C 3987 184 3962 153 3552 153 
L 3552 -13 
C 3706 0 3987 0 4154 0 
C 4320 0 4608 0 4762 -13 
L 4762 153 
C 4352 153 4326 178 4326 428 
L 4326 1933 
z
" transform="scale(0.015625)"/>
       <path id="CMR17-65" d="M 2438 1472 
C 2464 1498 2464 1511 2464 1576 
C 2464 2238 2118 2816 1389 2816 
C 710 2816 173 2169 173 1383 
C 173 551 781 -64 1459 -64 
C 2176 -64 2458 607 2458 740 
C 2458 784 2419 784 2406 784 
C 2362 784 2355 771 2330 696 
C 2189 265 1837 51 1504 51 
C 1229 51 954 203 781 480 
C 582 803 582 1176 582 1472 
L 2438 1472 
z
M 589 1568 
C 634 2505 1126 2714 1382 2714 
C 1818 2714 2112 2297 2118 1568 
L 589 1568 
z
" transform="scale(0.015625)"/>
       <path id="CMMI12-74" d="M 1286 2566 
L 1875 2566 
C 1997 2566 2061 2566 2061 2681 
C 2061 2752 2022 2752 1894 2752 
L 1331 2752 
L 1568 3692 
C 1594 3781 1594 3794 1594 3840 
C 1594 3943 1510 4000 1427 4000 
C 1376 4000 1229 3981 1178 3775 
L 928 2752 
L 326 2752 
C 198 2752 141 2752 141 2630 
C 141 2566 186 2566 307 2566 
L 877 2566 
L 454 881 
C 403 658 384 594 384 511 
C 384 211 595 -64 954 -64 
C 1600 -64 1946 868 1946 912 
C 1946 951 1920 970 1882 970 
C 1869 970 1843 970 1830 944 
C 1824 938 1818 931 1773 829 
C 1638 511 1344 64 973 64 
C 781 64 768 224 768 364 
C 768 370 768 492 787 568 
L 1286 2566 
z
" transform="scale(0.015625)"/>
       <path id="CMR17-5b" d="M 1504 -1600 
L 1504 -1377 
L 902 -1377 
L 902 4544 
L 1504 4544 
L 1504 4767 
L 678 4767 
L 678 -1600 
L 1504 -1600 
z
" transform="scale(0.015625)"/>
       <path id="CMR17-73" d="M 1978 2697 
C 1978 2813 1971 2819 1933 2819 
C 1907 2819 1901 2813 1824 2717 
C 1805 2691 1747 2626 1728 2601 
C 1523 2819 1235 2819 1126 2819 
C 416 2819 160 2447 160 2076 
C 160 1498 813 1365 998 1325 
C 1402 1243 1542 1217 1677 1101 
C 1760 1025 1901 884 1901 654 
C 1901 384 1747 38 1158 38 
C 602 38 403 460 288 1021 
C 269 1110 269 1117 218 1117 
C 166 1117 160 1110 160 983 
L 160 63 
C 160 -51 166 -58 205 -58 
C 237 -58 243 -51 275 0 
C 314 57 410 211 448 276 
C 576 103 800 -64 1158 -64 
C 1792 -64 2131 283 2131 784 
C 2131 1112 1958 1285 1875 1362 
C 1683 1561 1459 1606 1190 1657 
C 838 1735 390 1825 390 2217 
C 390 2383 480 2737 1126 2737 
C 1811 2737 1850 2094 1862 1888 
C 1869 1856 1901 1849 1920 1849 
C 1978 1849 1978 1869 1978 1978 
L 1978 2697 
z
" transform="scale(0.015625)"/>
       <path id="CMR17-5d" d="M 915 4767 
L 90 4767 
L 90 4544 
L 691 4544 
L 691 -1377 
L 90 -1377 
L 90 -1600 
L 915 -1600 
L 915 4767 
z
" transform="scale(0.015625)"/>
      </defs>
      <use xlink:href="#CMR17-54" transform="scale(0.996264)"/>
      <use xlink:href="#CMR17-69" transform="translate(66.509881 0) scale(0.996264)"/>
      <use xlink:href="#CMR17-6d" transform="translate(91.380939 0) scale(0.996264)"/>
      <use xlink:href="#CMR17-65" transform="translate(168.300529 0) scale(0.996264)"/>
      <use xlink:href="#CMMI12-74" transform="translate(238.862156 0) scale(0.996264)"/>
      <use xlink:href="#CMR17-5b" transform="translate(304.164452 0) scale(0.996264)"/>
      <use xlink:href="#CMR17-73" transform="translate(329.035511 0) scale(0.996264)"/>
      <use xlink:href="#CMR17-5d" transform="translate(364.836848 0) scale(0.996264)"/>
     </g>
    </g>
   </g>
   <g id="matplotlib.axis_2">
    <g id="ytick_1">
     <g id="line2d_17">
      <path d="M 52.241463 146.341673 
L 349.2 146.341673 
" clip-path="url(#pb84032bdbb)" style="fill: none; stroke: #b0b0b0; stroke-width: 0.8; stroke-linecap: square"/>
     </g>
     <g id="line2d_18">
      <defs>
       <path id="mf56bdf1220" d="M 0 0 
L -3.5 0 
" style="stroke: #000000; stroke-width: 0.8"/>
      </defs>
      <g>
       <use xlink:href="#mf56bdf1220" x="52.241463" y="146.341673" style="stroke: #000000; stroke-width: 0.8"/>
      </g>
     </g>
     <g id="text_10">
      <!-- $\mathdefault{−1.5}$ -->
      <g transform="translate(24.76264 149.800922) scale(0.1 -0.1)">
       <defs>
        <path id="CMSY10-0" d="M 4218 1472 
C 4326 1472 4442 1472 4442 1600 
C 4442 1728 4326 1728 4218 1728 
L 755 1728 
C 646 1728 531 1728 531 1600 
C 531 1472 646 1472 755 1472 
L 4218 1472 
z
" transform="scale(0.015625)"/>
        <path id="CMMI12-3a" d="M 1178 307 
C 1178 492 1024 619 870 619 
C 685 619 557 466 557 313 
C 557 128 710 0 864 0 
C 1050 0 1178 153 1178 307 
z
" transform="scale(0.015625)"/>
       </defs>
       <use xlink:href="#CMSY10-0" transform="scale(0.996264)"/>
       <use xlink:href="#CMR17-31" transform="translate(77.487468 0) scale(0.996264)"/>
       <use xlink:href="#CMMI12-3a" transform="translate(123.177945 0) scale(0.996264)"/>
       <use xlink:href="#CMR17-35" transform="translate(150.275122 0) scale(0.996264)"/>
      </g>
     </g>
    </g>
    <g id="ytick_2">
     <g id="line2d_19">
      <path d="M 52.241463 122.880734 
L 349.2 122.880734 
" clip-path="url(#pb84032bdbb)" style="fill: none; stroke: #b0b0b0; stroke-width: 0.8; stroke-linecap: square"/>
     </g>
     <g id="line2d_20">
      <g>
       <use xlink:href="#mf56bdf1220" x="52.241463" y="122.880734" style="stroke: #000000; stroke-width: 0.8"/>
      </g>
     </g>
     <g id="text_11">
      <!-- $\mathdefault{−1.0}$ -->
      <g transform="translate(24.76264 126.339984) scale(0.1 -0.1)">
       <use xlink:href="#CMSY10-0" transform="scale(0.996264)"/>
       <use xlink:href="#CMR17-31" transform="translate(77.487468 0) scale(0.996264)"/>
       <use xlink:href="#CMMI12-3a" transform="translate(123.177945 0) scale(0.996264)"/>
       <use xlink:href="#CMR17-30" transform="translate(150.275122 0) scale(0.996264)"/>
      </g>
     </g>
    </g>
    <g id="ytick_3">
     <g id="line2d_21">
      <path d="M 52.241463 99.419796 
L 349.2 99.419796 
" clip-path="url(#pb84032bdbb)" style="fill: none; stroke: #b0b0b0; stroke-width: 0.8; stroke-linecap: square"/>
     </g>
     <g id="line2d_22">
      <g>
       <use xlink:href="#mf56bdf1220" x="52.241463" y="99.419796" style="stroke: #000000; stroke-width: 0.8"/>
      </g>
     </g>
     <g id="text_12">
      <!-- $\mathdefault{−0.5}$ -->
      <g transform="translate(24.76264 102.879045) scale(0.1 -0.1)">
       <use xlink:href="#CMSY10-0" transform="scale(0.996264)"/>
       <use xlink:href="#CMR17-30" transform="translate(77.487468 0) scale(0.996264)"/>
       <use xlink:href="#CMMI12-3a" transform="translate(123.177945 0) scale(0.996264)"/>
       <use xlink:href="#CMR17-35" transform="translate(150.275122 0) scale(0.996264)"/>
      </g>
     </g>
    </g>
    <g id="ytick_4">
     <g id="line2d_23">
      <path d="M 52.241463 75.958857 
L 349.2 75.958857 
" clip-path="url(#pb84032bdbb)" style="fill: none; stroke: #b0b0b0; stroke-width: 0.8; stroke-linecap: square"/>
     </g>
     <g id="line2d_24">
      <g>
       <use xlink:href="#mf56bdf1220" x="52.241463" y="75.958857" style="stroke: #000000; stroke-width: 0.8"/>
      </g>
     </g>
     <g id="text_13">
      <!-- $\mathdefault{0.0}$ -->
      <g transform="translate(32.511384 79.418106) scale(0.1 -0.1)">
       <use xlink:href="#CMR17-30" transform="scale(0.996264)"/>
       <use xlink:href="#CMMI12-3a" transform="translate(45.690477 0) scale(0.996264)"/>
       <use xlink:href="#CMR17-30" transform="translate(72.787654 0) scale(0.996264)"/>
      </g>
     </g>
    </g>
    <g id="ytick_5">
     <g id="line2d_25">
      <path d="M 52.241463 52.497918 
L 349.2 52.497918 
" clip-path="url(#pb84032bdbb)" style="fill: none; stroke: #b0b0b0; stroke-width: 0.8; stroke-linecap: square"/>
     </g>
     <g id="line2d_26">
      <g>
       <use xlink:href="#mf56bdf1220" x="52.241463" y="52.497918" style="stroke: #000000; stroke-width: 0.8"/>
      </g>
     </g>
     <g id="text_14">
      <!-- $\mathdefault{0.5}$ -->
      <g transform="translate(32.511384 55.957167) scale(0.1 -0.1)">
       <use xlink:href="#CMR17-30" transform="scale(0.996264)"/>
       <use xlink:href="#CMMI12-3a" transform="translate(45.690477 0) scale(0.996264)"/>
       <use xlink:href="#CMR17-35" transform="translate(72.787654 0) scale(0.996264)"/>
      </g>
     </g>
    </g>
    <g id="ytick_6">
     <g id="line2d_27">
      <path d="M 52.241463 29.036979 
L 349.2 29.036979 
" clip-path="url(#pb84032bdbb)" style="fill: none; stroke: #b0b0b0; stroke-width: 0.8; stroke-linecap: square"/>
     </g>
     <g id="line2d_28">
      <g>
       <use xlink:href="#mf56bdf1220" x="52.241463" y="29.036979" style="stroke: #000000; stroke-width: 0.8"/>
      </g>
     </g>
     <g id="text_15">
      <!-- $\mathdefault{1.0}$ -->
      <g transform="translate(32.511384 32.496229) scale(0.1 -0.1)">
       <use xlink:href="#CMR17-31" transform="scale(0.996264)"/>
       <use xlink:href="#CMMI12-3a" transform="translate(45.690477 0) scale(0.996264)"/>
       <use xlink:href="#CMR17-30" transform="translate(72.787654 0) scale(0.996264)"/>
      </g>
     </g>
    </g>
    <g id="text_16">
     <!-- Axial force [N] -->
     <g transform="translate(18.27198 114.129842) rotate(-90) scale(0.1 -0.1)">
      <defs>
       <path id="CMR17-41" d="M 2323 4378 
C 2291 4461 2278 4480 2214 4480 
C 2150 4480 2138 4461 2106 4378 
L 749 566 
C 627 223 371 153 147 153 
L 147 -13 
C 262 0 518 0 640 0 
C 800 0 1056 0 1210 -13 
L 1210 153 
C 909 153 864 361 864 439 
C 864 497 877 530 890 569 
L 1229 1536 
L 2906 1536 
L 3290 442 
C 3322 365 3322 352 3322 327 
C 3322 153 3046 153 2925 153 
L 2925 0 
C 3110 0 3443 0 3642 0 
C 3808 0 4128 0 4282 -13 
L 4282 153 
C 3942 153 3827 153 3744 387 
L 2323 4378 
z
M 2067 3893 
L 2848 1702 
L 1286 1702 
L 2067 3893 
z
" transform="scale(0.015625)"/>
       <path id="CMR17-78" d="M 1664 1477 
C 1856 1726 2074 2006 2253 2216 
C 2464 2458 2707 2560 2989 2560 
L 2989 2726 
C 2880 2726 2656 2726 2541 2726 
C 2368 2726 2170 2726 2022 2732 
L 2022 2566 
C 2112 2553 2163 2489 2163 2400 
C 2163 2285 2099 2215 2067 2171 
L 1594 1573 
L 1030 2306 
C 973 2376 973 2388 973 2420 
C 973 2497 1037 2560 1146 2560 
L 1146 2732 
C 992 2726 717 2726 557 2726 
C 384 2726 179 2726 38 2732 
L 38 2560 
C 384 2560 461 2534 614 2343 
L 1350 1395 
C 1363 1382 1395 1344 1395 1325 
C 1395 1299 838 619 768 530 
C 480 185 179 160 6 160 
L 6 0 
C 115 0 339 0 454 0 
C 582 0 864 0 979 -6 
L 979 160 
C 941 166 838 179 838 325 
C 838 440 890 510 947 586 
L 1478 1236 
L 2035 512 
C 2086 442 2163 346 2163 301 
C 2163 211 2086 160 1984 160 
L 1984 -6 
C 2138 0 2413 0 2573 0 
C 2746 0 2950 0 3091 -6 
L 3091 160 
C 2771 160 2675 172 2522 370 
L 1664 1477 
z
" transform="scale(0.015625)"/>
       <path id="CMR17-61" d="M 2304 1653 
C 2304 2072 2304 2294 2035 2543 
C 1798 2752 1523 2816 1306 2816 
C 800 2816 435 2407 435 1971 
C 435 1728 627 1728 666 1728 
C 749 1728 896 1778 896 1954 
C 896 2112 774 2181 666 2181 
C 640 2181 608 2174 589 2168 
C 723 2592 1069 2714 1293 2714 
C 1613 2714 1965 2429 1965 1885 
L 1965 1600 
C 1587 1600 1133 1549 774 1357 
C 371 1133 256 813 256 570 
C 256 77 832 -64 1171 -64 
C 1523 -64 1850 139 1990 511 
C 2003 233 2182 -18 2464 -18 
C 2598 -18 2938 70 2938 567 
L 2938 920 
L 2822 920 
L 2822 562 
C 2822 178 2650 128 2566 128 
C 2304 128 2304 458 2304 738 
L 2304 1653 
z
M 1965 870 
C 1965 317 1568 38 1216 38 
C 896 38 646 275 646 570 
C 646 761 730 1100 1101 1305 
C 1408 1478 1760 1504 1965 1504 
L 1965 870 
z
" transform="scale(0.015625)"/>
       <path id="CMR17-6c" d="M 979 4396 
L 218 4326 
L 218 4160 
C 595 4160 653 4122 653 3817 
L 653 426 
C 653 184 627 153 218 153 
L 218 -13 
C 371 0 653 0 813 0 
C 979 0 1261 0 1414 -13 
L 1414 153 
C 1005 153 979 178 979 426 
L 979 4396 
z
" transform="scale(0.015625)"/>
       <path id="CMR17-66" d="M 979 2560 
L 1709 2560 
L 1709 2725 
L 966 2725 
L 966 3494 
C 966 4022 1235 4352 1510 4352 
C 1594 4352 1690 4327 1754 4282 
C 1702 4269 1568 4225 1568 4067 
C 1568 3901 1696 3850 1786 3850 
C 1875 3850 2003 3901 2003 4067 
C 2003 4308 1773 4454 1517 4454 
C 1152 4454 653 4156 653 3481 
L 653 2725 
L 141 2725 
L 141 2560 
L 653 2560 
L 653 427 
C 653 184 627 153 218 153 
L 218 -13 
C 371 0 666 0 832 0 
C 1018 0 1344 0 1517 -13 
L 1517 153 
C 1056 153 979 153 979 439 
L 979 2560 
z
" transform="scale(0.015625)"/>
       <path id="CMR17-6f" d="M 2758 1356 
C 2758 2176 2163 2816 1466 2816 
C 768 2816 173 2176 173 1356 
C 173 551 768 -64 1466 -64 
C 2163 -64 2758 551 2758 1356 
z
M 1466 51 
C 1165 51 909 230 762 480 
C 602 767 582 1126 582 1408 
C 582 1677 595 2010 762 2298 
C 890 2509 1139 2714 1466 2714 
C 1754 2714 1997 2554 2150 2330 
C 2349 2029 2349 1607 2349 1408 
C 2349 1158 2336 775 2163 467 
C 1984 173 1709 51 1466 51 
z
" transform="scale(0.015625)"/>
       <path id="CMR17-72" d="M 960 1497 
C 960 2112 1222 2688 1702 2688 
C 1747 2688 1792 2682 1837 2662 
C 1837 2662 1696 2617 1696 2452 
C 1696 2298 1818 2234 1914 2234 
C 1990 2234 2131 2279 2131 2458 
C 2131 2663 1926 2790 1709 2790 
C 1222 2790 1011 2317 947 2093 
L 941 2093 
L 941 2790 
L 198 2720 
L 198 2554 
C 576 2554 634 2515 634 2208 
L 634 428 
C 634 184 608 153 198 153 
L 198 -13 
C 352 0 646 0 813 0 
C 998 0 1325 0 1498 -13 
L 1498 153 
C 1037 153 960 153 960 440 
L 960 1497 
z
" transform="scale(0.015625)"/>
       <path id="CMR17-63" d="M 2234 2240 
C 2112 2240 1933 2240 1933 2017 
C 1933 1838 2080 1787 2163 1787 
C 2208 1787 2394 1807 2394 2024 
C 2394 2467 1958 2803 1466 2803 
C 787 2803 211 2178 211 1363 
C 211 516 813 -64 1466 -64 
C 2259 -64 2458 677 2458 748 
C 2458 774 2451 793 2406 793 
C 2362 793 2355 787 2330 703 
C 2163 180 1798 51 1523 51 
C 1114 51 621 427 621 1369 
C 621 2338 1094 2688 1472 2688 
C 1722 2688 2093 2573 2234 2240 
z
" transform="scale(0.015625)"/>
       <path id="CMR17-4e" d="M 1312 4250 
C 1267 4320 1261 4320 1139 4320 
L 326 4320 
L 326 4160 
L 448 4160 
C 704 4160 819 4129 838 4122 
L 838 610 
C 838 451 838 153 326 153 
L 326 -13 
C 474 0 742 0 902 0 
C 1062 0 1331 0 1478 -13 
L 1478 153 
C 966 153 966 451 966 610 
L 966 4033 
C 1011 3995 1011 3982 1056 3919 
L 3430 76 
C 3475 0 3494 0 3526 0 
C 3590 0 3590 19 3590 139 
L 3590 3705 
C 3590 3863 3590 4160 4102 4160 
L 4102 4326 
C 3955 4320 3686 4320 3526 4320 
C 3366 4320 3098 4320 2950 4326 
L 2950 4160 
C 3462 4160 3462 3862 3462 3703 
L 3462 763 
L 1312 4250 
z
" transform="scale(0.015625)"/>
      </defs>
      <use xlink:href="#CMR17-41" transform="scale(0.996264)"/>
      <use xlink:href="#CMR17-78" transform="translate(69.07243 0) scale(0.996264)"/>
      <use xlink:href="#CMR17-69" transform="translate(117.365346 0) scale(0.996264)"/>
      <use xlink:href="#CMR17-61" transform="translate(142.236404 0) scale(0.996264)"/>
      <use xlink:href="#CMR17-6c" transform="translate(187.926881 0) scale(0.996264)"/>
      <use xlink:href="#CMR17-66" transform="translate(242.873906 0) scale(0.996264)"/>
      <use xlink:href="#CMR17-6f" transform="translate(270.347418 0) scale(0.996264)"/>
      <use xlink:href="#CMR17-72" transform="translate(316.037896 0) scale(0.996264)"/>
      <use xlink:href="#CMR17-63" transform="translate(351.318663 0) scale(0.996264)"/>
      <use xlink:href="#CMR17-65" transform="translate(391.804324 0) scale(0.996264)"/>
      <use xlink:href="#CMR17-5b" transform="translate(462.365951 0) scale(0.996264)"/>
      <use xlink:href="#CMR17-4e" transform="translate(487.237009 0) scale(0.996264)"/>
      <use xlink:href="#CMR17-5d" transform="translate(556.309439 0) scale(0.996264)"/>
     </g>
    </g>
   </g>
   <g id="line2d_29">
    <path d="M 65.739578 39.613749 
L 104.305622 39.613749 
L 104.459886 53.312714 
L 142.871666 53.312714 
L 143.02593 90.682961 
L 181.43771 90.682961 
L 181.591974 34.755987 
L 220.003753 34.755987 
L 220.158017 96.567268 
L 258.569797 96.567268 
L 258.724061 81.73054 
L 297.135841 81.73054 
L 297.290105 69.535966 
L 335.701885 69.535966 
L 335.701885 69.535966 
" clip-path="url(#pb84032bdbb)" style="fill: none; stroke: #1f77b4; stroke-width: 1.5; stroke-linecap: square"/>
    <defs>
     <path id="ma9f8ee2119" d="M 0 2.5 
C 0.663008 2.5 1.29895 2.236584 1.767767 1.767767 
C 2.236584 1.29895 2.5 0.663008 2.5 0 
C 2.5 -0.663008 2.236584 -1.29895 1.767767 -1.767767 
C 1.29895 -2.236584 0.663008 -2.5 0 -2.5 
C -0.663008 -2.5 -1.29895 -2.236584 -1.767767 -1.767767 
C -2.236584 -1.29895 -2.5 -0.663008 -2.5 0 
C -2.5 0.663008 -2.236584 1.29895 -1.767767 1.767767 
C -1.29895 2.236584 -0.663008 2.5 0 2.5 
z
" style="stroke: #1f77b4"/>
    </defs>
    <g clip-path="url(#pb84032bdbb)">
     <use xlink:href="#ma9f8ee2119" x="65.739578" y="39.613749" style="fill: #1f77b4; stroke: #1f77b4"/>
     <use xlink:href="#ma9f8ee2119" x="73.452787" y="39.613749" style="fill: #1f77b4; stroke: #1f77b4"/>
     <use xlink:href="#ma9f8ee2119" x="81.165996" y="39.613749" style="fill: #1f77b4; stroke: #1f77b4"/>
     <use xlink:href="#ma9f8ee2119" x="88.879204" y="39.613749" style="fill: #1f77b4; stroke: #1f77b4"/>
     <use xlink:href="#ma9f8ee2119" x="96.592413" y="39.613749" style="fill: #1f77b4; stroke: #1f77b4"/>
     <use xlink:href="#ma9f8ee2119" x="104.305622" y="39.613749" style="fill: #1f77b4; stroke: #1f77b4"/>
     <use xlink:href="#ma9f8ee2119" x="112.018831" y="53.312714" style="fill: #1f77b4; stroke: #1f77b4"/>
     <use xlink:href="#ma9f8ee2119" x="119.732039" y="53.312714" style="fill: #1f77b4; stroke: #1f77b4"/>
     <use xlink:href="#ma9f8ee2119" x="127.445248" y="53.312714" style="fill: #1f77b4; stroke: #1f77b4"/>
     <use xlink:href="#ma9f8ee2119" x="135.158457" y="53.312714" style="fill: #1f77b4; stroke: #1f77b4"/>
     <use xlink:href="#ma9f8ee2119" x="142.871666" y="53.312714" style="fill: #1f77b4; stroke: #1f77b4"/>
     <use xlink:href="#ma9f8ee2119" x="150.584874" y="90.682961" style="fill: #1f77b4; stroke: #1f77b4"/>
     <use xlink:href="#ma9f8ee2119" x="158.298083" y="90.682961" style="fill: #1f77b4; stroke: #1f77b4"/>
     <use xlink:href="#ma9f8ee2119" x="166.011292" y="90.682961" style="fill: #1f77b4; stroke: #1f77b4"/>
     <use xlink:href="#ma9f8ee2119" x="173.724501" y="90.682961" style="fill: #1f77b4; stroke: #1f77b4"/>
     <use xlink:href="#ma9f8ee2119" x="181.43771" y="90.682961" style="fill: #1f77b4; stroke: #1f77b4"/>
     <use xlink:href="#ma9f8ee2119" x="189.150918" y="34.755987" style="fill: #1f77b4; stroke: #1f77b4"/>
     <use xlink:href="#ma9f8ee2119" x="196.864127" y="34.755987" style="fill: #1f77b4; stroke: #1f77b4"/>
     <use xlink:href="#ma9f8ee2119" x="204.577336" y="34.755987" style="fill: #1f77b4; stroke: #1f77b4"/>
     <use xlink:href="#ma9f8ee2119" x="212.290545" y="34.755987" style="fill: #1f77b4; stroke: #1f77b4"/>
     <use xlink:href="#ma9f8ee2119" x="220.003753" y="34.755987" style="fill: #1f77b4; stroke: #1f77b4"/>
     <use xlink:href="#ma9f8ee2119" x="227.716962" y="96.567268" style="fill: #1f77b4; stroke: #1f77b4"/>
     <use xlink:href="#ma9f8ee2119" x="235.430171" y="96.567268" style="fill: #1f77b4; stroke: #1f77b4"/>
     <use xlink:href="#ma9f8ee2119" x="243.14338" y="96.567268" style="fill: #1f77b4; stroke: #1f77b4"/>
     <use xlink:href="#ma9f8ee2119" x="250.856588" y="96.567268" style="fill: #1f77b4; stroke: #1f77b4"/>
     <use xlink:href="#ma9f8ee2119" x="258.569797" y="96.567268" style="fill: #1f77b4; stroke: #1f77b4"/>
     <use xlink:href="#ma9f8ee2119" x="266.283006" y="81.73054" style="fill: #1f77b4; stroke: #1f77b4"/>
     <use xlink:href="#ma9f8ee2119" x="273.996215" y="81.73054" style="fill: #1f77b4; stroke: #1f77b4"/>
     <use xlink:href="#ma9f8ee2119" x="281.709423" y="81.73054" style="fill: #1f77b4; stroke: #1f77b4"/>
     <use xlink:href="#ma9f8ee2119" x="289.422632" y="81.73054" style="fill: #1f77b4; stroke: #1f77b4"/>
     <use xlink:href="#ma9f8ee2119" x="297.135841" y="81.73054" style="fill: #1f77b4; stroke: #1f77b4"/>
     <use xlink:href="#ma9f8ee2119" x="304.84905" y="69.535966" style="fill: #1f77b4; stroke: #1f77b4"/>
     <use xlink:href="#ma9f8ee2119" x="312.562258" y="69.535966" style="fill: #1f77b4; stroke: #1f77b4"/>
     <use xlink:href="#ma9f8ee2119" x="320.275467" y="69.535966" style="fill: #1f77b4; stroke: #1f77b4"/>
     <use xlink:href="#ma9f8ee2119" x="327.988676" y="69.535966" style="fill: #1f77b4; stroke: #1f77b4"/>
     <use xlink:href="#ma9f8ee2119" x="335.701885" y="69.535966" style="fill: #1f77b4; stroke: #1f77b4"/>
    </g>
   </g>
   <g id="line2d_30">
    <path d="M 65.739578 120.476028 
L 104.305622 120.476028 
L 104.459886 39.075879 
L 142.871666 39.075879 
L 143.02593 95.779005 
L 181.43771 95.779005 
L 181.591974 47.555824 
L 220.003753 47.555824 
L 220.158017 77.756138 
L 258.569797 77.756138 
L 258.724061 55.304288 
L 297.135841 55.304288 
L 297.290105 85.95075 
L 335.701885 85.95075 
L 335.701885 85.95075 
" clip-path="url(#pb84032bdbb)" style="fill: none; stroke: #ff7f0e; stroke-width: 1.5; stroke-linecap: square"/>
    <defs>
     <path id="m71d575c635" d="M 0 2.5 
C 0.663008 2.5 1.29895 2.236584 1.767767 1.767767 
C 2.236584 1.29895 2.5 0.663008 2.5 0 
C 2.5 -0.663008 2.236584 -1.29895 1.767767 -1.767767 
C 1.29895 -2.236584 0.663008 -2.5 0 -2.5 
C -0.663008 -2.5 -1.29895 -2.236584 -1.767767 -1.767767 
C -2.236584 -1.29895 -2.5 -0.663008 -2.5 0 
C -2.5 0.663008 -2.236584 1.29895 -1.767767 1.767767 
C -1.29895 2.236584 -0.663008 2.5 0 2.5 
z
" style="stroke: #ff7f0e"/>
    </defs>
    <g clip-path="url(#pb84032bdbb)">
     <use xlink:href="#m71d575c635" x="65.739578" y="120.476028" style="fill: #ff7f0e; stroke: #ff7f0e"/>
     <use xlink:href="#m71d575c635" x="73.452787" y="120.476028" style="fill: #ff7f0e; stroke: #ff7f0e"/>
     <use xlink:href="#m71d575c635" x="81.165996" y="120.476028" style="fill: #ff7f0e; stroke: #ff7f0e"/>
     <use xlink:href="#m71d575c635" x="88.879204" y="120.476028" style="fill: #ff7f0e; stroke: #ff7f0e"/>
     <use xlink:href="#m71d575c635" x="96.592413" y="120.476028" style="fill: #ff7f0e; stroke: #ff7f0e"/>
     <use xlink:href="#m71d575c635" x="104.305622" y="120.476028" style="fill: #ff7f0e; stroke: #ff7f0e"/>
     <use xlink:href="#m71d575c635" x="112.018831" y="39.075879" style="fill: #ff7f0e; stroke: #ff7f0e"/>
     <use xlink:href="#m71d575c635" x="119.732039" y="39.075879" style="fill: #ff7f0e; stroke: #ff7f0e"/>
     <use xlink:href="#m71d575c635" x="127.445248" y="39.075879" style="fill: #ff7f0e; stroke: #ff7f0e"/>
     <use xlink:href="#m71d575c635" x="135.158457" y="39.075879" style="fill: #ff7f0e; stroke: #ff7f0e"/>
     <use xlink:href="#m71d575c635" x="142.871666" y="39.075879" style="fill: #ff7f0e; stroke: #ff7f0e"/>
     <use xlink:href="#m71d575c635" x="150.584874" y="95.779005" style="fill: #ff7f0e; stroke: #ff7f0e"/>
     <use xlink:href="#m71d575c635" x="158.298083" y="95.779005" style="fill: #ff7f0e; stroke: #ff7f0e"/>
     <use xlink:href="#m71d575c635" x="166.011292" y="95.779005" style="fill: #ff7f0e; stroke: #ff7f0e"/>
     <use xlink:href="#m71d575c635" x="173.724501" y="95.779005" style="fill: #ff7f0e; stroke: #ff7f0e"/>
     <use xlink:href="#m71d575c635" x="181.43771" y="95.779005" style="fill: #ff7f0e; stroke: #ff7f0e"/>
     <use xlink:href="#m71d575c635" x="189.150918" y="47.555824" style="fill: #ff7f0e; stroke: #ff7f0e"/>
     <use xlink:href="#m71d575c635" x="196.864127" y="47.555824" style="fill: #ff7f0e; stroke: #ff7f0e"/>
     <use xlink:href="#m71d575c635" x="204.577336" y="47.555824" style="fill: #ff7f0e; stroke: #ff7f0e"/>
     <use xlink:href="#m71d575c635" x="212.290545" y="47.555824" style="fill: #ff7f0e; stroke: #ff7f0e"/>
     <use xlink:href="#m71d575c635" x="220.003753" y="47.555824" style="fill: #ff7f0e; stroke: #ff7f0e"/>
     <use xlink:href="#m71d575c635" x="227.716962" y="77.756138" style="fill: #ff7f0e; stroke: #ff7f0e"/>
     <use xlink:href="#m71d575c635" x="235.430171" y="77.756138" style="fill: #ff7f0e; stroke: #ff7f0e"/>
     <use xlink:href="#m71d575c635" x="243.14338" y="77.756138" style="fill: #ff7f0e; stroke: #ff7f0e"/>
     <use xlink:href="#m71d575c635" x="250.856588" y="77.756138" style="fill: #ff7f0e; stroke: #ff7f0e"/>
     <use xlink:href="#m71d575c635" x="258.569797" y="77.756138" style="fill: #ff7f0e; stroke: #ff7f0e"/>
     <use xlink:href="#m71d575c635" x="266.283006" y="55.304288" style="fill: #ff7f0e; stroke: #ff7f0e"/>
     <use xlink:href="#m71d575c635" x="273.996215" y="55.304288" style="fill: #ff7f0e; stroke: #ff7f0e"/>
     <use xlink:href="#m71d575c635" x="281.709423" y="55.304288" style="fill: #ff7f0e; stroke: #ff7f0e"/>
     <use xlink:href="#m71d575c635" x="289.422632" y="55.304288" style="fill: #ff7f0e; stroke: #ff7f0e"/>
     <use xlink:href="#m71d575c635" x="297.135841" y="55.304288" style="fill: #ff7f0e; stroke: #ff7f0e"/>
     <use xlink:href="#m71d575c635" x="304.84905" y="85.95075" style="fill: #ff7f0e; stroke: #ff7f0e"/>
     <use xlink:href="#m71d575c635" x="312.562258" y="85.95075" style="fill: #ff7f0e; stroke: #ff7f0e"/>
     <use xlink:href="#m71d575c635" x="320.275467" y="85.95075" style="fill: #ff7f0e; stroke: #ff7f0e"/>
     <use xlink:href="#m71d575c635" x="327.988676" y="85.95075" style="fill: #ff7f0e; stroke: #ff7f0e"/>
     <use xlink:href="#m71d575c635" x="335.701885" y="85.95075" style="fill: #ff7f0e; stroke: #ff7f0e"/>
    </g>
   </g>
   <g id="line2d_31">
    <path d="M 65.739578 53.644275 
L 65.81671 107.483319 
L 65.893842 101.21622 
L 66.202371 85.103449 
L 66.510899 78.256959 
L 66.819427 75.359756 
L 67.127956 74.114118 
L 67.513616 73.477068 
L 67.976409 73.185628 
L 68.901994 72.955857 
L 71.138824 72.646935 
L 80.471807 71.766388 
L 82.400109 71.62968 
L 86.256713 71.374271 
L 93.738526 71.022419 
L 104.305622 70.702347 
L 104.382754 102.206496 
L 104.459886 98.987679 
L 104.845547 81.797751 
L 105.154075 77.211016 
L 105.462603 75.46255 
L 105.771132 74.808994 
L 106.156792 74.536636 
L 106.773849 74.424874 
L 107.390905 74.358154 
L 111.324642 73.966035 
L 115.566907 73.651604 
L 115.875435 73.61579 
L 117.418077 73.612816 
L 119.114983 73.511893 
L 119.577775 73.493479 
L 120.811889 73.415442 
L 121.351813 73.389754 
L 122.35453 73.332427 
L 123.048719 73.292457 
L 123.82004 73.260217 
L 124.668493 73.209702 
L 125.594078 73.20666 
L 134.001476 72.922222 
L 140.249175 72.780315 
L 142.871666 72.737191 
L 142.948798 68.899137 
L 143.02593 70.512102 
L 143.334458 74.245722 
L 143.642987 75.795358 
L 143.951515 76.439693 
L 144.337175 76.750774 
L 144.954232 76.897208 
L 147.499591 77.058492 
L 154.595743 77.364379 
L 181.43771 77.879207 
L 181.514842 115.487748 
L 181.591974 109.230299 
L 181.977634 84.603161 
L 182.286162 77.630568 
L 182.594691 74.847776 
L 182.903219 73.737346 
L 183.28888 73.221599 
L 183.828804 72.981953 
L 186.219899 72.469233 
L 189.150918 72.120562 
L 201.02926 70.973777 
L 202.88043 70.835881 
L 204.423072 70.729263 
L 206.042845 70.622486 
L 208.125412 70.523299 
L 211.287827 70.378362 
L 216.995602 70.161281 
L 220.003753 70.069024 
L 220.080885 65.576535 
L 220.312282 71.385946 
L 220.62081 74.755496 
L 220.929338 76.259456 
L 221.237867 76.917116 
L 221.623527 77.260388 
L 222.240584 77.445365 
L 223.243301 77.523111 
L 223.551829 77.512315 
L 225.094471 77.681713 
L 229.182472 77.942233 
L 229.568132 77.961304 
L 231.34217 78.085986 
L 237.127077 78.359448 
L 239.286775 78.42905 
L 242.834851 78.547571 
L 247.771305 78.670524 
L 258.569797 78.858082 
L 258.646929 79.11401 
L 258.724061 80.230723 
L 259.186854 76.993125 
L 259.495382 76.564395 
L 259.881043 76.473301 
L 269.445421 76.638206 
L 269.75395 76.607978 
L 271.296592 76.712199 
L 272.993497 76.723765 
L 273.533422 76.722071 
L 274.690403 76.730308 
L 275.30746 76.717426 
L 276.155913 76.722162 
L 276.927234 76.71674 
L 277.698555 76.734557 
L 278.547008 76.715346 
L 280.47531 76.737313 
L 282.249348 76.761751 
L 297.135841 76.79432 
L 297.212973 87.864716 
L 297.290105 87.048657 
L 297.675765 78.863537 
L 297.984294 76.841461 
L 298.292822 76.074034 
L 298.678483 75.74885 
L 299.295539 75.632131 
L 303.537804 75.433224 
L 307.471541 75.411026 
L 311.405277 75.310145 
L 312.099466 75.31186 
L 313.333579 75.30474 
L 316.958787 75.207619 
L 318.578561 75.179627 
L 327.834412 75.101505 
L 335.701885 75.043795 
L 335.701885 75.043795 
" clip-path="url(#pb84032bdbb)" style="fill: none; stroke: #1f77b4; stroke-width: 1.5; stroke-linecap: square"/>
    <defs>
     <path id="m4f00086ead" d="M -0 2.5 
L 2.5 -2.5 
L -2.5 -2.5 
z
" style="stroke: #1f77b4; stroke-linejoin: miter"/>
    </defs>
    <g clip-path="url(#pb84032bdbb)">
     <use xlink:href="#m4f00086ead" x="65.739578" y="53.644275" style="fill: #1f77b4; stroke: #1f77b4; stroke-linejoin: miter"/>
     <use xlink:href="#m4f00086ead" x="73.452787" y="72.427407" style="fill: #1f77b4; stroke: #1f77b4; stroke-linejoin: miter"/>
     <use xlink:href="#m4f00086ead" x="81.165996" y="71.709223" style="fill: #1f77b4; stroke: #1f77b4; stroke-linejoin: miter"/>
     <use xlink:href="#m4f00086ead" x="88.879204" y="71.232149" style="fill: #1f77b4; stroke: #1f77b4; stroke-linejoin: miter"/>
     <use xlink:href="#m4f00086ead" x="96.592413" y="70.918314" style="fill: #1f77b4; stroke: #1f77b4; stroke-linejoin: miter"/>
     <use xlink:href="#m4f00086ead" x="104.305622" y="70.702347" style="fill: #1f77b4; stroke: #1f77b4; stroke-linejoin: miter"/>
     <use xlink:href="#m4f00086ead" x="112.018831" y="73.929112" style="fill: #1f77b4; stroke: #1f77b4; stroke-linejoin: miter"/>
     <use xlink:href="#m4f00086ead" x="119.732039" y="73.471737" style="fill: #1f77b4; stroke: #1f77b4; stroke-linejoin: miter"/>
     <use xlink:href="#m4f00086ead" x="127.445248" y="73.116052" style="fill: #1f77b4; stroke: #1f77b4; stroke-linejoin: miter"/>
     <use xlink:href="#m4f00086ead" x="135.158457" y="72.886001" style="fill: #1f77b4; stroke: #1f77b4; stroke-linejoin: miter"/>
     <use xlink:href="#m4f00086ead" x="142.871666" y="72.737191" style="fill: #1f77b4; stroke: #1f77b4; stroke-linejoin: miter"/>
     <use xlink:href="#m4f00086ead" x="150.584874" y="77.203377" style="fill: #1f77b4; stroke: #1f77b4; stroke-linejoin: miter"/>
     <use xlink:href="#m4f00086ead" x="158.298083" y="77.482833" style="fill: #1f77b4; stroke: #1f77b4; stroke-linejoin: miter"/>
     <use xlink:href="#m4f00086ead" x="166.011292" y="77.670281" style="fill: #1f77b4; stroke: #1f77b4; stroke-linejoin: miter"/>
     <use xlink:href="#m4f00086ead" x="173.724501" y="77.794601" style="fill: #1f77b4; stroke: #1f77b4; stroke-linejoin: miter"/>
     <use xlink:href="#m4f00086ead" x="181.43771" y="77.879207" style="fill: #1f77b4; stroke: #1f77b4; stroke-linejoin: miter"/>
     <use xlink:href="#m4f00086ead" x="189.150918" y="72.120562" style="fill: #1f77b4; stroke: #1f77b4; stroke-linejoin: miter"/>
     <use xlink:href="#m4f00086ead" x="196.864127" y="71.299557" style="fill: #1f77b4; stroke: #1f77b4; stroke-linejoin: miter"/>
     <use xlink:href="#m4f00086ead" x="204.577336" y="70.708771" style="fill: #1f77b4; stroke: #1f77b4; stroke-linejoin: miter"/>
     <use xlink:href="#m4f00086ead" x="212.290545" y="70.329315" style="fill: #1f77b4; stroke: #1f77b4; stroke-linejoin: miter"/>
     <use xlink:href="#m4f00086ead" x="220.003753" y="70.069024" style="fill: #1f77b4; stroke: #1f77b4; stroke-linejoin: miter"/>
     <use xlink:href="#m4f00086ead" x="227.716962" y="77.921588" style="fill: #1f77b4; stroke: #1f77b4; stroke-linejoin: miter"/>
     <use xlink:href="#m4f00086ead" x="235.430171" y="78.279522" style="fill: #1f77b4; stroke: #1f77b4; stroke-linejoin: miter"/>
     <use xlink:href="#m4f00086ead" x="243.14338" y="78.559026" style="fill: #1f77b4; stroke: #1f77b4; stroke-linejoin: miter"/>
     <use xlink:href="#m4f00086ead" x="250.856588" y="78.734064" style="fill: #1f77b4; stroke: #1f77b4; stroke-linejoin: miter"/>
     <use xlink:href="#m4f00086ead" x="258.569797" y="78.858082" style="fill: #1f77b4; stroke: #1f77b4; stroke-linejoin: miter"/>
     <use xlink:href="#m4f00086ead" x="266.283006" y="76.638852" style="fill: #1f77b4; stroke: #1f77b4; stroke-linejoin: miter"/>
     <use xlink:href="#m4f00086ead" x="273.996215" y="76.662851" style="fill: #1f77b4; stroke: #1f77b4; stroke-linejoin: miter"/>
     <use xlink:href="#m4f00086ead" x="281.709423" y="76.734974" style="fill: #1f77b4; stroke: #1f77b4; stroke-linejoin: miter"/>
     <use xlink:href="#m4f00086ead" x="289.422632" y="76.781124" style="fill: #1f77b4; stroke: #1f77b4; stroke-linejoin: miter"/>
     <use xlink:href="#m4f00086ead" x="297.135841" y="76.79432" style="fill: #1f77b4; stroke: #1f77b4; stroke-linejoin: miter"/>
     <use xlink:href="#m4f00086ead" x="304.84905" y="75.439985" style="fill: #1f77b4; stroke: #1f77b4; stroke-linejoin: miter"/>
     <use xlink:href="#m4f00086ead" x="312.562258" y="75.251264" style="fill: #1f77b4; stroke: #1f77b4; stroke-linejoin: miter"/>
     <use xlink:href="#m4f00086ead" x="320.275467" y="75.165061" style="fill: #1f77b4; stroke: #1f77b4; stroke-linejoin: miter"/>
     <use xlink:href="#m4f00086ead" x="327.988676" y="75.099775" style="fill: #1f77b4; stroke: #1f77b4; stroke-linejoin: miter"/>
     <use xlink:href="#m4f00086ead" x="335.701885" y="75.043795" style="fill: #1f77b4; stroke: #1f77b4; stroke-linejoin: miter"/>
    </g>
   </g>
   <g id="line2d_32">
    <path d="M 65.739578 102.765344 
L 65.81671 46.278586 
L 65.893842 52.664054 
L 66.202371 67.692534 
L 66.510899 74.428117 
L 66.819427 77.500838 
L 67.127956 78.916426 
L 67.513616 79.689224 
L 67.976409 80.058966 
L 68.670597 80.28402 
L 72.45007 80.973656 
L 76.229542 81.532176 
L 80.626071 82.049078 
L 86.48811 82.563709 
L 94.201318 83.031241 
L 104.151358 83.403806 
L 104.305622 83.408125 
L 104.382754 109.140031 
L 104.459886 104.829304 
L 104.845547 84.500004 
L 105.154075 78.017248 
L 105.462603 75.162853 
L 105.771132 73.884751 
L 106.156792 73.216195 
L 106.619585 72.914958 
L 107.622302 72.655889 
L 111.016114 72.014706 
L 119.654907 70.979479 
L 126.673927 70.409662 
L 132.381702 70.082241 
L 140.249175 69.770755 
L 142.871666 69.693293 
L 142.948798 63.334856 
L 143.02593 65.977132 
L 143.334458 72.442867 
L 143.642987 75.337169 
L 143.951515 76.639832 
L 144.337175 77.323907 
L 144.799968 77.624962 
L 145.571289 77.783625 
L 149.273629 78.12726 
L 157.681027 78.63412 
L 169.173708 79.041442 
L 181.43771 79.267979 
L 181.514842 102.722126 
L 181.591974 99.467275 
L 181.977634 83.125177 
L 182.286162 77.836825 
L 182.594691 75.514264 
L 182.903219 74.477892 
L 183.28888 73.937617 
L 183.751672 73.694828 
L 184.908653 73.454601 
L 188.148201 72.957207 
L 198.175373 72.045265 
L 209.590921 71.437752 
L 218.461112 71.168308 
L 220.003753 71.133663 
L 220.158017 77.684272 
L 220.312282 77.380423 
L 220.62081 76.800912 
L 221.083603 76.471632 
L 221.854923 76.276886 
L 223.628961 76.137212 
L 225.557264 76.203707 
L 228.642547 76.265538 
L 230.030925 76.271128 
L 232.499151 76.277742 
L 235.04451 76.289415 
L 245.611606 76.305695 
L 258.569797 76.319187 
L 258.646929 95.546614 
L 258.724061 93.415485 
L 259.109722 81.43717 
L 259.41825 77.517772 
L 259.726778 75.770354 
L 260.112439 74.853378 
L 260.498099 74.496649 
L 261.115156 74.287053 
L 263.891911 73.844205 
L 266.668666 73.658007 
L 271.60512 73.270805 
L 276.77297 72.960476 
L 292.816444 72.41546 
L 297.135841 72.333786 
L 297.212973 73.176318 
L 297.367237 76.108535 
L 298.138558 76.903671 
L 298.678483 77.114106 
L 299.758332 77.217487 
L 301.995162 77.180346 
L 304.84905 77.296217 
L 307.317276 77.363529 
L 312.485126 77.426431 
L 335.701885 77.579461 
L 335.701885 77.579461 
" clip-path="url(#pb84032bdbb)" style="fill: none; stroke: #ff7f0e; stroke-width: 1.5; stroke-linecap: square"/>
    <defs>
     <path id="m04c52b358d" d="M -0 2.5 
L 2.5 -2.5 
L -2.5 -2.5 
z
" style="stroke: #ff7f0e; stroke-linejoin: miter"/>
    </defs>
    <g clip-path="url(#pb84032bdbb)">
     <use xlink:href="#m04c52b358d" x="65.739578" y="102.765344" style="fill: #ff7f0e; stroke: #ff7f0e; stroke-linejoin: miter"/>
     <use xlink:href="#m04c52b358d" x="73.452787" y="81.156679" style="fill: #ff7f0e; stroke: #ff7f0e; stroke-linejoin: miter"/>
     <use xlink:href="#m04c52b358d" x="81.165996" y="82.104449" style="fill: #ff7f0e; stroke: #ff7f0e; stroke-linejoin: miter"/>
     <use xlink:href="#m04c52b358d" x="88.879204" y="82.73038" style="fill: #ff7f0e; stroke: #ff7f0e; stroke-linejoin: miter"/>
     <use xlink:href="#m04c52b358d" x="96.592413" y="83.140182" style="fill: #ff7f0e; stroke: #ff7f0e; stroke-linejoin: miter"/>
     <use xlink:href="#m04c52b358d" x="104.305622" y="83.408125" style="fill: #ff7f0e; stroke: #ff7f0e; stroke-linejoin: miter"/>
     <use xlink:href="#m04c52b358d" x="112.018831" y="71.893392" style="fill: #ff7f0e; stroke: #ff7f0e; stroke-linejoin: miter"/>
     <use xlink:href="#m04c52b358d" x="119.732039" y="70.972001" style="fill: #ff7f0e; stroke: #ff7f0e; stroke-linejoin: miter"/>
     <use xlink:href="#m04c52b358d" x="127.445248" y="70.358346" style="fill: #ff7f0e; stroke: #ff7f0e; stroke-linejoin: miter"/>
     <use xlink:href="#m04c52b358d" x="135.158457" y="69.956784" style="fill: #ff7f0e; stroke: #ff7f0e; stroke-linejoin: miter"/>
     <use xlink:href="#m04c52b358d" x="142.871666" y="69.693293" style="fill: #ff7f0e; stroke: #ff7f0e; stroke-linejoin: miter"/>
     <use xlink:href="#m04c52b358d" x="150.584874" y="78.21642" style="fill: #ff7f0e; stroke: #ff7f0e; stroke-linejoin: miter"/>
     <use xlink:href="#m04c52b358d" x="158.298083" y="78.662836" style="fill: #ff7f0e; stroke: #ff7f0e; stroke-linejoin: miter"/>
     <use xlink:href="#m04c52b358d" x="166.011292" y="78.953893" style="fill: #ff7f0e; stroke: #ff7f0e; stroke-linejoin: miter"/>
     <use xlink:href="#m04c52b358d" x="173.724501" y="79.143662" style="fill: #ff7f0e; stroke: #ff7f0e; stroke-linejoin: miter"/>
     <use xlink:href="#m04c52b358d" x="181.43771" y="79.267979" style="fill: #ff7f0e; stroke: #ff7f0e; stroke-linejoin: miter"/>
     <use xlink:href="#m04c52b358d" x="189.150918" y="72.869675" style="fill: #ff7f0e; stroke: #ff7f0e; stroke-linejoin: miter"/>
     <use xlink:href="#m04c52b358d" x="196.864127" y="72.146442" style="fill: #ff7f0e; stroke: #ff7f0e; stroke-linejoin: miter"/>
     <use xlink:href="#m04c52b358d" x="204.577336" y="71.661519" style="fill: #ff7f0e; stroke: #ff7f0e; stroke-linejoin: miter"/>
     <use xlink:href="#m04c52b358d" x="212.290545" y="71.34203" style="fill: #ff7f0e; stroke: #ff7f0e; stroke-linejoin: miter"/>
     <use xlink:href="#m04c52b358d" x="220.003753" y="71.133663" style="fill: #ff7f0e; stroke: #ff7f0e; stroke-linejoin: miter"/>
     <use xlink:href="#m04c52b358d" x="227.716962" y="76.291375" style="fill: #ff7f0e; stroke: #ff7f0e; stroke-linejoin: miter"/>
     <use xlink:href="#m04c52b358d" x="235.430171" y="76.289186" style="fill: #ff7f0e; stroke: #ff7f0e; stroke-linejoin: miter"/>
     <use xlink:href="#m04c52b358d" x="243.14338" y="76.30098" style="fill: #ff7f0e; stroke: #ff7f0e; stroke-linejoin: miter"/>
     <use xlink:href="#m04c52b358d" x="250.856588" y="76.312629" style="fill: #ff7f0e; stroke: #ff7f0e; stroke-linejoin: miter"/>
     <use xlink:href="#m04c52b358d" x="258.569797" y="76.319187" style="fill: #ff7f0e; stroke: #ff7f0e; stroke-linejoin: miter"/>
     <use xlink:href="#m04c52b358d" x="266.283006" y="73.678495" style="fill: #ff7f0e; stroke: #ff7f0e; stroke-linejoin: miter"/>
     <use xlink:href="#m04c52b358d" x="273.996215" y="73.12021" style="fill: #ff7f0e; stroke: #ff7f0e; stroke-linejoin: miter"/>
     <use xlink:href="#m04c52b358d" x="281.709423" y="72.741726" style="fill: #ff7f0e; stroke: #ff7f0e; stroke-linejoin: miter"/>
     <use xlink:href="#m04c52b358d" x="289.422632" y="72.493734" style="fill: #ff7f0e; stroke: #ff7f0e; stroke-linejoin: miter"/>
     <use xlink:href="#m04c52b358d" x="297.135841" y="72.333786" style="fill: #ff7f0e; stroke: #ff7f0e; stroke-linejoin: miter"/>
     <use xlink:href="#m04c52b358d" x="304.84905" y="77.296217" style="fill: #ff7f0e; stroke: #ff7f0e; stroke-linejoin: miter"/>
     <use xlink:href="#m04c52b358d" x="312.562258" y="77.426993" style="fill: #ff7f0e; stroke: #ff7f0e; stroke-linejoin: miter"/>
     <use xlink:href="#m04c52b358d" x="320.275467" y="77.49955" style="fill: #ff7f0e; stroke: #ff7f0e; stroke-linejoin: miter"/>
     <use xlink:href="#m04c52b358d" x="327.988676" y="77.547182" style="fill: #ff7f0e; stroke: #ff7f0e; stroke-linejoin: miter"/>
     <use xlink:href="#m04c52b358d" x="335.701885" y="77.579461" style="fill: #ff7f0e; stroke: #ff7f0e; stroke-linejoin: miter"/>
    </g>
   </g>
   <g id="line2d_33">
    <path d="M 65.739578 17.299167 
L 65.81671 71.138212 
L 65.893842 64.871113 
L 66.202371 48.758342 
L 66.510899 41.911852 
L 66.819427 39.014648 
L 67.127956 37.76901 
L 67.513616 37.131961 
L 67.976409 36.840521 
L 68.901994 36.61075 
L 71.138824 36.301827 
L 80.471807 35.42128 
L 82.400109 35.284572 
L 86.256713 35.029164 
L 93.738526 34.677312 
L 104.305622 34.35724 
L 104.382754 79.560353 
L 104.459886 76.341536 
L 104.845547 59.151609 
L 105.154075 54.564874 
L 105.462603 52.816408 
L 105.771132 52.162851 
L 106.156792 51.890494 
L 106.773849 51.778732 
L 107.390905 51.712012 
L 111.324642 51.319893 
L 115.566907 51.005461 
L 115.875435 50.969647 
L 117.418077 50.966673 
L 119.114983 50.865751 
L 119.577775 50.847336 
L 120.811889 50.769299 
L 121.351813 50.743611 
L 122.35453 50.686285 
L 123.048719 50.646314 
L 123.82004 50.614075 
L 124.668493 50.56356 
L 125.594078 50.560518 
L 134.001476 50.27608 
L 140.249175 50.134173 
L 142.871666 50.091048 
L 143.02593 85.236207 
L 143.334458 88.969827 
L 143.642987 90.519462 
L 143.951515 91.163797 
L 144.337175 91.474878 
L 144.954232 91.621313 
L 147.499591 91.782596 
L 154.595743 92.088484 
L 181.43771 92.603311 
L 181.669106 61.110133 
L 181.977634 43.400291 
L 182.286162 36.427698 
L 182.594691 33.644906 
L 182.903219 32.534475 
L 183.28888 32.018729 
L 183.828804 31.779083 
L 186.219899 31.266363 
L 189.150918 30.917692 
L 201.02926 29.770907 
L 202.88043 29.633011 
L 204.423072 29.526393 
L 206.042845 29.419616 
L 208.125412 29.320428 
L 211.287827 29.175492 
L 216.995602 28.95841 
L 220.003753 28.866153 
L 220.158017 88.914088 
L 220.466546 93.998185 
L 220.775074 96.270638 
L 221.083603 97.262577 
L 221.469263 97.768539 
L 221.932055 97.989085 
L 222.857641 98.118019 
L 223.474697 98.10599 
L 224.940207 98.276282 
L 229.182472 98.550645 
L 229.568132 98.569715 
L 231.34217 98.694398 
L 237.127077 98.967859 
L 239.286775 99.037461 
L 242.834851 99.155982 
L 247.771305 99.278935 
L 258.569797 99.466494 
L 258.646929 84.885693 
L 258.724061 86.002406 
L 259.186854 82.764808 
L 259.495382 82.336078 
L 259.881043 82.244984 
L 269.445421 82.409889 
L 269.75395 82.379661 
L 271.296592 82.483882 
L 272.993497 82.495448 
L 273.533422 82.493754 
L 274.690403 82.501991 
L 275.30746 82.489109 
L 276.155913 82.493845 
L 276.927234 82.488423 
L 277.698555 82.50624 
L 278.547008 82.487029 
L 280.47531 82.508996 
L 282.249348 82.533434 
L 297.135841 82.566003 
L 297.367237 78.370261 
L 297.675765 72.440646 
L 297.984294 70.41857 
L 298.292822 69.651143 
L 298.678483 69.325959 
L 299.295539 69.20924 
L 303.537804 69.010333 
L 307.471541 68.988135 
L 311.405277 68.887254 
L 312.099466 68.888969 
L 313.333579 68.88185 
L 316.958787 68.784728 
L 318.578561 68.756736 
L 327.834412 68.678614 
L 335.701885 68.620905 
L 335.701885 68.620905 
" clip-path="url(#pb84032bdbb)" style="fill: none; stroke: #1f77b4; stroke-width: 2; stroke-linecap: square"/>
   </g>
   <g id="line2d_34">
    <path d="M 65.739578 147.282516 
L 65.81671 90.795757 
L 65.893842 97.181226 
L 66.202371 112.209705 
L 66.510899 118.945288 
L 66.819427 122.018009 
L 67.127956 123.433597 
L 67.513616 124.206396 
L 67.976409 124.576137 
L 68.670597 124.801191 
L 72.45007 125.490828 
L 76.229542 126.049347 
L 80.626071 126.566249 
L 86.48811 127.080881 
L 94.201318 127.548413 
L 104.151358 127.920977 
L 104.305622 127.925296 
L 104.459886 67.946326 
L 104.845547 47.617026 
L 105.154075 41.13427 
L 105.462603 38.279875 
L 105.771132 37.001773 
L 106.156792 36.333217 
L 106.619585 36.03198 
L 107.622302 35.772911 
L 111.016114 35.131728 
L 119.654907 34.096501 
L 126.673927 33.526685 
L 132.381702 33.199263 
L 140.249175 32.887777 
L 142.871666 32.810315 
L 143.02593 85.79728 
L 143.334458 92.263014 
L 143.642987 95.157317 
L 143.951515 96.45998 
L 144.337175 97.144055 
L 144.799968 97.445109 
L 145.571289 97.603773 
L 149.273629 97.947407 
L 157.681027 98.454268 
L 169.173708 98.861589 
L 181.43771 99.088127 
L 181.591974 71.064242 
L 181.977634 54.722144 
L 182.286162 49.433792 
L 182.594691 47.111232 
L 182.903219 46.074859 
L 183.28888 45.534584 
L 183.751672 45.291795 
L 184.908653 45.051568 
L 188.148201 44.554174 
L 198.175373 43.642232 
L 209.590921 43.03472 
L 218.461112 42.765275 
L 220.003753 42.73063 
L 220.158017 79.481553 
L 220.312282 79.177704 
L 220.62081 78.598193 
L 221.083603 78.268913 
L 221.854923 78.074167 
L 223.628961 77.934493 
L 225.557264 78.000988 
L 228.642547 78.062819 
L 230.030925 78.068409 
L 232.499151 78.075023 
L 235.04451 78.086696 
L 245.611606 78.102976 
L 258.569797 78.116468 
L 259.03259 62.393567 
L 259.341118 57.564935 
L 259.649646 55.432713 
L 259.958175 54.464541 
L 260.343835 53.947939 
L 260.806628 53.710574 
L 261.886477 53.492306 
L 264.740364 53.109286 
L 276.233045 52.334293 
L 281.092367 52.108834 
L 296.904445 51.682986 
L 297.135841 51.679217 
L 297.290105 85.518149 
L 297.444369 86.193273 
L 297.675765 86.3932 
L 298.21569 86.943385 
L 298.755615 87.120848 
L 299.989728 87.214696 
L 309.168447 87.373932 
L 312.947919 87.421306 
L 335.701885 87.571355 
L 335.701885 87.571355 
" clip-path="url(#pb84032bdbb)" style="fill: none; stroke: #ff7f0e; stroke-width: 2; stroke-linecap: square"/>
   </g>
   <g id="patch_3">
    <path d="M 52.241463 153.781683 
L 52.241463 10.8 
" style="fill: none; stroke: #000000; stroke-width: 0.8; stroke-linejoin: miter; stroke-linecap: square"/>
   </g>
   <g id="patch_4">
    <path d="M 349.2 153.781683 
L 349.2 10.8 
" style="fill: none; stroke: #000000; stroke-width: 0.8; stroke-linejoin: miter; stroke-linecap: square"/>
   </g>
   <g id="patch_5">
    <path d="M 52.241463 153.781683 
L 349.2 153.781683 
" style="fill: none; stroke: #000000; stroke-width: 0.8; stroke-linejoin: miter; stroke-linecap: square"/>
   </g>
   <g id="patch_6">
    <path d="M 52.241463 10.8 
L 349.2 10.8 
" style="fill: none; stroke: #000000; stroke-width: 0.8; stroke-linejoin: miter; stroke-linecap: square"/>
   </g>
   <g id="legend_1">
    <g id="patch_7">
     <path d="M 175.939391 148.781683 
L 225.502071 148.781683 
Q 227.502071 148.781683 227.502071 146.781683 
L 227.502071 60.505747 
Q 227.502071 58.505747 225.502071 58.505747 
L 175.939391 58.505747 
Q 173.939391 58.505747 173.939391 60.505747 
L 173.939391 146.781683 
Q 173.939391 148.781683 175.939391 148.781683 
z
" style="fill: #ffffff; opacity: 0.8; stroke: #cccccc; stroke-linejoin: miter"/>
    </g>
    <g id="line2d_35">
     <path d="M 177.939391 66.005747 
L 187.939391 66.005747 
L 197.939391 66.005747 
" style="fill: none; stroke: #1f77b4; stroke-width: 1.5; stroke-linecap: square"/>
     <g>
      <use xlink:href="#ma9f8ee2119" x="187.939391" y="66.005747" style="fill: #1f77b4; stroke: #1f77b4"/>
     </g>
    </g>
    <g id="text_17">
     <!-- $\tau_\mathrm{ff,1}$ -->
     <g transform="translate(205.939391 69.505747) scale(0.1 -0.1)">
      <defs>
       <path id="CMMI12-1c" d="M 1837 2408 
L 2899 2408 
C 2982 2408 3194 2408 3194 2612 
C 3194 2752 3072 2752 2957 2752 
L 1197 2752 
C 1050 2752 832 2752 538 2440 
C 371 2255 166 1917 166 1879 
C 166 1841 198 1828 237 1828 
C 282 1828 288 1847 320 1885 
C 653 2408 986 2408 1146 2408 
L 1677 2408 
L 1011 223 
C 979 127 979 114 979 95 
C 979 25 1024 -64 1152 -64 
C 1350 -64 1382 108 1402 203 
L 1837 2408 
z
" transform="scale(0.015625)"/>
       <path id="CMR17-b" d="M 2554 2560 
L 3283 2560 
L 3283 2725 
L 2541 2725 
L 2541 3494 
C 2541 4022 2810 4352 3085 4352 
C 3168 4352 3264 4327 3328 4282 
C 3277 4269 3142 4225 3142 4067 
C 3142 3901 3270 3850 3360 3850 
C 3450 3850 3578 3901 3578 4067 
C 3578 4308 3347 4454 3091 4454 
C 2842 4454 2637 4333 2477 4181 
C 2330 4390 2086 4454 1837 4454 
C 1338 4454 634 4168 634 3469 
L 634 2725 
L 122 2725 
L 122 2560 
L 634 2560 
L 634 427 
C 634 184 608 153 198 153 
L 198 -13 
C 352 0 634 0 794 0 
C 960 0 1242 0 1395 -13 
L 1395 153 
C 986 153 960 178 960 427 
L 960 2560 
L 2227 2560 
L 2227 427 
C 2227 184 2202 153 1792 153 
L 1792 -13 
C 1946 0 2240 0 2406 0 
C 2592 0 2918 0 3091 -13 
L 3091 153 
C 2630 153 2554 153 2554 439 
L 2554 2560 
z
M 947 2725 
L 947 3469 
C 947 4047 1395 4352 1824 4352 
C 1920 4352 2170 4332 2323 4187 
C 2208 4187 2099 4136 2099 3977 
C 2099 3812 2246 3767 2259 3767 
C 2227 3652 2227 3526 2227 3481 
L 2227 2725 
L 947 2725 
z
" transform="scale(0.015625)"/>
       <path id="CMMI12-3b" d="M 1248 -31 
C 1248 343 1126 619 864 619 
C 659 619 557 453 557 313 
C 557 172 653 0 870 0 
C 954 0 1024 26 1082 83 
C 1094 96 1101 96 1107 96 
C 1120 96 1120 5 1120 -27 
C 1120 -240 1082 -659 710 -1080 
C 640 -1157 640 -1170 640 -1183 
C 640 -1216 672 -1248 704 -1248 
C 755 -1248 1248 -771 1248 -31 
z
" transform="scale(0.015625)"/>
      </defs>
      <use xlink:href="#CMMI12-1c" transform="scale(0.996264)"/>
      <use xlink:href="#CMR17-b" transform="translate(42.363841 -14.943915) scale(0.697382)"/>
      <use xlink:href="#CMMI12-3b" transform="translate(83.138776 -14.943915) scale(0.697382)"/>
      <use xlink:href="#CMR17-31" transform="translate(102.106709 -14.943915) scale(0.697382)"/>
     </g>
    </g>
    <g id="line2d_36">
     <path d="M 177.939391 80.856142 
L 187.939391 80.856142 
L 197.939391 80.856142 
" style="fill: none; stroke: #ff7f0e; stroke-width: 1.5; stroke-linecap: square"/>
     <g>
      <use xlink:href="#m71d575c635" x="187.939391" y="80.856142" style="fill: #ff7f0e; stroke: #ff7f0e"/>
     </g>
    </g>
    <g id="text_18">
     <!-- $\tau_\mathrm{ff,2}$ -->
     <g transform="translate(205.939391 84.356142) scale(0.1 -0.1)">
      <use xlink:href="#CMMI12-1c" transform="scale(0.996264)"/>
      <use xlink:href="#CMR17-b" transform="translate(42.363841 -14.943915) scale(0.697382)"/>
      <use xlink:href="#CMMI12-3b" transform="translate(83.138776 -14.943915) scale(0.697382)"/>
      <use xlink:href="#CMR17-32" transform="translate(102.106709 -14.943915) scale(0.697382)"/>
     </g>
    </g>
    <g id="line2d_37">
     <path d="M 177.939391 95.706537 
L 187.939391 95.706537 
L 197.939391 95.706537 
" style="fill: none; stroke: #1f77b4; stroke-width: 1.5; stroke-linecap: square"/>
     <g>
      <use xlink:href="#m4f00086ead" x="187.939391" y="95.706537" style="fill: #1f77b4; stroke: #1f77b4; stroke-linejoin: miter"/>
     </g>
    </g>
    <g id="text_19">
     <!-- $\tau_{\mathrm{fb},1}$ -->
     <g transform="translate(205.939391 99.206537) scale(0.1 -0.1)">
      <defs>
       <path id="CMR17-62" d="M 960 4396 
L 198 4326 
L 198 4160 
C 576 4160 634 4122 634 3817 
L 634 -13 
L 749 -13 
L 934 441 
C 1120 141 1395 -64 1766 -64 
C 2406 -64 3053 500 3053 1370 
C 3053 2188 2477 2790 1830 2790 
C 1434 2790 1152 2579 960 2330 
L 960 4396 
z
M 973 2004 
C 973 2118 973 2138 1062 2272 
C 1312 2657 1670 2688 1792 2688 
C 1984 2688 2643 2585 2643 1376 
C 2643 108 1888 38 1734 38 
C 1536 38 1248 114 1043 486 
C 973 608 973 621 973 735 
L 973 2004 
z
" transform="scale(0.015625)"/>
      </defs>
      <use xlink:href="#CMMI12-1c" transform="scale(0.996264)"/>
      <use xlink:href="#CMR17-66" transform="translate(42.363841 -14.943915) scale(0.697382)"/>
      <use xlink:href="#CMR17-62" transform="translate(61.595205 -14.943915) scale(0.697382)"/>
      <use xlink:href="#CMMI12-3b" transform="translate(97.221813 -14.943915) scale(0.697382)"/>
      <use xlink:href="#CMR17-31" transform="translate(116.189746 -14.943915) scale(0.697382)"/>
     </g>
    </g>
    <g id="line2d_38">
     <path d="M 177.939391 110.556932 
L 187.939391 110.556932 
L 197.939391 110.556932 
" style="fill: none; stroke: #ff7f0e; stroke-width: 1.5; stroke-linecap: square"/>
     <g>
      <use xlink:href="#m04c52b358d" x="187.939391" y="110.556932" style="fill: #ff7f0e; stroke: #ff7f0e; stroke-linejoin: miter"/>
     </g>
    </g>
    <g id="text_20">
     <!-- $\tau_{\mathrm{fb},2}$ -->
     <g transform="translate(205.939391 114.056932) scale(0.1 -0.1)">
      <use xlink:href="#CMMI12-1c" transform="scale(0.996264)"/>
      <use xlink:href="#CMR17-66" transform="translate(42.363841 -14.943915) scale(0.697382)"/>
      <use xlink:href="#CMR17-62" transform="translate(61.595205 -14.943915) scale(0.697382)"/>
      <use xlink:href="#CMMI12-3b" transform="translate(97.221813 -14.943915) scale(0.697382)"/>
      <use xlink:href="#CMR17-32" transform="translate(116.189746 -14.943915) scale(0.697382)"/>
     </g>
    </g>
    <g id="line2d_39">
     <path d="M 177.939391 125.407327 
L 187.939391 125.407327 
L 197.939391 125.407327 
" style="fill: none; stroke: #1f77b4; stroke-width: 2; stroke-linecap: square"/>
    </g>
    <g id="text_21">
     <!-- $\tau_1$ -->
     <g transform="translate(205.939391 128.907327) scale(0.1 -0.1)">
      <use xlink:href="#CMMI12-1c" transform="scale(0.996264)"/>
      <use xlink:href="#CMR17-31" transform="translate(42.363841 -14.943915) scale(0.697382)"/>
     </g>
    </g>
    <g id="line2d_40">
     <path d="M 177.939391 139.344505 
L 187.939391 139.344505 
L 197.939391 139.344505 
" style="fill: none; stroke: #ff7f0e; stroke-width: 2; stroke-linecap: square"/>
    </g>
    <g id="text_22">
     <!-- $\tau_2$ -->
     <g transform="translate(205.939391 142.844505) scale(0.1 -0.1)">
      <use xlink:href="#CMMI12-1c" transform="scale(0.996264)"/>
      <use xlink:href="#CMR17-32" transform="translate(42.363841 -14.943915) scale(0.697382)"/>
     </g>
    </g>
   </g>
  </g>
 </g>
 <defs>
  <clipPath id="pb84032bdbb">
   <rect x="52.241463" y="10.8" width="296.958537" height="142.981683"/>
  </clipPath>
 </defs>
</svg>
