<?xml version="1.0" encoding="utf-8" standalone="no"?>
<!DOCTYPE svg PUBLIC "-//W3C//DTD SVG 1.1//EN"
  "http://www.w3.org/Graphics/SVG/1.1/DTD/svg11.dtd">
<svg xmlns:xlink="http://www.w3.org/1999/xlink" width="288pt" height="273.6pt" viewBox="0 0 288 273.6" xmlns="http://www.w3.org/2000/svg" version="1.1">
 <metadata>
  <rdf:RDF xmlns:dc="http://purl.org/dc/elements/1.1/" xmlns:cc="http://creativecommons.org/ns#" xmlns:rdf="http://www.w3.org/1999/02/22-rdf-syntax-ns#">
   <cc:Work>
    <dc:type rdf:resource="http://purl.org/dc/dcmitype/StillImage"/>
    <dc:date>2024-10-30T11:14:21.678168</dc:date>
    <dc:format>image/svg+xml</dc:format>
    <dc:creator>
     <cc:Agent>
      <dc:title>Matplotlib v3.9.2, https://matplotlib.org/</dc:title>
     </cc:Agent>
    </dc:creator>
   </cc:Work>
  </rdf:RDF>
 </metadata>
 <defs>
  <style type="text/css">*{stroke-linejoin: round; stroke-linecap: butt}</style>
 </defs>
 <g id="figure_1">
  <g id="patch_1">
   <path d="M 0 273.6 
L 288 273.6 
L 288 0 
L 0 0 
z
" style="fill: #ffffff"/>
  </g>
  <g id="axes_1">
   <g id="patch_2">
    <path d="M 57.222798 232.981683 
L 277.2 232.981683 
L 277.2 10.8 
L 57.222798 10.8 
z
" style="fill: #ffffff"/>
   </g>
   <g id="matplotlib.axis_1">
    <g id="xtick_1">
     <g id="line2d_1">
      <path d="M 67.221762 232.981683 
L 67.221762 10.8 
" clip-path="url(#p85231e10a4)" style="fill: none; stroke: #b0b0b0; stroke-width: 0.8; stroke-linecap: square"/>
     </g>
     <g id="line2d_2">
      <defs>
       <path id="m000d985bfd" d="M 0 0 
L 0 3.5 
" style="stroke: #000000; stroke-width: 0.8"/>
      </defs>
      <g>
       <use xlink:href="#m000d985bfd" x="67.221762" y="232.981683" style="stroke: #000000; stroke-width: 0.8"/>
      </g>
     </g>
     <g id="text_1">
      <!-- $\mathdefault{0}$ -->
      <g transform="translate(64.731094 246.900182) scale(0.1 -0.1)">
       <defs>
        <path id="CMR17-30" d="M 2688 2025 
C 2688 2416 2682 3080 2413 3591 
C 2176 4039 1798 4198 1466 4198 
C 1158 4198 768 4058 525 3597 
C 269 3118 243 2524 243 2025 
C 243 1661 250 1106 448 619 
C 723 -39 1216 -128 1466 -128 
C 1760 -128 2208 -7 2470 600 
C 2662 1042 2688 1559 2688 2025 
z
M 1466 -26 
C 1056 -26 813 325 723 812 
C 653 1188 653 1738 653 2096 
C 653 2588 653 2997 736 3387 
C 858 3929 1216 4096 1466 4096 
C 1728 4096 2067 3923 2189 3400 
C 2272 3036 2278 2607 2278 2096 
C 2278 1680 2278 1169 2202 792 
C 2067 95 1690 -26 1466 -26 
z
" transform="scale(0.015625)"/>
       </defs>
       <use xlink:href="#CMR17-30" transform="scale(0.996264)"/>
      </g>
     </g>
    </g>
    <g id="xtick_2">
     <g id="line2d_3">
      <path d="M 124.358697 232.981683 
L 124.358697 10.8 
" clip-path="url(#p85231e10a4)" style="fill: none; stroke: #b0b0b0; stroke-width: 0.8; stroke-linecap: square"/>
     </g>
     <g id="line2d_4">
      <g>
       <use xlink:href="#m000d985bfd" x="124.358697" y="232.981683" style="stroke: #000000; stroke-width: 0.8"/>
      </g>
     </g>
     <g id="text_2">
      <!-- $\mathdefault{10}$ -->
      <g transform="translate(119.377362 246.900182) scale(0.1 -0.1)">
       <defs>
        <path id="CMR17-31" d="M 1702 4058 
C 1702 4192 1696 4192 1606 4192 
C 1357 3916 979 3827 621 3827 
C 602 3827 570 3827 563 3808 
C 557 3795 557 3782 557 3648 
C 755 3648 1088 3686 1344 3839 
L 1344 461 
C 1344 236 1331 160 781 160 
L 589 160 
L 589 0 
C 896 0 1216 0 1523 0 
C 1830 0 2150 0 2458 0 
L 2458 160 
L 2266 160 
C 1715 160 1702 230 1702 458 
L 1702 4058 
z
" transform="scale(0.015625)"/>
       </defs>
       <use xlink:href="#CMR17-31" transform="scale(0.996264)"/>
       <use xlink:href="#CMR17-30" transform="translate(45.690477 0) scale(0.996264)"/>
      </g>
     </g>
    </g>
    <g id="xtick_3">
     <g id="line2d_5">
      <path d="M 181.495633 232.981683 
L 181.495633 10.8 
" clip-path="url(#p85231e10a4)" style="fill: none; stroke: #b0b0b0; stroke-width: 0.8; stroke-linecap: square"/>
     </g>
     <g id="line2d_6">
      <g>
       <use xlink:href="#m000d985bfd" x="181.495633" y="232.981683" style="stroke: #000000; stroke-width: 0.8"/>
      </g>
     </g>
     <g id="text_3">
      <!-- $\mathdefault{20}$ -->
      <g transform="translate(176.514298 246.900182) scale(0.1 -0.1)">
       <defs>
        <path id="CMR17-32" d="M 2669 989 
L 2554 989 
C 2490 536 2438 459 2413 420 
C 2381 369 1920 369 1830 369 
L 602 369 
C 832 619 1280 1072 1824 1597 
C 2214 1967 2669 2402 2669 3035 
C 2669 3790 2067 4224 1395 4224 
C 691 4224 262 3604 262 3030 
C 262 2780 448 2748 525 2748 
C 589 2748 781 2787 781 3010 
C 781 3207 614 3264 525 3264 
C 486 3264 448 3258 422 3245 
C 544 3790 915 4058 1306 4058 
C 1862 4058 2227 3617 2227 3035 
C 2227 2479 1901 2000 1536 1584 
L 262 146 
L 262 0 
L 2515 0 
L 2669 989 
z
" transform="scale(0.015625)"/>
       </defs>
       <use xlink:href="#CMR17-32" transform="scale(0.996264)"/>
       <use xlink:href="#CMR17-30" transform="translate(45.690477 0) scale(0.996264)"/>
      </g>
     </g>
    </g>
    <g id="xtick_4">
     <g id="line2d_7">
      <path d="M 238.632568 232.981683 
L 238.632568 10.8 
" clip-path="url(#p85231e10a4)" style="fill: none; stroke: #b0b0b0; stroke-width: 0.8; stroke-linecap: square"/>
     </g>
     <g id="line2d_8">
      <g>
       <use xlink:href="#m000d985bfd" x="238.632568" y="232.981683" style="stroke: #000000; stroke-width: 0.8"/>
      </g>
     </g>
     <g id="text_4">
      <!-- $\mathdefault{30}$ -->
      <g transform="translate(233.651233 246.900182) scale(0.1 -0.1)">
       <defs>
        <path id="CMR17-33" d="M 1414 2157 
C 1984 2157 2234 1662 2234 1090 
C 2234 320 1824 25 1453 25 
C 1114 25 563 194 390 693 
C 422 680 454 680 486 680 
C 640 680 755 782 755 948 
C 755 1133 614 1216 486 1216 
C 378 1216 211 1165 211 926 
C 211 335 787 -128 1466 -128 
C 2176 -128 2720 430 2720 1085 
C 2720 1707 2208 2157 1600 2227 
C 2086 2328 2554 2756 2554 3329 
C 2554 3820 2048 4179 1472 4179 
C 890 4179 378 3829 378 3329 
C 378 3110 544 3072 627 3072 
C 762 3072 877 3155 877 3321 
C 877 3486 762 3569 627 3569 
C 602 3569 570 3569 544 3557 
C 730 3959 1235 4032 1459 4032 
C 1683 4032 2106 3925 2106 3320 
C 2106 3143 2080 2828 1862 2550 
C 1670 2304 1453 2304 1242 2284 
C 1210 2284 1062 2269 1037 2269 
C 992 2263 966 2257 966 2208 
C 966 2163 973 2157 1101 2157 
L 1414 2157 
z
" transform="scale(0.015625)"/>
       </defs>
       <use xlink:href="#CMR17-33" transform="scale(0.996264)"/>
       <use xlink:href="#CMR17-30" transform="translate(45.690477 0) scale(0.996264)"/>
      </g>
     </g>
    </g>
    <g id="text_5">
     <!-- Time $t$ [s] -->
     <g transform="translate(146.013091 260.30934) scale(0.1 -0.1)">
      <defs>
       <path id="CMR17-54" d="M 3981 4326 
L 288 4326 
L 179 2918 
L 294 2918 
C 378 3976 467 4160 1453 4160 
C 1568 4160 1754 4160 1805 4154 
C 1926 4135 1926 4058 1926 3912 
L 1926 459 
C 1926 230 1907 160 1376 160 
L 1197 160 
L 1197 0 
C 1504 0 1824 0 2138 0 
C 2451 0 2771 0 3078 0 
L 3078 160 
L 2899 160 
C 2368 160 2349 230 2349 459 
L 2349 3912 
C 2349 4052 2349 4129 2464 4154 
C 2515 4160 2701 4160 2816 4160 
C 3795 4160 3891 3976 3974 2918 
L 4090 2918 
L 3981 4326 
z
" transform="scale(0.015625)"/>
       <path id="CMR17-69" d="M 992 3909 
C 992 4049 877 4170 730 4170 
C 589 4170 467 4056 467 3909 
C 467 3769 582 3648 730 3648 
C 870 3648 992 3763 992 3909 
z
M 243 2706 
L 243 2541 
C 602 2541 653 2502 653 2197 
L 653 427 
C 653 184 627 153 218 153 
L 218 -13 
C 371 0 646 0 806 0 
C 960 0 1222 0 1370 -13 
L 1370 153 
C 992 153 979 191 979 420 
L 979 2776 
L 243 2706 
z
" transform="scale(0.015625)"/>
       <path id="CMR17-6d" d="M 4326 1933 
C 4326 2252 4269 2790 3507 2790 
C 3072 2790 2771 2496 2656 2151 
L 2650 2151 
C 2573 2676 2195 2790 1837 2790 
C 1331 2790 1069 2400 973 2144 
L 966 2144 
L 966 2790 
L 211 2720 
L 211 2554 
C 589 2554 646 2515 646 2208 
L 646 428 
C 646 184 621 153 211 153 
L 211 -13 
C 365 0 646 0 813 0 
C 979 0 1267 0 1421 -13 
L 1421 153 
C 1011 153 986 178 986 428 
L 986 1658 
C 986 2247 1344 2688 1792 2688 
C 2266 2688 2317 2266 2317 1958 
L 2317 428 
C 2317 184 2291 153 1882 153 
L 1882 -13 
C 2035 0 2317 0 2483 0 
C 2650 0 2938 0 3091 -13 
L 3091 153 
C 2682 153 2656 178 2656 428 
L 2656 1658 
C 2656 2247 3014 2688 3462 2688 
C 3936 2688 3987 2266 3987 1958 
L 3987 428 
C 3987 184 3962 153 3552 153 
L 3552 -13 
C 3706 0 3987 0 4154 0 
C 4320 0 4608 0 4762 -13 
L 4762 153 
C 4352 153 4326 178 4326 428 
L 4326 1933 
z
" transform="scale(0.015625)"/>
       <path id="CMR17-65" d="M 2438 1472 
C 2464 1498 2464 1511 2464 1576 
C 2464 2238 2118 2816 1389 2816 
C 710 2816 173 2169 173 1383 
C 173 551 781 -64 1459 -64 
C 2176 -64 2458 607 2458 740 
C 2458 784 2419 784 2406 784 
C 2362 784 2355 771 2330 696 
C 2189 265 1837 51 1504 51 
C 1229 51 954 203 781 480 
C 582 803 582 1176 582 1472 
L 2438 1472 
z
M 589 1568 
C 634 2505 1126 2714 1382 2714 
C 1818 2714 2112 2297 2118 1568 
L 589 1568 
z
" transform="scale(0.015625)"/>
       <path id="CMMI12-74" d="M 1286 2566 
L 1875 2566 
C 1997 2566 2061 2566 2061 2681 
C 2061 2752 2022 2752 1894 2752 
L 1331 2752 
L 1568 3692 
C 1594 3781 1594 3794 1594 3840 
C 1594 3943 1510 4000 1427 4000 
C 1376 4000 1229 3981 1178 3775 
L 928 2752 
L 326 2752 
C 198 2752 141 2752 141 2630 
C 141 2566 186 2566 307 2566 
L 877 2566 
L 454 881 
C 403 658 384 594 384 511 
C 384 211 595 -64 954 -64 
C 1600 -64 1946 868 1946 912 
C 1946 951 1920 970 1882 970 
C 1869 970 1843 970 1830 944 
C 1824 938 1818 931 1773 829 
C 1638 511 1344 64 973 64 
C 781 64 768 224 768 364 
C 768 370 768 492 787 568 
L 1286 2566 
z
" transform="scale(0.015625)"/>
       <path id="CMR17-5b" d="M 1504 -1600 
L 1504 -1377 
L 902 -1377 
L 902 4544 
L 1504 4544 
L 1504 4767 
L 678 4767 
L 678 -1600 
L 1504 -1600 
z
" transform="scale(0.015625)"/>
       <path id="CMR17-73" d="M 1978 2697 
C 1978 2813 1971 2819 1933 2819 
C 1907 2819 1901 2813 1824 2717 
C 1805 2691 1747 2626 1728 2601 
C 1523 2819 1235 2819 1126 2819 
C 416 2819 160 2447 160 2076 
C 160 1498 813 1365 998 1325 
C 1402 1243 1542 1217 1677 1101 
C 1760 1025 1901 884 1901 654 
C 1901 384 1747 38 1158 38 
C 602 38 403 460 288 1021 
C 269 1110 269 1117 218 1117 
C 166 1117 160 1110 160 983 
L 160 63 
C 160 -51 166 -58 205 -58 
C 237 -58 243 -51 275 0 
C 314 57 410 211 448 276 
C 576 103 800 -64 1158 -64 
C 1792 -64 2131 283 2131 784 
C 2131 1112 1958 1285 1875 1362 
C 1683 1561 1459 1606 1190 1657 
C 838 1735 390 1825 390 2217 
C 390 2383 480 2737 1126 2737 
C 1811 2737 1850 2094 1862 1888 
C 1869 1856 1901 1849 1920 1849 
C 1978 1849 1978 1869 1978 1978 
L 1978 2697 
z
" transform="scale(0.015625)"/>
       <path id="CMR17-5d" d="M 915 4767 
L 90 4767 
L 90 4544 
L 691 4544 
L 691 -1377 
L 90 -1377 
L 90 -1600 
L 915 -1600 
L 915 4767 
z
" transform="scale(0.015625)"/>
      </defs>
      <use xlink:href="#CMR17-54" transform="scale(0.996264)"/>
      <use xlink:href="#CMR17-69" transform="translate(66.509881 0) scale(0.996264)"/>
      <use xlink:href="#CMR17-6d" transform="translate(91.380939 0) scale(0.996264)"/>
      <use xlink:href="#CMR17-65" transform="translate(168.300529 0) scale(0.996264)"/>
      <use xlink:href="#CMMI12-74" transform="translate(238.862156 0) scale(0.996264)"/>
      <use xlink:href="#CMR17-5b" transform="translate(304.164452 0) scale(0.996264)"/>
      <use xlink:href="#CMR17-73" transform="translate(329.035511 0) scale(0.996264)"/>
      <use xlink:href="#CMR17-5d" transform="translate(364.836848 0) scale(0.996264)"/>
     </g>
    </g>
   </g>
   <g id="matplotlib.axis_2">
    <g id="ytick_1">
     <g id="line2d_9">
      <path d="M 57.222798 228.849465 
L 277.2 228.849465 
" clip-path="url(#p85231e10a4)" style="fill: none; stroke: #b0b0b0; stroke-width: 0.8; stroke-linecap: square"/>
     </g>
     <g id="line2d_10">
      <defs>
       <path id="mcd444b0348" d="M 0 0 
L -3.5 0 
" style="stroke: #000000; stroke-width: 0.8"/>
      </defs>
      <g>
       <use xlink:href="#mcd444b0348" x="57.222798" y="228.849465" style="stroke: #000000; stroke-width: 0.8"/>
      </g>
     </g>
     <g id="text_6">
      <!-- $\mathdefault{−1.00}$ -->
      <g transform="translate(24.76264 232.308714) scale(0.1 -0.1)">
       <defs>
        <path id="CMSY10-0" d="M 4218 1472 
C 4326 1472 4442 1472 4442 1600 
C 4442 1728 4326 1728 4218 1728 
L 755 1728 
C 646 1728 531 1728 531 1600 
C 531 1472 646 1472 755 1472 
L 4218 1472 
z
" transform="scale(0.015625)"/>
        <path id="CMMI12-3a" d="M 1178 307 
C 1178 492 1024 619 870 619 
C 685 619 557 466 557 313 
C 557 128 710 0 864 0 
C 1050 0 1178 153 1178 307 
z
" transform="scale(0.015625)"/>
       </defs>
       <use xlink:href="#CMSY10-0" transform="scale(0.996264)"/>
       <use xlink:href="#CMR17-31" transform="translate(77.487468 0) scale(0.996264)"/>
       <use xlink:href="#CMMI12-3a" transform="translate(123.177945 0) scale(0.996264)"/>
       <use xlink:href="#CMR17-30" transform="translate(150.275122 0) scale(0.996264)"/>
       <use xlink:href="#CMR17-30" transform="translate(195.965599 0) scale(0.996264)"/>
      </g>
     </g>
    </g>
    <g id="ytick_2">
     <g id="line2d_11">
      <path d="M 57.222798 199.741908 
L 277.2 199.741908 
" clip-path="url(#p85231e10a4)" style="fill: none; stroke: #b0b0b0; stroke-width: 0.8; stroke-linecap: square"/>
     </g>
     <g id="line2d_12">
      <g>
       <use xlink:href="#mcd444b0348" x="57.222798" y="199.741908" style="stroke: #000000; stroke-width: 0.8"/>
      </g>
     </g>
     <g id="text_7">
      <!-- $\mathdefault{−0.75}$ -->
      <g transform="translate(24.76264 203.201157) scale(0.1 -0.1)">
       <defs>
        <path id="CMR17-37" d="M 2886 3941 
L 2886 4081 
L 1382 4081 
C 634 4081 621 4165 595 4288 
L 480 4288 
L 294 3094 
L 410 3094 
C 429 3215 474 3540 550 3661 
C 589 3712 1062 3712 1171 3712 
L 2579 3712 
L 1869 2661 
C 1395 1954 1069 999 1069 165 
C 1069 89 1069 -128 1299 -128 
C 1530 -128 1530 89 1530 171 
L 1530 465 
C 1530 1508 1709 2196 2003 2636 
L 2886 3941 
z
" transform="scale(0.015625)"/>
        <path id="CMR17-35" d="M 730 3692 
C 794 3666 1056 3584 1325 3584 
C 1920 3584 2246 3911 2432 4100 
C 2432 4157 2432 4192 2394 4192 
C 2387 4192 2374 4192 2323 4163 
C 2099 4058 1837 3973 1517 3973 
C 1325 3973 1037 3999 723 4139 
C 653 4171 640 4171 634 4171 
C 602 4171 595 4164 595 4037 
L 595 2203 
C 595 2089 595 2057 659 2057 
C 691 2057 704 2070 736 2114 
C 941 2401 1222 2522 1542 2522 
C 1766 2522 2246 2382 2246 1289 
C 2246 1085 2246 715 2054 421 
C 1894 159 1645 25 1370 25 
C 947 25 518 320 403 814 
C 429 807 480 795 506 795 
C 589 795 749 840 749 1038 
C 749 1210 627 1280 506 1280 
C 358 1280 262 1190 262 1011 
C 262 454 704 -128 1382 -128 
C 2042 -128 2669 440 2669 1264 
C 2669 2030 2170 2624 1549 2624 
C 1222 2624 947 2503 730 2274 
L 730 3692 
z
" transform="scale(0.015625)"/>
       </defs>
       <use xlink:href="#CMSY10-0" transform="scale(0.996264)"/>
       <use xlink:href="#CMR17-30" transform="translate(77.487468 0) scale(0.996264)"/>
       <use xlink:href="#CMMI12-3a" transform="translate(123.177945 0) scale(0.996264)"/>
       <use xlink:href="#CMR17-37" transform="translate(150.275122 0) scale(0.996264)"/>
       <use xlink:href="#CMR17-35" transform="translate(195.965599 0) scale(0.996264)"/>
      </g>
     </g>
    </g>
    <g id="ytick_3">
     <g id="line2d_13">
      <path d="M 57.222798 170.634351 
L 277.2 170.634351 
" clip-path="url(#p85231e10a4)" style="fill: none; stroke: #b0b0b0; stroke-width: 0.8; stroke-linecap: square"/>
     </g>
     <g id="line2d_14">
      <g>
       <use xlink:href="#mcd444b0348" x="57.222798" y="170.634351" style="stroke: #000000; stroke-width: 0.8"/>
      </g>
     </g>
     <g id="text_8">
      <!-- $\mathdefault{−0.50}$ -->
      <g transform="translate(24.76264 174.0936) scale(0.1 -0.1)">
       <use xlink:href="#CMSY10-0" transform="scale(0.996264)"/>
       <use xlink:href="#CMR17-30" transform="translate(77.487468 0) scale(0.996264)"/>
       <use xlink:href="#CMMI12-3a" transform="translate(123.177945 0) scale(0.996264)"/>
       <use xlink:href="#CMR17-35" transform="translate(150.275122 0) scale(0.996264)"/>
       <use xlink:href="#CMR17-30" transform="translate(195.965599 0) scale(0.996264)"/>
      </g>
     </g>
    </g>
    <g id="ytick_4">
     <g id="line2d_15">
      <path d="M 57.222798 141.526794 
L 277.2 141.526794 
" clip-path="url(#p85231e10a4)" style="fill: none; stroke: #b0b0b0; stroke-width: 0.8; stroke-linecap: square"/>
     </g>
     <g id="line2d_16">
      <g>
       <use xlink:href="#mcd444b0348" x="57.222798" y="141.526794" style="stroke: #000000; stroke-width: 0.8"/>
      </g>
     </g>
     <g id="text_9">
      <!-- $\mathdefault{−0.25}$ -->
      <g transform="translate(24.76264 144.986044) scale(0.1 -0.1)">
       <use xlink:href="#CMSY10-0" transform="scale(0.996264)"/>
       <use xlink:href="#CMR17-30" transform="translate(77.487468 0) scale(0.996264)"/>
       <use xlink:href="#CMMI12-3a" transform="translate(123.177945 0) scale(0.996264)"/>
       <use xlink:href="#CMR17-32" transform="translate(150.275122 0) scale(0.996264)"/>
       <use xlink:href="#CMR17-35" transform="translate(195.965599 0) scale(0.996264)"/>
      </g>
     </g>
    </g>
    <g id="ytick_5">
     <g id="line2d_17">
      <path d="M 57.222798 112.419238 
L 277.2 112.419238 
" clip-path="url(#p85231e10a4)" style="fill: none; stroke: #b0b0b0; stroke-width: 0.8; stroke-linecap: square"/>
     </g>
     <g id="line2d_18">
      <g>
       <use xlink:href="#mcd444b0348" x="57.222798" y="112.419238" style="stroke: #000000; stroke-width: 0.8"/>
      </g>
     </g>
     <g id="text_10">
      <!-- $\mathdefault{0.00}$ -->
      <g transform="translate(32.511384 115.878487) scale(0.1 -0.1)">
       <use xlink:href="#CMR17-30" transform="scale(0.996264)"/>
       <use xlink:href="#CMMI12-3a" transform="translate(45.690477 0) scale(0.996264)"/>
       <use xlink:href="#CMR17-30" transform="translate(72.787654 0) scale(0.996264)"/>
       <use xlink:href="#CMR17-30" transform="translate(118.478131 0) scale(0.996264)"/>
      </g>
     </g>
    </g>
    <g id="ytick_6">
     <g id="line2d_19">
      <path d="M 57.222798 83.311681 
L 277.2 83.311681 
" clip-path="url(#p85231e10a4)" style="fill: none; stroke: #b0b0b0; stroke-width: 0.8; stroke-linecap: square"/>
     </g>
     <g id="line2d_20">
      <g>
       <use xlink:href="#mcd444b0348" x="57.222798" y="83.311681" style="stroke: #000000; stroke-width: 0.8"/>
      </g>
     </g>
     <g id="text_11">
      <!-- $\mathdefault{0.25}$ -->
      <g transform="translate(32.511384 86.77093) scale(0.1 -0.1)">
       <use xlink:href="#CMR17-30" transform="scale(0.996264)"/>
       <use xlink:href="#CMMI12-3a" transform="translate(45.690477 0) scale(0.996264)"/>
       <use xlink:href="#CMR17-32" transform="translate(72.787654 0) scale(0.996264)"/>
       <use xlink:href="#CMR17-35" transform="translate(118.478131 0) scale(0.996264)"/>
      </g>
     </g>
    </g>
    <g id="ytick_7">
     <g id="line2d_21">
      <path d="M 57.222798 54.204124 
L 277.2 54.204124 
" clip-path="url(#p85231e10a4)" style="fill: none; stroke: #b0b0b0; stroke-width: 0.8; stroke-linecap: square"/>
     </g>
     <g id="line2d_22">
      <g>
       <use xlink:href="#mcd444b0348" x="57.222798" y="54.204124" style="stroke: #000000; stroke-width: 0.8"/>
      </g>
     </g>
     <g id="text_12">
      <!-- $\mathdefault{0.50}$ -->
      <g transform="translate(32.511384 57.663373) scale(0.1 -0.1)">
       <use xlink:href="#CMR17-30" transform="scale(0.996264)"/>
       <use xlink:href="#CMMI12-3a" transform="translate(45.690477 0) scale(0.996264)"/>
       <use xlink:href="#CMR17-35" transform="translate(72.787654 0) scale(0.996264)"/>
       <use xlink:href="#CMR17-30" transform="translate(118.478131 0) scale(0.996264)"/>
      </g>
     </g>
    </g>
    <g id="ytick_8">
     <g id="line2d_23">
      <path d="M 57.222798 25.096567 
L 277.2 25.096567 
" clip-path="url(#p85231e10a4)" style="fill: none; stroke: #b0b0b0; stroke-width: 0.8; stroke-linecap: square"/>
     </g>
     <g id="line2d_24">
      <g>
       <use xlink:href="#mcd444b0348" x="57.222798" y="25.096567" style="stroke: #000000; stroke-width: 0.8"/>
      </g>
     </g>
     <g id="text_13">
      <!-- $\mathdefault{0.75}$ -->
      <g transform="translate(32.511384 28.555816) scale(0.1 -0.1)">
       <use xlink:href="#CMR17-30" transform="scale(0.996264)"/>
       <use xlink:href="#CMMI12-3a" transform="translate(45.690477 0) scale(0.996264)"/>
       <use xlink:href="#CMR17-37" transform="translate(72.787654 0) scale(0.996264)"/>
       <use xlink:href="#CMR17-35" transform="translate(118.478131 0) scale(0.996264)"/>
      </g>
     </g>
    </g>
    <g id="text_14">
     <!-- Bending torque [Nm] -->
     <g transform="translate(18.27198 167.774435) rotate(-90) scale(0.1 -0.1)">
      <defs>
       <path id="CMR17-42" d="M 333 4352 
L 333 4186 
C 774 4186 845 4186 845 3900 
L 845 452 
C 845 166 774 166 333 166 
L 333 0 
L 2534 0 
C 3354 0 3885 583 3885 1164 
C 3885 1741 3360 2233 2675 2233 
C 3290 2356 3718 2771 3718 3264 
C 3718 3802 3194 4352 2368 4352 
L 333 4352 
z
M 1248 2304 
L 1248 3937 
C 1248 4155 1261 4186 1517 4186 
L 2336 4186 
C 2970 4186 3251 3674 3251 3277 
C 3251 2791 2861 2304 2170 2304 
L 1248 2304 
z
M 1517 166 
C 1261 166 1248 197 1248 413 
L 1248 2202 
L 2432 2202 
C 3091 2202 3411 1625 3411 1162 
C 3411 699 3046 166 2349 166 
L 1517 166 
z
" transform="scale(0.015625)"/>
       <path id="CMR17-6e" d="M 2656 1933 
C 2656 2259 2592 2790 1837 2790 
C 1331 2790 1069 2400 973 2144 
L 966 2144 
L 966 2790 
L 211 2720 
L 211 2554 
C 589 2554 646 2515 646 2208 
L 646 428 
C 646 184 621 153 211 153 
L 211 -13 
C 365 0 646 0 813 0 
C 979 0 1267 0 1421 -13 
L 1421 153 
C 1011 153 986 178 986 428 
L 986 1658 
C 986 2247 1344 2688 1792 2688 
C 2266 2688 2317 2266 2317 1958 
L 2317 428 
C 2317 184 2291 153 1882 153 
L 1882 -13 
C 2035 0 2317 0 2483 0 
C 2650 0 2938 0 3091 -13 
L 3091 153 
C 2682 153 2656 178 2656 428 
L 2656 1933 
z
" transform="scale(0.015625)"/>
       <path id="CMR17-64" d="M 1869 4326 
L 1869 4160 
C 2246 4160 2304 4122 2304 3820 
L 2304 2345 
C 2278 2377 2016 2790 1498 2790 
C 845 2790 211 2208 211 1364 
C 211 525 806 -64 1434 -64 
C 1978 -64 2259 337 2291 380 
L 2291 -63 
L 3066 -63 
L 3066 128 
C 2688 128 2630 166 2630 473 
L 2630 4396 
L 1869 4326 
z
M 2291 755 
C 2291 563 2176 390 2029 262 
C 1811 70 1594 38 1472 38 
C 1286 38 621 134 621 1356 
C 621 2612 1363 2688 1530 2688 
C 1824 2688 2061 2522 2208 2291 
C 2291 2157 2291 2138 2291 2023 
L 2291 755 
z
" transform="scale(0.015625)"/>
       <path id="CMR17-67" d="M 710 1164 
C 832 1068 1043 960 1299 960 
C 1805 960 2240 1357 2240 1888 
C 2240 2054 2189 2310 1997 2509 
C 2176 2692 2438 2752 2586 2752 
C 2611 2752 2650 2752 2682 2734 
C 2656 2728 2598 2703 2598 2605 
C 2598 2527 2656 2471 2739 2471 
C 2835 2471 2886 2533 2886 2614 
C 2886 2731 2790 2854 2586 2854 
C 2330 2854 2106 2738 1926 2580 
C 1734 2753 1504 2816 1299 2816 
C 794 2816 358 2419 358 1888 
C 358 1522 570 1292 634 1228 
C 442 1004 442 743 442 711 
C 442 545 506 302 723 168 
C 390 85 128 -169 128 -486 
C 128 -943 736 -1280 1466 -1280 
C 2170 -1280 2803 -956 2803 -479 
C 2803 384 1856 384 1363 384 
C 1216 384 954 384 922 391 
C 723 423 589 602 589 826 
C 589 883 589 1024 710 1164 
z
M 1299 1068 
C 736 1068 736 1760 736 1889 
C 736 2016 736 2708 1299 2708 
C 1862 2708 1862 2016 1862 1889 
C 1862 1760 1862 1068 1299 1068 
z
M 1466 -1171 
C 826 -1171 384 -835 384 -486 
C 384 -289 493 -105 634 -4 
C 794 104 858 104 1293 104 
C 1818 104 2547 104 2547 -486 
C 2547 -835 2106 -1171 1466 -1171 
z
" transform="scale(0.015625)"/>
       <path id="CMR17-74" d="M 966 2560 
L 1862 2560 
L 1862 2725 
L 966 2725 
L 966 3904 
L 851 3904 
C 838 3245 614 2668 70 2668 
L 70 2560 
L 627 2560 
L 627 771 
C 627 650 627 -64 1370 -64 
C 1747 -64 1965 306 1965 777 
L 1965 1140 
L 1850 1140 
L 1850 783 
C 1850 344 1677 51 1408 51 
C 1222 51 966 178 966 758 
L 966 2560 
z
" transform="scale(0.015625)"/>
       <path id="CMR17-6f" d="M 2758 1356 
C 2758 2176 2163 2816 1466 2816 
C 768 2816 173 2176 173 1356 
C 173 551 768 -64 1466 -64 
C 2163 -64 2758 551 2758 1356 
z
M 1466 51 
C 1165 51 909 230 762 480 
C 602 767 582 1126 582 1408 
C 582 1677 595 2010 762 2298 
C 890 2509 1139 2714 1466 2714 
C 1754 2714 1997 2554 2150 2330 
C 2349 2029 2349 1607 2349 1408 
C 2349 1158 2336 775 2163 467 
C 1984 173 1709 51 1466 51 
z
" transform="scale(0.015625)"/>
       <path id="CMR17-72" d="M 960 1497 
C 960 2112 1222 2688 1702 2688 
C 1747 2688 1792 2682 1837 2662 
C 1837 2662 1696 2617 1696 2452 
C 1696 2298 1818 2234 1914 2234 
C 1990 2234 2131 2279 2131 2458 
C 2131 2663 1926 2790 1709 2790 
C 1222 2790 1011 2317 947 2093 
L 941 2093 
L 941 2790 
L 198 2720 
L 198 2554 
C 576 2554 634 2515 634 2208 
L 634 428 
C 634 184 608 153 198 153 
L 198 -13 
C 352 0 646 0 813 0 
C 998 0 1325 0 1498 -13 
L 1498 153 
C 1037 153 960 153 960 440 
L 960 1497 
z
" transform="scale(0.015625)"/>
       <path id="CMR17-71" d="M 2630 2802 
L 2528 2802 
L 2336 2172 
C 2189 2509 1920 2802 1491 2802 
C 838 2802 211 2223 211 1383 
C 211 548 800 -38 1440 -38 
C 1933 -38 2208 338 2291 478 
L 2291 -789 
C 2291 -1031 2266 -1063 1856 -1063 
L 1856 -1228 
C 2010 -1216 2291 -1216 2458 -1216 
C 2624 -1216 2912 -1216 3066 -1228 
L 3066 -1063 
C 2656 -1063 2630 -1037 2630 -789 
L 2630 2802 
z
M 2304 886 
C 2304 612 2074 357 2054 338 
C 1856 115 1626 64 1472 64 
C 992 64 621 669 621 1375 
C 621 2121 1043 2688 1536 2688 
C 2048 2688 2304 2108 2304 1777 
L 2304 886 
z
" transform="scale(0.015625)"/>
       <path id="CMR17-75" d="M 1882 2693 
L 1882 2528 
C 2259 2528 2317 2489 2317 2186 
L 2317 1032 
C 2317 500 2029 38 1555 38 
C 1030 38 986 348 986 678 
L 986 2763 
L 211 2693 
L 211 2528 
C 467 2528 640 2528 646 2274 
L 646 1058 
C 646 633 646 361 813 183 
C 896 101 1056 -64 1517 -64 
C 2061 -64 2272 377 2323 506 
L 2330 506 
L 2330 -63 
L 3091 -63 
L 3091 128 
C 2714 128 2656 166 2656 473 
L 2656 2763 
L 1882 2693 
z
" transform="scale(0.015625)"/>
       <path id="CMR17-4e" d="M 1312 4250 
C 1267 4320 1261 4320 1139 4320 
L 326 4320 
L 326 4160 
L 448 4160 
C 704 4160 819 4129 838 4122 
L 838 610 
C 838 451 838 153 326 153 
L 326 -13 
C 474 0 742 0 902 0 
C 1062 0 1331 0 1478 -13 
L 1478 153 
C 966 153 966 451 966 610 
L 966 4033 
C 1011 3995 1011 3982 1056 3919 
L 3430 76 
C 3475 0 3494 0 3526 0 
C 3590 0 3590 19 3590 139 
L 3590 3705 
C 3590 3863 3590 4160 4102 4160 
L 4102 4326 
C 3955 4320 3686 4320 3526 4320 
C 3366 4320 3098 4320 2950 4326 
L 2950 4160 
C 3462 4160 3462 3862 3462 3703 
L 3462 763 
L 1312 4250 
z
" transform="scale(0.015625)"/>
      </defs>
      <use xlink:href="#CMR17-42" transform="scale(0.996264)"/>
      <use xlink:href="#CMR17-65" transform="translate(65.188754 0) scale(0.996264)"/>
      <use xlink:href="#CMR17-6e" transform="translate(105.674415 0) scale(0.996264)"/>
      <use xlink:href="#CMR17-64" transform="translate(156.569785 0) scale(0.996264)"/>
      <use xlink:href="#CMR17-69" transform="translate(207.465154 0) scale(0.996264)"/>
      <use xlink:href="#CMR17-6e" transform="translate(232.336213 0) scale(0.996264)"/>
      <use xlink:href="#CMR17-67" transform="translate(283.231583 0) scale(0.996264)"/>
      <use xlink:href="#CMR17-74" transform="translate(358.998026 0) scale(0.996264)"/>
      <use xlink:href="#CMR17-6f" transform="translate(394.278794 0) scale(0.996264)"/>
      <use xlink:href="#CMR17-72" transform="translate(439.969271 0) scale(0.996264)"/>
      <use xlink:href="#CMR17-71" transform="translate(475.250039 0) scale(0.996264)"/>
      <use xlink:href="#CMR17-75" transform="translate(523.542955 0) scale(0.996264)"/>
      <use xlink:href="#CMR17-65" transform="translate(574.438325 0) scale(0.996264)"/>
      <use xlink:href="#CMR17-5b" transform="translate(644.999951 0) scale(0.996264)"/>
      <use xlink:href="#CMR17-4e" transform="translate(669.87101 0) scale(0.996264)"/>
      <use xlink:href="#CMR17-6d" transform="translate(738.94344 0) scale(0.996264)"/>
      <use xlink:href="#CMR17-5d" transform="translate(815.86303 0) scale(0.996264)"/>
     </g>
    </g>
   </g>
   <g id="line2d_25">
    <path d="M 67.221762 222.882516 
L 95.79023 222.882516 
L 95.904503 20.899167 
L 124.358697 20.899167 
L 124.472971 161.600226 
L 152.927165 161.600226 
L 153.041439 41.940992 
L 181.495633 41.940992 
L 181.609907 116.878945 
L 210.064101 116.878945 
L 210.178375 61.167747 
L 238.632568 61.167747 
L 238.746842 137.212755 
L 267.201036 137.212755 
L 267.201036 137.212755 
" clip-path="url(#p85231e10a4)" style="fill: none; stroke: #1f77b4; stroke-width: 1.5; stroke-linecap: square"/>
    <defs>
     <path id="mae9ae09abf" d="M 0 2.5 
C 0.663008 2.5 1.29895 2.236584 1.767767 1.767767 
C 2.236584 1.29895 2.5 0.663008 2.5 0 
C 2.5 -0.663008 2.236584 -1.29895 1.767767 -1.767767 
C 1.29895 -2.236584 0.663008 -2.5 0 -2.5 
C -0.663008 -2.5 -1.29895 -2.236584 -1.767767 -1.767767 
C -2.236584 -1.29895 -2.5 -0.663008 -2.5 0 
C -2.5 0.663008 -2.236584 1.29895 -1.767767 1.767767 
C -1.29895 2.236584 -0.663008 2.5 0 2.5 
z
" style="stroke: #1f77b4"/>
    </defs>
    <g clip-path="url(#p85231e10a4)">
     <use xlink:href="#mae9ae09abf" x="67.221762" y="222.882516" style="fill: #1f77b4; stroke: #1f77b4"/>
     <use xlink:href="#mae9ae09abf" x="72.935455" y="222.882516" style="fill: #1f77b4; stroke: #1f77b4"/>
     <use xlink:href="#mae9ae09abf" x="78.649149" y="222.882516" style="fill: #1f77b4; stroke: #1f77b4"/>
     <use xlink:href="#mae9ae09abf" x="84.362842" y="222.882516" style="fill: #1f77b4; stroke: #1f77b4"/>
     <use xlink:href="#mae9ae09abf" x="90.076536" y="222.882516" style="fill: #1f77b4; stroke: #1f77b4"/>
     <use xlink:href="#mae9ae09abf" x="95.79023" y="222.882516" style="fill: #1f77b4; stroke: #1f77b4"/>
     <use xlink:href="#mae9ae09abf" x="101.503923" y="20.899167" style="fill: #1f77b4; stroke: #1f77b4"/>
     <use xlink:href="#mae9ae09abf" x="107.217617" y="20.899167" style="fill: #1f77b4; stroke: #1f77b4"/>
     <use xlink:href="#mae9ae09abf" x="112.93131" y="20.899167" style="fill: #1f77b4; stroke: #1f77b4"/>
     <use xlink:href="#mae9ae09abf" x="118.645004" y="20.899167" style="fill: #1f77b4; stroke: #1f77b4"/>
     <use xlink:href="#mae9ae09abf" x="124.358697" y="20.899167" style="fill: #1f77b4; stroke: #1f77b4"/>
     <use xlink:href="#mae9ae09abf" x="130.072391" y="161.600226" style="fill: #1f77b4; stroke: #1f77b4"/>
     <use xlink:href="#mae9ae09abf" x="135.786084" y="161.600226" style="fill: #1f77b4; stroke: #1f77b4"/>
     <use xlink:href="#mae9ae09abf" x="141.499778" y="161.600226" style="fill: #1f77b4; stroke: #1f77b4"/>
     <use xlink:href="#mae9ae09abf" x="147.213472" y="161.600226" style="fill: #1f77b4; stroke: #1f77b4"/>
     <use xlink:href="#mae9ae09abf" x="152.927165" y="161.600226" style="fill: #1f77b4; stroke: #1f77b4"/>
     <use xlink:href="#mae9ae09abf" x="158.640859" y="41.940992" style="fill: #1f77b4; stroke: #1f77b4"/>
     <use xlink:href="#mae9ae09abf" x="164.354552" y="41.940992" style="fill: #1f77b4; stroke: #1f77b4"/>
     <use xlink:href="#mae9ae09abf" x="170.068246" y="41.940992" style="fill: #1f77b4; stroke: #1f77b4"/>
     <use xlink:href="#mae9ae09abf" x="175.781939" y="41.940992" style="fill: #1f77b4; stroke: #1f77b4"/>
     <use xlink:href="#mae9ae09abf" x="181.495633" y="41.940992" style="fill: #1f77b4; stroke: #1f77b4"/>
     <use xlink:href="#mae9ae09abf" x="187.209326" y="116.878945" style="fill: #1f77b4; stroke: #1f77b4"/>
     <use xlink:href="#mae9ae09abf" x="192.92302" y="116.878945" style="fill: #1f77b4; stroke: #1f77b4"/>
     <use xlink:href="#mae9ae09abf" x="198.636714" y="116.878945" style="fill: #1f77b4; stroke: #1f77b4"/>
     <use xlink:href="#mae9ae09abf" x="204.350407" y="116.878945" style="fill: #1f77b4; stroke: #1f77b4"/>
     <use xlink:href="#mae9ae09abf" x="210.064101" y="116.878945" style="fill: #1f77b4; stroke: #1f77b4"/>
     <use xlink:href="#mae9ae09abf" x="215.777794" y="61.167747" style="fill: #1f77b4; stroke: #1f77b4"/>
     <use xlink:href="#mae9ae09abf" x="221.491488" y="61.167747" style="fill: #1f77b4; stroke: #1f77b4"/>
     <use xlink:href="#mae9ae09abf" x="227.205181" y="61.167747" style="fill: #1f77b4; stroke: #1f77b4"/>
     <use xlink:href="#mae9ae09abf" x="232.918875" y="61.167747" style="fill: #1f77b4; stroke: #1f77b4"/>
     <use xlink:href="#mae9ae09abf" x="238.632568" y="61.167747" style="fill: #1f77b4; stroke: #1f77b4"/>
     <use xlink:href="#mae9ae09abf" x="244.346262" y="137.212755" style="fill: #1f77b4; stroke: #1f77b4"/>
     <use xlink:href="#mae9ae09abf" x="250.059956" y="137.212755" style="fill: #1f77b4; stroke: #1f77b4"/>
     <use xlink:href="#mae9ae09abf" x="255.773649" y="137.212755" style="fill: #1f77b4; stroke: #1f77b4"/>
     <use xlink:href="#mae9ae09abf" x="261.487343" y="137.212755" style="fill: #1f77b4; stroke: #1f77b4"/>
     <use xlink:href="#mae9ae09abf" x="267.201036" y="137.212755" style="fill: #1f77b4; stroke: #1f77b4"/>
    </g>
   </g>
   <g id="line2d_26">
    <path d="M 67.221762 111.290655 
L 95.79023 111.290655 
L 95.904503 113.045501 
L 124.358697 113.045501 
L 124.472971 111.98615 
L 152.927165 111.98615 
L 153.041439 113.070985 
L 181.495633 113.070985 
L 181.609907 111.13483 
L 210.064101 111.13483 
L 210.178375 111.956949 
L 238.632568 111.956949 
L 238.746842 112.969284 
L 267.201036 112.969284 
L 267.201036 112.969284 
" clip-path="url(#p85231e10a4)" style="fill: none; stroke: #ff7f0e; stroke-width: 1.5; stroke-linecap: square"/>
    <defs>
     <path id="mc6bf7a5860" d="M 0 2.5 
C 0.663008 2.5 1.29895 2.236584 1.767767 1.767767 
C 2.236584 1.29895 2.5 0.663008 2.5 0 
C 2.5 -0.663008 2.236584 -1.29895 1.767767 -1.767767 
C 1.29895 -2.236584 0.663008 -2.5 0 -2.5 
C -0.663008 -2.5 -1.29895 -2.236584 -1.767767 -1.767767 
C -2.236584 -1.29895 -2.5 -0.663008 -2.5 0 
C -2.5 0.663008 -2.236584 1.29895 -1.767767 1.767767 
C -1.29895 2.236584 -0.663008 2.5 0 2.5 
z
" style="stroke: #ff7f0e"/>
    </defs>
    <g clip-path="url(#p85231e10a4)">
     <use xlink:href="#mc6bf7a5860" x="67.221762" y="111.290655" style="fill: #ff7f0e; stroke: #ff7f0e"/>
     <use xlink:href="#mc6bf7a5860" x="72.935455" y="111.290655" style="fill: #ff7f0e; stroke: #ff7f0e"/>
     <use xlink:href="#mc6bf7a5860" x="78.649149" y="111.290655" style="fill: #ff7f0e; stroke: #ff7f0e"/>
     <use xlink:href="#mc6bf7a5860" x="84.362842" y="111.290655" style="fill: #ff7f0e; stroke: #ff7f0e"/>
     <use xlink:href="#mc6bf7a5860" x="90.076536" y="111.290655" style="fill: #ff7f0e; stroke: #ff7f0e"/>
     <use xlink:href="#mc6bf7a5860" x="95.79023" y="111.290655" style="fill: #ff7f0e; stroke: #ff7f0e"/>
     <use xlink:href="#mc6bf7a5860" x="101.503923" y="113.045501" style="fill: #ff7f0e; stroke: #ff7f0e"/>
     <use xlink:href="#mc6bf7a5860" x="107.217617" y="113.045501" style="fill: #ff7f0e; stroke: #ff7f0e"/>
     <use xlink:href="#mc6bf7a5860" x="112.93131" y="113.045501" style="fill: #ff7f0e; stroke: #ff7f0e"/>
     <use xlink:href="#mc6bf7a5860" x="118.645004" y="113.045501" style="fill: #ff7f0e; stroke: #ff7f0e"/>
     <use xlink:href="#mc6bf7a5860" x="124.358697" y="113.045501" style="fill: #ff7f0e; stroke: #ff7f0e"/>
     <use xlink:href="#mc6bf7a5860" x="130.072391" y="111.98615" style="fill: #ff7f0e; stroke: #ff7f0e"/>
     <use xlink:href="#mc6bf7a5860" x="135.786084" y="111.98615" style="fill: #ff7f0e; stroke: #ff7f0e"/>
     <use xlink:href="#mc6bf7a5860" x="141.499778" y="111.98615" style="fill: #ff7f0e; stroke: #ff7f0e"/>
     <use xlink:href="#mc6bf7a5860" x="147.213472" y="111.98615" style="fill: #ff7f0e; stroke: #ff7f0e"/>
     <use xlink:href="#mc6bf7a5860" x="152.927165" y="111.98615" style="fill: #ff7f0e; stroke: #ff7f0e"/>
     <use xlink:href="#mc6bf7a5860" x="158.640859" y="113.070985" style="fill: #ff7f0e; stroke: #ff7f0e"/>
     <use xlink:href="#mc6bf7a5860" x="164.354552" y="113.070985" style="fill: #ff7f0e; stroke: #ff7f0e"/>
     <use xlink:href="#mc6bf7a5860" x="170.068246" y="113.070985" style="fill: #ff7f0e; stroke: #ff7f0e"/>
     <use xlink:href="#mc6bf7a5860" x="175.781939" y="113.070985" style="fill: #ff7f0e; stroke: #ff7f0e"/>
     <use xlink:href="#mc6bf7a5860" x="181.495633" y="113.070985" style="fill: #ff7f0e; stroke: #ff7f0e"/>
     <use xlink:href="#mc6bf7a5860" x="187.209326" y="111.13483" style="fill: #ff7f0e; stroke: #ff7f0e"/>
     <use xlink:href="#mc6bf7a5860" x="192.92302" y="111.13483" style="fill: #ff7f0e; stroke: #ff7f0e"/>
     <use xlink:href="#mc6bf7a5860" x="198.636714" y="111.13483" style="fill: #ff7f0e; stroke: #ff7f0e"/>
     <use xlink:href="#mc6bf7a5860" x="204.350407" y="111.13483" style="fill: #ff7f0e; stroke: #ff7f0e"/>
     <use xlink:href="#mc6bf7a5860" x="210.064101" y="111.13483" style="fill: #ff7f0e; stroke: #ff7f0e"/>
     <use xlink:href="#mc6bf7a5860" x="215.777794" y="111.956949" style="fill: #ff7f0e; stroke: #ff7f0e"/>
     <use xlink:href="#mc6bf7a5860" x="221.491488" y="111.956949" style="fill: #ff7f0e; stroke: #ff7f0e"/>
     <use xlink:href="#mc6bf7a5860" x="227.205181" y="111.956949" style="fill: #ff7f0e; stroke: #ff7f0e"/>
     <use xlink:href="#mc6bf7a5860" x="232.918875" y="111.956949" style="fill: #ff7f0e; stroke: #ff7f0e"/>
     <use xlink:href="#mc6bf7a5860" x="238.632568" y="111.956949" style="fill: #ff7f0e; stroke: #ff7f0e"/>
     <use xlink:href="#mc6bf7a5860" x="244.346262" y="112.969284" style="fill: #ff7f0e; stroke: #ff7f0e"/>
     <use xlink:href="#mc6bf7a5860" x="250.059956" y="112.969284" style="fill: #ff7f0e; stroke: #ff7f0e"/>
     <use xlink:href="#mc6bf7a5860" x="255.773649" y="112.969284" style="fill: #ff7f0e; stroke: #ff7f0e"/>
     <use xlink:href="#mc6bf7a5860" x="261.487343" y="112.969284" style="fill: #ff7f0e; stroke: #ff7f0e"/>
     <use xlink:href="#mc6bf7a5860" x="267.201036" y="112.969284" style="fill: #ff7f0e; stroke: #ff7f0e"/>
    </g>
   </g>
   <g id="line2d_27">
    <path d="M 67.221762 131.904595 
L 67.393173 110.398237 
L 67.507446 110.536563 
L 68.078816 111.627089 
L 68.650185 112.246519 
L 69.392965 112.70863 
L 69.907198 112.886679 
L 70.9928 113.025039 
L 72.47836 112.912658 
L 73.278277 112.851062 
L 75.220933 112.856514 
L 78.07778 112.861868 
L 79.734751 112.874059 
L 82.591597 112.868933 
L 86.591183 112.865924 
L 95.79023 112.867252 
L 95.847366 112.018068 
L 95.96164 116.5026 
L 96.018777 116.445869 
L 96.590147 113.916111 
L 97.047242 112.915901 
L 97.561475 112.274928 
L 98.132844 111.859661 
L 98.989898 111.533613 
L 99.732678 111.443478 
L 101.103965 111.455897 
L 105.217824 111.540435 
L 106.132015 111.550646 
L 108.131808 111.53442 
L 109.903053 111.551191 
L 113.559817 111.542447 
L 116.873759 111.539766 
L 124.358697 111.541383 
L 124.415834 112.16511 
L 124.472971 111.669217 
L 124.530108 111.592474 
L 124.587245 111.6372 
L 125.044341 112.030282 
L 125.958532 112.41673 
L 126.758449 112.554847 
L 127.901187 112.529813 
L 129.843843 112.451512 
L 130.586623 112.454271 
L 134.871893 112.449476 
L 136.471728 112.450693 
L 138.814342 112.444488 
L 151.784426 112.447981 
L 152.927165 112.448017 
L 152.984302 112.231977 
L 153.098576 116.314848 
L 153.155713 116.288894 
L 153.841356 113.625662 
L 154.355589 112.683071 
L 154.926958 112.093388 
L 155.612601 111.718065 
L 156.412518 111.51622 
L 157.383846 111.439513 
L 159.440776 111.556046 
L 160.640651 111.574067 
L 162.011938 111.571089 
L 181.495633 111.561429 
L 181.667044 114.299283 
L 181.781318 114.123194 
L 182.181276 113.302601 
L 182.752646 112.665334 
L 183.438289 112.232795 
L 184.181069 112.006201 
L 185.038123 111.923296 
L 186.58082 112.039244 
L 188.009244 112.077682 
L 190.180447 112.079485 
L 201.379286 112.070256 
L 210.064101 112.069424 
L 210.121238 112.397453 
L 210.235512 108.730562 
L 210.292648 108.789285 
L 210.864018 111.010062 
L 211.37825 112.004503 
L 211.94962 112.628759 
L 212.6924 113.054015 
L 213.492317 113.262851 
L 214.406508 113.327812 
L 217.549039 113.195103 
L 220.063064 113.19941 
L 221.091529 113.214211 
L 238.632568 113.201036 
L 238.689705 112.43364 
L 238.803979 116.229129 
L 238.861116 116.110429 
L 239.318212 114.105265 
L 239.775307 113.085383 
L 240.28954 112.418825 
L 240.975183 111.917126 
L 241.7751 111.616814 
L 242.232195 111.546996 
L 243.317797 111.521216 
L 252.631118 111.649637 
L 256.287882 111.63878 
L 267.201036 111.643252 
L 267.201036 111.643252 
" clip-path="url(#p85231e10a4)" style="fill: none; stroke: #1f77b4; stroke-width: 1.5; stroke-linecap: square"/>
    <defs>
     <path id="m1d4b8a3c18" d="M -0 2.5 
L 2.5 -2.5 
L -2.5 -2.5 
z
" style="stroke: #1f77b4; stroke-linejoin: miter"/>
    </defs>
    <g clip-path="url(#p85231e10a4)">
     <use xlink:href="#m1d4b8a3c18" x="67.221762" y="131.904595" style="fill: #1f77b4; stroke: #1f77b4; stroke-linejoin: miter"/>
     <use xlink:href="#m1d4b8a3c18" x="72.935455" y="112.853463" style="fill: #1f77b4; stroke: #1f77b4; stroke-linejoin: miter"/>
     <use xlink:href="#m1d4b8a3c18" x="78.649149" y="112.874008" style="fill: #1f77b4; stroke: #1f77b4; stroke-linejoin: miter"/>
     <use xlink:href="#m1d4b8a3c18" x="84.362842" y="112.864541" style="fill: #1f77b4; stroke: #1f77b4; stroke-linejoin: miter"/>
     <use xlink:href="#m1d4b8a3c18" x="90.076536" y="112.868471" style="fill: #1f77b4; stroke: #1f77b4; stroke-linejoin: miter"/>
     <use xlink:href="#m1d4b8a3c18" x="95.79023" y="112.867252" style="fill: #1f77b4; stroke: #1f77b4; stroke-linejoin: miter"/>
     <use xlink:href="#m1d4b8a3c18" x="101.503923" y="111.477407" style="fill: #1f77b4; stroke: #1f77b4; stroke-linejoin: miter"/>
     <use xlink:href="#m1d4b8a3c18" x="107.217617" y="111.529231" style="fill: #1f77b4; stroke: #1f77b4; stroke-linejoin: miter"/>
     <use xlink:href="#m1d4b8a3c18" x="112.93131" y="111.539617" style="fill: #1f77b4; stroke: #1f77b4; stroke-linejoin: miter"/>
     <use xlink:href="#m1d4b8a3c18" x="118.645004" y="111.544646" style="fill: #1f77b4; stroke: #1f77b4; stroke-linejoin: miter"/>
     <use xlink:href="#m1d4b8a3c18" x="124.358697" y="111.541383" style="fill: #1f77b4; stroke: #1f77b4; stroke-linejoin: miter"/>
     <use xlink:href="#m1d4b8a3c18" x="130.072391" y="112.459023" style="fill: #1f77b4; stroke: #1f77b4; stroke-linejoin: miter"/>
     <use xlink:href="#m1d4b8a3c18" x="135.786084" y="112.441264" style="fill: #1f77b4; stroke: #1f77b4; stroke-linejoin: miter"/>
     <use xlink:href="#m1d4b8a3c18" x="141.499778" y="112.451356" style="fill: #1f77b4; stroke: #1f77b4; stroke-linejoin: miter"/>
     <use xlink:href="#m1d4b8a3c18" x="147.213472" y="112.44736" style="fill: #1f77b4; stroke: #1f77b4; stroke-linejoin: miter"/>
     <use xlink:href="#m1d4b8a3c18" x="152.927165" y="112.448017" style="fill: #1f77b4; stroke: #1f77b4; stroke-linejoin: miter"/>
     <use xlink:href="#m1d4b8a3c18" x="158.640859" y="111.499355" style="fill: #1f77b4; stroke: #1f77b4; stroke-linejoin: miter"/>
     <use xlink:href="#m1d4b8a3c18" x="164.354552" y="111.55099" style="fill: #1f77b4; stroke: #1f77b4; stroke-linejoin: miter"/>
     <use xlink:href="#m1d4b8a3c18" x="170.068246" y="111.562644" style="fill: #1f77b4; stroke: #1f77b4; stroke-linejoin: miter"/>
     <use xlink:href="#m1d4b8a3c18" x="175.781939" y="111.563797" style="fill: #1f77b4; stroke: #1f77b4; stroke-linejoin: miter"/>
     <use xlink:href="#m1d4b8a3c18" x="181.495633" y="111.561429" style="fill: #1f77b4; stroke: #1f77b4; stroke-linejoin: miter"/>
     <use xlink:href="#m1d4b8a3c18" x="187.209326" y="112.078692" style="fill: #1f77b4; stroke: #1f77b4; stroke-linejoin: miter"/>
     <use xlink:href="#m1d4b8a3c18" x="192.92302" y="112.07412" style="fill: #1f77b4; stroke: #1f77b4; stroke-linejoin: miter"/>
     <use xlink:href="#m1d4b8a3c18" x="198.636714" y="112.067036" style="fill: #1f77b4; stroke: #1f77b4; stroke-linejoin: miter"/>
     <use xlink:href="#m1d4b8a3c18" x="204.350407" y="112.069859" style="fill: #1f77b4; stroke: #1f77b4; stroke-linejoin: miter"/>
     <use xlink:href="#m1d4b8a3c18" x="210.064101" y="112.069424" style="fill: #1f77b4; stroke: #1f77b4; stroke-linejoin: miter"/>
     <use xlink:href="#m1d4b8a3c18" x="215.777794" y="113.27029" style="fill: #1f77b4; stroke: #1f77b4; stroke-linejoin: miter"/>
     <use xlink:href="#m1d4b8a3c18" x="221.491488" y="113.191648" style="fill: #1f77b4; stroke: #1f77b4; stroke-linejoin: miter"/>
     <use xlink:href="#m1d4b8a3c18" x="227.205181" y="113.195898" style="fill: #1f77b4; stroke: #1f77b4; stroke-linejoin: miter"/>
     <use xlink:href="#m1d4b8a3c18" x="232.918875" y="113.203154" style="fill: #1f77b4; stroke: #1f77b4; stroke-linejoin: miter"/>
     <use xlink:href="#m1d4b8a3c18" x="238.632568" y="113.201036" style="fill: #1f77b4; stroke: #1f77b4; stroke-linejoin: miter"/>
     <use xlink:href="#m1d4b8a3c18" x="244.346262" y="111.581404" style="fill: #1f77b4; stroke: #1f77b4; stroke-linejoin: miter"/>
     <use xlink:href="#m1d4b8a3c18" x="250.059956" y="111.650514" style="fill: #1f77b4; stroke: #1f77b4; stroke-linejoin: miter"/>
     <use xlink:href="#m1d4b8a3c18" x="255.773649" y="111.647126" style="fill: #1f77b4; stroke: #1f77b4; stroke-linejoin: miter"/>
     <use xlink:href="#m1d4b8a3c18" x="261.487343" y="111.641374" style="fill: #1f77b4; stroke: #1f77b4; stroke-linejoin: miter"/>
     <use xlink:href="#m1d4b8a3c18" x="267.201036" y="111.643252" style="fill: #1f77b4; stroke: #1f77b4; stroke-linejoin: miter"/>
    </g>
   </g>
   <g id="line2d_28">
    <path d="M 67.221762 101.282448 
L 67.278899 113.840936 
L 67.336036 113.361442 
L 67.507446 113.056289 
L 68.421637 112.634468 
L 69.621513 112.33504 
L 70.821389 112.303465 
L 75.506617 112.426822 
L 79.277655 112.420929 
L 83.448651 112.420986 
L 95.79023 112.421946 
L 95.847366 110.385933 
L 95.904503 111.709308 
L 96.075914 112.164179 
L 96.475873 112.117163 
L 99.618404 112.383211 
L 101.675334 112.333767 
L 115.159651 112.313914 
L 124.358697 112.313083 
L 124.415834 112.925932 
L 124.472971 112.724794 
L 124.701519 112.624861 
L 126.872723 112.271191 
L 152.927165 112.357496 
L 152.984302 110.474522 
L 153.041439 111.680571 
L 153.21285 112.142913 
L 153.727082 112.150391 
L 156.069697 112.437293 
L 165.782976 112.33872 
L 171.153848 112.335513 
L 179.49584 112.33501 
L 181.495633 112.334827 
L 181.667044 113.44099 
L 181.724181 113.40533 
L 182.29555 112.858444 
L 183.03833 112.491231 
L 183.952521 112.271871 
L 185.495218 112.264993 
L 187.952107 112.330355 
L 201.893519 112.342068 
L 210.064101 112.342387 
L 210.121238 114.03985 
L 210.178375 112.948587 
L 210.349785 112.571478 
L 210.806881 112.62529 
L 213.892275 112.494018 
L 215.549247 112.531663 
L 217.377628 112.542782 
L 226.405264 112.539927 
L 233.147423 112.540741 
L 238.632568 112.540164 
L 238.689705 110.757867 
L 238.746842 111.895446 
L 238.861116 112.245806 
L 238.918253 112.226102 
L 239.261075 112.164444 
L 242.689291 112.342821 
L 244.231988 112.309077 
L 246.231781 112.305929 
L 267.201036 112.306386 
L 267.201036 112.306386 
" clip-path="url(#p85231e10a4)" style="fill: none; stroke: #ff7f0e; stroke-width: 1.5; stroke-linecap: square"/>
    <defs>
     <path id="m97e2cea3d1" d="M -0 2.5 
L 2.5 -2.5 
L -2.5 -2.5 
z
" style="stroke: #ff7f0e; stroke-linejoin: miter"/>
    </defs>
    <g clip-path="url(#p85231e10a4)">
     <use xlink:href="#m97e2cea3d1" x="67.221762" y="101.282448" style="fill: #ff7f0e; stroke: #ff7f0e; stroke-linejoin: miter"/>
     <use xlink:href="#m97e2cea3d1" x="72.935455" y="112.454328" style="fill: #ff7f0e; stroke: #ff7f0e; stroke-linejoin: miter"/>
     <use xlink:href="#m97e2cea3d1" x="78.649149" y="112.425933" style="fill: #ff7f0e; stroke: #ff7f0e; stroke-linejoin: miter"/>
     <use xlink:href="#m97e2cea3d1" x="84.362842" y="112.421102" style="fill: #ff7f0e; stroke: #ff7f0e; stroke-linejoin: miter"/>
     <use xlink:href="#m97e2cea3d1" x="90.076536" y="112.422414" style="fill: #ff7f0e; stroke: #ff7f0e; stroke-linejoin: miter"/>
     <use xlink:href="#m97e2cea3d1" x="95.79023" y="112.421946" style="fill: #ff7f0e; stroke: #ff7f0e; stroke-linejoin: miter"/>
     <use xlink:href="#m97e2cea3d1" x="101.503923" y="112.326606" style="fill: #ff7f0e; stroke: #ff7f0e; stroke-linejoin: miter"/>
     <use xlink:href="#m97e2cea3d1" x="107.217617" y="112.308064" style="fill: #ff7f0e; stroke: #ff7f0e; stroke-linejoin: miter"/>
     <use xlink:href="#m97e2cea3d1" x="112.93131" y="112.312273" style="fill: #ff7f0e; stroke: #ff7f0e; stroke-linejoin: miter"/>
     <use xlink:href="#m97e2cea3d1" x="118.645004" y="112.314357" style="fill: #ff7f0e; stroke: #ff7f0e; stroke-linejoin: miter"/>
     <use xlink:href="#m97e2cea3d1" x="124.358697" y="112.313083" style="fill: #ff7f0e; stroke: #ff7f0e; stroke-linejoin: miter"/>
     <use xlink:href="#m97e2cea3d1" x="130.072391" y="112.343272" style="fill: #ff7f0e; stroke: #ff7f0e; stroke-linejoin: miter"/>
     <use xlink:href="#m97e2cea3d1" x="135.786084" y="112.354783" style="fill: #ff7f0e; stroke: #ff7f0e; stroke-linejoin: miter"/>
     <use xlink:href="#m97e2cea3d1" x="141.499778" y="112.358336" style="fill: #ff7f0e; stroke: #ff7f0e; stroke-linejoin: miter"/>
     <use xlink:href="#m97e2cea3d1" x="147.213472" y="112.357138" style="fill: #ff7f0e; stroke: #ff7f0e; stroke-linejoin: miter"/>
     <use xlink:href="#m97e2cea3d1" x="152.927165" y="112.357496" style="fill: #ff7f0e; stroke: #ff7f0e; stroke-linejoin: miter"/>
     <use xlink:href="#m97e2cea3d1" x="158.640859" y="112.338431" style="fill: #ff7f0e; stroke: #ff7f0e; stroke-linejoin: miter"/>
     <use xlink:href="#m97e2cea3d1" x="164.354552" y="112.332213" style="fill: #ff7f0e; stroke: #ff7f0e; stroke-linejoin: miter"/>
     <use xlink:href="#m97e2cea3d1" x="170.068246" y="112.335171" style="fill: #ff7f0e; stroke: #ff7f0e; stroke-linejoin: miter"/>
     <use xlink:href="#m97e2cea3d1" x="175.781939" y="112.33569" style="fill: #ff7f0e; stroke: #ff7f0e; stroke-linejoin: miter"/>
     <use xlink:href="#m97e2cea3d1" x="181.495633" y="112.334827" style="fill: #ff7f0e; stroke: #ff7f0e; stroke-linejoin: miter"/>
     <use xlink:href="#m97e2cea3d1" x="187.209326" y="112.361563" style="fill: #ff7f0e; stroke: #ff7f0e; stroke-linejoin: miter"/>
     <use xlink:href="#m97e2cea3d1" x="192.92302" y="112.345504" style="fill: #ff7f0e; stroke: #ff7f0e; stroke-linejoin: miter"/>
     <use xlink:href="#m97e2cea3d1" x="198.636714" y="112.341569" style="fill: #ff7f0e; stroke: #ff7f0e; stroke-linejoin: miter"/>
     <use xlink:href="#m97e2cea3d1" x="204.350407" y="112.342635" style="fill: #ff7f0e; stroke: #ff7f0e; stroke-linejoin: miter"/>
     <use xlink:href="#m97e2cea3d1" x="210.064101" y="112.342387" style="fill: #ff7f0e; stroke: #ff7f0e; stroke-linejoin: miter"/>
     <use xlink:href="#m97e2cea3d1" x="215.777794" y="112.524615" style="fill: #ff7f0e; stroke: #ff7f0e; stroke-linejoin: miter"/>
     <use xlink:href="#m97e2cea3d1" x="221.491488" y="112.535852" style="fill: #ff7f0e; stroke: #ff7f0e; stroke-linejoin: miter"/>
     <use xlink:href="#m97e2cea3d1" x="227.205181" y="112.53788" style="fill: #ff7f0e; stroke: #ff7f0e; stroke-linejoin: miter"/>
     <use xlink:href="#m97e2cea3d1" x="232.918875" y="112.540972" style="fill: #ff7f0e; stroke: #ff7f0e; stroke-linejoin: miter"/>
     <use xlink:href="#m97e2cea3d1" x="238.632568" y="112.540164" style="fill: #ff7f0e; stroke: #ff7f0e; stroke-linejoin: miter"/>
     <use xlink:href="#m97e2cea3d1" x="244.346262" y="112.315333" style="fill: #ff7f0e; stroke: #ff7f0e; stroke-linejoin: miter"/>
     <use xlink:href="#m97e2cea3d1" x="250.059956" y="112.310327" style="fill: #ff7f0e; stroke: #ff7f0e; stroke-linejoin: miter"/>
     <use xlink:href="#m97e2cea3d1" x="255.773649" y="112.307899" style="fill: #ff7f0e; stroke: #ff7f0e; stroke-linejoin: miter"/>
     <use xlink:href="#m97e2cea3d1" x="261.487343" y="112.305665" style="fill: #ff7f0e; stroke: #ff7f0e; stroke-linejoin: miter"/>
     <use xlink:href="#m97e2cea3d1" x="267.201036" y="112.306386" style="fill: #ff7f0e; stroke: #ff7f0e; stroke-linejoin: miter"/>
    </g>
   </g>
   <g id="line2d_29">
    <path d="M 67.221762 134.558838 
L 67.393173 113.05248 
L 67.507446 113.190806 
L 68.078816 114.281332 
L 68.650185 114.900762 
L 69.392965 115.362872 
L 69.907198 115.540921 
L 70.9928 115.679282 
L 72.47836 115.566901 
L 73.278277 115.505304 
L 75.220933 115.510757 
L 78.07778 115.516111 
L 79.734751 115.528301 
L 82.591597 115.523176 
L 86.591183 115.520166 
L 95.79023 115.521494 
L 95.847366 106.792147 
L 95.904503 110.435125 
L 95.96164 111.276679 
L 96.018777 111.219948 
L 96.590147 108.69019 
L 97.047242 107.68998 
L 97.561475 107.049007 
L 98.132844 106.63374 
L 98.989898 106.307692 
L 99.732678 106.217557 
L 101.103965 106.229976 
L 105.217824 106.314514 
L 106.132015 106.324725 
L 108.131808 106.308499 
L 109.903053 106.32527 
L 113.559817 106.316526 
L 116.873759 106.313845 
L 124.358697 106.315462 
L 124.415834 113.093994 
L 124.472971 112.598101 
L 124.530108 112.521358 
L 124.587245 112.566084 
L 125.044341 112.959165 
L 125.958532 113.345614 
L 126.758449 113.483731 
L 127.901187 113.458697 
L 129.843843 113.380396 
L 130.586623 113.383155 
L 134.871893 113.37836 
L 136.471728 113.379577 
L 138.814342 113.373372 
L 151.784426 113.376865 
L 152.927165 113.376901 
L 152.984302 107.116375 
L 153.041439 110.406239 
L 153.098576 111.199246 
L 153.155713 111.173292 
L 153.841356 108.510059 
L 154.355589 107.567469 
L 154.926958 106.977786 
L 155.612601 106.602463 
L 156.412518 106.400618 
L 157.383846 106.323911 
L 159.440776 106.440444 
L 160.640651 106.458465 
L 162.011938 106.455487 
L 181.495633 106.445827 
L 181.667044 112.097512 
L 181.781318 111.921422 
L 182.181276 111.10083 
L 182.752646 110.463563 
L 183.438289 110.031024 
L 184.181069 109.80443 
L 185.038123 109.721524 
L 186.58082 109.837473 
L 188.009244 109.87591 
L 190.180447 109.877714 
L 201.379286 109.868485 
L 210.064101 109.867652 
L 210.121238 117.052211 
L 210.178375 114.069785 
L 210.235512 113.38532 
L 210.292648 113.444043 
L 210.864018 115.66482 
L 211.37825 116.659261 
L 211.94962 117.283517 
L 212.6924 117.708773 
L 213.492317 117.91761 
L 214.406508 117.982571 
L 217.549039 117.849861 
L 220.063064 117.854168 
L 221.091529 117.868969 
L 238.632568 117.855794 
L 238.689705 107.845172 
L 238.746842 110.985995 
L 238.803979 111.640662 
L 238.861116 111.521962 
L 239.318212 109.516798 
L 239.775307 108.496915 
L 240.28954 107.830358 
L 240.975183 107.328659 
L 241.7751 107.028347 
L 242.232195 106.958529 
L 243.317797 106.932749 
L 252.631118 107.06117 
L 256.287882 107.050313 
L 267.201036 107.054785 
L 267.201036 107.054785 
" clip-path="url(#p85231e10a4)" style="fill: none; stroke: #1f77b4; stroke-width: 2; stroke-linecap: square"/>
   </g>
   <g id="line2d_30">
    <path d="M 67.221762 100.153866 
L 67.278899 112.712354 
L 67.336036 112.23286 
L 67.507446 111.927707 
L 68.421637 111.505886 
L 69.621513 111.206458 
L 70.821389 111.174883 
L 75.506617 111.298239 
L 79.277655 111.292347 
L 83.448651 111.292404 
L 95.79023 111.293364 
L 95.847366 111.012196 
L 96.018777 112.795907 
L 96.932968 112.819441 
L 98.532802 113.034069 
L 100.304047 112.949339 
L 106.303426 112.946329 
L 123.901602 112.940019 
L 124.358697 112.939346 
L 124.530108 112.231278 
L 125.672847 111.964758 
L 126.872723 111.838103 
L 152.927165 111.924408 
L 152.984302 111.12627 
L 153.155713 112.786447 
L 156.01256 113.090009 
L 168.811233 112.983927 
L 179.267292 112.986304 
L 181.495633 112.986574 
L 181.55277 111.544745 
L 181.609907 112.060359 
L 181.667044 112.156582 
L 181.724181 112.120923 
L 182.29555 111.574037 
L 183.03833 111.206824 
L 183.952521 110.987464 
L 185.495218 110.980585 
L 187.952107 111.045948 
L 201.893519 111.05766 
L 210.064101 111.05798 
L 210.121238 113.577562 
L 210.178375 112.486299 
L 210.349785 112.109189 
L 210.806881 112.163001 
L 213.892275 112.03173 
L 215.549247 112.069374 
L 217.377628 112.080493 
L 226.405264 112.077638 
L 233.147423 112.078452 
L 238.632568 112.077876 
L 238.689705 111.307914 
L 238.861116 112.795852 
L 239.375349 112.725387 
L 242.003648 112.947622 
L 244.746221 112.870756 
L 260.630289 112.855937 
L 267.201036 112.856433 
L 267.201036 112.856433 
" clip-path="url(#p85231e10a4)" style="fill: none; stroke: #ff7f0e; stroke-width: 2; stroke-linecap: square"/>
   </g>
   <g id="patch_3">
    <path d="M 57.222798 232.981683 
L 57.222798 10.8 
" style="fill: none; stroke: #000000; stroke-width: 0.8; stroke-linejoin: miter; stroke-linecap: square"/>
   </g>
   <g id="patch_4">
    <path d="M 277.2 232.981683 
L 277.2 10.8 
" style="fill: none; stroke: #000000; stroke-width: 0.8; stroke-linejoin: miter; stroke-linecap: square"/>
   </g>
   <g id="patch_5">
    <path d="M 57.222798 232.981683 
L 277.2 232.981683 
" style="fill: none; stroke: #000000; stroke-width: 0.8; stroke-linejoin: miter; stroke-linecap: square"/>
   </g>
   <g id="patch_6">
    <path d="M 57.222798 10.8 
L 277.2 10.8 
" style="fill: none; stroke: #000000; stroke-width: 0.8; stroke-linejoin: miter; stroke-linecap: square"/>
   </g>
   <g id="legend_1">
    <g id="patch_7">
     <path d="M 220.63732 227.981683 
L 270.2 227.981683 
Q 272.2 227.981683 272.2 225.981683 
L 272.2 139.705747 
Q 272.2 137.705747 270.2 137.705747 
L 220.63732 137.705747 
Q 218.63732 137.705747 218.63732 139.705747 
L 218.63732 225.981683 
Q 218.63732 227.981683 220.63732 227.981683 
z
" style="fill: #ffffff; opacity: 0.8; stroke: #cccccc; stroke-linejoin: miter"/>
    </g>
    <g id="line2d_31">
     <path d="M 222.63732 145.205747 
L 232.63732 145.205747 
L 242.63732 145.205747 
" style="fill: none; stroke: #1f77b4; stroke-width: 1.5; stroke-linecap: square"/>
     <g>
      <use xlink:href="#mae9ae09abf" x="232.63732" y="145.205747" style="fill: #1f77b4; stroke: #1f77b4"/>
     </g>
    </g>
    <g id="text_15">
     <!-- $\tau_\mathrm{ff,1}$ -->
     <g transform="translate(250.63732 148.705747) scale(0.1 -0.1)">
      <defs>
       <path id="CMMI12-1c" d="M 1837 2408 
L 2899 2408 
C 2982 2408 3194 2408 3194 2612 
C 3194 2752 3072 2752 2957 2752 
L 1197 2752 
C 1050 2752 832 2752 538 2440 
C 371 2255 166 1917 166 1879 
C 166 1841 198 1828 237 1828 
C 282 1828 288 1847 320 1885 
C 653 2408 986 2408 1146 2408 
L 1677 2408 
L 1011 223 
C 979 127 979 114 979 95 
C 979 25 1024 -64 1152 -64 
C 1350 -64 1382 108 1402 203 
L 1837 2408 
z
" transform="scale(0.015625)"/>
       <path id="CMR17-b" d="M 2554 2560 
L 3283 2560 
L 3283 2725 
L 2541 2725 
L 2541 3494 
C 2541 4022 2810 4352 3085 4352 
C 3168 4352 3264 4327 3328 4282 
C 3277 4269 3142 4225 3142 4067 
C 3142 3901 3270 3850 3360 3850 
C 3450 3850 3578 3901 3578 4067 
C 3578 4308 3347 4454 3091 4454 
C 2842 4454 2637 4333 2477 4181 
C 2330 4390 2086 4454 1837 4454 
C 1338 4454 634 4168 634 3469 
L 634 2725 
L 122 2725 
L 122 2560 
L 634 2560 
L 634 427 
C 634 184 608 153 198 153 
L 198 -13 
C 352 0 634 0 794 0 
C 960 0 1242 0 1395 -13 
L 1395 153 
C 986 153 960 178 960 427 
L 960 2560 
L 2227 2560 
L 2227 427 
C 2227 184 2202 153 1792 153 
L 1792 -13 
C 1946 0 2240 0 2406 0 
C 2592 0 2918 0 3091 -13 
L 3091 153 
C 2630 153 2554 153 2554 439 
L 2554 2560 
z
M 947 2725 
L 947 3469 
C 947 4047 1395 4352 1824 4352 
C 1920 4352 2170 4332 2323 4187 
C 2208 4187 2099 4136 2099 3977 
C 2099 3812 2246 3767 2259 3767 
C 2227 3652 2227 3526 2227 3481 
L 2227 2725 
L 947 2725 
z
" transform="scale(0.015625)"/>
       <path id="CMMI12-3b" d="M 1248 -31 
C 1248 343 1126 619 864 619 
C 659 619 557 453 557 313 
C 557 172 653 0 870 0 
C 954 0 1024 26 1082 83 
C 1094 96 1101 96 1107 96 
C 1120 96 1120 5 1120 -27 
C 1120 -240 1082 -659 710 -1080 
C 640 -1157 640 -1170 640 -1183 
C 640 -1216 672 -1248 704 -1248 
C 755 -1248 1248 -771 1248 -31 
z
" transform="scale(0.015625)"/>
      </defs>
      <use xlink:href="#CMMI12-1c" transform="scale(0.996264)"/>
      <use xlink:href="#CMR17-b" transform="translate(42.363841 -14.943915) scale(0.697382)"/>
      <use xlink:href="#CMMI12-3b" transform="translate(83.138776 -14.943915) scale(0.697382)"/>
      <use xlink:href="#CMR17-31" transform="translate(102.106709 -14.943915) scale(0.697382)"/>
     </g>
    </g>
    <g id="line2d_32">
     <path d="M 222.63732 160.056142 
L 232.63732 160.056142 
L 242.63732 160.056142 
" style="fill: none; stroke: #ff7f0e; stroke-width: 1.5; stroke-linecap: square"/>
     <g>
      <use xlink:href="#mc6bf7a5860" x="232.63732" y="160.056142" style="fill: #ff7f0e; stroke: #ff7f0e"/>
     </g>
    </g>
    <g id="text_16">
     <!-- $\tau_\mathrm{ff,2}$ -->
     <g transform="translate(250.63732 163.556142) scale(0.1 -0.1)">
      <use xlink:href="#CMMI12-1c" transform="scale(0.996264)"/>
      <use xlink:href="#CMR17-b" transform="translate(42.363841 -14.943915) scale(0.697382)"/>
      <use xlink:href="#CMMI12-3b" transform="translate(83.138776 -14.943915) scale(0.697382)"/>
      <use xlink:href="#CMR17-32" transform="translate(102.106709 -14.943915) scale(0.697382)"/>
     </g>
    </g>
    <g id="line2d_33">
     <path d="M 222.63732 174.906537 
L 232.63732 174.906537 
L 242.63732 174.906537 
" style="fill: none; stroke: #1f77b4; stroke-width: 1.5; stroke-linecap: square"/>
     <g>
      <use xlink:href="#m1d4b8a3c18" x="232.63732" y="174.906537" style="fill: #1f77b4; stroke: #1f77b4; stroke-linejoin: miter"/>
     </g>
    </g>
    <g id="text_17">
     <!-- $\tau_{\mathrm{fb},1}$ -->
     <g transform="translate(250.63732 178.406537) scale(0.1 -0.1)">
      <defs>
       <path id="CMR17-66" d="M 979 2560 
L 1709 2560 
L 1709 2725 
L 966 2725 
L 966 3494 
C 966 4022 1235 4352 1510 4352 
C 1594 4352 1690 4327 1754 4282 
C 1702 4269 1568 4225 1568 4067 
C 1568 3901 1696 3850 1786 3850 
C 1875 3850 2003 3901 2003 4067 
C 2003 4308 1773 4454 1517 4454 
C 1152 4454 653 4156 653 3481 
L 653 2725 
L 141 2725 
L 141 2560 
L 653 2560 
L 653 427 
C 653 184 627 153 218 153 
L 218 -13 
C 371 0 666 0 832 0 
C 1018 0 1344 0 1517 -13 
L 1517 153 
C 1056 153 979 153 979 439 
L 979 2560 
z
" transform="scale(0.015625)"/>
       <path id="CMR17-62" d="M 960 4396 
L 198 4326 
L 198 4160 
C 576 4160 634 4122 634 3817 
L 634 -13 
L 749 -13 
L 934 441 
C 1120 141 1395 -64 1766 -64 
C 2406 -64 3053 500 3053 1370 
C 3053 2188 2477 2790 1830 2790 
C 1434 2790 1152 2579 960 2330 
L 960 4396 
z
M 973 2004 
C 973 2118 973 2138 1062 2272 
C 1312 2657 1670 2688 1792 2688 
C 1984 2688 2643 2585 2643 1376 
C 2643 108 1888 38 1734 38 
C 1536 38 1248 114 1043 486 
C 973 608 973 621 973 735 
L 973 2004 
z
" transform="scale(0.015625)"/>
      </defs>
      <use xlink:href="#CMMI12-1c" transform="scale(0.996264)"/>
      <use xlink:href="#CMR17-66" transform="translate(42.363841 -14.943915) scale(0.697382)"/>
      <use xlink:href="#CMR17-62" transform="translate(61.595205 -14.943915) scale(0.697382)"/>
      <use xlink:href="#CMMI12-3b" transform="translate(97.221813 -14.943915) scale(0.697382)"/>
      <use xlink:href="#CMR17-31" transform="translate(116.189746 -14.943915) scale(0.697382)"/>
     </g>
    </g>
    <g id="line2d_34">
     <path d="M 222.63732 189.756932 
L 232.63732 189.756932 
L 242.63732 189.756932 
" style="fill: none; stroke: #ff7f0e; stroke-width: 1.5; stroke-linecap: square"/>
     <g>
      <use xlink:href="#m97e2cea3d1" x="232.63732" y="189.756932" style="fill: #ff7f0e; stroke: #ff7f0e; stroke-linejoin: miter"/>
     </g>
    </g>
    <g id="text_18">
     <!-- $\tau_{\mathrm{fb},2}$ -->
     <g transform="translate(250.63732 193.256932) scale(0.1 -0.1)">
      <use xlink:href="#CMMI12-1c" transform="scale(0.996264)"/>
      <use xlink:href="#CMR17-66" transform="translate(42.363841 -14.943915) scale(0.697382)"/>
      <use xlink:href="#CMR17-62" transform="translate(61.595205 -14.943915) scale(0.697382)"/>
      <use xlink:href="#CMMI12-3b" transform="translate(97.221813 -14.943915) scale(0.697382)"/>
      <use xlink:href="#CMR17-32" transform="translate(116.189746 -14.943915) scale(0.697382)"/>
     </g>
    </g>
    <g id="line2d_35">
     <path d="M 222.63732 204.607327 
L 232.63732 204.607327 
L 242.63732 204.607327 
" style="fill: none; stroke: #1f77b4; stroke-width: 2; stroke-linecap: square"/>
    </g>
    <g id="text_19">
     <!-- $\tau_1$ -->
     <g transform="translate(250.63732 208.107327) scale(0.1 -0.1)">
      <use xlink:href="#CMMI12-1c" transform="scale(0.996264)"/>
      <use xlink:href="#CMR17-31" transform="translate(42.363841 -14.943915) scale(0.697382)"/>
     </g>
    </g>
    <g id="line2d_36">
     <path d="M 222.63732 218.544505 
L 232.63732 218.544505 
L 242.63732 218.544505 
" style="fill: none; stroke: #ff7f0e; stroke-width: 2; stroke-linecap: square"/>
    </g>
    <g id="text_20">
     <!-- $\tau_2$ -->
     <g transform="translate(250.63732 222.044505) scale(0.1 -0.1)">
      <use xlink:href="#CMMI12-1c" transform="scale(0.996264)"/>
      <use xlink:href="#CMR17-32" transform="translate(42.363841 -14.943915) scale(0.697382)"/>
     </g>
    </g>
   </g>
  </g>
 </g>
 <defs>
  <clipPath id="p85231e10a4">
   <rect x="57.222798" y="10.8" width="219.977202" height="222.181683"/>
  </clipPath>
 </defs>
</svg>
