<?xml version="1.0" encoding="utf-8" standalone="no"?>
<!DOCTYPE svg PUBLIC "-//W3C//DTD SVG 1.1//EN"
  "http://www.w3.org/Graphics/SVG/1.1/DTD/svg11.dtd">
<svg xmlns:xlink="http://www.w3.org/1999/xlink" width="360pt" height="194.4pt" viewBox="0 0 360 194.4" xmlns="http://www.w3.org/2000/svg" version="1.1">
 <metadata>
  <rdf:RDF xmlns:dc="http://purl.org/dc/elements/1.1/" xmlns:cc="http://creativecommons.org/ns#" xmlns:rdf="http://www.w3.org/1999/02/22-rdf-syntax-ns#">
   <cc:Work>
    <dc:type rdf:resource="http://purl.org/dc/dcmitype/StillImage"/>
    <dc:date>2024-10-29T16:35:02.933274</dc:date>
    <dc:format>image/svg+xml</dc:format>
    <dc:creator>
     <cc:Agent>
      <dc:title>Matplotlib v3.9.2, https://matplotlib.org/</dc:title>
     </cc:Agent>
    </dc:creator>
   </cc:Work>
  </rdf:RDF>
 </metadata>
 <defs>
  <style type="text/css">*{stroke-linejoin: round; stroke-linecap: butt}</style>
 </defs>
 <g id="figure_1">
  <g id="patch_1">
   <path d="M 0 194.4 
L 360 194.4 
L 360 0 
L 0 0 
z
" style="fill: #ffffff"/>
  </g>
  <g id="axes_1">
   <g id="patch_2">
    <path d="M 49.474054 153.781683 
L 349.2 153.781683 
L 349.2 12.14119 
L 49.474054 12.14119 
z
" style="fill: #ffffff"/>
   </g>
   <g id="matplotlib.axis_1">
    <g id="xtick_1">
     <g id="line2d_1">
      <path d="M 63.097961 153.781683 
L 63.097961 12.14119 
" clip-path="url(#pb3c6655be4)" style="fill: none; stroke: #b0b0b0; stroke-width: 0.8; stroke-linecap: square"/>
     </g>
     <g id="line2d_2">
      <defs>
       <path id="m7a5b730fa7" d="M 0 0 
L 0 3.5 
" style="stroke: #000000; stroke-width: 0.8"/>
      </defs>
      <g>
       <use xlink:href="#m7a5b730fa7" x="63.097961" y="153.781683" style="stroke: #000000; stroke-width: 0.8"/>
      </g>
     </g>
     <g id="text_1">
      <!-- $\mathdefault{0}$ -->
      <g transform="translate(60.607293 167.700182) scale(0.1 -0.1)">
       <defs>
        <path id="CMR17-30" d="M 2688 2025 
C 2688 2416 2682 3080 2413 3591 
C 2176 4039 1798 4198 1466 4198 
C 1158 4198 768 4058 525 3597 
C 269 3118 243 2524 243 2025 
C 243 1661 250 1106 448 619 
C 723 -39 1216 -128 1466 -128 
C 1760 -128 2208 -7 2470 600 
C 2662 1042 2688 1559 2688 2025 
z
M 1466 -26 
C 1056 -26 813 325 723 812 
C 653 1188 653 1738 653 2096 
C 653 2588 653 2997 736 3387 
C 858 3929 1216 4096 1466 4096 
C 1728 4096 2067 3923 2189 3400 
C 2272 3036 2278 2607 2278 2096 
C 2278 1680 2278 1169 2202 792 
C 2067 95 1690 -26 1466 -26 
z
" transform="scale(0.015625)"/>
       </defs>
       <use xlink:href="#CMR17-30" transform="scale(0.996264)"/>
      </g>
     </g>
    </g>
    <g id="xtick_2">
     <g id="line2d_3">
      <path d="M 102.023408 153.781683 
L 102.023408 12.14119 
" clip-path="url(#pb3c6655be4)" style="fill: none; stroke: #b0b0b0; stroke-width: 0.8; stroke-linecap: square"/>
     </g>
     <g id="line2d_4">
      <g>
       <use xlink:href="#m7a5b730fa7" x="102.023408" y="153.781683" style="stroke: #000000; stroke-width: 0.8"/>
      </g>
     </g>
     <g id="text_2">
      <!-- $\mathdefault{5}$ -->
      <g transform="translate(99.532741 167.700182) scale(0.1 -0.1)">
       <defs>
        <path id="CMR17-35" d="M 730 3692 
C 794 3666 1056 3584 1325 3584 
C 1920 3584 2246 3911 2432 4100 
C 2432 4157 2432 4192 2394 4192 
C 2387 4192 2374 4192 2323 4163 
C 2099 4058 1837 3973 1517 3973 
C 1325 3973 1037 3999 723 4139 
C 653 4171 640 4171 634 4171 
C 602 4171 595 4164 595 4037 
L 595 2203 
C 595 2089 595 2057 659 2057 
C 691 2057 704 2070 736 2114 
C 941 2401 1222 2522 1542 2522 
C 1766 2522 2246 2382 2246 1289 
C 2246 1085 2246 715 2054 421 
C 1894 159 1645 25 1370 25 
C 947 25 518 320 403 814 
C 429 807 480 795 506 795 
C 589 795 749 840 749 1038 
C 749 1210 627 1280 506 1280 
C 358 1280 262 1190 262 1011 
C 262 454 704 -128 1382 -128 
C 2042 -128 2669 440 2669 1264 
C 2669 2030 2170 2624 1549 2624 
C 1222 2624 947 2503 730 2274 
L 730 3692 
z
" transform="scale(0.015625)"/>
       </defs>
       <use xlink:href="#CMR17-35" transform="scale(0.996264)"/>
      </g>
     </g>
    </g>
    <g id="xtick_3">
     <g id="line2d_5">
      <path d="M 140.948856 153.781683 
L 140.948856 12.14119 
" clip-path="url(#pb3c6655be4)" style="fill: none; stroke: #b0b0b0; stroke-width: 0.8; stroke-linecap: square"/>
     </g>
     <g id="line2d_6">
      <g>
       <use xlink:href="#m7a5b730fa7" x="140.948856" y="153.781683" style="stroke: #000000; stroke-width: 0.8"/>
      </g>
     </g>
     <g id="text_3">
      <!-- $\mathdefault{10}$ -->
      <g transform="translate(135.967521 167.700182) scale(0.1 -0.1)">
       <defs>
        <path id="CMR17-31" d="M 1702 4058 
C 1702 4192 1696 4192 1606 4192 
C 1357 3916 979 3827 621 3827 
C 602 3827 570 3827 563 3808 
C 557 3795 557 3782 557 3648 
C 755 3648 1088 3686 1344 3839 
L 1344 461 
C 1344 236 1331 160 781 160 
L 589 160 
L 589 0 
C 896 0 1216 0 1523 0 
C 1830 0 2150 0 2458 0 
L 2458 160 
L 2266 160 
C 1715 160 1702 230 1702 458 
L 1702 4058 
z
" transform="scale(0.015625)"/>
       </defs>
       <use xlink:href="#CMR17-31" transform="scale(0.996264)"/>
       <use xlink:href="#CMR17-30" transform="translate(45.690477 0) scale(0.996264)"/>
      </g>
     </g>
    </g>
    <g id="xtick_4">
     <g id="line2d_7">
      <path d="M 179.874303 153.781683 
L 179.874303 12.14119 
" clip-path="url(#pb3c6655be4)" style="fill: none; stroke: #b0b0b0; stroke-width: 0.8; stroke-linecap: square"/>
     </g>
     <g id="line2d_8">
      <g>
       <use xlink:href="#m7a5b730fa7" x="179.874303" y="153.781683" style="stroke: #000000; stroke-width: 0.8"/>
      </g>
     </g>
     <g id="text_4">
      <!-- $\mathdefault{15}$ -->
      <g transform="translate(174.892968 167.700182) scale(0.1 -0.1)">
       <use xlink:href="#CMR17-31" transform="scale(0.996264)"/>
       <use xlink:href="#CMR17-35" transform="translate(45.690477 0) scale(0.996264)"/>
      </g>
     </g>
    </g>
    <g id="xtick_5">
     <g id="line2d_9">
      <path d="M 218.799751 153.781683 
L 218.799751 12.14119 
" clip-path="url(#pb3c6655be4)" style="fill: none; stroke: #b0b0b0; stroke-width: 0.8; stroke-linecap: square"/>
     </g>
     <g id="line2d_10">
      <g>
       <use xlink:href="#m7a5b730fa7" x="218.799751" y="153.781683" style="stroke: #000000; stroke-width: 0.8"/>
      </g>
     </g>
     <g id="text_5">
      <!-- $\mathdefault{20}$ -->
      <g transform="translate(213.818416 167.700182) scale(0.1 -0.1)">
       <defs>
        <path id="CMR17-32" d="M 2669 989 
L 2554 989 
C 2490 536 2438 459 2413 420 
C 2381 369 1920 369 1830 369 
L 602 369 
C 832 619 1280 1072 1824 1597 
C 2214 1967 2669 2402 2669 3035 
C 2669 3790 2067 4224 1395 4224 
C 691 4224 262 3604 262 3030 
C 262 2780 448 2748 525 2748 
C 589 2748 781 2787 781 3010 
C 781 3207 614 3264 525 3264 
C 486 3264 448 3258 422 3245 
C 544 3790 915 4058 1306 4058 
C 1862 4058 2227 3617 2227 3035 
C 2227 2479 1901 2000 1536 1584 
L 262 146 
L 262 0 
L 2515 0 
L 2669 989 
z
" transform="scale(0.015625)"/>
       </defs>
       <use xlink:href="#CMR17-32" transform="scale(0.996264)"/>
       <use xlink:href="#CMR17-30" transform="translate(45.690477 0) scale(0.996264)"/>
      </g>
     </g>
    </g>
    <g id="xtick_6">
     <g id="line2d_11">
      <path d="M 257.725198 153.781683 
L 257.725198 12.14119 
" clip-path="url(#pb3c6655be4)" style="fill: none; stroke: #b0b0b0; stroke-width: 0.8; stroke-linecap: square"/>
     </g>
     <g id="line2d_12">
      <g>
       <use xlink:href="#m7a5b730fa7" x="257.725198" y="153.781683" style="stroke: #000000; stroke-width: 0.8"/>
      </g>
     </g>
     <g id="text_6">
      <!-- $\mathdefault{25}$ -->
      <g transform="translate(252.743863 167.700182) scale(0.1 -0.1)">
       <use xlink:href="#CMR17-32" transform="scale(0.996264)"/>
       <use xlink:href="#CMR17-35" transform="translate(45.690477 0) scale(0.996264)"/>
      </g>
     </g>
    </g>
    <g id="xtick_7">
     <g id="line2d_13">
      <path d="M 296.650646 153.781683 
L 296.650646 12.14119 
" clip-path="url(#pb3c6655be4)" style="fill: none; stroke: #b0b0b0; stroke-width: 0.8; stroke-linecap: square"/>
     </g>
     <g id="line2d_14">
      <g>
       <use xlink:href="#m7a5b730fa7" x="296.650646" y="153.781683" style="stroke: #000000; stroke-width: 0.8"/>
      </g>
     </g>
     <g id="text_7">
      <!-- $\mathdefault{30}$ -->
      <g transform="translate(291.669311 167.700182) scale(0.1 -0.1)">
       <defs>
        <path id="CMR17-33" d="M 1414 2157 
C 1984 2157 2234 1662 2234 1090 
C 2234 320 1824 25 1453 25 
C 1114 25 563 194 390 693 
C 422 680 454 680 486 680 
C 640 680 755 782 755 948 
C 755 1133 614 1216 486 1216 
C 378 1216 211 1165 211 926 
C 211 335 787 -128 1466 -128 
C 2176 -128 2720 430 2720 1085 
C 2720 1707 2208 2157 1600 2227 
C 2086 2328 2554 2756 2554 3329 
C 2554 3820 2048 4179 1472 4179 
C 890 4179 378 3829 378 3329 
C 378 3110 544 3072 627 3072 
C 762 3072 877 3155 877 3321 
C 877 3486 762 3569 627 3569 
C 602 3569 570 3569 544 3557 
C 730 3959 1235 4032 1459 4032 
C 1683 4032 2106 3925 2106 3320 
C 2106 3143 2080 2828 1862 2550 
C 1670 2304 1453 2304 1242 2284 
C 1210 2284 1062 2269 1037 2269 
C 992 2263 966 2257 966 2208 
C 966 2163 973 2157 1101 2157 
L 1414 2157 
z
" transform="scale(0.015625)"/>
       </defs>
       <use xlink:href="#CMR17-33" transform="scale(0.996264)"/>
       <use xlink:href="#CMR17-30" transform="translate(45.690477 0) scale(0.996264)"/>
      </g>
     </g>
    </g>
    <g id="xtick_8">
     <g id="line2d_15">
      <path d="M 335.576093 153.781683 
L 335.576093 12.14119 
" clip-path="url(#pb3c6655be4)" style="fill: none; stroke: #b0b0b0; stroke-width: 0.8; stroke-linecap: square"/>
     </g>
     <g id="line2d_16">
      <g>
       <use xlink:href="#m7a5b730fa7" x="335.576093" y="153.781683" style="stroke: #000000; stroke-width: 0.8"/>
      </g>
     </g>
     <g id="text_8">
      <!-- $\mathdefault{35}$ -->
      <g transform="translate(330.594758 167.700182) scale(0.1 -0.1)">
       <use xlink:href="#CMR17-33" transform="scale(0.996264)"/>
       <use xlink:href="#CMR17-35" transform="translate(45.690477 0) scale(0.996264)"/>
      </g>
     </g>
    </g>
    <g id="text_9">
     <!-- Time $t$ [s] -->
     <g transform="translate(178.138719 181.10934) scale(0.1 -0.1)">
      <defs>
       <path id="CMR17-54" d="M 3981 4326 
L 288 4326 
L 179 2918 
L 294 2918 
C 378 3976 467 4160 1453 4160 
C 1568 4160 1754 4160 1805 4154 
C 1926 4135 1926 4058 1926 3912 
L 1926 459 
C 1926 230 1907 160 1376 160 
L 1197 160 
L 1197 0 
C 1504 0 1824 0 2138 0 
C 2451 0 2771 0 3078 0 
L 3078 160 
L 2899 160 
C 2368 160 2349 230 2349 459 
L 2349 3912 
C 2349 4052 2349 4129 2464 4154 
C 2515 4160 2701 4160 2816 4160 
C 3795 4160 3891 3976 3974 2918 
L 4090 2918 
L 3981 4326 
z
" transform="scale(0.015625)"/>
       <path id="CMR17-69" d="M 992 3909 
C 992 4049 877 4170 730 4170 
C 589 4170 467 4056 467 3909 
C 467 3769 582 3648 730 3648 
C 870 3648 992 3763 992 3909 
z
M 243 2706 
L 243 2541 
C 602 2541 653 2502 653 2197 
L 653 427 
C 653 184 627 153 218 153 
L 218 -13 
C 371 0 646 0 806 0 
C 960 0 1222 0 1370 -13 
L 1370 153 
C 992 153 979 191 979 420 
L 979 2776 
L 243 2706 
z
" transform="scale(0.015625)"/>
       <path id="CMR17-6d" d="M 4326 1933 
C 4326 2252 4269 2790 3507 2790 
C 3072 2790 2771 2496 2656 2151 
L 2650 2151 
C 2573 2676 2195 2790 1837 2790 
C 1331 2790 1069 2400 973 2144 
L 966 2144 
L 966 2790 
L 211 2720 
L 211 2554 
C 589 2554 646 2515 646 2208 
L 646 428 
C 646 184 621 153 211 153 
L 211 -13 
C 365 0 646 0 813 0 
C 979 0 1267 0 1421 -13 
L 1421 153 
C 1011 153 986 178 986 428 
L 986 1658 
C 986 2247 1344 2688 1792 2688 
C 2266 2688 2317 2266 2317 1958 
L 2317 428 
C 2317 184 2291 153 1882 153 
L 1882 -13 
C 2035 0 2317 0 2483 0 
C 2650 0 2938 0 3091 -13 
L 3091 153 
C 2682 153 2656 178 2656 428 
L 2656 1658 
C 2656 2247 3014 2688 3462 2688 
C 3936 2688 3987 2266 3987 1958 
L 3987 428 
C 3987 184 3962 153 3552 153 
L 3552 -13 
C 3706 0 3987 0 4154 0 
C 4320 0 4608 0 4762 -13 
L 4762 153 
C 4352 153 4326 178 4326 428 
L 4326 1933 
z
" transform="scale(0.015625)"/>
       <path id="CMR17-65" d="M 2438 1472 
C 2464 1498 2464 1511 2464 1576 
C 2464 2238 2118 2816 1389 2816 
C 710 2816 173 2169 173 1383 
C 173 551 781 -64 1459 -64 
C 2176 -64 2458 607 2458 740 
C 2458 784 2419 784 2406 784 
C 2362 784 2355 771 2330 696 
C 2189 265 1837 51 1504 51 
C 1229 51 954 203 781 480 
C 582 803 582 1176 582 1472 
L 2438 1472 
z
M 589 1568 
C 634 2505 1126 2714 1382 2714 
C 1818 2714 2112 2297 2118 1568 
L 589 1568 
z
" transform="scale(0.015625)"/>
       <path id="CMMI12-74" d="M 1286 2566 
L 1875 2566 
C 1997 2566 2061 2566 2061 2681 
C 2061 2752 2022 2752 1894 2752 
L 1331 2752 
L 1568 3692 
C 1594 3781 1594 3794 1594 3840 
C 1594 3943 1510 4000 1427 4000 
C 1376 4000 1229 3981 1178 3775 
L 928 2752 
L 326 2752 
C 198 2752 141 2752 141 2630 
C 141 2566 186 2566 307 2566 
L 877 2566 
L 454 881 
C 403 658 384 594 384 511 
C 384 211 595 -64 954 -64 
C 1600 -64 1946 868 1946 912 
C 1946 951 1920 970 1882 970 
C 1869 970 1843 970 1830 944 
C 1824 938 1818 931 1773 829 
C 1638 511 1344 64 973 64 
C 781 64 768 224 768 364 
C 768 370 768 492 787 568 
L 1286 2566 
z
" transform="scale(0.015625)"/>
       <path id="CMR17-5b" d="M 1504 -1600 
L 1504 -1377 
L 902 -1377 
L 902 4544 
L 1504 4544 
L 1504 4767 
L 678 4767 
L 678 -1600 
L 1504 -1600 
z
" transform="scale(0.015625)"/>
       <path id="CMR17-73" d="M 1978 2697 
C 1978 2813 1971 2819 1933 2819 
C 1907 2819 1901 2813 1824 2717 
C 1805 2691 1747 2626 1728 2601 
C 1523 2819 1235 2819 1126 2819 
C 416 2819 160 2447 160 2076 
C 160 1498 813 1365 998 1325 
C 1402 1243 1542 1217 1677 1101 
C 1760 1025 1901 884 1901 654 
C 1901 384 1747 38 1158 38 
C 602 38 403 460 288 1021 
C 269 1110 269 1117 218 1117 
C 166 1117 160 1110 160 983 
L 160 63 
C 160 -51 166 -58 205 -58 
C 237 -58 243 -51 275 0 
C 314 57 410 211 448 276 
C 576 103 800 -64 1158 -64 
C 1792 -64 2131 283 2131 784 
C 2131 1112 1958 1285 1875 1362 
C 1683 1561 1459 1606 1190 1657 
C 838 1735 390 1825 390 2217 
C 390 2383 480 2737 1126 2737 
C 1811 2737 1850 2094 1862 1888 
C 1869 1856 1901 1849 1920 1849 
C 1978 1849 1978 1869 1978 1978 
L 1978 2697 
z
" transform="scale(0.015625)"/>
       <path id="CMR17-5d" d="M 915 4767 
L 90 4767 
L 90 4544 
L 691 4544 
L 691 -1377 
L 90 -1377 
L 90 -1600 
L 915 -1600 
L 915 4767 
z
" transform="scale(0.015625)"/>
      </defs>
      <use xlink:href="#CMR17-54" transform="scale(0.996264)"/>
      <use xlink:href="#CMR17-69" transform="translate(66.509881 0) scale(0.996264)"/>
      <use xlink:href="#CMR17-6d" transform="translate(91.380939 0) scale(0.996264)"/>
      <use xlink:href="#CMR17-65" transform="translate(168.300529 0) scale(0.996264)"/>
      <use xlink:href="#CMMI12-74" transform="translate(238.862156 0) scale(0.996264)"/>
      <use xlink:href="#CMR17-5b" transform="translate(304.164452 0) scale(0.996264)"/>
      <use xlink:href="#CMR17-73" transform="translate(329.035511 0) scale(0.996264)"/>
      <use xlink:href="#CMR17-5d" transform="translate(364.836848 0) scale(0.996264)"/>
     </g>
    </g>
   </g>
   <g id="matplotlib.axis_2">
    <g id="ytick_1">
     <g id="line2d_17">
      <path d="M 49.474054 124.649751 
L 349.2 124.649751 
" clip-path="url(#pb3c6655be4)" style="fill: none; stroke: #b0b0b0; stroke-width: 0.8; stroke-linecap: square"/>
     </g>
     <g id="line2d_18">
      <defs>
       <path id="mcfedfe5b56" d="M 0 0 
L -3.5 0 
" style="stroke: #000000; stroke-width: 0.8"/>
      </defs>
      <g>
       <use xlink:href="#mcfedfe5b56" x="49.474054" y="124.649751" style="stroke: #000000; stroke-width: 0.8"/>
      </g>
     </g>
     <g id="text_10">
      <!-- $\mathdefault{−20}$ -->
      <g transform="translate(24.76264 128.109) scale(0.1 -0.1)">
       <defs>
        <path id="CMSY10-0" d="M 4218 1472 
C 4326 1472 4442 1472 4442 1600 
C 4442 1728 4326 1728 4218 1728 
L 755 1728 
C 646 1728 531 1728 531 1600 
C 531 1472 646 1472 755 1472 
L 4218 1472 
z
" transform="scale(0.015625)"/>
       </defs>
       <use xlink:href="#CMSY10-0" transform="scale(0.996264)"/>
       <use xlink:href="#CMR17-32" transform="translate(77.487468 0) scale(0.996264)"/>
       <use xlink:href="#CMR17-30" transform="translate(123.177945 0) scale(0.996264)"/>
      </g>
     </g>
    </g>
    <g id="ytick_2">
     <g id="line2d_19">
      <path d="M 49.474054 87.81496 
L 349.2 87.81496 
" clip-path="url(#pb3c6655be4)" style="fill: none; stroke: #b0b0b0; stroke-width: 0.8; stroke-linecap: square"/>
     </g>
     <g id="line2d_20">
      <g>
       <use xlink:href="#mcfedfe5b56" x="49.474054" y="87.81496" style="stroke: #000000; stroke-width: 0.8"/>
      </g>
     </g>
     <g id="text_11">
      <!-- $\mathdefault{0}$ -->
      <g transform="translate(37.492719 91.274209) scale(0.1 -0.1)">
       <use xlink:href="#CMR17-30" transform="scale(0.996264)"/>
      </g>
     </g>
    </g>
    <g id="ytick_3">
     <g id="line2d_21">
      <path d="M 49.474054 50.980169 
L 349.2 50.980169 
" clip-path="url(#pb3c6655be4)" style="fill: none; stroke: #b0b0b0; stroke-width: 0.8; stroke-linecap: square"/>
     </g>
     <g id="line2d_22">
      <g>
       <use xlink:href="#mcfedfe5b56" x="49.474054" y="50.980169" style="stroke: #000000; stroke-width: 0.8"/>
      </g>
     </g>
     <g id="text_12">
      <!-- $\mathdefault{20}$ -->
      <g transform="translate(32.511384 54.439418) scale(0.1 -0.1)">
       <use xlink:href="#CMR17-32" transform="scale(0.996264)"/>
       <use xlink:href="#CMR17-30" transform="translate(45.690477 0) scale(0.996264)"/>
      </g>
     </g>
    </g>
    <g id="ytick_4">
     <g id="line2d_23">
      <path d="M 49.474054 14.145378 
L 349.2 14.145378 
" clip-path="url(#pb3c6655be4)" style="fill: none; stroke: #b0b0b0; stroke-width: 0.8; stroke-linecap: square"/>
     </g>
     <g id="line2d_24">
      <g>
       <use xlink:href="#mcfedfe5b56" x="49.474054" y="14.145378" style="stroke: #000000; stroke-width: 0.8"/>
      </g>
     </g>
     <g id="text_13">
      <!-- $\mathdefault{40}$ -->
      <g transform="translate(32.511384 17.604628) scale(0.1 -0.1)">
       <defs>
        <path id="CMR17-34" d="M 2150 4122 
C 2150 4256 2144 4256 2029 4256 
L 128 1254 
L 128 1088 
L 1779 1088 
L 1779 457 
C 1779 224 1766 160 1318 160 
L 1197 160 
L 1197 0 
C 1402 0 1747 0 1965 0 
C 2182 0 2528 0 2733 0 
L 2733 160 
L 2611 160 
C 2163 160 2150 224 2150 457 
L 2150 1088 
L 2803 1088 
L 2803 1254 
L 2150 1254 
L 2150 4122 
z
M 1798 3703 
L 1798 1254 
L 256 1254 
L 1798 3703 
z
" transform="scale(0.015625)"/>
       </defs>
       <use xlink:href="#CMR17-34" transform="scale(0.996264)"/>
       <use xlink:href="#CMR17-30" transform="translate(45.690477 0) scale(0.996264)"/>
      </g>
     </g>
    </g>
    <g id="text_14">
     <!-- Bending strain $\kappa_\mathrm{be}$ [rad/m] -->
     <g transform="translate(18.27198 142.172402) rotate(-90) scale(0.1 -0.1)">
      <defs>
       <path id="CMR17-42" d="M 333 4352 
L 333 4186 
C 774 4186 845 4186 845 3900 
L 845 452 
C 845 166 774 166 333 166 
L 333 0 
L 2534 0 
C 3354 0 3885 583 3885 1164 
C 3885 1741 3360 2233 2675 2233 
C 3290 2356 3718 2771 3718 3264 
C 3718 3802 3194 4352 2368 4352 
L 333 4352 
z
M 1248 2304 
L 1248 3937 
C 1248 4155 1261 4186 1517 4186 
L 2336 4186 
C 2970 4186 3251 3674 3251 3277 
C 3251 2791 2861 2304 2170 2304 
L 1248 2304 
z
M 1517 166 
C 1261 166 1248 197 1248 413 
L 1248 2202 
L 2432 2202 
C 3091 2202 3411 1625 3411 1162 
C 3411 699 3046 166 2349 166 
L 1517 166 
z
" transform="scale(0.015625)"/>
       <path id="CMR17-6e" d="M 2656 1933 
C 2656 2259 2592 2790 1837 2790 
C 1331 2790 1069 2400 973 2144 
L 966 2144 
L 966 2790 
L 211 2720 
L 211 2554 
C 589 2554 646 2515 646 2208 
L 646 428 
C 646 184 621 153 211 153 
L 211 -13 
C 365 0 646 0 813 0 
C 979 0 1267 0 1421 -13 
L 1421 153 
C 1011 153 986 178 986 428 
L 986 1658 
C 986 2247 1344 2688 1792 2688 
C 2266 2688 2317 2266 2317 1958 
L 2317 428 
C 2317 184 2291 153 1882 153 
L 1882 -13 
C 2035 0 2317 0 2483 0 
C 2650 0 2938 0 3091 -13 
L 3091 153 
C 2682 153 2656 178 2656 428 
L 2656 1933 
z
" transform="scale(0.015625)"/>
       <path id="CMR17-64" d="M 1869 4326 
L 1869 4160 
C 2246 4160 2304 4122 2304 3820 
L 2304 2345 
C 2278 2377 2016 2790 1498 2790 
C 845 2790 211 2208 211 1364 
C 211 525 806 -64 1434 -64 
C 1978 -64 2259 337 2291 380 
L 2291 -63 
L 3066 -63 
L 3066 128 
C 2688 128 2630 166 2630 473 
L 2630 4396 
L 1869 4326 
z
M 2291 755 
C 2291 563 2176 390 2029 262 
C 1811 70 1594 38 1472 38 
C 1286 38 621 134 621 1356 
C 621 2612 1363 2688 1530 2688 
C 1824 2688 2061 2522 2208 2291 
C 2291 2157 2291 2138 2291 2023 
L 2291 755 
z
" transform="scale(0.015625)"/>
       <path id="CMR17-67" d="M 710 1164 
C 832 1068 1043 960 1299 960 
C 1805 960 2240 1357 2240 1888 
C 2240 2054 2189 2310 1997 2509 
C 2176 2692 2438 2752 2586 2752 
C 2611 2752 2650 2752 2682 2734 
C 2656 2728 2598 2703 2598 2605 
C 2598 2527 2656 2471 2739 2471 
C 2835 2471 2886 2533 2886 2614 
C 2886 2731 2790 2854 2586 2854 
C 2330 2854 2106 2738 1926 2580 
C 1734 2753 1504 2816 1299 2816 
C 794 2816 358 2419 358 1888 
C 358 1522 570 1292 634 1228 
C 442 1004 442 743 442 711 
C 442 545 506 302 723 168 
C 390 85 128 -169 128 -486 
C 128 -943 736 -1280 1466 -1280 
C 2170 -1280 2803 -956 2803 -479 
C 2803 384 1856 384 1363 384 
C 1216 384 954 384 922 391 
C 723 423 589 602 589 826 
C 589 883 589 1024 710 1164 
z
M 1299 1068 
C 736 1068 736 1760 736 1889 
C 736 2016 736 2708 1299 2708 
C 1862 2708 1862 2016 1862 1889 
C 1862 1760 1862 1068 1299 1068 
z
M 1466 -1171 
C 826 -1171 384 -835 384 -486 
C 384 -289 493 -105 634 -4 
C 794 104 858 104 1293 104 
C 1818 104 2547 104 2547 -486 
C 2547 -835 2106 -1171 1466 -1171 
z
" transform="scale(0.015625)"/>
       <path id="CMR17-74" d="M 966 2560 
L 1862 2560 
L 1862 2725 
L 966 2725 
L 966 3904 
L 851 3904 
C 838 3245 614 2668 70 2668 
L 70 2560 
L 627 2560 
L 627 771 
C 627 650 627 -64 1370 -64 
C 1747 -64 1965 306 1965 777 
L 1965 1140 
L 1850 1140 
L 1850 783 
C 1850 344 1677 51 1408 51 
C 1222 51 966 178 966 758 
L 966 2560 
z
" transform="scale(0.015625)"/>
       <path id="CMR17-72" d="M 960 1497 
C 960 2112 1222 2688 1702 2688 
C 1747 2688 1792 2682 1837 2662 
C 1837 2662 1696 2617 1696 2452 
C 1696 2298 1818 2234 1914 2234 
C 1990 2234 2131 2279 2131 2458 
C 2131 2663 1926 2790 1709 2790 
C 1222 2790 1011 2317 947 2093 
L 941 2093 
L 941 2790 
L 198 2720 
L 198 2554 
C 576 2554 634 2515 634 2208 
L 634 428 
C 634 184 608 153 198 153 
L 198 -13 
C 352 0 646 0 813 0 
C 998 0 1325 0 1498 -13 
L 1498 153 
C 1037 153 960 153 960 440 
L 960 1497 
z
" transform="scale(0.015625)"/>
       <path id="CMR17-61" d="M 2304 1653 
C 2304 2072 2304 2294 2035 2543 
C 1798 2752 1523 2816 1306 2816 
C 800 2816 435 2407 435 1971 
C 435 1728 627 1728 666 1728 
C 749 1728 896 1778 896 1954 
C 896 2112 774 2181 666 2181 
C 640 2181 608 2174 589 2168 
C 723 2592 1069 2714 1293 2714 
C 1613 2714 1965 2429 1965 1885 
L 1965 1600 
C 1587 1600 1133 1549 774 1357 
C 371 1133 256 813 256 570 
C 256 77 832 -64 1171 -64 
C 1523 -64 1850 139 1990 511 
C 2003 233 2182 -18 2464 -18 
C 2598 -18 2938 70 2938 567 
L 2938 920 
L 2822 920 
L 2822 562 
C 2822 178 2650 128 2566 128 
C 2304 128 2304 458 2304 738 
L 2304 1653 
z
M 1965 870 
C 1965 317 1568 38 1216 38 
C 896 38 646 275 646 570 
C 646 761 730 1100 1101 1305 
C 1408 1478 1760 1504 1965 1504 
L 1965 870 
z
" transform="scale(0.015625)"/>
       <path id="CMMI12-14" d="M 1363 1600 
C 1574 1714 1811 1912 1971 2046 
C 2355 2377 2496 2479 2739 2574 
C 2714 2536 2707 2485 2707 2441 
C 2707 2268 2854 2236 2918 2236 
C 3123 2236 3238 2427 3238 2548 
C 3238 2586 3226 2752 3002 2752 
C 2618 2752 2240 2431 1958 2198 
C 1587 1876 1402 1738 1139 1656 
L 1382 2656 
C 1382 2759 1299 2816 1216 2816 
C 1158 2816 1018 2797 966 2592 
L 371 224 
C 352 148 352 134 352 96 
C 352 6 422 -64 518 -64 
C 710 -64 749 106 781 244 
C 819 380 1082 1472 1094 1472 
C 1907 1472 2182 1264 2182 943 
C 2182 897 2182 878 2163 806 
C 2138 682 2138 609 2138 570 
C 2138 178 2387 -64 2701 -64 
C 2963 -64 3110 123 3206 291 
C 3341 543 3424 898 3424 923 
C 3424 956 3398 981 3360 981 
C 3302 981 3296 956 3270 852 
C 3187 542 3046 64 2720 64 
C 2579 64 2509 148 2509 374 
C 2509 498 2534 641 2560 737 
C 2573 802 2592 880 2592 951 
C 2592 1541 1786 1600 1363 1600 
z
" transform="scale(0.015625)"/>
       <path id="CMR17-62" d="M 960 4396 
L 198 4326 
L 198 4160 
C 576 4160 634 4122 634 3817 
L 634 -13 
L 749 -13 
L 934 441 
C 1120 141 1395 -64 1766 -64 
C 2406 -64 3053 500 3053 1370 
C 3053 2188 2477 2790 1830 2790 
C 1434 2790 1152 2579 960 2330 
L 960 4396 
z
M 973 2004 
C 973 2118 973 2138 1062 2272 
C 1312 2657 1670 2688 1792 2688 
C 1984 2688 2643 2585 2643 1376 
C 2643 108 1888 38 1734 38 
C 1536 38 1248 114 1043 486 
C 973 608 973 621 973 735 
L 973 2004 
z
" transform="scale(0.015625)"/>
       <path id="CMR17-2f" d="M 2605 4545 
C 2637 4627 2637 4640 2637 4653 
C 2637 4729 2579 4768 2528 4768 
C 2451 4768 2426 4717 2400 4640 
L 326 -1377 
C 294 -1460 294 -1473 294 -1486 
C 294 -1562 352 -1600 403 -1600 
C 480 -1600 506 -1549 531 -1473 
L 2605 4545 
z
" transform="scale(0.015625)"/>
      </defs>
      <use xlink:href="#CMR17-42" transform="scale(0.996264)"/>
      <use xlink:href="#CMR17-65" transform="translate(65.188754 0) scale(0.996264)"/>
      <use xlink:href="#CMR17-6e" transform="translate(105.674415 0) scale(0.996264)"/>
      <use xlink:href="#CMR17-64" transform="translate(156.569785 0) scale(0.996264)"/>
      <use xlink:href="#CMR17-69" transform="translate(207.465154 0) scale(0.996264)"/>
      <use xlink:href="#CMR17-6e" transform="translate(232.336213 0) scale(0.996264)"/>
      <use xlink:href="#CMR17-67" transform="translate(283.231583 0) scale(0.996264)"/>
      <use xlink:href="#CMR17-73" transform="translate(358.998026 0) scale(0.996264)"/>
      <use xlink:href="#CMR17-74" transform="translate(394.799364 0) scale(0.996264)"/>
      <use xlink:href="#CMR17-72" transform="translate(430.080132 0) scale(0.996264)"/>
      <use xlink:href="#CMR17-61" transform="translate(465.360899 0) scale(0.996264)"/>
      <use xlink:href="#CMR17-69" transform="translate(511.051377 0) scale(0.996264)"/>
      <use xlink:href="#CMR17-6e" transform="translate(535.922435 0) scale(0.996264)"/>
      <use xlink:href="#CMMI12-14" transform="translate(616.893771 0) scale(0.996264)"/>
      <use xlink:href="#CMR17-62" transform="translate(673.048395 -14.943915) scale(0.697382)"/>
      <use xlink:href="#CMR17-65" transform="translate(710.496709 -14.943915) scale(0.697382)"/>
      <use xlink:href="#CMR17-5b" transform="translate(769.410639 0) scale(0.996264)"/>
      <use xlink:href="#CMR17-72" transform="translate(794.281698 0) scale(0.996264)"/>
      <use xlink:href="#CMR17-61" transform="translate(829.562465 0) scale(0.996264)"/>
      <use xlink:href="#CMR17-64" transform="translate(875.252942 0) scale(0.996264)"/>
      <use xlink:href="#CMR17-2f" transform="translate(926.148312 0) scale(0.996264)"/>
      <use xlink:href="#CMR17-6d" transform="translate(971.838789 0) scale(0.996264)"/>
      <use xlink:href="#CMR17-5d" transform="translate(1048.758379 0) scale(0.996264)"/>
     </g>
    </g>
   </g>
   <g id="line2d_25">
    <path d="M 63.097961 118.637672 
L 102.023408 118.637672 
L 102.17911 20.841828 
L 140.948856 20.841828 
L 141.104558 97.293896 
L 179.874303 97.293896 
L 180.030005 23.293032 
L 218.799751 23.293032 
L 218.955453 64.361761 
L 257.725198 64.361761 
L 257.8809 145.18556 
L 296.650646 145.18556 
L 296.806348 31.091434 
L 335.576093 31.091434 
L 335.576093 31.091434 
" clip-path="url(#pb3c6655be4)" style="fill: none; stroke-dasharray: 3.5,5.775; stroke-dashoffset: 0; stroke: #1f77b4; stroke-width: 3.5"/>
   </g>
   <g id="line2d_26">
    <path d="M 63.097961 70.198344 
L 102.023408 70.198344 
L 102.17911 97.936495 
L 140.948856 97.936495 
L 141.104558 80.315286 
L 179.874303 80.315286 
L 180.030005 98.862167 
L 218.799751 98.862167 
L 218.955453 72.099878 
L 257.725198 72.099878 
L 257.8809 79.65007 
L 296.650646 79.65007 
L 296.806348 97.126102 
L 335.576093 97.126102 
L 335.576093 97.126102 
" clip-path="url(#pb3c6655be4)" style="fill: none; stroke-dasharray: 3.5,5.775; stroke-dashoffset: 0; stroke: #ff7f0e; stroke-width: 3.5"/>
   </g>
   <g id="line2d_27">
    <path d="M 63.097961 87.81496 
L 64.032172 103.034652 
L 64.654979 109.139048 
L 65.277786 113.266546 
L 65.978444 116.452003 
L 66.679102 118.696503 
L 67.146207 119.688313 
L 67.613313 120.22375 
L 68.080418 120.43539 
L 68.547524 120.417436 
L 69.170331 120.148743 
L 70.026691 119.492542 
L 71.505858 118.250328 
L 71.972963 118.240737 
L 72.59577 118.482182 
L 73.374279 118.836539 
L 73.919235 118.760914 
L 74.853446 118.516117 
L 76.332613 118.619471 
L 76.877569 118.578604 
L 77.889631 118.657156 
L 78.590289 118.605308 
L 79.5245 118.641839 
L 80.225158 118.626152 
L 81.003667 118.643735 
L 81.860027 118.645111 
L 82.716386 118.621738 
L 84.74051 118.641089 
L 86.686782 118.644158 
L 89.333713 118.644532 
L 102.023408 118.638449 
L 102.17911 81.681937 
L 102.801917 59.706446 
L 103.424725 45.599115 
L 104.047532 36.371276 
L 104.670339 30.200301 
L 105.370997 25.531502 
L 106.071655 22.336368 
L 106.772313 20.087506 
L 107.239418 19.212193 
L 107.706524 18.749938 
L 108.173629 18.584705 
L 108.718585 18.653729 
L 109.341393 18.977436 
L 110.197752 19.693359 
L 111.988323 21.298557 
L 112.455428 21.28787 
L 113.078236 21.028354 
L 113.934595 20.612136 
L 114.479552 20.695806 
L 115.491613 20.973005 
L 116.892929 20.827774 
L 117.515737 20.910803 
L 118.6835 20.841452 
L 119.306307 20.876885 
L 120.162667 20.82153 
L 120.941176 20.858202 
L 121.797536 20.840981 
L 122.576045 20.838525 
L 123.354554 20.849071 
L 124.210914 20.825629 
L 126.157186 20.839239 
L 127.869906 20.853084 
L 133.708723 20.847976 
L 140.948856 20.844015 
L 141.104558 88.736737 
L 141.805216 92.46253 
L 142.505874 95.006536 
L 143.284383 97.04512 
L 143.829339 98.029881 
L 144.296444 98.439681 
L 144.76355 98.562274 
L 145.308506 98.453037 
L 146.009164 98.049401 
L 147.644033 96.936553 
L 148.188989 97.035672 
L 149.512454 97.454349 
L 150.91377 97.251937 
L 151.614429 97.370442 
L 152.860043 97.300083 
L 153.48285 97.325715 
L 154.33921 97.276049 
L 155.117719 97.308666 
L 155.896228 97.283523 
L 156.752588 97.290066 
L 157.531097 97.30136 
L 158.387456 97.277912 
L 160.333729 97.291552 
L 162.124299 97.305628 
L 179.874303 97.293183 
L 180.030005 81.861734 
L 180.652812 60.679808 
L 181.27562 47.055457 
L 181.898427 38.144527 
L 182.521234 32.184589 
L 183.221892 27.674096 
L 183.92255 24.581822 
L 184.623208 22.424077 
L 185.090313 21.611459 
L 185.557419 21.195345 
L 186.024524 21.064041 
L 186.56948 21.162156 
L 187.270138 21.561789 
L 188.204349 22.390815 
L 189.605665 23.709608 
L 190.072771 23.759182 
L 190.617727 23.591944 
L 191.863341 23.065842 
L 192.408298 23.22127 
L 193.031105 23.434975 
L 193.576061 23.338972 
L 194.198868 23.194222 
L 194.899526 23.34969 
L 195.444482 23.3267 
L 196.14514 23.241234 
L 197.235053 23.292189 
L 197.85786 23.267271 
L 198.71422 23.303678 
L 199.492729 23.286611 
L 200.271238 23.294845 
L 201.049747 23.295757 
L 201.906107 23.27962 
L 203.618826 23.275705 
L 207.744924 23.284622 
L 213.739443 23.289178 
L 218.799751 23.294484 
L 218.877602 86.843977 
L 218.955453 85.67187 
L 219.57826 77.638218 
L 220.201067 72.367576 
L 220.823874 68.791862 
L 221.524532 66.003358 
L 222.303041 63.84208 
L 222.770147 63.115605 
L 223.237252 62.769881 
L 223.704357 62.693164 
L 224.249314 62.840144 
L 224.949972 63.275931 
L 225.962033 64.19297 
L 226.58484 64.692512 
L 227.051946 64.766083 
L 227.596902 64.615814 
L 228.764665 64.165303 
L 229.309622 64.327799 
L 229.854578 64.487685 
L 230.399534 64.383602 
L 230.944491 64.272956 
L 233.824974 64.364223 
L 234.525632 64.351686 
L 235.304141 64.366385 
L 236.1605 64.369744 
L 237.172562 64.343083 
L 244.256994 64.356913 
L 257.725198 64.362246 
L 257.8809 93.133644 
L 258.503707 112.060245 
L 259.126515 124.229575 
L 259.749322 132.205201 
L 260.372129 137.554903 
L 261.072787 141.629567 
L 261.773445 144.447713 
L 262.396252 146.189296 
L 262.863357 146.910083 
L 263.330463 147.258948 
L 263.797568 147.342972 
L 264.342524 147.204487 
L 265.043183 146.769467 
L 266.055244 145.833447 
L 267.145157 144.80949 
L 267.612262 144.72721 
L 268.157218 144.866037 
L 269.558534 145.393309 
L 270.181342 145.158267 
L 270.648447 145.048295 
L 271.193403 145.162869 
L 271.738359 145.281914 
L 272.361167 145.148348 
L 272.906123 145.134985 
L 273.762483 145.225829 
L 274.618843 145.158844 
L 275.397352 145.209081 
L 276.253711 145.177784 
L 277.03222 145.188801 
L 277.810729 145.186951 
L 278.667089 145.172853 
L 280.301958 145.168047 
L 296.650646 145.187177 
L 296.806348 82.572549 
L 297.429155 63.830195 
L 298.051962 51.805248 
L 298.674769 43.91672 
L 299.297576 38.619559 
L 299.998234 34.582497 
L 300.698892 31.787645 
L 301.3217 30.067431 
L 301.788805 29.360858 
L 302.25591 29.022214 
L 302.723016 28.947175 
L 303.267972 29.090983 
L 303.96863 29.529352 
L 304.980692 30.465343 
L 306.070604 31.476823 
L 306.53771 31.547313 
L 307.082666 31.397108 
L 308.406131 30.878426 
L 308.951087 31.056931 
L 309.496044 31.227958 
L 310.041 31.130145 
L 310.663807 30.997914 
L 312.376527 31.033826 
L 322.574994 31.085354 
L 326.701091 31.091298 
L 331.83925 31.09294 
L 335.576093 31.090127 
L 335.576093 31.090127 
" clip-path="url(#pb3c6655be4)" style="fill: none; stroke: #1f77b4; stroke-width: 2; stroke-linecap: square"/>
   </g>
   <g id="line2d_28">
    <path d="M 63.097961 87.81496 
L 63.642917 82.080523 
L 64.343575 77.052333 
L 65.044233 73.607738 
L 65.822742 70.910555 
L 66.445549 69.390652 
L 66.912655 68.774501 
L 67.37976 68.497049 
L 67.846866 68.462161 
L 68.391822 68.639517 
L 69.170331 69.163801 
L 70.260243 70.208015 
L 70.727349 70.53887 
L 71.194454 70.608651 
L 71.73941 70.458234 
L 72.907174 70.010071 
L 73.45213 70.168222 
L 73.997086 70.311952 
L 74.542043 70.202966 
L 75.086999 70.12615 
L 76.410464 70.17374 
L 77.033271 70.193612 
L 77.733929 70.210556 
L 78.590289 70.199578 
L 79.5245 70.18375 
L 81.782176 70.207358 
L 90.190072 70.197492 
L 102.023408 70.19859 
L 102.17911 89.148227 
L 102.879768 92.782544 
L 103.658277 95.687612 
L 104.514637 97.995764 
L 104.981742 98.813509 
L 105.448848 99.23352 
L 105.915953 99.3664 
L 106.460909 99.264036 
L 107.083717 98.910116 
L 108.017927 98.100823 
L 108.640735 97.620482 
L 109.10784 97.553901 
L 109.652796 97.70908 
L 110.742709 98.124386 
L 111.287665 97.977941 
L 111.832621 97.827391 
L 112.377577 97.92532 
L 112.922534 98.007145 
L 114.32385 97.969167 
L 114.946657 97.933484 
L 115.647315 97.932526 
L 116.503675 97.927202 
L 118.294245 97.923913 
L 121.019027 97.928685 
L 128.726265 97.933425 
L 140.715303 97.937382 
L 140.948856 97.937293 
L 141.104558 87.007121 
L 141.805216 84.196806 
L 142.583725 81.918026 
L 143.440085 80.03952 
L 143.90719 79.446971 
L 144.374295 79.185755 
L 144.841401 79.163675 
L 145.386357 79.352478 
L 146.164866 79.888333 
L 147.176928 80.629927 
L 147.644033 80.643428 
L 148.26684 80.405836 
L 148.889647 80.150187 
L 149.434603 80.222597 
L 150.213112 80.415375 
L 151.77013 80.358398 
L 152.392937 80.303476 
L 153.015745 80.305281 
L 153.794254 80.318787 
L 154.650613 80.324247 
L 156.12978 80.32358 
L 158.231755 80.312121 
L 161.423641 80.310179 
L 176.371013 80.315733 
L 179.874303 80.315045 
L 180.030005 89.215423 
L 180.652812 92.790048 
L 181.431321 96.0067 
L 182.20983 98.321814 
L 182.832637 99.634287 
L 183.299743 100.135328 
L 183.766848 100.327693 
L 184.233954 100.297344 
L 184.856761 100.010776 
L 185.713121 99.334238 
L 186.725182 98.519778 
L 187.192288 98.483795 
L 187.737244 98.663906 
L 188.671455 99.05284 
L 189.216411 98.944153 
L 189.917069 98.74975 
L 190.539876 98.889257 
L 191.084832 98.919991 
L 192.019043 98.834045 
L 192.797552 98.887528 
L 193.731763 98.862391 
L 194.588123 98.852383 
L 196.378693 98.854894 
L 198.947773 98.853969 
L 209.379793 98.859681 
L 218.799751 98.862664 
L 218.955453 86.277455 
L 219.57826 80.945028 
L 220.278918 76.908051 
L 220.979576 74.127622 
L 221.758085 71.909635 
L 222.22519 71.074637 
L 222.692296 70.640806 
L 223.159401 70.498072 
L 223.704357 70.590635 
L 224.405015 70.984152 
L 225.339226 71.798412 
L 226.117735 72.434031 
L 226.58484 72.499919 
L 227.129797 72.344825 
L 228.219709 71.907273 
L 228.764665 72.041395 
L 229.387473 72.21598 
L 229.932429 72.108318 
L 230.477385 72.024637 
L 231.956552 72.063479 
L 232.735061 72.126776 
L 234.681333 72.103777 
L 236.549755 72.09335 
L 257.725198 72.100046 
L 257.803049 87.191498 
L 257.8809 86.740992 
L 258.581558 83.782674 
L 259.437918 81.11843 
L 260.294278 79.179147 
L 260.761383 78.610023 
L 261.228489 78.366567 
L 261.695594 78.358519 
L 262.24055 78.562662 
L 263.019059 79.116831 
L 264.186823 79.994861 
L 264.653928 79.994646 
L 265.276735 79.741252 
L 265.899542 79.474079 
L 266.444499 79.537546 
L 267.300858 79.753084 
L 268.780025 79.682981 
L 269.324982 79.675575 
L 270.103491 79.629006 
L 270.959851 79.65471 
L 271.81621 79.658534 
L 273.606781 79.661943 
L 276.409413 79.658882 
L 296.650646 79.650682 
L 296.806348 89.009912 
L 297.507006 92.362413 
L 298.285515 95.083993 
L 299.141875 97.279027 
L 299.60898 98.032355 
L 300.076085 98.40856 
L 300.543191 98.512365 
L 301.088147 98.387675 
L 301.788805 97.964603 
L 303.501525 96.749891 
L 304.046481 96.846776 
L 305.369946 97.296585 
L 306.849113 97.101758 
L 307.47192 97.193678 
L 308.717535 97.142806 
L 309.340342 97.139104 
L 310.118851 97.11811 
L 310.975211 97.121656 
L 312.532228 97.117046 
L 318.7603 97.126579 
L 323.898459 97.124945 
L 335.576093 97.125629 
L 335.576093 97.125629 
" clip-path="url(#pb3c6655be4)" style="fill: none; stroke: #ff7f0e; stroke-width: 2; stroke-linecap: square"/>
   </g>
   <g id="patch_3">
    <path d="M 49.474054 153.781683 
L 49.474054 12.14119 
" style="fill: none; stroke: #000000; stroke-width: 0.8; stroke-linejoin: miter; stroke-linecap: square"/>
   </g>
   <g id="patch_4">
    <path d="M 349.2 153.781683 
L 349.2 12.14119 
" style="fill: none; stroke: #000000; stroke-width: 0.8; stroke-linejoin: miter; stroke-linecap: square"/>
   </g>
   <g id="patch_5">
    <path d="M 49.474054 153.781683 
L 349.2 153.781683 
" style="fill: none; stroke: #000000; stroke-width: 0.8; stroke-linejoin: miter; stroke-linecap: square"/>
   </g>
   <g id="patch_6">
    <path d="M 49.474054 12.14119 
L 349.2 12.14119 
" style="fill: none; stroke: #000000; stroke-width: 0.8; stroke-linejoin: miter; stroke-linecap: square"/>
   </g>
   <g id="legend_1">
    <g id="patch_7">
     <path d="M 56.474054 85.113636 
L 108.708417 85.113636 
Q 110.708417 85.113636 110.708417 83.113636 
L 110.708417 19.14119 
Q 110.708417 17.14119 108.708417 17.14119 
L 56.474054 17.14119 
Q 54.474054 17.14119 54.474054 19.14119 
L 54.474054 83.113636 
Q 54.474054 85.113636 56.474054 85.113636 
z
" style="fill: #ffffff; opacity: 0.8; stroke: #cccccc; stroke-linejoin: miter"/>
    </g>
    <g id="line2d_29">
     <path d="M 58.474054 26.099492 
L 68.474054 26.099492 
L 78.474054 26.099492 
" style="fill: none; stroke-dasharray: 3.5,5.775; stroke-dashoffset: 0; stroke: #1f77b4; stroke-width: 3.5"/>
    </g>
    <g id="text_15">
     <!-- $\kappa_{\mathrm{be},1}^\mathrm{d}$ -->
     <g transform="translate(86.474054 29.599492) scale(0.1 -0.1)">
      <defs>
       <path id="CMMI12-3b" d="M 1248 -31 
C 1248 343 1126 619 864 619 
C 659 619 557 453 557 313 
C 557 172 653 0 870 0 
C 954 0 1024 26 1082 83 
C 1094 96 1101 96 1107 96 
C 1120 96 1120 5 1120 -27 
C 1120 -240 1082 -659 710 -1080 
C 640 -1157 640 -1170 640 -1183 
C 640 -1216 672 -1248 704 -1248 
C 755 -1248 1248 -771 1248 -31 
z
" transform="scale(0.015625)"/>
      </defs>
      <use xlink:href="#CMMI12-14" transform="scale(0.996264)"/>
      <use xlink:href="#CMR17-64" transform="translate(56.154624 36.153639) scale(0.697382)"/>
      <use xlink:href="#CMR17-62" transform="translate(56.154624 -28.215451) scale(0.697382)"/>
      <use xlink:href="#CMR17-65" transform="translate(93.602938 -28.215451) scale(0.697382)"/>
      <use xlink:href="#CMMI12-3b" transform="translate(121.94277 -28.215451) scale(0.697382)"/>
      <use xlink:href="#CMR17-31" transform="translate(140.910702 -28.215451) scale(0.697382)"/>
     </g>
    </g>
    <g id="line2d_30">
     <path d="M 58.474054 43.73532 
L 68.474054 43.73532 
L 78.474054 43.73532 
" style="fill: none; stroke-dasharray: 3.5,5.775; stroke-dashoffset: 0; stroke: #ff7f0e; stroke-width: 3.5"/>
    </g>
    <g id="text_16">
     <!-- $\kappa_{\mathrm{be},2}^\mathrm{d}$ -->
     <g transform="translate(86.474054 47.23532) scale(0.1 -0.1)">
      <use xlink:href="#CMMI12-14" transform="scale(0.996264)"/>
      <use xlink:href="#CMR17-64" transform="translate(56.154624 36.153639) scale(0.697382)"/>
      <use xlink:href="#CMR17-62" transform="translate(56.154624 -28.215451) scale(0.697382)"/>
      <use xlink:href="#CMR17-65" transform="translate(93.602938 -28.215451) scale(0.697382)"/>
      <use xlink:href="#CMMI12-3b" transform="translate(121.94277 -28.215451) scale(0.697382)"/>
      <use xlink:href="#CMR17-32" transform="translate(140.910702 -28.215451) scale(0.697382)"/>
     </g>
    </g>
    <g id="line2d_31">
     <path d="M 58.474054 59.912846 
L 68.474054 59.912846 
L 78.474054 59.912846 
" style="fill: none; stroke: #1f77b4; stroke-width: 2; stroke-linecap: square"/>
    </g>
    <g id="text_17">
     <!-- $\kappa_{\mathrm{be},1}$ -->
     <g transform="translate(86.474054 63.412846) scale(0.1 -0.1)">
      <use xlink:href="#CMMI12-14" transform="scale(0.996264)"/>
      <use xlink:href="#CMR17-62" transform="translate(56.154624 -14.943915) scale(0.697382)"/>
      <use xlink:href="#CMR17-65" transform="translate(93.602938 -14.943915) scale(0.697382)"/>
      <use xlink:href="#CMMI12-3b" transform="translate(121.94277 -14.943915) scale(0.697382)"/>
      <use xlink:href="#CMR17-31" transform="translate(140.910702 -14.943915) scale(0.697382)"/>
     </g>
    </g>
    <g id="line2d_32">
     <path d="M 58.474054 74.763241 
L 68.474054 74.763241 
L 78.474054 74.763241 
" style="fill: none; stroke: #ff7f0e; stroke-width: 2; stroke-linecap: square"/>
    </g>
    <g id="text_18">
     <!-- $\kappa_{\mathrm{be},2}$ -->
     <g transform="translate(86.474054 78.263241) scale(0.1 -0.1)">
      <use xlink:href="#CMMI12-14" transform="scale(0.996264)"/>
      <use xlink:href="#CMR17-62" transform="translate(56.154624 -14.943915) scale(0.697382)"/>
      <use xlink:href="#CMR17-65" transform="translate(93.602938 -14.943915) scale(0.697382)"/>
      <use xlink:href="#CMMI12-3b" transform="translate(121.94277 -14.943915) scale(0.697382)"/>
      <use xlink:href="#CMR17-32" transform="translate(140.910702 -14.943915) scale(0.697382)"/>
     </g>
    </g>
   </g>
  </g>
 </g>
 <defs>
  <clipPath id="pb3c6655be4">
   <rect x="49.474054" y="12.14119" width="299.725946" height="141.640493"/>
  </clipPath>
 </defs>
</svg>
