<?xml version="1.0" encoding="utf-8" standalone="no"?>
<!DOCTYPE svg PUBLIC "-//W3C//DTD SVG 1.1//EN"
  "http://www.w3.org/Graphics/SVG/1.1/DTD/svg11.dtd">
<svg xmlns:xlink="http://www.w3.org/1999/xlink" width="288pt" height="273.6pt" viewBox="0 0 288 273.6" xmlns="http://www.w3.org/2000/svg" version="1.1">
 <metadata>
  <rdf:RDF xmlns:dc="http://purl.org/dc/elements/1.1/" xmlns:cc="http://creativecommons.org/ns#" xmlns:rdf="http://www.w3.org/1999/02/22-rdf-syntax-ns#">
   <cc:Work>
    <dc:type rdf:resource="http://purl.org/dc/dcmitype/StillImage"/>
    <dc:date>2024-10-30T11:14:23.182117</dc:date>
    <dc:format>image/svg+xml</dc:format>
    <dc:creator>
     <cc:Agent>
      <dc:title>Matplotlib v3.9.2, https://matplotlib.org/</dc:title>
     </cc:Agent>
    </dc:creator>
   </cc:Work>
  </rdf:RDF>
 </metadata>
 <defs>
  <style type="text/css">*{stroke-linejoin: round; stroke-linecap: butt}</style>
 </defs>
 <g id="figure_1">
  <g id="patch_1">
   <path d="M 0 273.6 
L 288 273.6 
L 288 0 
L 0 0 
z
" style="fill: #ffffff"/>
  </g>
  <g id="axes_1">
   <g id="patch_2">
    <path d="M 52.241463 232.981683 
L 277.2 232.981683 
L 277.2 10.8 
L 52.241463 10.8 
z
" style="fill: #ffffff"/>
   </g>
   <g id="matplotlib.axis_1">
    <g id="xtick_1">
     <g id="line2d_1">
      <path d="M 62.466851 232.981683 
L 62.466851 10.8 
" clip-path="url(#p09b1cbf275)" style="fill: none; stroke: #b0b0b0; stroke-width: 0.8; stroke-linecap: square"/>
     </g>
     <g id="line2d_2">
      <defs>
       <path id="m71e8f1aff4" d="M 0 0 
L 0 3.5 
" style="stroke: #000000; stroke-width: 0.8"/>
      </defs>
      <g>
       <use xlink:href="#m71e8f1aff4" x="62.466851" y="232.981683" style="stroke: #000000; stroke-width: 0.8"/>
      </g>
     </g>
     <g id="text_1">
      <!-- $\mathdefault{0}$ -->
      <g transform="translate(59.976183 246.900182) scale(0.1 -0.1)">
       <defs>
        <path id="CMR17-30" d="M 2688 2025 
C 2688 2416 2682 3080 2413 3591 
C 2176 4039 1798 4198 1466 4198 
C 1158 4198 768 4058 525 3597 
C 269 3118 243 2524 243 2025 
C 243 1661 250 1106 448 619 
C 723 -39 1216 -128 1466 -128 
C 1760 -128 2208 -7 2470 600 
C 2662 1042 2688 1559 2688 2025 
z
M 1466 -26 
C 1056 -26 813 325 723 812 
C 653 1188 653 1738 653 2096 
C 653 2588 653 2997 736 3387 
C 858 3929 1216 4096 1466 4096 
C 1728 4096 2067 3923 2189 3400 
C 2272 3036 2278 2607 2278 2096 
C 2278 1680 2278 1169 2202 792 
C 2067 95 1690 -26 1466 -26 
z
" transform="scale(0.015625)"/>
       </defs>
       <use xlink:href="#CMR17-30" transform="scale(0.996264)"/>
      </g>
     </g>
    </g>
    <g id="xtick_2">
     <g id="line2d_3">
      <path d="M 120.89764 232.981683 
L 120.89764 10.8 
" clip-path="url(#p09b1cbf275)" style="fill: none; stroke: #b0b0b0; stroke-width: 0.8; stroke-linecap: square"/>
     </g>
     <g id="line2d_4">
      <g>
       <use xlink:href="#m71e8f1aff4" x="120.89764" y="232.981683" style="stroke: #000000; stroke-width: 0.8"/>
      </g>
     </g>
     <g id="text_2">
      <!-- $\mathdefault{10}$ -->
      <g transform="translate(115.916304 246.900182) scale(0.1 -0.1)">
       <defs>
        <path id="CMR17-31" d="M 1702 4058 
C 1702 4192 1696 4192 1606 4192 
C 1357 3916 979 3827 621 3827 
C 602 3827 570 3827 563 3808 
C 557 3795 557 3782 557 3648 
C 755 3648 1088 3686 1344 3839 
L 1344 461 
C 1344 236 1331 160 781 160 
L 589 160 
L 589 0 
C 896 0 1216 0 1523 0 
C 1830 0 2150 0 2458 0 
L 2458 160 
L 2266 160 
C 1715 160 1702 230 1702 458 
L 1702 4058 
z
" transform="scale(0.015625)"/>
       </defs>
       <use xlink:href="#CMR17-31" transform="scale(0.996264)"/>
       <use xlink:href="#CMR17-30" transform="translate(45.690477 0) scale(0.996264)"/>
      </g>
     </g>
    </g>
    <g id="xtick_3">
     <g id="line2d_5">
      <path d="M 179.328429 232.981683 
L 179.328429 10.8 
" clip-path="url(#p09b1cbf275)" style="fill: none; stroke: #b0b0b0; stroke-width: 0.8; stroke-linecap: square"/>
     </g>
     <g id="line2d_6">
      <g>
       <use xlink:href="#m71e8f1aff4" x="179.328429" y="232.981683" style="stroke: #000000; stroke-width: 0.8"/>
      </g>
     </g>
     <g id="text_3">
      <!-- $\mathdefault{20}$ -->
      <g transform="translate(174.347093 246.900182) scale(0.1 -0.1)">
       <defs>
        <path id="CMR17-32" d="M 2669 989 
L 2554 989 
C 2490 536 2438 459 2413 420 
C 2381 369 1920 369 1830 369 
L 602 369 
C 832 619 1280 1072 1824 1597 
C 2214 1967 2669 2402 2669 3035 
C 2669 3790 2067 4224 1395 4224 
C 691 4224 262 3604 262 3030 
C 262 2780 448 2748 525 2748 
C 589 2748 781 2787 781 3010 
C 781 3207 614 3264 525 3264 
C 486 3264 448 3258 422 3245 
C 544 3790 915 4058 1306 4058 
C 1862 4058 2227 3617 2227 3035 
C 2227 2479 1901 2000 1536 1584 
L 262 146 
L 262 0 
L 2515 0 
L 2669 989 
z
" transform="scale(0.015625)"/>
       </defs>
       <use xlink:href="#CMR17-32" transform="scale(0.996264)"/>
       <use xlink:href="#CMR17-30" transform="translate(45.690477 0) scale(0.996264)"/>
      </g>
     </g>
    </g>
    <g id="xtick_4">
     <g id="line2d_7">
      <path d="M 237.759218 232.981683 
L 237.759218 10.8 
" clip-path="url(#p09b1cbf275)" style="fill: none; stroke: #b0b0b0; stroke-width: 0.8; stroke-linecap: square"/>
     </g>
     <g id="line2d_8">
      <g>
       <use xlink:href="#m71e8f1aff4" x="237.759218" y="232.981683" style="stroke: #000000; stroke-width: 0.8"/>
      </g>
     </g>
     <g id="text_4">
      <!-- $\mathdefault{30}$ -->
      <g transform="translate(232.777882 246.900182) scale(0.1 -0.1)">
       <defs>
        <path id="CMR17-33" d="M 1414 2157 
C 1984 2157 2234 1662 2234 1090 
C 2234 320 1824 25 1453 25 
C 1114 25 563 194 390 693 
C 422 680 454 680 486 680 
C 640 680 755 782 755 948 
C 755 1133 614 1216 486 1216 
C 378 1216 211 1165 211 926 
C 211 335 787 -128 1466 -128 
C 2176 -128 2720 430 2720 1085 
C 2720 1707 2208 2157 1600 2227 
C 2086 2328 2554 2756 2554 3329 
C 2554 3820 2048 4179 1472 4179 
C 890 4179 378 3829 378 3329 
C 378 3110 544 3072 627 3072 
C 762 3072 877 3155 877 3321 
C 877 3486 762 3569 627 3569 
C 602 3569 570 3569 544 3557 
C 730 3959 1235 4032 1459 4032 
C 1683 4032 2106 3925 2106 3320 
C 2106 3143 2080 2828 1862 2550 
C 1670 2304 1453 2304 1242 2284 
C 1210 2284 1062 2269 1037 2269 
C 992 2263 966 2257 966 2208 
C 966 2163 973 2157 1101 2157 
L 1414 2157 
z
" transform="scale(0.015625)"/>
       </defs>
       <use xlink:href="#CMR17-33" transform="scale(0.996264)"/>
       <use xlink:href="#CMR17-30" transform="translate(45.690477 0) scale(0.996264)"/>
      </g>
     </g>
    </g>
    <g id="text_5">
     <!-- Time $t$ [s] -->
     <g transform="translate(143.522424 260.30934) scale(0.1 -0.1)">
      <defs>
       <path id="CMR17-54" d="M 3981 4326 
L 288 4326 
L 179 2918 
L 294 2918 
C 378 3976 467 4160 1453 4160 
C 1568 4160 1754 4160 1805 4154 
C 1926 4135 1926 4058 1926 3912 
L 1926 459 
C 1926 230 1907 160 1376 160 
L 1197 160 
L 1197 0 
C 1504 0 1824 0 2138 0 
C 2451 0 2771 0 3078 0 
L 3078 160 
L 2899 160 
C 2368 160 2349 230 2349 459 
L 2349 3912 
C 2349 4052 2349 4129 2464 4154 
C 2515 4160 2701 4160 2816 4160 
C 3795 4160 3891 3976 3974 2918 
L 4090 2918 
L 3981 4326 
z
" transform="scale(0.015625)"/>
       <path id="CMR17-69" d="M 992 3909 
C 992 4049 877 4170 730 4170 
C 589 4170 467 4056 467 3909 
C 467 3769 582 3648 730 3648 
C 870 3648 992 3763 992 3909 
z
M 243 2706 
L 243 2541 
C 602 2541 653 2502 653 2197 
L 653 427 
C 653 184 627 153 218 153 
L 218 -13 
C 371 0 646 0 806 0 
C 960 0 1222 0 1370 -13 
L 1370 153 
C 992 153 979 191 979 420 
L 979 2776 
L 243 2706 
z
" transform="scale(0.015625)"/>
       <path id="CMR17-6d" d="M 4326 1933 
C 4326 2252 4269 2790 3507 2790 
C 3072 2790 2771 2496 2656 2151 
L 2650 2151 
C 2573 2676 2195 2790 1837 2790 
C 1331 2790 1069 2400 973 2144 
L 966 2144 
L 966 2790 
L 211 2720 
L 211 2554 
C 589 2554 646 2515 646 2208 
L 646 428 
C 646 184 621 153 211 153 
L 211 -13 
C 365 0 646 0 813 0 
C 979 0 1267 0 1421 -13 
L 1421 153 
C 1011 153 986 178 986 428 
L 986 1658 
C 986 2247 1344 2688 1792 2688 
C 2266 2688 2317 2266 2317 1958 
L 2317 428 
C 2317 184 2291 153 1882 153 
L 1882 -13 
C 2035 0 2317 0 2483 0 
C 2650 0 2938 0 3091 -13 
L 3091 153 
C 2682 153 2656 178 2656 428 
L 2656 1658 
C 2656 2247 3014 2688 3462 2688 
C 3936 2688 3987 2266 3987 1958 
L 3987 428 
C 3987 184 3962 153 3552 153 
L 3552 -13 
C 3706 0 3987 0 4154 0 
C 4320 0 4608 0 4762 -13 
L 4762 153 
C 4352 153 4326 178 4326 428 
L 4326 1933 
z
" transform="scale(0.015625)"/>
       <path id="CMR17-65" d="M 2438 1472 
C 2464 1498 2464 1511 2464 1576 
C 2464 2238 2118 2816 1389 2816 
C 710 2816 173 2169 173 1383 
C 173 551 781 -64 1459 -64 
C 2176 -64 2458 607 2458 740 
C 2458 784 2419 784 2406 784 
C 2362 784 2355 771 2330 696 
C 2189 265 1837 51 1504 51 
C 1229 51 954 203 781 480 
C 582 803 582 1176 582 1472 
L 2438 1472 
z
M 589 1568 
C 634 2505 1126 2714 1382 2714 
C 1818 2714 2112 2297 2118 1568 
L 589 1568 
z
" transform="scale(0.015625)"/>
       <path id="CMMI12-74" d="M 1286 2566 
L 1875 2566 
C 1997 2566 2061 2566 2061 2681 
C 2061 2752 2022 2752 1894 2752 
L 1331 2752 
L 1568 3692 
C 1594 3781 1594 3794 1594 3840 
C 1594 3943 1510 4000 1427 4000 
C 1376 4000 1229 3981 1178 3775 
L 928 2752 
L 326 2752 
C 198 2752 141 2752 141 2630 
C 141 2566 186 2566 307 2566 
L 877 2566 
L 454 881 
C 403 658 384 594 384 511 
C 384 211 595 -64 954 -64 
C 1600 -64 1946 868 1946 912 
C 1946 951 1920 970 1882 970 
C 1869 970 1843 970 1830 944 
C 1824 938 1818 931 1773 829 
C 1638 511 1344 64 973 64 
C 781 64 768 224 768 364 
C 768 370 768 492 787 568 
L 1286 2566 
z
" transform="scale(0.015625)"/>
       <path id="CMR17-5b" d="M 1504 -1600 
L 1504 -1377 
L 902 -1377 
L 902 4544 
L 1504 4544 
L 1504 4767 
L 678 4767 
L 678 -1600 
L 1504 -1600 
z
" transform="scale(0.015625)"/>
       <path id="CMR17-73" d="M 1978 2697 
C 1978 2813 1971 2819 1933 2819 
C 1907 2819 1901 2813 1824 2717 
C 1805 2691 1747 2626 1728 2601 
C 1523 2819 1235 2819 1126 2819 
C 416 2819 160 2447 160 2076 
C 160 1498 813 1365 998 1325 
C 1402 1243 1542 1217 1677 1101 
C 1760 1025 1901 884 1901 654 
C 1901 384 1747 38 1158 38 
C 602 38 403 460 288 1021 
C 269 1110 269 1117 218 1117 
C 166 1117 160 1110 160 983 
L 160 63 
C 160 -51 166 -58 205 -58 
C 237 -58 243 -51 275 0 
C 314 57 410 211 448 276 
C 576 103 800 -64 1158 -64 
C 1792 -64 2131 283 2131 784 
C 2131 1112 1958 1285 1875 1362 
C 1683 1561 1459 1606 1190 1657 
C 838 1735 390 1825 390 2217 
C 390 2383 480 2737 1126 2737 
C 1811 2737 1850 2094 1862 1888 
C 1869 1856 1901 1849 1920 1849 
C 1978 1849 1978 1869 1978 1978 
L 1978 2697 
z
" transform="scale(0.015625)"/>
       <path id="CMR17-5d" d="M 915 4767 
L 90 4767 
L 90 4544 
L 691 4544 
L 691 -1377 
L 90 -1377 
L 90 -1600 
L 915 -1600 
L 915 4767 
z
" transform="scale(0.015625)"/>
      </defs>
      <use xlink:href="#CMR17-54" transform="scale(0.996264)"/>
      <use xlink:href="#CMR17-69" transform="translate(66.509881 0) scale(0.996264)"/>
      <use xlink:href="#CMR17-6d" transform="translate(91.380939 0) scale(0.996264)"/>
      <use xlink:href="#CMR17-65" transform="translate(168.300529 0) scale(0.996264)"/>
      <use xlink:href="#CMMI12-74" transform="translate(238.862156 0) scale(0.996264)"/>
      <use xlink:href="#CMR17-5b" transform="translate(304.164452 0) scale(0.996264)"/>
      <use xlink:href="#CMR17-73" transform="translate(329.035511 0) scale(0.996264)"/>
      <use xlink:href="#CMR17-5d" transform="translate(364.836848 0) scale(0.996264)"/>
     </g>
    </g>
   </g>
   <g id="matplotlib.axis_2">
    <g id="ytick_1">
     <g id="line2d_9">
      <path d="M 52.241463 221.420524 
L 277.2 221.420524 
" clip-path="url(#p09b1cbf275)" style="fill: none; stroke: #b0b0b0; stroke-width: 0.8; stroke-linecap: square"/>
     </g>
     <g id="line2d_10">
      <defs>
       <path id="m10c94aa33a" d="M 0 0 
L -3.5 0 
" style="stroke: #000000; stroke-width: 0.8"/>
      </defs>
      <g>
       <use xlink:href="#m10c94aa33a" x="52.241463" y="221.420524" style="stroke: #000000; stroke-width: 0.8"/>
      </g>
     </g>
     <g id="text_6">
      <!-- $\mathdefault{−1.5}$ -->
      <g transform="translate(24.76264 224.879773) scale(0.1 -0.1)">
       <defs>
        <path id="CMSY10-0" d="M 4218 1472 
C 4326 1472 4442 1472 4442 1600 
C 4442 1728 4326 1728 4218 1728 
L 755 1728 
C 646 1728 531 1728 531 1600 
C 531 1472 646 1472 755 1472 
L 4218 1472 
z
" transform="scale(0.015625)"/>
        <path id="CMMI12-3a" d="M 1178 307 
C 1178 492 1024 619 870 619 
C 685 619 557 466 557 313 
C 557 128 710 0 864 0 
C 1050 0 1178 153 1178 307 
z
" transform="scale(0.015625)"/>
        <path id="CMR17-35" d="M 730 3692 
C 794 3666 1056 3584 1325 3584 
C 1920 3584 2246 3911 2432 4100 
C 2432 4157 2432 4192 2394 4192 
C 2387 4192 2374 4192 2323 4163 
C 2099 4058 1837 3973 1517 3973 
C 1325 3973 1037 3999 723 4139 
C 653 4171 640 4171 634 4171 
C 602 4171 595 4164 595 4037 
L 595 2203 
C 595 2089 595 2057 659 2057 
C 691 2057 704 2070 736 2114 
C 941 2401 1222 2522 1542 2522 
C 1766 2522 2246 2382 2246 1289 
C 2246 1085 2246 715 2054 421 
C 1894 159 1645 25 1370 25 
C 947 25 518 320 403 814 
C 429 807 480 795 506 795 
C 589 795 749 840 749 1038 
C 749 1210 627 1280 506 1280 
C 358 1280 262 1190 262 1011 
C 262 454 704 -128 1382 -128 
C 2042 -128 2669 440 2669 1264 
C 2669 2030 2170 2624 1549 2624 
C 1222 2624 947 2503 730 2274 
L 730 3692 
z
" transform="scale(0.015625)"/>
       </defs>
       <use xlink:href="#CMSY10-0" transform="scale(0.996264)"/>
       <use xlink:href="#CMR17-31" transform="translate(77.487468 0) scale(0.996264)"/>
       <use xlink:href="#CMMI12-3a" transform="translate(123.177945 0) scale(0.996264)"/>
       <use xlink:href="#CMR17-35" transform="translate(150.275122 0) scale(0.996264)"/>
      </g>
     </g>
    </g>
    <g id="ytick_2">
     <g id="line2d_11">
      <path d="M 52.241463 184.96417 
L 277.2 184.96417 
" clip-path="url(#p09b1cbf275)" style="fill: none; stroke: #b0b0b0; stroke-width: 0.8; stroke-linecap: square"/>
     </g>
     <g id="line2d_12">
      <g>
       <use xlink:href="#m10c94aa33a" x="52.241463" y="184.96417" style="stroke: #000000; stroke-width: 0.8"/>
      </g>
     </g>
     <g id="text_7">
      <!-- $\mathdefault{−1.0}$ -->
      <g transform="translate(24.76264 188.423419) scale(0.1 -0.1)">
       <use xlink:href="#CMSY10-0" transform="scale(0.996264)"/>
       <use xlink:href="#CMR17-31" transform="translate(77.487468 0) scale(0.996264)"/>
       <use xlink:href="#CMMI12-3a" transform="translate(123.177945 0) scale(0.996264)"/>
       <use xlink:href="#CMR17-30" transform="translate(150.275122 0) scale(0.996264)"/>
      </g>
     </g>
    </g>
    <g id="ytick_3">
     <g id="line2d_13">
      <path d="M 52.241463 148.507816 
L 277.2 148.507816 
" clip-path="url(#p09b1cbf275)" style="fill: none; stroke: #b0b0b0; stroke-width: 0.8; stroke-linecap: square"/>
     </g>
     <g id="line2d_14">
      <g>
       <use xlink:href="#m10c94aa33a" x="52.241463" y="148.507816" style="stroke: #000000; stroke-width: 0.8"/>
      </g>
     </g>
     <g id="text_8">
      <!-- $\mathdefault{−0.5}$ -->
      <g transform="translate(24.76264 151.967065) scale(0.1 -0.1)">
       <use xlink:href="#CMSY10-0" transform="scale(0.996264)"/>
       <use xlink:href="#CMR17-30" transform="translate(77.487468 0) scale(0.996264)"/>
       <use xlink:href="#CMMI12-3a" transform="translate(123.177945 0) scale(0.996264)"/>
       <use xlink:href="#CMR17-35" transform="translate(150.275122 0) scale(0.996264)"/>
      </g>
     </g>
    </g>
    <g id="ytick_4">
     <g id="line2d_15">
      <path d="M 52.241463 112.051462 
L 277.2 112.051462 
" clip-path="url(#p09b1cbf275)" style="fill: none; stroke: #b0b0b0; stroke-width: 0.8; stroke-linecap: square"/>
     </g>
     <g id="line2d_16">
      <g>
       <use xlink:href="#m10c94aa33a" x="52.241463" y="112.051462" style="stroke: #000000; stroke-width: 0.8"/>
      </g>
     </g>
     <g id="text_9">
      <!-- $\mathdefault{0.0}$ -->
      <g transform="translate(32.511384 115.510711) scale(0.1 -0.1)">
       <use xlink:href="#CMR17-30" transform="scale(0.996264)"/>
       <use xlink:href="#CMMI12-3a" transform="translate(45.690477 0) scale(0.996264)"/>
       <use xlink:href="#CMR17-30" transform="translate(72.787654 0) scale(0.996264)"/>
      </g>
     </g>
    </g>
    <g id="ytick_5">
     <g id="line2d_17">
      <path d="M 52.241463 75.595108 
L 277.2 75.595108 
" clip-path="url(#p09b1cbf275)" style="fill: none; stroke: #b0b0b0; stroke-width: 0.8; stroke-linecap: square"/>
     </g>
     <g id="line2d_18">
      <g>
       <use xlink:href="#m10c94aa33a" x="52.241463" y="75.595108" style="stroke: #000000; stroke-width: 0.8"/>
      </g>
     </g>
     <g id="text_10">
      <!-- $\mathdefault{0.5}$ -->
      <g transform="translate(32.511384 79.054357) scale(0.1 -0.1)">
       <use xlink:href="#CMR17-30" transform="scale(0.996264)"/>
       <use xlink:href="#CMMI12-3a" transform="translate(45.690477 0) scale(0.996264)"/>
       <use xlink:href="#CMR17-35" transform="translate(72.787654 0) scale(0.996264)"/>
      </g>
     </g>
    </g>
    <g id="ytick_6">
     <g id="line2d_19">
      <path d="M 52.241463 39.138754 
L 277.2 39.138754 
" clip-path="url(#p09b1cbf275)" style="fill: none; stroke: #b0b0b0; stroke-width: 0.8; stroke-linecap: square"/>
     </g>
     <g id="line2d_20">
      <g>
       <use xlink:href="#m10c94aa33a" x="52.241463" y="39.138754" style="stroke: #000000; stroke-width: 0.8"/>
      </g>
     </g>
     <g id="text_11">
      <!-- $\mathdefault{1.0}$ -->
      <g transform="translate(32.511384 42.598003) scale(0.1 -0.1)">
       <use xlink:href="#CMR17-31" transform="scale(0.996264)"/>
       <use xlink:href="#CMMI12-3a" transform="translate(45.690477 0) scale(0.996264)"/>
       <use xlink:href="#CMR17-30" transform="translate(72.787654 0) scale(0.996264)"/>
      </g>
     </g>
    </g>
    <g id="text_12">
     <!-- Axial force [N] -->
     <g transform="translate(18.27198 153.729842) rotate(-90) scale(0.1 -0.1)">
      <defs>
       <path id="CMR17-41" d="M 2323 4378 
C 2291 4461 2278 4480 2214 4480 
C 2150 4480 2138 4461 2106 4378 
L 749 566 
C 627 223 371 153 147 153 
L 147 -13 
C 262 0 518 0 640 0 
C 800 0 1056 0 1210 -13 
L 1210 153 
C 909 153 864 361 864 439 
C 864 497 877 530 890 569 
L 1229 1536 
L 2906 1536 
L 3290 442 
C 3322 365 3322 352 3322 327 
C 3322 153 3046 153 2925 153 
L 2925 0 
C 3110 0 3443 0 3642 0 
C 3808 0 4128 0 4282 -13 
L 4282 153 
C 3942 153 3827 153 3744 387 
L 2323 4378 
z
M 2067 3893 
L 2848 1702 
L 1286 1702 
L 2067 3893 
z
" transform="scale(0.015625)"/>
       <path id="CMR17-78" d="M 1664 1477 
C 1856 1726 2074 2006 2253 2216 
C 2464 2458 2707 2560 2989 2560 
L 2989 2726 
C 2880 2726 2656 2726 2541 2726 
C 2368 2726 2170 2726 2022 2732 
L 2022 2566 
C 2112 2553 2163 2489 2163 2400 
C 2163 2285 2099 2215 2067 2171 
L 1594 1573 
L 1030 2306 
C 973 2376 973 2388 973 2420 
C 973 2497 1037 2560 1146 2560 
L 1146 2732 
C 992 2726 717 2726 557 2726 
C 384 2726 179 2726 38 2732 
L 38 2560 
C 384 2560 461 2534 614 2343 
L 1350 1395 
C 1363 1382 1395 1344 1395 1325 
C 1395 1299 838 619 768 530 
C 480 185 179 160 6 160 
L 6 0 
C 115 0 339 0 454 0 
C 582 0 864 0 979 -6 
L 979 160 
C 941 166 838 179 838 325 
C 838 440 890 510 947 586 
L 1478 1236 
L 2035 512 
C 2086 442 2163 346 2163 301 
C 2163 211 2086 160 1984 160 
L 1984 -6 
C 2138 0 2413 0 2573 0 
C 2746 0 2950 0 3091 -6 
L 3091 160 
C 2771 160 2675 172 2522 370 
L 1664 1477 
z
" transform="scale(0.015625)"/>
       <path id="CMR17-61" d="M 2304 1653 
C 2304 2072 2304 2294 2035 2543 
C 1798 2752 1523 2816 1306 2816 
C 800 2816 435 2407 435 1971 
C 435 1728 627 1728 666 1728 
C 749 1728 896 1778 896 1954 
C 896 2112 774 2181 666 2181 
C 640 2181 608 2174 589 2168 
C 723 2592 1069 2714 1293 2714 
C 1613 2714 1965 2429 1965 1885 
L 1965 1600 
C 1587 1600 1133 1549 774 1357 
C 371 1133 256 813 256 570 
C 256 77 832 -64 1171 -64 
C 1523 -64 1850 139 1990 511 
C 2003 233 2182 -18 2464 -18 
C 2598 -18 2938 70 2938 567 
L 2938 920 
L 2822 920 
L 2822 562 
C 2822 178 2650 128 2566 128 
C 2304 128 2304 458 2304 738 
L 2304 1653 
z
M 1965 870 
C 1965 317 1568 38 1216 38 
C 896 38 646 275 646 570 
C 646 761 730 1100 1101 1305 
C 1408 1478 1760 1504 1965 1504 
L 1965 870 
z
" transform="scale(0.015625)"/>
       <path id="CMR17-6c" d="M 979 4396 
L 218 4326 
L 218 4160 
C 595 4160 653 4122 653 3817 
L 653 426 
C 653 184 627 153 218 153 
L 218 -13 
C 371 0 653 0 813 0 
C 979 0 1261 0 1414 -13 
L 1414 153 
C 1005 153 979 178 979 426 
L 979 4396 
z
" transform="scale(0.015625)"/>
       <path id="CMR17-66" d="M 979 2560 
L 1709 2560 
L 1709 2725 
L 966 2725 
L 966 3494 
C 966 4022 1235 4352 1510 4352 
C 1594 4352 1690 4327 1754 4282 
C 1702 4269 1568 4225 1568 4067 
C 1568 3901 1696 3850 1786 3850 
C 1875 3850 2003 3901 2003 4067 
C 2003 4308 1773 4454 1517 4454 
C 1152 4454 653 4156 653 3481 
L 653 2725 
L 141 2725 
L 141 2560 
L 653 2560 
L 653 427 
C 653 184 627 153 218 153 
L 218 -13 
C 371 0 666 0 832 0 
C 1018 0 1344 0 1517 -13 
L 1517 153 
C 1056 153 979 153 979 439 
L 979 2560 
z
" transform="scale(0.015625)"/>
       <path id="CMR17-6f" d="M 2758 1356 
C 2758 2176 2163 2816 1466 2816 
C 768 2816 173 2176 173 1356 
C 173 551 768 -64 1466 -64 
C 2163 -64 2758 551 2758 1356 
z
M 1466 51 
C 1165 51 909 230 762 480 
C 602 767 582 1126 582 1408 
C 582 1677 595 2010 762 2298 
C 890 2509 1139 2714 1466 2714 
C 1754 2714 1997 2554 2150 2330 
C 2349 2029 2349 1607 2349 1408 
C 2349 1158 2336 775 2163 467 
C 1984 173 1709 51 1466 51 
z
" transform="scale(0.015625)"/>
       <path id="CMR17-72" d="M 960 1497 
C 960 2112 1222 2688 1702 2688 
C 1747 2688 1792 2682 1837 2662 
C 1837 2662 1696 2617 1696 2452 
C 1696 2298 1818 2234 1914 2234 
C 1990 2234 2131 2279 2131 2458 
C 2131 2663 1926 2790 1709 2790 
C 1222 2790 1011 2317 947 2093 
L 941 2093 
L 941 2790 
L 198 2720 
L 198 2554 
C 576 2554 634 2515 634 2208 
L 634 428 
C 634 184 608 153 198 153 
L 198 -13 
C 352 0 646 0 813 0 
C 998 0 1325 0 1498 -13 
L 1498 153 
C 1037 153 960 153 960 440 
L 960 1497 
z
" transform="scale(0.015625)"/>
       <path id="CMR17-63" d="M 2234 2240 
C 2112 2240 1933 2240 1933 2017 
C 1933 1838 2080 1787 2163 1787 
C 2208 1787 2394 1807 2394 2024 
C 2394 2467 1958 2803 1466 2803 
C 787 2803 211 2178 211 1363 
C 211 516 813 -64 1466 -64 
C 2259 -64 2458 677 2458 748 
C 2458 774 2451 793 2406 793 
C 2362 793 2355 787 2330 703 
C 2163 180 1798 51 1523 51 
C 1114 51 621 427 621 1369 
C 621 2338 1094 2688 1472 2688 
C 1722 2688 2093 2573 2234 2240 
z
" transform="scale(0.015625)"/>
       <path id="CMR17-4e" d="M 1312 4250 
C 1267 4320 1261 4320 1139 4320 
L 326 4320 
L 326 4160 
L 448 4160 
C 704 4160 819 4129 838 4122 
L 838 610 
C 838 451 838 153 326 153 
L 326 -13 
C 474 0 742 0 902 0 
C 1062 0 1331 0 1478 -13 
L 1478 153 
C 966 153 966 451 966 610 
L 966 4033 
C 1011 3995 1011 3982 1056 3919 
L 3430 76 
C 3475 0 3494 0 3526 0 
C 3590 0 3590 19 3590 139 
L 3590 3705 
C 3590 3863 3590 4160 4102 4160 
L 4102 4326 
C 3955 4320 3686 4320 3526 4320 
C 3366 4320 3098 4320 2950 4326 
L 2950 4160 
C 3462 4160 3462 3862 3462 3703 
L 3462 763 
L 1312 4250 
z
" transform="scale(0.015625)"/>
      </defs>
      <use xlink:href="#CMR17-41" transform="scale(0.996264)"/>
      <use xlink:href="#CMR17-78" transform="translate(69.07243 0) scale(0.996264)"/>
      <use xlink:href="#CMR17-69" transform="translate(117.365346 0) scale(0.996264)"/>
      <use xlink:href="#CMR17-61" transform="translate(142.236404 0) scale(0.996264)"/>
      <use xlink:href="#CMR17-6c" transform="translate(187.926881 0) scale(0.996264)"/>
      <use xlink:href="#CMR17-66" transform="translate(242.873906 0) scale(0.996264)"/>
      <use xlink:href="#CMR17-6f" transform="translate(270.347418 0) scale(0.996264)"/>
      <use xlink:href="#CMR17-72" transform="translate(316.037896 0) scale(0.996264)"/>
      <use xlink:href="#CMR17-63" transform="translate(351.318663 0) scale(0.996264)"/>
      <use xlink:href="#CMR17-65" transform="translate(391.804324 0) scale(0.996264)"/>
      <use xlink:href="#CMR17-5b" transform="translate(462.365951 0) scale(0.996264)"/>
      <use xlink:href="#CMR17-4e" transform="translate(487.237009 0) scale(0.996264)"/>
      <use xlink:href="#CMR17-5d" transform="translate(556.309439 0) scale(0.996264)"/>
     </g>
    </g>
   </g>
   <g id="line2d_21">
    <path d="M 62.466851 55.574178 
L 91.682245 55.574178 
L 91.799107 76.861234 
L 120.89764 76.861234 
L 121.014501 134.9315 
L 150.113034 134.9315 
L 150.229896 48.025618 
L 179.328429 48.025618 
L 179.44529 144.075225 
L 208.543823 144.075225 
L 208.660685 121.020179 
L 237.759218 121.020179 
L 237.876079 102.070822 
L 266.974612 102.070822 
L 266.974612 102.070822 
" clip-path="url(#p09b1cbf275)" style="fill: none; stroke: #1f77b4; stroke-width: 1.5; stroke-linecap: square"/>
    <defs>
     <path id="mee473e5405" d="M 0 2.5 
C 0.663008 2.5 1.29895 2.236584 1.767767 1.767767 
C 2.236584 1.29895 2.5 0.663008 2.5 0 
C 2.5 -0.663008 2.236584 -1.29895 1.767767 -1.767767 
C 1.29895 -2.236584 0.663008 -2.5 0 -2.5 
C -0.663008 -2.5 -1.29895 -2.236584 -1.767767 -1.767767 
C -2.236584 -1.29895 -2.5 -0.663008 -2.5 0 
C -2.5 0.663008 -2.236584 1.29895 -1.767767 1.767767 
C -1.29895 2.236584 -0.663008 2.5 0 2.5 
z
" style="stroke: #1f77b4"/>
    </defs>
    <g clip-path="url(#p09b1cbf275)">
     <use xlink:href="#mee473e5405" x="62.466851" y="55.574178" style="fill: #1f77b4; stroke: #1f77b4"/>
     <use xlink:href="#mee473e5405" x="68.30993" y="55.574178" style="fill: #1f77b4; stroke: #1f77b4"/>
     <use xlink:href="#mee473e5405" x="74.153009" y="55.574178" style="fill: #1f77b4; stroke: #1f77b4"/>
     <use xlink:href="#mee473e5405" x="79.996088" y="55.574178" style="fill: #1f77b4; stroke: #1f77b4"/>
     <use xlink:href="#mee473e5405" x="85.839166" y="55.574178" style="fill: #1f77b4; stroke: #1f77b4"/>
     <use xlink:href="#mee473e5405" x="91.682245" y="55.574178" style="fill: #1f77b4; stroke: #1f77b4"/>
     <use xlink:href="#mee473e5405" x="97.525324" y="76.861234" style="fill: #1f77b4; stroke: #1f77b4"/>
     <use xlink:href="#mee473e5405" x="103.368403" y="76.861234" style="fill: #1f77b4; stroke: #1f77b4"/>
     <use xlink:href="#mee473e5405" x="109.211482" y="76.861234" style="fill: #1f77b4; stroke: #1f77b4"/>
     <use xlink:href="#mee473e5405" x="115.054561" y="76.861234" style="fill: #1f77b4; stroke: #1f77b4"/>
     <use xlink:href="#mee473e5405" x="120.89764" y="76.861234" style="fill: #1f77b4; stroke: #1f77b4"/>
     <use xlink:href="#mee473e5405" x="126.740719" y="134.9315" style="fill: #1f77b4; stroke: #1f77b4"/>
     <use xlink:href="#mee473e5405" x="132.583798" y="134.9315" style="fill: #1f77b4; stroke: #1f77b4"/>
     <use xlink:href="#mee473e5405" x="138.426876" y="134.9315" style="fill: #1f77b4; stroke: #1f77b4"/>
     <use xlink:href="#mee473e5405" x="144.269955" y="134.9315" style="fill: #1f77b4; stroke: #1f77b4"/>
     <use xlink:href="#mee473e5405" x="150.113034" y="134.9315" style="fill: #1f77b4; stroke: #1f77b4"/>
     <use xlink:href="#mee473e5405" x="155.956113" y="48.025618" style="fill: #1f77b4; stroke: #1f77b4"/>
     <use xlink:href="#mee473e5405" x="161.799192" y="48.025618" style="fill: #1f77b4; stroke: #1f77b4"/>
     <use xlink:href="#mee473e5405" x="167.642271" y="48.025618" style="fill: #1f77b4; stroke: #1f77b4"/>
     <use xlink:href="#mee473e5405" x="173.48535" y="48.025618" style="fill: #1f77b4; stroke: #1f77b4"/>
     <use xlink:href="#mee473e5405" x="179.328429" y="48.025618" style="fill: #1f77b4; stroke: #1f77b4"/>
     <use xlink:href="#mee473e5405" x="185.171508" y="144.075225" style="fill: #1f77b4; stroke: #1f77b4"/>
     <use xlink:href="#mee473e5405" x="191.014586" y="144.075225" style="fill: #1f77b4; stroke: #1f77b4"/>
     <use xlink:href="#mee473e5405" x="196.857665" y="144.075225" style="fill: #1f77b4; stroke: #1f77b4"/>
     <use xlink:href="#mee473e5405" x="202.700744" y="144.075225" style="fill: #1f77b4; stroke: #1f77b4"/>
     <use xlink:href="#mee473e5405" x="208.543823" y="144.075225" style="fill: #1f77b4; stroke: #1f77b4"/>
     <use xlink:href="#mee473e5405" x="214.386902" y="121.020179" style="fill: #1f77b4; stroke: #1f77b4"/>
     <use xlink:href="#mee473e5405" x="220.229981" y="121.020179" style="fill: #1f77b4; stroke: #1f77b4"/>
     <use xlink:href="#mee473e5405" x="226.07306" y="121.020179" style="fill: #1f77b4; stroke: #1f77b4"/>
     <use xlink:href="#mee473e5405" x="231.916139" y="121.020179" style="fill: #1f77b4; stroke: #1f77b4"/>
     <use xlink:href="#mee473e5405" x="237.759218" y="121.020179" style="fill: #1f77b4; stroke: #1f77b4"/>
     <use xlink:href="#mee473e5405" x="243.602296" y="102.070822" style="fill: #1f77b4; stroke: #1f77b4"/>
     <use xlink:href="#mee473e5405" x="249.445375" y="102.070822" style="fill: #1f77b4; stroke: #1f77b4"/>
     <use xlink:href="#mee473e5405" x="255.288454" y="102.070822" style="fill: #1f77b4; stroke: #1f77b4"/>
     <use xlink:href="#mee473e5405" x="261.131533" y="102.070822" style="fill: #1f77b4; stroke: #1f77b4"/>
     <use xlink:href="#mee473e5405" x="266.974612" y="102.070822" style="fill: #1f77b4; stroke: #1f77b4"/>
    </g>
   </g>
   <g id="line2d_22">
    <path d="M 62.466851 181.227456 
L 91.682245 181.227456 
L 91.799107 54.738372 
L 120.89764 54.738372 
L 121.014501 142.850329 
L 150.113034 142.850329 
L 150.229896 67.915503 
L 179.328429 67.915503 
L 179.44529 114.844288 
L 208.543823 114.844288 
L 208.660685 79.955974 
L 237.759218 79.955974 
L 237.876079 127.578036 
L 266.974612 127.578036 
L 266.974612 127.578036 
" clip-path="url(#p09b1cbf275)" style="fill: none; stroke: #ff7f0e; stroke-width: 1.5; stroke-linecap: square"/>
    <defs>
     <path id="mc2bcfab018" d="M 0 2.5 
C 0.663008 2.5 1.29895 2.236584 1.767767 1.767767 
C 2.236584 1.29895 2.5 0.663008 2.5 0 
C 2.5 -0.663008 2.236584 -1.29895 1.767767 -1.767767 
C 1.29895 -2.236584 0.663008 -2.5 0 -2.5 
C -0.663008 -2.5 -1.29895 -2.236584 -1.767767 -1.767767 
C -2.236584 -1.29895 -2.5 -0.663008 -2.5 0 
C -2.5 0.663008 -2.236584 1.29895 -1.767767 1.767767 
C -1.29895 2.236584 -0.663008 2.5 0 2.5 
z
" style="stroke: #ff7f0e"/>
    </defs>
    <g clip-path="url(#p09b1cbf275)">
     <use xlink:href="#mc2bcfab018" x="62.466851" y="181.227456" style="fill: #ff7f0e; stroke: #ff7f0e"/>
     <use xlink:href="#mc2bcfab018" x="68.30993" y="181.227456" style="fill: #ff7f0e; stroke: #ff7f0e"/>
     <use xlink:href="#mc2bcfab018" x="74.153009" y="181.227456" style="fill: #ff7f0e; stroke: #ff7f0e"/>
     <use xlink:href="#mc2bcfab018" x="79.996088" y="181.227456" style="fill: #ff7f0e; stroke: #ff7f0e"/>
     <use xlink:href="#mc2bcfab018" x="85.839166" y="181.227456" style="fill: #ff7f0e; stroke: #ff7f0e"/>
     <use xlink:href="#mc2bcfab018" x="91.682245" y="181.227456" style="fill: #ff7f0e; stroke: #ff7f0e"/>
     <use xlink:href="#mc2bcfab018" x="97.525324" y="54.738372" style="fill: #ff7f0e; stroke: #ff7f0e"/>
     <use xlink:href="#mc2bcfab018" x="103.368403" y="54.738372" style="fill: #ff7f0e; stroke: #ff7f0e"/>
     <use xlink:href="#mc2bcfab018" x="109.211482" y="54.738372" style="fill: #ff7f0e; stroke: #ff7f0e"/>
     <use xlink:href="#mc2bcfab018" x="115.054561" y="54.738372" style="fill: #ff7f0e; stroke: #ff7f0e"/>
     <use xlink:href="#mc2bcfab018" x="120.89764" y="54.738372" style="fill: #ff7f0e; stroke: #ff7f0e"/>
     <use xlink:href="#mc2bcfab018" x="126.740719" y="142.850329" style="fill: #ff7f0e; stroke: #ff7f0e"/>
     <use xlink:href="#mc2bcfab018" x="132.583798" y="142.850329" style="fill: #ff7f0e; stroke: #ff7f0e"/>
     <use xlink:href="#mc2bcfab018" x="138.426876" y="142.850329" style="fill: #ff7f0e; stroke: #ff7f0e"/>
     <use xlink:href="#mc2bcfab018" x="144.269955" y="142.850329" style="fill: #ff7f0e; stroke: #ff7f0e"/>
     <use xlink:href="#mc2bcfab018" x="150.113034" y="142.850329" style="fill: #ff7f0e; stroke: #ff7f0e"/>
     <use xlink:href="#mc2bcfab018" x="155.956113" y="67.915503" style="fill: #ff7f0e; stroke: #ff7f0e"/>
     <use xlink:href="#mc2bcfab018" x="161.799192" y="67.915503" style="fill: #ff7f0e; stroke: #ff7f0e"/>
     <use xlink:href="#mc2bcfab018" x="167.642271" y="67.915503" style="fill: #ff7f0e; stroke: #ff7f0e"/>
     <use xlink:href="#mc2bcfab018" x="173.48535" y="67.915503" style="fill: #ff7f0e; stroke: #ff7f0e"/>
     <use xlink:href="#mc2bcfab018" x="179.328429" y="67.915503" style="fill: #ff7f0e; stroke: #ff7f0e"/>
     <use xlink:href="#mc2bcfab018" x="185.171508" y="114.844288" style="fill: #ff7f0e; stroke: #ff7f0e"/>
     <use xlink:href="#mc2bcfab018" x="191.014586" y="114.844288" style="fill: #ff7f0e; stroke: #ff7f0e"/>
     <use xlink:href="#mc2bcfab018" x="196.857665" y="114.844288" style="fill: #ff7f0e; stroke: #ff7f0e"/>
     <use xlink:href="#mc2bcfab018" x="202.700744" y="114.844288" style="fill: #ff7f0e; stroke: #ff7f0e"/>
     <use xlink:href="#mc2bcfab018" x="208.543823" y="114.844288" style="fill: #ff7f0e; stroke: #ff7f0e"/>
     <use xlink:href="#mc2bcfab018" x="214.386902" y="79.955974" style="fill: #ff7f0e; stroke: #ff7f0e"/>
     <use xlink:href="#mc2bcfab018" x="220.229981" y="79.955974" style="fill: #ff7f0e; stroke: #ff7f0e"/>
     <use xlink:href="#mc2bcfab018" x="226.07306" y="79.955974" style="fill: #ff7f0e; stroke: #ff7f0e"/>
     <use xlink:href="#mc2bcfab018" x="231.916139" y="79.955974" style="fill: #ff7f0e; stroke: #ff7f0e"/>
     <use xlink:href="#mc2bcfab018" x="237.759218" y="79.955974" style="fill: #ff7f0e; stroke: #ff7f0e"/>
     <use xlink:href="#mc2bcfab018" x="243.602296" y="127.578036" style="fill: #ff7f0e; stroke: #ff7f0e"/>
     <use xlink:href="#mc2bcfab018" x="249.445375" y="127.578036" style="fill: #ff7f0e; stroke: #ff7f0e"/>
     <use xlink:href="#mc2bcfab018" x="255.288454" y="127.578036" style="fill: #ff7f0e; stroke: #ff7f0e"/>
     <use xlink:href="#mc2bcfab018" x="261.131533" y="127.578036" style="fill: #ff7f0e; stroke: #ff7f0e"/>
     <use xlink:href="#mc2bcfab018" x="266.974612" y="127.578036" style="fill: #ff7f0e; stroke: #ff7f0e"/>
    </g>
   </g>
   <g id="line2d_23">
    <path d="M 62.466851 77.376451 
L 62.525282 161.037863 
L 62.583712 151.299311 
L 62.875866 122.686563 
L 63.16802 112.898659 
L 63.460174 109.530297 
L 63.752328 108.325216 
L 64.102913 107.792497 
L 64.62879 107.476316 
L 65.855837 107.063444 
L 70.705592 106.037934 
L 71.582054 105.87074 
L 72.224793 105.755001 
L 73.101254 105.590367 
L 74.620455 105.366323 
L 76.373379 105.136861 
L 77.95101 104.931572 
L 81.573719 104.56287 
L 86.83249 104.152085 
L 91.682245 103.883282 
L 91.740676 152.838118 
L 91.799107 147.836342 
L 92.091261 121.12462 
L 92.383415 113.055336 
L 92.675569 110.648222 
L 92.967723 109.952918 
L 93.318307 109.72234 
L 94.779077 109.363287 
L 96.532001 108.995273 
L 98.986094 108.771261 
L 100.855879 108.442717 
L 102.024495 108.326053 
L 102.667234 108.203678 
L 103.485265 108.144427 
L 103.89428 108.053902 
L 104.712311 108.01992 
L 105.179758 107.944554 
L 105.822496 107.926877 
L 106.406804 107.850202 
L 106.932681 107.830062 
L 107.57542 107.762158 
L 108.101297 107.721476 
L 108.685605 107.676432 
L 109.269913 107.621066 
L 109.912651 107.602743 
L 111.431852 107.47715 
L 112.717329 107.39098 
L 120.89764 107.04526 
L 120.956071 101.081243 
L 121.014501 103.587657 
L 121.306655 110.201576 
L 121.598809 112.405596 
L 121.890963 113.14621 
L 122.241548 113.434639 
L 122.825856 113.558716 
L 128.026196 114.108101 
L 140.822539 114.798826 
L 150.113034 115.035526 
L 150.171465 173.476082 
L 150.229896 163.752526 
L 150.52205 125.483995 
L 150.814204 113.172858 
L 151.106358 109.268024 
L 151.398512 108.021285 
L 151.749096 107.540271 
L 152.274973 107.285706 
L 154.027897 106.567311 
L 157.007867 105.917521 
L 157.18316 105.913776 
L 157.825898 105.666828 
L 159.578822 105.265629 
L 159.870976 105.254695 
L 160.747438 104.943206 
L 161.799192 104.811296 
L 162.325069 104.66861 
L 163.084669 104.567554 
L 163.493685 104.46575 
L 164.253285 104.375458 
L 164.720731 104.290103 
L 165.305039 104.232323 
L 165.889347 104.131545 
L 166.473655 104.055728 
L 167.057963 103.986177 
L 167.642271 103.893264 
L 168.28501 103.847161 
L 170.914395 103.529978 
L 172.433596 103.396525 
L 174.128088 103.24535 
L 176.640612 103.063111 
L 179.328429 102.899149 
L 179.386859 95.918195 
L 179.44529 100.159054 
L 179.737444 109.226281 
L 180.029598 112.518568 
L 180.321752 113.691398 
L 180.672337 114.182917 
L 181.139783 114.395269 
L 181.782522 114.482184 
L 181.957814 114.442508 
L 182.775845 114.651903 
L 185.872677 115.140402 
L 186.456985 115.12628 
L 187.56717 115.379537 
L 188.443632 115.404944 
L 189.144801 115.507622 
L 189.962832 115.579504 
L 190.54714 115.620292 
L 191.189879 115.694148 
L 191.832617 115.716975 
L 194.345141 115.920721 
L 195.922773 116.032825 
L 198.552158 116.173974 
L 202.233298 116.349804 
L 208.543823 116.556618 
L 208.602254 116.954308 
L 208.660685 118.689589 
L 208.719115 117.699797 
L 208.952839 114.021515 
L 209.186562 113.084662 
L 209.420285 112.865349 
L 209.8293 112.89594 
L 210.881055 113.0079 
L 211.815947 112.876121 
L 212.166532 112.923009 
L 214.737487 113.123181 
L 216.782564 113.107114 
L 216.957857 113.044045 
L 218.068042 113.242897 
L 219.061365 113.14325 
L 220.113119 113.176812 
L 220.463704 113.171736 
L 221.223304 113.230216 
L 221.749181 113.209539 
L 222.39192 113.241715 
L 222.917797 113.231703 
L 223.502105 113.256158 
L 224.086413 113.256205 
L 224.670721 113.257247 
L 225.255029 113.27871 
L 225.897767 113.256006 
L 228.234999 113.282639 
L 230.689092 113.319823 
L 233.961216 113.338461 
L 237.759218 113.349702 
L 237.817648 130.552181 
L 237.876079 129.284092 
L 238.168233 116.565094 
L 238.460387 113.010275 
L 238.752541 111.951875 
L 239.044695 111.645382 
L 239.570572 111.521062 
L 239.862726 111.506716 
L 242.024665 111.262466 
L 244.478758 111.311408 
L 244.654051 111.314224 
L 245.121497 111.222912 
L 247.049713 111.150553 
L 247.283436 111.162177 
L 248.159898 111.00699 
L 249.211652 111.018989 
L 249.679098 110.966018 
L 250.438699 110.971335 
L 250.906145 110.933968 
L 251.548884 110.942466 
L 252.074761 110.906532 
L 252.717499 110.896006 
L 253.243377 110.884212 
L 253.827684 110.863302 
L 254.470423 110.867022 
L 255.872762 110.824097 
L 257.275101 110.772271 
L 266.974612 110.629532 
L 266.974612 110.629532 
" clip-path="url(#p09b1cbf275)" style="fill: none; stroke: #1f77b4; stroke-width: 1.5; stroke-linecap: square"/>
    <defs>
     <path id="mecff811a18" d="M -0 2.5 
L 2.5 -2.5 
L -2.5 -2.5 
z
" style="stroke: #1f77b4; stroke-linejoin: miter"/>
    </defs>
    <g clip-path="url(#p09b1cbf275)">
     <use xlink:href="#mecff811a18" x="62.466851" y="77.376451" style="fill: #1f77b4; stroke: #1f77b4; stroke-linejoin: miter"/>
     <use xlink:href="#mecff811a18" x="68.30993" y="106.563882" style="fill: #1f77b4; stroke: #1f77b4; stroke-linejoin: miter"/>
     <use xlink:href="#mecff811a18" x="74.153009" y="105.447883" style="fill: #1f77b4; stroke: #1f77b4; stroke-linejoin: miter"/>
     <use xlink:href="#mecff811a18" x="79.996088" y="104.70655" style="fill: #1f77b4; stroke: #1f77b4; stroke-linejoin: miter"/>
     <use xlink:href="#mecff811a18" x="85.839166" y="104.218877" style="fill: #1f77b4; stroke: #1f77b4; stroke-linejoin: miter"/>
     <use xlink:href="#mecff811a18" x="91.682245" y="103.883282" style="fill: #1f77b4; stroke: #1f77b4; stroke-linejoin: miter"/>
     <use xlink:href="#mecff811a18" x="97.525324" y="108.897408" style="fill: #1f77b4; stroke: #1f77b4; stroke-linejoin: miter"/>
     <use xlink:href="#mecff811a18" x="103.368403" y="108.186684" style="fill: #1f77b4; stroke: #1f77b4; stroke-linejoin: miter"/>
     <use xlink:href="#mecff811a18" x="109.211482" y="107.633979" style="fill: #1f77b4; stroke: #1f77b4; stroke-linejoin: miter"/>
     <use xlink:href="#mecff811a18" x="115.054561" y="107.276499" style="fill: #1f77b4; stroke: #1f77b4; stroke-linejoin: miter"/>
     <use xlink:href="#mecff811a18" x="120.89764" y="107.04526" style="fill: #1f77b4; stroke: #1f77b4; stroke-linejoin: miter"/>
     <use xlink:href="#mecff811a18" x="126.740719" y="113.985343" style="fill: #1f77b4; stroke: #1f77b4; stroke-linejoin: miter"/>
     <use xlink:href="#mecff811a18" x="132.583798" y="114.419594" style="fill: #1f77b4; stroke: #1f77b4; stroke-linejoin: miter"/>
     <use xlink:href="#mecff811a18" x="138.426876" y="114.710873" style="fill: #1f77b4; stroke: #1f77b4; stroke-linejoin: miter"/>
     <use xlink:href="#mecff811a18" x="144.269955" y="114.904056" style="fill: #1f77b4; stroke: #1f77b4; stroke-linejoin: miter"/>
     <use xlink:href="#mecff811a18" x="150.113034" y="115.035526" style="fill: #1f77b4; stroke: #1f77b4; stroke-linejoin: miter"/>
     <use xlink:href="#mecff811a18" x="155.956113" y="106.08707" style="fill: #1f77b4; stroke: #1f77b4; stroke-linejoin: miter"/>
     <use xlink:href="#mecff811a18" x="161.799192" y="104.811296" style="fill: #1f77b4; stroke: #1f77b4; stroke-linejoin: miter"/>
     <use xlink:href="#mecff811a18" x="167.642271" y="103.893264" style="fill: #1f77b4; stroke: #1f77b4; stroke-linejoin: miter"/>
     <use xlink:href="#mecff811a18" x="173.48535" y="103.303621" style="fill: #1f77b4; stroke: #1f77b4; stroke-linejoin: miter"/>
     <use xlink:href="#mecff811a18" x="179.328429" y="102.899149" style="fill: #1f77b4; stroke: #1f77b4; stroke-linejoin: miter"/>
     <use xlink:href="#mecff811a18" x="185.171508" y="115.101384" style="fill: #1f77b4; stroke: #1f77b4; stroke-linejoin: miter"/>
     <use xlink:href="#mecff811a18" x="191.014586" y="115.657583" style="fill: #1f77b4; stroke: #1f77b4; stroke-linejoin: miter"/>
     <use xlink:href="#mecff811a18" x="196.857665" y="116.091909" style="fill: #1f77b4; stroke: #1f77b4; stroke-linejoin: miter"/>
     <use xlink:href="#mecff811a18" x="202.700744" y="116.363904" style="fill: #1f77b4; stroke: #1f77b4; stroke-linejoin: miter"/>
     <use xlink:href="#mecff811a18" x="208.543823" y="116.556618" style="fill: #1f77b4; stroke: #1f77b4; stroke-linejoin: miter"/>
     <use xlink:href="#mecff811a18" x="214.386902" y="113.108118" style="fill: #1f77b4; stroke: #1f77b4; stroke-linejoin: miter"/>
     <use xlink:href="#mecff811a18" x="220.229981" y="113.145411" style="fill: #1f77b4; stroke: #1f77b4; stroke-linejoin: miter"/>
     <use xlink:href="#mecff811a18" x="226.07306" y="113.257484" style="fill: #1f77b4; stroke: #1f77b4; stroke-linejoin: miter"/>
     <use xlink:href="#mecff811a18" x="231.916139" y="113.329197" style="fill: #1f77b4; stroke: #1f77b4; stroke-linejoin: miter"/>
     <use xlink:href="#mecff811a18" x="237.759218" y="113.349702" style="fill: #1f77b4; stroke: #1f77b4; stroke-linejoin: miter"/>
     <use xlink:href="#mecff811a18" x="243.602296" y="111.245178" style="fill: #1f77b4; stroke: #1f77b4; stroke-linejoin: miter"/>
     <use xlink:href="#mecff811a18" x="249.445375" y="110.951921" style="fill: #1f77b4; stroke: #1f77b4; stroke-linejoin: miter"/>
     <use xlink:href="#mecff811a18" x="255.288454" y="110.81797" style="fill: #1f77b4; stroke: #1f77b4; stroke-linejoin: miter"/>
     <use xlink:href="#mecff811a18" x="261.131533" y="110.71652" style="fill: #1f77b4; stroke: #1f77b4; stroke-linejoin: miter"/>
     <use xlink:href="#mecff811a18" x="266.974612" y="110.629532" style="fill: #1f77b4; stroke: #1f77b4; stroke-linejoin: miter"/>
    </g>
   </g>
   <g id="line2d_24">
    <path d="M 62.466851 153.706522 
L 62.525282 65.930782 
L 62.583712 75.85327 
L 62.875866 102.637665 
L 63.16802 112.520773 
L 63.460174 116.243458 
L 63.752328 117.685564 
L 64.102913 118.358726 
L 64.570359 118.715585 
L 65.563683 119.093845 
L 69.770699 120.537982 
L 73.568701 121.477403 
L 77.366702 122.186795 
L 81.982734 122.821385 
L 87.533659 123.350088 
L 91.682245 123.627007 
L 91.740676 163.612256 
L 91.799107 156.913743 
L 92.149692 121.967536 
L 92.441846 112.590364 
L 92.733999 109.187741 
L 93.026153 107.926415 
L 93.376738 107.372467 
L 93.902615 107.053308 
L 96.239847 106.080934 
L 97.99277 105.623884 
L 105.997789 103.827382 
L 114.061237 102.812627 
L 118.910993 102.435664 
L 120.89764 102.315295 
L 120.956071 92.434811 
L 121.014501 96.540689 
L 121.306655 108.068948 
L 121.598809 112.295702 
L 121.890963 113.863836 
L 122.183117 114.466387 
L 122.592133 114.77645 
L 123.410164 114.993346 
L 126.565426 115.53652 
L 133.226536 116.313314 
L 140.471954 116.823266 
L 148.769126 117.156094 
L 150.113034 117.193564 
L 150.171465 153.639364 
L 150.229896 148.581596 
L 150.58048 120.449042 
L 150.872634 112.804044 
L 151.164788 110.041063 
L 151.456942 109.021016 
L 151.807527 108.574425 
L 152.391835 108.293641 
L 154.96279 107.440792 
L 156.832575 107.108788 
L 158.760791 106.664391 
L 160.279991 106.383885 
L 163.026239 105.940315 
L 174.537104 104.808596 
L 179.328429 104.55351 
L 179.44529 114.732615 
L 179.562152 114.260458 
L 179.854306 113.234847 
L 180.20489 112.799371 
L 180.730768 112.545653 
L 181.782522 112.336897 
L 182.074676 112.328612 
L 183.12643 112.388392 
L 185.697385 112.544535 
L 187.041293 112.545721 
L 189.02794 112.539386 
L 208.543823 112.611385 
L 208.602254 142.489214 
L 208.660685 139.177615 
L 209.011269 118.541052 
L 209.303423 112.850749 
L 209.595577 110.746565 
L 209.887731 109.943808 
L 210.238316 109.574963 
L 210.881055 109.298505 
L 212.809271 108.715221 
L 214.27004 108.520741 
L 216.315118 108.205341 
L 218.068042 107.921368 
L 230.689092 106.734486 
L 237.467064 106.42811 
L 237.759218 106.418402 
L 238.109802 112.591545 
L 238.635679 113.656015 
L 239.044695 113.889703 
L 239.804295 114.011233 
L 241.089772 113.968513 
L 242.083096 113.969396 
L 243.83602 114.16004 
L 245.35522 114.234917 
L 249.679098 114.335292 
L 264.403657 114.55018 
L 266.974612 114.569747 
L 266.974612 114.569747 
" clip-path="url(#p09b1cbf275)" style="fill: none; stroke: #ff7f0e; stroke-width: 1.5; stroke-linecap: square"/>
    <defs>
     <path id="m4ea4b90927" d="M -0 2.5 
L 2.5 -2.5 
L -2.5 -2.5 
z
" style="stroke: #ff7f0e; stroke-linejoin: miter"/>
    </defs>
    <g clip-path="url(#p09b1cbf275)">
     <use xlink:href="#m4ea4b90927" x="62.466851" y="153.706522" style="fill: #ff7f0e; stroke: #ff7f0e; stroke-linejoin: miter"/>
     <use xlink:href="#m4ea4b90927" x="68.30993" y="120.128447" style="fill: #ff7f0e; stroke: #ff7f0e; stroke-linejoin: miter"/>
     <use xlink:href="#m4ea4b90927" x="74.153009" y="121.601204" style="fill: #ff7f0e; stroke: #ff7f0e; stroke-linejoin: miter"/>
     <use xlink:href="#m4ea4b90927" x="79.996088" y="122.573848" style="fill: #ff7f0e; stroke: #ff7f0e; stroke-linejoin: miter"/>
     <use xlink:href="#m4ea4b90927" x="85.839166" y="123.210647" style="fill: #ff7f0e; stroke: #ff7f0e; stroke-linejoin: miter"/>
     <use xlink:href="#m4ea4b90927" x="91.682245" y="123.627007" style="fill: #ff7f0e; stroke: #ff7f0e; stroke-linejoin: miter"/>
     <use xlink:href="#m4ea4b90927" x="97.525324" y="105.734066" style="fill: #ff7f0e; stroke: #ff7f0e; stroke-linejoin: miter"/>
     <use xlink:href="#m4ea4b90927" x="103.368403" y="104.302302" style="fill: #ff7f0e; stroke: #ff7f0e; stroke-linejoin: miter"/>
     <use xlink:href="#m4ea4b90927" x="109.211482" y="103.348732" style="fill: #ff7f0e; stroke: #ff7f0e; stroke-linejoin: miter"/>
     <use xlink:href="#m4ea4b90927" x="115.054561" y="102.724739" style="fill: #ff7f0e; stroke: #ff7f0e; stroke-linejoin: miter"/>
     <use xlink:href="#m4ea4b90927" x="120.89764" y="102.315295" style="fill: #ff7f0e; stroke: #ff7f0e; stroke-linejoin: miter"/>
     <use xlink:href="#m4ea4b90927" x="126.740719" y="115.559528" style="fill: #ff7f0e; stroke: #ff7f0e; stroke-linejoin: miter"/>
     <use xlink:href="#m4ea4b90927" x="132.583798" y="116.253221" style="fill: #ff7f0e; stroke: #ff7f0e; stroke-linejoin: miter"/>
     <use xlink:href="#m4ea4b90927" x="138.426876" y="116.705499" style="fill: #ff7f0e; stroke: #ff7f0e; stroke-linejoin: miter"/>
     <use xlink:href="#m4ea4b90927" x="144.269955" y="117.000385" style="fill: #ff7f0e; stroke: #ff7f0e; stroke-linejoin: miter"/>
     <use xlink:href="#m4ea4b90927" x="150.113034" y="117.193564" style="fill: #ff7f0e; stroke: #ff7f0e; stroke-linejoin: miter"/>
     <use xlink:href="#m4ea4b90927" x="155.956113" y="107.251129" style="fill: #ff7f0e; stroke: #ff7f0e; stroke-linejoin: miter"/>
     <use xlink:href="#m4ea4b90927" x="161.799192" y="106.127286" style="fill: #ff7f0e; stroke: #ff7f0e; stroke-linejoin: miter"/>
     <use xlink:href="#m4ea4b90927" x="167.642271" y="105.373755" style="fill: #ff7f0e; stroke: #ff7f0e; stroke-linejoin: miter"/>
     <use xlink:href="#m4ea4b90927" x="173.48535" y="104.877296" style="fill: #ff7f0e; stroke: #ff7f0e; stroke-linejoin: miter"/>
     <use xlink:href="#m4ea4b90927" x="179.328429" y="104.55351" style="fill: #ff7f0e; stroke: #ff7f0e; stroke-linejoin: miter"/>
     <use xlink:href="#m4ea4b90927" x="185.171508" y="112.568168" style="fill: #ff7f0e; stroke: #ff7f0e; stroke-linejoin: miter"/>
     <use xlink:href="#m4ea4b90927" x="191.014586" y="112.564767" style="fill: #ff7f0e; stroke: #ff7f0e; stroke-linejoin: miter"/>
     <use xlink:href="#m4ea4b90927" x="196.857665" y="112.583094" style="fill: #ff7f0e; stroke: #ff7f0e; stroke-linejoin: miter"/>
     <use xlink:href="#m4ea4b90927" x="202.700744" y="112.601195" style="fill: #ff7f0e; stroke: #ff7f0e; stroke-linejoin: miter"/>
     <use xlink:href="#m4ea4b90927" x="208.543823" y="112.611385" style="fill: #ff7f0e; stroke: #ff7f0e; stroke-linejoin: miter"/>
     <use xlink:href="#m4ea4b90927" x="214.386902" y="108.507969" style="fill: #ff7f0e; stroke: #ff7f0e; stroke-linejoin: miter"/>
     <use xlink:href="#m4ea4b90927" x="220.229981" y="107.64044" style="fill: #ff7f0e; stroke: #ff7f0e; stroke-linejoin: miter"/>
     <use xlink:href="#m4ea4b90927" x="226.07306" y="107.052308" style="fill: #ff7f0e; stroke: #ff7f0e; stroke-linejoin: miter"/>
     <use xlink:href="#m4ea4b90927" x="231.916139" y="106.666948" style="fill: #ff7f0e; stroke: #ff7f0e; stroke-linejoin: miter"/>
     <use xlink:href="#m4ea4b90927" x="237.759218" y="106.418402" style="fill: #ff7f0e; stroke: #ff7f0e; stroke-linejoin: miter"/>
     <use xlink:href="#m4ea4b90927" x="243.602296" y="114.129608" style="fill: #ff7f0e; stroke: #ff7f0e; stroke-linejoin: miter"/>
     <use xlink:href="#m4ea4b90927" x="249.445375" y="114.332825" style="fill: #ff7f0e; stroke: #ff7f0e; stroke-linejoin: miter"/>
     <use xlink:href="#m4ea4b90927" x="255.288454" y="114.445572" style="fill: #ff7f0e; stroke: #ff7f0e; stroke-linejoin: miter"/>
     <use xlink:href="#m4ea4b90927" x="261.131533" y="114.519587" style="fill: #ff7f0e; stroke: #ff7f0e; stroke-linejoin: miter"/>
     <use xlink:href="#m4ea4b90927" x="266.974612" y="114.569747" style="fill: #ff7f0e; stroke: #ff7f0e; stroke-linejoin: miter"/>
    </g>
   </g>
   <g id="line2d_25">
    <path d="M 62.466851 20.899167 
L 62.525282 104.560579 
L 62.583712 94.822027 
L 62.875866 66.209279 
L 63.16802 56.421375 
L 63.460174 53.053013 
L 63.752328 51.847932 
L 64.102913 51.315213 
L 64.62879 50.999032 
L 65.855837 50.58616 
L 70.705592 49.56065 
L 71.582054 49.393456 
L 72.224793 49.277717 
L 73.101254 49.113083 
L 74.620455 48.889039 
L 76.373379 48.659577 
L 77.95101 48.454287 
L 81.573719 48.085586 
L 86.83249 47.674801 
L 91.682245 47.405998 
L 91.740676 117.647889 
L 91.799107 112.646114 
L 92.091261 85.934392 
L 92.383415 77.865108 
L 92.675569 75.457993 
L 92.967723 74.76269 
L 93.318307 74.532111 
L 94.779077 74.173059 
L 96.532001 73.805045 
L 98.986094 73.581033 
L 100.855879 73.252489 
L 102.024495 73.135825 
L 102.667234 73.013449 
L 103.485265 72.954198 
L 103.89428 72.863673 
L 104.712311 72.829692 
L 105.179758 72.754326 
L 105.822496 72.736649 
L 106.406804 72.659974 
L 106.932681 72.639833 
L 107.57542 72.571929 
L 108.101297 72.531248 
L 108.685605 72.486204 
L 109.269913 72.430837 
L 109.912651 72.412514 
L 111.431852 72.286922 
L 112.717329 72.200752 
L 120.89764 71.855032 
L 121.014501 126.467695 
L 121.306655 133.081614 
L 121.598809 135.285634 
L 121.890963 136.026248 
L 122.241548 136.314676 
L 122.825856 136.438754 
L 128.026196 136.988138 
L 140.822539 137.678864 
L 150.113034 137.915564 
L 150.288327 88.977777 
L 150.58048 57.752521 
L 150.872634 47.973232 
L 151.164788 44.86998 
L 151.456942 43.872371 
L 151.807527 43.47163 
L 152.450266 43.179153 
L 154.436913 42.43579 
L 156.949436 41.865234 
L 157.18316 41.887932 
L 157.825898 41.640984 
L 159.578822 41.239785 
L 159.870976 41.228851 
L 160.747438 40.917361 
L 161.799192 40.785451 
L 162.325069 40.642765 
L 163.084669 40.541709 
L 163.493685 40.439905 
L 164.253285 40.349614 
L 164.720731 40.264258 
L 165.305039 40.206479 
L 165.889347 40.1057 
L 166.473655 40.029883 
L 167.057963 39.960332 
L 167.642271 39.867419 
L 168.28501 39.821317 
L 170.914395 39.504133 
L 172.433596 39.370681 
L 174.128088 39.219506 
L 176.640612 39.037267 
L 179.328429 38.873305 
L 179.44529 132.182817 
L 179.737444 141.250045 
L 180.029598 144.542331 
L 180.321752 145.715161 
L 180.672337 146.20668 
L 181.139783 146.419032 
L 181.782522 146.505947 
L 181.957814 146.466271 
L 182.775845 146.675666 
L 185.872677 147.164165 
L 186.456985 147.150043 
L 187.56717 147.4033 
L 188.443632 147.428708 
L 189.144801 147.531386 
L 189.962832 147.603267 
L 190.54714 147.644055 
L 191.189879 147.717911 
L 191.832617 147.740738 
L 194.345141 147.944484 
L 195.922773 148.056588 
L 198.552158 148.197737 
L 202.233298 148.373567 
L 208.543823 148.580381 
L 208.602254 125.923025 
L 208.660685 127.658306 
L 209.0697 122.3695 
L 209.303423 121.898431 
L 209.595577 121.822946 
L 211.465363 121.952424 
L 213.276717 121.958143 
L 215.789241 122.15034 
L 217.834318 122.169006 
L 218.068042 122.211614 
L 219.061365 122.111967 
L 220.113119 122.145529 
L 220.463704 122.140453 
L 221.223304 122.198933 
L 221.749181 122.178256 
L 222.39192 122.210432 
L 222.917797 122.200419 
L 223.502105 122.224875 
L 224.086413 122.224921 
L 224.670721 122.225964 
L 225.255029 122.247427 
L 225.897767 122.224722 
L 228.234999 122.251356 
L 230.689092 122.288539 
L 233.961216 122.307178 
L 237.759218 122.318419 
L 237.992941 112.499256 
L 238.226664 105.485386 
L 238.518818 102.704911 
L 238.810972 101.876092 
L 239.103126 101.637363 
L 239.629003 101.55616 
L 240.447034 101.440306 
L 242.492111 101.246407 
L 244.712481 101.308971 
L 245.179928 101.237156 
L 247.049713 101.169914 
L 247.283436 101.181537 
L 248.159898 101.02635 
L 249.211652 101.038349 
L 249.679098 100.985379 
L 250.438699 100.990695 
L 250.906145 100.953329 
L 251.548884 100.961826 
L 252.074761 100.925892 
L 252.717499 100.915367 
L 253.243377 100.903572 
L 253.827684 100.882662 
L 254.470423 100.886382 
L 255.872762 100.843457 
L 257.275101 100.791632 
L 266.974612 100.648893 
L 266.974612 100.648893 
" clip-path="url(#p09b1cbf275)" style="fill: none; stroke: #1f77b4; stroke-width: 2; stroke-linecap: square"/>
   </g>
   <g id="line2d_26">
    <path d="M 62.466851 222.882516 
L 62.525282 135.106776 
L 62.583712 145.029264 
L 62.875866 171.813659 
L 63.16802 181.696767 
L 63.460174 185.419453 
L 63.752328 186.861558 
L 64.102913 187.53472 
L 64.570359 187.891579 
L 65.563683 188.269839 
L 69.770699 189.713977 
L 73.568701 190.653397 
L 77.366702 191.36279 
L 81.982734 191.997379 
L 87.533659 192.526082 
L 91.682245 192.803001 
L 91.857538 91.323583 
L 92.149692 64.654445 
L 92.441846 55.277274 
L 92.733999 51.87465 
L 93.026153 50.613324 
L 93.376738 50.059377 
L 93.902615 49.740217 
L 96.239847 48.767844 
L 97.99277 48.310793 
L 105.997789 46.514291 
L 114.061237 45.499536 
L 118.910993 45.122574 
L 120.89764 45.002204 
L 121.014501 127.339556 
L 121.306655 138.867815 
L 121.598809 143.094569 
L 121.890963 144.662703 
L 122.183117 145.265254 
L 122.592133 145.575317 
L 123.410164 145.792213 
L 126.565426 146.335387 
L 133.226536 147.112181 
L 140.471954 147.622133 
L 148.769126 147.954961 
L 150.113034 147.992431 
L 150.288327 97.912209 
L 150.58048 76.313083 
L 150.872634 68.668085 
L 151.164788 65.905104 
L 151.456942 64.885057 
L 151.807527 64.438466 
L 152.391835 64.157683 
L 154.96279 63.304833 
L 156.832575 62.972829 
L 158.760791 62.528432 
L 160.279991 62.247926 
L 163.026239 61.804356 
L 174.537104 60.672637 
L 179.328429 60.417551 
L 179.44529 117.525441 
L 179.562152 117.053283 
L 179.854306 116.027672 
L 180.20489 115.592197 
L 180.730768 115.338479 
L 181.782522 115.129723 
L 182.074676 115.121438 
L 183.12643 115.181218 
L 185.697385 115.33736 
L 187.041293 115.338547 
L 189.02794 115.332212 
L 208.543823 115.404211 
L 208.952839 88.468819 
L 209.244993 81.486284 
L 209.537146 78.925303 
L 209.8293 77.955196 
L 210.179885 77.519746 
L 210.764193 77.245481 
L 212.75084 76.632027 
L 214.27004 76.425252 
L 216.315118 76.109853 
L 218.068042 75.82588 
L 230.689092 74.638998 
L 237.467064 74.332622 
L 237.759218 74.322914 
L 237.876079 126.90581 
L 238.051371 128.012323 
L 238.927833 129.373197 
L 239.570572 129.517782 
L 240.680757 129.510744 
L 242.199957 129.501419 
L 243.89445 129.693662 
L 245.35522 129.761491 
L 249.679098 129.861866 
L 264.403657 130.076754 
L 266.974612 130.096321 
L 266.974612 130.096321 
" clip-path="url(#p09b1cbf275)" style="fill: none; stroke: #ff7f0e; stroke-width: 2; stroke-linecap: square"/>
   </g>
   <g id="patch_3">
    <path d="M 52.241463 232.981683 
L 52.241463 10.8 
" style="fill: none; stroke: #000000; stroke-width: 0.8; stroke-linejoin: miter; stroke-linecap: square"/>
   </g>
   <g id="patch_4">
    <path d="M 277.2 232.981683 
L 277.2 10.8 
" style="fill: none; stroke: #000000; stroke-width: 0.8; stroke-linejoin: miter; stroke-linecap: square"/>
   </g>
   <g id="patch_5">
    <path d="M 52.241463 232.981683 
L 277.2 232.981683 
" style="fill: none; stroke: #000000; stroke-width: 0.8; stroke-linejoin: miter; stroke-linecap: square"/>
   </g>
   <g id="patch_6">
    <path d="M 52.241463 10.8 
L 277.2 10.8 
" style="fill: none; stroke: #000000; stroke-width: 0.8; stroke-linejoin: miter; stroke-linecap: square"/>
   </g>
   <g id="legend_1">
    <g id="patch_7">
     <path d="M 220.63732 227.981683 
L 270.2 227.981683 
Q 272.2 227.981683 272.2 225.981683 
L 272.2 139.705747 
Q 272.2 137.705747 270.2 137.705747 
L 220.63732 137.705747 
Q 218.63732 137.705747 218.63732 139.705747 
L 218.63732 225.981683 
Q 218.63732 227.981683 220.63732 227.981683 
z
" style="fill: #ffffff; opacity: 0.8; stroke: #cccccc; stroke-linejoin: miter"/>
    </g>
    <g id="line2d_27">
     <path d="M 222.63732 145.205747 
L 232.63732 145.205747 
L 242.63732 145.205747 
" style="fill: none; stroke: #1f77b4; stroke-width: 1.5; stroke-linecap: square"/>
     <g>
      <use xlink:href="#mee473e5405" x="232.63732" y="145.205747" style="fill: #1f77b4; stroke: #1f77b4"/>
     </g>
    </g>
    <g id="text_13">
     <!-- $\tau_\mathrm{ff,1}$ -->
     <g transform="translate(250.63732 148.705747) scale(0.1 -0.1)">
      <defs>
       <path id="CMMI12-1c" d="M 1837 2408 
L 2899 2408 
C 2982 2408 3194 2408 3194 2612 
C 3194 2752 3072 2752 2957 2752 
L 1197 2752 
C 1050 2752 832 2752 538 2440 
C 371 2255 166 1917 166 1879 
C 166 1841 198 1828 237 1828 
C 282 1828 288 1847 320 1885 
C 653 2408 986 2408 1146 2408 
L 1677 2408 
L 1011 223 
C 979 127 979 114 979 95 
C 979 25 1024 -64 1152 -64 
C 1350 -64 1382 108 1402 203 
L 1837 2408 
z
" transform="scale(0.015625)"/>
       <path id="CMR17-b" d="M 2554 2560 
L 3283 2560 
L 3283 2725 
L 2541 2725 
L 2541 3494 
C 2541 4022 2810 4352 3085 4352 
C 3168 4352 3264 4327 3328 4282 
C 3277 4269 3142 4225 3142 4067 
C 3142 3901 3270 3850 3360 3850 
C 3450 3850 3578 3901 3578 4067 
C 3578 4308 3347 4454 3091 4454 
C 2842 4454 2637 4333 2477 4181 
C 2330 4390 2086 4454 1837 4454 
C 1338 4454 634 4168 634 3469 
L 634 2725 
L 122 2725 
L 122 2560 
L 634 2560 
L 634 427 
C 634 184 608 153 198 153 
L 198 -13 
C 352 0 634 0 794 0 
C 960 0 1242 0 1395 -13 
L 1395 153 
C 986 153 960 178 960 427 
L 960 2560 
L 2227 2560 
L 2227 427 
C 2227 184 2202 153 1792 153 
L 1792 -13 
C 1946 0 2240 0 2406 0 
C 2592 0 2918 0 3091 -13 
L 3091 153 
C 2630 153 2554 153 2554 439 
L 2554 2560 
z
M 947 2725 
L 947 3469 
C 947 4047 1395 4352 1824 4352 
C 1920 4352 2170 4332 2323 4187 
C 2208 4187 2099 4136 2099 3977 
C 2099 3812 2246 3767 2259 3767 
C 2227 3652 2227 3526 2227 3481 
L 2227 2725 
L 947 2725 
z
" transform="scale(0.015625)"/>
       <path id="CMMI12-3b" d="M 1248 -31 
C 1248 343 1126 619 864 619 
C 659 619 557 453 557 313 
C 557 172 653 0 870 0 
C 954 0 1024 26 1082 83 
C 1094 96 1101 96 1107 96 
C 1120 96 1120 5 1120 -27 
C 1120 -240 1082 -659 710 -1080 
C 640 -1157 640 -1170 640 -1183 
C 640 -1216 672 -1248 704 -1248 
C 755 -1248 1248 -771 1248 -31 
z
" transform="scale(0.015625)"/>
      </defs>
      <use xlink:href="#CMMI12-1c" transform="scale(0.996264)"/>
      <use xlink:href="#CMR17-b" transform="translate(42.363841 -14.943915) scale(0.697382)"/>
      <use xlink:href="#CMMI12-3b" transform="translate(83.138776 -14.943915) scale(0.697382)"/>
      <use xlink:href="#CMR17-31" transform="translate(102.106709 -14.943915) scale(0.697382)"/>
     </g>
    </g>
    <g id="line2d_28">
     <path d="M 222.63732 160.056142 
L 232.63732 160.056142 
L 242.63732 160.056142 
" style="fill: none; stroke: #ff7f0e; stroke-width: 1.5; stroke-linecap: square"/>
     <g>
      <use xlink:href="#mc2bcfab018" x="232.63732" y="160.056142" style="fill: #ff7f0e; stroke: #ff7f0e"/>
     </g>
    </g>
    <g id="text_14">
     <!-- $\tau_\mathrm{ff,2}$ -->
     <g transform="translate(250.63732 163.556142) scale(0.1 -0.1)">
      <use xlink:href="#CMMI12-1c" transform="scale(0.996264)"/>
      <use xlink:href="#CMR17-b" transform="translate(42.363841 -14.943915) scale(0.697382)"/>
      <use xlink:href="#CMMI12-3b" transform="translate(83.138776 -14.943915) scale(0.697382)"/>
      <use xlink:href="#CMR17-32" transform="translate(102.106709 -14.943915) scale(0.697382)"/>
     </g>
    </g>
    <g id="line2d_29">
     <path d="M 222.63732 174.906537 
L 232.63732 174.906537 
L 242.63732 174.906537 
" style="fill: none; stroke: #1f77b4; stroke-width: 1.5; stroke-linecap: square"/>
     <g>
      <use xlink:href="#mecff811a18" x="232.63732" y="174.906537" style="fill: #1f77b4; stroke: #1f77b4; stroke-linejoin: miter"/>
     </g>
    </g>
    <g id="text_15">
     <!-- $\tau_{\mathrm{fb},1}$ -->
     <g transform="translate(250.63732 178.406537) scale(0.1 -0.1)">
      <defs>
       <path id="CMR17-62" d="M 960 4396 
L 198 4326 
L 198 4160 
C 576 4160 634 4122 634 3817 
L 634 -13 
L 749 -13 
L 934 441 
C 1120 141 1395 -64 1766 -64 
C 2406 -64 3053 500 3053 1370 
C 3053 2188 2477 2790 1830 2790 
C 1434 2790 1152 2579 960 2330 
L 960 4396 
z
M 973 2004 
C 973 2118 973 2138 1062 2272 
C 1312 2657 1670 2688 1792 2688 
C 1984 2688 2643 2585 2643 1376 
C 2643 108 1888 38 1734 38 
C 1536 38 1248 114 1043 486 
C 973 608 973 621 973 735 
L 973 2004 
z
" transform="scale(0.015625)"/>
      </defs>
      <use xlink:href="#CMMI12-1c" transform="scale(0.996264)"/>
      <use xlink:href="#CMR17-66" transform="translate(42.363841 -14.943915) scale(0.697382)"/>
      <use xlink:href="#CMR17-62" transform="translate(61.595205 -14.943915) scale(0.697382)"/>
      <use xlink:href="#CMMI12-3b" transform="translate(97.221813 -14.943915) scale(0.697382)"/>
      <use xlink:href="#CMR17-31" transform="translate(116.189746 -14.943915) scale(0.697382)"/>
     </g>
    </g>
    <g id="line2d_30">
     <path d="M 222.63732 189.756932 
L 232.63732 189.756932 
L 242.63732 189.756932 
" style="fill: none; stroke: #ff7f0e; stroke-width: 1.5; stroke-linecap: square"/>
     <g>
      <use xlink:href="#m4ea4b90927" x="232.63732" y="189.756932" style="fill: #ff7f0e; stroke: #ff7f0e; stroke-linejoin: miter"/>
     </g>
    </g>
    <g id="text_16">
     <!-- $\tau_{\mathrm{fb},2}$ -->
     <g transform="translate(250.63732 193.256932) scale(0.1 -0.1)">
      <use xlink:href="#CMMI12-1c" transform="scale(0.996264)"/>
      <use xlink:href="#CMR17-66" transform="translate(42.363841 -14.943915) scale(0.697382)"/>
      <use xlink:href="#CMR17-62" transform="translate(61.595205 -14.943915) scale(0.697382)"/>
      <use xlink:href="#CMMI12-3b" transform="translate(97.221813 -14.943915) scale(0.697382)"/>
      <use xlink:href="#CMR17-32" transform="translate(116.189746 -14.943915) scale(0.697382)"/>
     </g>
    </g>
    <g id="line2d_31">
     <path d="M 222.63732 204.607327 
L 232.63732 204.607327 
L 242.63732 204.607327 
" style="fill: none; stroke: #1f77b4; stroke-width: 2; stroke-linecap: square"/>
    </g>
    <g id="text_17">
     <!-- $\tau_1$ -->
     <g transform="translate(250.63732 208.107327) scale(0.1 -0.1)">
      <use xlink:href="#CMMI12-1c" transform="scale(0.996264)"/>
      <use xlink:href="#CMR17-31" transform="translate(42.363841 -14.943915) scale(0.697382)"/>
     </g>
    </g>
    <g id="line2d_32">
     <path d="M 222.63732 218.544505 
L 232.63732 218.544505 
L 242.63732 218.544505 
" style="fill: none; stroke: #ff7f0e; stroke-width: 2; stroke-linecap: square"/>
    </g>
    <g id="text_18">
     <!-- $\tau_2$ -->
     <g transform="translate(250.63732 222.044505) scale(0.1 -0.1)">
      <use xlink:href="#CMMI12-1c" transform="scale(0.996264)"/>
      <use xlink:href="#CMR17-32" transform="translate(42.363841 -14.943915) scale(0.697382)"/>
     </g>
    </g>
   </g>
  </g>
 </g>
 <defs>
  <clipPath id="p09b1cbf275">
   <rect x="52.241463" y="10.8" width="224.958537" height="222.181683"/>
  </clipPath>
 </defs>
</svg>
