<?xml version="1.0" encoding="utf-8" standalone="no"?>
<!DOCTYPE svg PUBLIC "-//W3C//DTD SVG 1.1//EN"
  "http://www.w3.org/Graphics/SVG/1.1/DTD/svg11.dtd">
<svg xmlns:xlink="http://www.w3.org/1999/xlink" width="360pt" height="216pt" viewBox="0 0 360 216" xmlns="http://www.w3.org/2000/svg" version="1.1">
 <metadata>
  <rdf:RDF xmlns:dc="http://purl.org/dc/elements/1.1/" xmlns:cc="http://creativecommons.org/ns#" xmlns:rdf="http://www.w3.org/1999/02/22-rdf-syntax-ns#">
   <cc:Work>
    <dc:type rdf:resource="http://purl.org/dc/dcmitype/StillImage"/>
    <dc:date>2024-10-24T18:03:56.365369</dc:date>
    <dc:format>image/svg+xml</dc:format>
    <dc:creator>
     <cc:Agent>
      <dc:title>Matplotlib v3.9.2, https://matplotlib.org/</dc:title>
     </cc:Agent>
    </dc:creator>
   </cc:Work>
  </rdf:RDF>
 </metadata>
 <defs>
  <style type="text/css">*{stroke-linejoin: round; stroke-linecap: butt}</style>
 </defs>
 <g id="figure_1">
  <g id="patch_1">
   <path d="M 0 216 
L 360 216 
L 360 0 
L 0 0 
z
" style="fill: #ffffff"/>
  </g>
  <g id="axes_1">
   <g id="patch_2">
    <path d="M 57.222798 175.381683 
L 349.2 175.381683 
L 349.2 10.8 
L 57.222798 10.8 
z
" style="fill: #ffffff"/>
   </g>
   <g id="matplotlib.axis_1">
    <g id="xtick_1">
     <g id="line2d_1">
      <path d="M 70.494489 175.381683 
L 70.494489 10.8 
" clip-path="url(#p549677cf07)" style="fill: none; stroke: #b0b0b0; stroke-width: 0.8; stroke-linecap: square"/>
     </g>
     <g id="line2d_2">
      <defs>
       <path id="md2412b0464" d="M 0 0 
L 0 3.5 
" style="stroke: #000000; stroke-width: 0.8"/>
      </defs>
      <g>
       <use xlink:href="#md2412b0464" x="70.494489" y="175.381683" style="stroke: #000000; stroke-width: 0.8"/>
      </g>
     </g>
     <g id="text_1">
      <!-- $\mathdefault{0}$ -->
      <g transform="translate(68.003821 189.300182) scale(0.1 -0.1)">
       <defs>
        <path id="CMR17-30" d="M 2688 2025 
C 2688 2416 2682 3080 2413 3591 
C 2176 4039 1798 4198 1466 4198 
C 1158 4198 768 4058 525 3597 
C 269 3118 243 2524 243 2025 
C 243 1661 250 1106 448 619 
C 723 -39 1216 -128 1466 -128 
C 1760 -128 2208 -7 2470 600 
C 2662 1042 2688 1559 2688 2025 
z
M 1466 -26 
C 1056 -26 813 325 723 812 
C 653 1188 653 1738 653 2096 
C 653 2588 653 2997 736 3387 
C 858 3929 1216 4096 1466 4096 
C 1728 4096 2067 3923 2189 3400 
C 2272 3036 2278 2607 2278 2096 
C 2278 1680 2278 1169 2202 792 
C 2067 95 1690 -26 1466 -26 
z
" transform="scale(0.015625)"/>
       </defs>
       <use xlink:href="#CMR17-30" transform="scale(0.996264)"/>
      </g>
     </g>
    </g>
    <g id="xtick_2">
     <g id="line2d_3">
      <path d="M 108.413606 175.381683 
L 108.413606 10.8 
" clip-path="url(#p549677cf07)" style="fill: none; stroke: #b0b0b0; stroke-width: 0.8; stroke-linecap: square"/>
     </g>
     <g id="line2d_4">
      <g>
       <use xlink:href="#md2412b0464" x="108.413606" y="175.381683" style="stroke: #000000; stroke-width: 0.8"/>
      </g>
     </g>
     <g id="text_2">
      <!-- $\mathdefault{5}$ -->
      <g transform="translate(105.922939 189.300182) scale(0.1 -0.1)">
       <defs>
        <path id="CMR17-35" d="M 730 3692 
C 794 3666 1056 3584 1325 3584 
C 1920 3584 2246 3911 2432 4100 
C 2432 4157 2432 4192 2394 4192 
C 2387 4192 2374 4192 2323 4163 
C 2099 4058 1837 3973 1517 3973 
C 1325 3973 1037 3999 723 4139 
C 653 4171 640 4171 634 4171 
C 602 4171 595 4164 595 4037 
L 595 2203 
C 595 2089 595 2057 659 2057 
C 691 2057 704 2070 736 2114 
C 941 2401 1222 2522 1542 2522 
C 1766 2522 2246 2382 2246 1289 
C 2246 1085 2246 715 2054 421 
C 1894 159 1645 25 1370 25 
C 947 25 518 320 403 814 
C 429 807 480 795 506 795 
C 589 795 749 840 749 1038 
C 749 1210 627 1280 506 1280 
C 358 1280 262 1190 262 1011 
C 262 454 704 -128 1382 -128 
C 2042 -128 2669 440 2669 1264 
C 2669 2030 2170 2624 1549 2624 
C 1222 2624 947 2503 730 2274 
L 730 3692 
z
" transform="scale(0.015625)"/>
       </defs>
       <use xlink:href="#CMR17-35" transform="scale(0.996264)"/>
      </g>
     </g>
    </g>
    <g id="xtick_3">
     <g id="line2d_5">
      <path d="M 146.332723 175.381683 
L 146.332723 10.8 
" clip-path="url(#p549677cf07)" style="fill: none; stroke: #b0b0b0; stroke-width: 0.8; stroke-linecap: square"/>
     </g>
     <g id="line2d_6">
      <g>
       <use xlink:href="#md2412b0464" x="146.332723" y="175.381683" style="stroke: #000000; stroke-width: 0.8"/>
      </g>
     </g>
     <g id="text_3">
      <!-- $\mathdefault{10}$ -->
      <g transform="translate(141.351388 189.300182) scale(0.1 -0.1)">
       <defs>
        <path id="CMR17-31" d="M 1702 4058 
C 1702 4192 1696 4192 1606 4192 
C 1357 3916 979 3827 621 3827 
C 602 3827 570 3827 563 3808 
C 557 3795 557 3782 557 3648 
C 755 3648 1088 3686 1344 3839 
L 1344 461 
C 1344 236 1331 160 781 160 
L 589 160 
L 589 0 
C 896 0 1216 0 1523 0 
C 1830 0 2150 0 2458 0 
L 2458 160 
L 2266 160 
C 1715 160 1702 230 1702 458 
L 1702 4058 
z
" transform="scale(0.015625)"/>
       </defs>
       <use xlink:href="#CMR17-31" transform="scale(0.996264)"/>
       <use xlink:href="#CMR17-30" transform="translate(45.690477 0) scale(0.996264)"/>
      </g>
     </g>
    </g>
    <g id="xtick_4">
     <g id="line2d_7">
      <path d="M 184.25184 175.381683 
L 184.25184 10.8 
" clip-path="url(#p549677cf07)" style="fill: none; stroke: #b0b0b0; stroke-width: 0.8; stroke-linecap: square"/>
     </g>
     <g id="line2d_8">
      <g>
       <use xlink:href="#md2412b0464" x="184.25184" y="175.381683" style="stroke: #000000; stroke-width: 0.8"/>
      </g>
     </g>
     <g id="text_4">
      <!-- $\mathdefault{15}$ -->
      <g transform="translate(179.270505 189.300182) scale(0.1 -0.1)">
       <use xlink:href="#CMR17-31" transform="scale(0.996264)"/>
       <use xlink:href="#CMR17-35" transform="translate(45.690477 0) scale(0.996264)"/>
      </g>
     </g>
    </g>
    <g id="xtick_5">
     <g id="line2d_9">
      <path d="M 222.170958 175.381683 
L 222.170958 10.8 
" clip-path="url(#p549677cf07)" style="fill: none; stroke: #b0b0b0; stroke-width: 0.8; stroke-linecap: square"/>
     </g>
     <g id="line2d_10">
      <g>
       <use xlink:href="#md2412b0464" x="222.170958" y="175.381683" style="stroke: #000000; stroke-width: 0.8"/>
      </g>
     </g>
     <g id="text_5">
      <!-- $\mathdefault{20}$ -->
      <g transform="translate(217.189622 189.300182) scale(0.1 -0.1)">
       <defs>
        <path id="CMR17-32" d="M 2669 989 
L 2554 989 
C 2490 536 2438 459 2413 420 
C 2381 369 1920 369 1830 369 
L 602 369 
C 832 619 1280 1072 1824 1597 
C 2214 1967 2669 2402 2669 3035 
C 2669 3790 2067 4224 1395 4224 
C 691 4224 262 3604 262 3030 
C 262 2780 448 2748 525 2748 
C 589 2748 781 2787 781 3010 
C 781 3207 614 3264 525 3264 
C 486 3264 448 3258 422 3245 
C 544 3790 915 4058 1306 4058 
C 1862 4058 2227 3617 2227 3035 
C 2227 2479 1901 2000 1536 1584 
L 262 146 
L 262 0 
L 2515 0 
L 2669 989 
z
" transform="scale(0.015625)"/>
       </defs>
       <use xlink:href="#CMR17-32" transform="scale(0.996264)"/>
       <use xlink:href="#CMR17-30" transform="translate(45.690477 0) scale(0.996264)"/>
      </g>
     </g>
    </g>
    <g id="xtick_6">
     <g id="line2d_11">
      <path d="M 260.090075 175.381683 
L 260.090075 10.8 
" clip-path="url(#p549677cf07)" style="fill: none; stroke: #b0b0b0; stroke-width: 0.8; stroke-linecap: square"/>
     </g>
     <g id="line2d_12">
      <g>
       <use xlink:href="#md2412b0464" x="260.090075" y="175.381683" style="stroke: #000000; stroke-width: 0.8"/>
      </g>
     </g>
     <g id="text_6">
      <!-- $\mathdefault{25}$ -->
      <g transform="translate(255.108739 189.300182) scale(0.1 -0.1)">
       <use xlink:href="#CMR17-32" transform="scale(0.996264)"/>
       <use xlink:href="#CMR17-35" transform="translate(45.690477 0) scale(0.996264)"/>
      </g>
     </g>
    </g>
    <g id="xtick_7">
     <g id="line2d_13">
      <path d="M 298.009192 175.381683 
L 298.009192 10.8 
" clip-path="url(#p549677cf07)" style="fill: none; stroke: #b0b0b0; stroke-width: 0.8; stroke-linecap: square"/>
     </g>
     <g id="line2d_14">
      <g>
       <use xlink:href="#md2412b0464" x="298.009192" y="175.381683" style="stroke: #000000; stroke-width: 0.8"/>
      </g>
     </g>
     <g id="text_7">
      <!-- $\mathdefault{30}$ -->
      <g transform="translate(293.027857 189.300182) scale(0.1 -0.1)">
       <defs>
        <path id="CMR17-33" d="M 1414 2157 
C 1984 2157 2234 1662 2234 1090 
C 2234 320 1824 25 1453 25 
C 1114 25 563 194 390 693 
C 422 680 454 680 486 680 
C 640 680 755 782 755 948 
C 755 1133 614 1216 486 1216 
C 378 1216 211 1165 211 926 
C 211 335 787 -128 1466 -128 
C 2176 -128 2720 430 2720 1085 
C 2720 1707 2208 2157 1600 2227 
C 2086 2328 2554 2756 2554 3329 
C 2554 3820 2048 4179 1472 4179 
C 890 4179 378 3829 378 3329 
C 378 3110 544 3072 627 3072 
C 762 3072 877 3155 877 3321 
C 877 3486 762 3569 627 3569 
C 602 3569 570 3569 544 3557 
C 730 3959 1235 4032 1459 4032 
C 1683 4032 2106 3925 2106 3320 
C 2106 3143 2080 2828 1862 2550 
C 1670 2304 1453 2304 1242 2284 
C 1210 2284 1062 2269 1037 2269 
C 992 2263 966 2257 966 2208 
C 966 2163 973 2157 1101 2157 
L 1414 2157 
z
" transform="scale(0.015625)"/>
       </defs>
       <use xlink:href="#CMR17-33" transform="scale(0.996264)"/>
       <use xlink:href="#CMR17-30" transform="translate(45.690477 0) scale(0.996264)"/>
      </g>
     </g>
    </g>
    <g id="xtick_8">
     <g id="line2d_15">
      <path d="M 335.928309 175.381683 
L 335.928309 10.8 
" clip-path="url(#p549677cf07)" style="fill: none; stroke: #b0b0b0; stroke-width: 0.8; stroke-linecap: square"/>
     </g>
     <g id="line2d_16">
      <g>
       <use xlink:href="#md2412b0464" x="335.928309" y="175.381683" style="stroke: #000000; stroke-width: 0.8"/>
      </g>
     </g>
     <g id="text_8">
      <!-- $\mathdefault{35}$ -->
      <g transform="translate(330.946974 189.300182) scale(0.1 -0.1)">
       <use xlink:href="#CMR17-33" transform="scale(0.996264)"/>
       <use xlink:href="#CMR17-35" transform="translate(45.690477 0) scale(0.996264)"/>
      </g>
     </g>
    </g>
    <g id="text_9">
     <!-- Time $t$ [s] -->
     <g transform="translate(182.013091 202.70934) scale(0.1 -0.1)">
      <defs>
       <path id="CMR17-54" d="M 3981 4326 
L 288 4326 
L 179 2918 
L 294 2918 
C 378 3976 467 4160 1453 4160 
C 1568 4160 1754 4160 1805 4154 
C 1926 4135 1926 4058 1926 3912 
L 1926 459 
C 1926 230 1907 160 1376 160 
L 1197 160 
L 1197 0 
C 1504 0 1824 0 2138 0 
C 2451 0 2771 0 3078 0 
L 3078 160 
L 2899 160 
C 2368 160 2349 230 2349 459 
L 2349 3912 
C 2349 4052 2349 4129 2464 4154 
C 2515 4160 2701 4160 2816 4160 
C 3795 4160 3891 3976 3974 2918 
L 4090 2918 
L 3981 4326 
z
" transform="scale(0.015625)"/>
       <path id="CMR17-69" d="M 992 3909 
C 992 4049 877 4170 730 4170 
C 589 4170 467 4056 467 3909 
C 467 3769 582 3648 730 3648 
C 870 3648 992 3763 992 3909 
z
M 243 2706 
L 243 2541 
C 602 2541 653 2502 653 2197 
L 653 427 
C 653 184 627 153 218 153 
L 218 -13 
C 371 0 646 0 806 0 
C 960 0 1222 0 1370 -13 
L 1370 153 
C 992 153 979 191 979 420 
L 979 2776 
L 243 2706 
z
" transform="scale(0.015625)"/>
       <path id="CMR17-6d" d="M 4326 1933 
C 4326 2252 4269 2790 3507 2790 
C 3072 2790 2771 2496 2656 2151 
L 2650 2151 
C 2573 2676 2195 2790 1837 2790 
C 1331 2790 1069 2400 973 2144 
L 966 2144 
L 966 2790 
L 211 2720 
L 211 2554 
C 589 2554 646 2515 646 2208 
L 646 428 
C 646 184 621 153 211 153 
L 211 -13 
C 365 0 646 0 813 0 
C 979 0 1267 0 1421 -13 
L 1421 153 
C 1011 153 986 178 986 428 
L 986 1658 
C 986 2247 1344 2688 1792 2688 
C 2266 2688 2317 2266 2317 1958 
L 2317 428 
C 2317 184 2291 153 1882 153 
L 1882 -13 
C 2035 0 2317 0 2483 0 
C 2650 0 2938 0 3091 -13 
L 3091 153 
C 2682 153 2656 178 2656 428 
L 2656 1658 
C 2656 2247 3014 2688 3462 2688 
C 3936 2688 3987 2266 3987 1958 
L 3987 428 
C 3987 184 3962 153 3552 153 
L 3552 -13 
C 3706 0 3987 0 4154 0 
C 4320 0 4608 0 4762 -13 
L 4762 153 
C 4352 153 4326 178 4326 428 
L 4326 1933 
z
" transform="scale(0.015625)"/>
       <path id="CMR17-65" d="M 2438 1472 
C 2464 1498 2464 1511 2464 1576 
C 2464 2238 2118 2816 1389 2816 
C 710 2816 173 2169 173 1383 
C 173 551 781 -64 1459 -64 
C 2176 -64 2458 607 2458 740 
C 2458 784 2419 784 2406 784 
C 2362 784 2355 771 2330 696 
C 2189 265 1837 51 1504 51 
C 1229 51 954 203 781 480 
C 582 803 582 1176 582 1472 
L 2438 1472 
z
M 589 1568 
C 634 2505 1126 2714 1382 2714 
C 1818 2714 2112 2297 2118 1568 
L 589 1568 
z
" transform="scale(0.015625)"/>
       <path id="CMMI12-74" d="M 1286 2566 
L 1875 2566 
C 1997 2566 2061 2566 2061 2681 
C 2061 2752 2022 2752 1894 2752 
L 1331 2752 
L 1568 3692 
C 1594 3781 1594 3794 1594 3840 
C 1594 3943 1510 4000 1427 4000 
C 1376 4000 1229 3981 1178 3775 
L 928 2752 
L 326 2752 
C 198 2752 141 2752 141 2630 
C 141 2566 186 2566 307 2566 
L 877 2566 
L 454 881 
C 403 658 384 594 384 511 
C 384 211 595 -64 954 -64 
C 1600 -64 1946 868 1946 912 
C 1946 951 1920 970 1882 970 
C 1869 970 1843 970 1830 944 
C 1824 938 1818 931 1773 829 
C 1638 511 1344 64 973 64 
C 781 64 768 224 768 364 
C 768 370 768 492 787 568 
L 1286 2566 
z
" transform="scale(0.015625)"/>
       <path id="CMR17-5b" d="M 1504 -1600 
L 1504 -1377 
L 902 -1377 
L 902 4544 
L 1504 4544 
L 1504 4767 
L 678 4767 
L 678 -1600 
L 1504 -1600 
z
" transform="scale(0.015625)"/>
       <path id="CMR17-73" d="M 1978 2697 
C 1978 2813 1971 2819 1933 2819 
C 1907 2819 1901 2813 1824 2717 
C 1805 2691 1747 2626 1728 2601 
C 1523 2819 1235 2819 1126 2819 
C 416 2819 160 2447 160 2076 
C 160 1498 813 1365 998 1325 
C 1402 1243 1542 1217 1677 1101 
C 1760 1025 1901 884 1901 654 
C 1901 384 1747 38 1158 38 
C 602 38 403 460 288 1021 
C 269 1110 269 1117 218 1117 
C 166 1117 160 1110 160 983 
L 160 63 
C 160 -51 166 -58 205 -58 
C 237 -58 243 -51 275 0 
C 314 57 410 211 448 276 
C 576 103 800 -64 1158 -64 
C 1792 -64 2131 283 2131 784 
C 2131 1112 1958 1285 1875 1362 
C 1683 1561 1459 1606 1190 1657 
C 838 1735 390 1825 390 2217 
C 390 2383 480 2737 1126 2737 
C 1811 2737 1850 2094 1862 1888 
C 1869 1856 1901 1849 1920 1849 
C 1978 1849 1978 1869 1978 1978 
L 1978 2697 
z
" transform="scale(0.015625)"/>
       <path id="CMR17-5d" d="M 915 4767 
L 90 4767 
L 90 4544 
L 691 4544 
L 691 -1377 
L 90 -1377 
L 90 -1600 
L 915 -1600 
L 915 4767 
z
" transform="scale(0.015625)"/>
      </defs>
      <use xlink:href="#CMR17-54" transform="scale(0.996264)"/>
      <use xlink:href="#CMR17-69" transform="translate(66.509881 0) scale(0.996264)"/>
      <use xlink:href="#CMR17-6d" transform="translate(91.380939 0) scale(0.996264)"/>
      <use xlink:href="#CMR17-65" transform="translate(168.300529 0) scale(0.996264)"/>
      <use xlink:href="#CMMI12-74" transform="translate(238.862156 0) scale(0.996264)"/>
      <use xlink:href="#CMR17-5b" transform="translate(304.164452 0) scale(0.996264)"/>
      <use xlink:href="#CMR17-73" transform="translate(329.035511 0) scale(0.996264)"/>
      <use xlink:href="#CMR17-5d" transform="translate(364.836848 0) scale(0.996264)"/>
     </g>
    </g>
   </g>
   <g id="matplotlib.axis_2">
    <g id="ytick_1">
     <g id="line2d_17">
      <path d="M 57.222798 172.320731 
L 349.2 172.320731 
" clip-path="url(#p549677cf07)" style="fill: none; stroke: #b0b0b0; stroke-width: 0.8; stroke-linecap: square"/>
     </g>
     <g id="line2d_18">
      <defs>
       <path id="m578be921ff" d="M 0 0 
L -3.5 0 
" style="stroke: #000000; stroke-width: 0.8"/>
      </defs>
      <g>
       <use xlink:href="#m578be921ff" x="57.222798" y="172.320731" style="stroke: #000000; stroke-width: 0.8"/>
      </g>
     </g>
     <g id="text_10">
      <!-- $\mathdefault{−1.00}$ -->
      <g transform="translate(24.76264 175.779981) scale(0.1 -0.1)">
       <defs>
        <path id="CMSY10-0" d="M 4218 1472 
C 4326 1472 4442 1472 4442 1600 
C 4442 1728 4326 1728 4218 1728 
L 755 1728 
C 646 1728 531 1728 531 1600 
C 531 1472 646 1472 755 1472 
L 4218 1472 
z
" transform="scale(0.015625)"/>
        <path id="CMMI12-3a" d="M 1178 307 
C 1178 492 1024 619 870 619 
C 685 619 557 466 557 313 
C 557 128 710 0 864 0 
C 1050 0 1178 153 1178 307 
z
" transform="scale(0.015625)"/>
       </defs>
       <use xlink:href="#CMSY10-0" transform="scale(0.996264)"/>
       <use xlink:href="#CMR17-31" transform="translate(77.487468 0) scale(0.996264)"/>
       <use xlink:href="#CMMI12-3a" transform="translate(123.177945 0) scale(0.996264)"/>
       <use xlink:href="#CMR17-30" transform="translate(150.275122 0) scale(0.996264)"/>
       <use xlink:href="#CMR17-30" transform="translate(195.965599 0) scale(0.996264)"/>
      </g>
     </g>
    </g>
    <g id="ytick_2">
     <g id="line2d_19">
      <path d="M 57.222798 150.75923 
L 349.2 150.75923 
" clip-path="url(#p549677cf07)" style="fill: none; stroke: #b0b0b0; stroke-width: 0.8; stroke-linecap: square"/>
     </g>
     <g id="line2d_20">
      <g>
       <use xlink:href="#m578be921ff" x="57.222798" y="150.75923" style="stroke: #000000; stroke-width: 0.8"/>
      </g>
     </g>
     <g id="text_11">
      <!-- $\mathdefault{−0.75}$ -->
      <g transform="translate(24.76264 154.218479) scale(0.1 -0.1)">
       <defs>
        <path id="CMR17-37" d="M 2886 3941 
L 2886 4081 
L 1382 4081 
C 634 4081 621 4165 595 4288 
L 480 4288 
L 294 3094 
L 410 3094 
C 429 3215 474 3540 550 3661 
C 589 3712 1062 3712 1171 3712 
L 2579 3712 
L 1869 2661 
C 1395 1954 1069 999 1069 165 
C 1069 89 1069 -128 1299 -128 
C 1530 -128 1530 89 1530 171 
L 1530 465 
C 1530 1508 1709 2196 2003 2636 
L 2886 3941 
z
" transform="scale(0.015625)"/>
       </defs>
       <use xlink:href="#CMSY10-0" transform="scale(0.996264)"/>
       <use xlink:href="#CMR17-30" transform="translate(77.487468 0) scale(0.996264)"/>
       <use xlink:href="#CMMI12-3a" transform="translate(123.177945 0) scale(0.996264)"/>
       <use xlink:href="#CMR17-37" transform="translate(150.275122 0) scale(0.996264)"/>
       <use xlink:href="#CMR17-35" transform="translate(195.965599 0) scale(0.996264)"/>
      </g>
     </g>
    </g>
    <g id="ytick_3">
     <g id="line2d_21">
      <path d="M 57.222798 129.197728 
L 349.2 129.197728 
" clip-path="url(#p549677cf07)" style="fill: none; stroke: #b0b0b0; stroke-width: 0.8; stroke-linecap: square"/>
     </g>
     <g id="line2d_22">
      <g>
       <use xlink:href="#m578be921ff" x="57.222798" y="129.197728" style="stroke: #000000; stroke-width: 0.8"/>
      </g>
     </g>
     <g id="text_12">
      <!-- $\mathdefault{−0.50}$ -->
      <g transform="translate(24.76264 132.656978) scale(0.1 -0.1)">
       <use xlink:href="#CMSY10-0" transform="scale(0.996264)"/>
       <use xlink:href="#CMR17-30" transform="translate(77.487468 0) scale(0.996264)"/>
       <use xlink:href="#CMMI12-3a" transform="translate(123.177945 0) scale(0.996264)"/>
       <use xlink:href="#CMR17-35" transform="translate(150.275122 0) scale(0.996264)"/>
       <use xlink:href="#CMR17-30" transform="translate(195.965599 0) scale(0.996264)"/>
      </g>
     </g>
    </g>
    <g id="ytick_4">
     <g id="line2d_23">
      <path d="M 57.222798 107.636227 
L 349.2 107.636227 
" clip-path="url(#p549677cf07)" style="fill: none; stroke: #b0b0b0; stroke-width: 0.8; stroke-linecap: square"/>
     </g>
     <g id="line2d_24">
      <g>
       <use xlink:href="#m578be921ff" x="57.222798" y="107.636227" style="stroke: #000000; stroke-width: 0.8"/>
      </g>
     </g>
     <g id="text_13">
      <!-- $\mathdefault{−0.25}$ -->
      <g transform="translate(24.76264 111.095476) scale(0.1 -0.1)">
       <use xlink:href="#CMSY10-0" transform="scale(0.996264)"/>
       <use xlink:href="#CMR17-30" transform="translate(77.487468 0) scale(0.996264)"/>
       <use xlink:href="#CMMI12-3a" transform="translate(123.177945 0) scale(0.996264)"/>
       <use xlink:href="#CMR17-32" transform="translate(150.275122 0) scale(0.996264)"/>
       <use xlink:href="#CMR17-35" transform="translate(195.965599 0) scale(0.996264)"/>
      </g>
     </g>
    </g>
    <g id="ytick_5">
     <g id="line2d_25">
      <path d="M 57.222798 86.074725 
L 349.2 86.074725 
" clip-path="url(#p549677cf07)" style="fill: none; stroke: #b0b0b0; stroke-width: 0.8; stroke-linecap: square"/>
     </g>
     <g id="line2d_26">
      <g>
       <use xlink:href="#m578be921ff" x="57.222798" y="86.074725" style="stroke: #000000; stroke-width: 0.8"/>
      </g>
     </g>
     <g id="text_14">
      <!-- $\mathdefault{0.00}$ -->
      <g transform="translate(32.511384 89.533974) scale(0.1 -0.1)">
       <use xlink:href="#CMR17-30" transform="scale(0.996264)"/>
       <use xlink:href="#CMMI12-3a" transform="translate(45.690477 0) scale(0.996264)"/>
       <use xlink:href="#CMR17-30" transform="translate(72.787654 0) scale(0.996264)"/>
       <use xlink:href="#CMR17-30" transform="translate(118.478131 0) scale(0.996264)"/>
      </g>
     </g>
    </g>
    <g id="ytick_6">
     <g id="line2d_27">
      <path d="M 57.222798 64.513224 
L 349.2 64.513224 
" clip-path="url(#p549677cf07)" style="fill: none; stroke: #b0b0b0; stroke-width: 0.8; stroke-linecap: square"/>
     </g>
     <g id="line2d_28">
      <g>
       <use xlink:href="#m578be921ff" x="57.222798" y="64.513224" style="stroke: #000000; stroke-width: 0.8"/>
      </g>
     </g>
     <g id="text_15">
      <!-- $\mathdefault{0.25}$ -->
      <g transform="translate(32.511384 67.972473) scale(0.1 -0.1)">
       <use xlink:href="#CMR17-30" transform="scale(0.996264)"/>
       <use xlink:href="#CMMI12-3a" transform="translate(45.690477 0) scale(0.996264)"/>
       <use xlink:href="#CMR17-32" transform="translate(72.787654 0) scale(0.996264)"/>
       <use xlink:href="#CMR17-35" transform="translate(118.478131 0) scale(0.996264)"/>
      </g>
     </g>
    </g>
    <g id="ytick_7">
     <g id="line2d_29">
      <path d="M 57.222798 42.951722 
L 349.2 42.951722 
" clip-path="url(#p549677cf07)" style="fill: none; stroke: #b0b0b0; stroke-width: 0.8; stroke-linecap: square"/>
     </g>
     <g id="line2d_30">
      <g>
       <use xlink:href="#m578be921ff" x="57.222798" y="42.951722" style="stroke: #000000; stroke-width: 0.8"/>
      </g>
     </g>
     <g id="text_16">
      <!-- $\mathdefault{0.50}$ -->
      <g transform="translate(32.511384 46.410971) scale(0.1 -0.1)">
       <use xlink:href="#CMR17-30" transform="scale(0.996264)"/>
       <use xlink:href="#CMMI12-3a" transform="translate(45.690477 0) scale(0.996264)"/>
       <use xlink:href="#CMR17-35" transform="translate(72.787654 0) scale(0.996264)"/>
       <use xlink:href="#CMR17-30" transform="translate(118.478131 0) scale(0.996264)"/>
      </g>
     </g>
    </g>
    <g id="ytick_8">
     <g id="line2d_31">
      <path d="M 57.222798 21.390221 
L 349.2 21.390221 
" clip-path="url(#p549677cf07)" style="fill: none; stroke: #b0b0b0; stroke-width: 0.8; stroke-linecap: square"/>
     </g>
     <g id="line2d_32">
      <g>
       <use xlink:href="#m578be921ff" x="57.222798" y="21.390221" style="stroke: #000000; stroke-width: 0.8"/>
      </g>
     </g>
     <g id="text_17">
      <!-- $\mathdefault{0.75}$ -->
      <g transform="translate(32.511384 24.84947) scale(0.1 -0.1)">
       <use xlink:href="#CMR17-30" transform="scale(0.996264)"/>
       <use xlink:href="#CMMI12-3a" transform="translate(45.690477 0) scale(0.996264)"/>
       <use xlink:href="#CMR17-37" transform="translate(72.787654 0) scale(0.996264)"/>
       <use xlink:href="#CMR17-35" transform="translate(118.478131 0) scale(0.996264)"/>
      </g>
     </g>
    </g>
    <g id="text_18">
     <!-- Bending torque [Nm] -->
     <g transform="translate(18.27198 138.974435) rotate(-90) scale(0.1 -0.1)">
      <defs>
       <path id="CMR17-42" d="M 333 4352 
L 333 4186 
C 774 4186 845 4186 845 3900 
L 845 452 
C 845 166 774 166 333 166 
L 333 0 
L 2534 0 
C 3354 0 3885 583 3885 1164 
C 3885 1741 3360 2233 2675 2233 
C 3290 2356 3718 2771 3718 3264 
C 3718 3802 3194 4352 2368 4352 
L 333 4352 
z
M 1248 2304 
L 1248 3937 
C 1248 4155 1261 4186 1517 4186 
L 2336 4186 
C 2970 4186 3251 3674 3251 3277 
C 3251 2791 2861 2304 2170 2304 
L 1248 2304 
z
M 1517 166 
C 1261 166 1248 197 1248 413 
L 1248 2202 
L 2432 2202 
C 3091 2202 3411 1625 3411 1162 
C 3411 699 3046 166 2349 166 
L 1517 166 
z
" transform="scale(0.015625)"/>
       <path id="CMR17-6e" d="M 2656 1933 
C 2656 2259 2592 2790 1837 2790 
C 1331 2790 1069 2400 973 2144 
L 966 2144 
L 966 2790 
L 211 2720 
L 211 2554 
C 589 2554 646 2515 646 2208 
L 646 428 
C 646 184 621 153 211 153 
L 211 -13 
C 365 0 646 0 813 0 
C 979 0 1267 0 1421 -13 
L 1421 153 
C 1011 153 986 178 986 428 
L 986 1658 
C 986 2247 1344 2688 1792 2688 
C 2266 2688 2317 2266 2317 1958 
L 2317 428 
C 2317 184 2291 153 1882 153 
L 1882 -13 
C 2035 0 2317 0 2483 0 
C 2650 0 2938 0 3091 -13 
L 3091 153 
C 2682 153 2656 178 2656 428 
L 2656 1933 
z
" transform="scale(0.015625)"/>
       <path id="CMR17-64" d="M 1869 4326 
L 1869 4160 
C 2246 4160 2304 4122 2304 3820 
L 2304 2345 
C 2278 2377 2016 2790 1498 2790 
C 845 2790 211 2208 211 1364 
C 211 525 806 -64 1434 -64 
C 1978 -64 2259 337 2291 380 
L 2291 -63 
L 3066 -63 
L 3066 128 
C 2688 128 2630 166 2630 473 
L 2630 4396 
L 1869 4326 
z
M 2291 755 
C 2291 563 2176 390 2029 262 
C 1811 70 1594 38 1472 38 
C 1286 38 621 134 621 1356 
C 621 2612 1363 2688 1530 2688 
C 1824 2688 2061 2522 2208 2291 
C 2291 2157 2291 2138 2291 2023 
L 2291 755 
z
" transform="scale(0.015625)"/>
       <path id="CMR17-67" d="M 710 1164 
C 832 1068 1043 960 1299 960 
C 1805 960 2240 1357 2240 1888 
C 2240 2054 2189 2310 1997 2509 
C 2176 2692 2438 2752 2586 2752 
C 2611 2752 2650 2752 2682 2734 
C 2656 2728 2598 2703 2598 2605 
C 2598 2527 2656 2471 2739 2471 
C 2835 2471 2886 2533 2886 2614 
C 2886 2731 2790 2854 2586 2854 
C 2330 2854 2106 2738 1926 2580 
C 1734 2753 1504 2816 1299 2816 
C 794 2816 358 2419 358 1888 
C 358 1522 570 1292 634 1228 
C 442 1004 442 743 442 711 
C 442 545 506 302 723 168 
C 390 85 128 -169 128 -486 
C 128 -943 736 -1280 1466 -1280 
C 2170 -1280 2803 -956 2803 -479 
C 2803 384 1856 384 1363 384 
C 1216 384 954 384 922 391 
C 723 423 589 602 589 826 
C 589 883 589 1024 710 1164 
z
M 1299 1068 
C 736 1068 736 1760 736 1889 
C 736 2016 736 2708 1299 2708 
C 1862 2708 1862 2016 1862 1889 
C 1862 1760 1862 1068 1299 1068 
z
M 1466 -1171 
C 826 -1171 384 -835 384 -486 
C 384 -289 493 -105 634 -4 
C 794 104 858 104 1293 104 
C 1818 104 2547 104 2547 -486 
C 2547 -835 2106 -1171 1466 -1171 
z
" transform="scale(0.015625)"/>
       <path id="CMR17-74" d="M 966 2560 
L 1862 2560 
L 1862 2725 
L 966 2725 
L 966 3904 
L 851 3904 
C 838 3245 614 2668 70 2668 
L 70 2560 
L 627 2560 
L 627 771 
C 627 650 627 -64 1370 -64 
C 1747 -64 1965 306 1965 777 
L 1965 1140 
L 1850 1140 
L 1850 783 
C 1850 344 1677 51 1408 51 
C 1222 51 966 178 966 758 
L 966 2560 
z
" transform="scale(0.015625)"/>
       <path id="CMR17-6f" d="M 2758 1356 
C 2758 2176 2163 2816 1466 2816 
C 768 2816 173 2176 173 1356 
C 173 551 768 -64 1466 -64 
C 2163 -64 2758 551 2758 1356 
z
M 1466 51 
C 1165 51 909 230 762 480 
C 602 767 582 1126 582 1408 
C 582 1677 595 2010 762 2298 
C 890 2509 1139 2714 1466 2714 
C 1754 2714 1997 2554 2150 2330 
C 2349 2029 2349 1607 2349 1408 
C 2349 1158 2336 775 2163 467 
C 1984 173 1709 51 1466 51 
z
" transform="scale(0.015625)"/>
       <path id="CMR17-72" d="M 960 1497 
C 960 2112 1222 2688 1702 2688 
C 1747 2688 1792 2682 1837 2662 
C 1837 2662 1696 2617 1696 2452 
C 1696 2298 1818 2234 1914 2234 
C 1990 2234 2131 2279 2131 2458 
C 2131 2663 1926 2790 1709 2790 
C 1222 2790 1011 2317 947 2093 
L 941 2093 
L 941 2790 
L 198 2720 
L 198 2554 
C 576 2554 634 2515 634 2208 
L 634 428 
C 634 184 608 153 198 153 
L 198 -13 
C 352 0 646 0 813 0 
C 998 0 1325 0 1498 -13 
L 1498 153 
C 1037 153 960 153 960 440 
L 960 1497 
z
" transform="scale(0.015625)"/>
       <path id="CMR17-71" d="M 2630 2802 
L 2528 2802 
L 2336 2172 
C 2189 2509 1920 2802 1491 2802 
C 838 2802 211 2223 211 1383 
C 211 548 800 -38 1440 -38 
C 1933 -38 2208 338 2291 478 
L 2291 -789 
C 2291 -1031 2266 -1063 1856 -1063 
L 1856 -1228 
C 2010 -1216 2291 -1216 2458 -1216 
C 2624 -1216 2912 -1216 3066 -1228 
L 3066 -1063 
C 2656 -1063 2630 -1037 2630 -789 
L 2630 2802 
z
M 2304 886 
C 2304 612 2074 357 2054 338 
C 1856 115 1626 64 1472 64 
C 992 64 621 669 621 1375 
C 621 2121 1043 2688 1536 2688 
C 2048 2688 2304 2108 2304 1777 
L 2304 886 
z
" transform="scale(0.015625)"/>
       <path id="CMR17-75" d="M 1882 2693 
L 1882 2528 
C 2259 2528 2317 2489 2317 2186 
L 2317 1032 
C 2317 500 2029 38 1555 38 
C 1030 38 986 348 986 678 
L 986 2763 
L 211 2693 
L 211 2528 
C 467 2528 640 2528 646 2274 
L 646 1058 
C 646 633 646 361 813 183 
C 896 101 1056 -64 1517 -64 
C 2061 -64 2272 377 2323 506 
L 2330 506 
L 2330 -63 
L 3091 -63 
L 3091 128 
C 2714 128 2656 166 2656 473 
L 2656 2763 
L 1882 2693 
z
" transform="scale(0.015625)"/>
       <path id="CMR17-4e" d="M 1312 4250 
C 1267 4320 1261 4320 1139 4320 
L 326 4320 
L 326 4160 
L 448 4160 
C 704 4160 819 4129 838 4122 
L 838 610 
C 838 451 838 153 326 153 
L 326 -13 
C 474 0 742 0 902 0 
C 1062 0 1331 0 1478 -13 
L 1478 153 
C 966 153 966 451 966 610 
L 966 4033 
C 1011 3995 1011 3982 1056 3919 
L 3430 76 
C 3475 0 3494 0 3526 0 
C 3590 0 3590 19 3590 139 
L 3590 3705 
C 3590 3863 3590 4160 4102 4160 
L 4102 4326 
C 3955 4320 3686 4320 3526 4320 
C 3366 4320 3098 4320 2950 4326 
L 2950 4160 
C 3462 4160 3462 3862 3462 3703 
L 3462 763 
L 1312 4250 
z
" transform="scale(0.015625)"/>
      </defs>
      <use xlink:href="#CMR17-42" transform="scale(0.996264)"/>
      <use xlink:href="#CMR17-65" transform="translate(65.188754 0) scale(0.996264)"/>
      <use xlink:href="#CMR17-6e" transform="translate(105.674415 0) scale(0.996264)"/>
      <use xlink:href="#CMR17-64" transform="translate(156.569785 0) scale(0.996264)"/>
      <use xlink:href="#CMR17-69" transform="translate(207.465154 0) scale(0.996264)"/>
      <use xlink:href="#CMR17-6e" transform="translate(232.336213 0) scale(0.996264)"/>
      <use xlink:href="#CMR17-67" transform="translate(283.231583 0) scale(0.996264)"/>
      <use xlink:href="#CMR17-74" transform="translate(358.998026 0) scale(0.996264)"/>
      <use xlink:href="#CMR17-6f" transform="translate(394.278794 0) scale(0.996264)"/>
      <use xlink:href="#CMR17-72" transform="translate(439.969271 0) scale(0.996264)"/>
      <use xlink:href="#CMR17-71" transform="translate(475.250039 0) scale(0.996264)"/>
      <use xlink:href="#CMR17-75" transform="translate(523.542955 0) scale(0.996264)"/>
      <use xlink:href="#CMR17-65" transform="translate(574.438325 0) scale(0.996264)"/>
      <use xlink:href="#CMR17-5b" transform="translate(644.999951 0) scale(0.996264)"/>
      <use xlink:href="#CMR17-4e" transform="translate(669.87101 0) scale(0.996264)"/>
      <use xlink:href="#CMR17-6d" transform="translate(738.94344 0) scale(0.996264)"/>
      <use xlink:href="#CMR17-5d" transform="translate(815.86303 0) scale(0.996264)"/>
     </g>
    </g>
   </g>
   <g id="line2d_33">
    <path d="M 70.494489 167.900698 
L 108.413606 167.900698 
L 108.565283 18.280986 
L 146.332723 18.280986 
L 146.4844 122.505676 
L 184.25184 122.505676 
L 184.403517 33.867774 
L 222.170958 33.867774 
L 222.322634 89.378266 
L 260.090075 89.378266 
L 260.241751 48.110045 
L 298.009192 48.110045 
L 298.160868 104.440591 
L 335.928309 104.440591 
L 335.928309 104.440591 
" clip-path="url(#p549677cf07)" style="fill: none; stroke: #1f77b4; stroke-width: 1.5; stroke-linecap: square"/>
    <defs>
     <path id="m79feb4c22a" d="M 0 2.5 
C 0.663008 2.5 1.29895 2.236584 1.767767 1.767767 
C 2.236584 1.29895 2.5 0.663008 2.5 0 
C 2.5 -0.663008 2.236584 -1.29895 1.767767 -1.767767 
C 1.29895 -2.236584 0.663008 -2.5 0 -2.5 
C -0.663008 -2.5 -1.29895 -2.236584 -1.767767 -1.767767 
C -2.236584 -1.29895 -2.5 -0.663008 -2.5 0 
C -2.5 0.663008 -2.236584 1.29895 -1.767767 1.767767 
C -1.29895 2.236584 -0.663008 2.5 0 2.5 
z
" style="stroke: #1f77b4"/>
    </defs>
    <g clip-path="url(#p549677cf07)">
     <use xlink:href="#m79feb4c22a" x="70.494489" y="167.900698" style="fill: #1f77b4; stroke: #1f77b4"/>
     <use xlink:href="#m79feb4c22a" x="78.078312" y="167.900698" style="fill: #1f77b4; stroke: #1f77b4"/>
     <use xlink:href="#m79feb4c22a" x="85.662136" y="167.900698" style="fill: #1f77b4; stroke: #1f77b4"/>
     <use xlink:href="#m79feb4c22a" x="93.245959" y="167.900698" style="fill: #1f77b4; stroke: #1f77b4"/>
     <use xlink:href="#m79feb4c22a" x="100.829783" y="167.900698" style="fill: #1f77b4; stroke: #1f77b4"/>
     <use xlink:href="#m79feb4c22a" x="108.413606" y="167.900698" style="fill: #1f77b4; stroke: #1f77b4"/>
     <use xlink:href="#m79feb4c22a" x="115.99743" y="18.280986" style="fill: #1f77b4; stroke: #1f77b4"/>
     <use xlink:href="#m79feb4c22a" x="123.581253" y="18.280986" style="fill: #1f77b4; stroke: #1f77b4"/>
     <use xlink:href="#m79feb4c22a" x="131.165076" y="18.280986" style="fill: #1f77b4; stroke: #1f77b4"/>
     <use xlink:href="#m79feb4c22a" x="138.7489" y="18.280986" style="fill: #1f77b4; stroke: #1f77b4"/>
     <use xlink:href="#m79feb4c22a" x="146.332723" y="18.280986" style="fill: #1f77b4; stroke: #1f77b4"/>
     <use xlink:href="#m79feb4c22a" x="153.916547" y="122.505676" style="fill: #1f77b4; stroke: #1f77b4"/>
     <use xlink:href="#m79feb4c22a" x="161.50037" y="122.505676" style="fill: #1f77b4; stroke: #1f77b4"/>
     <use xlink:href="#m79feb4c22a" x="169.084194" y="122.505676" style="fill: #1f77b4; stroke: #1f77b4"/>
     <use xlink:href="#m79feb4c22a" x="176.668017" y="122.505676" style="fill: #1f77b4; stroke: #1f77b4"/>
     <use xlink:href="#m79feb4c22a" x="184.25184" y="122.505676" style="fill: #1f77b4; stroke: #1f77b4"/>
     <use xlink:href="#m79feb4c22a" x="191.835664" y="33.867774" style="fill: #1f77b4; stroke: #1f77b4"/>
     <use xlink:href="#m79feb4c22a" x="199.419487" y="33.867774" style="fill: #1f77b4; stroke: #1f77b4"/>
     <use xlink:href="#m79feb4c22a" x="207.003311" y="33.867774" style="fill: #1f77b4; stroke: #1f77b4"/>
     <use xlink:href="#m79feb4c22a" x="214.587134" y="33.867774" style="fill: #1f77b4; stroke: #1f77b4"/>
     <use xlink:href="#m79feb4c22a" x="222.170958" y="33.867774" style="fill: #1f77b4; stroke: #1f77b4"/>
     <use xlink:href="#m79feb4c22a" x="229.754781" y="89.378266" style="fill: #1f77b4; stroke: #1f77b4"/>
     <use xlink:href="#m79feb4c22a" x="237.338604" y="89.378266" style="fill: #1f77b4; stroke: #1f77b4"/>
     <use xlink:href="#m79feb4c22a" x="244.922428" y="89.378266" style="fill: #1f77b4; stroke: #1f77b4"/>
     <use xlink:href="#m79feb4c22a" x="252.506251" y="89.378266" style="fill: #1f77b4; stroke: #1f77b4"/>
     <use xlink:href="#m79feb4c22a" x="260.090075" y="89.378266" style="fill: #1f77b4; stroke: #1f77b4"/>
     <use xlink:href="#m79feb4c22a" x="267.673898" y="48.110045" style="fill: #1f77b4; stroke: #1f77b4"/>
     <use xlink:href="#m79feb4c22a" x="275.257722" y="48.110045" style="fill: #1f77b4; stroke: #1f77b4"/>
     <use xlink:href="#m79feb4c22a" x="282.841545" y="48.110045" style="fill: #1f77b4; stroke: #1f77b4"/>
     <use xlink:href="#m79feb4c22a" x="290.425368" y="48.110045" style="fill: #1f77b4; stroke: #1f77b4"/>
     <use xlink:href="#m79feb4c22a" x="298.009192" y="48.110045" style="fill: #1f77b4; stroke: #1f77b4"/>
     <use xlink:href="#m79feb4c22a" x="305.593015" y="104.440591" style="fill: #1f77b4; stroke: #1f77b4"/>
     <use xlink:href="#m79feb4c22a" x="313.176839" y="104.440591" style="fill: #1f77b4; stroke: #1f77b4"/>
     <use xlink:href="#m79feb4c22a" x="320.760662" y="104.440591" style="fill: #1f77b4; stroke: #1f77b4"/>
     <use xlink:href="#m79feb4c22a" x="328.344486" y="104.440591" style="fill: #1f77b4; stroke: #1f77b4"/>
     <use xlink:href="#m79feb4c22a" x="335.928309" y="104.440591" style="fill: #1f77b4; stroke: #1f77b4"/>
    </g>
   </g>
   <g id="line2d_34">
    <path d="M 70.494489 85.238725 
L 108.413606 85.238725 
L 108.565283 86.538631 
L 146.332723 86.538631 
L 146.4844 85.753914 
L 184.25184 85.753914 
L 184.403517 86.557509 
L 222.170958 86.557509 
L 222.322634 85.123297 
L 260.090075 85.123297 
L 260.241751 85.732284 
L 298.009192 85.732284 
L 298.160868 86.482174 
L 335.928309 86.482174 
L 335.928309 86.482174 
" clip-path="url(#p549677cf07)" style="fill: none; stroke: #ff7f0e; stroke-width: 1.5; stroke-linecap: square"/>
    <defs>
     <path id="m6723f300ee" d="M 0 2.5 
C 0.663008 2.5 1.29895 2.236584 1.767767 1.767767 
C 2.236584 1.29895 2.5 0.663008 2.5 0 
C 2.5 -0.663008 2.236584 -1.29895 1.767767 -1.767767 
C 1.29895 -2.236584 0.663008 -2.5 0 -2.5 
C -0.663008 -2.5 -1.29895 -2.236584 -1.767767 -1.767767 
C -2.236584 -1.29895 -2.5 -0.663008 -2.5 0 
C -2.5 0.663008 -2.236584 1.29895 -1.767767 1.767767 
C -1.29895 2.236584 -0.663008 2.5 0 2.5 
z
" style="stroke: #ff7f0e"/>
    </defs>
    <g clip-path="url(#p549677cf07)">
     <use xlink:href="#m6723f300ee" x="70.494489" y="85.238725" style="fill: #ff7f0e; stroke: #ff7f0e"/>
     <use xlink:href="#m6723f300ee" x="78.078312" y="85.238725" style="fill: #ff7f0e; stroke: #ff7f0e"/>
     <use xlink:href="#m6723f300ee" x="85.662136" y="85.238725" style="fill: #ff7f0e; stroke: #ff7f0e"/>
     <use xlink:href="#m6723f300ee" x="93.245959" y="85.238725" style="fill: #ff7f0e; stroke: #ff7f0e"/>
     <use xlink:href="#m6723f300ee" x="100.829783" y="85.238725" style="fill: #ff7f0e; stroke: #ff7f0e"/>
     <use xlink:href="#m6723f300ee" x="108.413606" y="85.238725" style="fill: #ff7f0e; stroke: #ff7f0e"/>
     <use xlink:href="#m6723f300ee" x="115.99743" y="86.538631" style="fill: #ff7f0e; stroke: #ff7f0e"/>
     <use xlink:href="#m6723f300ee" x="123.581253" y="86.538631" style="fill: #ff7f0e; stroke: #ff7f0e"/>
     <use xlink:href="#m6723f300ee" x="131.165076" y="86.538631" style="fill: #ff7f0e; stroke: #ff7f0e"/>
     <use xlink:href="#m6723f300ee" x="138.7489" y="86.538631" style="fill: #ff7f0e; stroke: #ff7f0e"/>
     <use xlink:href="#m6723f300ee" x="146.332723" y="86.538631" style="fill: #ff7f0e; stroke: #ff7f0e"/>
     <use xlink:href="#m6723f300ee" x="153.916547" y="85.753914" style="fill: #ff7f0e; stroke: #ff7f0e"/>
     <use xlink:href="#m6723f300ee" x="161.50037" y="85.753914" style="fill: #ff7f0e; stroke: #ff7f0e"/>
     <use xlink:href="#m6723f300ee" x="169.084194" y="85.753914" style="fill: #ff7f0e; stroke: #ff7f0e"/>
     <use xlink:href="#m6723f300ee" x="176.668017" y="85.753914" style="fill: #ff7f0e; stroke: #ff7f0e"/>
     <use xlink:href="#m6723f300ee" x="184.25184" y="85.753914" style="fill: #ff7f0e; stroke: #ff7f0e"/>
     <use xlink:href="#m6723f300ee" x="191.835664" y="86.557509" style="fill: #ff7f0e; stroke: #ff7f0e"/>
     <use xlink:href="#m6723f300ee" x="199.419487" y="86.557509" style="fill: #ff7f0e; stroke: #ff7f0e"/>
     <use xlink:href="#m6723f300ee" x="207.003311" y="86.557509" style="fill: #ff7f0e; stroke: #ff7f0e"/>
     <use xlink:href="#m6723f300ee" x="214.587134" y="86.557509" style="fill: #ff7f0e; stroke: #ff7f0e"/>
     <use xlink:href="#m6723f300ee" x="222.170958" y="86.557509" style="fill: #ff7f0e; stroke: #ff7f0e"/>
     <use xlink:href="#m6723f300ee" x="229.754781" y="85.123297" style="fill: #ff7f0e; stroke: #ff7f0e"/>
     <use xlink:href="#m6723f300ee" x="237.338604" y="85.123297" style="fill: #ff7f0e; stroke: #ff7f0e"/>
     <use xlink:href="#m6723f300ee" x="244.922428" y="85.123297" style="fill: #ff7f0e; stroke: #ff7f0e"/>
     <use xlink:href="#m6723f300ee" x="252.506251" y="85.123297" style="fill: #ff7f0e; stroke: #ff7f0e"/>
     <use xlink:href="#m6723f300ee" x="260.090075" y="85.123297" style="fill: #ff7f0e; stroke: #ff7f0e"/>
     <use xlink:href="#m6723f300ee" x="267.673898" y="85.732284" style="fill: #ff7f0e; stroke: #ff7f0e"/>
     <use xlink:href="#m6723f300ee" x="275.257722" y="85.732284" style="fill: #ff7f0e; stroke: #ff7f0e"/>
     <use xlink:href="#m6723f300ee" x="282.841545" y="85.732284" style="fill: #ff7f0e; stroke: #ff7f0e"/>
     <use xlink:href="#m6723f300ee" x="290.425368" y="85.732284" style="fill: #ff7f0e; stroke: #ff7f0e"/>
     <use xlink:href="#m6723f300ee" x="298.009192" y="85.732284" style="fill: #ff7f0e; stroke: #ff7f0e"/>
     <use xlink:href="#m6723f300ee" x="305.593015" y="86.482174" style="fill: #ff7f0e; stroke: #ff7f0e"/>
     <use xlink:href="#m6723f300ee" x="313.176839" y="86.482174" style="fill: #ff7f0e; stroke: #ff7f0e"/>
     <use xlink:href="#m6723f300ee" x="320.760662" y="86.482174" style="fill: #ff7f0e; stroke: #ff7f0e"/>
     <use xlink:href="#m6723f300ee" x="328.344486" y="86.482174" style="fill: #ff7f0e; stroke: #ff7f0e"/>
     <use xlink:href="#m6723f300ee" x="335.928309" y="86.482174" style="fill: #ff7f0e; stroke: #ff7f0e"/>
    </g>
   </g>
   <g id="line2d_35">
    <path d="M 70.494489 100.508557 
L 70.646166 84.783671 
L 70.797842 84.594519 
L 71.859577 85.651735 
L 72.693798 86.074399 
L 73.90721 86.415364 
L 76.334033 86.505241 
L 81.339357 86.401608 
L 82.628607 86.398977 
L 93.397636 86.404803 
L 108.413606 86.406593 
L 108.489444 85.777558 
L 108.641121 89.099487 
L 108.716959 89.057464 
L 109.399503 87.309478 
L 110.006209 86.514453 
L 110.688753 86.00854 
L 111.598812 85.638304 
L 112.812224 85.410466 
L 118.879283 85.42343 
L 124.187959 85.436615 
L 146.332723 85.424452 
L 146.408562 85.88648 
L 146.560238 85.462298 
L 148.001164 85.984183 
L 149.366253 86.167244 
L 151.034694 86.156635 
L 154.295738 86.100197 
L 163.775517 86.098858 
L 169.008355 86.098295 
L 184.25184 86.096044 
L 184.327679 85.936011 
L 184.479355 88.96041 
L 184.555193 88.941184 
L 185.389414 87.075501 
L 185.99612 86.391689 
L 186.754502 85.906944 
L 187.512885 85.630434 
L 188.726296 85.42322 
L 190.318899 85.349679 
L 199.040296 85.432581 
L 214.132105 85.441246 
L 222.170958 85.439301 
L 222.398472 87.467374 
L 222.474311 87.441559 
L 223.156855 86.668452 
L 223.915237 86.222561 
L 224.976972 85.880906 
L 226.721252 85.708121 
L 228.996399 85.797633 
L 230.740678 85.821761 
L 260.090075 85.8156 
L 260.165913 86.058588 
L 260.317589 83.342329 
L 260.393428 83.385828 
L 261.075972 84.917974 
L 261.682678 85.638919 
L 262.44106 86.157976 
L 263.351119 86.488648 
L 264.564531 86.691055 
L 266.005457 86.743724 
L 298.009192 86.653844 
L 298.08503 86.085394 
L 298.236707 88.896913 
L 298.388383 88.5769 
L 298.843412 87.45247 
L 299.37428 86.720771 
L 300.056824 86.162415 
L 300.891045 85.773531 
L 302.104457 85.485732 
L 304.607118 85.41708 
L 311.887589 85.507135 
L 330.998824 85.499 
L 335.928309 85.499912 
L 335.928309 85.499912 
" clip-path="url(#p549677cf07)" style="fill: none; stroke: #1f77b4; stroke-width: 1.5; stroke-linecap: square"/>
    <defs>
     <path id="mf40c08791f" d="M -0 2.5 
L 2.5 -2.5 
L -2.5 -2.5 
z
" style="stroke: #1f77b4; stroke-linejoin: miter"/>
    </defs>
    <g clip-path="url(#p549677cf07)">
     <use xlink:href="#mf40c08791f" x="70.494489" y="100.508557" style="fill: #1f77b4; stroke: #1f77b4; stroke-linejoin: miter"/>
     <use xlink:href="#mf40c08791f" x="78.078312" y="86.396379" style="fill: #1f77b4; stroke: #1f77b4; stroke-linejoin: miter"/>
     <use xlink:href="#mf40c08791f" x="85.662136" y="86.411598" style="fill: #1f77b4; stroke: #1f77b4; stroke-linejoin: miter"/>
     <use xlink:href="#mf40c08791f" x="93.245959" y="86.404585" style="fill: #1f77b4; stroke: #1f77b4; stroke-linejoin: miter"/>
     <use xlink:href="#mf40c08791f" x="100.829783" y="86.407496" style="fill: #1f77b4; stroke: #1f77b4; stroke-linejoin: miter"/>
     <use xlink:href="#mf40c08791f" x="108.413606" y="86.406593" style="fill: #1f77b4; stroke: #1f77b4; stroke-linejoin: miter"/>
     <use xlink:href="#mf40c08791f" x="115.99743" y="85.377062" style="fill: #1f77b4; stroke: #1f77b4; stroke-linejoin: miter"/>
     <use xlink:href="#mf40c08791f" x="123.581253" y="85.41545" style="fill: #1f77b4; stroke: #1f77b4; stroke-linejoin: miter"/>
     <use xlink:href="#mf40c08791f" x="131.165076" y="85.423144" style="fill: #1f77b4; stroke: #1f77b4; stroke-linejoin: miter"/>
     <use xlink:href="#mf40c08791f" x="138.7489" y="85.426869" style="fill: #1f77b4; stroke: #1f77b4; stroke-linejoin: miter"/>
     <use xlink:href="#mf40c08791f" x="146.332723" y="85.424452" style="fill: #1f77b4; stroke: #1f77b4; stroke-linejoin: miter"/>
     <use xlink:href="#mf40c08791f" x="153.916547" y="86.104196" style="fill: #1f77b4; stroke: #1f77b4; stroke-linejoin: miter"/>
     <use xlink:href="#mf40c08791f" x="161.50037" y="86.091042" style="fill: #1f77b4; stroke: #1f77b4; stroke-linejoin: miter"/>
     <use xlink:href="#mf40c08791f" x="169.084194" y="86.098517" style="fill: #1f77b4; stroke: #1f77b4; stroke-linejoin: miter"/>
     <use xlink:href="#mf40c08791f" x="176.668017" y="86.095557" style="fill: #1f77b4; stroke: #1f77b4; stroke-linejoin: miter"/>
     <use xlink:href="#mf40c08791f" x="184.25184" y="86.096044" style="fill: #1f77b4; stroke: #1f77b4; stroke-linejoin: miter"/>
     <use xlink:href="#mf40c08791f" x="191.835664" y="85.39332" style="fill: #1f77b4; stroke: #1f77b4; stroke-linejoin: miter"/>
     <use xlink:href="#mf40c08791f" x="199.419487" y="85.431569" style="fill: #1f77b4; stroke: #1f77b4; stroke-linejoin: miter"/>
     <use xlink:href="#mf40c08791f" x="207.003311" y="85.440201" style="fill: #1f77b4; stroke: #1f77b4; stroke-linejoin: miter"/>
     <use xlink:href="#mf40c08791f" x="214.587134" y="85.441056" style="fill: #1f77b4; stroke: #1f77b4; stroke-linejoin: miter"/>
     <use xlink:href="#mf40c08791f" x="222.170958" y="85.439301" style="fill: #1f77b4; stroke: #1f77b4; stroke-linejoin: miter"/>
     <use xlink:href="#mf40c08791f" x="229.754781" y="85.822465" style="fill: #1f77b4; stroke: #1f77b4; stroke-linejoin: miter"/>
     <use xlink:href="#mf40c08791f" x="237.338604" y="85.819078" style="fill: #1f77b4; stroke: #1f77b4; stroke-linejoin: miter"/>
     <use xlink:href="#mf40c08791f" x="244.922428" y="85.813831" style="fill: #1f77b4; stroke: #1f77b4; stroke-linejoin: miter"/>
     <use xlink:href="#mf40c08791f" x="252.506251" y="85.815922" style="fill: #1f77b4; stroke: #1f77b4; stroke-linejoin: miter"/>
     <use xlink:href="#mf40c08791f" x="260.090075" y="85.8156" style="fill: #1f77b4; stroke: #1f77b4; stroke-linejoin: miter"/>
     <use xlink:href="#mf40c08791f" x="267.673898" y="86.705145" style="fill: #1f77b4; stroke: #1f77b4; stroke-linejoin: miter"/>
     <use xlink:href="#mf40c08791f" x="275.257722" y="86.64689" style="fill: #1f77b4; stroke: #1f77b4; stroke-linejoin: miter"/>
     <use xlink:href="#mf40c08791f" x="282.841545" y="86.650039" style="fill: #1f77b4; stroke: #1f77b4; stroke-linejoin: miter"/>
     <use xlink:href="#mf40c08791f" x="290.425368" y="86.655413" style="fill: #1f77b4; stroke: #1f77b4; stroke-linejoin: miter"/>
     <use xlink:href="#mf40c08791f" x="298.009192" y="86.653844" style="fill: #1f77b4; stroke: #1f77b4; stroke-linejoin: miter"/>
     <use xlink:href="#mf40c08791f" x="305.593015" y="85.454098" style="fill: #1f77b4; stroke: #1f77b4; stroke-linejoin: miter"/>
     <use xlink:href="#mf40c08791f" x="313.176839" y="85.505291" style="fill: #1f77b4; stroke: #1f77b4; stroke-linejoin: miter"/>
     <use xlink:href="#mf40c08791f" x="320.760662" y="85.502782" style="fill: #1f77b4; stroke: #1f77b4; stroke-linejoin: miter"/>
     <use xlink:href="#mf40c08791f" x="328.344486" y="85.49852" style="fill: #1f77b4; stroke: #1f77b4; stroke-linejoin: miter"/>
     <use xlink:href="#mf40c08791f" x="335.928309" y="85.499912" style="fill: #1f77b4; stroke: #1f77b4; stroke-linejoin: miter"/>
    </g>
   </g>
   <g id="line2d_36">
    <path d="M 70.494489 77.825118 
L 70.570327 87.127852 
L 70.646166 86.772666 
L 70.87368 86.546623 
L 72.238768 86.205406 
L 74.058886 85.986422 
L 76.03068 86.016142 
L 79.670915 86.068567 
L 108.413606 86.076731 
L 108.489444 84.568549 
L 108.641121 85.830996 
L 108.868636 85.869997 
L 109.475341 85.861735 
L 113.115577 86.062899 
L 118.1209 85.987052 
L 124.946341 85.992024 
L 146.332723 85.996091 
L 146.408562 86.450061 
L 146.4844 86.301067 
L 146.787753 86.227042 
L 149.89712 85.966568 
L 163.472164 86.030498 
L 184.25184 86.02899 
L 184.327679 84.634172 
L 184.479355 85.797659 
L 184.70687 85.862727 
L 185.465252 85.890332 
L 188.422943 86.0881 
L 204.04562 86.011069 
L 212.691178 86.012813 
L 222.170958 86.012198 
L 222.398472 86.831591 
L 222.853502 86.56537 
L 223.763561 86.233351 
L 225.128649 85.985965 
L 226.721252 85.939001 
L 237.793634 86.015045 
L 260.090075 86.017798 
L 260.165913 87.275198 
L 260.317589 86.23182 
L 260.545104 86.202231 
L 261.227648 86.220277 
L 264.867883 86.11591 
L 268.128928 86.153356 
L 278.367089 86.161919 
L 291.562942 86.164398 
L 298.009192 86.164302 
L 298.08503 84.844061 
L 298.236707 85.911979 
L 298.464221 85.911538 
L 299.070927 85.899393 
L 302.483648 86.058679 
L 307.413133 85.980947 
L 319.471412 85.992123 
L 335.928309 85.99113 
L 335.928309 85.99113 
" clip-path="url(#p549677cf07)" style="fill: none; stroke: #ff7f0e; stroke-width: 1.5; stroke-linecap: square"/>
    <defs>
     <path id="mccb5903182" d="M -0 2.5 
L 2.5 -2.5 
L -2.5 -2.5 
z
" style="stroke: #ff7f0e; stroke-linejoin: miter"/>
    </defs>
    <g clip-path="url(#p549677cf07)">
     <use xlink:href="#mccb5903182" x="70.494489" y="77.825118" style="fill: #ff7f0e; stroke: #ff7f0e; stroke-linejoin: miter"/>
     <use xlink:href="#mccb5903182" x="78.078312" y="86.100719" style="fill: #ff7f0e; stroke: #ff7f0e; stroke-linejoin: miter"/>
     <use xlink:href="#mccb5903182" x="85.662136" y="86.079685" style="fill: #ff7f0e; stroke: #ff7f0e; stroke-linejoin: miter"/>
     <use xlink:href="#mccb5903182" x="93.245959" y="86.076106" style="fill: #ff7f0e; stroke: #ff7f0e; stroke-linejoin: miter"/>
     <use xlink:href="#mccb5903182" x="100.829783" y="86.077078" style="fill: #ff7f0e; stroke: #ff7f0e; stroke-linejoin: miter"/>
     <use xlink:href="#mccb5903182" x="108.413606" y="86.076731" style="fill: #ff7f0e; stroke: #ff7f0e; stroke-linejoin: miter"/>
     <use xlink:href="#mccb5903182" x="115.99743" y="86.006108" style="fill: #ff7f0e; stroke: #ff7f0e; stroke-linejoin: miter"/>
     <use xlink:href="#mccb5903182" x="123.581253" y="85.992373" style="fill: #ff7f0e; stroke: #ff7f0e; stroke-linejoin: miter"/>
     <use xlink:href="#mccb5903182" x="131.165076" y="85.995491" style="fill: #ff7f0e; stroke: #ff7f0e; stroke-linejoin: miter"/>
     <use xlink:href="#mccb5903182" x="138.7489" y="85.997034" style="fill: #ff7f0e; stroke: #ff7f0e; stroke-linejoin: miter"/>
     <use xlink:href="#mccb5903182" x="146.332723" y="85.996091" style="fill: #ff7f0e; stroke: #ff7f0e; stroke-linejoin: miter"/>
     <use xlink:href="#mccb5903182" x="153.916547" y="86.018454" style="fill: #ff7f0e; stroke: #ff7f0e; stroke-linejoin: miter"/>
     <use xlink:href="#mccb5903182" x="161.50037" y="86.02698" style="fill: #ff7f0e; stroke: #ff7f0e; stroke-linejoin: miter"/>
     <use xlink:href="#mccb5903182" x="169.084194" y="86.029612" style="fill: #ff7f0e; stroke: #ff7f0e; stroke-linejoin: miter"/>
     <use xlink:href="#mccb5903182" x="176.668017" y="86.028724" style="fill: #ff7f0e; stroke: #ff7f0e; stroke-linejoin: miter"/>
     <use xlink:href="#mccb5903182" x="184.25184" y="86.02899" style="fill: #ff7f0e; stroke: #ff7f0e; stroke-linejoin: miter"/>
     <use xlink:href="#mccb5903182" x="191.835664" y="86.014867" style="fill: #ff7f0e; stroke: #ff7f0e; stroke-linejoin: miter"/>
     <use xlink:href="#mccb5903182" x="199.419487" y="86.010261" style="fill: #ff7f0e; stroke: #ff7f0e; stroke-linejoin: miter"/>
     <use xlink:href="#mccb5903182" x="207.003311" y="86.012453" style="fill: #ff7f0e; stroke: #ff7f0e; stroke-linejoin: miter"/>
     <use xlink:href="#mccb5903182" x="214.587134" y="86.012837" style="fill: #ff7f0e; stroke: #ff7f0e; stroke-linejoin: miter"/>
     <use xlink:href="#mccb5903182" x="222.170958" y="86.012198" style="fill: #ff7f0e; stroke: #ff7f0e; stroke-linejoin: miter"/>
     <use xlink:href="#mccb5903182" x="229.754781" y="86.032003" style="fill: #ff7f0e; stroke: #ff7f0e; stroke-linejoin: miter"/>
     <use xlink:href="#mccb5903182" x="237.338604" y="86.020107" style="fill: #ff7f0e; stroke: #ff7f0e; stroke-linejoin: miter"/>
     <use xlink:href="#mccb5903182" x="244.922428" y="86.017192" style="fill: #ff7f0e; stroke: #ff7f0e; stroke-linejoin: miter"/>
     <use xlink:href="#mccb5903182" x="252.506251" y="86.017982" style="fill: #ff7f0e; stroke: #ff7f0e; stroke-linejoin: miter"/>
     <use xlink:href="#mccb5903182" x="260.090075" y="86.017798" style="fill: #ff7f0e; stroke: #ff7f0e; stroke-linejoin: miter"/>
     <use xlink:href="#mccb5903182" x="267.673898" y="86.152784" style="fill: #ff7f0e; stroke: #ff7f0e; stroke-linejoin: miter"/>
     <use xlink:href="#mccb5903182" x="275.257722" y="86.161108" style="fill: #ff7f0e; stroke: #ff7f0e; stroke-linejoin: miter"/>
     <use xlink:href="#mccb5903182" x="282.841545" y="86.16261" style="fill: #ff7f0e; stroke: #ff7f0e; stroke-linejoin: miter"/>
     <use xlink:href="#mccb5903182" x="290.425368" y="86.164901" style="fill: #ff7f0e; stroke: #ff7f0e; stroke-linejoin: miter"/>
     <use xlink:href="#mccb5903182" x="298.009192" y="86.164302" style="fill: #ff7f0e; stroke: #ff7f0e; stroke-linejoin: miter"/>
     <use xlink:href="#mccb5903182" x="305.593015" y="85.997758" style="fill: #ff7f0e; stroke: #ff7f0e; stroke-linejoin: miter"/>
     <use xlink:href="#mccb5903182" x="313.176839" y="85.99405" style="fill: #ff7f0e; stroke: #ff7f0e; stroke-linejoin: miter"/>
     <use xlink:href="#mccb5903182" x="320.760662" y="85.992251" style="fill: #ff7f0e; stroke: #ff7f0e; stroke-linejoin: miter"/>
     <use xlink:href="#mccb5903182" x="328.344486" y="85.990596" style="fill: #ff7f0e; stroke: #ff7f0e; stroke-linejoin: miter"/>
     <use xlink:href="#mccb5903182" x="335.928309" y="85.99113" style="fill: #ff7f0e; stroke: #ff7f0e; stroke-linejoin: miter"/>
    </g>
   </g>
   <g id="line2d_37">
    <path d="M 70.494489 102.474694 
L 70.646166 86.749809 
L 70.797842 86.560656 
L 71.859577 87.617873 
L 72.693798 88.040536 
L 73.90721 88.381501 
L 76.334033 88.471379 
L 81.339357 88.367746 
L 82.628607 88.365115 
L 93.397636 88.37094 
L 108.413606 88.37273 
L 108.489444 81.906443 
L 108.565283 84.604989 
L 108.641121 85.228372 
L 108.716959 85.186349 
L 109.399503 83.438363 
L 110.006209 82.643338 
L 110.688753 82.137425 
L 111.598812 81.767189 
L 112.812224 81.539351 
L 118.879283 81.552315 
L 124.187959 81.5655 
L 146.332723 81.553337 
L 146.408562 86.574553 
L 146.4844 86.207219 
L 146.636076 86.183502 
L 147.242782 86.474678 
L 148.60787 86.787656 
L 149.366253 86.855318 
L 151.034694 86.844708 
L 154.295738 86.78827 
L 163.775517 86.786931 
L 169.008355 86.786368 
L 184.25184 86.784117 
L 184.327679 82.146615 
L 184.479355 85.171013 
L 184.555193 85.151788 
L 185.389414 83.286105 
L 185.99612 82.602293 
L 186.754502 82.117548 
L 187.512885 81.841037 
L 188.726296 81.633824 
L 190.318899 81.560283 
L 199.040296 81.643185 
L 214.132105 81.65185 
L 222.170958 81.649905 
L 222.398472 85.836406 
L 222.550149 85.705967 
L 223.081016 85.098111 
L 223.839399 84.626054 
L 224.825296 84.286041 
L 225.962869 84.112616 
L 227.479634 84.087417 
L 233.24334 84.182195 
L 242.495604 84.183571 
L 253.188795 84.184231 
L 260.090075 84.184632 
L 260.165913 89.506613 
L 260.241751 87.297373 
L 260.317589 86.790354 
L 260.393428 86.833853 
L 261.075972 88.365999 
L 261.682678 89.086944 
L 262.44106 89.606001 
L 263.351119 89.936673 
L 264.564531 90.13908 
L 266.005457 90.191749 
L 298.009192 90.101869 
L 298.08503 82.686474 
L 298.160868 85.013047 
L 298.236707 85.497993 
L 298.312545 85.410066 
L 298.843412 84.053551 
L 299.37428 83.321852 
L 300.056824 82.763495 
L 300.891045 82.374611 
L 302.104457 82.086813 
L 304.607118 82.018161 
L 311.887589 82.108216 
L 330.998824 82.10008 
L 335.928309 82.100993 
L 335.928309 82.100993 
" clip-path="url(#p549677cf07)" style="fill: none; stroke: #1f77b4; stroke-width: 2; stroke-linecap: square"/>
   </g>
   <g id="line2d_38">
    <path d="M 70.494489 76.989118 
L 70.570327 86.291852 
L 70.646166 85.936666 
L 70.87368 85.710622 
L 72.238768 85.369406 
L 74.058886 85.150422 
L 76.03068 85.180142 
L 79.670915 85.232567 
L 108.489444 85.032455 
L 108.641121 86.294902 
L 108.868636 86.333903 
L 109.475341 86.325642 
L 113.115577 86.526805 
L 118.1209 86.450958 
L 124.946341 86.45593 
L 146.332723 86.459997 
L 146.560238 85.935494 
L 148.380356 85.705583 
L 149.972959 85.646732 
L 160.969503 85.708767 
L 171.435179 85.70782 
L 184.25184 85.708179 
L 184.327679 85.116956 
L 184.479355 86.280442 
L 184.70687 86.345511 
L 185.465252 86.373116 
L 188.422943 86.570884 
L 204.04562 86.493852 
L 212.691178 86.495597 
L 222.170958 86.494982 
L 222.246796 85.426942 
L 222.322634 85.808885 
L 222.474311 85.853748 
L 223.308531 85.421049 
L 224.521943 85.119605 
L 225.887031 84.992501 
L 228.08634 85.036577 
L 230.66484 85.058294 
L 239.841266 85.067567 
L 260.090075 85.06637 
L 260.165913 86.932757 
L 260.241751 86.124401 
L 260.393428 85.840609 
L 261.910192 85.826025 
L 263.957825 85.753386 
L 274.954369 85.824824 
L 282.841545 85.820169 
L 298.009192 85.82186 
L 298.08503 85.251509 
L 298.236707 86.319427 
L 298.464221 86.318987 
L 299.070927 86.306842 
L 302.483648 86.466127 
L 307.413133 86.388395 
L 319.471412 86.399571 
L 335.928309 86.398579 
L 335.928309 86.398579 
" clip-path="url(#p549677cf07)" style="fill: none; stroke: #ff7f0e; stroke-width: 2; stroke-linecap: square"/>
   </g>
   <g id="patch_3">
    <path d="M 57.222798 175.381683 
L 57.222798 10.8 
" style="fill: none; stroke: #000000; stroke-width: 0.8; stroke-linejoin: miter; stroke-linecap: square"/>
   </g>
   <g id="patch_4">
    <path d="M 349.2 175.381683 
L 349.2 10.8 
" style="fill: none; stroke: #000000; stroke-width: 0.8; stroke-linejoin: miter; stroke-linecap: square"/>
   </g>
   <g id="patch_5">
    <path d="M 57.222798 175.381683 
L 349.2 175.381683 
" style="fill: none; stroke: #000000; stroke-width: 0.8; stroke-linejoin: miter; stroke-linecap: square"/>
   </g>
   <g id="patch_6">
    <path d="M 57.222798 10.8 
L 349.2 10.8 
" style="fill: none; stroke: #000000; stroke-width: 0.8; stroke-linejoin: miter; stroke-linecap: square"/>
   </g>
   <g id="legend_1">
    <g id="patch_7">
     <path d="M 64.222798 138.22881 
L 113.785478 138.22881 
Q 115.785478 138.22881 115.785478 136.22881 
L 115.785478 49.952873 
Q 115.785478 47.952873 113.785478 47.952873 
L 64.222798 47.952873 
Q 62.222798 47.952873 62.222798 49.952873 
L 62.222798 136.22881 
Q 62.222798 138.22881 64.222798 138.22881 
z
" style="fill: #ffffff; opacity: 0.8; stroke: #cccccc; stroke-linejoin: miter"/>
    </g>
    <g id="line2d_39">
     <path d="M 66.222798 55.452873 
L 76.222798 55.452873 
L 86.222798 55.452873 
" style="fill: none; stroke: #1f77b4; stroke-width: 1.5; stroke-linecap: square"/>
     <g>
      <use xlink:href="#m79feb4c22a" x="76.222798" y="55.452873" style="fill: #1f77b4; stroke: #1f77b4"/>
     </g>
    </g>
    <g id="text_19">
     <!-- $\tau_\mathrm{ff,1}$ -->
     <g transform="translate(94.222798 58.952873) scale(0.1 -0.1)">
      <defs>
       <path id="CMMI12-1c" d="M 1837 2408 
L 2899 2408 
C 2982 2408 3194 2408 3194 2612 
C 3194 2752 3072 2752 2957 2752 
L 1197 2752 
C 1050 2752 832 2752 538 2440 
C 371 2255 166 1917 166 1879 
C 166 1841 198 1828 237 1828 
C 282 1828 288 1847 320 1885 
C 653 2408 986 2408 1146 2408 
L 1677 2408 
L 1011 223 
C 979 127 979 114 979 95 
C 979 25 1024 -64 1152 -64 
C 1350 -64 1382 108 1402 203 
L 1837 2408 
z
" transform="scale(0.015625)"/>
       <path id="CMR17-b" d="M 2554 2560 
L 3283 2560 
L 3283 2725 
L 2541 2725 
L 2541 3494 
C 2541 4022 2810 4352 3085 4352 
C 3168 4352 3264 4327 3328 4282 
C 3277 4269 3142 4225 3142 4067 
C 3142 3901 3270 3850 3360 3850 
C 3450 3850 3578 3901 3578 4067 
C 3578 4308 3347 4454 3091 4454 
C 2842 4454 2637 4333 2477 4181 
C 2330 4390 2086 4454 1837 4454 
C 1338 4454 634 4168 634 3469 
L 634 2725 
L 122 2725 
L 122 2560 
L 634 2560 
L 634 427 
C 634 184 608 153 198 153 
L 198 -13 
C 352 0 634 0 794 0 
C 960 0 1242 0 1395 -13 
L 1395 153 
C 986 153 960 178 960 427 
L 960 2560 
L 2227 2560 
L 2227 427 
C 2227 184 2202 153 1792 153 
L 1792 -13 
C 1946 0 2240 0 2406 0 
C 2592 0 2918 0 3091 -13 
L 3091 153 
C 2630 153 2554 153 2554 439 
L 2554 2560 
z
M 947 2725 
L 947 3469 
C 947 4047 1395 4352 1824 4352 
C 1920 4352 2170 4332 2323 4187 
C 2208 4187 2099 4136 2099 3977 
C 2099 3812 2246 3767 2259 3767 
C 2227 3652 2227 3526 2227 3481 
L 2227 2725 
L 947 2725 
z
" transform="scale(0.015625)"/>
       <path id="CMMI12-3b" d="M 1248 -31 
C 1248 343 1126 619 864 619 
C 659 619 557 453 557 313 
C 557 172 653 0 870 0 
C 954 0 1024 26 1082 83 
C 1094 96 1101 96 1107 96 
C 1120 96 1120 5 1120 -27 
C 1120 -240 1082 -659 710 -1080 
C 640 -1157 640 -1170 640 -1183 
C 640 -1216 672 -1248 704 -1248 
C 755 -1248 1248 -771 1248 -31 
z
" transform="scale(0.015625)"/>
      </defs>
      <use xlink:href="#CMMI12-1c" transform="scale(0.996264)"/>
      <use xlink:href="#CMR17-b" transform="translate(42.363841 -14.943915) scale(0.697382)"/>
      <use xlink:href="#CMMI12-3b" transform="translate(83.138776 -14.943915) scale(0.697382)"/>
      <use xlink:href="#CMR17-31" transform="translate(102.106709 -14.943915) scale(0.697382)"/>
     </g>
    </g>
    <g id="line2d_40">
     <path d="M 66.222798 70.303268 
L 76.222798 70.303268 
L 86.222798 70.303268 
" style="fill: none; stroke: #ff7f0e; stroke-width: 1.5; stroke-linecap: square"/>
     <g>
      <use xlink:href="#m6723f300ee" x="76.222798" y="70.303268" style="fill: #ff7f0e; stroke: #ff7f0e"/>
     </g>
    </g>
    <g id="text_20">
     <!-- $\tau_\mathrm{ff,2}$ -->
     <g transform="translate(94.222798 73.803268) scale(0.1 -0.1)">
      <use xlink:href="#CMMI12-1c" transform="scale(0.996264)"/>
      <use xlink:href="#CMR17-b" transform="translate(42.363841 -14.943915) scale(0.697382)"/>
      <use xlink:href="#CMMI12-3b" transform="translate(83.138776 -14.943915) scale(0.697382)"/>
      <use xlink:href="#CMR17-32" transform="translate(102.106709 -14.943915) scale(0.697382)"/>
     </g>
    </g>
    <g id="line2d_41">
     <path d="M 66.222798 85.153663 
L 76.222798 85.153663 
L 86.222798 85.153663 
" style="fill: none; stroke: #1f77b4; stroke-width: 1.5; stroke-linecap: square"/>
     <g>
      <use xlink:href="#mf40c08791f" x="76.222798" y="85.153663" style="fill: #1f77b4; stroke: #1f77b4; stroke-linejoin: miter"/>
     </g>
    </g>
    <g id="text_21">
     <!-- $\tau_{\mathrm{fb},1}$ -->
     <g transform="translate(94.222798 88.653663) scale(0.1 -0.1)">
      <defs>
       <path id="CMR17-66" d="M 979 2560 
L 1709 2560 
L 1709 2725 
L 966 2725 
L 966 3494 
C 966 4022 1235 4352 1510 4352 
C 1594 4352 1690 4327 1754 4282 
C 1702 4269 1568 4225 1568 4067 
C 1568 3901 1696 3850 1786 3850 
C 1875 3850 2003 3901 2003 4067 
C 2003 4308 1773 4454 1517 4454 
C 1152 4454 653 4156 653 3481 
L 653 2725 
L 141 2725 
L 141 2560 
L 653 2560 
L 653 427 
C 653 184 627 153 218 153 
L 218 -13 
C 371 0 666 0 832 0 
C 1018 0 1344 0 1517 -13 
L 1517 153 
C 1056 153 979 153 979 439 
L 979 2560 
z
" transform="scale(0.015625)"/>
       <path id="CMR17-62" d="M 960 4396 
L 198 4326 
L 198 4160 
C 576 4160 634 4122 634 3817 
L 634 -13 
L 749 -13 
L 934 441 
C 1120 141 1395 -64 1766 -64 
C 2406 -64 3053 500 3053 1370 
C 3053 2188 2477 2790 1830 2790 
C 1434 2790 1152 2579 960 2330 
L 960 4396 
z
M 973 2004 
C 973 2118 973 2138 1062 2272 
C 1312 2657 1670 2688 1792 2688 
C 1984 2688 2643 2585 2643 1376 
C 2643 108 1888 38 1734 38 
C 1536 38 1248 114 1043 486 
C 973 608 973 621 973 735 
L 973 2004 
z
" transform="scale(0.015625)"/>
      </defs>
      <use xlink:href="#CMMI12-1c" transform="scale(0.996264)"/>
      <use xlink:href="#CMR17-66" transform="translate(42.363841 -14.943915) scale(0.697382)"/>
      <use xlink:href="#CMR17-62" transform="translate(61.595205 -14.943915) scale(0.697382)"/>
      <use xlink:href="#CMMI12-3b" transform="translate(97.221813 -14.943915) scale(0.697382)"/>
      <use xlink:href="#CMR17-31" transform="translate(116.189746 -14.943915) scale(0.697382)"/>
     </g>
    </g>
    <g id="line2d_42">
     <path d="M 66.222798 100.004058 
L 76.222798 100.004058 
L 86.222798 100.004058 
" style="fill: none; stroke: #ff7f0e; stroke-width: 1.5; stroke-linecap: square"/>
     <g>
      <use xlink:href="#mccb5903182" x="76.222798" y="100.004058" style="fill: #ff7f0e; stroke: #ff7f0e; stroke-linejoin: miter"/>
     </g>
    </g>
    <g id="text_22">
     <!-- $\tau_{\mathrm{fb},2}$ -->
     <g transform="translate(94.222798 103.504058) scale(0.1 -0.1)">
      <use xlink:href="#CMMI12-1c" transform="scale(0.996264)"/>
      <use xlink:href="#CMR17-66" transform="translate(42.363841 -14.943915) scale(0.697382)"/>
      <use xlink:href="#CMR17-62" transform="translate(61.595205 -14.943915) scale(0.697382)"/>
      <use xlink:href="#CMMI12-3b" transform="translate(97.221813 -14.943915) scale(0.697382)"/>
      <use xlink:href="#CMR17-32" transform="translate(116.189746 -14.943915) scale(0.697382)"/>
     </g>
    </g>
    <g id="line2d_43">
     <path d="M 66.222798 114.854453 
L 76.222798 114.854453 
L 86.222798 114.854453 
" style="fill: none; stroke: #1f77b4; stroke-width: 2; stroke-linecap: square"/>
    </g>
    <g id="text_23">
     <!-- $\tau_1$ -->
     <g transform="translate(94.222798 118.354453) scale(0.1 -0.1)">
      <use xlink:href="#CMMI12-1c" transform="scale(0.996264)"/>
      <use xlink:href="#CMR17-31" transform="translate(42.363841 -14.943915) scale(0.697382)"/>
     </g>
    </g>
    <g id="line2d_44">
     <path d="M 66.222798 128.791632 
L 76.222798 128.791632 
L 86.222798 128.791632 
" style="fill: none; stroke: #ff7f0e; stroke-width: 2; stroke-linecap: square"/>
    </g>
    <g id="text_24">
     <!-- $\tau_2$ -->
     <g transform="translate(94.222798 132.291632) scale(0.1 -0.1)">
      <use xlink:href="#CMMI12-1c" transform="scale(0.996264)"/>
      <use xlink:href="#CMR17-32" transform="translate(42.363841 -14.943915) scale(0.697382)"/>
     </g>
    </g>
   </g>
  </g>
 </g>
 <defs>
  <clipPath id="p549677cf07">
   <rect x="57.222798" y="10.8" width="291.977202" height="164.581683"/>
  </clipPath>
 </defs>
</svg>
