<?xml version="1.0" encoding="utf-8" standalone="no"?>
<!DOCTYPE svg PUBLIC "-//W3C//DTD SVG 1.1//EN"
  "http://www.w3.org/Graphics/SVG/1.1/DTD/svg11.dtd">
<svg xmlns:xlink="http://www.w3.org/1999/xlink" width="360pt" height="252pt" viewBox="0 0 360 252" xmlns="http://www.w3.org/2000/svg" version="1.1">
 <metadata>
  <rdf:RDF xmlns:dc="http://purl.org/dc/elements/1.1/" xmlns:cc="http://creativecommons.org/ns#" xmlns:rdf="http://www.w3.org/1999/02/22-rdf-syntax-ns#">
   <cc:Work>
    <dc:type rdf:resource="http://purl.org/dc/dcmitype/StillImage"/>
    <dc:date>2024-10-22T10:34:14.623384</dc:date>
    <dc:format>image/svg+xml</dc:format>
    <dc:creator>
     <cc:Agent>
      <dc:title>Matplotlib v3.9.2, https://matplotlib.org/</dc:title>
     </cc:Agent>
    </dc:creator>
   </cc:Work>
  </rdf:RDF>
 </metadata>
 <defs>
  <style type="text/css">*{stroke-linejoin: round; stroke-linecap: butt}</style>
 </defs>
 <g id="figure_1">
  <g id="patch_1">
   <path d="M 0 252 
L 360 252 
L 360 0 
L 0 0 
z
" style="fill: #ffffff"/>
  </g>
  <g id="axes_1">
   <g id="patch_2">
    <path d="M 52.241463 211.381683 
L 349.2 211.381683 
L 349.2 10.8 
L 52.241463 10.8 
z
" style="fill: #ffffff"/>
   </g>
   <g id="matplotlib.axis_1">
    <g id="xtick_1">
     <g id="line2d_1">
      <path d="M 65.739578 211.381683 
L 65.739578 10.8 
" clip-path="url(#pc91b10f43d)" style="fill: none; stroke: #b0b0b0; stroke-width: 0.8; stroke-linecap: square"/>
     </g>
     <g id="line2d_2">
      <defs>
       <path id="m73f13ec939" d="M 0 0 
L 0 3.5 
" style="stroke: #000000; stroke-width: 0.8"/>
      </defs>
      <g>
       <use xlink:href="#m73f13ec939" x="65.739578" y="211.381683" style="stroke: #000000; stroke-width: 0.8"/>
      </g>
     </g>
     <g id="text_1">
      <!-- $\mathdefault{0}$ -->
      <g transform="translate(63.248911 225.300182) scale(0.1 -0.1)">
       <defs>
        <path id="CMR17-30" d="M 2688 2025 
C 2688 2416 2682 3080 2413 3591 
C 2176 4039 1798 4198 1466 4198 
C 1158 4198 768 4058 525 3597 
C 269 3118 243 2524 243 2025 
C 243 1661 250 1106 448 619 
C 723 -39 1216 -128 1466 -128 
C 1760 -128 2208 -7 2470 600 
C 2662 1042 2688 1559 2688 2025 
z
M 1466 -26 
C 1056 -26 813 325 723 812 
C 653 1188 653 1738 653 2096 
C 653 2588 653 2997 736 3387 
C 858 3929 1216 4096 1466 4096 
C 1728 4096 2067 3923 2189 3400 
C 2272 3036 2278 2607 2278 2096 
C 2278 1680 2278 1169 2202 792 
C 2067 95 1690 -26 1466 -26 
z
" transform="scale(0.015625)"/>
       </defs>
       <use xlink:href="#CMR17-30" transform="scale(0.996264)"/>
      </g>
     </g>
    </g>
    <g id="xtick_2">
     <g id="line2d_3">
      <path d="M 104.305622 211.381683 
L 104.305622 10.8 
" clip-path="url(#pc91b10f43d)" style="fill: none; stroke: #b0b0b0; stroke-width: 0.8; stroke-linecap: square"/>
     </g>
     <g id="line2d_4">
      <g>
       <use xlink:href="#m73f13ec939" x="104.305622" y="211.381683" style="stroke: #000000; stroke-width: 0.8"/>
      </g>
     </g>
     <g id="text_2">
      <!-- $\mathdefault{5}$ -->
      <g transform="translate(101.814954 225.300182) scale(0.1 -0.1)">
       <defs>
        <path id="CMR17-35" d="M 730 3692 
C 794 3666 1056 3584 1325 3584 
C 1920 3584 2246 3911 2432 4100 
C 2432 4157 2432 4192 2394 4192 
C 2387 4192 2374 4192 2323 4163 
C 2099 4058 1837 3973 1517 3973 
C 1325 3973 1037 3999 723 4139 
C 653 4171 640 4171 634 4171 
C 602 4171 595 4164 595 4037 
L 595 2203 
C 595 2089 595 2057 659 2057 
C 691 2057 704 2070 736 2114 
C 941 2401 1222 2522 1542 2522 
C 1766 2522 2246 2382 2246 1289 
C 2246 1085 2246 715 2054 421 
C 1894 159 1645 25 1370 25 
C 947 25 518 320 403 814 
C 429 807 480 795 506 795 
C 589 795 749 840 749 1038 
C 749 1210 627 1280 506 1280 
C 358 1280 262 1190 262 1011 
C 262 454 704 -128 1382 -128 
C 2042 -128 2669 440 2669 1264 
C 2669 2030 2170 2624 1549 2624 
C 1222 2624 947 2503 730 2274 
L 730 3692 
z
" transform="scale(0.015625)"/>
       </defs>
       <use xlink:href="#CMR17-35" transform="scale(0.996264)"/>
      </g>
     </g>
    </g>
    <g id="xtick_3">
     <g id="line2d_5">
      <path d="M 142.871666 211.381683 
L 142.871666 10.8 
" clip-path="url(#pc91b10f43d)" style="fill: none; stroke: #b0b0b0; stroke-width: 0.8; stroke-linecap: square"/>
     </g>
     <g id="line2d_6">
      <g>
       <use xlink:href="#m73f13ec939" x="142.871666" y="211.381683" style="stroke: #000000; stroke-width: 0.8"/>
      </g>
     </g>
     <g id="text_3">
      <!-- $\mathdefault{10}$ -->
      <g transform="translate(137.89033 225.300182) scale(0.1 -0.1)">
       <defs>
        <path id="CMR17-31" d="M 1702 4058 
C 1702 4192 1696 4192 1606 4192 
C 1357 3916 979 3827 621 3827 
C 602 3827 570 3827 563 3808 
C 557 3795 557 3782 557 3648 
C 755 3648 1088 3686 1344 3839 
L 1344 461 
C 1344 236 1331 160 781 160 
L 589 160 
L 589 0 
C 896 0 1216 0 1523 0 
C 1830 0 2150 0 2458 0 
L 2458 160 
L 2266 160 
C 1715 160 1702 230 1702 458 
L 1702 4058 
z
" transform="scale(0.015625)"/>
       </defs>
       <use xlink:href="#CMR17-31" transform="scale(0.996264)"/>
       <use xlink:href="#CMR17-30" transform="translate(45.690477 0) scale(0.996264)"/>
      </g>
     </g>
    </g>
    <g id="xtick_4">
     <g id="line2d_7">
      <path d="M 181.43771 211.381683 
L 181.43771 10.8 
" clip-path="url(#pc91b10f43d)" style="fill: none; stroke: #b0b0b0; stroke-width: 0.8; stroke-linecap: square"/>
     </g>
     <g id="line2d_8">
      <g>
       <use xlink:href="#m73f13ec939" x="181.43771" y="211.381683" style="stroke: #000000; stroke-width: 0.8"/>
      </g>
     </g>
     <g id="text_4">
      <!-- $\mathdefault{15}$ -->
      <g transform="translate(176.456374 225.300182) scale(0.1 -0.1)">
       <use xlink:href="#CMR17-31" transform="scale(0.996264)"/>
       <use xlink:href="#CMR17-35" transform="translate(45.690477 0) scale(0.996264)"/>
      </g>
     </g>
    </g>
    <g id="xtick_5">
     <g id="line2d_9">
      <path d="M 220.003753 211.381683 
L 220.003753 10.8 
" clip-path="url(#pc91b10f43d)" style="fill: none; stroke: #b0b0b0; stroke-width: 0.8; stroke-linecap: square"/>
     </g>
     <g id="line2d_10">
      <g>
       <use xlink:href="#m73f13ec939" x="220.003753" y="211.381683" style="stroke: #000000; stroke-width: 0.8"/>
      </g>
     </g>
     <g id="text_5">
      <!-- $\mathdefault{20}$ -->
      <g transform="translate(215.022418 225.300182) scale(0.1 -0.1)">
       <defs>
        <path id="CMR17-32" d="M 2669 989 
L 2554 989 
C 2490 536 2438 459 2413 420 
C 2381 369 1920 369 1830 369 
L 602 369 
C 832 619 1280 1072 1824 1597 
C 2214 1967 2669 2402 2669 3035 
C 2669 3790 2067 4224 1395 4224 
C 691 4224 262 3604 262 3030 
C 262 2780 448 2748 525 2748 
C 589 2748 781 2787 781 3010 
C 781 3207 614 3264 525 3264 
C 486 3264 448 3258 422 3245 
C 544 3790 915 4058 1306 4058 
C 1862 4058 2227 3617 2227 3035 
C 2227 2479 1901 2000 1536 1584 
L 262 146 
L 262 0 
L 2515 0 
L 2669 989 
z
" transform="scale(0.015625)"/>
       </defs>
       <use xlink:href="#CMR17-32" transform="scale(0.996264)"/>
       <use xlink:href="#CMR17-30" transform="translate(45.690477 0) scale(0.996264)"/>
      </g>
     </g>
    </g>
    <g id="xtick_6">
     <g id="line2d_11">
      <path d="M 258.569797 211.381683 
L 258.569797 10.8 
" clip-path="url(#pc91b10f43d)" style="fill: none; stroke: #b0b0b0; stroke-width: 0.8; stroke-linecap: square"/>
     </g>
     <g id="line2d_12">
      <g>
       <use xlink:href="#m73f13ec939" x="258.569797" y="211.381683" style="stroke: #000000; stroke-width: 0.8"/>
      </g>
     </g>
     <g id="text_6">
      <!-- $\mathdefault{25}$ -->
      <g transform="translate(253.588462 225.300182) scale(0.1 -0.1)">
       <use xlink:href="#CMR17-32" transform="scale(0.996264)"/>
       <use xlink:href="#CMR17-35" transform="translate(45.690477 0) scale(0.996264)"/>
      </g>
     </g>
    </g>
    <g id="xtick_7">
     <g id="line2d_13">
      <path d="M 297.135841 211.381683 
L 297.135841 10.8 
" clip-path="url(#pc91b10f43d)" style="fill: none; stroke: #b0b0b0; stroke-width: 0.8; stroke-linecap: square"/>
     </g>
     <g id="line2d_14">
      <g>
       <use xlink:href="#m73f13ec939" x="297.135841" y="211.381683" style="stroke: #000000; stroke-width: 0.8"/>
      </g>
     </g>
     <g id="text_7">
      <!-- $\mathdefault{30}$ -->
      <g transform="translate(292.154506 225.300182) scale(0.1 -0.1)">
       <defs>
        <path id="CMR17-33" d="M 1414 2157 
C 1984 2157 2234 1662 2234 1090 
C 2234 320 1824 25 1453 25 
C 1114 25 563 194 390 693 
C 422 680 454 680 486 680 
C 640 680 755 782 755 948 
C 755 1133 614 1216 486 1216 
C 378 1216 211 1165 211 926 
C 211 335 787 -128 1466 -128 
C 2176 -128 2720 430 2720 1085 
C 2720 1707 2208 2157 1600 2227 
C 2086 2328 2554 2756 2554 3329 
C 2554 3820 2048 4179 1472 4179 
C 890 4179 378 3829 378 3329 
C 378 3110 544 3072 627 3072 
C 762 3072 877 3155 877 3321 
C 877 3486 762 3569 627 3569 
C 602 3569 570 3569 544 3557 
C 730 3959 1235 4032 1459 4032 
C 1683 4032 2106 3925 2106 3320 
C 2106 3143 2080 2828 1862 2550 
C 1670 2304 1453 2304 1242 2284 
C 1210 2284 1062 2269 1037 2269 
C 992 2263 966 2257 966 2208 
C 966 2163 973 2157 1101 2157 
L 1414 2157 
z
" transform="scale(0.015625)"/>
       </defs>
       <use xlink:href="#CMR17-33" transform="scale(0.996264)"/>
       <use xlink:href="#CMR17-30" transform="translate(45.690477 0) scale(0.996264)"/>
      </g>
     </g>
    </g>
    <g id="xtick_8">
     <g id="line2d_15">
      <path d="M 335.701885 211.381683 
L 335.701885 10.8 
" clip-path="url(#pc91b10f43d)" style="fill: none; stroke: #b0b0b0; stroke-width: 0.8; stroke-linecap: square"/>
     </g>
     <g id="line2d_16">
      <g>
       <use xlink:href="#m73f13ec939" x="335.701885" y="211.381683" style="stroke: #000000; stroke-width: 0.8"/>
      </g>
     </g>
     <g id="text_8">
      <!-- $\mathdefault{35}$ -->
      <g transform="translate(330.720549 225.300182) scale(0.1 -0.1)">
       <use xlink:href="#CMR17-33" transform="scale(0.996264)"/>
       <use xlink:href="#CMR17-35" transform="translate(45.690477 0) scale(0.996264)"/>
      </g>
     </g>
    </g>
    <g id="text_9">
     <!-- Time $t$ [s] -->
     <g transform="translate(179.522424 238.70934) scale(0.1 -0.1)">
      <defs>
       <path id="CMR17-54" d="M 3981 4326 
L 288 4326 
L 179 2918 
L 294 2918 
C 378 3976 467 4160 1453 4160 
C 1568 4160 1754 4160 1805 4154 
C 1926 4135 1926 4058 1926 3912 
L 1926 459 
C 1926 230 1907 160 1376 160 
L 1197 160 
L 1197 0 
C 1504 0 1824 0 2138 0 
C 2451 0 2771 0 3078 0 
L 3078 160 
L 2899 160 
C 2368 160 2349 230 2349 459 
L 2349 3912 
C 2349 4052 2349 4129 2464 4154 
C 2515 4160 2701 4160 2816 4160 
C 3795 4160 3891 3976 3974 2918 
L 4090 2918 
L 3981 4326 
z
" transform="scale(0.015625)"/>
       <path id="CMR17-69" d="M 992 3909 
C 992 4049 877 4170 730 4170 
C 589 4170 467 4056 467 3909 
C 467 3769 582 3648 730 3648 
C 870 3648 992 3763 992 3909 
z
M 243 2706 
L 243 2541 
C 602 2541 653 2502 653 2197 
L 653 427 
C 653 184 627 153 218 153 
L 218 -13 
C 371 0 646 0 806 0 
C 960 0 1222 0 1370 -13 
L 1370 153 
C 992 153 979 191 979 420 
L 979 2776 
L 243 2706 
z
" transform="scale(0.015625)"/>
       <path id="CMR17-6d" d="M 4326 1933 
C 4326 2252 4269 2790 3507 2790 
C 3072 2790 2771 2496 2656 2151 
L 2650 2151 
C 2573 2676 2195 2790 1837 2790 
C 1331 2790 1069 2400 973 2144 
L 966 2144 
L 966 2790 
L 211 2720 
L 211 2554 
C 589 2554 646 2515 646 2208 
L 646 428 
C 646 184 621 153 211 153 
L 211 -13 
C 365 0 646 0 813 0 
C 979 0 1267 0 1421 -13 
L 1421 153 
C 1011 153 986 178 986 428 
L 986 1658 
C 986 2247 1344 2688 1792 2688 
C 2266 2688 2317 2266 2317 1958 
L 2317 428 
C 2317 184 2291 153 1882 153 
L 1882 -13 
C 2035 0 2317 0 2483 0 
C 2650 0 2938 0 3091 -13 
L 3091 153 
C 2682 153 2656 178 2656 428 
L 2656 1658 
C 2656 2247 3014 2688 3462 2688 
C 3936 2688 3987 2266 3987 1958 
L 3987 428 
C 3987 184 3962 153 3552 153 
L 3552 -13 
C 3706 0 3987 0 4154 0 
C 4320 0 4608 0 4762 -13 
L 4762 153 
C 4352 153 4326 178 4326 428 
L 4326 1933 
z
" transform="scale(0.015625)"/>
       <path id="CMR17-65" d="M 2438 1472 
C 2464 1498 2464 1511 2464 1576 
C 2464 2238 2118 2816 1389 2816 
C 710 2816 173 2169 173 1383 
C 173 551 781 -64 1459 -64 
C 2176 -64 2458 607 2458 740 
C 2458 784 2419 784 2406 784 
C 2362 784 2355 771 2330 696 
C 2189 265 1837 51 1504 51 
C 1229 51 954 203 781 480 
C 582 803 582 1176 582 1472 
L 2438 1472 
z
M 589 1568 
C 634 2505 1126 2714 1382 2714 
C 1818 2714 2112 2297 2118 1568 
L 589 1568 
z
" transform="scale(0.015625)"/>
       <path id="CMMI12-74" d="M 1286 2566 
L 1875 2566 
C 1997 2566 2061 2566 2061 2681 
C 2061 2752 2022 2752 1894 2752 
L 1331 2752 
L 1568 3692 
C 1594 3781 1594 3794 1594 3840 
C 1594 3943 1510 4000 1427 4000 
C 1376 4000 1229 3981 1178 3775 
L 928 2752 
L 326 2752 
C 198 2752 141 2752 141 2630 
C 141 2566 186 2566 307 2566 
L 877 2566 
L 454 881 
C 403 658 384 594 384 511 
C 384 211 595 -64 954 -64 
C 1600 -64 1946 868 1946 912 
C 1946 951 1920 970 1882 970 
C 1869 970 1843 970 1830 944 
C 1824 938 1818 931 1773 829 
C 1638 511 1344 64 973 64 
C 781 64 768 224 768 364 
C 768 370 768 492 787 568 
L 1286 2566 
z
" transform="scale(0.015625)"/>
       <path id="CMR17-5b" d="M 1504 -1600 
L 1504 -1377 
L 902 -1377 
L 902 4544 
L 1504 4544 
L 1504 4767 
L 678 4767 
L 678 -1600 
L 1504 -1600 
z
" transform="scale(0.015625)"/>
       <path id="CMR17-73" d="M 1978 2697 
C 1978 2813 1971 2819 1933 2819 
C 1907 2819 1901 2813 1824 2717 
C 1805 2691 1747 2626 1728 2601 
C 1523 2819 1235 2819 1126 2819 
C 416 2819 160 2447 160 2076 
C 160 1498 813 1365 998 1325 
C 1402 1243 1542 1217 1677 1101 
C 1760 1025 1901 884 1901 654 
C 1901 384 1747 38 1158 38 
C 602 38 403 460 288 1021 
C 269 1110 269 1117 218 1117 
C 166 1117 160 1110 160 983 
L 160 63 
C 160 -51 166 -58 205 -58 
C 237 -58 243 -51 275 0 
C 314 57 410 211 448 276 
C 576 103 800 -64 1158 -64 
C 1792 -64 2131 283 2131 784 
C 2131 1112 1958 1285 1875 1362 
C 1683 1561 1459 1606 1190 1657 
C 838 1735 390 1825 390 2217 
C 390 2383 480 2737 1126 2737 
C 1811 2737 1850 2094 1862 1888 
C 1869 1856 1901 1849 1920 1849 
C 1978 1849 1978 1869 1978 1978 
L 1978 2697 
z
" transform="scale(0.015625)"/>
       <path id="CMR17-5d" d="M 915 4767 
L 90 4767 
L 90 4544 
L 691 4544 
L 691 -1377 
L 90 -1377 
L 90 -1600 
L 915 -1600 
L 915 4767 
z
" transform="scale(0.015625)"/>
      </defs>
      <use xlink:href="#CMR17-54" transform="scale(0.996264)"/>
      <use xlink:href="#CMR17-69" transform="translate(66.509881 0) scale(0.996264)"/>
      <use xlink:href="#CMR17-6d" transform="translate(91.380939 0) scale(0.996264)"/>
      <use xlink:href="#CMR17-65" transform="translate(168.300529 0) scale(0.996264)"/>
      <use xlink:href="#CMMI12-74" transform="translate(238.862156 0) scale(0.996264)"/>
      <use xlink:href="#CMR17-5b" transform="translate(304.164452 0) scale(0.996264)"/>
      <use xlink:href="#CMR17-73" transform="translate(329.035511 0) scale(0.996264)"/>
      <use xlink:href="#CMR17-5d" transform="translate(364.836848 0) scale(0.996264)"/>
     </g>
    </g>
   </g>
   <g id="matplotlib.axis_2">
    <g id="ytick_1">
     <g id="line2d_17">
      <path d="M 52.241463 200.944474 
L 349.2 200.944474 
" clip-path="url(#pc91b10f43d)" style="fill: none; stroke: #b0b0b0; stroke-width: 0.8; stroke-linecap: square"/>
     </g>
     <g id="line2d_18">
      <defs>
       <path id="m3edb4f2ae1" d="M 0 0 
L -3.5 0 
" style="stroke: #000000; stroke-width: 0.8"/>
      </defs>
      <g>
       <use xlink:href="#m3edb4f2ae1" x="52.241463" y="200.944474" style="stroke: #000000; stroke-width: 0.8"/>
      </g>
     </g>
     <g id="text_10">
      <!-- $\mathdefault{−1.5}$ -->
      <g transform="translate(24.76264 204.403723) scale(0.1 -0.1)">
       <defs>
        <path id="CMSY10-0" d="M 4218 1472 
C 4326 1472 4442 1472 4442 1600 
C 4442 1728 4326 1728 4218 1728 
L 755 1728 
C 646 1728 531 1728 531 1600 
C 531 1472 646 1472 755 1472 
L 4218 1472 
z
" transform="scale(0.015625)"/>
        <path id="CMMI12-3a" d="M 1178 307 
C 1178 492 1024 619 870 619 
C 685 619 557 466 557 313 
C 557 128 710 0 864 0 
C 1050 0 1178 153 1178 307 
z
" transform="scale(0.015625)"/>
       </defs>
       <use xlink:href="#CMSY10-0" transform="scale(0.996264)"/>
       <use xlink:href="#CMR17-31" transform="translate(77.487468 0) scale(0.996264)"/>
       <use xlink:href="#CMMI12-3a" transform="translate(123.177945 0) scale(0.996264)"/>
       <use xlink:href="#CMR17-35" transform="translate(150.275122 0) scale(0.996264)"/>
      </g>
     </g>
    </g>
    <g id="ytick_2">
     <g id="line2d_19">
      <path d="M 52.241463 168.032324 
L 349.2 168.032324 
" clip-path="url(#pc91b10f43d)" style="fill: none; stroke: #b0b0b0; stroke-width: 0.8; stroke-linecap: square"/>
     </g>
     <g id="line2d_20">
      <g>
       <use xlink:href="#m3edb4f2ae1" x="52.241463" y="168.032324" style="stroke: #000000; stroke-width: 0.8"/>
      </g>
     </g>
     <g id="text_11">
      <!-- $\mathdefault{−1.0}$ -->
      <g transform="translate(24.76264 171.491573) scale(0.1 -0.1)">
       <use xlink:href="#CMSY10-0" transform="scale(0.996264)"/>
       <use xlink:href="#CMR17-31" transform="translate(77.487468 0) scale(0.996264)"/>
       <use xlink:href="#CMMI12-3a" transform="translate(123.177945 0) scale(0.996264)"/>
       <use xlink:href="#CMR17-30" transform="translate(150.275122 0) scale(0.996264)"/>
      </g>
     </g>
    </g>
    <g id="ytick_3">
     <g id="line2d_21">
      <path d="M 52.241463 135.120174 
L 349.2 135.120174 
" clip-path="url(#pc91b10f43d)" style="fill: none; stroke: #b0b0b0; stroke-width: 0.8; stroke-linecap: square"/>
     </g>
     <g id="line2d_22">
      <g>
       <use xlink:href="#m3edb4f2ae1" x="52.241463" y="135.120174" style="stroke: #000000; stroke-width: 0.8"/>
      </g>
     </g>
     <g id="text_12">
      <!-- $\mathdefault{−0.5}$ -->
      <g transform="translate(24.76264 138.579423) scale(0.1 -0.1)">
       <use xlink:href="#CMSY10-0" transform="scale(0.996264)"/>
       <use xlink:href="#CMR17-30" transform="translate(77.487468 0) scale(0.996264)"/>
       <use xlink:href="#CMMI12-3a" transform="translate(123.177945 0) scale(0.996264)"/>
       <use xlink:href="#CMR17-35" transform="translate(150.275122 0) scale(0.996264)"/>
      </g>
     </g>
    </g>
    <g id="ytick_4">
     <g id="line2d_23">
      <path d="M 52.241463 102.208024 
L 349.2 102.208024 
" clip-path="url(#pc91b10f43d)" style="fill: none; stroke: #b0b0b0; stroke-width: 0.8; stroke-linecap: square"/>
     </g>
     <g id="line2d_24">
      <g>
       <use xlink:href="#m3edb4f2ae1" x="52.241463" y="102.208024" style="stroke: #000000; stroke-width: 0.8"/>
      </g>
     </g>
     <g id="text_13">
      <!-- $\mathdefault{0.0}$ -->
      <g transform="translate(32.511384 105.667274) scale(0.1 -0.1)">
       <use xlink:href="#CMR17-30" transform="scale(0.996264)"/>
       <use xlink:href="#CMMI12-3a" transform="translate(45.690477 0) scale(0.996264)"/>
       <use xlink:href="#CMR17-30" transform="translate(72.787654 0) scale(0.996264)"/>
      </g>
     </g>
    </g>
    <g id="ytick_5">
     <g id="line2d_25">
      <path d="M 52.241463 69.295875 
L 349.2 69.295875 
" clip-path="url(#pc91b10f43d)" style="fill: none; stroke: #b0b0b0; stroke-width: 0.8; stroke-linecap: square"/>
     </g>
     <g id="line2d_26">
      <g>
       <use xlink:href="#m3edb4f2ae1" x="52.241463" y="69.295875" style="stroke: #000000; stroke-width: 0.8"/>
      </g>
     </g>
     <g id="text_14">
      <!-- $\mathdefault{0.5}$ -->
      <g transform="translate(32.511384 72.755124) scale(0.1 -0.1)">
       <use xlink:href="#CMR17-30" transform="scale(0.996264)"/>
       <use xlink:href="#CMMI12-3a" transform="translate(45.690477 0) scale(0.996264)"/>
       <use xlink:href="#CMR17-35" transform="translate(72.787654 0) scale(0.996264)"/>
      </g>
     </g>
    </g>
    <g id="ytick_6">
     <g id="line2d_27">
      <path d="M 52.241463 36.383725 
L 349.2 36.383725 
" clip-path="url(#pc91b10f43d)" style="fill: none; stroke: #b0b0b0; stroke-width: 0.8; stroke-linecap: square"/>
     </g>
     <g id="line2d_28">
      <g>
       <use xlink:href="#m3edb4f2ae1" x="52.241463" y="36.383725" style="stroke: #000000; stroke-width: 0.8"/>
      </g>
     </g>
     <g id="text_15">
      <!-- $\mathdefault{1.0}$ -->
      <g transform="translate(32.511384 39.842974) scale(0.1 -0.1)">
       <use xlink:href="#CMR17-31" transform="scale(0.996264)"/>
       <use xlink:href="#CMMI12-3a" transform="translate(45.690477 0) scale(0.996264)"/>
       <use xlink:href="#CMR17-30" transform="translate(72.787654 0) scale(0.996264)"/>
      </g>
     </g>
    </g>
    <g id="text_16">
     <!-- Axial force [N] -->
     <g transform="translate(18.27198 142.929842) rotate(-90) scale(0.1 -0.1)">
      <defs>
       <path id="CMR17-41" d="M 2323 4378 
C 2291 4461 2278 4480 2214 4480 
C 2150 4480 2138 4461 2106 4378 
L 749 566 
C 627 223 371 153 147 153 
L 147 -13 
C 262 0 518 0 640 0 
C 800 0 1056 0 1210 -13 
L 1210 153 
C 909 153 864 361 864 439 
C 864 497 877 530 890 569 
L 1229 1536 
L 2906 1536 
L 3290 442 
C 3322 365 3322 352 3322 327 
C 3322 153 3046 153 2925 153 
L 2925 0 
C 3110 0 3443 0 3642 0 
C 3808 0 4128 0 4282 -13 
L 4282 153 
C 3942 153 3827 153 3744 387 
L 2323 4378 
z
M 2067 3893 
L 2848 1702 
L 1286 1702 
L 2067 3893 
z
" transform="scale(0.015625)"/>
       <path id="CMR17-78" d="M 1664 1477 
C 1856 1726 2074 2006 2253 2216 
C 2464 2458 2707 2560 2989 2560 
L 2989 2726 
C 2880 2726 2656 2726 2541 2726 
C 2368 2726 2170 2726 2022 2732 
L 2022 2566 
C 2112 2553 2163 2489 2163 2400 
C 2163 2285 2099 2215 2067 2171 
L 1594 1573 
L 1030 2306 
C 973 2376 973 2388 973 2420 
C 973 2497 1037 2560 1146 2560 
L 1146 2732 
C 992 2726 717 2726 557 2726 
C 384 2726 179 2726 38 2732 
L 38 2560 
C 384 2560 461 2534 614 2343 
L 1350 1395 
C 1363 1382 1395 1344 1395 1325 
C 1395 1299 838 619 768 530 
C 480 185 179 160 6 160 
L 6 0 
C 115 0 339 0 454 0 
C 582 0 864 0 979 -6 
L 979 160 
C 941 166 838 179 838 325 
C 838 440 890 510 947 586 
L 1478 1236 
L 2035 512 
C 2086 442 2163 346 2163 301 
C 2163 211 2086 160 1984 160 
L 1984 -6 
C 2138 0 2413 0 2573 0 
C 2746 0 2950 0 3091 -6 
L 3091 160 
C 2771 160 2675 172 2522 370 
L 1664 1477 
z
" transform="scale(0.015625)"/>
       <path id="CMR17-61" d="M 2304 1653 
C 2304 2072 2304 2294 2035 2543 
C 1798 2752 1523 2816 1306 2816 
C 800 2816 435 2407 435 1971 
C 435 1728 627 1728 666 1728 
C 749 1728 896 1778 896 1954 
C 896 2112 774 2181 666 2181 
C 640 2181 608 2174 589 2168 
C 723 2592 1069 2714 1293 2714 
C 1613 2714 1965 2429 1965 1885 
L 1965 1600 
C 1587 1600 1133 1549 774 1357 
C 371 1133 256 813 256 570 
C 256 77 832 -64 1171 -64 
C 1523 -64 1850 139 1990 511 
C 2003 233 2182 -18 2464 -18 
C 2598 -18 2938 70 2938 567 
L 2938 920 
L 2822 920 
L 2822 562 
C 2822 178 2650 128 2566 128 
C 2304 128 2304 458 2304 738 
L 2304 1653 
z
M 1965 870 
C 1965 317 1568 38 1216 38 
C 896 38 646 275 646 570 
C 646 761 730 1100 1101 1305 
C 1408 1478 1760 1504 1965 1504 
L 1965 870 
z
" transform="scale(0.015625)"/>
       <path id="CMR17-6c" d="M 979 4396 
L 218 4326 
L 218 4160 
C 595 4160 653 4122 653 3817 
L 653 426 
C 653 184 627 153 218 153 
L 218 -13 
C 371 0 653 0 813 0 
C 979 0 1261 0 1414 -13 
L 1414 153 
C 1005 153 979 178 979 426 
L 979 4396 
z
" transform="scale(0.015625)"/>
       <path id="CMR17-66" d="M 979 2560 
L 1709 2560 
L 1709 2725 
L 966 2725 
L 966 3494 
C 966 4022 1235 4352 1510 4352 
C 1594 4352 1690 4327 1754 4282 
C 1702 4269 1568 4225 1568 4067 
C 1568 3901 1696 3850 1786 3850 
C 1875 3850 2003 3901 2003 4067 
C 2003 4308 1773 4454 1517 4454 
C 1152 4454 653 4156 653 3481 
L 653 2725 
L 141 2725 
L 141 2560 
L 653 2560 
L 653 427 
C 653 184 627 153 218 153 
L 218 -13 
C 371 0 666 0 832 0 
C 1018 0 1344 0 1517 -13 
L 1517 153 
C 1056 153 979 153 979 439 
L 979 2560 
z
" transform="scale(0.015625)"/>
       <path id="CMR17-6f" d="M 2758 1356 
C 2758 2176 2163 2816 1466 2816 
C 768 2816 173 2176 173 1356 
C 173 551 768 -64 1466 -64 
C 2163 -64 2758 551 2758 1356 
z
M 1466 51 
C 1165 51 909 230 762 480 
C 602 767 582 1126 582 1408 
C 582 1677 595 2010 762 2298 
C 890 2509 1139 2714 1466 2714 
C 1754 2714 1997 2554 2150 2330 
C 2349 2029 2349 1607 2349 1408 
C 2349 1158 2336 775 2163 467 
C 1984 173 1709 51 1466 51 
z
" transform="scale(0.015625)"/>
       <path id="CMR17-72" d="M 960 1497 
C 960 2112 1222 2688 1702 2688 
C 1747 2688 1792 2682 1837 2662 
C 1837 2662 1696 2617 1696 2452 
C 1696 2298 1818 2234 1914 2234 
C 1990 2234 2131 2279 2131 2458 
C 2131 2663 1926 2790 1709 2790 
C 1222 2790 1011 2317 947 2093 
L 941 2093 
L 941 2790 
L 198 2720 
L 198 2554 
C 576 2554 634 2515 634 2208 
L 634 428 
C 634 184 608 153 198 153 
L 198 -13 
C 352 0 646 0 813 0 
C 998 0 1325 0 1498 -13 
L 1498 153 
C 1037 153 960 153 960 440 
L 960 1497 
z
" transform="scale(0.015625)"/>
       <path id="CMR17-63" d="M 2234 2240 
C 2112 2240 1933 2240 1933 2017 
C 1933 1838 2080 1787 2163 1787 
C 2208 1787 2394 1807 2394 2024 
C 2394 2467 1958 2803 1466 2803 
C 787 2803 211 2178 211 1363 
C 211 516 813 -64 1466 -64 
C 2259 -64 2458 677 2458 748 
C 2458 774 2451 793 2406 793 
C 2362 793 2355 787 2330 703 
C 2163 180 1798 51 1523 51 
C 1114 51 621 427 621 1369 
C 621 2338 1094 2688 1472 2688 
C 1722 2688 2093 2573 2234 2240 
z
" transform="scale(0.015625)"/>
       <path id="CMR17-4e" d="M 1312 4250 
C 1267 4320 1261 4320 1139 4320 
L 326 4320 
L 326 4160 
L 448 4160 
C 704 4160 819 4129 838 4122 
L 838 610 
C 838 451 838 153 326 153 
L 326 -13 
C 474 0 742 0 902 0 
C 1062 0 1331 0 1478 -13 
L 1478 153 
C 966 153 966 451 966 610 
L 966 4033 
C 1011 3995 1011 3982 1056 3919 
L 3430 76 
C 3475 0 3494 0 3526 0 
C 3590 0 3590 19 3590 139 
L 3590 3705 
C 3590 3863 3590 4160 4102 4160 
L 4102 4326 
C 3955 4320 3686 4320 3526 4320 
C 3366 4320 3098 4320 2950 4326 
L 2950 4160 
C 3462 4160 3462 3862 3462 3703 
L 3462 763 
L 1312 4250 
z
" transform="scale(0.015625)"/>
      </defs>
      <use xlink:href="#CMR17-41" transform="scale(0.996264)"/>
      <use xlink:href="#CMR17-78" transform="translate(69.07243 0) scale(0.996264)"/>
      <use xlink:href="#CMR17-69" transform="translate(117.365346 0) scale(0.996264)"/>
      <use xlink:href="#CMR17-61" transform="translate(142.236404 0) scale(0.996264)"/>
      <use xlink:href="#CMR17-6c" transform="translate(187.926881 0) scale(0.996264)"/>
      <use xlink:href="#CMR17-66" transform="translate(242.873906 0) scale(0.996264)"/>
      <use xlink:href="#CMR17-6f" transform="translate(270.347418 0) scale(0.996264)"/>
      <use xlink:href="#CMR17-72" transform="translate(316.037896 0) scale(0.996264)"/>
      <use xlink:href="#CMR17-63" transform="translate(351.318663 0) scale(0.996264)"/>
      <use xlink:href="#CMR17-65" transform="translate(391.804324 0) scale(0.996264)"/>
      <use xlink:href="#CMR17-5b" transform="translate(462.365951 0) scale(0.996264)"/>
      <use xlink:href="#CMR17-4e" transform="translate(487.237009 0) scale(0.996264)"/>
      <use xlink:href="#CMR17-5d" transform="translate(556.309439 0) scale(0.996264)"/>
     </g>
    </g>
   </g>
   <g id="line2d_29">
    <path d="M 65.739578 51.221334 
L 104.305622 51.221334 
L 104.459886 70.43891 
L 142.871666 70.43891 
L 143.02593 122.863717 
L 181.43771 122.863717 
L 181.591974 44.406627 
L 220.003753 44.406627 
L 220.158017 131.11851 
L 258.569797 131.11851 
L 258.724061 110.304823 
L 297.135841 110.304823 
L 297.290105 93.19768 
L 335.701885 93.19768 
L 335.701885 93.19768 
" clip-path="url(#pc91b10f43d)" style="fill: none; stroke: #1f77b4; stroke-width: 1.5; stroke-linecap: square"/>
    <defs>
     <path id="mba35390841" d="M 0 2.5 
C 0.663008 2.5 1.29895 2.236584 1.767767 1.767767 
C 2.236584 1.29895 2.5 0.663008 2.5 0 
C 2.5 -0.663008 2.236584 -1.29895 1.767767 -1.767767 
C 1.29895 -2.236584 0.663008 -2.5 0 -2.5 
C -0.663008 -2.5 -1.29895 -2.236584 -1.767767 -1.767767 
C -2.236584 -1.29895 -2.5 -0.663008 -2.5 0 
C -2.5 0.663008 -2.236584 1.29895 -1.767767 1.767767 
C -1.29895 2.236584 -0.663008 2.5 0 2.5 
z
" style="stroke: #1f77b4"/>
    </defs>
    <g clip-path="url(#pc91b10f43d)">
     <use xlink:href="#mba35390841" x="65.739578" y="51.221334" style="fill: #1f77b4; stroke: #1f77b4"/>
     <use xlink:href="#mba35390841" x="73.452787" y="51.221334" style="fill: #1f77b4; stroke: #1f77b4"/>
     <use xlink:href="#mba35390841" x="81.165996" y="51.221334" style="fill: #1f77b4; stroke: #1f77b4"/>
     <use xlink:href="#mba35390841" x="88.879204" y="51.221334" style="fill: #1f77b4; stroke: #1f77b4"/>
     <use xlink:href="#mba35390841" x="96.592413" y="51.221334" style="fill: #1f77b4; stroke: #1f77b4"/>
     <use xlink:href="#mba35390841" x="104.305622" y="51.221334" style="fill: #1f77b4; stroke: #1f77b4"/>
     <use xlink:href="#mba35390841" x="112.018831" y="70.43891" style="fill: #1f77b4; stroke: #1f77b4"/>
     <use xlink:href="#mba35390841" x="119.732039" y="70.43891" style="fill: #1f77b4; stroke: #1f77b4"/>
     <use xlink:href="#mba35390841" x="127.445248" y="70.43891" style="fill: #1f77b4; stroke: #1f77b4"/>
     <use xlink:href="#mba35390841" x="135.158457" y="70.43891" style="fill: #1f77b4; stroke: #1f77b4"/>
     <use xlink:href="#mba35390841" x="142.871666" y="70.43891" style="fill: #1f77b4; stroke: #1f77b4"/>
     <use xlink:href="#mba35390841" x="150.584874" y="122.863717" style="fill: #1f77b4; stroke: #1f77b4"/>
     <use xlink:href="#mba35390841" x="158.298083" y="122.863717" style="fill: #1f77b4; stroke: #1f77b4"/>
     <use xlink:href="#mba35390841" x="166.011292" y="122.863717" style="fill: #1f77b4; stroke: #1f77b4"/>
     <use xlink:href="#mba35390841" x="173.724501" y="122.863717" style="fill: #1f77b4; stroke: #1f77b4"/>
     <use xlink:href="#mba35390841" x="181.43771" y="122.863717" style="fill: #1f77b4; stroke: #1f77b4"/>
     <use xlink:href="#mba35390841" x="189.150918" y="44.406627" style="fill: #1f77b4; stroke: #1f77b4"/>
     <use xlink:href="#mba35390841" x="196.864127" y="44.406627" style="fill: #1f77b4; stroke: #1f77b4"/>
     <use xlink:href="#mba35390841" x="204.577336" y="44.406627" style="fill: #1f77b4; stroke: #1f77b4"/>
     <use xlink:href="#mba35390841" x="212.290545" y="44.406627" style="fill: #1f77b4; stroke: #1f77b4"/>
     <use xlink:href="#mba35390841" x="220.003753" y="44.406627" style="fill: #1f77b4; stroke: #1f77b4"/>
     <use xlink:href="#mba35390841" x="227.716962" y="131.11851" style="fill: #1f77b4; stroke: #1f77b4"/>
     <use xlink:href="#mba35390841" x="235.430171" y="131.11851" style="fill: #1f77b4; stroke: #1f77b4"/>
     <use xlink:href="#mba35390841" x="243.14338" y="131.11851" style="fill: #1f77b4; stroke: #1f77b4"/>
     <use xlink:href="#mba35390841" x="250.856588" y="131.11851" style="fill: #1f77b4; stroke: #1f77b4"/>
     <use xlink:href="#mba35390841" x="258.569797" y="131.11851" style="fill: #1f77b4; stroke: #1f77b4"/>
     <use xlink:href="#mba35390841" x="266.283006" y="110.304823" style="fill: #1f77b4; stroke: #1f77b4"/>
     <use xlink:href="#mba35390841" x="273.996215" y="110.304823" style="fill: #1f77b4; stroke: #1f77b4"/>
     <use xlink:href="#mba35390841" x="281.709423" y="110.304823" style="fill: #1f77b4; stroke: #1f77b4"/>
     <use xlink:href="#mba35390841" x="289.422632" y="110.304823" style="fill: #1f77b4; stroke: #1f77b4"/>
     <use xlink:href="#mba35390841" x="297.135841" y="110.304823" style="fill: #1f77b4; stroke: #1f77b4"/>
     <use xlink:href="#mba35390841" x="304.84905" y="93.19768" style="fill: #1f77b4; stroke: #1f77b4"/>
     <use xlink:href="#mba35390841" x="312.562258" y="93.19768" style="fill: #1f77b4; stroke: #1f77b4"/>
     <use xlink:href="#mba35390841" x="320.275467" y="93.19768" style="fill: #1f77b4; stroke: #1f77b4"/>
     <use xlink:href="#mba35390841" x="327.988676" y="93.19768" style="fill: #1f77b4; stroke: #1f77b4"/>
     <use xlink:href="#mba35390841" x="335.701885" y="93.19768" style="fill: #1f77b4; stroke: #1f77b4"/>
    </g>
   </g>
   <g id="line2d_30">
    <path d="M 65.739578 164.658885 
L 104.305622 164.658885 
L 104.459886 50.466783 
L 142.871666 50.466783 
L 143.02593 130.012695 
L 181.43771 130.012695 
L 181.591974 62.362864 
L 220.003753 62.362864 
L 220.158017 104.729338 
L 258.569797 104.729338 
L 258.724061 73.232787 
L 297.135841 73.232787 
L 297.290105 116.22514 
L 335.701885 116.22514 
L 335.701885 116.22514 
" clip-path="url(#pc91b10f43d)" style="fill: none; stroke: #ff7f0e; stroke-width: 1.5; stroke-linecap: square"/>
    <defs>
     <path id="m5987b490ab" d="M 0 2.5 
C 0.663008 2.5 1.29895 2.236584 1.767767 1.767767 
C 2.236584 1.29895 2.5 0.663008 2.5 0 
C 2.5 -0.663008 2.236584 -1.29895 1.767767 -1.767767 
C 1.29895 -2.236584 0.663008 -2.5 0 -2.5 
C -0.663008 -2.5 -1.29895 -2.236584 -1.767767 -1.767767 
C -2.236584 -1.29895 -2.5 -0.663008 -2.5 0 
C -2.5 0.663008 -2.236584 1.29895 -1.767767 1.767767 
C -1.29895 2.236584 -0.663008 2.5 0 2.5 
z
" style="stroke: #ff7f0e"/>
    </defs>
    <g clip-path="url(#pc91b10f43d)">
     <use xlink:href="#m5987b490ab" x="65.739578" y="164.658885" style="fill: #ff7f0e; stroke: #ff7f0e"/>
     <use xlink:href="#m5987b490ab" x="73.452787" y="164.658885" style="fill: #ff7f0e; stroke: #ff7f0e"/>
     <use xlink:href="#m5987b490ab" x="81.165996" y="164.658885" style="fill: #ff7f0e; stroke: #ff7f0e"/>
     <use xlink:href="#m5987b490ab" x="88.879204" y="164.658885" style="fill: #ff7f0e; stroke: #ff7f0e"/>
     <use xlink:href="#m5987b490ab" x="96.592413" y="164.658885" style="fill: #ff7f0e; stroke: #ff7f0e"/>
     <use xlink:href="#m5987b490ab" x="104.305622" y="164.658885" style="fill: #ff7f0e; stroke: #ff7f0e"/>
     <use xlink:href="#m5987b490ab" x="112.018831" y="50.466783" style="fill: #ff7f0e; stroke: #ff7f0e"/>
     <use xlink:href="#m5987b490ab" x="119.732039" y="50.466783" style="fill: #ff7f0e; stroke: #ff7f0e"/>
     <use xlink:href="#m5987b490ab" x="127.445248" y="50.466783" style="fill: #ff7f0e; stroke: #ff7f0e"/>
     <use xlink:href="#m5987b490ab" x="135.158457" y="50.466783" style="fill: #ff7f0e; stroke: #ff7f0e"/>
     <use xlink:href="#m5987b490ab" x="142.871666" y="50.466783" style="fill: #ff7f0e; stroke: #ff7f0e"/>
     <use xlink:href="#m5987b490ab" x="150.584874" y="130.012695" style="fill: #ff7f0e; stroke: #ff7f0e"/>
     <use xlink:href="#m5987b490ab" x="158.298083" y="130.012695" style="fill: #ff7f0e; stroke: #ff7f0e"/>
     <use xlink:href="#m5987b490ab" x="166.011292" y="130.012695" style="fill: #ff7f0e; stroke: #ff7f0e"/>
     <use xlink:href="#m5987b490ab" x="173.724501" y="130.012695" style="fill: #ff7f0e; stroke: #ff7f0e"/>
     <use xlink:href="#m5987b490ab" x="181.43771" y="130.012695" style="fill: #ff7f0e; stroke: #ff7f0e"/>
     <use xlink:href="#m5987b490ab" x="189.150918" y="62.362864" style="fill: #ff7f0e; stroke: #ff7f0e"/>
     <use xlink:href="#m5987b490ab" x="196.864127" y="62.362864" style="fill: #ff7f0e; stroke: #ff7f0e"/>
     <use xlink:href="#m5987b490ab" x="204.577336" y="62.362864" style="fill: #ff7f0e; stroke: #ff7f0e"/>
     <use xlink:href="#m5987b490ab" x="212.290545" y="62.362864" style="fill: #ff7f0e; stroke: #ff7f0e"/>
     <use xlink:href="#m5987b490ab" x="220.003753" y="62.362864" style="fill: #ff7f0e; stroke: #ff7f0e"/>
     <use xlink:href="#m5987b490ab" x="227.716962" y="104.729338" style="fill: #ff7f0e; stroke: #ff7f0e"/>
     <use xlink:href="#m5987b490ab" x="235.430171" y="104.729338" style="fill: #ff7f0e; stroke: #ff7f0e"/>
     <use xlink:href="#m5987b490ab" x="243.14338" y="104.729338" style="fill: #ff7f0e; stroke: #ff7f0e"/>
     <use xlink:href="#m5987b490ab" x="250.856588" y="104.729338" style="fill: #ff7f0e; stroke: #ff7f0e"/>
     <use xlink:href="#m5987b490ab" x="258.569797" y="104.729338" style="fill: #ff7f0e; stroke: #ff7f0e"/>
     <use xlink:href="#m5987b490ab" x="266.283006" y="73.232787" style="fill: #ff7f0e; stroke: #ff7f0e"/>
     <use xlink:href="#m5987b490ab" x="273.996215" y="73.232787" style="fill: #ff7f0e; stroke: #ff7f0e"/>
     <use xlink:href="#m5987b490ab" x="281.709423" y="73.232787" style="fill: #ff7f0e; stroke: #ff7f0e"/>
     <use xlink:href="#m5987b490ab" x="289.422632" y="73.232787" style="fill: #ff7f0e; stroke: #ff7f0e"/>
     <use xlink:href="#m5987b490ab" x="297.135841" y="73.232787" style="fill: #ff7f0e; stroke: #ff7f0e"/>
     <use xlink:href="#m5987b490ab" x="304.84905" y="116.22514" style="fill: #ff7f0e; stroke: #ff7f0e"/>
     <use xlink:href="#m5987b490ab" x="312.562258" y="116.22514" style="fill: #ff7f0e; stroke: #ff7f0e"/>
     <use xlink:href="#m5987b490ab" x="320.275467" y="116.22514" style="fill: #ff7f0e; stroke: #ff7f0e"/>
     <use xlink:href="#m5987b490ab" x="327.988676" y="116.22514" style="fill: #ff7f0e; stroke: #ff7f0e"/>
     <use xlink:href="#m5987b490ab" x="335.701885" y="116.22514" style="fill: #ff7f0e; stroke: #ff7f0e"/>
    </g>
   </g>
   <g id="line2d_31">
    <path d="M 65.739578 70.90404 
L 65.81671 146.432078 
L 65.893842 137.640286 
L 66.202371 115.036505 
L 66.510899 105.431915 
L 66.819427 101.367576 
L 67.127956 99.620134 
L 67.513616 98.72645 
L 67.899277 98.363106 
L 68.593465 98.077663 
L 70.290371 97.692627 
L 76.769467 96.776601 
L 77.463655 96.682435 
L 80.240411 96.334568 
L 82.554373 96.113834 
L 84.714072 95.900666 
L 88.647808 95.594556 
L 93.661394 95.286972 
L 104.305622 94.833936 
L 104.382754 139.029494 
L 104.459886 134.513979 
L 104.845547 110.39911 
L 105.154075 103.964614 
L 105.462603 101.511781 
L 105.771132 100.594941 
L 106.07966 100.257267 
L 106.619585 100.073007 
L 110.707585 99.448951 
L 114.024265 99.234424 
L 116.723888 98.937696 
L 119.963436 98.654156 
L 120.426228 98.599098 
L 121.506077 98.56842 
L 122.123134 98.500381 
L 123.048719 98.467468 
L 123.742908 98.415201 
L 124.514229 98.382354 
L 125.28555 98.335716 
L 126.056871 98.285464 
L 126.828191 98.262707 
L 127.676644 98.188707 
L 129.836343 98.123082 
L 137.47242 97.824764 
L 141.251892 97.728976 
L 142.871666 97.688514 
L 142.948798 92.304305 
L 143.02593 94.567051 
L 143.334458 99.804756 
L 143.642987 101.97866 
L 143.951515 102.882565 
L 144.337175 103.318964 
L 144.8771 103.511207 
L 146.34261 103.652872 
L 152.358912 104.068022 
L 170.099293 104.710118 
L 181.43771 104.901985 
L 181.514842 157.661082 
L 181.591974 148.882828 
L 181.977634 114.334676 
L 182.286162 104.553182 
L 182.594691 100.649346 
L 182.903219 99.09158 
L 183.211748 98.458547 
L 183.597408 98.135401 
L 184.291597 97.905584 
L 186.605559 97.25703 
L 190.539296 96.670411 
L 190.770692 96.667031 
L 191.619145 96.44409 
L 194.01024 96.096111 
L 194.318768 96.072024 
L 195.475749 95.790816 
L 196.941259 95.64647 
L 197.481184 95.543903 
L 198.638165 95.425966 
L 199.17809 95.360692 
L 200.026543 95.299363 
L 200.720731 95.201207 
L 201.569184 95.130675 
L 202.263373 95.058064 
L 203.034694 94.989617 
L 203.806015 94.926828 
L 204.654468 94.830004 
L 206.428506 94.689659 
L 208.588204 94.553782 
L 210.747903 94.39696 
L 213.447526 94.238975 
L 220.003753 93.945479 
L 220.080885 87.643197 
L 220.312282 95.792921 
L 220.62081 100.519891 
L 220.929338 102.629719 
L 221.237867 103.552317 
L 221.623527 104.033876 
L 222.163452 104.275099 
L 223.089037 104.381464 
L 226.405717 104.784398 
L 229.10534 105.005425 
L 229.568132 105.017155 
L 231.110774 105.1926 
L 232.036359 105.235489 
L 233.039076 105.326684 
L 234.350322 105.434945 
L 237.127077 105.575691 
L 238.901115 105.672233 
L 244.068965 105.882894 
L 247.848437 106.013575 
L 258.569797 106.275199 
L 258.646929 106.634227 
L 258.724061 108.200807 
L 259.186854 103.658947 
L 259.495382 103.057503 
L 259.80391 102.932265 
L 260.575231 103.012071 
L 261.963609 103.06444 
L 265.203157 103.081383 
L 269.214025 103.205197 
L 270.448139 103.213547 
L 272.067912 103.183496 
L 272.607837 103.206939 
L 273.84195 103.22397 
L 274.304743 103.219388 
L 275.384592 103.258954 
L 275.924517 103.24309 
L 276.927234 103.271219 
L 277.544291 103.273524 
L 278.392744 103.286311 
L 279.164064 103.305307 
L 279.935385 103.289248 
L 280.86097 103.329843 
L 297.135841 103.380052 
L 297.212973 118.910145 
L 297.290105 117.765337 
L 297.675765 106.282851 
L 297.984294 103.446184 
L 298.292822 102.3696 
L 298.601351 101.965392 
L 299.064143 101.781619 
L 300.529653 101.653989 
L 303.460672 101.467467 
L 306.468823 101.485889 
L 308.93705 101.348014 
L 310.171164 101.339863 
L 313.025051 101.243484 
L 313.71924 101.259351 
L 314.644825 101.217792 
L 315.261881 101.218477 
L 316.110334 101.182544 
L 316.881655 101.164899 
L 317.652976 101.161177 
L 318.501429 101.119694 
L 320.429731 101.102003 
L 322.126637 101.087634 
L 335.701885 100.924331 
L 335.701885 100.924331 
" clip-path="url(#pc91b10f43d)" style="fill: none; stroke: #1f77b4; stroke-width: 1.5; stroke-linecap: square"/>
    <defs>
     <path id="mc607ae1299" d="M -0 2.5 
L 2.5 -2.5 
L -2.5 -2.5 
z
" style="stroke: #1f77b4; stroke-linejoin: miter"/>
    </defs>
    <g clip-path="url(#pc91b10f43d)">
     <use xlink:href="#mc607ae1299" x="65.739578" y="70.90404" style="fill: #1f77b4; stroke: #1f77b4; stroke-linejoin: miter"/>
     <use xlink:href="#mc607ae1299" x="73.452787" y="97.253934" style="fill: #1f77b4; stroke: #1f77b4; stroke-linejoin: miter"/>
     <use xlink:href="#mc607ae1299" x="81.165996" y="96.24643" style="fill: #1f77b4; stroke: #1f77b4; stroke-linejoin: miter"/>
     <use xlink:href="#mc607ae1299" x="88.879204" y="95.577168" style="fill: #1f77b4; stroke: #1f77b4; stroke-linejoin: miter"/>
     <use xlink:href="#mc607ae1299" x="96.592413" y="95.136906" style="fill: #1f77b4; stroke: #1f77b4; stroke-linejoin: miter"/>
     <use xlink:href="#mc607ae1299" x="104.305622" y="94.833936" style="fill: #1f77b4; stroke: #1f77b4; stroke-linejoin: miter"/>
     <use xlink:href="#mc607ae1299" x="112.018831" y="99.3606" style="fill: #1f77b4; stroke: #1f77b4; stroke-linejoin: miter"/>
     <use xlink:href="#mc607ae1299" x="119.732039" y="98.718971" style="fill: #1f77b4; stroke: #1f77b4; stroke-linejoin: miter"/>
     <use xlink:href="#mc607ae1299" x="127.445248" y="98.219999" style="fill: #1f77b4; stroke: #1f77b4; stroke-linejoin: miter"/>
     <use xlink:href="#mc607ae1299" x="135.158457" y="97.897273" style="fill: #1f77b4; stroke: #1f77b4; stroke-linejoin: miter"/>
     <use xlink:href="#mc607ae1299" x="142.871666" y="97.688514" style="fill: #1f77b4; stroke: #1f77b4; stroke-linejoin: miter"/>
     <use xlink:href="#mc607ae1299" x="150.584874" y="103.953898" style="fill: #1f77b4; stroke: #1f77b4; stroke-linejoin: miter"/>
     <use xlink:href="#mc607ae1299" x="158.298083" y="104.345932" style="fill: #1f77b4; stroke: #1f77b4; stroke-linejoin: miter"/>
     <use xlink:href="#mc607ae1299" x="166.011292" y="104.608893" style="fill: #1f77b4; stroke: #1f77b4; stroke-linejoin: miter"/>
     <use xlink:href="#mc607ae1299" x="173.724501" y="104.783295" style="fill: #1f77b4; stroke: #1f77b4; stroke-linejoin: miter"/>
     <use xlink:href="#mc607ae1299" x="181.43771" y="104.901985" style="fill: #1f77b4; stroke: #1f77b4; stroke-linejoin: miter"/>
     <use xlink:href="#mc607ae1299" x="189.150918" y="96.823477" style="fill: #1f77b4; stroke: #1f77b4; stroke-linejoin: miter"/>
     <use xlink:href="#mc607ae1299" x="196.864127" y="95.67173" style="fill: #1f77b4; stroke: #1f77b4; stroke-linejoin: miter"/>
     <use xlink:href="#mc607ae1299" x="204.577336" y="94.842947" style="fill: #1f77b4; stroke: #1f77b4; stroke-linejoin: miter"/>
     <use xlink:href="#mc607ae1299" x="212.290545" y="94.310629" style="fill: #1f77b4; stroke: #1f77b4; stroke-linejoin: miter"/>
     <use xlink:href="#mc607ae1299" x="220.003753" y="93.945479" style="fill: #1f77b4; stroke: #1f77b4; stroke-linejoin: miter"/>
     <use xlink:href="#mc607ae1299" x="227.716962" y="104.961439" style="fill: #1f77b4; stroke: #1f77b4; stroke-linejoin: miter"/>
     <use xlink:href="#mc607ae1299" x="235.430171" y="105.463566" style="fill: #1f77b4; stroke: #1f77b4; stroke-linejoin: miter"/>
     <use xlink:href="#mc607ae1299" x="243.14338" y="105.855669" style="fill: #1f77b4; stroke: #1f77b4; stroke-linejoin: miter"/>
     <use xlink:href="#mc607ae1299" x="250.856588" y="106.10122" style="fill: #1f77b4; stroke: #1f77b4; stroke-linejoin: miter"/>
     <use xlink:href="#mc607ae1299" x="258.569797" y="106.275199" style="fill: #1f77b4; stroke: #1f77b4; stroke-linejoin: miter"/>
     <use xlink:href="#mc607ae1299" x="266.283006" y="103.161955" style="fill: #1f77b4; stroke: #1f77b4; stroke-linejoin: miter"/>
     <use xlink:href="#mc607ae1299" x="273.996215" y="103.195622" style="fill: #1f77b4; stroke: #1f77b4; stroke-linejoin: miter"/>
     <use xlink:href="#mc607ae1299" x="281.709423" y="103.2968" style="fill: #1f77b4; stroke: #1f77b4; stroke-linejoin: miter"/>
     <use xlink:href="#mc607ae1299" x="289.422632" y="103.36154" style="fill: #1f77b4; stroke: #1f77b4; stroke-linejoin: miter"/>
     <use xlink:href="#mc607ae1299" x="297.135841" y="103.380052" style="fill: #1f77b4; stroke: #1f77b4; stroke-linejoin: miter"/>
     <use xlink:href="#mc607ae1299" x="304.84905" y="101.480126" style="fill: #1f77b4; stroke: #1f77b4; stroke-linejoin: miter"/>
     <use xlink:href="#mc607ae1299" x="312.562258" y="101.215378" style="fill: #1f77b4; stroke: #1f77b4; stroke-linejoin: miter"/>
     <use xlink:href="#mc607ae1299" x="320.275467" y="101.094449" style="fill: #1f77b4; stroke: #1f77b4; stroke-linejoin: miter"/>
     <use xlink:href="#mc607ae1299" x="327.988676" y="101.002863" style="fill: #1f77b4; stroke: #1f77b4; stroke-linejoin: miter"/>
     <use xlink:href="#mc607ae1299" x="335.701885" y="100.924331" style="fill: #1f77b4; stroke: #1f77b4; stroke-linejoin: miter"/>
    </g>
   </g>
   <g id="line2d_32">
    <path d="M 65.739578 139.813473 
L 65.81671 60.571092 
L 65.893842 69.528938 
L 66.202371 90.611623 
L 66.510899 100.060628 
L 66.819427 104.37119 
L 67.127956 106.357046 
L 67.513616 107.441166 
L 67.899277 107.90211 
L 68.439201 108.195921 
L 69.596183 108.509425 
L 77.386523 110.246062 
L 84.097015 111.207633 
L 90.498978 111.849195 
L 97.903659 112.357999 
L 104.305622 112.658221 
L 104.382754 148.756195 
L 104.459886 142.708896 
L 104.845547 114.189963 
L 105.154075 105.095635 
L 105.462603 101.091352 
L 105.771132 99.298367 
L 106.156792 98.360485 
L 106.542452 97.983911 
L 107.236641 97.695779 
L 110.399057 96.800684 
L 114.332793 96.099579 
L 119.269247 95.271879 
L 127.290984 94.363476 
L 137.549552 93.656563 
L 142.871666 93.418385 
L 142.948798 84.49846 
L 143.02593 88.205174 
L 143.334458 97.275622 
L 143.642987 101.33589 
L 143.951515 103.16333 
L 144.337175 104.122983 
L 144.722836 104.501321 
L 145.26276 104.70725 
L 147.113931 104.98862 
L 152.204648 105.535511 
L 159.840725 106.097539 
L 167.631066 106.475157 
L 179.432275 106.811713 
L 181.43771 106.850223 
L 181.514842 139.752844 
L 181.591974 135.186781 
L 181.977634 112.261287 
L 182.286162 104.84253 
L 182.594691 101.584329 
L 182.903219 100.130454 
L 183.28888 99.372531 
L 183.751672 99.031934 
L 184.677257 98.755578 
L 187.762541 98.057461 
L 194.318768 97.156996 
L 207.354091 95.995163 
L 220.003753 95.439006 
L 220.158017 104.628521 
L 220.312282 104.202266 
L 220.62081 103.3893 
L 221.00647 102.977936 
L 221.546395 102.729308 
L 222.626244 102.53667 
L 224.091754 102.459847 
L 232.344887 102.661661 
L 236.201492 102.666285 
L 241.060813 102.686116 
L 258.569797 102.713513 
L 258.646929 129.686687 
L 258.724061 126.697034 
L 259.109722 109.89327 
L 259.41825 104.394947 
L 259.726778 101.943583 
L 260.035307 100.825836 
L 260.420967 100.224584 
L 260.88376 99.93946 
L 261.963609 99.64732 
L 264.354704 99.174563 
L 270.679535 98.529606 
L 284.17765 97.566498 
L 297.135841 97.122598 
L 297.212973 98.304543 
L 297.367237 102.418 
L 298.138558 103.533456 
L 298.601351 103.804473 
L 299.372671 103.946173 
L 300.761049 103.963975 
L 303.306408 103.95767 
L 311.019617 104.23555 
L 324.980524 104.412643 
L 335.701885 104.481488 
L 335.701885 104.481488 
" clip-path="url(#pc91b10f43d)" style="fill: none; stroke: #ff7f0e; stroke-width: 1.5; stroke-linecap: square"/>
    <defs>
     <path id="mbb4085dc7e" d="M -0 2.5 
L 2.5 -2.5 
L -2.5 -2.5 
z
" style="stroke: #ff7f0e; stroke-linejoin: miter"/>
    </defs>
    <g clip-path="url(#pc91b10f43d)">
     <use xlink:href="#mbb4085dc7e" x="65.739578" y="139.813473" style="fill: #ff7f0e; stroke: #ff7f0e; stroke-linejoin: miter"/>
     <use xlink:href="#mbb4085dc7e" x="73.452787" y="109.499783" style="fill: #ff7f0e; stroke: #ff7f0e; stroke-linejoin: miter"/>
     <use xlink:href="#mbb4085dc7e" x="81.165996" y="110.829362" style="fill: #ff7f0e; stroke: #ff7f0e; stroke-linejoin: miter"/>
     <use xlink:href="#mbb4085dc7e" x="88.879204" y="111.707447" style="fill: #ff7f0e; stroke: #ff7f0e; stroke-linejoin: miter"/>
     <use xlink:href="#mbb4085dc7e" x="96.592413" y="112.282338" style="fill: #ff7f0e; stroke: #ff7f0e; stroke-linejoin: miter"/>
     <use xlink:href="#mbb4085dc7e" x="104.305622" y="112.658221" style="fill: #ff7f0e; stroke: #ff7f0e; stroke-linejoin: miter"/>
     <use xlink:href="#mbb4085dc7e" x="112.018831" y="96.504791" style="fill: #ff7f0e; stroke: #ff7f0e; stroke-linejoin: miter"/>
     <use xlink:href="#mbb4085dc7e" x="119.732039" y="95.21222" style="fill: #ff7f0e; stroke: #ff7f0e; stroke-linejoin: miter"/>
     <use xlink:href="#mbb4085dc7e" x="127.445248" y="94.351354" style="fill: #ff7f0e; stroke: #ff7f0e; stroke-linejoin: miter"/>
     <use xlink:href="#mbb4085dc7e" x="135.158457" y="93.788024" style="fill: #ff7f0e; stroke: #ff7f0e; stroke-linejoin: miter"/>
     <use xlink:href="#mbb4085dc7e" x="142.871666" y="93.418385" style="fill: #ff7f0e; stroke: #ff7f0e; stroke-linejoin: miter"/>
     <use xlink:href="#mbb4085dc7e" x="150.584874" y="105.375044" style="fill: #ff7f0e; stroke: #ff7f0e; stroke-linejoin: miter"/>
     <use xlink:href="#mbb4085dc7e" x="158.298083" y="106.001298" style="fill: #ff7f0e; stroke: #ff7f0e; stroke-linejoin: miter"/>
     <use xlink:href="#mbb4085dc7e" x="166.011292" y="106.409607" style="fill: #ff7f0e; stroke: #ff7f0e; stroke-linejoin: miter"/>
     <use xlink:href="#mbb4085dc7e" x="173.724501" y="106.675824" style="fill: #ff7f0e; stroke: #ff7f0e; stroke-linejoin: miter"/>
     <use xlink:href="#mbb4085dc7e" x="181.43771" y="106.850223" style="fill: #ff7f0e; stroke: #ff7f0e; stroke-linejoin: miter"/>
     <use xlink:href="#mbb4085dc7e" x="189.150918" y="97.874369" style="fill: #ff7f0e; stroke: #ff7f0e; stroke-linejoin: miter"/>
     <use xlink:href="#mbb4085dc7e" x="196.864127" y="96.859783" style="fill: #ff7f0e; stroke: #ff7f0e; stroke-linejoin: miter"/>
     <use xlink:href="#mbb4085dc7e" x="204.577336" y="96.179508" style="fill: #ff7f0e; stroke: #ff7f0e; stroke-linejoin: miter"/>
     <use xlink:href="#mbb4085dc7e" x="212.290545" y="95.731314" style="fill: #ff7f0e; stroke: #ff7f0e; stroke-linejoin: miter"/>
     <use xlink:href="#mbb4085dc7e" x="220.003753" y="95.439006" style="fill: #ff7f0e; stroke: #ff7f0e; stroke-linejoin: miter"/>
     <use xlink:href="#mbb4085dc7e" x="227.716962" y="102.674497" style="fill: #ff7f0e; stroke: #ff7f0e; stroke-linejoin: miter"/>
     <use xlink:href="#mbb4085dc7e" x="235.430171" y="102.671426" style="fill: #ff7f0e; stroke: #ff7f0e; stroke-linejoin: miter"/>
     <use xlink:href="#mbb4085dc7e" x="243.14338" y="102.687972" style="fill: #ff7f0e; stroke: #ff7f0e; stroke-linejoin: miter"/>
     <use xlink:href="#mbb4085dc7e" x="250.856588" y="102.704313" style="fill: #ff7f0e; stroke: #ff7f0e; stroke-linejoin: miter"/>
     <use xlink:href="#mbb4085dc7e" x="258.569797" y="102.713513" style="fill: #ff7f0e; stroke: #ff7f0e; stroke-linejoin: miter"/>
     <use xlink:href="#mbb4085dc7e" x="266.283006" y="99.009021" style="fill: #ff7f0e; stroke: #ff7f0e; stroke-linejoin: miter"/>
     <use xlink:href="#mbb4085dc7e" x="273.996215" y="98.225832" style="fill: #ff7f0e; stroke: #ff7f0e; stroke-linejoin: miter"/>
     <use xlink:href="#mbb4085dc7e" x="281.709423" y="97.694877" style="fill: #ff7f0e; stroke: #ff7f0e; stroke-linejoin: miter"/>
     <use xlink:href="#mbb4085dc7e" x="289.422632" y="97.34698" style="fill: #ff7f0e; stroke: #ff7f0e; stroke-linejoin: miter"/>
     <use xlink:href="#mbb4085dc7e" x="297.135841" y="97.122598" style="fill: #ff7f0e; stroke: #ff7f0e; stroke-linejoin: miter"/>
     <use xlink:href="#mbb4085dc7e" x="304.84905" y="104.084138" style="fill: #ff7f0e; stroke: #ff7f0e; stroke-linejoin: miter"/>
     <use xlink:href="#mbb4085dc7e" x="312.562258" y="104.267598" style="fill: #ff7f0e; stroke: #ff7f0e; stroke-linejoin: miter"/>
     <use xlink:href="#mbb4085dc7e" x="320.275467" y="104.369384" style="fill: #ff7f0e; stroke: #ff7f0e; stroke-linejoin: miter"/>
     <use xlink:href="#mbb4085dc7e" x="327.988676" y="104.436204" style="fill: #ff7f0e; stroke: #ff7f0e; stroke-linejoin: miter"/>
     <use xlink:href="#mbb4085dc7e" x="335.701885" y="104.481488" style="fill: #ff7f0e; stroke: #ff7f0e; stroke-linejoin: miter"/>
    </g>
   </g>
   <g id="line2d_33">
    <path d="M 65.739578 19.917349 
L 65.81671 95.445388 
L 65.893842 86.653596 
L 66.202371 64.049815 
L 66.510899 54.445224 
L 66.819427 50.380886 
L 67.127956 48.633444 
L 67.513616 47.73976 
L 67.899277 47.376415 
L 68.593465 47.090973 
L 70.290371 46.705936 
L 76.769467 45.789911 
L 77.463655 45.695744 
L 80.240411 45.347877 
L 82.554373 45.127144 
L 84.714072 44.913976 
L 88.647808 44.607865 
L 93.661394 44.300281 
L 104.305622 43.847246 
L 104.382754 107.26038 
L 104.459886 102.744865 
L 104.845547 78.629996 
L 105.154075 72.1955 
L 105.462603 69.742667 
L 105.771132 68.825827 
L 106.07966 68.488153 
L 106.619585 68.303893 
L 110.707585 67.679837 
L 114.024265 67.46531 
L 116.723888 67.168582 
L 119.963436 66.885042 
L 120.426228 66.829984 
L 121.506077 66.799306 
L 122.123134 66.731267 
L 123.048719 66.698354 
L 123.742908 66.646087 
L 124.514229 66.61324 
L 125.28555 66.566602 
L 126.056871 66.51635 
L 126.828191 66.493593 
L 127.676644 66.419593 
L 129.836343 66.353968 
L 137.47242 66.05565 
L 141.251892 65.959862 
L 142.871666 65.9194 
L 143.02593 115.222743 
L 143.334458 120.460448 
L 143.642987 122.634353 
L 143.951515 123.538257 
L 144.337175 123.974657 
L 144.8771 124.166899 
L 146.34261 124.308564 
L 152.358912 124.723714 
L 170.099293 125.36581 
L 181.43771 125.557677 
L 181.669106 81.377511 
L 181.977634 56.533279 
L 182.286162 46.751785 
L 182.594691 42.847949 
L 182.903219 41.290183 
L 183.211748 40.65715 
L 183.597408 40.334004 
L 184.291597 40.104187 
L 186.605559 39.455633 
L 190.539296 38.869014 
L 190.770692 38.865634 
L 191.619145 38.642693 
L 194.01024 38.294714 
L 194.318768 38.270627 
L 195.475749 37.989419 
L 196.941259 37.845073 
L 197.481184 37.742506 
L 198.638165 37.624569 
L 199.17809 37.559295 
L 200.026543 37.497966 
L 200.720731 37.39981 
L 201.569184 37.329278 
L 202.263373 37.256667 
L 203.034694 37.18822 
L 203.806015 37.125431 
L 204.654468 37.028607 
L 206.428506 36.888262 
L 208.588204 36.752385 
L 210.747903 36.595563 
L 213.447526 36.437578 
L 220.003753 36.144082 
L 220.158017 120.382254 
L 220.466546 127.514475 
L 220.775074 130.702383 
L 221.083603 132.093923 
L 221.469263 132.80371 
L 221.932055 133.113104 
L 222.703376 133.280043 
L 228.719679 133.897793 
L 229.568132 133.92764 
L 231.110774 134.103085 
L 232.036359 134.145974 
L 233.039076 134.237169 
L 234.350322 134.34543 
L 237.127077 134.486176 
L 238.901115 134.582718 
L 244.068965 134.793379 
L 247.848437 134.92406 
L 258.569797 135.185685 
L 258.646929 114.731025 
L 258.724061 116.297606 
L 259.186854 111.755745 
L 259.495382 111.154302 
L 259.80391 111.029064 
L 260.575231 111.10887 
L 261.963609 111.161238 
L 265.203157 111.178182 
L 269.214025 111.301995 
L 270.448139 111.310345 
L 272.067912 111.280294 
L 272.607837 111.303737 
L 273.84195 111.320769 
L 274.304743 111.316187 
L 275.384592 111.355752 
L 275.924517 111.339889 
L 276.927234 111.368018 
L 277.544291 111.370323 
L 278.392744 111.383109 
L 279.164064 111.402105 
L 279.935385 111.386046 
L 280.86097 111.426641 
L 297.135841 111.476851 
L 297.367237 105.590859 
L 297.675765 97.272507 
L 297.984294 94.435839 
L 298.292822 93.359256 
L 298.601351 92.955048 
L 299.064143 92.771275 
L 300.529653 92.643645 
L 303.460672 92.457122 
L 306.468823 92.475544 
L 308.93705 92.33767 
L 310.171164 92.329518 
L 313.025051 92.233139 
L 313.71924 92.249006 
L 314.644825 92.207448 
L 315.261881 92.208132 
L 316.110334 92.172199 
L 316.881655 92.154555 
L 317.652976 92.150833 
L 318.501429 92.109349 
L 320.429731 92.091658 
L 322.126637 92.077289 
L 335.701885 91.913987 
L 335.701885 91.913987 
" clip-path="url(#pc91b10f43d)" style="fill: none; stroke: #1f77b4; stroke-width: 2; stroke-linecap: square"/>
   </g>
   <g id="line2d_34">
    <path d="M 65.739578 202.264334 
L 65.81671 123.021953 
L 65.893842 131.979799 
L 66.202371 153.062483 
L 66.510899 162.511488 
L 66.819427 166.822051 
L 67.127956 168.807907 
L 67.513616 169.892027 
L 67.899277 170.352971 
L 68.439201 170.646782 
L 69.596183 170.960286 
L 77.386523 172.696923 
L 84.097015 173.658493 
L 90.498978 174.300056 
L 97.903659 174.80886 
L 104.305622 175.109081 
L 104.459886 90.967654 
L 104.845547 62.448722 
L 105.154075 53.354394 
L 105.462603 49.35011 
L 105.771132 47.557126 
L 106.156792 46.619243 
L 106.542452 46.242669 
L 107.236641 45.954538 
L 110.399057 45.059443 
L 114.332793 44.358337 
L 119.269247 43.530638 
L 127.290984 42.622235 
L 137.549552 41.915321 
L 142.871666 41.677144 
L 143.02593 116.009844 
L 143.334458 125.080292 
L 143.642987 129.140561 
L 143.951515 130.968 
L 144.337175 131.927654 
L 144.722836 132.305992 
L 145.26276 132.511921 
L 147.113931 132.793291 
L 152.204648 133.340182 
L 159.840725 133.90221 
L 167.631066 134.279828 
L 179.432275 134.616384 
L 181.43771 134.654894 
L 181.591974 95.34162 
L 181.977634 72.416127 
L 182.286162 64.997369 
L 182.594691 61.739168 
L 182.903219 60.285294 
L 183.28888 59.52737 
L 183.751672 59.186773 
L 184.677257 58.910418 
L 187.762541 58.2123 
L 194.318768 57.311835 
L 207.354091 56.150002 
L 220.003753 55.593845 
L 220.158017 107.149835 
L 220.312282 106.72358 
L 220.62081 105.910613 
L 221.00647 105.49925 
L 221.546395 105.250622 
L 222.626244 105.057984 
L 224.091754 104.981161 
L 232.344887 105.182975 
L 236.201492 105.187599 
L 241.060813 105.20743 
L 258.569797 105.234826 
L 259.03259 83.177973 
L 259.341118 76.404133 
L 259.649646 73.412948 
L 259.958175 72.054749 
L 260.343835 71.330034 
L 260.806628 70.997047 
L 261.655081 70.747466 
L 264.277572 70.20993 
L 266.43727 70.022191 
L 269.059761 69.724342 
L 271.065195 69.509255 
L 277.621423 68.969622 
L 281.786555 68.714991 
L 288.497047 68.407201 
L 297.135841 68.147361 
L 297.290105 115.618266 
L 297.444369 116.565363 
L 297.675765 116.84583 
L 298.138558 117.550572 
L 298.601351 117.821588 
L 299.372671 117.963288 
L 300.761049 117.98109 
L 303.306408 117.974785 
L 311.019617 118.252665 
L 324.980524 118.429758 
L 335.701885 118.498603 
L 335.701885 118.498603 
" clip-path="url(#pc91b10f43d)" style="fill: none; stroke: #ff7f0e; stroke-width: 2; stroke-linecap: square"/>
   </g>
   <g id="patch_3">
    <path d="M 52.241463 211.381683 
L 52.241463 10.8 
" style="fill: none; stroke: #000000; stroke-width: 0.8; stroke-linejoin: miter; stroke-linecap: square"/>
   </g>
   <g id="patch_4">
    <path d="M 349.2 211.381683 
L 349.2 10.8 
" style="fill: none; stroke: #000000; stroke-width: 0.8; stroke-linejoin: miter; stroke-linecap: square"/>
   </g>
   <g id="patch_5">
    <path d="M 52.241463 211.381683 
L 349.2 211.381683 
" style="fill: none; stroke: #000000; stroke-width: 0.8; stroke-linejoin: miter; stroke-linecap: square"/>
   </g>
   <g id="patch_6">
    <path d="M 52.241463 10.8 
L 349.2 10.8 
" style="fill: none; stroke: #000000; stroke-width: 0.8; stroke-linejoin: miter; stroke-linecap: square"/>
   </g>
   <g id="legend_1">
    <g id="patch_7">
     <path d="M 175.939391 206.381683 
L 225.502071 206.381683 
Q 227.502071 206.381683 227.502071 204.381683 
L 227.502071 118.105747 
Q 227.502071 116.105747 225.502071 116.105747 
L 175.939391 116.105747 
Q 173.939391 116.105747 173.939391 118.105747 
L 173.939391 204.381683 
Q 173.939391 206.381683 175.939391 206.381683 
z
" style="fill: #ffffff; opacity: 0.8; stroke: #cccccc; stroke-linejoin: miter"/>
    </g>
    <g id="line2d_35">
     <path d="M 177.939391 123.605747 
L 187.939391 123.605747 
L 197.939391 123.605747 
" style="fill: none; stroke: #1f77b4; stroke-width: 1.5; stroke-linecap: square"/>
     <g>
      <use xlink:href="#mba35390841" x="187.939391" y="123.605747" style="fill: #1f77b4; stroke: #1f77b4"/>
     </g>
    </g>
    <g id="text_17">
     <!-- $\tau_\mathrm{ff,1}$ -->
     <g transform="translate(205.939391 127.105747) scale(0.1 -0.1)">
      <defs>
       <path id="CMMI12-1c" d="M 1837 2408 
L 2899 2408 
C 2982 2408 3194 2408 3194 2612 
C 3194 2752 3072 2752 2957 2752 
L 1197 2752 
C 1050 2752 832 2752 538 2440 
C 371 2255 166 1917 166 1879 
C 166 1841 198 1828 237 1828 
C 282 1828 288 1847 320 1885 
C 653 2408 986 2408 1146 2408 
L 1677 2408 
L 1011 223 
C 979 127 979 114 979 95 
C 979 25 1024 -64 1152 -64 
C 1350 -64 1382 108 1402 203 
L 1837 2408 
z
" transform="scale(0.015625)"/>
       <path id="CMR17-b" d="M 2554 2560 
L 3283 2560 
L 3283 2725 
L 2541 2725 
L 2541 3494 
C 2541 4022 2810 4352 3085 4352 
C 3168 4352 3264 4327 3328 4282 
C 3277 4269 3142 4225 3142 4067 
C 3142 3901 3270 3850 3360 3850 
C 3450 3850 3578 3901 3578 4067 
C 3578 4308 3347 4454 3091 4454 
C 2842 4454 2637 4333 2477 4181 
C 2330 4390 2086 4454 1837 4454 
C 1338 4454 634 4168 634 3469 
L 634 2725 
L 122 2725 
L 122 2560 
L 634 2560 
L 634 427 
C 634 184 608 153 198 153 
L 198 -13 
C 352 0 634 0 794 0 
C 960 0 1242 0 1395 -13 
L 1395 153 
C 986 153 960 178 960 427 
L 960 2560 
L 2227 2560 
L 2227 427 
C 2227 184 2202 153 1792 153 
L 1792 -13 
C 1946 0 2240 0 2406 0 
C 2592 0 2918 0 3091 -13 
L 3091 153 
C 2630 153 2554 153 2554 439 
L 2554 2560 
z
M 947 2725 
L 947 3469 
C 947 4047 1395 4352 1824 4352 
C 1920 4352 2170 4332 2323 4187 
C 2208 4187 2099 4136 2099 3977 
C 2099 3812 2246 3767 2259 3767 
C 2227 3652 2227 3526 2227 3481 
L 2227 2725 
L 947 2725 
z
" transform="scale(0.015625)"/>
       <path id="CMMI12-3b" d="M 1248 -31 
C 1248 343 1126 619 864 619 
C 659 619 557 453 557 313 
C 557 172 653 0 870 0 
C 954 0 1024 26 1082 83 
C 1094 96 1101 96 1107 96 
C 1120 96 1120 5 1120 -27 
C 1120 -240 1082 -659 710 -1080 
C 640 -1157 640 -1170 640 -1183 
C 640 -1216 672 -1248 704 -1248 
C 755 -1248 1248 -771 1248 -31 
z
" transform="scale(0.015625)"/>
      </defs>
      <use xlink:href="#CMMI12-1c" transform="scale(0.996264)"/>
      <use xlink:href="#CMR17-b" transform="translate(42.363841 -14.943915) scale(0.697382)"/>
      <use xlink:href="#CMMI12-3b" transform="translate(83.138776 -14.943915) scale(0.697382)"/>
      <use xlink:href="#CMR17-31" transform="translate(102.106709 -14.943915) scale(0.697382)"/>
     </g>
    </g>
    <g id="line2d_36">
     <path d="M 177.939391 138.456142 
L 187.939391 138.456142 
L 197.939391 138.456142 
" style="fill: none; stroke: #ff7f0e; stroke-width: 1.5; stroke-linecap: square"/>
     <g>
      <use xlink:href="#m5987b490ab" x="187.939391" y="138.456142" style="fill: #ff7f0e; stroke: #ff7f0e"/>
     </g>
    </g>
    <g id="text_18">
     <!-- $\tau_\mathrm{ff,2}$ -->
     <g transform="translate(205.939391 141.956142) scale(0.1 -0.1)">
      <use xlink:href="#CMMI12-1c" transform="scale(0.996264)"/>
      <use xlink:href="#CMR17-b" transform="translate(42.363841 -14.943915) scale(0.697382)"/>
      <use xlink:href="#CMMI12-3b" transform="translate(83.138776 -14.943915) scale(0.697382)"/>
      <use xlink:href="#CMR17-32" transform="translate(102.106709 -14.943915) scale(0.697382)"/>
     </g>
    </g>
    <g id="line2d_37">
     <path d="M 177.939391 153.306537 
L 187.939391 153.306537 
L 197.939391 153.306537 
" style="fill: none; stroke: #1f77b4; stroke-width: 1.5; stroke-linecap: square"/>
     <g>
      <use xlink:href="#mc607ae1299" x="187.939391" y="153.306537" style="fill: #1f77b4; stroke: #1f77b4; stroke-linejoin: miter"/>
     </g>
    </g>
    <g id="text_19">
     <!-- $\tau_{\mathrm{fb},1}$ -->
     <g transform="translate(205.939391 156.806537) scale(0.1 -0.1)">
      <defs>
       <path id="CMR17-62" d="M 960 4396 
L 198 4326 
L 198 4160 
C 576 4160 634 4122 634 3817 
L 634 -13 
L 749 -13 
L 934 441 
C 1120 141 1395 -64 1766 -64 
C 2406 -64 3053 500 3053 1370 
C 3053 2188 2477 2790 1830 2790 
C 1434 2790 1152 2579 960 2330 
L 960 4396 
z
M 973 2004 
C 973 2118 973 2138 1062 2272 
C 1312 2657 1670 2688 1792 2688 
C 1984 2688 2643 2585 2643 1376 
C 2643 108 1888 38 1734 38 
C 1536 38 1248 114 1043 486 
C 973 608 973 621 973 735 
L 973 2004 
z
" transform="scale(0.015625)"/>
      </defs>
      <use xlink:href="#CMMI12-1c" transform="scale(0.996264)"/>
      <use xlink:href="#CMR17-66" transform="translate(42.363841 -14.943915) scale(0.697382)"/>
      <use xlink:href="#CMR17-62" transform="translate(61.595205 -14.943915) scale(0.697382)"/>
      <use xlink:href="#CMMI12-3b" transform="translate(97.221813 -14.943915) scale(0.697382)"/>
      <use xlink:href="#CMR17-31" transform="translate(116.189746 -14.943915) scale(0.697382)"/>
     </g>
    </g>
    <g id="line2d_38">
     <path d="M 177.939391 168.156932 
L 187.939391 168.156932 
L 197.939391 168.156932 
" style="fill: none; stroke: #ff7f0e; stroke-width: 1.5; stroke-linecap: square"/>
     <g>
      <use xlink:href="#mbb4085dc7e" x="187.939391" y="168.156932" style="fill: #ff7f0e; stroke: #ff7f0e; stroke-linejoin: miter"/>
     </g>
    </g>
    <g id="text_20">
     <!-- $\tau_{\mathrm{fb},2}$ -->
     <g transform="translate(205.939391 171.656932) scale(0.1 -0.1)">
      <use xlink:href="#CMMI12-1c" transform="scale(0.996264)"/>
      <use xlink:href="#CMR17-66" transform="translate(42.363841 -14.943915) scale(0.697382)"/>
      <use xlink:href="#CMR17-62" transform="translate(61.595205 -14.943915) scale(0.697382)"/>
      <use xlink:href="#CMMI12-3b" transform="translate(97.221813 -14.943915) scale(0.697382)"/>
      <use xlink:href="#CMR17-32" transform="translate(116.189746 -14.943915) scale(0.697382)"/>
     </g>
    </g>
    <g id="line2d_39">
     <path d="M 177.939391 183.007327 
L 187.939391 183.007327 
L 197.939391 183.007327 
" style="fill: none; stroke: #1f77b4; stroke-width: 2; stroke-linecap: square"/>
    </g>
    <g id="text_21">
     <!-- $\tau_1$ -->
     <g transform="translate(205.939391 186.507327) scale(0.1 -0.1)">
      <use xlink:href="#CMMI12-1c" transform="scale(0.996264)"/>
      <use xlink:href="#CMR17-31" transform="translate(42.363841 -14.943915) scale(0.697382)"/>
     </g>
    </g>
    <g id="line2d_40">
     <path d="M 177.939391 196.944505 
L 187.939391 196.944505 
L 197.939391 196.944505 
" style="fill: none; stroke: #ff7f0e; stroke-width: 2; stroke-linecap: square"/>
    </g>
    <g id="text_22">
     <!-- $\tau_2$ -->
     <g transform="translate(205.939391 200.444505) scale(0.1 -0.1)">
      <use xlink:href="#CMMI12-1c" transform="scale(0.996264)"/>
      <use xlink:href="#CMR17-32" transform="translate(42.363841 -14.943915) scale(0.697382)"/>
     </g>
    </g>
   </g>
  </g>
 </g>
 <defs>
  <clipPath id="pc91b10f43d">
   <rect x="52.241463" y="10.8" width="296.958537" height="200.581683"/>
  </clipPath>
 </defs>
</svg>
