<?xml version="1.0" encoding="utf-8" standalone="no"?>
<!DOCTYPE svg PUBLIC "-//W3C//DTD SVG 1.1//EN"
  "http://www.w3.org/Graphics/SVG/1.1/DTD/svg11.dtd">
<svg xmlns:xlink="http://www.w3.org/1999/xlink" width="360pt" height="216pt" viewBox="0 0 360 216" xmlns="http://www.w3.org/2000/svg" version="1.1">
 <metadata>
  <rdf:RDF xmlns:dc="http://purl.org/dc/elements/1.1/" xmlns:cc="http://creativecommons.org/ns#" xmlns:rdf="http://www.w3.org/1999/02/22-rdf-syntax-ns#">
   <cc:Work>
    <dc:type rdf:resource="http://purl.org/dc/dcmitype/StillImage"/>
    <dc:date>2024-10-24T18:03:51.104503</dc:date>
    <dc:format>image/svg+xml</dc:format>
    <dc:creator>
     <cc:Agent>
      <dc:title>Matplotlib v3.9.2, https://matplotlib.org/</dc:title>
     </cc:Agent>
    </dc:creator>
   </cc:Work>
  </rdf:RDF>
 </metadata>
 <defs>
  <style type="text/css">*{stroke-linejoin: round; stroke-linecap: butt}</style>
 </defs>
 <g id="figure_1">
  <g id="patch_1">
   <path d="M 0 216 
L 360 216 
L 360 0 
L 0 0 
z
" style="fill: #ffffff"/>
  </g>
  <g id="axes_1">
   <g id="patch_2">
    <path d="M 49.474054 175.381683 
L 349.2 175.381683 
L 349.2 11.90585 
L 49.474054 11.90585 
z
" style="fill: #ffffff"/>
   </g>
   <g id="matplotlib.axis_1">
    <g id="xtick_1">
     <g id="line2d_1">
      <path d="M 63.097961 175.381683 
L 63.097961 11.90585 
" clip-path="url(#pcb1693cbb2)" style="fill: none; stroke: #b0b0b0; stroke-width: 0.8; stroke-linecap: square"/>
     </g>
     <g id="line2d_2">
      <defs>
       <path id="me9474f7b71" d="M 0 0 
L 0 3.5 
" style="stroke: #000000; stroke-width: 0.8"/>
      </defs>
      <g>
       <use xlink:href="#me9474f7b71" x="63.097961" y="175.381683" style="stroke: #000000; stroke-width: 0.8"/>
      </g>
     </g>
     <g id="text_1">
      <!-- $\mathdefault{0}$ -->
      <g transform="translate(60.607293 189.300182) scale(0.1 -0.1)">
       <defs>
        <path id="CMR17-30" d="M 2688 2025 
C 2688 2416 2682 3080 2413 3591 
C 2176 4039 1798 4198 1466 4198 
C 1158 4198 768 4058 525 3597 
C 269 3118 243 2524 243 2025 
C 243 1661 250 1106 448 619 
C 723 -39 1216 -128 1466 -128 
C 1760 -128 2208 -7 2470 600 
C 2662 1042 2688 1559 2688 2025 
z
M 1466 -26 
C 1056 -26 813 325 723 812 
C 653 1188 653 1738 653 2096 
C 653 2588 653 2997 736 3387 
C 858 3929 1216 4096 1466 4096 
C 1728 4096 2067 3923 2189 3400 
C 2272 3036 2278 2607 2278 2096 
C 2278 1680 2278 1169 2202 792 
C 2067 95 1690 -26 1466 -26 
z
" transform="scale(0.015625)"/>
       </defs>
       <use xlink:href="#CMR17-30" transform="scale(0.996264)"/>
      </g>
     </g>
    </g>
    <g id="xtick_2">
     <g id="line2d_3">
      <path d="M 102.023408 175.381683 
L 102.023408 11.90585 
" clip-path="url(#pcb1693cbb2)" style="fill: none; stroke: #b0b0b0; stroke-width: 0.8; stroke-linecap: square"/>
     </g>
     <g id="line2d_4">
      <g>
       <use xlink:href="#me9474f7b71" x="102.023408" y="175.381683" style="stroke: #000000; stroke-width: 0.8"/>
      </g>
     </g>
     <g id="text_2">
      <!-- $\mathdefault{5}$ -->
      <g transform="translate(99.532741 189.300182) scale(0.1 -0.1)">
       <defs>
        <path id="CMR17-35" d="M 730 3692 
C 794 3666 1056 3584 1325 3584 
C 1920 3584 2246 3911 2432 4100 
C 2432 4157 2432 4192 2394 4192 
C 2387 4192 2374 4192 2323 4163 
C 2099 4058 1837 3973 1517 3973 
C 1325 3973 1037 3999 723 4139 
C 653 4171 640 4171 634 4171 
C 602 4171 595 4164 595 4037 
L 595 2203 
C 595 2089 595 2057 659 2057 
C 691 2057 704 2070 736 2114 
C 941 2401 1222 2522 1542 2522 
C 1766 2522 2246 2382 2246 1289 
C 2246 1085 2246 715 2054 421 
C 1894 159 1645 25 1370 25 
C 947 25 518 320 403 814 
C 429 807 480 795 506 795 
C 589 795 749 840 749 1038 
C 749 1210 627 1280 506 1280 
C 358 1280 262 1190 262 1011 
C 262 454 704 -128 1382 -128 
C 2042 -128 2669 440 2669 1264 
C 2669 2030 2170 2624 1549 2624 
C 1222 2624 947 2503 730 2274 
L 730 3692 
z
" transform="scale(0.015625)"/>
       </defs>
       <use xlink:href="#CMR17-35" transform="scale(0.996264)"/>
      </g>
     </g>
    </g>
    <g id="xtick_3">
     <g id="line2d_5">
      <path d="M 140.948856 175.381683 
L 140.948856 11.90585 
" clip-path="url(#pcb1693cbb2)" style="fill: none; stroke: #b0b0b0; stroke-width: 0.8; stroke-linecap: square"/>
     </g>
     <g id="line2d_6">
      <g>
       <use xlink:href="#me9474f7b71" x="140.948856" y="175.381683" style="stroke: #000000; stroke-width: 0.8"/>
      </g>
     </g>
     <g id="text_3">
      <!-- $\mathdefault{10}$ -->
      <g transform="translate(135.967521 189.300182) scale(0.1 -0.1)">
       <defs>
        <path id="CMR17-31" d="M 1702 4058 
C 1702 4192 1696 4192 1606 4192 
C 1357 3916 979 3827 621 3827 
C 602 3827 570 3827 563 3808 
C 557 3795 557 3782 557 3648 
C 755 3648 1088 3686 1344 3839 
L 1344 461 
C 1344 236 1331 160 781 160 
L 589 160 
L 589 0 
C 896 0 1216 0 1523 0 
C 1830 0 2150 0 2458 0 
L 2458 160 
L 2266 160 
C 1715 160 1702 230 1702 458 
L 1702 4058 
z
" transform="scale(0.015625)"/>
       </defs>
       <use xlink:href="#CMR17-31" transform="scale(0.996264)"/>
       <use xlink:href="#CMR17-30" transform="translate(45.690477 0) scale(0.996264)"/>
      </g>
     </g>
    </g>
    <g id="xtick_4">
     <g id="line2d_7">
      <path d="M 179.874303 175.381683 
L 179.874303 11.90585 
" clip-path="url(#pcb1693cbb2)" style="fill: none; stroke: #b0b0b0; stroke-width: 0.8; stroke-linecap: square"/>
     </g>
     <g id="line2d_8">
      <g>
       <use xlink:href="#me9474f7b71" x="179.874303" y="175.381683" style="stroke: #000000; stroke-width: 0.8"/>
      </g>
     </g>
     <g id="text_4">
      <!-- $\mathdefault{15}$ -->
      <g transform="translate(174.892968 189.300182) scale(0.1 -0.1)">
       <use xlink:href="#CMR17-31" transform="scale(0.996264)"/>
       <use xlink:href="#CMR17-35" transform="translate(45.690477 0) scale(0.996264)"/>
      </g>
     </g>
    </g>
    <g id="xtick_5">
     <g id="line2d_9">
      <path d="M 218.799751 175.381683 
L 218.799751 11.90585 
" clip-path="url(#pcb1693cbb2)" style="fill: none; stroke: #b0b0b0; stroke-width: 0.8; stroke-linecap: square"/>
     </g>
     <g id="line2d_10">
      <g>
       <use xlink:href="#me9474f7b71" x="218.799751" y="175.381683" style="stroke: #000000; stroke-width: 0.8"/>
      </g>
     </g>
     <g id="text_5">
      <!-- $\mathdefault{20}$ -->
      <g transform="translate(213.818416 189.300182) scale(0.1 -0.1)">
       <defs>
        <path id="CMR17-32" d="M 2669 989 
L 2554 989 
C 2490 536 2438 459 2413 420 
C 2381 369 1920 369 1830 369 
L 602 369 
C 832 619 1280 1072 1824 1597 
C 2214 1967 2669 2402 2669 3035 
C 2669 3790 2067 4224 1395 4224 
C 691 4224 262 3604 262 3030 
C 262 2780 448 2748 525 2748 
C 589 2748 781 2787 781 3010 
C 781 3207 614 3264 525 3264 
C 486 3264 448 3258 422 3245 
C 544 3790 915 4058 1306 4058 
C 1862 4058 2227 3617 2227 3035 
C 2227 2479 1901 2000 1536 1584 
L 262 146 
L 262 0 
L 2515 0 
L 2669 989 
z
" transform="scale(0.015625)"/>
       </defs>
       <use xlink:href="#CMR17-32" transform="scale(0.996264)"/>
       <use xlink:href="#CMR17-30" transform="translate(45.690477 0) scale(0.996264)"/>
      </g>
     </g>
    </g>
    <g id="xtick_6">
     <g id="line2d_11">
      <path d="M 257.725198 175.381683 
L 257.725198 11.90585 
" clip-path="url(#pcb1693cbb2)" style="fill: none; stroke: #b0b0b0; stroke-width: 0.8; stroke-linecap: square"/>
     </g>
     <g id="line2d_12">
      <g>
       <use xlink:href="#me9474f7b71" x="257.725198" y="175.381683" style="stroke: #000000; stroke-width: 0.8"/>
      </g>
     </g>
     <g id="text_6">
      <!-- $\mathdefault{25}$ -->
      <g transform="translate(252.743863 189.300182) scale(0.1 -0.1)">
       <use xlink:href="#CMR17-32" transform="scale(0.996264)"/>
       <use xlink:href="#CMR17-35" transform="translate(45.690477 0) scale(0.996264)"/>
      </g>
     </g>
    </g>
    <g id="xtick_7">
     <g id="line2d_13">
      <path d="M 296.650646 175.381683 
L 296.650646 11.90585 
" clip-path="url(#pcb1693cbb2)" style="fill: none; stroke: #b0b0b0; stroke-width: 0.8; stroke-linecap: square"/>
     </g>
     <g id="line2d_14">
      <g>
       <use xlink:href="#me9474f7b71" x="296.650646" y="175.381683" style="stroke: #000000; stroke-width: 0.8"/>
      </g>
     </g>
     <g id="text_7">
      <!-- $\mathdefault{30}$ -->
      <g transform="translate(291.669311 189.300182) scale(0.1 -0.1)">
       <defs>
        <path id="CMR17-33" d="M 1414 2157 
C 1984 2157 2234 1662 2234 1090 
C 2234 320 1824 25 1453 25 
C 1114 25 563 194 390 693 
C 422 680 454 680 486 680 
C 640 680 755 782 755 948 
C 755 1133 614 1216 486 1216 
C 378 1216 211 1165 211 926 
C 211 335 787 -128 1466 -128 
C 2176 -128 2720 430 2720 1085 
C 2720 1707 2208 2157 1600 2227 
C 2086 2328 2554 2756 2554 3329 
C 2554 3820 2048 4179 1472 4179 
C 890 4179 378 3829 378 3329 
C 378 3110 544 3072 627 3072 
C 762 3072 877 3155 877 3321 
C 877 3486 762 3569 627 3569 
C 602 3569 570 3569 544 3557 
C 730 3959 1235 4032 1459 4032 
C 1683 4032 2106 3925 2106 3320 
C 2106 3143 2080 2828 1862 2550 
C 1670 2304 1453 2304 1242 2284 
C 1210 2284 1062 2269 1037 2269 
C 992 2263 966 2257 966 2208 
C 966 2163 973 2157 1101 2157 
L 1414 2157 
z
" transform="scale(0.015625)"/>
       </defs>
       <use xlink:href="#CMR17-33" transform="scale(0.996264)"/>
       <use xlink:href="#CMR17-30" transform="translate(45.690477 0) scale(0.996264)"/>
      </g>
     </g>
    </g>
    <g id="xtick_8">
     <g id="line2d_15">
      <path d="M 335.576093 175.381683 
L 335.576093 11.90585 
" clip-path="url(#pcb1693cbb2)" style="fill: none; stroke: #b0b0b0; stroke-width: 0.8; stroke-linecap: square"/>
     </g>
     <g id="line2d_16">
      <g>
       <use xlink:href="#me9474f7b71" x="335.576093" y="175.381683" style="stroke: #000000; stroke-width: 0.8"/>
      </g>
     </g>
     <g id="text_8">
      <!-- $\mathdefault{35}$ -->
      <g transform="translate(330.594758 189.300182) scale(0.1 -0.1)">
       <use xlink:href="#CMR17-33" transform="scale(0.996264)"/>
       <use xlink:href="#CMR17-35" transform="translate(45.690477 0) scale(0.996264)"/>
      </g>
     </g>
    </g>
    <g id="text_9">
     <!-- Time $t$ [s] -->
     <g transform="translate(178.138719 202.70934) scale(0.1 -0.1)">
      <defs>
       <path id="CMR17-54" d="M 3981 4326 
L 288 4326 
L 179 2918 
L 294 2918 
C 378 3976 467 4160 1453 4160 
C 1568 4160 1754 4160 1805 4154 
C 1926 4135 1926 4058 1926 3912 
L 1926 459 
C 1926 230 1907 160 1376 160 
L 1197 160 
L 1197 0 
C 1504 0 1824 0 2138 0 
C 2451 0 2771 0 3078 0 
L 3078 160 
L 2899 160 
C 2368 160 2349 230 2349 459 
L 2349 3912 
C 2349 4052 2349 4129 2464 4154 
C 2515 4160 2701 4160 2816 4160 
C 3795 4160 3891 3976 3974 2918 
L 4090 2918 
L 3981 4326 
z
" transform="scale(0.015625)"/>
       <path id="CMR17-69" d="M 992 3909 
C 992 4049 877 4170 730 4170 
C 589 4170 467 4056 467 3909 
C 467 3769 582 3648 730 3648 
C 870 3648 992 3763 992 3909 
z
M 243 2706 
L 243 2541 
C 602 2541 653 2502 653 2197 
L 653 427 
C 653 184 627 153 218 153 
L 218 -13 
C 371 0 646 0 806 0 
C 960 0 1222 0 1370 -13 
L 1370 153 
C 992 153 979 191 979 420 
L 979 2776 
L 243 2706 
z
" transform="scale(0.015625)"/>
       <path id="CMR17-6d" d="M 4326 1933 
C 4326 2252 4269 2790 3507 2790 
C 3072 2790 2771 2496 2656 2151 
L 2650 2151 
C 2573 2676 2195 2790 1837 2790 
C 1331 2790 1069 2400 973 2144 
L 966 2144 
L 966 2790 
L 211 2720 
L 211 2554 
C 589 2554 646 2515 646 2208 
L 646 428 
C 646 184 621 153 211 153 
L 211 -13 
C 365 0 646 0 813 0 
C 979 0 1267 0 1421 -13 
L 1421 153 
C 1011 153 986 178 986 428 
L 986 1658 
C 986 2247 1344 2688 1792 2688 
C 2266 2688 2317 2266 2317 1958 
L 2317 428 
C 2317 184 2291 153 1882 153 
L 1882 -13 
C 2035 0 2317 0 2483 0 
C 2650 0 2938 0 3091 -13 
L 3091 153 
C 2682 153 2656 178 2656 428 
L 2656 1658 
C 2656 2247 3014 2688 3462 2688 
C 3936 2688 3987 2266 3987 1958 
L 3987 428 
C 3987 184 3962 153 3552 153 
L 3552 -13 
C 3706 0 3987 0 4154 0 
C 4320 0 4608 0 4762 -13 
L 4762 153 
C 4352 153 4326 178 4326 428 
L 4326 1933 
z
" transform="scale(0.015625)"/>
       <path id="CMR17-65" d="M 2438 1472 
C 2464 1498 2464 1511 2464 1576 
C 2464 2238 2118 2816 1389 2816 
C 710 2816 173 2169 173 1383 
C 173 551 781 -64 1459 -64 
C 2176 -64 2458 607 2458 740 
C 2458 784 2419 784 2406 784 
C 2362 784 2355 771 2330 696 
C 2189 265 1837 51 1504 51 
C 1229 51 954 203 781 480 
C 582 803 582 1176 582 1472 
L 2438 1472 
z
M 589 1568 
C 634 2505 1126 2714 1382 2714 
C 1818 2714 2112 2297 2118 1568 
L 589 1568 
z
" transform="scale(0.015625)"/>
       <path id="CMMI12-74" d="M 1286 2566 
L 1875 2566 
C 1997 2566 2061 2566 2061 2681 
C 2061 2752 2022 2752 1894 2752 
L 1331 2752 
L 1568 3692 
C 1594 3781 1594 3794 1594 3840 
C 1594 3943 1510 4000 1427 4000 
C 1376 4000 1229 3981 1178 3775 
L 928 2752 
L 326 2752 
C 198 2752 141 2752 141 2630 
C 141 2566 186 2566 307 2566 
L 877 2566 
L 454 881 
C 403 658 384 594 384 511 
C 384 211 595 -64 954 -64 
C 1600 -64 1946 868 1946 912 
C 1946 951 1920 970 1882 970 
C 1869 970 1843 970 1830 944 
C 1824 938 1818 931 1773 829 
C 1638 511 1344 64 973 64 
C 781 64 768 224 768 364 
C 768 370 768 492 787 568 
L 1286 2566 
z
" transform="scale(0.015625)"/>
       <path id="CMR17-5b" d="M 1504 -1600 
L 1504 -1377 
L 902 -1377 
L 902 4544 
L 1504 4544 
L 1504 4767 
L 678 4767 
L 678 -1600 
L 1504 -1600 
z
" transform="scale(0.015625)"/>
       <path id="CMR17-73" d="M 1978 2697 
C 1978 2813 1971 2819 1933 2819 
C 1907 2819 1901 2813 1824 2717 
C 1805 2691 1747 2626 1728 2601 
C 1523 2819 1235 2819 1126 2819 
C 416 2819 160 2447 160 2076 
C 160 1498 813 1365 998 1325 
C 1402 1243 1542 1217 1677 1101 
C 1760 1025 1901 884 1901 654 
C 1901 384 1747 38 1158 38 
C 602 38 403 460 288 1021 
C 269 1110 269 1117 218 1117 
C 166 1117 160 1110 160 983 
L 160 63 
C 160 -51 166 -58 205 -58 
C 237 -58 243 -51 275 0 
C 314 57 410 211 448 276 
C 576 103 800 -64 1158 -64 
C 1792 -64 2131 283 2131 784 
C 2131 1112 1958 1285 1875 1362 
C 1683 1561 1459 1606 1190 1657 
C 838 1735 390 1825 390 2217 
C 390 2383 480 2737 1126 2737 
C 1811 2737 1850 2094 1862 1888 
C 1869 1856 1901 1849 1920 1849 
C 1978 1849 1978 1869 1978 1978 
L 1978 2697 
z
" transform="scale(0.015625)"/>
       <path id="CMR17-5d" d="M 915 4767 
L 90 4767 
L 90 4544 
L 691 4544 
L 691 -1377 
L 90 -1377 
L 90 -1600 
L 915 -1600 
L 915 4767 
z
" transform="scale(0.015625)"/>
      </defs>
      <use xlink:href="#CMR17-54" transform="scale(0.996264)"/>
      <use xlink:href="#CMR17-69" transform="translate(66.509881 0) scale(0.996264)"/>
      <use xlink:href="#CMR17-6d" transform="translate(91.380939 0) scale(0.996264)"/>
      <use xlink:href="#CMR17-65" transform="translate(168.300529 0) scale(0.996264)"/>
      <use xlink:href="#CMMI12-74" transform="translate(238.862156 0) scale(0.996264)"/>
      <use xlink:href="#CMR17-5b" transform="translate(304.164452 0) scale(0.996264)"/>
      <use xlink:href="#CMR17-73" transform="translate(329.035511 0) scale(0.996264)"/>
      <use xlink:href="#CMR17-5d" transform="translate(364.836848 0) scale(0.996264)"/>
     </g>
    </g>
   </g>
   <g id="matplotlib.axis_2">
    <g id="ytick_1">
     <g id="line2d_17">
      <path d="M 49.474054 163.01539 
L 349.2 163.01539 
" clip-path="url(#pcb1693cbb2)" style="fill: none; stroke: #b0b0b0; stroke-width: 0.8; stroke-linecap: square"/>
     </g>
     <g id="line2d_18">
      <defs>
       <path id="m863d47a5ef" d="M 0 0 
L -3.5 0 
" style="stroke: #000000; stroke-width: 0.8"/>
      </defs>
      <g>
       <use xlink:href="#m863d47a5ef" x="49.474054" y="163.01539" style="stroke: #000000; stroke-width: 0.8"/>
      </g>
     </g>
     <g id="text_10">
      <!-- $\mathdefault{−30}$ -->
      <g transform="translate(24.76264 166.474639) scale(0.1 -0.1)">
       <defs>
        <path id="CMSY10-0" d="M 4218 1472 
C 4326 1472 4442 1472 4442 1600 
C 4442 1728 4326 1728 4218 1728 
L 755 1728 
C 646 1728 531 1728 531 1600 
C 531 1472 646 1472 755 1472 
L 4218 1472 
z
" transform="scale(0.015625)"/>
       </defs>
       <use xlink:href="#CMSY10-0" transform="scale(0.996264)"/>
       <use xlink:href="#CMR17-33" transform="translate(77.487468 0) scale(0.996264)"/>
       <use xlink:href="#CMR17-30" transform="translate(123.177945 0) scale(0.996264)"/>
      </g>
     </g>
    </g>
    <g id="ytick_2">
     <g id="line2d_19">
      <path d="M 49.474054 141.758764 
L 349.2 141.758764 
" clip-path="url(#pcb1693cbb2)" style="fill: none; stroke: #b0b0b0; stroke-width: 0.8; stroke-linecap: square"/>
     </g>
     <g id="line2d_20">
      <g>
       <use xlink:href="#m863d47a5ef" x="49.474054" y="141.758764" style="stroke: #000000; stroke-width: 0.8"/>
      </g>
     </g>
     <g id="text_11">
      <!-- $\mathdefault{−20}$ -->
      <g transform="translate(24.76264 145.218013) scale(0.1 -0.1)">
       <use xlink:href="#CMSY10-0" transform="scale(0.996264)"/>
       <use xlink:href="#CMR17-32" transform="translate(77.487468 0) scale(0.996264)"/>
       <use xlink:href="#CMR17-30" transform="translate(123.177945 0) scale(0.996264)"/>
      </g>
     </g>
    </g>
    <g id="ytick_3">
     <g id="line2d_21">
      <path d="M 49.474054 120.502137 
L 349.2 120.502137 
" clip-path="url(#pcb1693cbb2)" style="fill: none; stroke: #b0b0b0; stroke-width: 0.8; stroke-linecap: square"/>
     </g>
     <g id="line2d_22">
      <g>
       <use xlink:href="#m863d47a5ef" x="49.474054" y="120.502137" style="stroke: #000000; stroke-width: 0.8"/>
      </g>
     </g>
     <g id="text_12">
      <!-- $\mathdefault{−10}$ -->
      <g transform="translate(24.76264 123.961386) scale(0.1 -0.1)">
       <use xlink:href="#CMSY10-0" transform="scale(0.996264)"/>
       <use xlink:href="#CMR17-31" transform="translate(77.487468 0) scale(0.996264)"/>
       <use xlink:href="#CMR17-30" transform="translate(123.177945 0) scale(0.996264)"/>
      </g>
     </g>
    </g>
    <g id="ytick_4">
     <g id="line2d_23">
      <path d="M 49.474054 99.245511 
L 349.2 99.245511 
" clip-path="url(#pcb1693cbb2)" style="fill: none; stroke: #b0b0b0; stroke-width: 0.8; stroke-linecap: square"/>
     </g>
     <g id="line2d_24">
      <g>
       <use xlink:href="#m863d47a5ef" x="49.474054" y="99.245511" style="stroke: #000000; stroke-width: 0.8"/>
      </g>
     </g>
     <g id="text_13">
      <!-- $\mathdefault{0}$ -->
      <g transform="translate(37.492719 102.70476) scale(0.1 -0.1)">
       <use xlink:href="#CMR17-30" transform="scale(0.996264)"/>
      </g>
     </g>
    </g>
    <g id="ytick_5">
     <g id="line2d_25">
      <path d="M 49.474054 77.988884 
L 349.2 77.988884 
" clip-path="url(#pcb1693cbb2)" style="fill: none; stroke: #b0b0b0; stroke-width: 0.8; stroke-linecap: square"/>
     </g>
     <g id="line2d_26">
      <g>
       <use xlink:href="#m863d47a5ef" x="49.474054" y="77.988884" style="stroke: #000000; stroke-width: 0.8"/>
      </g>
     </g>
     <g id="text_14">
      <!-- $\mathdefault{10}$ -->
      <g transform="translate(32.511384 81.448133) scale(0.1 -0.1)">
       <use xlink:href="#CMR17-31" transform="scale(0.996264)"/>
       <use xlink:href="#CMR17-30" transform="translate(45.690477 0) scale(0.996264)"/>
      </g>
     </g>
    </g>
    <g id="ytick_6">
     <g id="line2d_27">
      <path d="M 49.474054 56.732258 
L 349.2 56.732258 
" clip-path="url(#pcb1693cbb2)" style="fill: none; stroke: #b0b0b0; stroke-width: 0.8; stroke-linecap: square"/>
     </g>
     <g id="line2d_28">
      <g>
       <use xlink:href="#m863d47a5ef" x="49.474054" y="56.732258" style="stroke: #000000; stroke-width: 0.8"/>
      </g>
     </g>
     <g id="text_15">
      <!-- $\mathdefault{20}$ -->
      <g transform="translate(32.511384 60.191507) scale(0.1 -0.1)">
       <use xlink:href="#CMR17-32" transform="scale(0.996264)"/>
       <use xlink:href="#CMR17-30" transform="translate(45.690477 0) scale(0.996264)"/>
      </g>
     </g>
    </g>
    <g id="ytick_7">
     <g id="line2d_29">
      <path d="M 49.474054 35.475631 
L 349.2 35.475631 
" clip-path="url(#pcb1693cbb2)" style="fill: none; stroke: #b0b0b0; stroke-width: 0.8; stroke-linecap: square"/>
     </g>
     <g id="line2d_30">
      <g>
       <use xlink:href="#m863d47a5ef" x="49.474054" y="35.475631" style="stroke: #000000; stroke-width: 0.8"/>
      </g>
     </g>
     <g id="text_16">
      <!-- $\mathdefault{30}$ -->
      <g transform="translate(32.511384 38.93488) scale(0.1 -0.1)">
       <use xlink:href="#CMR17-33" transform="scale(0.996264)"/>
       <use xlink:href="#CMR17-30" transform="translate(45.690477 0) scale(0.996264)"/>
      </g>
     </g>
    </g>
    <g id="ytick_8">
     <g id="line2d_31">
      <path d="M 49.474054 14.219005 
L 349.2 14.219005 
" clip-path="url(#pcb1693cbb2)" style="fill: none; stroke: #b0b0b0; stroke-width: 0.8; stroke-linecap: square"/>
     </g>
     <g id="line2d_32">
      <g>
       <use xlink:href="#m863d47a5ef" x="49.474054" y="14.219005" style="stroke: #000000; stroke-width: 0.8"/>
      </g>
     </g>
     <g id="text_17">
      <!-- $\mathdefault{40}$ -->
      <g transform="translate(32.511384 17.678254) scale(0.1 -0.1)">
       <defs>
        <path id="CMR17-34" d="M 2150 4122 
C 2150 4256 2144 4256 2029 4256 
L 128 1254 
L 128 1088 
L 1779 1088 
L 1779 457 
C 1779 224 1766 160 1318 160 
L 1197 160 
L 1197 0 
C 1402 0 1747 0 1965 0 
C 2182 0 2528 0 2733 0 
L 2733 160 
L 2611 160 
C 2163 160 2150 224 2150 457 
L 2150 1088 
L 2803 1088 
L 2803 1254 
L 2150 1254 
L 2150 4122 
z
M 1798 3703 
L 1798 1254 
L 256 1254 
L 1798 3703 
z
" transform="scale(0.015625)"/>
       </defs>
       <use xlink:href="#CMR17-34" transform="scale(0.996264)"/>
       <use xlink:href="#CMR17-30" transform="translate(45.690477 0) scale(0.996264)"/>
      </g>
     </g>
    </g>
    <g id="text_18">
     <!-- Bending strain $\kappa_\mathrm{be}$ [rad/m] -->
     <g transform="translate(18.27198 152.854732) rotate(-90) scale(0.1 -0.1)">
      <defs>
       <path id="CMR17-42" d="M 333 4352 
L 333 4186 
C 774 4186 845 4186 845 3900 
L 845 452 
C 845 166 774 166 333 166 
L 333 0 
L 2534 0 
C 3354 0 3885 583 3885 1164 
C 3885 1741 3360 2233 2675 2233 
C 3290 2356 3718 2771 3718 3264 
C 3718 3802 3194 4352 2368 4352 
L 333 4352 
z
M 1248 2304 
L 1248 3937 
C 1248 4155 1261 4186 1517 4186 
L 2336 4186 
C 2970 4186 3251 3674 3251 3277 
C 3251 2791 2861 2304 2170 2304 
L 1248 2304 
z
M 1517 166 
C 1261 166 1248 197 1248 413 
L 1248 2202 
L 2432 2202 
C 3091 2202 3411 1625 3411 1162 
C 3411 699 3046 166 2349 166 
L 1517 166 
z
" transform="scale(0.015625)"/>
       <path id="CMR17-6e" d="M 2656 1933 
C 2656 2259 2592 2790 1837 2790 
C 1331 2790 1069 2400 973 2144 
L 966 2144 
L 966 2790 
L 211 2720 
L 211 2554 
C 589 2554 646 2515 646 2208 
L 646 428 
C 646 184 621 153 211 153 
L 211 -13 
C 365 0 646 0 813 0 
C 979 0 1267 0 1421 -13 
L 1421 153 
C 1011 153 986 178 986 428 
L 986 1658 
C 986 2247 1344 2688 1792 2688 
C 2266 2688 2317 2266 2317 1958 
L 2317 428 
C 2317 184 2291 153 1882 153 
L 1882 -13 
C 2035 0 2317 0 2483 0 
C 2650 0 2938 0 3091 -13 
L 3091 153 
C 2682 153 2656 178 2656 428 
L 2656 1933 
z
" transform="scale(0.015625)"/>
       <path id="CMR17-64" d="M 1869 4326 
L 1869 4160 
C 2246 4160 2304 4122 2304 3820 
L 2304 2345 
C 2278 2377 2016 2790 1498 2790 
C 845 2790 211 2208 211 1364 
C 211 525 806 -64 1434 -64 
C 1978 -64 2259 337 2291 380 
L 2291 -63 
L 3066 -63 
L 3066 128 
C 2688 128 2630 166 2630 473 
L 2630 4396 
L 1869 4326 
z
M 2291 755 
C 2291 563 2176 390 2029 262 
C 1811 70 1594 38 1472 38 
C 1286 38 621 134 621 1356 
C 621 2612 1363 2688 1530 2688 
C 1824 2688 2061 2522 2208 2291 
C 2291 2157 2291 2138 2291 2023 
L 2291 755 
z
" transform="scale(0.015625)"/>
       <path id="CMR17-67" d="M 710 1164 
C 832 1068 1043 960 1299 960 
C 1805 960 2240 1357 2240 1888 
C 2240 2054 2189 2310 1997 2509 
C 2176 2692 2438 2752 2586 2752 
C 2611 2752 2650 2752 2682 2734 
C 2656 2728 2598 2703 2598 2605 
C 2598 2527 2656 2471 2739 2471 
C 2835 2471 2886 2533 2886 2614 
C 2886 2731 2790 2854 2586 2854 
C 2330 2854 2106 2738 1926 2580 
C 1734 2753 1504 2816 1299 2816 
C 794 2816 358 2419 358 1888 
C 358 1522 570 1292 634 1228 
C 442 1004 442 743 442 711 
C 442 545 506 302 723 168 
C 390 85 128 -169 128 -486 
C 128 -943 736 -1280 1466 -1280 
C 2170 -1280 2803 -956 2803 -479 
C 2803 384 1856 384 1363 384 
C 1216 384 954 384 922 391 
C 723 423 589 602 589 826 
C 589 883 589 1024 710 1164 
z
M 1299 1068 
C 736 1068 736 1760 736 1889 
C 736 2016 736 2708 1299 2708 
C 1862 2708 1862 2016 1862 1889 
C 1862 1760 1862 1068 1299 1068 
z
M 1466 -1171 
C 826 -1171 384 -835 384 -486 
C 384 -289 493 -105 634 -4 
C 794 104 858 104 1293 104 
C 1818 104 2547 104 2547 -486 
C 2547 -835 2106 -1171 1466 -1171 
z
" transform="scale(0.015625)"/>
       <path id="CMR17-74" d="M 966 2560 
L 1862 2560 
L 1862 2725 
L 966 2725 
L 966 3904 
L 851 3904 
C 838 3245 614 2668 70 2668 
L 70 2560 
L 627 2560 
L 627 771 
C 627 650 627 -64 1370 -64 
C 1747 -64 1965 306 1965 777 
L 1965 1140 
L 1850 1140 
L 1850 783 
C 1850 344 1677 51 1408 51 
C 1222 51 966 178 966 758 
L 966 2560 
z
" transform="scale(0.015625)"/>
       <path id="CMR17-72" d="M 960 1497 
C 960 2112 1222 2688 1702 2688 
C 1747 2688 1792 2682 1837 2662 
C 1837 2662 1696 2617 1696 2452 
C 1696 2298 1818 2234 1914 2234 
C 1990 2234 2131 2279 2131 2458 
C 2131 2663 1926 2790 1709 2790 
C 1222 2790 1011 2317 947 2093 
L 941 2093 
L 941 2790 
L 198 2720 
L 198 2554 
C 576 2554 634 2515 634 2208 
L 634 428 
C 634 184 608 153 198 153 
L 198 -13 
C 352 0 646 0 813 0 
C 998 0 1325 0 1498 -13 
L 1498 153 
C 1037 153 960 153 960 440 
L 960 1497 
z
" transform="scale(0.015625)"/>
       <path id="CMR17-61" d="M 2304 1653 
C 2304 2072 2304 2294 2035 2543 
C 1798 2752 1523 2816 1306 2816 
C 800 2816 435 2407 435 1971 
C 435 1728 627 1728 666 1728 
C 749 1728 896 1778 896 1954 
C 896 2112 774 2181 666 2181 
C 640 2181 608 2174 589 2168 
C 723 2592 1069 2714 1293 2714 
C 1613 2714 1965 2429 1965 1885 
L 1965 1600 
C 1587 1600 1133 1549 774 1357 
C 371 1133 256 813 256 570 
C 256 77 832 -64 1171 -64 
C 1523 -64 1850 139 1990 511 
C 2003 233 2182 -18 2464 -18 
C 2598 -18 2938 70 2938 567 
L 2938 920 
L 2822 920 
L 2822 562 
C 2822 178 2650 128 2566 128 
C 2304 128 2304 458 2304 738 
L 2304 1653 
z
M 1965 870 
C 1965 317 1568 38 1216 38 
C 896 38 646 275 646 570 
C 646 761 730 1100 1101 1305 
C 1408 1478 1760 1504 1965 1504 
L 1965 870 
z
" transform="scale(0.015625)"/>
       <path id="CMMI12-14" d="M 1363 1600 
C 1574 1714 1811 1912 1971 2046 
C 2355 2377 2496 2479 2739 2574 
C 2714 2536 2707 2485 2707 2441 
C 2707 2268 2854 2236 2918 2236 
C 3123 2236 3238 2427 3238 2548 
C 3238 2586 3226 2752 3002 2752 
C 2618 2752 2240 2431 1958 2198 
C 1587 1876 1402 1738 1139 1656 
L 1382 2656 
C 1382 2759 1299 2816 1216 2816 
C 1158 2816 1018 2797 966 2592 
L 371 224 
C 352 148 352 134 352 96 
C 352 6 422 -64 518 -64 
C 710 -64 749 106 781 244 
C 819 380 1082 1472 1094 1472 
C 1907 1472 2182 1264 2182 943 
C 2182 897 2182 878 2163 806 
C 2138 682 2138 609 2138 570 
C 2138 178 2387 -64 2701 -64 
C 2963 -64 3110 123 3206 291 
C 3341 543 3424 898 3424 923 
C 3424 956 3398 981 3360 981 
C 3302 981 3296 956 3270 852 
C 3187 542 3046 64 2720 64 
C 2579 64 2509 148 2509 374 
C 2509 498 2534 641 2560 737 
C 2573 802 2592 880 2592 951 
C 2592 1541 1786 1600 1363 1600 
z
" transform="scale(0.015625)"/>
       <path id="CMR17-62" d="M 960 4396 
L 198 4326 
L 198 4160 
C 576 4160 634 4122 634 3817 
L 634 -13 
L 749 -13 
L 934 441 
C 1120 141 1395 -64 1766 -64 
C 2406 -64 3053 500 3053 1370 
C 3053 2188 2477 2790 1830 2790 
C 1434 2790 1152 2579 960 2330 
L 960 4396 
z
M 973 2004 
C 973 2118 973 2138 1062 2272 
C 1312 2657 1670 2688 1792 2688 
C 1984 2688 2643 2585 2643 1376 
C 2643 108 1888 38 1734 38 
C 1536 38 1248 114 1043 486 
C 973 608 973 621 973 735 
L 973 2004 
z
" transform="scale(0.015625)"/>
       <path id="CMR17-2f" d="M 2605 4545 
C 2637 4627 2637 4640 2637 4653 
C 2637 4729 2579 4768 2528 4768 
C 2451 4768 2426 4717 2400 4640 
L 326 -1377 
C 294 -1460 294 -1473 294 -1486 
C 294 -1562 352 -1600 403 -1600 
C 480 -1600 506 -1549 531 -1473 
L 2605 4545 
z
" transform="scale(0.015625)"/>
      </defs>
      <use xlink:href="#CMR17-42" transform="scale(0.996264)"/>
      <use xlink:href="#CMR17-65" transform="translate(65.188754 0) scale(0.996264)"/>
      <use xlink:href="#CMR17-6e" transform="translate(105.674415 0) scale(0.996264)"/>
      <use xlink:href="#CMR17-64" transform="translate(156.569785 0) scale(0.996264)"/>
      <use xlink:href="#CMR17-69" transform="translate(207.465154 0) scale(0.996264)"/>
      <use xlink:href="#CMR17-6e" transform="translate(232.336213 0) scale(0.996264)"/>
      <use xlink:href="#CMR17-67" transform="translate(283.231583 0) scale(0.996264)"/>
      <use xlink:href="#CMR17-73" transform="translate(358.998026 0) scale(0.996264)"/>
      <use xlink:href="#CMR17-74" transform="translate(394.799364 0) scale(0.996264)"/>
      <use xlink:href="#CMR17-72" transform="translate(430.080132 0) scale(0.996264)"/>
      <use xlink:href="#CMR17-61" transform="translate(465.360899 0) scale(0.996264)"/>
      <use xlink:href="#CMR17-69" transform="translate(511.051377 0) scale(0.996264)"/>
      <use xlink:href="#CMR17-6e" transform="translate(535.922435 0) scale(0.996264)"/>
      <use xlink:href="#CMMI12-14" transform="translate(616.893771 0) scale(0.996264)"/>
      <use xlink:href="#CMR17-62" transform="translate(673.048395 -14.943915) scale(0.697382)"/>
      <use xlink:href="#CMR17-65" transform="translate(710.496709 -14.943915) scale(0.697382)"/>
      <use xlink:href="#CMR17-5b" transform="translate(769.410639 0) scale(0.996264)"/>
      <use xlink:href="#CMR17-72" transform="translate(794.281698 0) scale(0.996264)"/>
      <use xlink:href="#CMR17-61" transform="translate(829.562465 0) scale(0.996264)"/>
      <use xlink:href="#CMR17-64" transform="translate(875.252942 0) scale(0.996264)"/>
      <use xlink:href="#CMR17-2f" transform="translate(926.148312 0) scale(0.996264)"/>
      <use xlink:href="#CMR17-6d" transform="translate(971.838789 0) scale(0.996264)"/>
      <use xlink:href="#CMR17-5d" transform="translate(1048.758379 0) scale(0.996264)"/>
     </g>
    </g>
   </g>
   <g id="line2d_33">
    <path d="M 63.097961 134.819861 
L 102.023408 134.819861 
L 102.17911 21.947781 
L 140.948856 21.947781 
L 141.104558 110.185722 
L 179.874303 110.185722 
L 180.030005 24.776863 
L 218.799751 24.776863 
L 218.955453 72.176759 
L 257.725198 72.176759 
L 257.8809 165.460379 
L 296.650646 165.460379 
L 296.806348 33.777469 
L 335.576093 33.777469 
L 335.576093 33.777469 
" clip-path="url(#pcb1693cbb2)" style="fill: none; stroke-dasharray: 3.5,5.775; stroke-dashoffset: 0; stroke: #1f77b4; stroke-width: 3.5"/>
   </g>
   <g id="line2d_34">
    <path d="M 63.097961 78.913112 
L 102.023408 78.913112 
L 102.17911 110.927385 
L 140.948856 110.927385 
L 141.104558 90.589685 
L 179.874303 90.589685 
L 180.030005 111.995759 
L 218.799751 111.995759 
L 218.955453 81.107787 
L 257.725198 81.107787 
L 257.8809 89.821919 
L 296.650646 89.821919 
L 296.806348 109.992061 
L 335.576093 109.992061 
L 335.576093 109.992061 
" clip-path="url(#pcb1693cbb2)" style="fill: none; stroke-dasharray: 3.5,5.775; stroke-dashoffset: 0; stroke: #ff7f0e; stroke-width: 3.5"/>
   </g>
   <g id="line2d_35">
    <path d="M 63.097961 99.245511 
L 64.032172 116.811474 
L 64.654979 123.856926 
L 65.277786 128.62072 
L 65.978444 132.297248 
L 66.679102 134.887761 
L 67.146207 136.03247 
L 67.613313 136.650449 
L 68.080418 136.894716 
L 68.547524 136.873994 
L 69.09248 136.616312 
L 69.870989 135.964526 
L 71.583709 134.354141 
L 72.050814 134.380896 
L 72.59577 134.640401 
L 73.374279 135.049385 
L 73.841384 134.990477 
L 74.931297 134.692062 
L 76.09906 134.876277 
L 76.799718 134.741261 
L 78.045333 134.803963 
L 78.590289 134.782508 
L 79.446649 134.838938 
L 80.225158 134.806565 
L 81.003667 134.826859 
L 81.782176 134.818948 
L 82.560685 134.815438 
L 83.417045 134.834504 
L 85.285466 134.82766 
L 87.231738 134.808824 
L 93.926915 134.820385 
L 100.622092 134.821037 
L 102.023408 134.820757 
L 102.17911 92.167019 
L 102.801917 66.803779 
L 103.424725 50.521658 
L 104.047532 39.871253 
L 104.670339 32.748959 
L 105.293146 27.85938 
L 105.993804 24.022173 
L 106.694462 21.304128 
L 107.161568 20.197882 
L 107.628673 19.59544 
L 108.095778 19.355172 
L 108.562884 19.371844 
L 109.10784 19.62762 
L 109.808498 20.211746 
L 110.82056 21.365395 
L 111.75477 22.387726 
L 112.221876 22.496357 
L 112.766832 22.347181 
L 113.46749 21.866338 
L 113.934595 21.682679 
L 114.401701 21.74908 
L 115.569464 22.084499 
L 116.737228 21.880254 
L 117.515737 22.027389 
L 118.605649 21.926823 
L 119.228456 21.999892 
L 120.240518 21.939521 
L 120.863325 21.978431 
L 121.797536 21.946803 
L 122.498194 21.954921 
L 123.276703 21.946538 
L 124.055212 21.943711 
L 124.911572 21.962752 
L 126.702142 21.961832 
L 128.959818 21.942016 
L 131.139643 21.950698 
L 133.630872 21.954574 
L 140.948856 21.950305 
L 141.104558 100.309389 
L 141.727365 104.213723 
L 142.428023 107.266047 
L 143.206532 109.693224 
L 143.829339 111.035167 
L 144.296444 111.508141 
L 144.76355 111.649633 
L 145.230655 111.556696 
L 145.853462 111.183539 
L 146.709822 110.379788 
L 147.332629 109.846193 
L 147.799735 109.778143 
L 148.344691 109.96424 
L 149.278902 110.396051 
L 149.746007 110.297924 
L 150.524516 110.053001 
L 151.069472 110.196932 
L 151.536578 110.28092 
L 153.171446 110.246361 
L 153.794254 110.155876 
L 154.33921 110.165124 
L 155.039868 110.214688 
L 155.896228 110.17375 
L 156.674737 110.192094 
L 157.453246 110.184927 
L 158.231755 110.181468 
L 159.088114 110.200398 
L 160.878685 110.198936 
L 163.136361 110.180656 
L 165.394037 110.185208 
L 168.663775 110.180969 
L 178.70654 110.184878 
L 179.874303 110.184899 
L 180.030005 92.374534 
L 180.652812 67.927196 
L 181.27562 52.20251 
L 181.898427 41.91787 
L 182.521234 35.039146 
L 183.221892 29.833313 
L 183.92255 26.264334 
L 184.623208 23.77395 
L 185.090313 22.836058 
L 185.557419 22.355796 
L 186.024524 22.20425 
L 186.491629 22.286049 
L 187.114437 22.652331 
L 187.970796 23.469648 
L 189.761367 25.304658 
L 190.228472 25.283898 
L 190.773429 25.028646 
L 191.707639 24.513771 
L 192.174745 24.586941 
L 193.264657 24.925903 
L 194.588123 24.743717 
L 195.21093 24.859562 
L 196.456544 24.785744 
L 197.0015 24.822473 
L 197.935711 24.761071 
L 198.636369 24.80176 
L 199.492729 24.769452 
L 200.193387 24.789786 
L 201.049747 24.780008 
L 201.828256 24.769046 
L 202.684616 24.7944 
L 204.630888 24.778885 
L 206.110055 24.775815 
L 207.978477 24.766373 
L 211.948872 24.772813 
L 216.931329 24.779018 
L 218.799751 24.77854 
L 218.877602 98.124841 
L 218.955453 96.772041 
L 219.57826 87.499919 
L 220.201067 81.416753 
L 220.823874 77.289806 
L 221.524532 74.071425 
L 222.22519 71.77133 
L 222.692296 70.843531 
L 223.159401 70.381486 
L 223.626506 70.248356 
L 224.093612 70.348007 
L 224.716419 70.728466 
L 225.572779 71.540629 
L 226.662691 72.591359 
L 227.129797 72.634231 
L 227.674753 72.426509 
L 228.608964 71.94563 
L 229.076069 72.028528 
L 230.01028 72.314983 
L 231.411596 72.181591 
L 231.956552 72.244347 
L 233.046465 72.173231 
L 233.669272 72.207423 
L 234.525632 72.165132 
L 235.304141 72.182096 
L 236.08265 72.177202 
L 236.939009 72.164568 
L 238.573878 72.160671 
L 257.725198 72.17732 
L 257.8809 105.384124 
L 258.503707 127.228456 
L 259.126515 141.273813 
L 259.749322 150.478964 
L 260.372129 156.653378 
L 261.072787 161.356193 
L 261.773445 164.608786 
L 262.396252 166.618852 
L 262.863357 167.450755 
L 263.330463 167.853401 
L 263.797568 167.950379 
L 264.264674 167.82806 
L 264.887481 167.42207 
L 265.743841 166.571979 
L 267.223008 164.991829 
L 267.690113 164.938859 
L 268.235069 165.133006 
L 269.402833 165.719847 
L 269.869938 165.59578 
L 270.726298 165.304919 
L 271.271254 165.467987 
L 271.738359 165.571587 
L 272.283316 165.441956 
L 272.750421 165.378058 
L 274.073886 165.432725 
L 274.618843 165.429544 
L 275.397352 165.487526 
L 276.175861 165.438833 
L 276.954369 165.475577 
L 277.732878 165.451623 
L 278.589238 165.453877 
L 279.367747 165.470899 
L 280.301958 165.440167 
L 296.650646 165.462246 
L 296.806348 93.194928 
L 297.429155 71.563247 
L 298.051962 57.684531 
L 298.674769 48.579906 
L 299.297576 42.466132 
L 299.998234 37.806716 
L 300.698892 34.581008 
L 301.3217 32.595605 
L 301.788805 31.780107 
L 302.25591 31.389257 
L 302.723016 31.302651 
L 303.267972 31.468628 
L 303.96863 31.974576 
L 304.902841 32.961759 
L 306.070604 34.22227 
L 306.53771 34.303626 
L 307.082666 34.130266 
L 308.406131 33.531624 
L 308.951087 33.737647 
L 309.496044 33.935039 
L 309.963149 33.853017 
L 310.663807 33.669533 
L 312.220825 33.724403 
L 312.765781 33.762944 
L 313.388588 33.820656 
L 314.322799 33.763907 
L 315.023457 33.797998 
L 315.879817 33.774054 
L 316.658326 33.77558 
L 317.436835 33.784048 
L 318.293195 33.761508 
L 320.239467 33.775497 
L 322.030038 33.789267 
L 335.576093 33.775961 
L 335.576093 33.775961 
" clip-path="url(#pcb1693cbb2)" style="fill: none; stroke: #1f77b4; stroke-width: 2; stroke-linecap: square"/>
   </g>
   <g id="line2d_36">
    <path d="M 63.097961 99.245511 
L 63.642917 92.627051 
L 64.343575 86.823714 
L 65.044233 82.848099 
L 65.822742 79.735118 
L 66.445549 77.980905 
L 66.912655 77.269769 
L 67.37976 76.949545 
L 67.846866 76.909278 
L 68.391822 77.113975 
L 69.09248 77.646298 
L 70.104541 78.736163 
L 70.649498 79.265873 
L 71.116603 79.39041 
L 71.583709 79.286292 
L 72.206516 78.906124 
L 72.673621 78.700364 
L 73.140726 78.745683 
L 74.230639 79.019783 
L 75.242701 78.855439 
L 76.02121 78.965477 
L 77.033271 78.90765 
L 77.733929 78.927206 
L 78.512438 78.904877 
L 79.368798 78.908571 
L 80.303009 78.928444 
L 84.195553 78.907176 
L 91.669239 78.912553 
L 102.023408 78.913396 
L 102.17911 100.784314 
L 102.879768 104.978899 
L 103.658277 108.331813 
L 104.514637 110.99579 
L 104.981742 111.939599 
L 105.448848 112.424359 
L 105.915953 112.577724 
L 106.383059 112.492097 
L 107.005866 112.113924 
L 107.862226 111.291512 
L 108.640735 110.562655 
L 109.10784 110.485809 
L 109.652796 110.664911 
L 110.664858 111.14727 
L 111.131963 111.046602 
L 111.910472 110.80195 
L 112.455428 110.942996 
L 112.922534 111.008926 
L 114.245999 110.952202 
L 114.790955 110.950907 
L 115.569464 110.912489 
L 116.425824 110.923798 
L 117.360035 110.944868 
L 123.89951 110.924709 
L 128.804116 110.924701 
L 136.589206 110.929145 
L 140.948856 110.928306 
L 141.104558 98.313135 
L 141.805216 95.069581 
L 142.583725 92.439503 
L 143.440085 90.271406 
L 143.90719 89.58751 
L 144.374295 89.286025 
L 144.841401 89.26054 
L 145.386357 89.47845 
L 146.087015 90.023023 
L 147.176928 90.952831 
L 147.644033 90.968413 
L 148.188989 90.742903 
L 148.889647 90.399134 
L 149.356753 90.454906 
L 150.290963 90.696215 
L 151.458727 90.570429 
L 152.081534 90.635656 
L 153.015745 90.578138 
L 153.716403 90.604145 
L 154.572763 90.591903 
L 155.429122 90.576943 
L 157.297544 90.582029 
L 159.477369 90.593863 
L 162.824957 90.585061 
L 179.874303 90.589406 
L 180.030005 100.861869 
L 180.652812 104.98756 
L 181.431321 108.700092 
L 182.20983 111.372104 
L 182.832637 112.886909 
L 183.299743 113.46519 
L 183.766848 113.68721 
L 184.233954 113.652182 
L 184.77891 113.376265 
L 185.557419 112.702706 
L 186.803033 111.576283 
L 187.270138 111.573976 
L 187.815095 111.813996 
L 188.593604 112.211266 
L 189.060709 112.150438 
L 190.072771 111.880714 
L 191.240534 112.024494 
L 191.863341 111.937695 
L 192.953254 111.997959 
L 193.653912 111.985133 
L 194.432421 111.999166 
L 195.366632 112.008249 
L 198.71422 111.994479 
L 201.049747 112.001092 
L 205.798651 111.999616 
L 212.805232 111.997969 
L 218.799751 111.996332 
L 218.955453 97.470983 
L 219.57826 91.316508 
L 220.278918 86.657189 
L 220.979576 83.448129 
L 221.758085 80.888216 
L 222.22519 79.924495 
L 222.692296 79.423784 
L 223.159401 79.259046 
L 223.626506 79.334935 
L 224.249314 79.695601 
L 225.105673 80.499705 
L 226.117735 81.493453 
L 226.58484 81.569498 
L 227.129797 81.390495 
L 228.219709 80.88549 
L 228.686815 81.003868 
L 229.387473 81.241787 
L 229.932429 81.117528 
L 230.477385 81.020947 
L 231.878701 81.075212 
L 232.501508 81.108278 
L 233.202166 81.115355 
L 234.058526 81.112742 
L 235.148439 81.093786 
L 240.130896 81.108383 
L 257.725198 81.107981 
L 257.803049 98.525936 
L 257.8809 98.005979 
L 258.581558 94.591606 
L 259.360067 91.758059 
L 260.216427 89.433811 
L 260.683532 88.701586 
L 261.150638 88.366107 
L 261.617743 88.317437 
L 262.162699 88.519786 
L 262.863357 89.057721 
L 264.264674 90.236196 
L 264.731779 90.199002 
L 265.276735 89.927157 
L 265.899542 89.618797 
L 266.366648 89.665367 
L 267.378709 89.930788 
L 268.546473 89.798783 
L 269.16928 89.877581 
L 270.259192 89.82398 
L 270.959851 89.827275 
L 271.738359 89.824625 
L 272.67257 89.805408 
L 279.056344 89.821736 
L 282.948888 89.818843 
L 294.937926 89.821771 
L 296.650646 89.822625 
L 296.806348 100.624677 
L 297.507006 104.494 
L 298.285515 107.63514 
L 299.141875 110.16856 
L 299.60898 111.038022 
L 300.076085 111.472223 
L 300.543191 111.592031 
L 301.010296 111.484186 
L 301.633103 111.090263 
L 302.489463 110.260643 
L 303.190121 109.63167 
L 303.657226 109.561873 
L 304.202183 109.745974 
L 305.214244 110.205682 
L 305.759201 110.057875 
L 306.382008 109.86496 
L 306.926964 109.992963 
L 307.47192 110.070055 
L 308.639684 109.994755 
L 309.262491 110.019837 
L 310.118851 109.982837 
L 310.89736 109.994578 
L 311.909421 110.006372 
L 335.576093 109.991515 
L 335.576093 109.991515 
" clip-path="url(#pcb1693cbb2)" style="fill: none; stroke: #ff7f0e; stroke-width: 2; stroke-linecap: square"/>
   </g>
   <g id="patch_3">
    <path d="M 49.474054 175.381683 
L 49.474054 11.90585 
" style="fill: none; stroke: #000000; stroke-width: 0.8; stroke-linejoin: miter; stroke-linecap: square"/>
   </g>
   <g id="patch_4">
    <path d="M 349.2 175.381683 
L 349.2 11.90585 
" style="fill: none; stroke: #000000; stroke-width: 0.8; stroke-linejoin: miter; stroke-linecap: square"/>
   </g>
   <g id="patch_5">
    <path d="M 49.474054 175.381683 
L 349.2 175.381683 
" style="fill: none; stroke: #000000; stroke-width: 0.8; stroke-linejoin: miter; stroke-linecap: square"/>
   </g>
   <g id="patch_6">
    <path d="M 49.474054 11.90585 
L 349.2 11.90585 
" style="fill: none; stroke: #000000; stroke-width: 0.8; stroke-linejoin: miter; stroke-linecap: square"/>
   </g>
   <g id="legend_1">
    <g id="patch_7">
     <path d="M 289.965637 84.878296 
L 342.2 84.878296 
Q 344.2 84.878296 344.2 82.878296 
L 344.2 18.90585 
Q 344.2 16.90585 342.2 16.90585 
L 289.965637 16.90585 
Q 287.965637 16.90585 287.965637 18.90585 
L 287.965637 82.878296 
Q 287.965637 84.878296 289.965637 84.878296 
z
" style="fill: #ffffff; opacity: 0.8; stroke: #cccccc; stroke-linejoin: miter"/>
    </g>
    <g id="line2d_37">
     <path d="M 291.965637 25.864152 
L 301.965637 25.864152 
L 311.965637 25.864152 
" style="fill: none; stroke-dasharray: 3.5,5.775; stroke-dashoffset: 0; stroke: #1f77b4; stroke-width: 3.5"/>
    </g>
    <g id="text_19">
     <!-- $\kappa_{\mathrm{be},1}^\mathrm{d}$ -->
     <g transform="translate(319.965637 29.364152) scale(0.1 -0.1)">
      <defs>
       <path id="CMMI12-3b" d="M 1248 -31 
C 1248 343 1126 619 864 619 
C 659 619 557 453 557 313 
C 557 172 653 0 870 0 
C 954 0 1024 26 1082 83 
C 1094 96 1101 96 1107 96 
C 1120 96 1120 5 1120 -27 
C 1120 -240 1082 -659 710 -1080 
C 640 -1157 640 -1170 640 -1183 
C 640 -1216 672 -1248 704 -1248 
C 755 -1248 1248 -771 1248 -31 
z
" transform="scale(0.015625)"/>
      </defs>
      <use xlink:href="#CMMI12-14" transform="scale(0.996264)"/>
      <use xlink:href="#CMR17-64" transform="translate(56.154624 36.153639) scale(0.697382)"/>
      <use xlink:href="#CMR17-62" transform="translate(56.154624 -28.215451) scale(0.697382)"/>
      <use xlink:href="#CMR17-65" transform="translate(93.602938 -28.215451) scale(0.697382)"/>
      <use xlink:href="#CMMI12-3b" transform="translate(121.94277 -28.215451) scale(0.697382)"/>
      <use xlink:href="#CMR17-31" transform="translate(140.910702 -28.215451) scale(0.697382)"/>
     </g>
    </g>
    <g id="line2d_38">
     <path d="M 291.965637 43.49998 
L 301.965637 43.49998 
L 311.965637 43.49998 
" style="fill: none; stroke-dasharray: 3.5,5.775; stroke-dashoffset: 0; stroke: #ff7f0e; stroke-width: 3.5"/>
    </g>
    <g id="text_20">
     <!-- $\kappa_{\mathrm{be},2}^\mathrm{d}$ -->
     <g transform="translate(319.965637 46.99998) scale(0.1 -0.1)">
      <use xlink:href="#CMMI12-14" transform="scale(0.996264)"/>
      <use xlink:href="#CMR17-64" transform="translate(56.154624 36.153639) scale(0.697382)"/>
      <use xlink:href="#CMR17-62" transform="translate(56.154624 -28.215451) scale(0.697382)"/>
      <use xlink:href="#CMR17-65" transform="translate(93.602938 -28.215451) scale(0.697382)"/>
      <use xlink:href="#CMMI12-3b" transform="translate(121.94277 -28.215451) scale(0.697382)"/>
      <use xlink:href="#CMR17-32" transform="translate(140.910702 -28.215451) scale(0.697382)"/>
     </g>
    </g>
    <g id="line2d_39">
     <path d="M 291.965637 59.677506 
L 301.965637 59.677506 
L 311.965637 59.677506 
" style="fill: none; stroke: #1f77b4; stroke-width: 2; stroke-linecap: square"/>
    </g>
    <g id="text_21">
     <!-- $\kappa_{\mathrm{be},1}$ -->
     <g transform="translate(319.965637 63.177506) scale(0.1 -0.1)">
      <use xlink:href="#CMMI12-14" transform="scale(0.996264)"/>
      <use xlink:href="#CMR17-62" transform="translate(56.154624 -14.943915) scale(0.697382)"/>
      <use xlink:href="#CMR17-65" transform="translate(93.602938 -14.943915) scale(0.697382)"/>
      <use xlink:href="#CMMI12-3b" transform="translate(121.94277 -14.943915) scale(0.697382)"/>
      <use xlink:href="#CMR17-31" transform="translate(140.910702 -14.943915) scale(0.697382)"/>
     </g>
    </g>
    <g id="line2d_40">
     <path d="M 291.965637 74.527901 
L 301.965637 74.527901 
L 311.965637 74.527901 
" style="fill: none; stroke: #ff7f0e; stroke-width: 2; stroke-linecap: square"/>
    </g>
    <g id="text_22">
     <!-- $\kappa_{\mathrm{be},2}$ -->
     <g transform="translate(319.965637 78.027901) scale(0.1 -0.1)">
      <use xlink:href="#CMMI12-14" transform="scale(0.996264)"/>
      <use xlink:href="#CMR17-62" transform="translate(56.154624 -14.943915) scale(0.697382)"/>
      <use xlink:href="#CMR17-65" transform="translate(93.602938 -14.943915) scale(0.697382)"/>
      <use xlink:href="#CMMI12-3b" transform="translate(121.94277 -14.943915) scale(0.697382)"/>
      <use xlink:href="#CMR17-32" transform="translate(140.910702 -14.943915) scale(0.697382)"/>
     </g>
    </g>
   </g>
  </g>
 </g>
 <defs>
  <clipPath id="pcb1693cbb2">
   <rect x="49.474054" y="11.90585" width="299.725946" height="163.475833"/>
  </clipPath>
 </defs>
</svg>
