<?xml version="1.0" encoding="utf-8" standalone="no"?>
<!DOCTYPE svg PUBLIC "-//W3C//DTD SVG 1.1//EN"
  "http://www.w3.org/Graphics/SVG/1.1/DTD/svg11.dtd">
<svg xmlns:xlink="http://www.w3.org/1999/xlink" width="360pt" height="194.4pt" viewBox="0 0 360 194.4" xmlns="http://www.w3.org/2000/svg" version="1.1">
 <metadata>
  <rdf:RDF xmlns:dc="http://purl.org/dc/elements/1.1/" xmlns:cc="http://creativecommons.org/ns#" xmlns:rdf="http://www.w3.org/1999/02/22-rdf-syntax-ns#">
   <cc:Work>
    <dc:type rdf:resource="http://purl.org/dc/dcmitype/StillImage"/>
    <dc:date>2024-10-29T16:35:12.735100</dc:date>
    <dc:format>image/svg+xml</dc:format>
    <dc:creator>
     <cc:Agent>
      <dc:title>Matplotlib v3.9.2, https://matplotlib.org/</dc:title>
     </cc:Agent>
    </dc:creator>
   </cc:Work>
  </rdf:RDF>
 </metadata>
 <defs>
  <style type="text/css">*{stroke-linejoin: round; stroke-linecap: butt}</style>
 </defs>
 <g id="figure_1">
  <g id="patch_1">
   <path d="M 0 194.4 
L 360 194.4 
L 360 0 
L 0 0 
z
" style="fill: #ffffff"/>
  </g>
  <g id="axes_1">
   <g id="patch_2">
    <path d="M 52.241463 153.781683 
L 349.2 153.781683 
L 349.2 10.8 
L 52.241463 10.8 
z
" style="fill: #ffffff"/>
   </g>
   <g id="matplotlib.axis_1">
    <g id="xtick_1">
     <g id="line2d_1">
      <path d="M 65.739578 153.781683 
L 65.739578 10.8 
" clip-path="url(#p519835fba0)" style="fill: none; stroke: #b0b0b0; stroke-width: 0.8; stroke-linecap: square"/>
     </g>
     <g id="line2d_2">
      <defs>
       <path id="m5253f5f599" d="M 0 0 
L 0 3.5 
" style="stroke: #000000; stroke-width: 0.8"/>
      </defs>
      <g>
       <use xlink:href="#m5253f5f599" x="65.739578" y="153.781683" style="stroke: #000000; stroke-width: 0.8"/>
      </g>
     </g>
     <g id="text_1">
      <!-- $\mathdefault{0}$ -->
      <g transform="translate(63.248911 167.700182) scale(0.1 -0.1)">
       <defs>
        <path id="CMR17-30" d="M 2688 2025 
C 2688 2416 2682 3080 2413 3591 
C 2176 4039 1798 4198 1466 4198 
C 1158 4198 768 4058 525 3597 
C 269 3118 243 2524 243 2025 
C 243 1661 250 1106 448 619 
C 723 -39 1216 -128 1466 -128 
C 1760 -128 2208 -7 2470 600 
C 2662 1042 2688 1559 2688 2025 
z
M 1466 -26 
C 1056 -26 813 325 723 812 
C 653 1188 653 1738 653 2096 
C 653 2588 653 2997 736 3387 
C 858 3929 1216 4096 1466 4096 
C 1728 4096 2067 3923 2189 3400 
C 2272 3036 2278 2607 2278 2096 
C 2278 1680 2278 1169 2202 792 
C 2067 95 1690 -26 1466 -26 
z
" transform="scale(0.015625)"/>
       </defs>
       <use xlink:href="#CMR17-30" transform="scale(0.996264)"/>
      </g>
     </g>
    </g>
    <g id="xtick_2">
     <g id="line2d_3">
      <path d="M 104.305622 153.781683 
L 104.305622 10.8 
" clip-path="url(#p519835fba0)" style="fill: none; stroke: #b0b0b0; stroke-width: 0.8; stroke-linecap: square"/>
     </g>
     <g id="line2d_4">
      <g>
       <use xlink:href="#m5253f5f599" x="104.305622" y="153.781683" style="stroke: #000000; stroke-width: 0.8"/>
      </g>
     </g>
     <g id="text_2">
      <!-- $\mathdefault{5}$ -->
      <g transform="translate(101.814954 167.700182) scale(0.1 -0.1)">
       <defs>
        <path id="CMR17-35" d="M 730 3692 
C 794 3666 1056 3584 1325 3584 
C 1920 3584 2246 3911 2432 4100 
C 2432 4157 2432 4192 2394 4192 
C 2387 4192 2374 4192 2323 4163 
C 2099 4058 1837 3973 1517 3973 
C 1325 3973 1037 3999 723 4139 
C 653 4171 640 4171 634 4171 
C 602 4171 595 4164 595 4037 
L 595 2203 
C 595 2089 595 2057 659 2057 
C 691 2057 704 2070 736 2114 
C 941 2401 1222 2522 1542 2522 
C 1766 2522 2246 2382 2246 1289 
C 2246 1085 2246 715 2054 421 
C 1894 159 1645 25 1370 25 
C 947 25 518 320 403 814 
C 429 807 480 795 506 795 
C 589 795 749 840 749 1038 
C 749 1210 627 1280 506 1280 
C 358 1280 262 1190 262 1011 
C 262 454 704 -128 1382 -128 
C 2042 -128 2669 440 2669 1264 
C 2669 2030 2170 2624 1549 2624 
C 1222 2624 947 2503 730 2274 
L 730 3692 
z
" transform="scale(0.015625)"/>
       </defs>
       <use xlink:href="#CMR17-35" transform="scale(0.996264)"/>
      </g>
     </g>
    </g>
    <g id="xtick_3">
     <g id="line2d_5">
      <path d="M 142.871666 153.781683 
L 142.871666 10.8 
" clip-path="url(#p519835fba0)" style="fill: none; stroke: #b0b0b0; stroke-width: 0.8; stroke-linecap: square"/>
     </g>
     <g id="line2d_6">
      <g>
       <use xlink:href="#m5253f5f599" x="142.871666" y="153.781683" style="stroke: #000000; stroke-width: 0.8"/>
      </g>
     </g>
     <g id="text_3">
      <!-- $\mathdefault{10}$ -->
      <g transform="translate(137.89033 167.700182) scale(0.1 -0.1)">
       <defs>
        <path id="CMR17-31" d="M 1702 4058 
C 1702 4192 1696 4192 1606 4192 
C 1357 3916 979 3827 621 3827 
C 602 3827 570 3827 563 3808 
C 557 3795 557 3782 557 3648 
C 755 3648 1088 3686 1344 3839 
L 1344 461 
C 1344 236 1331 160 781 160 
L 589 160 
L 589 0 
C 896 0 1216 0 1523 0 
C 1830 0 2150 0 2458 0 
L 2458 160 
L 2266 160 
C 1715 160 1702 230 1702 458 
L 1702 4058 
z
" transform="scale(0.015625)"/>
       </defs>
       <use xlink:href="#CMR17-31" transform="scale(0.996264)"/>
       <use xlink:href="#CMR17-30" transform="translate(45.690477 0) scale(0.996264)"/>
      </g>
     </g>
    </g>
    <g id="xtick_4">
     <g id="line2d_7">
      <path d="M 181.43771 153.781683 
L 181.43771 10.8 
" clip-path="url(#p519835fba0)" style="fill: none; stroke: #b0b0b0; stroke-width: 0.8; stroke-linecap: square"/>
     </g>
     <g id="line2d_8">
      <g>
       <use xlink:href="#m5253f5f599" x="181.43771" y="153.781683" style="stroke: #000000; stroke-width: 0.8"/>
      </g>
     </g>
     <g id="text_4">
      <!-- $\mathdefault{15}$ -->
      <g transform="translate(176.456374 167.700182) scale(0.1 -0.1)">
       <use xlink:href="#CMR17-31" transform="scale(0.996264)"/>
       <use xlink:href="#CMR17-35" transform="translate(45.690477 0) scale(0.996264)"/>
      </g>
     </g>
    </g>
    <g id="xtick_5">
     <g id="line2d_9">
      <path d="M 220.003753 153.781683 
L 220.003753 10.8 
" clip-path="url(#p519835fba0)" style="fill: none; stroke: #b0b0b0; stroke-width: 0.8; stroke-linecap: square"/>
     </g>
     <g id="line2d_10">
      <g>
       <use xlink:href="#m5253f5f599" x="220.003753" y="153.781683" style="stroke: #000000; stroke-width: 0.8"/>
      </g>
     </g>
     <g id="text_5">
      <!-- $\mathdefault{20}$ -->
      <g transform="translate(215.022418 167.700182) scale(0.1 -0.1)">
       <defs>
        <path id="CMR17-32" d="M 2669 989 
L 2554 989 
C 2490 536 2438 459 2413 420 
C 2381 369 1920 369 1830 369 
L 602 369 
C 832 619 1280 1072 1824 1597 
C 2214 1967 2669 2402 2669 3035 
C 2669 3790 2067 4224 1395 4224 
C 691 4224 262 3604 262 3030 
C 262 2780 448 2748 525 2748 
C 589 2748 781 2787 781 3010 
C 781 3207 614 3264 525 3264 
C 486 3264 448 3258 422 3245 
C 544 3790 915 4058 1306 4058 
C 1862 4058 2227 3617 2227 3035 
C 2227 2479 1901 2000 1536 1584 
L 262 146 
L 262 0 
L 2515 0 
L 2669 989 
z
" transform="scale(0.015625)"/>
       </defs>
       <use xlink:href="#CMR17-32" transform="scale(0.996264)"/>
       <use xlink:href="#CMR17-30" transform="translate(45.690477 0) scale(0.996264)"/>
      </g>
     </g>
    </g>
    <g id="xtick_6">
     <g id="line2d_11">
      <path d="M 258.569797 153.781683 
L 258.569797 10.8 
" clip-path="url(#p519835fba0)" style="fill: none; stroke: #b0b0b0; stroke-width: 0.8; stroke-linecap: square"/>
     </g>
     <g id="line2d_12">
      <g>
       <use xlink:href="#m5253f5f599" x="258.569797" y="153.781683" style="stroke: #000000; stroke-width: 0.8"/>
      </g>
     </g>
     <g id="text_6">
      <!-- $\mathdefault{25}$ -->
      <g transform="translate(253.588462 167.700182) scale(0.1 -0.1)">
       <use xlink:href="#CMR17-32" transform="scale(0.996264)"/>
       <use xlink:href="#CMR17-35" transform="translate(45.690477 0) scale(0.996264)"/>
      </g>
     </g>
    </g>
    <g id="xtick_7">
     <g id="line2d_13">
      <path d="M 297.135841 153.781683 
L 297.135841 10.8 
" clip-path="url(#p519835fba0)" style="fill: none; stroke: #b0b0b0; stroke-width: 0.8; stroke-linecap: square"/>
     </g>
     <g id="line2d_14">
      <g>
       <use xlink:href="#m5253f5f599" x="297.135841" y="153.781683" style="stroke: #000000; stroke-width: 0.8"/>
      </g>
     </g>
     <g id="text_7">
      <!-- $\mathdefault{30}$ -->
      <g transform="translate(292.154506 167.700182) scale(0.1 -0.1)">
       <defs>
        <path id="CMR17-33" d="M 1414 2157 
C 1984 2157 2234 1662 2234 1090 
C 2234 320 1824 25 1453 25 
C 1114 25 563 194 390 693 
C 422 680 454 680 486 680 
C 640 680 755 782 755 948 
C 755 1133 614 1216 486 1216 
C 378 1216 211 1165 211 926 
C 211 335 787 -128 1466 -128 
C 2176 -128 2720 430 2720 1085 
C 2720 1707 2208 2157 1600 2227 
C 2086 2328 2554 2756 2554 3329 
C 2554 3820 2048 4179 1472 4179 
C 890 4179 378 3829 378 3329 
C 378 3110 544 3072 627 3072 
C 762 3072 877 3155 877 3321 
C 877 3486 762 3569 627 3569 
C 602 3569 570 3569 544 3557 
C 730 3959 1235 4032 1459 4032 
C 1683 4032 2106 3925 2106 3320 
C 2106 3143 2080 2828 1862 2550 
C 1670 2304 1453 2304 1242 2284 
C 1210 2284 1062 2269 1037 2269 
C 992 2263 966 2257 966 2208 
C 966 2163 973 2157 1101 2157 
L 1414 2157 
z
" transform="scale(0.015625)"/>
       </defs>
       <use xlink:href="#CMR17-33" transform="scale(0.996264)"/>
       <use xlink:href="#CMR17-30" transform="translate(45.690477 0) scale(0.996264)"/>
      </g>
     </g>
    </g>
    <g id="xtick_8">
     <g id="line2d_15">
      <path d="M 335.701885 153.781683 
L 335.701885 10.8 
" clip-path="url(#p519835fba0)" style="fill: none; stroke: #b0b0b0; stroke-width: 0.8; stroke-linecap: square"/>
     </g>
     <g id="line2d_16">
      <g>
       <use xlink:href="#m5253f5f599" x="335.701885" y="153.781683" style="stroke: #000000; stroke-width: 0.8"/>
      </g>
     </g>
     <g id="text_8">
      <!-- $\mathdefault{35}$ -->
      <g transform="translate(330.720549 167.700182) scale(0.1 -0.1)">
       <use xlink:href="#CMR17-33" transform="scale(0.996264)"/>
       <use xlink:href="#CMR17-35" transform="translate(45.690477 0) scale(0.996264)"/>
      </g>
     </g>
    </g>
    <g id="text_9">
     <!-- Time $t$ [s] -->
     <g transform="translate(179.522424 181.10934) scale(0.1 -0.1)">
      <defs>
       <path id="CMR17-54" d="M 3981 4326 
L 288 4326 
L 179 2918 
L 294 2918 
C 378 3976 467 4160 1453 4160 
C 1568 4160 1754 4160 1805 4154 
C 1926 4135 1926 4058 1926 3912 
L 1926 459 
C 1926 230 1907 160 1376 160 
L 1197 160 
L 1197 0 
C 1504 0 1824 0 2138 0 
C 2451 0 2771 0 3078 0 
L 3078 160 
L 2899 160 
C 2368 160 2349 230 2349 459 
L 2349 3912 
C 2349 4052 2349 4129 2464 4154 
C 2515 4160 2701 4160 2816 4160 
C 3795 4160 3891 3976 3974 2918 
L 4090 2918 
L 3981 4326 
z
" transform="scale(0.015625)"/>
       <path id="CMR17-69" d="M 992 3909 
C 992 4049 877 4170 730 4170 
C 589 4170 467 4056 467 3909 
C 467 3769 582 3648 730 3648 
C 870 3648 992 3763 992 3909 
z
M 243 2706 
L 243 2541 
C 602 2541 653 2502 653 2197 
L 653 427 
C 653 184 627 153 218 153 
L 218 -13 
C 371 0 646 0 806 0 
C 960 0 1222 0 1370 -13 
L 1370 153 
C 992 153 979 191 979 420 
L 979 2776 
L 243 2706 
z
" transform="scale(0.015625)"/>
       <path id="CMR17-6d" d="M 4326 1933 
C 4326 2252 4269 2790 3507 2790 
C 3072 2790 2771 2496 2656 2151 
L 2650 2151 
C 2573 2676 2195 2790 1837 2790 
C 1331 2790 1069 2400 973 2144 
L 966 2144 
L 966 2790 
L 211 2720 
L 211 2554 
C 589 2554 646 2515 646 2208 
L 646 428 
C 646 184 621 153 211 153 
L 211 -13 
C 365 0 646 0 813 0 
C 979 0 1267 0 1421 -13 
L 1421 153 
C 1011 153 986 178 986 428 
L 986 1658 
C 986 2247 1344 2688 1792 2688 
C 2266 2688 2317 2266 2317 1958 
L 2317 428 
C 2317 184 2291 153 1882 153 
L 1882 -13 
C 2035 0 2317 0 2483 0 
C 2650 0 2938 0 3091 -13 
L 3091 153 
C 2682 153 2656 178 2656 428 
L 2656 1658 
C 2656 2247 3014 2688 3462 2688 
C 3936 2688 3987 2266 3987 1958 
L 3987 428 
C 3987 184 3962 153 3552 153 
L 3552 -13 
C 3706 0 3987 0 4154 0 
C 4320 0 4608 0 4762 -13 
L 4762 153 
C 4352 153 4326 178 4326 428 
L 4326 1933 
z
" transform="scale(0.015625)"/>
       <path id="CMR17-65" d="M 2438 1472 
C 2464 1498 2464 1511 2464 1576 
C 2464 2238 2118 2816 1389 2816 
C 710 2816 173 2169 173 1383 
C 173 551 781 -64 1459 -64 
C 2176 -64 2458 607 2458 740 
C 2458 784 2419 784 2406 784 
C 2362 784 2355 771 2330 696 
C 2189 265 1837 51 1504 51 
C 1229 51 954 203 781 480 
C 582 803 582 1176 582 1472 
L 2438 1472 
z
M 589 1568 
C 634 2505 1126 2714 1382 2714 
C 1818 2714 2112 2297 2118 1568 
L 589 1568 
z
" transform="scale(0.015625)"/>
       <path id="CMMI12-74" d="M 1286 2566 
L 1875 2566 
C 1997 2566 2061 2566 2061 2681 
C 2061 2752 2022 2752 1894 2752 
L 1331 2752 
L 1568 3692 
C 1594 3781 1594 3794 1594 3840 
C 1594 3943 1510 4000 1427 4000 
C 1376 4000 1229 3981 1178 3775 
L 928 2752 
L 326 2752 
C 198 2752 141 2752 141 2630 
C 141 2566 186 2566 307 2566 
L 877 2566 
L 454 881 
C 403 658 384 594 384 511 
C 384 211 595 -64 954 -64 
C 1600 -64 1946 868 1946 912 
C 1946 951 1920 970 1882 970 
C 1869 970 1843 970 1830 944 
C 1824 938 1818 931 1773 829 
C 1638 511 1344 64 973 64 
C 781 64 768 224 768 364 
C 768 370 768 492 787 568 
L 1286 2566 
z
" transform="scale(0.015625)"/>
       <path id="CMR17-5b" d="M 1504 -1600 
L 1504 -1377 
L 902 -1377 
L 902 4544 
L 1504 4544 
L 1504 4767 
L 678 4767 
L 678 -1600 
L 1504 -1600 
z
" transform="scale(0.015625)"/>
       <path id="CMR17-73" d="M 1978 2697 
C 1978 2813 1971 2819 1933 2819 
C 1907 2819 1901 2813 1824 2717 
C 1805 2691 1747 2626 1728 2601 
C 1523 2819 1235 2819 1126 2819 
C 416 2819 160 2447 160 2076 
C 160 1498 813 1365 998 1325 
C 1402 1243 1542 1217 1677 1101 
C 1760 1025 1901 884 1901 654 
C 1901 384 1747 38 1158 38 
C 602 38 403 460 288 1021 
C 269 1110 269 1117 218 1117 
C 166 1117 160 1110 160 983 
L 160 63 
C 160 -51 166 -58 205 -58 
C 237 -58 243 -51 275 0 
C 314 57 410 211 448 276 
C 576 103 800 -64 1158 -64 
C 1792 -64 2131 283 2131 784 
C 2131 1112 1958 1285 1875 1362 
C 1683 1561 1459 1606 1190 1657 
C 838 1735 390 1825 390 2217 
C 390 2383 480 2737 1126 2737 
C 1811 2737 1850 2094 1862 1888 
C 1869 1856 1901 1849 1920 1849 
C 1978 1849 1978 1869 1978 1978 
L 1978 2697 
z
" transform="scale(0.015625)"/>
       <path id="CMR17-5d" d="M 915 4767 
L 90 4767 
L 90 4544 
L 691 4544 
L 691 -1377 
L 90 -1377 
L 90 -1600 
L 915 -1600 
L 915 4767 
z
" transform="scale(0.015625)"/>
      </defs>
      <use xlink:href="#CMR17-54" transform="scale(0.996264)"/>
      <use xlink:href="#CMR17-69" transform="translate(66.509881 0) scale(0.996264)"/>
      <use xlink:href="#CMR17-6d" transform="translate(91.380939 0) scale(0.996264)"/>
      <use xlink:href="#CMR17-65" transform="translate(168.300529 0) scale(0.996264)"/>
      <use xlink:href="#CMMI12-74" transform="translate(238.862156 0) scale(0.996264)"/>
      <use xlink:href="#CMR17-5b" transform="translate(304.164452 0) scale(0.996264)"/>
      <use xlink:href="#CMR17-73" transform="translate(329.035511 0) scale(0.996264)"/>
      <use xlink:href="#CMR17-5d" transform="translate(364.836848 0) scale(0.996264)"/>
     </g>
    </g>
   </g>
   <g id="matplotlib.axis_2">
    <g id="ytick_1">
     <g id="line2d_17">
      <path d="M 52.241463 145.819049 
L 349.2 145.819049 
" clip-path="url(#p519835fba0)" style="fill: none; stroke: #b0b0b0; stroke-width: 0.8; stroke-linecap: square"/>
     </g>
     <g id="line2d_18">
      <defs>
       <path id="md69f44b7a4" d="M 0 0 
L -3.5 0 
" style="stroke: #000000; stroke-width: 0.8"/>
      </defs>
      <g>
       <use xlink:href="#md69f44b7a4" x="52.241463" y="145.819049" style="stroke: #000000; stroke-width: 0.8"/>
      </g>
     </g>
     <g id="text_10">
      <!-- $\mathdefault{−0.2}$ -->
      <g transform="translate(24.76264 149.278298) scale(0.1 -0.1)">
       <defs>
        <path id="CMSY10-0" d="M 4218 1472 
C 4326 1472 4442 1472 4442 1600 
C 4442 1728 4326 1728 4218 1728 
L 755 1728 
C 646 1728 531 1728 531 1600 
C 531 1472 646 1472 755 1472 
L 4218 1472 
z
" transform="scale(0.015625)"/>
        <path id="CMMI12-3a" d="M 1178 307 
C 1178 492 1024 619 870 619 
C 685 619 557 466 557 313 
C 557 128 710 0 864 0 
C 1050 0 1178 153 1178 307 
z
" transform="scale(0.015625)"/>
       </defs>
       <use xlink:href="#CMSY10-0" transform="scale(0.996264)"/>
       <use xlink:href="#CMR17-30" transform="translate(77.487468 0) scale(0.996264)"/>
       <use xlink:href="#CMMI12-3a" transform="translate(123.177945 0) scale(0.996264)"/>
       <use xlink:href="#CMR17-32" transform="translate(150.275122 0) scale(0.996264)"/>
      </g>
     </g>
    </g>
    <g id="ytick_2">
     <g id="line2d_19">
      <path d="M 52.241463 108.505997 
L 349.2 108.505997 
" clip-path="url(#p519835fba0)" style="fill: none; stroke: #b0b0b0; stroke-width: 0.8; stroke-linecap: square"/>
     </g>
     <g id="line2d_20">
      <g>
       <use xlink:href="#md69f44b7a4" x="52.241463" y="108.505997" style="stroke: #000000; stroke-width: 0.8"/>
      </g>
     </g>
     <g id="text_11">
      <!-- $\mathdefault{−0.1}$ -->
      <g transform="translate(24.76264 111.965246) scale(0.1 -0.1)">
       <use xlink:href="#CMSY10-0" transform="scale(0.996264)"/>
       <use xlink:href="#CMR17-30" transform="translate(77.487468 0) scale(0.996264)"/>
       <use xlink:href="#CMMI12-3a" transform="translate(123.177945 0) scale(0.996264)"/>
       <use xlink:href="#CMR17-31" transform="translate(150.275122 0) scale(0.996264)"/>
      </g>
     </g>
    </g>
    <g id="ytick_3">
     <g id="line2d_21">
      <path d="M 52.241463 71.192945 
L 349.2 71.192945 
" clip-path="url(#p519835fba0)" style="fill: none; stroke: #b0b0b0; stroke-width: 0.8; stroke-linecap: square"/>
     </g>
     <g id="line2d_22">
      <g>
       <use xlink:href="#md69f44b7a4" x="52.241463" y="71.192945" style="stroke: #000000; stroke-width: 0.8"/>
      </g>
     </g>
     <g id="text_12">
      <!-- $\mathdefault{0.0}$ -->
      <g transform="translate(32.511384 74.652194) scale(0.1 -0.1)">
       <use xlink:href="#CMR17-30" transform="scale(0.996264)"/>
       <use xlink:href="#CMMI12-3a" transform="translate(45.690477 0) scale(0.996264)"/>
       <use xlink:href="#CMR17-30" transform="translate(72.787654 0) scale(0.996264)"/>
      </g>
     </g>
    </g>
    <g id="ytick_4">
     <g id="line2d_23">
      <path d="M 52.241463 33.879893 
L 349.2 33.879893 
" clip-path="url(#p519835fba0)" style="fill: none; stroke: #b0b0b0; stroke-width: 0.8; stroke-linecap: square"/>
     </g>
     <g id="line2d_24">
      <g>
       <use xlink:href="#md69f44b7a4" x="52.241463" y="33.879893" style="stroke: #000000; stroke-width: 0.8"/>
      </g>
     </g>
     <g id="text_13">
      <!-- $\mathdefault{0.1}$ -->
      <g transform="translate(32.511384 37.339142) scale(0.1 -0.1)">
       <use xlink:href="#CMR17-30" transform="scale(0.996264)"/>
       <use xlink:href="#CMMI12-3a" transform="translate(45.690477 0) scale(0.996264)"/>
       <use xlink:href="#CMR17-31" transform="translate(72.787654 0) scale(0.996264)"/>
      </g>
     </g>
    </g>
    <g id="text_14">
     <!-- Shear force [N] -->
     <g transform="translate(18.27198 114.69715) rotate(-90) scale(0.1 -0.1)">
      <defs>
       <path id="CMR17-53" d="M 2803 4290 
C 2803 4404 2797 4411 2758 4411 
C 2720 4411 2707 4385 2682 4328 
L 2490 3907 
C 2246 4257 1875 4416 1472 4416 
C 819 4416 294 3901 294 3253 
C 294 3056 339 2776 557 2510 
C 794 2218 1018 2167 1530 2033 
C 1722 1982 2042 1899 2106 1874 
C 2470 1722 2662 1341 2662 985 
C 2662 527 2336 38 1779 38 
C 1094 38 454 419 410 1311 
C 403 1413 397 1419 352 1419 
C 301 1419 294 1413 294 1285 
L 294 -1 
C 294 -115 301 -122 339 -122 
C 384 -122 397 -90 486 108 
C 493 127 493 140 614 381 
C 934 -39 1472 -128 1779 -128 
C 2477 -128 2970 451 2970 1124 
C 2970 1454 2848 1708 2778 1823 
C 2509 2230 2221 2306 1914 2382 
C 1869 2402 1856 2402 1498 2490 
C 1152 2579 1005 2624 845 2796 
C 666 2992 602 3196 602 3399 
C 602 3812 934 4263 1478 4263 
C 2157 4263 2579 3786 2675 2993 
C 2694 2878 2701 2872 2746 2872 
C 2803 2872 2803 2891 2803 2999 
L 2803 4290 
z
" transform="scale(0.015625)"/>
       <path id="CMR17-68" d="M 2656 1933 
C 2656 2259 2592 2790 1837 2790 
C 1312 2790 1056 2368 979 2157 
L 973 2157 
L 973 4396 
L 211 4326 
L 211 4160 
C 589 4160 646 4122 646 3817 
L 646 426 
C 646 184 621 153 211 153 
L 211 -13 
C 365 0 646 0 813 0 
C 979 0 1267 0 1421 -13 
L 1421 153 
C 1011 153 986 178 986 428 
L 986 1658 
C 986 2247 1344 2688 1792 2688 
C 2266 2688 2317 2266 2317 1958 
L 2317 428 
C 2317 184 2291 153 1882 153 
L 1882 -13 
C 2035 0 2317 0 2483 0 
C 2650 0 2938 0 3091 -13 
L 3091 153 
C 2682 153 2656 178 2656 428 
L 2656 1933 
z
" transform="scale(0.015625)"/>
       <path id="CMR17-61" d="M 2304 1653 
C 2304 2072 2304 2294 2035 2543 
C 1798 2752 1523 2816 1306 2816 
C 800 2816 435 2407 435 1971 
C 435 1728 627 1728 666 1728 
C 749 1728 896 1778 896 1954 
C 896 2112 774 2181 666 2181 
C 640 2181 608 2174 589 2168 
C 723 2592 1069 2714 1293 2714 
C 1613 2714 1965 2429 1965 1885 
L 1965 1600 
C 1587 1600 1133 1549 774 1357 
C 371 1133 256 813 256 570 
C 256 77 832 -64 1171 -64 
C 1523 -64 1850 139 1990 511 
C 2003 233 2182 -18 2464 -18 
C 2598 -18 2938 70 2938 567 
L 2938 920 
L 2822 920 
L 2822 562 
C 2822 178 2650 128 2566 128 
C 2304 128 2304 458 2304 738 
L 2304 1653 
z
M 1965 870 
C 1965 317 1568 38 1216 38 
C 896 38 646 275 646 570 
C 646 761 730 1100 1101 1305 
C 1408 1478 1760 1504 1965 1504 
L 1965 870 
z
" transform="scale(0.015625)"/>
       <path id="CMR17-72" d="M 960 1497 
C 960 2112 1222 2688 1702 2688 
C 1747 2688 1792 2682 1837 2662 
C 1837 2662 1696 2617 1696 2452 
C 1696 2298 1818 2234 1914 2234 
C 1990 2234 2131 2279 2131 2458 
C 2131 2663 1926 2790 1709 2790 
C 1222 2790 1011 2317 947 2093 
L 941 2093 
L 941 2790 
L 198 2720 
L 198 2554 
C 576 2554 634 2515 634 2208 
L 634 428 
C 634 184 608 153 198 153 
L 198 -13 
C 352 0 646 0 813 0 
C 998 0 1325 0 1498 -13 
L 1498 153 
C 1037 153 960 153 960 440 
L 960 1497 
z
" transform="scale(0.015625)"/>
       <path id="CMR17-66" d="M 979 2560 
L 1709 2560 
L 1709 2725 
L 966 2725 
L 966 3494 
C 966 4022 1235 4352 1510 4352 
C 1594 4352 1690 4327 1754 4282 
C 1702 4269 1568 4225 1568 4067 
C 1568 3901 1696 3850 1786 3850 
C 1875 3850 2003 3901 2003 4067 
C 2003 4308 1773 4454 1517 4454 
C 1152 4454 653 4156 653 3481 
L 653 2725 
L 141 2725 
L 141 2560 
L 653 2560 
L 653 427 
C 653 184 627 153 218 153 
L 218 -13 
C 371 0 666 0 832 0 
C 1018 0 1344 0 1517 -13 
L 1517 153 
C 1056 153 979 153 979 439 
L 979 2560 
z
" transform="scale(0.015625)"/>
       <path id="CMR17-6f" d="M 2758 1356 
C 2758 2176 2163 2816 1466 2816 
C 768 2816 173 2176 173 1356 
C 173 551 768 -64 1466 -64 
C 2163 -64 2758 551 2758 1356 
z
M 1466 51 
C 1165 51 909 230 762 480 
C 602 767 582 1126 582 1408 
C 582 1677 595 2010 762 2298 
C 890 2509 1139 2714 1466 2714 
C 1754 2714 1997 2554 2150 2330 
C 2349 2029 2349 1607 2349 1408 
C 2349 1158 2336 775 2163 467 
C 1984 173 1709 51 1466 51 
z
" transform="scale(0.015625)"/>
       <path id="CMR17-63" d="M 2234 2240 
C 2112 2240 1933 2240 1933 2017 
C 1933 1838 2080 1787 2163 1787 
C 2208 1787 2394 1807 2394 2024 
C 2394 2467 1958 2803 1466 2803 
C 787 2803 211 2178 211 1363 
C 211 516 813 -64 1466 -64 
C 2259 -64 2458 677 2458 748 
C 2458 774 2451 793 2406 793 
C 2362 793 2355 787 2330 703 
C 2163 180 1798 51 1523 51 
C 1114 51 621 427 621 1369 
C 621 2338 1094 2688 1472 2688 
C 1722 2688 2093 2573 2234 2240 
z
" transform="scale(0.015625)"/>
       <path id="CMR17-4e" d="M 1312 4250 
C 1267 4320 1261 4320 1139 4320 
L 326 4320 
L 326 4160 
L 448 4160 
C 704 4160 819 4129 838 4122 
L 838 610 
C 838 451 838 153 326 153 
L 326 -13 
C 474 0 742 0 902 0 
C 1062 0 1331 0 1478 -13 
L 1478 153 
C 966 153 966 451 966 610 
L 966 4033 
C 1011 3995 1011 3982 1056 3919 
L 3430 76 
C 3475 0 3494 0 3526 0 
C 3590 0 3590 19 3590 139 
L 3590 3705 
C 3590 3863 3590 4160 4102 4160 
L 4102 4326 
C 3955 4320 3686 4320 3526 4320 
C 3366 4320 3098 4320 2950 4326 
L 2950 4160 
C 3462 4160 3462 3862 3462 3703 
L 3462 763 
L 1312 4250 
z
" transform="scale(0.015625)"/>
      </defs>
      <use xlink:href="#CMR17-53" transform="scale(0.996264)"/>
      <use xlink:href="#CMR17-68" transform="translate(50.89537 0) scale(0.996264)"/>
      <use xlink:href="#CMR17-65" transform="translate(101.79074 0) scale(0.996264)"/>
      <use xlink:href="#CMR17-61" transform="translate(142.2764 0) scale(0.996264)"/>
      <use xlink:href="#CMR17-72" transform="translate(187.966877 0) scale(0.996264)"/>
      <use xlink:href="#CMR17-66" transform="translate(253.323611 0) scale(0.996264)"/>
      <use xlink:href="#CMR17-6f" transform="translate(280.797124 0) scale(0.996264)"/>
      <use xlink:href="#CMR17-72" transform="translate(326.487601 0) scale(0.996264)"/>
      <use xlink:href="#CMR17-63" transform="translate(361.768369 0) scale(0.996264)"/>
      <use xlink:href="#CMR17-65" transform="translate(402.254029 0) scale(0.996264)"/>
      <use xlink:href="#CMR17-5b" transform="translate(472.815656 0) scale(0.996264)"/>
      <use xlink:href="#CMR17-4e" transform="translate(497.686714 0) scale(0.996264)"/>
      <use xlink:href="#CMR17-5d" transform="translate(566.759144 0) scale(0.996264)"/>
     </g>
    </g>
   </g>
   <g id="line2d_25">
    <path d="M 65.739578 54.424855 
L 104.305622 54.424855 
L 104.459886 120.948357 
L 142.871666 120.948357 
L 143.02593 81.381957 
L 181.43771 81.381957 
L 181.591974 105.113586 
L 220.003753 105.113586 
L 220.158017 64.27713 
L 258.569797 64.27713 
L 258.724061 48.28729 
L 297.135841 48.28729 
L 297.290105 90.692303 
L 335.701885 90.692303 
L 335.701885 90.692303 
" clip-path="url(#p519835fba0)" style="fill: none; stroke: #1f77b4; stroke-width: 1.5; stroke-linecap: square"/>
    <defs>
     <path id="mc05bbd48de" d="M 0 2.5 
C 0.663008 2.5 1.29895 2.236584 1.767767 1.767767 
C 2.236584 1.29895 2.5 0.663008 2.5 0 
C 2.5 -0.663008 2.236584 -1.29895 1.767767 -1.767767 
C 1.29895 -2.236584 0.663008 -2.5 0 -2.5 
C -0.663008 -2.5 -1.29895 -2.236584 -1.767767 -1.767767 
C -2.236584 -1.29895 -2.5 -0.663008 -2.5 0 
C -2.5 0.663008 -2.236584 1.29895 -1.767767 1.767767 
C -1.29895 2.236584 -0.663008 2.5 0 2.5 
z
" style="stroke: #1f77b4"/>
    </defs>
    <g clip-path="url(#p519835fba0)">
     <use xlink:href="#mc05bbd48de" x="65.739578" y="54.424855" style="fill: #1f77b4; stroke: #1f77b4"/>
     <use xlink:href="#mc05bbd48de" x="73.452787" y="54.424855" style="fill: #1f77b4; stroke: #1f77b4"/>
     <use xlink:href="#mc05bbd48de" x="81.165996" y="54.424855" style="fill: #1f77b4; stroke: #1f77b4"/>
     <use xlink:href="#mc05bbd48de" x="88.879204" y="54.424855" style="fill: #1f77b4; stroke: #1f77b4"/>
     <use xlink:href="#mc05bbd48de" x="96.592413" y="54.424855" style="fill: #1f77b4; stroke: #1f77b4"/>
     <use xlink:href="#mc05bbd48de" x="104.305622" y="54.424855" style="fill: #1f77b4; stroke: #1f77b4"/>
     <use xlink:href="#mc05bbd48de" x="112.018831" y="120.948357" style="fill: #1f77b4; stroke: #1f77b4"/>
     <use xlink:href="#mc05bbd48de" x="119.732039" y="120.948357" style="fill: #1f77b4; stroke: #1f77b4"/>
     <use xlink:href="#mc05bbd48de" x="127.445248" y="120.948357" style="fill: #1f77b4; stroke: #1f77b4"/>
     <use xlink:href="#mc05bbd48de" x="135.158457" y="120.948357" style="fill: #1f77b4; stroke: #1f77b4"/>
     <use xlink:href="#mc05bbd48de" x="142.871666" y="120.948357" style="fill: #1f77b4; stroke: #1f77b4"/>
     <use xlink:href="#mc05bbd48de" x="150.584874" y="81.381957" style="fill: #1f77b4; stroke: #1f77b4"/>
     <use xlink:href="#mc05bbd48de" x="158.298083" y="81.381957" style="fill: #1f77b4; stroke: #1f77b4"/>
     <use xlink:href="#mc05bbd48de" x="166.011292" y="81.381957" style="fill: #1f77b4; stroke: #1f77b4"/>
     <use xlink:href="#mc05bbd48de" x="173.724501" y="81.381957" style="fill: #1f77b4; stroke: #1f77b4"/>
     <use xlink:href="#mc05bbd48de" x="181.43771" y="81.381957" style="fill: #1f77b4; stroke: #1f77b4"/>
     <use xlink:href="#mc05bbd48de" x="189.150918" y="105.113586" style="fill: #1f77b4; stroke: #1f77b4"/>
     <use xlink:href="#mc05bbd48de" x="196.864127" y="105.113586" style="fill: #1f77b4; stroke: #1f77b4"/>
     <use xlink:href="#mc05bbd48de" x="204.577336" y="105.113586" style="fill: #1f77b4; stroke: #1f77b4"/>
     <use xlink:href="#mc05bbd48de" x="212.290545" y="105.113586" style="fill: #1f77b4; stroke: #1f77b4"/>
     <use xlink:href="#mc05bbd48de" x="220.003753" y="105.113586" style="fill: #1f77b4; stroke: #1f77b4"/>
     <use xlink:href="#mc05bbd48de" x="227.716962" y="64.27713" style="fill: #1f77b4; stroke: #1f77b4"/>
     <use xlink:href="#mc05bbd48de" x="235.430171" y="64.27713" style="fill: #1f77b4; stroke: #1f77b4"/>
     <use xlink:href="#mc05bbd48de" x="243.14338" y="64.27713" style="fill: #1f77b4; stroke: #1f77b4"/>
     <use xlink:href="#mc05bbd48de" x="250.856588" y="64.27713" style="fill: #1f77b4; stroke: #1f77b4"/>
     <use xlink:href="#mc05bbd48de" x="258.569797" y="64.27713" style="fill: #1f77b4; stroke: #1f77b4"/>
     <use xlink:href="#mc05bbd48de" x="266.283006" y="48.28729" style="fill: #1f77b4; stroke: #1f77b4"/>
     <use xlink:href="#mc05bbd48de" x="273.996215" y="48.28729" style="fill: #1f77b4; stroke: #1f77b4"/>
     <use xlink:href="#mc05bbd48de" x="281.709423" y="48.28729" style="fill: #1f77b4; stroke: #1f77b4"/>
     <use xlink:href="#mc05bbd48de" x="289.422632" y="48.28729" style="fill: #1f77b4; stroke: #1f77b4"/>
     <use xlink:href="#mc05bbd48de" x="297.135841" y="48.28729" style="fill: #1f77b4; stroke: #1f77b4"/>
     <use xlink:href="#mc05bbd48de" x="304.84905" y="90.692303" style="fill: #1f77b4; stroke: #1f77b4"/>
     <use xlink:href="#mc05bbd48de" x="312.562258" y="90.692303" style="fill: #1f77b4; stroke: #1f77b4"/>
     <use xlink:href="#mc05bbd48de" x="320.275467" y="90.692303" style="fill: #1f77b4; stroke: #1f77b4"/>
     <use xlink:href="#mc05bbd48de" x="327.988676" y="90.692303" style="fill: #1f77b4; stroke: #1f77b4"/>
     <use xlink:href="#mc05bbd48de" x="335.701885" y="90.692303" style="fill: #1f77b4; stroke: #1f77b4"/>
    </g>
   </g>
   <g id="line2d_26">
    <path d="M 65.739578 131.528411 
L 104.305622 131.528411 
L 104.459886 109.459788 
L 142.871666 109.459788 
L 143.02593 38.887289 
L 181.43771 38.887289 
L 181.591974 60.453883 
L 220.003753 60.453883 
L 220.158017 77.740577 
L 258.569797 77.740577 
L 258.724061 78.682701 
L 297.135841 78.682701 
L 297.290105 120.560822 
L 335.701885 120.560822 
L 335.701885 120.560822 
" clip-path="url(#p519835fba0)" style="fill: none; stroke: #ff7f0e; stroke-width: 1.5; stroke-linecap: square"/>
    <defs>
     <path id="m58a2489628" d="M 0 2.5 
C 0.663008 2.5 1.29895 2.236584 1.767767 1.767767 
C 2.236584 1.29895 2.5 0.663008 2.5 0 
C 2.5 -0.663008 2.236584 -1.29895 1.767767 -1.767767 
C 1.29895 -2.236584 0.663008 -2.5 0 -2.5 
C -0.663008 -2.5 -1.29895 -2.236584 -1.767767 -1.767767 
C -2.236584 -1.29895 -2.5 -0.663008 -2.5 0 
C -2.5 0.663008 -2.236584 1.29895 -1.767767 1.767767 
C -1.29895 2.236584 -0.663008 2.5 0 2.5 
z
" style="stroke: #ff7f0e"/>
    </defs>
    <g clip-path="url(#p519835fba0)">
     <use xlink:href="#m58a2489628" x="65.739578" y="131.528411" style="fill: #ff7f0e; stroke: #ff7f0e"/>
     <use xlink:href="#m58a2489628" x="73.452787" y="131.528411" style="fill: #ff7f0e; stroke: #ff7f0e"/>
     <use xlink:href="#m58a2489628" x="81.165996" y="131.528411" style="fill: #ff7f0e; stroke: #ff7f0e"/>
     <use xlink:href="#m58a2489628" x="88.879204" y="131.528411" style="fill: #ff7f0e; stroke: #ff7f0e"/>
     <use xlink:href="#m58a2489628" x="96.592413" y="131.528411" style="fill: #ff7f0e; stroke: #ff7f0e"/>
     <use xlink:href="#m58a2489628" x="104.305622" y="131.528411" style="fill: #ff7f0e; stroke: #ff7f0e"/>
     <use xlink:href="#m58a2489628" x="112.018831" y="109.459788" style="fill: #ff7f0e; stroke: #ff7f0e"/>
     <use xlink:href="#m58a2489628" x="119.732039" y="109.459788" style="fill: #ff7f0e; stroke: #ff7f0e"/>
     <use xlink:href="#m58a2489628" x="127.445248" y="109.459788" style="fill: #ff7f0e; stroke: #ff7f0e"/>
     <use xlink:href="#m58a2489628" x="135.158457" y="109.459788" style="fill: #ff7f0e; stroke: #ff7f0e"/>
     <use xlink:href="#m58a2489628" x="142.871666" y="109.459788" style="fill: #ff7f0e; stroke: #ff7f0e"/>
     <use xlink:href="#m58a2489628" x="150.584874" y="38.887289" style="fill: #ff7f0e; stroke: #ff7f0e"/>
     <use xlink:href="#m58a2489628" x="158.298083" y="38.887289" style="fill: #ff7f0e; stroke: #ff7f0e"/>
     <use xlink:href="#m58a2489628" x="166.011292" y="38.887289" style="fill: #ff7f0e; stroke: #ff7f0e"/>
     <use xlink:href="#m58a2489628" x="173.724501" y="38.887289" style="fill: #ff7f0e; stroke: #ff7f0e"/>
     <use xlink:href="#m58a2489628" x="181.43771" y="38.887289" style="fill: #ff7f0e; stroke: #ff7f0e"/>
     <use xlink:href="#m58a2489628" x="189.150918" y="60.453883" style="fill: #ff7f0e; stroke: #ff7f0e"/>
     <use xlink:href="#m58a2489628" x="196.864127" y="60.453883" style="fill: #ff7f0e; stroke: #ff7f0e"/>
     <use xlink:href="#m58a2489628" x="204.577336" y="60.453883" style="fill: #ff7f0e; stroke: #ff7f0e"/>
     <use xlink:href="#m58a2489628" x="212.290545" y="60.453883" style="fill: #ff7f0e; stroke: #ff7f0e"/>
     <use xlink:href="#m58a2489628" x="220.003753" y="60.453883" style="fill: #ff7f0e; stroke: #ff7f0e"/>
     <use xlink:href="#m58a2489628" x="227.716962" y="77.740577" style="fill: #ff7f0e; stroke: #ff7f0e"/>
     <use xlink:href="#m58a2489628" x="235.430171" y="77.740577" style="fill: #ff7f0e; stroke: #ff7f0e"/>
     <use xlink:href="#m58a2489628" x="243.14338" y="77.740577" style="fill: #ff7f0e; stroke: #ff7f0e"/>
     <use xlink:href="#m58a2489628" x="250.856588" y="77.740577" style="fill: #ff7f0e; stroke: #ff7f0e"/>
     <use xlink:href="#m58a2489628" x="258.569797" y="77.740577" style="fill: #ff7f0e; stroke: #ff7f0e"/>
     <use xlink:href="#m58a2489628" x="266.283006" y="78.682701" style="fill: #ff7f0e; stroke: #ff7f0e"/>
     <use xlink:href="#m58a2489628" x="273.996215" y="78.682701" style="fill: #ff7f0e; stroke: #ff7f0e"/>
     <use xlink:href="#m58a2489628" x="281.709423" y="78.682701" style="fill: #ff7f0e; stroke: #ff7f0e"/>
     <use xlink:href="#m58a2489628" x="289.422632" y="78.682701" style="fill: #ff7f0e; stroke: #ff7f0e"/>
     <use xlink:href="#m58a2489628" x="297.135841" y="78.682701" style="fill: #ff7f0e; stroke: #ff7f0e"/>
     <use xlink:href="#m58a2489628" x="304.84905" y="120.560822" style="fill: #ff7f0e; stroke: #ff7f0e"/>
     <use xlink:href="#m58a2489628" x="312.562258" y="120.560822" style="fill: #ff7f0e; stroke: #ff7f0e"/>
     <use xlink:href="#m58a2489628" x="320.275467" y="120.560822" style="fill: #ff7f0e; stroke: #ff7f0e"/>
     <use xlink:href="#m58a2489628" x="327.988676" y="120.560822" style="fill: #ff7f0e; stroke: #ff7f0e"/>
     <use xlink:href="#m58a2489628" x="335.701885" y="120.560822" style="fill: #ff7f0e; stroke: #ff7f0e"/>
    </g>
   </g>
   <g id="line2d_27">
    <path d="M 65.739578 72.737094 
L 65.81671 65.53147 
L 65.970974 75.059246 
L 66.048106 75.620903 
L 66.125239 75.605717 
L 67.050824 73.710171 
L 67.745012 72.91961 
L 68.593465 72.31143 
L 69.287654 72.007179 
L 69.441918 72.068835 
L 70.521768 71.734229 
L 71.833013 71.616004 
L 75.458221 71.659359 
L 75.689617 71.715047 
L 77.772184 71.53995 
L 78.234976 71.707908 
L 78.774901 71.604553 
L 79.160561 71.475251 
L 79.700486 71.603137 
L 80.009014 71.676194 
L 80.548939 71.536163 
L 80.934599 71.487232 
L 82.091581 71.535304 
L 82.554373 71.501492 
L 83.479958 71.556398 
L 84.019883 71.499227 
L 84.945468 71.540943 
L 85.562525 71.508157 
L 86.333846 71.536914 
L 87.105166 71.516174 
L 87.799355 71.518518 
L 88.570676 71.510772 
L 89.419129 71.487138 
L 91.193167 71.477111 
L 93.352865 71.48186 
L 95.74396 71.463478 
L 100.140489 71.436045 
L 104.305622 71.410412 
L 104.382754 97.527104 
L 104.537018 68.256541 
L 104.61415 66.820279 
L 104.691282 67.011443 
L 105.231207 70.38577 
L 105.771132 72.161103 
L 106.311056 73.13187 
L 106.928113 73.73266 
L 107.699434 74.057545 
L 108.702151 74.268445 
L 108.933547 74.206751 
L 110.784717 74.489841 
L 115.489775 75.099574 
L 115.875435 75.040132 
L 118.343662 75.310435 
L 119.192115 75.473664 
L 119.732039 75.539451 
L 120.966153 75.644742 
L 121.58321 75.672102 
L 122.200266 75.690667 
L 123.202983 75.800946 
L 123.82004 75.852098 
L 124.591361 75.937726 
L 125.362682 75.995833 
L 126.134003 76.057239 
L 126.905324 76.134496 
L 127.830909 76.181253 
L 142.871666 77.264372 
L 142.948798 73.005331 
L 143.103062 76.781644 
L 143.180194 76.755416 
L 143.565855 76.009572 
L 144.105779 75.589039 
L 145.108496 75.109297 
L 145.339893 75.087016 
L 145.494157 75.130226 
L 146.496874 74.914553 
L 147.653855 74.942387 
L 152.513177 75.365427 
L 152.821705 75.414998 
L 153.207365 75.598503 
L 153.824422 75.583193 
L 154.210083 75.515764 
L 154.672875 75.648687 
L 155.058536 75.789528 
L 155.521328 75.724361 
L 155.906989 75.687043 
L 157.295366 75.834455 
L 157.758159 75.945117 
L 158.220951 76.055551 
L 159.3008 76.107541 
L 159.840725 76.16755 
L 160.534914 76.171682 
L 161.306235 76.287008 
L 162.000423 76.309964 
L 162.771744 76.40414 
L 163.543065 76.460291 
L 164.314386 76.516786 
L 165.085707 76.600178 
L 166.088424 76.648397 
L 168.710915 76.861302 
L 173.33884 77.206755 
L 176.964048 77.454229 
L 181.43771 77.732375 
L 181.514842 93.345547 
L 181.669106 66.744829 
L 181.746238 65.247154 
L 181.82337 65.275354 
L 182.517559 68.787397 
L 183.057483 70.27403 
L 183.597408 71.107707 
L 184.214465 71.654967 
L 185.062918 71.992056 
L 185.834238 72.128267 
L 186.065635 72.09001 
L 187.531144 72.327762 
L 192.390466 72.784961 
L 194.087372 72.889146 
L 194.473032 72.918302 
L 196.169938 72.967601 
L 196.632731 73.03154 
L 201.106392 73.239456 
L 201.800581 73.223407 
L 202.494769 73.293067 
L 203.188958 73.302713 
L 203.883147 73.349719 
L 204.654468 73.370934 
L 205.502921 73.438739 
L 207.662619 73.501898 
L 212.521941 73.726598 
L 216.070017 73.854855 
L 220.003753 74.00352 
L 220.080885 76.483824 
L 220.23515 63.772341 
L 220.312282 63.325378 
L 221.314999 65.906914 
L 222.009188 66.720531 
L 222.857641 67.343036 
L 225.557264 67.872686 
L 228.719679 67.719808 
L 229.876661 67.553073 
L 230.570849 67.664225 
L 230.879378 67.673984 
L 232.499151 67.503252 
L 232.80768 67.548175 
L 234.196057 67.417657 
L 234.65885 67.41154 
L 235.661567 67.316315 
L 236.201492 67.315894 
L 237.127077 67.236631 
L 237.744133 67.218215 
L 238.515454 67.157116 
L 239.286775 67.123732 
L 240.058096 67.092779 
L 240.983681 67.02156 
L 248.388362 66.700235 
L 253.247683 66.506492 
L 258.569797 66.308565 
L 258.646929 53.994562 
L 258.801193 77.854181 
L 258.878325 78.955304 
L 258.955458 78.726512 
L 259.495382 75.674365 
L 260.035307 74.056903 
L 260.575231 73.10247 
L 261.192288 72.441458 
L 261.963609 72.023716 
L 262.812062 71.782729 
L 262.966326 71.846243 
L 264.431836 71.57507 
L 265.203157 71.506731 
L 269.291157 71.257417 
L 270.679535 71.290588 
L 272.067912 71.250022 
L 272.530705 71.266108 
L 273.147762 71.130257 
L 273.764818 71.149308 
L 274.304743 71.215863 
L 276.850102 71.06926 
L 277.621423 71.09168 
L 278.392744 71.045619 
L 279.086932 71.053234 
L 279.935385 71.023388 
L 280.706706 70.992315 
L 281.478027 70.998027 
L 283.097801 70.967402 
L 296.673048 70.684514 
L 297.135841 70.681783 
L 297.212973 87.911003 
L 297.367237 63.013167 
L 297.444369 62.22828 
L 298.21569 66.846248 
L 298.755615 68.218292 
L 299.295539 69.028244 
L 299.989728 69.648303 
L 300.838181 70.028113 
L 301.378106 70.137353 
L 301.609502 70.116564 
L 302.766483 70.346911 
L 304.694785 70.479184 
L 306.006031 70.607433 
L 306.237427 70.651739 
L 307.163012 70.611113 
L 308.088597 70.540618 
L 308.55139 70.53069 
L 312.25373 70.710446 
L 312.947919 70.646511 
L 314.027768 70.694695 
L 314.567693 70.689384 
L 315.416146 70.74648 
L 316.110334 70.728181 
L 316.881655 70.768522 
L 317.652976 70.767946 
L 318.424297 70.77867 
L 319.195618 70.803854 
L 320.044071 70.789352 
L 322.280901 70.855464 
L 335.701885 71.008997 
L 335.701885 71.008997 
" clip-path="url(#p519835fba0)" style="fill: none; stroke: #1f77b4; stroke-width: 1.5; stroke-linecap: square"/>
    <defs>
     <path id="m9a6eeb8e8e" d="M -0 2.5 
L 2.5 -2.5 
L -2.5 -2.5 
z
" style="stroke: #1f77b4; stroke-linejoin: miter"/>
    </defs>
    <g clip-path="url(#p519835fba0)">
     <use xlink:href="#m9a6eeb8e8e" x="65.739578" y="72.737094" style="fill: #1f77b4; stroke: #1f77b4; stroke-linejoin: miter"/>
     <use xlink:href="#m9a6eeb8e8e" x="73.452787" y="71.678118" style="fill: #1f77b4; stroke: #1f77b4; stroke-linejoin: miter"/>
     <use xlink:href="#m9a6eeb8e8e" x="81.165996" y="71.532379" style="fill: #1f77b4; stroke: #1f77b4; stroke-linejoin: miter"/>
     <use xlink:href="#m9a6eeb8e8e" x="88.879204" y="71.529933" style="fill: #1f77b4; stroke: #1f77b4; stroke-linejoin: miter"/>
     <use xlink:href="#m9a6eeb8e8e" x="96.592413" y="71.447239" style="fill: #1f77b4; stroke: #1f77b4; stroke-linejoin: miter"/>
     <use xlink:href="#m9a6eeb8e8e" x="104.305622" y="71.410412" style="fill: #1f77b4; stroke: #1f77b4; stroke-linejoin: miter"/>
     <use xlink:href="#m9a6eeb8e8e" x="112.018831" y="74.658445" style="fill: #1f77b4; stroke: #1f77b4; stroke-linejoin: miter"/>
     <use xlink:href="#m9a6eeb8e8e" x="119.732039" y="75.539451" style="fill: #1f77b4; stroke: #1f77b4; stroke-linejoin: miter"/>
     <use xlink:href="#m9a6eeb8e8e" x="127.445248" y="76.178352" style="fill: #1f77b4; stroke: #1f77b4; stroke-linejoin: miter"/>
     <use xlink:href="#m9a6eeb8e8e" x="135.158457" y="76.748616" style="fill: #1f77b4; stroke: #1f77b4; stroke-linejoin: miter"/>
     <use xlink:href="#m9a6eeb8e8e" x="142.871666" y="77.264372" style="fill: #1f77b4; stroke: #1f77b4; stroke-linejoin: miter"/>
     <use xlink:href="#m9a6eeb8e8e" x="150.584874" y="75.261056" style="fill: #1f77b4; stroke: #1f77b4; stroke-linejoin: miter"/>
     <use xlink:href="#m9a6eeb8e8e" x="158.298083" y="76.052396" style="fill: #1f77b4; stroke: #1f77b4; stroke-linejoin: miter"/>
     <use xlink:href="#m9a6eeb8e8e" x="166.011292" y="76.641162" style="fill: #1f77b4; stroke: #1f77b4; stroke-linejoin: miter"/>
     <use xlink:href="#m9a6eeb8e8e" x="173.724501" y="77.242605" style="fill: #1f77b4; stroke: #1f77b4; stroke-linejoin: miter"/>
     <use xlink:href="#m9a6eeb8e8e" x="181.43771" y="77.732375" style="fill: #1f77b4; stroke: #1f77b4; stroke-linejoin: miter"/>
     <use xlink:href="#m9a6eeb8e8e" x="189.150918" y="72.47528" style="fill: #1f77b4; stroke: #1f77b4; stroke-linejoin: miter"/>
     <use xlink:href="#m9a6eeb8e8e" x="196.864127" y="73.028667" style="fill: #1f77b4; stroke: #1f77b4; stroke-linejoin: miter"/>
     <use xlink:href="#m9a6eeb8e8e" x="204.577336" y="73.375694" style="fill: #1f77b4; stroke: #1f77b4; stroke-linejoin: miter"/>
     <use xlink:href="#m9a6eeb8e8e" x="212.290545" y="73.708057" style="fill: #1f77b4; stroke: #1f77b4; stroke-linejoin: miter"/>
     <use xlink:href="#m9a6eeb8e8e" x="220.003753" y="74.00352" style="fill: #1f77b4; stroke: #1f77b4; stroke-linejoin: miter"/>
     <use xlink:href="#m9a6eeb8e8e" x="227.716962" y="67.84124" style="fill: #1f77b4; stroke: #1f77b4; stroke-linejoin: miter"/>
     <use xlink:href="#m9a6eeb8e8e" x="235.430171" y="67.286225" style="fill: #1f77b4; stroke: #1f77b4; stroke-linejoin: miter"/>
     <use xlink:href="#m9a6eeb8e8e" x="243.14338" y="66.95075" style="fill: #1f77b4; stroke: #1f77b4; stroke-linejoin: miter"/>
     <use xlink:href="#m9a6eeb8e8e" x="250.856588" y="66.596143" style="fill: #1f77b4; stroke: #1f77b4; stroke-linejoin: miter"/>
     <use xlink:href="#m9a6eeb8e8e" x="258.569797" y="66.308565" style="fill: #1f77b4; stroke: #1f77b4; stroke-linejoin: miter"/>
     <use xlink:href="#m9a6eeb8e8e" x="266.283006" y="71.415444" style="fill: #1f77b4; stroke: #1f77b4; stroke-linejoin: miter"/>
     <use xlink:href="#m9a6eeb8e8e" x="273.996215" y="71.215822" style="fill: #1f77b4; stroke: #1f77b4; stroke-linejoin: miter"/>
     <use xlink:href="#m9a6eeb8e8e" x="281.709423" y="71.002126" style="fill: #1f77b4; stroke: #1f77b4; stroke-linejoin: miter"/>
     <use xlink:href="#m9a6eeb8e8e" x="289.422632" y="70.81083" style="fill: #1f77b4; stroke: #1f77b4; stroke-linejoin: miter"/>
     <use xlink:href="#m9a6eeb8e8e" x="297.135841" y="70.681783" style="fill: #1f77b4; stroke: #1f77b4; stroke-linejoin: miter"/>
     <use xlink:href="#m9a6eeb8e8e" x="304.84905" y="70.485721" style="fill: #1f77b4; stroke: #1f77b4; stroke-linejoin: miter"/>
     <use xlink:href="#m9a6eeb8e8e" x="312.562258" y="70.636243" style="fill: #1f77b4; stroke: #1f77b4; stroke-linejoin: miter"/>
     <use xlink:href="#m9a6eeb8e8e" x="320.275467" y="70.791804" style="fill: #1f77b4; stroke: #1f77b4; stroke-linejoin: miter"/>
     <use xlink:href="#m9a6eeb8e8e" x="327.988676" y="70.924523" style="fill: #1f77b4; stroke: #1f77b4; stroke-linejoin: miter"/>
     <use xlink:href="#m9a6eeb8e8e" x="335.701885" y="71.008997" style="fill: #1f77b4; stroke: #1f77b4; stroke-linejoin: miter"/>
    </g>
   </g>
   <g id="line2d_28">
    <path d="M 65.739578 80.069303 
L 65.81671 24.964251 
L 65.970974 74.735481 
L 66.048106 75.928365 
L 66.433767 72.207255 
L 66.665163 72.002775 
L 67.28222 72.210931 
L 68.362069 72.45129 
L 68.670597 72.488471 
L 68.824862 72.354736 
L 69.287654 72.738585 
L 69.364786 73.009358 
L 69.441918 72.916171 
L 69.750447 72.603455 
L 70.290371 72.622333 
L 73.452787 72.898068 
L 73.607051 72.562321 
L 73.992711 72.992053 
L 74.609768 73.045163 
L 75.303957 73.043901 
L 75.535353 73.433218 
L 75.612485 73.35075 
L 75.921014 73.097971 
L 76.692335 73.092414 
L 76.923731 72.843961 
L 77.309391 73.095673 
L 77.849316 73.411237 
L 78.00358 73.579246 
L 78.774901 73.09989 
L 78.929165 72.956446 
L 79.314826 73.269869 
L 79.931882 73.571869 
L 80.626071 73.14661 
L 81.011731 73.414058 
L 81.474524 73.654735 
L 82.322977 73.363416 
L 83.017166 73.695902 
L 83.788487 73.474798 
L 84.559807 73.736137 
L 85.253996 73.592649 
L 86.025317 73.800975 
L 86.719506 73.707305 
L 87.490827 73.867232 
L 88.185016 73.817343 
L 88.879204 73.948282 
L 89.650525 73.922577 
L 90.344714 74.018514 
L 91.116035 74.023015 
L 91.810224 74.091482 
L 92.581545 74.118838 
L 93.275733 74.166996 
L 94.047054 74.210429 
L 94.895507 74.239462 
L 96.669545 74.3444 
L 98.67498 74.480497 
L 103.302905 74.71898 
L 104.305622 74.780643 
L 104.382754 94.807379 
L 104.537018 19.166506 
L 104.845547 65.549337 
L 105.076943 72.770736 
L 105.308339 73.692987 
L 105.462603 73.576452 
L 106.311056 72.521588 
L 106.696717 72.304538 
L 106.850981 72.446683 
L 107.390905 72.117316 
L 108.702151 71.9434 
L 108.856415 71.425914 
L 109.242076 71.899226 
L 109.859132 71.989526 
L 110.399057 71.987306 
L 110.553321 71.871662 
L 111.016114 72.107203 
L 112.867284 72.372134 
L 113.407208 72.409525 
L 113.561472 72.827581 
L 113.638605 72.712834 
L 113.870001 72.428126 
L 114.409925 72.421179 
L 115.026982 72.433234 
L 115.489775 72.240154 
L 115.644039 71.828779 
L 115.875435 72.176581 
L 116.183963 72.435835 
L 116.569624 72.550061 
L 116.878152 72.547659 
L 117.109548 72.85301 
L 117.495209 72.533716 
L 118.035134 72.475558 
L 118.26653 72.187768 
L 119.346379 72.874579 
L 120.1177 72.27777 
L 120.426228 72.521208 
L 121.043285 72.90915 
L 121.814606 72.432079 
L 122.663059 72.897004 
L 123.357248 72.545301 
L 124.282833 72.867231 
L 124.822757 72.635448 
L 125.28555 72.883356 
L 125.594078 72.966732 
L 126.519663 72.811569 
L 127.059588 72.996318 
L 127.908041 72.852042 
L 128.525097 73.027854 
L 129.37355 72.929474 
L 129.990607 73.061074 
L 130.761928 72.978348 
L 131.456117 73.096036 
L 132.150306 73.03045 
L 132.921626 73.133022 
L 133.615815 73.100753 
L 134.310004 73.184544 
L 135.081325 73.167897 
L 135.775514 73.224946 
L 136.469702 73.21657 
L 137.241023 73.267307 
L 137.935212 73.278715 
L 138.706533 73.311653 
L 139.477854 73.349599 
L 140.249175 73.353291 
L 141.868949 73.404286 
L 142.871666 73.462942 
L 143.02593 88.50555 
L 143.41159 72.184758 
L 143.642987 70.716274 
L 143.874383 70.482784 
L 144.49144 70.434979 
L 145.185628 70.38159 
L 145.26276 70.233915 
L 145.417025 70.767387 
L 145.879817 70.400903 
L 146.882534 70.412608 
L 148.502308 70.484628 
L 148.656572 70.598863 
L 148.733704 70.498371 
L 148.887969 70.044126 
L 149.350761 70.418295 
L 150.199214 70.341743 
L 150.43061 70.202302 
L 150.584874 70.521752 
L 150.739139 70.624516 
L 151.047667 70.326292 
L 151.433327 70.30668 
L 151.664724 70.401376 
L 151.818988 70.208789 
L 151.973252 69.977646 
L 152.513177 70.205153 
L 152.744573 70.214768 
L 153.053101 70.513621 
L 153.515894 70.306625 
L 153.74729 70.14291 
L 153.978686 69.952603 
L 154.595743 70.272035 
L 154.827139 70.429771 
L 155.2128 70.216215 
L 155.752724 69.9467 
L 156.524045 70.303549 
L 157.295366 69.92689 
L 158.066687 70.198872 
L 158.760876 69.899109 
L 159.532197 70.122054 
L 160.226385 69.877311 
L 160.997706 70.043486 
L 161.691895 69.853851 
L 162.463216 69.967832 
L 163.157405 69.827387 
L 163.928726 69.896319 
L 164.622914 69.797657 
L 165.317103 69.848194 
L 166.088424 69.764576 
L 166.782613 69.783775 
L 167.553934 69.728193 
L 168.248123 69.72335 
L 169.019443 69.688743 
L 169.713632 69.666688 
L 170.484953 69.646649 
L 171.333406 69.595745 
L 173.261708 69.551727 
L 174.958614 69.509411 
L 181.43771 69.293082 
L 181.514842 117.989305 
L 181.669106 33.452348 
L 182.054766 69.218135 
L 182.286162 72.344404 
L 182.440427 72.592829 
L 182.671823 72.378869 
L 183.366012 71.555221 
L 183.905936 71.241273 
L 184.137333 71.323179 
L 184.522993 71.07111 
L 185.602842 70.871365 
L 185.757106 70.848756 
L 185.911371 70.317087 
L 185.988503 70.392924 
L 186.297031 70.76141 
L 186.836956 70.823293 
L 187.685409 70.808682 
L 187.839673 70.671945 
L 188.302465 70.876832 
L 190.153635 71.023715 
L 190.462164 71.034412 
L 190.616428 71.497855 
L 190.69356 71.415534 
L 191.07922 70.884863 
L 192.15907 71.020611 
L 192.54473 70.802332 
L 192.698994 70.412212 
L 194.164504 71.326808 
L 194.550164 70.883781 
L 195.167221 70.670579 
L 195.321485 70.608396 
L 195.707146 70.854713 
L 196.015674 70.934998 
L 196.324202 71.169778 
L 197.249787 70.619042 
L 198.09824 71.109716 
L 198.869561 70.629614 
L 199.718014 71.028654 
L 200.412203 70.658756 
L 201.260656 70.964773 
L 201.877713 70.672168 
L 202.803298 70.892941 
L 203.343222 70.687361 
L 204.268807 70.86039 
L 204.808732 70.699988 
L 205.657185 70.857789 
L 206.274242 70.71023 
L 207.122695 70.822556 
L 207.662619 70.704509 
L 208.588204 70.790354 
L 209.128129 70.70931 
L 209.976582 70.782214 
L 210.593639 70.71256 
L 211.364959 70.771579 
L 212.059148 70.713879 
L 212.830469 70.745506 
L 213.524658 70.712966 
L 214.218847 70.734963 
L 214.990168 70.709673 
L 215.761488 70.702049 
L 216.532809 70.712254 
L 217.30413 70.67669 
L 219.001036 70.660765 
L 220.003753 70.666919 
L 220.080885 84.360392 
L 220.23515 48.46574 
L 220.543678 68.550881 
L 220.775074 71.496186 
L 221.00647 71.859028 
L 221.392131 71.721944 
L 222.240584 71.452411 
L 222.857641 71.341505 
L 223.011905 71.206542 
L 223.243301 71.290519 
L 223.397565 70.887689 
L 223.706094 71.252317 
L 224.168886 71.276659 
L 226.791377 71.232302 
L 226.945641 71.293556 
L 227.177037 71.177644 
L 227.25417 71.253837 
L 227.408434 71.562757 
L 227.716962 71.205621 
L 228.179755 71.176146 
L 228.719679 71.107332 
L 228.873943 71.096661 
L 229.10534 71.154276 
L 229.259604 70.838765 
L 229.336736 70.877045 
L 229.645264 71.182388 
L 230.725113 71.469899 
L 231.110774 71.136665 
L 231.804963 71.006719 
L 232.190623 71.299767 
L 232.422019 71.346294 
L 232.653416 71.472656 
L 233.19334 71.159536 
L 233.579001 71.084713 
L 234.041793 71.321581 
L 234.350322 71.388318 
L 235.04451 71.097017 
L 235.661567 71.350418 
L 235.970095 71.333628 
L 236.664284 71.16351 
L 237.435605 71.33124 
L 238.129794 71.191913 
L 238.901115 71.322053 
L 239.595304 71.220538 
L 240.366624 71.313249 
L 241.060813 71.246943 
L 241.832134 71.306908 
L 242.526323 71.27033 
L 243.297644 71.303757 
L 243.991833 71.290408 
L 244.763153 71.303883 
L 245.534474 71.316717 
L 246.305795 71.300147 
L 247.848437 71.305268 
L 254.019004 71.360007 
L 258.415533 71.384482 
L 258.569797 71.385435 
L 258.646929 32.51549 
L 258.801193 107.16813 
L 259.109722 75.476611 
L 259.341118 70.414265 
L 259.495382 69.889938 
L 259.649646 69.92857 
L 260.729496 71.019149 
L 260.88376 71.025565 
L 261.038024 70.991837 
L 261.423684 71.255905 
L 262.349269 71.429506 
L 262.812062 71.581618 
L 262.889194 71.997468 
L 262.966326 71.936637 
L 263.274854 71.566444 
L 263.737647 71.510385 
L 264.354704 71.522974 
L 264.508968 71.676513 
L 265.048892 71.46987 
L 266.205874 71.316908 
L 266.360138 71.233738 
L 266.82293 71.370203 
L 267.362855 71.3657 
L 267.517119 70.992838 
L 267.825648 71.355001 
L 268.365572 71.381662 
L 268.828365 71.355215 
L 269.368289 71.544293 
L 269.599686 71.965807 
L 269.985346 71.481996 
L 270.448139 71.352015 
L 270.756667 71.378897 
L 270.988063 71.085896 
L 271.065195 71.159846 
L 271.373724 71.412717 
L 271.913648 71.496138 
L 272.145045 71.766731 
L 273.147762 71.130506 
L 274.073347 71.719096 
L 274.844668 71.191346 
L 275.770253 71.624542 
L 276.387309 71.254145 
L 276.77297 71.477793 
L 277.15863 71.659304 
L 277.621423 71.405207 
L 277.929951 71.314455 
L 278.855536 71.550314 
L 279.395461 71.35396 
L 280.321046 71.541039 
L 280.86097 71.389739 
L 281.786555 71.529513 
L 282.32648 71.422188 
L 283.174933 71.544121 
L 283.79199 71.451796 
L 284.563311 71.553435 
L 285.257499 71.478563 
L 286.02882 71.544716 
L 286.723009 71.502296 
L 287.417198 71.553085 
L 288.188519 71.52285 
L 288.882708 71.549116 
L 289.654028 71.540239 
L 290.348217 71.547866 
L 291.119538 71.554663 
L 291.890859 71.541619 
L 292.816444 71.579788 
L 297.135841 71.591942 
L 297.212973 78.648792 
L 297.290105 17.299167 
L 297.367237 20.968983 
L 297.675765 66.685082 
L 297.907162 72.92958 
L 298.061426 73.557145 
L 298.21569 73.527904 
L 299.218407 72.516337 
L 299.526936 72.406862 
L 299.6812 72.509684 
L 300.06686 72.281496 
L 301.069577 72.178163 
L 301.300974 72.165528 
L 301.455238 71.666824 
L 301.53237 71.763453 
L 301.840898 72.123555 
L 302.380823 72.206429 
L 303.152144 72.216006 
L 303.306408 72.121085 
L 303.7692 72.326865 
L 305.774635 72.542163 
L 305.928899 72.587461 
L 306.083163 73.010214 
L 306.545956 72.493451 
L 307.548673 72.683753 
L 307.934333 72.549894 
L 308.165729 72.175827 
L 308.705654 72.628466 
L 309.399843 72.949351 
L 309.554107 73.086897 
L 309.939767 72.702698 
L 310.556824 72.521569 
L 310.711088 72.515233 
L 311.096749 72.758238 
L 311.405277 72.87835 
L 311.636673 73.086778 
L 312.63939 72.670523 
L 313.410711 73.129123 
L 314.259164 72.788031 
L 314.953353 73.175308 
L 315.801806 72.912612 
L 316.495995 73.201433 
L 317.267316 73.009372 
L 317.961505 73.248498 
L 318.732825 73.10987 
L 319.427014 73.295678 
L 320.121203 73.182888 
L 320.892524 73.345274 
L 321.586713 73.27847 
L 322.358034 73.39794 
L 322.97509 73.351362 
L 323.823543 73.453917 
L 324.4406 73.438882 
L 325.211921 73.522811 
L 325.983242 73.538176 
L 326.67743 73.582753 
L 327.448751 73.616102 
L 328.220072 73.640168 
L 329.068525 73.709312 
L 331.305356 73.778216 
L 335.701885 73.988652 
L 335.701885 73.988652 
" clip-path="url(#p519835fba0)" style="fill: none; stroke: #ff7f0e; stroke-width: 1.5; stroke-linecap: square"/>
    <defs>
     <path id="me4a8b3308e" d="M -0 2.5 
L 2.5 -2.5 
L -2.5 -2.5 
z
" style="stroke: #ff7f0e; stroke-linejoin: miter"/>
    </defs>
    <g clip-path="url(#p519835fba0)">
     <use xlink:href="#me4a8b3308e" x="65.739578" y="80.069303" style="fill: #ff7f0e; stroke: #ff7f0e; stroke-linejoin: miter"/>
     <use xlink:href="#me4a8b3308e" x="73.452787" y="72.898068" style="fill: #ff7f0e; stroke: #ff7f0e; stroke-linejoin: miter"/>
     <use xlink:href="#me4a8b3308e" x="81.165996" y="73.522223" style="fill: #ff7f0e; stroke: #ff7f0e; stroke-linejoin: miter"/>
     <use xlink:href="#me4a8b3308e" x="88.879204" y="73.948282" style="fill: #ff7f0e; stroke: #ff7f0e; stroke-linejoin: miter"/>
     <use xlink:href="#me4a8b3308e" x="96.592413" y="74.33629" style="fill: #ff7f0e; stroke: #ff7f0e; stroke-linejoin: miter"/>
     <use xlink:href="#me4a8b3308e" x="104.305622" y="74.780643" style="fill: #ff7f0e; stroke: #ff7f0e; stroke-linejoin: miter"/>
     <use xlink:href="#me4a8b3308e" x="112.018831" y="72.26933" style="fill: #ff7f0e; stroke: #ff7f0e; stroke-linejoin: miter"/>
     <use xlink:href="#me4a8b3308e" x="119.732039" y="72.602612" style="fill: #ff7f0e; stroke: #ff7f0e; stroke-linejoin: miter"/>
     <use xlink:href="#me4a8b3308e" x="127.445248" y="72.8505" style="fill: #ff7f0e; stroke: #ff7f0e; stroke-linejoin: miter"/>
     <use xlink:href="#me4a8b3308e" x="135.158457" y="73.185648" style="fill: #ff7f0e; stroke: #ff7f0e; stroke-linejoin: miter"/>
     <use xlink:href="#me4a8b3308e" x="142.871666" y="73.462942" style="fill: #ff7f0e; stroke: #ff7f0e; stroke-linejoin: miter"/>
     <use xlink:href="#me4a8b3308e" x="150.584874" y="70.521752" style="fill: #ff7f0e; stroke: #ff7f0e; stroke-linejoin: miter"/>
     <use xlink:href="#me4a8b3308e" x="158.298083" y="70.061811" style="fill: #ff7f0e; stroke: #ff7f0e; stroke-linejoin: miter"/>
     <use xlink:href="#me4a8b3308e" x="166.011292" y="69.753028" style="fill: #ff7f0e; stroke: #ff7f0e; stroke-linejoin: miter"/>
     <use xlink:href="#me4a8b3308e" x="173.724501" y="69.549351" style="fill: #ff7f0e; stroke: #ff7f0e; stroke-linejoin: miter"/>
     <use xlink:href="#me4a8b3308e" x="181.43771" y="69.293082" style="fill: #ff7f0e; stroke: #ff7f0e; stroke-linejoin: miter"/>
     <use xlink:href="#me4a8b3308e" x="189.150918" y="70.959072" style="fill: #ff7f0e; stroke: #ff7f0e; stroke-linejoin: miter"/>
     <use xlink:href="#me4a8b3308e" x="196.864127" y="70.855371" style="fill: #ff7f0e; stroke: #ff7f0e; stroke-linejoin: miter"/>
     <use xlink:href="#me4a8b3308e" x="204.577336" y="70.716048" style="fill: #ff7f0e; stroke: #ff7f0e; stroke-linejoin: miter"/>
     <use xlink:href="#me4a8b3308e" x="212.290545" y="70.757021" style="fill: #ff7f0e; stroke: #ff7f0e; stroke-linejoin: miter"/>
     <use xlink:href="#me4a8b3308e" x="220.003753" y="70.666919" style="fill: #ff7f0e; stroke: #ff7f0e; stroke-linejoin: miter"/>
     <use xlink:href="#me4a8b3308e" x="227.716962" y="71.205621" style="fill: #ff7f0e; stroke: #ff7f0e; stroke-linejoin: miter"/>
     <use xlink:href="#me4a8b3308e" x="235.430171" y="71.252031" style="fill: #ff7f0e; stroke: #ff7f0e; stroke-linejoin: miter"/>
     <use xlink:href="#me4a8b3308e" x="243.14338" y="71.325122" style="fill: #ff7f0e; stroke: #ff7f0e; stroke-linejoin: miter"/>
     <use xlink:href="#me4a8b3308e" x="250.856588" y="71.329284" style="fill: #ff7f0e; stroke: #ff7f0e; stroke-linejoin: miter"/>
     <use xlink:href="#me4a8b3308e" x="258.569797" y="71.385435" style="fill: #ff7f0e; stroke: #ff7f0e; stroke-linejoin: miter"/>
     <use xlink:href="#me4a8b3308e" x="266.283006" y="71.237228" style="fill: #ff7f0e; stroke: #ff7f0e; stroke-linejoin: miter"/>
     <use xlink:href="#me4a8b3308e" x="273.996215" y="71.761358" style="fill: #ff7f0e; stroke: #ff7f0e; stroke-linejoin: miter"/>
     <use xlink:href="#me4a8b3308e" x="281.709423" y="71.557388" style="fill: #ff7f0e; stroke: #ff7f0e; stroke-linejoin: miter"/>
     <use xlink:href="#me4a8b3308e" x="289.422632" y="71.510213" style="fill: #ff7f0e; stroke: #ff7f0e; stroke-linejoin: miter"/>
     <use xlink:href="#me4a8b3308e" x="297.135841" y="71.591942" style="fill: #ff7f0e; stroke: #ff7f0e; stroke-linejoin: miter"/>
     <use xlink:href="#me4a8b3308e" x="304.84905" y="72.463829" style="fill: #ff7f0e; stroke: #ff7f0e; stroke-linejoin: miter"/>
     <use xlink:href="#me4a8b3308e" x="312.562258" y="72.621542" style="fill: #ff7f0e; stroke: #ff7f0e; stroke-linejoin: miter"/>
     <use xlink:href="#me4a8b3308e" x="320.275467" y="73.237641" style="fill: #ff7f0e; stroke: #ff7f0e; stroke-linejoin: miter"/>
     <use xlink:href="#me4a8b3308e" x="327.988676" y="73.654881" style="fill: #ff7f0e; stroke: #ff7f0e; stroke-linejoin: miter"/>
     <use xlink:href="#me4a8b3308e" x="335.701885" y="73.988652" style="fill: #ff7f0e; stroke: #ff7f0e; stroke-linejoin: miter"/>
    </g>
   </g>
   <g id="line2d_29">
    <path d="M 65.739578 55.969004 
L 65.81671 48.76338 
L 65.970974 58.291156 
L 66.048106 58.852813 
L 66.125239 58.837627 
L 67.050824 56.942081 
L 67.745012 56.15152 
L 68.593465 55.54334 
L 69.287654 55.239089 
L 69.441918 55.300745 
L 70.521768 54.966139 
L 71.833013 54.847914 
L 75.458221 54.891269 
L 75.689617 54.946957 
L 77.772184 54.77186 
L 78.234976 54.939818 
L 78.774901 54.836463 
L 79.160561 54.707162 
L 79.700486 54.835047 
L 80.009014 54.908104 
L 80.548939 54.768073 
L 80.934599 54.719142 
L 82.091581 54.767214 
L 82.554373 54.733402 
L 83.479958 54.788308 
L 84.019883 54.731137 
L 84.945468 54.772853 
L 85.562525 54.740067 
L 86.333846 54.768824 
L 87.105166 54.748085 
L 87.799355 54.750428 
L 88.570676 54.742682 
L 89.419129 54.719048 
L 91.193167 54.709021 
L 93.352865 54.71377 
L 95.74396 54.695388 
L 100.140489 54.667955 
L 104.305622 54.642322 
L 104.382754 147.282516 
L 104.459886 124.743178 
L 104.61415 116.575691 
L 104.691282 116.766856 
L 105.231207 120.141182 
L 105.771132 121.916516 
L 106.311056 122.887282 
L 106.928113 123.488072 
L 107.699434 123.812957 
L 108.702151 124.023857 
L 108.933547 123.962164 
L 110.784717 124.245254 
L 115.489775 124.854986 
L 115.875435 124.795545 
L 118.343662 125.065847 
L 119.192115 125.229076 
L 119.732039 125.294863 
L 120.966153 125.400155 
L 121.58321 125.427514 
L 122.200266 125.44608 
L 123.202983 125.556358 
L 123.82004 125.60751 
L 124.591361 125.693138 
L 125.362682 125.751246 
L 126.134003 125.812651 
L 126.905324 125.889908 
L 127.830909 125.936666 
L 142.871666 127.019784 
L 142.948798 83.194344 
L 143.02593 86.277441 
L 143.103062 86.970656 
L 143.180194 86.944428 
L 143.565855 86.198584 
L 144.105779 85.778052 
L 145.108496 85.298309 
L 145.339893 85.276029 
L 145.494157 85.319238 
L 146.496874 85.103566 
L 147.653855 85.131399 
L 152.513177 85.55444 
L 152.821705 85.60401 
L 153.207365 85.787516 
L 153.824422 85.772205 
L 154.210083 85.704776 
L 154.672875 85.8377 
L 155.058536 85.978541 
L 155.521328 85.913373 
L 155.906989 85.876056 
L 157.295366 86.023467 
L 157.758159 86.13413 
L 158.220951 86.244564 
L 159.3008 86.296553 
L 159.840725 86.356563 
L 160.534914 86.360694 
L 161.306235 86.476021 
L 162.000423 86.498976 
L 162.771744 86.593153 
L 163.543065 86.649304 
L 164.314386 86.705798 
L 165.085707 86.78919 
L 166.088424 86.837409 
L 168.710915 87.050315 
L 173.33884 87.395767 
L 176.964048 87.643241 
L 181.43771 87.921387 
L 181.514842 127.266188 
L 181.669106 100.66547 
L 181.746238 99.167795 
L 181.82337 99.195996 
L 182.517559 102.708038 
L 183.057483 104.194672 
L 183.597408 105.028348 
L 184.214465 105.575608 
L 185.062918 105.912697 
L 185.834238 106.048908 
L 186.065635 106.010651 
L 187.531144 106.248403 
L 192.390466 106.705602 
L 194.087372 106.809787 
L 194.473032 106.838944 
L 196.169938 106.888242 
L 196.632731 106.952181 
L 201.106392 107.160097 
L 201.800581 107.144048 
L 202.494769 107.213708 
L 203.188958 107.223354 
L 203.883147 107.27036 
L 204.654468 107.291575 
L 205.502921 107.35938 
L 207.662619 107.422539 
L 212.521941 107.647239 
L 216.070017 107.775496 
L 220.003753 107.924162 
L 220.158017 59.64719 
L 220.312282 56.409563 
L 221.314999 58.991099 
L 222.009188 59.804716 
L 222.857641 60.427221 
L 225.557264 60.956871 
L 228.719679 60.803993 
L 229.876661 60.637258 
L 230.570849 60.74841 
L 230.879378 60.758169 
L 232.499151 60.587437 
L 232.80768 60.63236 
L 234.196057 60.501842 
L 234.65885 60.495725 
L 235.661567 60.4005 
L 236.201492 60.400079 
L 237.127077 60.320817 
L 237.744133 60.3024 
L 238.515454 60.241301 
L 239.286775 60.207917 
L 240.058096 60.176964 
L 240.983681 60.105745 
L 248.388362 59.78442 
L 253.247683 59.590677 
L 258.569797 59.39275 
L 258.646929 31.088907 
L 258.801193 54.948526 
L 258.878325 56.049649 
L 258.955458 55.820856 
L 259.495382 52.76871 
L 260.035307 51.151247 
L 260.575231 50.196814 
L 261.192288 49.535803 
L 261.963609 49.118061 
L 262.812062 48.877074 
L 262.966326 48.940588 
L 264.431836 48.669415 
L 265.203157 48.601076 
L 269.291157 48.351762 
L 270.679535 48.384933 
L 272.067912 48.344367 
L 272.530705 48.360453 
L 273.147762 48.224602 
L 273.764818 48.243652 
L 274.304743 48.310208 
L 276.850102 48.163605 
L 277.621423 48.186025 
L 278.392744 48.139964 
L 279.086932 48.147578 
L 279.935385 48.117733 
L 280.706706 48.08666 
L 281.478027 48.092372 
L 283.097801 48.061747 
L 296.673048 47.778859 
L 297.135841 47.776128 
L 297.212973 107.410361 
L 297.290105 87.91139 
L 297.444369 81.727638 
L 298.21569 86.345606 
L 298.755615 87.71765 
L 299.295539 88.527602 
L 299.989728 89.147661 
L 300.838181 89.527471 
L 301.378106 89.636711 
L 301.609502 89.615922 
L 302.766483 89.846269 
L 304.694785 89.978542 
L 306.006031 90.106791 
L 306.237427 90.151097 
L 307.163012 90.110471 
L 308.088597 90.039976 
L 308.55139 90.030048 
L 312.25373 90.209804 
L 312.947919 90.145869 
L 314.027768 90.194053 
L 314.567693 90.188743 
L 315.416146 90.245838 
L 316.110334 90.227539 
L 316.881655 90.26788 
L 317.652976 90.267304 
L 318.424297 90.278029 
L 319.195618 90.303212 
L 320.044071 90.28871 
L 322.280901 90.354822 
L 335.701885 90.508355 
L 335.701885 90.508355 
" clip-path="url(#p519835fba0)" style="fill: none; stroke: #1f77b4; stroke-width: 2; stroke-linecap: square"/>
   </g>
   <g id="line2d_30">
    <path d="M 65.739578 140.40477 
L 65.81671 85.299718 
L 65.970974 135.070947 
L 66.048106 136.263832 
L 66.433767 132.542721 
L 66.665163 132.338241 
L 67.28222 132.546397 
L 68.362069 132.786756 
L 68.670597 132.823938 
L 68.824862 132.690202 
L 69.287654 133.074052 
L 69.364786 133.344824 
L 69.441918 133.251637 
L 69.750447 132.938922 
L 70.290371 132.9578 
L 73.452787 133.233534 
L 73.607051 132.897788 
L 73.992711 133.327519 
L 74.609768 133.380629 
L 75.303957 133.379367 
L 75.535353 133.768684 
L 75.612485 133.686216 
L 75.921014 133.433438 
L 76.692335 133.427881 
L 76.923731 133.179427 
L 77.309391 133.43114 
L 77.849316 133.746704 
L 78.00358 133.914712 
L 78.774901 133.435356 
L 78.929165 133.291913 
L 79.314826 133.605335 
L 79.931882 133.907336 
L 80.626071 133.482076 
L 81.011731 133.749524 
L 81.474524 133.990201 
L 82.322977 133.698882 
L 83.017166 134.031368 
L 83.788487 133.810264 
L 84.559807 134.071604 
L 85.253996 133.928115 
L 86.025317 134.136441 
L 86.719506 134.042771 
L 87.490827 134.202698 
L 88.185016 134.152809 
L 88.879204 134.283749 
L 89.650525 134.258043 
L 90.344714 134.35398 
L 91.116035 134.358481 
L 91.810224 134.426948 
L 92.581545 134.454304 
L 93.275733 134.502462 
L 94.047054 134.545895 
L 94.895507 134.574928 
L 96.669545 134.679866 
L 98.67498 134.815964 
L 103.302905 135.054446 
L 104.305622 135.116109 
L 104.382754 133.074222 
L 104.537018 57.43335 
L 104.845547 103.81618 
L 105.076943 111.03758 
L 105.308339 111.95983 
L 105.462603 111.843295 
L 106.311056 110.788431 
L 106.696717 110.571381 
L 106.850981 110.713526 
L 107.390905 110.384159 
L 108.702151 110.210243 
L 108.856415 109.692757 
L 109.242076 110.166069 
L 109.859132 110.25637 
L 110.399057 110.254149 
L 110.553321 110.138506 
L 111.016114 110.374046 
L 112.867284 110.638977 
L 113.407208 110.676368 
L 113.561472 111.094425 
L 113.638605 110.979677 
L 113.870001 110.694969 
L 114.409925 110.688022 
L 115.026982 110.700077 
L 115.489775 110.506998 
L 115.644039 110.095622 
L 115.875435 110.443424 
L 116.183963 110.702678 
L 116.569624 110.816904 
L 116.878152 110.814502 
L 117.109548 111.119853 
L 117.495209 110.800559 
L 118.035134 110.742401 
L 118.26653 110.454612 
L 119.346379 111.141422 
L 120.1177 110.544614 
L 120.426228 110.788051 
L 121.043285 111.175993 
L 121.814606 110.698923 
L 122.663059 111.163847 
L 123.357248 110.812144 
L 124.282833 111.134075 
L 124.822757 110.902291 
L 125.28555 111.1502 
L 125.594078 111.233575 
L 126.519663 111.078412 
L 127.059588 111.263162 
L 127.908041 111.118885 
L 128.525097 111.294697 
L 129.37355 111.196317 
L 129.990607 111.327917 
L 130.761928 111.245191 
L 131.456117 111.36288 
L 132.150306 111.297293 
L 132.921626 111.399865 
L 133.615815 111.367596 
L 134.310004 111.451388 
L 135.081325 111.43474 
L 135.775514 111.49179 
L 136.469702 111.483413 
L 137.241023 111.53415 
L 137.935212 111.545559 
L 138.706533 111.578496 
L 139.477854 111.616442 
L 140.249175 111.620135 
L 141.868949 111.671129 
L 142.871666 111.729785 
L 142.948798 51.216282 
L 143.02593 56.199894 
L 143.41159 39.879102 
L 143.642987 38.410618 
L 143.874383 38.177128 
L 144.49144 38.129322 
L 145.185628 38.075934 
L 145.26276 37.928259 
L 145.417025 38.461731 
L 145.879817 38.095247 
L 146.882534 38.106951 
L 148.502308 38.178972 
L 148.656572 38.293207 
L 148.733704 38.192715 
L 148.887969 37.73847 
L 149.350761 38.112639 
L 150.199214 38.036087 
L 150.43061 37.896646 
L 150.584874 38.216096 
L 150.739139 38.31886 
L 151.047667 38.020636 
L 151.433327 38.001023 
L 151.664724 38.09572 
L 151.818988 37.903133 
L 151.973252 37.67199 
L 152.513177 37.899497 
L 152.744573 37.909112 
L 153.053101 38.207964 
L 153.515894 38.000969 
L 153.74729 37.837254 
L 153.978686 37.646947 
L 154.595743 37.966379 
L 154.827139 38.124115 
L 155.2128 37.910559 
L 155.752724 37.641044 
L 156.524045 37.997892 
L 157.295366 37.621234 
L 158.066687 37.893216 
L 158.760876 37.593453 
L 159.532197 37.816398 
L 160.226385 37.571655 
L 160.997706 37.73783 
L 161.691895 37.548195 
L 162.463216 37.662176 
L 163.157405 37.521731 
L 163.928726 37.590663 
L 164.622914 37.492001 
L 165.317103 37.542538 
L 166.088424 37.45892 
L 166.782613 37.478119 
L 167.553934 37.422537 
L 168.248123 37.417694 
L 169.019443 37.383087 
L 169.713632 37.361032 
L 170.484953 37.340993 
L 171.333406 37.290088 
L 173.261708 37.246071 
L 174.958614 37.203755 
L 181.43771 36.987426 
L 181.514842 107.250243 
L 181.669106 22.713286 
L 182.054766 58.479074 
L 182.286162 61.605342 
L 182.440427 61.853767 
L 182.671823 61.639807 
L 183.366012 60.816159 
L 183.905936 60.502211 
L 184.137333 60.584117 
L 184.522993 60.332048 
L 185.602842 60.132303 
L 185.757106 60.109694 
L 185.911371 59.578025 
L 185.988503 59.653862 
L 186.297031 60.022349 
L 186.836956 60.084231 
L 187.685409 60.06962 
L 187.839673 59.932883 
L 188.302465 60.13777 
L 190.153635 60.284653 
L 190.462164 60.29535 
L 190.616428 60.758794 
L 190.69356 60.676472 
L 191.07922 60.145801 
L 192.15907 60.28155 
L 192.54473 60.06327 
L 192.698994 59.67315 
L 194.164504 60.587746 
L 194.550164 60.144719 
L 195.167221 59.931517 
L 195.321485 59.869334 
L 195.707146 60.115652 
L 196.015674 60.195936 
L 196.324202 60.430716 
L 197.249787 59.87998 
L 198.09824 60.370654 
L 198.869561 59.890552 
L 199.718014 60.289592 
L 200.412203 59.919695 
L 201.260656 60.225711 
L 201.877713 59.933106 
L 202.803298 60.153879 
L 203.343222 59.948299 
L 204.268807 60.121328 
L 204.808732 59.960926 
L 205.657185 60.118727 
L 206.274242 59.971168 
L 207.122695 60.083494 
L 207.662619 59.965447 
L 208.588204 60.051292 
L 209.128129 59.970248 
L 209.976582 60.043152 
L 210.593639 59.973498 
L 211.364959 60.032517 
L 212.059148 59.974817 
L 212.830469 60.006444 
L 213.524658 59.973904 
L 214.218847 59.995901 
L 214.990168 59.970611 
L 215.761488 59.962987 
L 216.532809 59.973192 
L 217.30413 59.937628 
L 219.001036 59.921703 
L 220.003753 59.927857 
L 220.080885 90.908024 
L 220.23515 55.013372 
L 220.543678 75.098513 
L 220.775074 78.043818 
L 221.00647 78.40666 
L 221.392131 78.269576 
L 222.240584 78.000043 
L 222.857641 77.889137 
L 223.011905 77.754174 
L 223.243301 77.838151 
L 223.397565 77.435321 
L 223.706094 77.799949 
L 224.168886 77.824291 
L 226.791377 77.779934 
L 226.945641 77.841188 
L 227.177037 77.725276 
L 227.25417 77.801469 
L 227.408434 78.110389 
L 227.716962 77.753254 
L 228.179755 77.723778 
L 228.719679 77.654964 
L 228.873943 77.644293 
L 229.10534 77.701909 
L 229.259604 77.386397 
L 229.336736 77.424677 
L 229.645264 77.73002 
L 230.725113 78.017531 
L 231.110774 77.684297 
L 231.804963 77.554351 
L 232.190623 77.847399 
L 232.422019 77.893927 
L 232.653416 78.020288 
L 233.19334 77.707168 
L 233.579001 77.632345 
L 234.041793 77.869213 
L 234.350322 77.93595 
L 235.04451 77.644649 
L 235.661567 77.898051 
L 235.970095 77.88126 
L 236.664284 77.711142 
L 237.435605 77.878872 
L 238.129794 77.739546 
L 238.901115 77.869685 
L 239.595304 77.76817 
L 240.366624 77.860881 
L 241.060813 77.794575 
L 241.832134 77.85454 
L 242.526323 77.817963 
L 243.297644 77.851389 
L 243.991833 77.83804 
L 244.763153 77.851515 
L 245.534474 77.864349 
L 246.305795 77.847779 
L 247.848437 77.8529 
L 254.019004 77.907639 
L 258.415533 77.932114 
L 258.569797 77.933067 
L 258.646929 40.005247 
L 258.801193 114.657887 
L 259.109722 82.966367 
L 259.341118 77.904022 
L 259.495382 77.379695 
L 259.649646 77.418326 
L 260.729496 78.508906 
L 260.88376 78.515322 
L 261.038024 78.481594 
L 261.423684 78.745662 
L 262.349269 78.919263 
L 262.812062 79.071375 
L 262.889194 79.487225 
L 262.966326 79.426394 
L 263.274854 79.056201 
L 263.737647 79.000142 
L 264.354704 79.01273 
L 264.508968 79.166269 
L 265.048892 78.959627 
L 266.205874 78.806665 
L 266.360138 78.723495 
L 266.82293 78.859959 
L 267.362855 78.855457 
L 267.517119 78.482594 
L 267.825648 78.844758 
L 268.365572 78.871419 
L 268.828365 78.844972 
L 269.368289 79.034049 
L 269.599686 79.455564 
L 269.985346 78.971752 
L 270.448139 78.841771 
L 270.756667 78.868654 
L 270.988063 78.575652 
L 271.065195 78.649602 
L 271.373724 78.902473 
L 271.913648 78.985895 
L 272.145045 79.256488 
L 273.147762 78.620263 
L 274.073347 79.208852 
L 274.844668 78.681102 
L 275.770253 79.114299 
L 276.387309 78.743902 
L 276.77297 78.96755 
L 277.15863 79.149061 
L 277.621423 78.894964 
L 277.929951 78.804212 
L 278.855536 79.04007 
L 279.395461 78.843716 
L 280.321046 79.030795 
L 280.86097 78.879496 
L 281.786555 79.019269 
L 282.32648 78.911944 
L 283.174933 79.033878 
L 283.79199 78.941553 
L 284.563311 79.043192 
L 285.257499 78.96832 
L 286.02882 79.034473 
L 286.723009 78.992053 
L 287.417198 79.042841 
L 288.188519 79.012607 
L 288.882708 79.038872 
L 289.654028 79.029996 
L 290.348217 79.037622 
L 291.119538 79.04442 
L 291.890859 79.031375 
L 292.816444 79.069544 
L 297.135841 79.081699 
L 297.212973 128.016669 
L 297.290105 66.667045 
L 297.367237 70.33686 
L 297.675765 116.052959 
L 297.907162 122.297457 
L 298.061426 122.925022 
L 298.21569 122.895781 
L 299.218407 121.884215 
L 299.526936 121.774739 
L 299.6812 121.877562 
L 300.06686 121.649373 
L 301.069577 121.546041 
L 301.300974 121.533406 
L 301.455238 121.034701 
L 301.53237 121.13133 
L 301.840898 121.491432 
L 302.380823 121.574306 
L 303.152144 121.583883 
L 303.306408 121.488962 
L 303.7692 121.694742 
L 305.774635 121.91004 
L 305.928899 121.955338 
L 306.083163 122.378091 
L 306.545956 121.861328 
L 307.548673 122.05163 
L 307.934333 121.917771 
L 308.165729 121.543704 
L 308.705654 121.996343 
L 309.399843 122.317228 
L 309.554107 122.454774 
L 309.939767 122.070575 
L 310.556824 121.889446 
L 310.711088 121.88311 
L 311.096749 122.126115 
L 311.405277 122.246227 
L 311.636673 122.454655 
L 312.63939 122.038401 
L 313.410711 122.497 
L 314.259164 122.155909 
L 314.953353 122.543185 
L 315.801806 122.280489 
L 316.495995 122.56931 
L 317.267316 122.37725 
L 317.961505 122.616376 
L 318.732825 122.477747 
L 319.427014 122.663555 
L 320.121203 122.550765 
L 320.892524 122.713151 
L 321.586713 122.646347 
L 322.358034 122.765817 
L 322.97509 122.719239 
L 323.823543 122.821794 
L 324.4406 122.806759 
L 325.211921 122.890688 
L 325.983242 122.906053 
L 326.67743 122.95063 
L 327.448751 122.983979 
L 328.220072 123.008046 
L 329.068525 123.077189 
L 331.305356 123.146093 
L 335.701885 123.356529 
L 335.701885 123.356529 
" clip-path="url(#p519835fba0)" style="fill: none; stroke: #ff7f0e; stroke-width: 2; stroke-linecap: square"/>
   </g>
   <g id="patch_3">
    <path d="M 52.241463 153.781683 
L 52.241463 10.8 
" style="fill: none; stroke: #000000; stroke-width: 0.8; stroke-linejoin: miter; stroke-linecap: square"/>
   </g>
   <g id="patch_4">
    <path d="M 349.2 153.781683 
L 349.2 10.8 
" style="fill: none; stroke: #000000; stroke-width: 0.8; stroke-linejoin: miter; stroke-linecap: square"/>
   </g>
   <g id="patch_5">
    <path d="M 52.241463 153.781683 
L 349.2 153.781683 
" style="fill: none; stroke: #000000; stroke-width: 0.8; stroke-linejoin: miter; stroke-linecap: square"/>
   </g>
   <g id="patch_6">
    <path d="M 52.241463 10.8 
L 349.2 10.8 
" style="fill: none; stroke: #000000; stroke-width: 0.8; stroke-linejoin: miter; stroke-linecap: square"/>
   </g>
   <g id="legend_1">
    <g id="patch_7">
     <path d="M 59.241463 106.075937 
L 108.804143 106.075937 
Q 110.804143 106.075937 110.804143 104.075937 
L 110.804143 17.8 
Q 110.804143 15.8 108.804143 15.8 
L 59.241463 15.8 
Q 57.241463 15.8 57.241463 17.8 
L 57.241463 104.075937 
Q 57.241463 106.075937 59.241463 106.075937 
z
" style="fill: #ffffff; opacity: 0.8; stroke: #cccccc; stroke-linejoin: miter"/>
    </g>
    <g id="line2d_31">
     <path d="M 61.241463 23.3 
L 71.241463 23.3 
L 81.241463 23.3 
" style="fill: none; stroke: #1f77b4; stroke-width: 1.5; stroke-linecap: square"/>
     <g>
      <use xlink:href="#mc05bbd48de" x="71.241463" y="23.3" style="fill: #1f77b4; stroke: #1f77b4"/>
     </g>
    </g>
    <g id="text_15">
     <!-- $\tau_\mathrm{ff,1}$ -->
     <g transform="translate(89.241463 26.8) scale(0.1 -0.1)">
      <defs>
       <path id="CMMI12-1c" d="M 1837 2408 
L 2899 2408 
C 2982 2408 3194 2408 3194 2612 
C 3194 2752 3072 2752 2957 2752 
L 1197 2752 
C 1050 2752 832 2752 538 2440 
C 371 2255 166 1917 166 1879 
C 166 1841 198 1828 237 1828 
C 282 1828 288 1847 320 1885 
C 653 2408 986 2408 1146 2408 
L 1677 2408 
L 1011 223 
C 979 127 979 114 979 95 
C 979 25 1024 -64 1152 -64 
C 1350 -64 1382 108 1402 203 
L 1837 2408 
z
" transform="scale(0.015625)"/>
       <path id="CMR17-b" d="M 2554 2560 
L 3283 2560 
L 3283 2725 
L 2541 2725 
L 2541 3494 
C 2541 4022 2810 4352 3085 4352 
C 3168 4352 3264 4327 3328 4282 
C 3277 4269 3142 4225 3142 4067 
C 3142 3901 3270 3850 3360 3850 
C 3450 3850 3578 3901 3578 4067 
C 3578 4308 3347 4454 3091 4454 
C 2842 4454 2637 4333 2477 4181 
C 2330 4390 2086 4454 1837 4454 
C 1338 4454 634 4168 634 3469 
L 634 2725 
L 122 2725 
L 122 2560 
L 634 2560 
L 634 427 
C 634 184 608 153 198 153 
L 198 -13 
C 352 0 634 0 794 0 
C 960 0 1242 0 1395 -13 
L 1395 153 
C 986 153 960 178 960 427 
L 960 2560 
L 2227 2560 
L 2227 427 
C 2227 184 2202 153 1792 153 
L 1792 -13 
C 1946 0 2240 0 2406 0 
C 2592 0 2918 0 3091 -13 
L 3091 153 
C 2630 153 2554 153 2554 439 
L 2554 2560 
z
M 947 2725 
L 947 3469 
C 947 4047 1395 4352 1824 4352 
C 1920 4352 2170 4332 2323 4187 
C 2208 4187 2099 4136 2099 3977 
C 2099 3812 2246 3767 2259 3767 
C 2227 3652 2227 3526 2227 3481 
L 2227 2725 
L 947 2725 
z
" transform="scale(0.015625)"/>
       <path id="CMMI12-3b" d="M 1248 -31 
C 1248 343 1126 619 864 619 
C 659 619 557 453 557 313 
C 557 172 653 0 870 0 
C 954 0 1024 26 1082 83 
C 1094 96 1101 96 1107 96 
C 1120 96 1120 5 1120 -27 
C 1120 -240 1082 -659 710 -1080 
C 640 -1157 640 -1170 640 -1183 
C 640 -1216 672 -1248 704 -1248 
C 755 -1248 1248 -771 1248 -31 
z
" transform="scale(0.015625)"/>
      </defs>
      <use xlink:href="#CMMI12-1c" transform="scale(0.996264)"/>
      <use xlink:href="#CMR17-b" transform="translate(42.363841 -14.943915) scale(0.697382)"/>
      <use xlink:href="#CMMI12-3b" transform="translate(83.138776 -14.943915) scale(0.697382)"/>
      <use xlink:href="#CMR17-31" transform="translate(102.106709 -14.943915) scale(0.697382)"/>
     </g>
    </g>
    <g id="line2d_32">
     <path d="M 61.241463 38.150395 
L 71.241463 38.150395 
L 81.241463 38.150395 
" style="fill: none; stroke: #ff7f0e; stroke-width: 1.5; stroke-linecap: square"/>
     <g>
      <use xlink:href="#m58a2489628" x="71.241463" y="38.150395" style="fill: #ff7f0e; stroke: #ff7f0e"/>
     </g>
    </g>
    <g id="text_16">
     <!-- $\tau_\mathrm{ff,2}$ -->
     <g transform="translate(89.241463 41.650395) scale(0.1 -0.1)">
      <use xlink:href="#CMMI12-1c" transform="scale(0.996264)"/>
      <use xlink:href="#CMR17-b" transform="translate(42.363841 -14.943915) scale(0.697382)"/>
      <use xlink:href="#CMMI12-3b" transform="translate(83.138776 -14.943915) scale(0.697382)"/>
      <use xlink:href="#CMR17-32" transform="translate(102.106709 -14.943915) scale(0.697382)"/>
     </g>
    </g>
    <g id="line2d_33">
     <path d="M 61.241463 53.00079 
L 71.241463 53.00079 
L 81.241463 53.00079 
" style="fill: none; stroke: #1f77b4; stroke-width: 1.5; stroke-linecap: square"/>
     <g>
      <use xlink:href="#m9a6eeb8e8e" x="71.241463" y="53.00079" style="fill: #1f77b4; stroke: #1f77b4; stroke-linejoin: miter"/>
     </g>
    </g>
    <g id="text_17">
     <!-- $\tau_{\mathrm{fb},1}$ -->
     <g transform="translate(89.241463 56.50079) scale(0.1 -0.1)">
      <defs>
       <path id="CMR17-62" d="M 960 4396 
L 198 4326 
L 198 4160 
C 576 4160 634 4122 634 3817 
L 634 -13 
L 749 -13 
L 934 441 
C 1120 141 1395 -64 1766 -64 
C 2406 -64 3053 500 3053 1370 
C 3053 2188 2477 2790 1830 2790 
C 1434 2790 1152 2579 960 2330 
L 960 4396 
z
M 973 2004 
C 973 2118 973 2138 1062 2272 
C 1312 2657 1670 2688 1792 2688 
C 1984 2688 2643 2585 2643 1376 
C 2643 108 1888 38 1734 38 
C 1536 38 1248 114 1043 486 
C 973 608 973 621 973 735 
L 973 2004 
z
" transform="scale(0.015625)"/>
      </defs>
      <use xlink:href="#CMMI12-1c" transform="scale(0.996264)"/>
      <use xlink:href="#CMR17-66" transform="translate(42.363841 -14.943915) scale(0.697382)"/>
      <use xlink:href="#CMR17-62" transform="translate(61.595205 -14.943915) scale(0.697382)"/>
      <use xlink:href="#CMMI12-3b" transform="translate(97.221813 -14.943915) scale(0.697382)"/>
      <use xlink:href="#CMR17-31" transform="translate(116.189746 -14.943915) scale(0.697382)"/>
     </g>
    </g>
    <g id="line2d_34">
     <path d="M 61.241463 67.851185 
L 71.241463 67.851185 
L 81.241463 67.851185 
" style="fill: none; stroke: #ff7f0e; stroke-width: 1.5; stroke-linecap: square"/>
     <g>
      <use xlink:href="#me4a8b3308e" x="71.241463" y="67.851185" style="fill: #ff7f0e; stroke: #ff7f0e; stroke-linejoin: miter"/>
     </g>
    </g>
    <g id="text_18">
     <!-- $\tau_{\mathrm{fb},2}$ -->
     <g transform="translate(89.241463 71.351185) scale(0.1 -0.1)">
      <use xlink:href="#CMMI12-1c" transform="scale(0.996264)"/>
      <use xlink:href="#CMR17-66" transform="translate(42.363841 -14.943915) scale(0.697382)"/>
      <use xlink:href="#CMR17-62" transform="translate(61.595205 -14.943915) scale(0.697382)"/>
      <use xlink:href="#CMMI12-3b" transform="translate(97.221813 -14.943915) scale(0.697382)"/>
      <use xlink:href="#CMR17-32" transform="translate(116.189746 -14.943915) scale(0.697382)"/>
     </g>
    </g>
    <g id="line2d_35">
     <path d="M 61.241463 82.70158 
L 71.241463 82.70158 
L 81.241463 82.70158 
" style="fill: none; stroke: #1f77b4; stroke-width: 2; stroke-linecap: square"/>
    </g>
    <g id="text_19">
     <!-- $\tau_1$ -->
     <g transform="translate(89.241463 86.20158) scale(0.1 -0.1)">
      <use xlink:href="#CMMI12-1c" transform="scale(0.996264)"/>
      <use xlink:href="#CMR17-31" transform="translate(42.363841 -14.943915) scale(0.697382)"/>
     </g>
    </g>
    <g id="line2d_36">
     <path d="M 61.241463 96.638758 
L 71.241463 96.638758 
L 81.241463 96.638758 
" style="fill: none; stroke: #ff7f0e; stroke-width: 2; stroke-linecap: square"/>
    </g>
    <g id="text_20">
     <!-- $\tau_2$ -->
     <g transform="translate(89.241463 100.138758) scale(0.1 -0.1)">
      <use xlink:href="#CMMI12-1c" transform="scale(0.996264)"/>
      <use xlink:href="#CMR17-32" transform="translate(42.363841 -14.943915) scale(0.697382)"/>
     </g>
    </g>
   </g>
  </g>
 </g>
 <defs>
  <clipPath id="p519835fba0">
   <rect x="52.241463" y="10.8" width="296.958537" height="142.981683"/>
  </clipPath>
 </defs>
</svg>
