<?xml version="1.0" encoding="utf-8" standalone="no"?>
<!DOCTYPE svg PUBLIC "-//W3C//DTD SVG 1.1//EN"
  "http://www.w3.org/Graphics/SVG/1.1/DTD/svg11.dtd">
<svg xmlns:xlink="http://www.w3.org/1999/xlink" width="360pt" height="252pt" viewBox="0 0 360 252" xmlns="http://www.w3.org/2000/svg" version="1.1">
 <metadata>
  <rdf:RDF xmlns:dc="http://purl.org/dc/elements/1.1/" xmlns:cc="http://creativecommons.org/ns#" xmlns:rdf="http://www.w3.org/1999/02/22-rdf-syntax-ns#">
   <cc:Work>
    <dc:type rdf:resource="http://purl.org/dc/dcmitype/StillImage"/>
    <dc:date>2024-10-21T20:03:22.453402</dc:date>
    <dc:format>image/svg+xml</dc:format>
    <dc:creator>
     <cc:Agent>
      <dc:title>Matplotlib v3.9.2, https://matplotlib.org/</dc:title>
     </cc:Agent>
    </dc:creator>
   </cc:Work>
  </rdf:RDF>
 </metadata>
 <defs>
  <style type="text/css">*{stroke-linejoin: round; stroke-linecap: butt}</style>
 </defs>
 <g id="figure_1">
  <g id="patch_1">
   <path d="M 0 252 
L 360 252 
L 360 0 
L 0 0 
z
" style="fill: #ffffff"/>
  </g>
  <g id="axes_1">
   <g id="patch_2">
    <path d="M 51.134499 211.381683 
L 349.2 211.381683 
L 349.2 10.8 
L 51.134499 10.8 
z
" style="fill: #ffffff"/>
   </g>
   <g id="matplotlib.axis_1">
    <g id="xtick_1">
     <g id="line2d_1">
      <path d="M 64.682931 211.381683 
L 64.682931 10.8 
" clip-path="url(#pfbdc7e327d)" style="fill: none; stroke: #b0b0b0; stroke-width: 0.8; stroke-linecap: square"/>
     </g>
     <g id="line2d_2">
      <defs>
       <path id="m8243291e07" d="M 0 0 
L 0 3.5 
" style="stroke: #000000; stroke-width: 0.8"/>
      </defs>
      <g>
       <use xlink:href="#m8243291e07" x="64.682931" y="211.381683" style="stroke: #000000; stroke-width: 0.8"/>
      </g>
     </g>
     <g id="text_1">
      <!-- $\mathdefault{0}$ -->
      <g transform="translate(62.192264 225.300182) scale(0.1 -0.1)">
       <defs>
        <path id="CMR17-30" d="M 2688 2025 
C 2688 2416 2682 3080 2413 3591 
C 2176 4039 1798 4198 1466 4198 
C 1158 4198 768 4058 525 3597 
C 269 3118 243 2524 243 2025 
C 243 1661 250 1106 448 619 
C 723 -39 1216 -128 1466 -128 
C 1760 -128 2208 -7 2470 600 
C 2662 1042 2688 1559 2688 2025 
z
M 1466 -26 
C 1056 -26 813 325 723 812 
C 653 1188 653 1738 653 2096 
C 653 2588 653 2997 736 3387 
C 858 3929 1216 4096 1466 4096 
C 1728 4096 2067 3923 2189 3400 
C 2272 3036 2278 2607 2278 2096 
C 2278 1680 2278 1169 2202 792 
C 2067 95 1690 -26 1466 -26 
z
" transform="scale(0.015625)"/>
       </defs>
       <use xlink:href="#CMR17-30" transform="scale(0.996264)"/>
      </g>
     </g>
    </g>
    <g id="xtick_2">
     <g id="line2d_3">
      <path d="M 103.392737 211.381683 
L 103.392737 10.8 
" clip-path="url(#pfbdc7e327d)" style="fill: none; stroke: #b0b0b0; stroke-width: 0.8; stroke-linecap: square"/>
     </g>
     <g id="line2d_4">
      <g>
       <use xlink:href="#m8243291e07" x="103.392737" y="211.381683" style="stroke: #000000; stroke-width: 0.8"/>
      </g>
     </g>
     <g id="text_2">
      <!-- $\mathdefault{5}$ -->
      <g transform="translate(100.902069 225.300182) scale(0.1 -0.1)">
       <defs>
        <path id="CMR17-35" d="M 730 3692 
C 794 3666 1056 3584 1325 3584 
C 1920 3584 2246 3911 2432 4100 
C 2432 4157 2432 4192 2394 4192 
C 2387 4192 2374 4192 2323 4163 
C 2099 4058 1837 3973 1517 3973 
C 1325 3973 1037 3999 723 4139 
C 653 4171 640 4171 634 4171 
C 602 4171 595 4164 595 4037 
L 595 2203 
C 595 2089 595 2057 659 2057 
C 691 2057 704 2070 736 2114 
C 941 2401 1222 2522 1542 2522 
C 1766 2522 2246 2382 2246 1289 
C 2246 1085 2246 715 2054 421 
C 1894 159 1645 25 1370 25 
C 947 25 518 320 403 814 
C 429 807 480 795 506 795 
C 589 795 749 840 749 1038 
C 749 1210 627 1280 506 1280 
C 358 1280 262 1190 262 1011 
C 262 454 704 -128 1382 -128 
C 2042 -128 2669 440 2669 1264 
C 2669 2030 2170 2624 1549 2624 
C 1222 2624 947 2503 730 2274 
L 730 3692 
z
" transform="scale(0.015625)"/>
       </defs>
       <use xlink:href="#CMR17-35" transform="scale(0.996264)"/>
      </g>
     </g>
    </g>
    <g id="xtick_3">
     <g id="line2d_5">
      <path d="M 142.102542 211.381683 
L 142.102542 10.8 
" clip-path="url(#pfbdc7e327d)" style="fill: none; stroke: #b0b0b0; stroke-width: 0.8; stroke-linecap: square"/>
     </g>
     <g id="line2d_6">
      <g>
       <use xlink:href="#m8243291e07" x="142.102542" y="211.381683" style="stroke: #000000; stroke-width: 0.8"/>
      </g>
     </g>
     <g id="text_3">
      <!-- $\mathdefault{10}$ -->
      <g transform="translate(137.121207 225.300182) scale(0.1 -0.1)">
       <defs>
        <path id="CMR17-31" d="M 1702 4058 
C 1702 4192 1696 4192 1606 4192 
C 1357 3916 979 3827 621 3827 
C 602 3827 570 3827 563 3808 
C 557 3795 557 3782 557 3648 
C 755 3648 1088 3686 1344 3839 
L 1344 461 
C 1344 236 1331 160 781 160 
L 589 160 
L 589 0 
C 896 0 1216 0 1523 0 
C 1830 0 2150 0 2458 0 
L 2458 160 
L 2266 160 
C 1715 160 1702 230 1702 458 
L 1702 4058 
z
" transform="scale(0.015625)"/>
       </defs>
       <use xlink:href="#CMR17-31" transform="scale(0.996264)"/>
       <use xlink:href="#CMR17-30" transform="translate(45.690477 0) scale(0.996264)"/>
      </g>
     </g>
    </g>
    <g id="xtick_4">
     <g id="line2d_7">
      <path d="M 180.812347 211.381683 
L 180.812347 10.8 
" clip-path="url(#pfbdc7e327d)" style="fill: none; stroke: #b0b0b0; stroke-width: 0.8; stroke-linecap: square"/>
     </g>
     <g id="line2d_8">
      <g>
       <use xlink:href="#m8243291e07" x="180.812347" y="211.381683" style="stroke: #000000; stroke-width: 0.8"/>
      </g>
     </g>
     <g id="text_4">
      <!-- $\mathdefault{15}$ -->
      <g transform="translate(175.831012 225.300182) scale(0.1 -0.1)">
       <use xlink:href="#CMR17-31" transform="scale(0.996264)"/>
       <use xlink:href="#CMR17-35" transform="translate(45.690477 0) scale(0.996264)"/>
      </g>
     </g>
    </g>
    <g id="xtick_5">
     <g id="line2d_9">
      <path d="M 219.522152 211.381683 
L 219.522152 10.8 
" clip-path="url(#pfbdc7e327d)" style="fill: none; stroke: #b0b0b0; stroke-width: 0.8; stroke-linecap: square"/>
     </g>
     <g id="line2d_10">
      <g>
       <use xlink:href="#m8243291e07" x="219.522152" y="211.381683" style="stroke: #000000; stroke-width: 0.8"/>
      </g>
     </g>
     <g id="text_5">
      <!-- $\mathdefault{20}$ -->
      <g transform="translate(214.540817 225.300182) scale(0.1 -0.1)">
       <defs>
        <path id="CMR17-32" d="M 2669 989 
L 2554 989 
C 2490 536 2438 459 2413 420 
C 2381 369 1920 369 1830 369 
L 602 369 
C 832 619 1280 1072 1824 1597 
C 2214 1967 2669 2402 2669 3035 
C 2669 3790 2067 4224 1395 4224 
C 691 4224 262 3604 262 3030 
C 262 2780 448 2748 525 2748 
C 589 2748 781 2787 781 3010 
C 781 3207 614 3264 525 3264 
C 486 3264 448 3258 422 3245 
C 544 3790 915 4058 1306 4058 
C 1862 4058 2227 3617 2227 3035 
C 2227 2479 1901 2000 1536 1584 
L 262 146 
L 262 0 
L 2515 0 
L 2669 989 
z
" transform="scale(0.015625)"/>
       </defs>
       <use xlink:href="#CMR17-32" transform="scale(0.996264)"/>
       <use xlink:href="#CMR17-30" transform="translate(45.690477 0) scale(0.996264)"/>
      </g>
     </g>
    </g>
    <g id="xtick_6">
     <g id="line2d_11">
      <path d="M 258.231958 211.381683 
L 258.231958 10.8 
" clip-path="url(#pfbdc7e327d)" style="fill: none; stroke: #b0b0b0; stroke-width: 0.8; stroke-linecap: square"/>
     </g>
     <g id="line2d_12">
      <g>
       <use xlink:href="#m8243291e07" x="258.231958" y="211.381683" style="stroke: #000000; stroke-width: 0.8"/>
      </g>
     </g>
     <g id="text_6">
      <!-- $\mathdefault{25}$ -->
      <g transform="translate(253.250622 225.300182) scale(0.1 -0.1)">
       <use xlink:href="#CMR17-32" transform="scale(0.996264)"/>
       <use xlink:href="#CMR17-35" transform="translate(45.690477 0) scale(0.996264)"/>
      </g>
     </g>
    </g>
    <g id="xtick_7">
     <g id="line2d_13">
      <path d="M 296.941763 211.381683 
L 296.941763 10.8 
" clip-path="url(#pfbdc7e327d)" style="fill: none; stroke: #b0b0b0; stroke-width: 0.8; stroke-linecap: square"/>
     </g>
     <g id="line2d_14">
      <g>
       <use xlink:href="#m8243291e07" x="296.941763" y="211.381683" style="stroke: #000000; stroke-width: 0.8"/>
      </g>
     </g>
     <g id="text_7">
      <!-- $\mathdefault{30}$ -->
      <g transform="translate(291.960428 225.300182) scale(0.1 -0.1)">
       <defs>
        <path id="CMR17-33" d="M 1414 2157 
C 1984 2157 2234 1662 2234 1090 
C 2234 320 1824 25 1453 25 
C 1114 25 563 194 390 693 
C 422 680 454 680 486 680 
C 640 680 755 782 755 948 
C 755 1133 614 1216 486 1216 
C 378 1216 211 1165 211 926 
C 211 335 787 -128 1466 -128 
C 2176 -128 2720 430 2720 1085 
C 2720 1707 2208 2157 1600 2227 
C 2086 2328 2554 2756 2554 3329 
C 2554 3820 2048 4179 1472 4179 
C 890 4179 378 3829 378 3329 
C 378 3110 544 3072 627 3072 
C 762 3072 877 3155 877 3321 
C 877 3486 762 3569 627 3569 
C 602 3569 570 3569 544 3557 
C 730 3959 1235 4032 1459 4032 
C 1683 4032 2106 3925 2106 3320 
C 2106 3143 2080 2828 1862 2550 
C 1670 2304 1453 2304 1242 2284 
C 1210 2284 1062 2269 1037 2269 
C 992 2263 966 2257 966 2208 
C 966 2163 973 2157 1101 2157 
L 1414 2157 
z
" transform="scale(0.015625)"/>
       </defs>
       <use xlink:href="#CMR17-33" transform="scale(0.996264)"/>
       <use xlink:href="#CMR17-30" transform="translate(45.690477 0) scale(0.996264)"/>
      </g>
     </g>
    </g>
    <g id="xtick_8">
     <g id="line2d_15">
      <path d="M 335.651568 211.381683 
L 335.651568 10.8 
" clip-path="url(#pfbdc7e327d)" style="fill: none; stroke: #b0b0b0; stroke-width: 0.8; stroke-linecap: square"/>
     </g>
     <g id="line2d_16">
      <g>
       <use xlink:href="#m8243291e07" x="335.651568" y="211.381683" style="stroke: #000000; stroke-width: 0.8"/>
      </g>
     </g>
     <g id="text_8">
      <!-- $\mathdefault{35}$ -->
      <g transform="translate(330.670233 225.300182) scale(0.1 -0.1)">
       <use xlink:href="#CMR17-33" transform="scale(0.996264)"/>
       <use xlink:href="#CMR17-35" transform="translate(45.690477 0) scale(0.996264)"/>
      </g>
     </g>
    </g>
    <g id="text_9">
     <!-- Time $t$ [s] -->
     <g transform="translate(178.968942 238.70934) scale(0.1 -0.1)">
      <defs>
       <path id="CMR17-54" d="M 3981 4326 
L 288 4326 
L 179 2918 
L 294 2918 
C 378 3976 467 4160 1453 4160 
C 1568 4160 1754 4160 1805 4154 
C 1926 4135 1926 4058 1926 3912 
L 1926 459 
C 1926 230 1907 160 1376 160 
L 1197 160 
L 1197 0 
C 1504 0 1824 0 2138 0 
C 2451 0 2771 0 3078 0 
L 3078 160 
L 2899 160 
C 2368 160 2349 230 2349 459 
L 2349 3912 
C 2349 4052 2349 4129 2464 4154 
C 2515 4160 2701 4160 2816 4160 
C 3795 4160 3891 3976 3974 2918 
L 4090 2918 
L 3981 4326 
z
" transform="scale(0.015625)"/>
       <path id="CMR17-69" d="M 992 3909 
C 992 4049 877 4170 730 4170 
C 589 4170 467 4056 467 3909 
C 467 3769 582 3648 730 3648 
C 870 3648 992 3763 992 3909 
z
M 243 2706 
L 243 2541 
C 602 2541 653 2502 653 2197 
L 653 427 
C 653 184 627 153 218 153 
L 218 -13 
C 371 0 646 0 806 0 
C 960 0 1222 0 1370 -13 
L 1370 153 
C 992 153 979 191 979 420 
L 979 2776 
L 243 2706 
z
" transform="scale(0.015625)"/>
       <path id="CMR17-6d" d="M 4326 1933 
C 4326 2252 4269 2790 3507 2790 
C 3072 2790 2771 2496 2656 2151 
L 2650 2151 
C 2573 2676 2195 2790 1837 2790 
C 1331 2790 1069 2400 973 2144 
L 966 2144 
L 966 2790 
L 211 2720 
L 211 2554 
C 589 2554 646 2515 646 2208 
L 646 428 
C 646 184 621 153 211 153 
L 211 -13 
C 365 0 646 0 813 0 
C 979 0 1267 0 1421 -13 
L 1421 153 
C 1011 153 986 178 986 428 
L 986 1658 
C 986 2247 1344 2688 1792 2688 
C 2266 2688 2317 2266 2317 1958 
L 2317 428 
C 2317 184 2291 153 1882 153 
L 1882 -13 
C 2035 0 2317 0 2483 0 
C 2650 0 2938 0 3091 -13 
L 3091 153 
C 2682 153 2656 178 2656 428 
L 2656 1658 
C 2656 2247 3014 2688 3462 2688 
C 3936 2688 3987 2266 3987 1958 
L 3987 428 
C 3987 184 3962 153 3552 153 
L 3552 -13 
C 3706 0 3987 0 4154 0 
C 4320 0 4608 0 4762 -13 
L 4762 153 
C 4352 153 4326 178 4326 428 
L 4326 1933 
z
" transform="scale(0.015625)"/>
       <path id="CMR17-65" d="M 2438 1472 
C 2464 1498 2464 1511 2464 1576 
C 2464 2238 2118 2816 1389 2816 
C 710 2816 173 2169 173 1383 
C 173 551 781 -64 1459 -64 
C 2176 -64 2458 607 2458 740 
C 2458 784 2419 784 2406 784 
C 2362 784 2355 771 2330 696 
C 2189 265 1837 51 1504 51 
C 1229 51 954 203 781 480 
C 582 803 582 1176 582 1472 
L 2438 1472 
z
M 589 1568 
C 634 2505 1126 2714 1382 2714 
C 1818 2714 2112 2297 2118 1568 
L 589 1568 
z
" transform="scale(0.015625)"/>
       <path id="CMMI12-74" d="M 1286 2566 
L 1875 2566 
C 1997 2566 2061 2566 2061 2681 
C 2061 2752 2022 2752 1894 2752 
L 1331 2752 
L 1568 3692 
C 1594 3781 1594 3794 1594 3840 
C 1594 3943 1510 4000 1427 4000 
C 1376 4000 1229 3981 1178 3775 
L 928 2752 
L 326 2752 
C 198 2752 141 2752 141 2630 
C 141 2566 186 2566 307 2566 
L 877 2566 
L 454 881 
C 403 658 384 594 384 511 
C 384 211 595 -64 954 -64 
C 1600 -64 1946 868 1946 912 
C 1946 951 1920 970 1882 970 
C 1869 970 1843 970 1830 944 
C 1824 938 1818 931 1773 829 
C 1638 511 1344 64 973 64 
C 781 64 768 224 768 364 
C 768 370 768 492 787 568 
L 1286 2566 
z
" transform="scale(0.015625)"/>
       <path id="CMR17-5b" d="M 1504 -1600 
L 1504 -1377 
L 902 -1377 
L 902 4544 
L 1504 4544 
L 1504 4767 
L 678 4767 
L 678 -1600 
L 1504 -1600 
z
" transform="scale(0.015625)"/>
       <path id="CMR17-73" d="M 1978 2697 
C 1978 2813 1971 2819 1933 2819 
C 1907 2819 1901 2813 1824 2717 
C 1805 2691 1747 2626 1728 2601 
C 1523 2819 1235 2819 1126 2819 
C 416 2819 160 2447 160 2076 
C 160 1498 813 1365 998 1325 
C 1402 1243 1542 1217 1677 1101 
C 1760 1025 1901 884 1901 654 
C 1901 384 1747 38 1158 38 
C 602 38 403 460 288 1021 
C 269 1110 269 1117 218 1117 
C 166 1117 160 1110 160 983 
L 160 63 
C 160 -51 166 -58 205 -58 
C 237 -58 243 -51 275 0 
C 314 57 410 211 448 276 
C 576 103 800 -64 1158 -64 
C 1792 -64 2131 283 2131 784 
C 2131 1112 1958 1285 1875 1362 
C 1683 1561 1459 1606 1190 1657 
C 838 1735 390 1825 390 2217 
C 390 2383 480 2737 1126 2737 
C 1811 2737 1850 2094 1862 1888 
C 1869 1856 1901 1849 1920 1849 
C 1978 1849 1978 1869 1978 1978 
L 1978 2697 
z
" transform="scale(0.015625)"/>
       <path id="CMR17-5d" d="M 915 4767 
L 90 4767 
L 90 4544 
L 691 4544 
L 691 -1377 
L 90 -1377 
L 90 -1600 
L 915 -1600 
L 915 4767 
z
" transform="scale(0.015625)"/>
      </defs>
      <use xlink:href="#CMR17-54" transform="scale(0.996264)"/>
      <use xlink:href="#CMR17-69" transform="translate(66.509881 0) scale(0.996264)"/>
      <use xlink:href="#CMR17-6d" transform="translate(91.380939 0) scale(0.996264)"/>
      <use xlink:href="#CMR17-65" transform="translate(168.300529 0) scale(0.996264)"/>
      <use xlink:href="#CMMI12-74" transform="translate(238.862156 0) scale(0.996264)"/>
      <use xlink:href="#CMR17-5b" transform="translate(304.164452 0) scale(0.996264)"/>
      <use xlink:href="#CMR17-73" transform="translate(329.035511 0) scale(0.996264)"/>
      <use xlink:href="#CMR17-5d" transform="translate(364.836848 0) scale(0.996264)"/>
     </g>
    </g>
   </g>
   <g id="matplotlib.axis_2">
    <g id="ytick_1">
     <g id="line2d_17">
      <path d="M 51.134499 177.440471 
L 349.2 177.440471 
" clip-path="url(#pfbdc7e327d)" style="fill: none; stroke: #b0b0b0; stroke-width: 0.8; stroke-linecap: square"/>
     </g>
     <g id="line2d_18">
      <defs>
       <path id="me9a68ad435" d="M 0 0 
L -3.5 0 
" style="stroke: #000000; stroke-width: 0.8"/>
      </defs>
      <g>
       <use xlink:href="#me9a68ad435" x="51.134499" y="177.440471" style="stroke: #000000; stroke-width: 0.8"/>
      </g>
     </g>
     <g id="text_10">
      <!-- $\mathdefault{−1.0}$ -->
      <g transform="translate(23.655677 180.899721) scale(0.1 -0.1)">
       <defs>
        <path id="CMSY10-0" d="M 4218 1472 
C 4326 1472 4442 1472 4442 1600 
C 4442 1728 4326 1728 4218 1728 
L 755 1728 
C 646 1728 531 1728 531 1600 
C 531 1472 646 1472 755 1472 
L 4218 1472 
z
" transform="scale(0.015625)"/>
        <path id="CMMI12-3a" d="M 1178 307 
C 1178 492 1024 619 870 619 
C 685 619 557 466 557 313 
C 557 128 710 0 864 0 
C 1050 0 1178 153 1178 307 
z
" transform="scale(0.015625)"/>
       </defs>
       <use xlink:href="#CMSY10-0" transform="scale(0.996264)"/>
       <use xlink:href="#CMR17-31" transform="translate(77.487468 0) scale(0.996264)"/>
       <use xlink:href="#CMMI12-3a" transform="translate(123.177945 0) scale(0.996264)"/>
       <use xlink:href="#CMR17-30" transform="translate(150.275122 0) scale(0.996264)"/>
      </g>
     </g>
    </g>
    <g id="ytick_2">
     <g id="line2d_19">
      <path d="M 51.134499 139.784945 
L 349.2 139.784945 
" clip-path="url(#pfbdc7e327d)" style="fill: none; stroke: #b0b0b0; stroke-width: 0.8; stroke-linecap: square"/>
     </g>
     <g id="line2d_20">
      <g>
       <use xlink:href="#me9a68ad435" x="51.134499" y="139.784945" style="stroke: #000000; stroke-width: 0.8"/>
      </g>
     </g>
     <g id="text_11">
      <!-- $\mathdefault{−0.5}$ -->
      <g transform="translate(23.655677 143.244195) scale(0.1 -0.1)">
       <use xlink:href="#CMSY10-0" transform="scale(0.996264)"/>
       <use xlink:href="#CMR17-30" transform="translate(77.487468 0) scale(0.996264)"/>
       <use xlink:href="#CMMI12-3a" transform="translate(123.177945 0) scale(0.996264)"/>
       <use xlink:href="#CMR17-35" transform="translate(150.275122 0) scale(0.996264)"/>
      </g>
     </g>
    </g>
    <g id="ytick_3">
     <g id="line2d_21">
      <path d="M 51.134499 102.12942 
L 349.2 102.12942 
" clip-path="url(#pfbdc7e327d)" style="fill: none; stroke: #b0b0b0; stroke-width: 0.8; stroke-linecap: square"/>
     </g>
     <g id="line2d_22">
      <g>
       <use xlink:href="#me9a68ad435" x="51.134499" y="102.12942" style="stroke: #000000; stroke-width: 0.8"/>
      </g>
     </g>
     <g id="text_12">
      <!-- $\mathdefault{0.0}$ -->
      <g transform="translate(31.40442 105.588669) scale(0.1 -0.1)">
       <use xlink:href="#CMR17-30" transform="scale(0.996264)"/>
       <use xlink:href="#CMMI12-3a" transform="translate(45.690477 0) scale(0.996264)"/>
       <use xlink:href="#CMR17-30" transform="translate(72.787654 0) scale(0.996264)"/>
      </g>
     </g>
    </g>
    <g id="ytick_4">
     <g id="line2d_23">
      <path d="M 51.134499 64.473894 
L 349.2 64.473894 
" clip-path="url(#pfbdc7e327d)" style="fill: none; stroke: #b0b0b0; stroke-width: 0.8; stroke-linecap: square"/>
     </g>
     <g id="line2d_24">
      <g>
       <use xlink:href="#me9a68ad435" x="51.134499" y="64.473894" style="stroke: #000000; stroke-width: 0.8"/>
      </g>
     </g>
     <g id="text_13">
      <!-- $\mathdefault{0.5}$ -->
      <g transform="translate(31.40442 67.933143) scale(0.1 -0.1)">
       <use xlink:href="#CMR17-30" transform="scale(0.996264)"/>
       <use xlink:href="#CMMI12-3a" transform="translate(45.690477 0) scale(0.996264)"/>
       <use xlink:href="#CMR17-35" transform="translate(72.787654 0) scale(0.996264)"/>
      </g>
     </g>
    </g>
    <g id="ytick_5">
     <g id="line2d_25">
      <path d="M 51.134499 26.818368 
L 349.2 26.818368 
" clip-path="url(#pfbdc7e327d)" style="fill: none; stroke: #b0b0b0; stroke-width: 0.8; stroke-linecap: square"/>
     </g>
     <g id="line2d_26">
      <g>
       <use xlink:href="#me9a68ad435" x="51.134499" y="26.818368" style="stroke: #000000; stroke-width: 0.8"/>
      </g>
     </g>
     <g id="text_14">
      <!-- $\mathdefault{1.0}$ -->
      <g transform="translate(31.40442 30.277617) scale(0.1 -0.1)">
       <use xlink:href="#CMR17-31" transform="scale(0.996264)"/>
       <use xlink:href="#CMMI12-3a" transform="translate(45.690477 0) scale(0.996264)"/>
       <use xlink:href="#CMR17-30" transform="translate(72.787654 0) scale(0.996264)"/>
      </g>
     </g>
    </g>
    <g id="text_15">
     <!-- Control signal $\tau$ -->
     <g transform="translate(17.718498 145.550227) rotate(-90) scale(0.1 -0.1)">
      <defs>
       <path id="CMR17-43" d="M 3974 4289 
C 3974 4403 3968 4410 3930 4410 
C 3904 4410 3898 4403 3853 4327 
L 3571 3792 
C 3258 4187 2874 4416 2381 4416 
C 1286 4416 294 3456 294 2148 
C 294 826 1286 -128 2387 -128 
C 3366 -128 3974 730 3974 1461 
C 3974 1524 3974 1550 3917 1550 
C 3866 1550 3866 1531 3859 1474 
C 3808 585 3168 38 2477 38 
C 1824 38 781 495 781 2147 
C 781 3805 1843 4250 2464 4250 
C 3187 4250 3712 3628 3834 2745 
C 3846 2668 3846 2655 3904 2655 
C 3974 2655 3974 2668 3974 2783 
L 3974 4289 
z
" transform="scale(0.015625)"/>
       <path id="CMR17-6f" d="M 2758 1356 
C 2758 2176 2163 2816 1466 2816 
C 768 2816 173 2176 173 1356 
C 173 551 768 -64 1466 -64 
C 2163 -64 2758 551 2758 1356 
z
M 1466 51 
C 1165 51 909 230 762 480 
C 602 767 582 1126 582 1408 
C 582 1677 595 2010 762 2298 
C 890 2509 1139 2714 1466 2714 
C 1754 2714 1997 2554 2150 2330 
C 2349 2029 2349 1607 2349 1408 
C 2349 1158 2336 775 2163 467 
C 1984 173 1709 51 1466 51 
z
" transform="scale(0.015625)"/>
       <path id="CMR17-6e" d="M 2656 1933 
C 2656 2259 2592 2790 1837 2790 
C 1331 2790 1069 2400 973 2144 
L 966 2144 
L 966 2790 
L 211 2720 
L 211 2554 
C 589 2554 646 2515 646 2208 
L 646 428 
C 646 184 621 153 211 153 
L 211 -13 
C 365 0 646 0 813 0 
C 979 0 1267 0 1421 -13 
L 1421 153 
C 1011 153 986 178 986 428 
L 986 1658 
C 986 2247 1344 2688 1792 2688 
C 2266 2688 2317 2266 2317 1958 
L 2317 428 
C 2317 184 2291 153 1882 153 
L 1882 -13 
C 2035 0 2317 0 2483 0 
C 2650 0 2938 0 3091 -13 
L 3091 153 
C 2682 153 2656 178 2656 428 
L 2656 1933 
z
" transform="scale(0.015625)"/>
       <path id="CMR17-74" d="M 966 2560 
L 1862 2560 
L 1862 2725 
L 966 2725 
L 966 3904 
L 851 3904 
C 838 3245 614 2668 70 2668 
L 70 2560 
L 627 2560 
L 627 771 
C 627 650 627 -64 1370 -64 
C 1747 -64 1965 306 1965 777 
L 1965 1140 
L 1850 1140 
L 1850 783 
C 1850 344 1677 51 1408 51 
C 1222 51 966 178 966 758 
L 966 2560 
z
" transform="scale(0.015625)"/>
       <path id="CMR17-72" d="M 960 1497 
C 960 2112 1222 2688 1702 2688 
C 1747 2688 1792 2682 1837 2662 
C 1837 2662 1696 2617 1696 2452 
C 1696 2298 1818 2234 1914 2234 
C 1990 2234 2131 2279 2131 2458 
C 2131 2663 1926 2790 1709 2790 
C 1222 2790 1011 2317 947 2093 
L 941 2093 
L 941 2790 
L 198 2720 
L 198 2554 
C 576 2554 634 2515 634 2208 
L 634 428 
C 634 184 608 153 198 153 
L 198 -13 
C 352 0 646 0 813 0 
C 998 0 1325 0 1498 -13 
L 1498 153 
C 1037 153 960 153 960 440 
L 960 1497 
z
" transform="scale(0.015625)"/>
       <path id="CMR17-6c" d="M 979 4396 
L 218 4326 
L 218 4160 
C 595 4160 653 4122 653 3817 
L 653 426 
C 653 184 627 153 218 153 
L 218 -13 
C 371 0 653 0 813 0 
C 979 0 1261 0 1414 -13 
L 1414 153 
C 1005 153 979 178 979 426 
L 979 4396 
z
" transform="scale(0.015625)"/>
       <path id="CMR17-67" d="M 710 1164 
C 832 1068 1043 960 1299 960 
C 1805 960 2240 1357 2240 1888 
C 2240 2054 2189 2310 1997 2509 
C 2176 2692 2438 2752 2586 2752 
C 2611 2752 2650 2752 2682 2734 
C 2656 2728 2598 2703 2598 2605 
C 2598 2527 2656 2471 2739 2471 
C 2835 2471 2886 2533 2886 2614 
C 2886 2731 2790 2854 2586 2854 
C 2330 2854 2106 2738 1926 2580 
C 1734 2753 1504 2816 1299 2816 
C 794 2816 358 2419 358 1888 
C 358 1522 570 1292 634 1228 
C 442 1004 442 743 442 711 
C 442 545 506 302 723 168 
C 390 85 128 -169 128 -486 
C 128 -943 736 -1280 1466 -1280 
C 2170 -1280 2803 -956 2803 -479 
C 2803 384 1856 384 1363 384 
C 1216 384 954 384 922 391 
C 723 423 589 602 589 826 
C 589 883 589 1024 710 1164 
z
M 1299 1068 
C 736 1068 736 1760 736 1889 
C 736 2016 736 2708 1299 2708 
C 1862 2708 1862 2016 1862 1889 
C 1862 1760 1862 1068 1299 1068 
z
M 1466 -1171 
C 826 -1171 384 -835 384 -486 
C 384 -289 493 -105 634 -4 
C 794 104 858 104 1293 104 
C 1818 104 2547 104 2547 -486 
C 2547 -835 2106 -1171 1466 -1171 
z
" transform="scale(0.015625)"/>
       <path id="CMR17-61" d="M 2304 1653 
C 2304 2072 2304 2294 2035 2543 
C 1798 2752 1523 2816 1306 2816 
C 800 2816 435 2407 435 1971 
C 435 1728 627 1728 666 1728 
C 749 1728 896 1778 896 1954 
C 896 2112 774 2181 666 2181 
C 640 2181 608 2174 589 2168 
C 723 2592 1069 2714 1293 2714 
C 1613 2714 1965 2429 1965 1885 
L 1965 1600 
C 1587 1600 1133 1549 774 1357 
C 371 1133 256 813 256 570 
C 256 77 832 -64 1171 -64 
C 1523 -64 1850 139 1990 511 
C 2003 233 2182 -18 2464 -18 
C 2598 -18 2938 70 2938 567 
L 2938 920 
L 2822 920 
L 2822 562 
C 2822 178 2650 128 2566 128 
C 2304 128 2304 458 2304 738 
L 2304 1653 
z
M 1965 870 
C 1965 317 1568 38 1216 38 
C 896 38 646 275 646 570 
C 646 761 730 1100 1101 1305 
C 1408 1478 1760 1504 1965 1504 
L 1965 870 
z
" transform="scale(0.015625)"/>
       <path id="CMMI12-1c" d="M 1837 2408 
L 2899 2408 
C 2982 2408 3194 2408 3194 2612 
C 3194 2752 3072 2752 2957 2752 
L 1197 2752 
C 1050 2752 832 2752 538 2440 
C 371 2255 166 1917 166 1879 
C 166 1841 198 1828 237 1828 
C 282 1828 288 1847 320 1885 
C 653 2408 986 2408 1146 2408 
L 1677 2408 
L 1011 223 
C 979 127 979 114 979 95 
C 979 25 1024 -64 1152 -64 
C 1350 -64 1382 108 1402 203 
L 1837 2408 
z
" transform="scale(0.015625)"/>
      </defs>
      <use xlink:href="#CMR17-43" transform="scale(0.996264)"/>
      <use xlink:href="#CMR17-6f" transform="translate(66.509881 0) scale(0.996264)"/>
      <use xlink:href="#CMR17-6e" transform="translate(112.200358 0) scale(0.996264)"/>
      <use xlink:href="#CMR17-74" transform="translate(160.493274 0) scale(0.996264)"/>
      <use xlink:href="#CMR17-72" transform="translate(195.774041 0) scale(0.996264)"/>
      <use xlink:href="#CMR17-6f" transform="translate(231.054809 0) scale(0.996264)"/>
      <use xlink:href="#CMR17-6c" transform="translate(276.745286 0) scale(0.996264)"/>
      <use xlink:href="#CMR17-73" transform="translate(331.692311 0) scale(0.996264)"/>
      <use xlink:href="#CMR17-69" transform="translate(367.493649 0) scale(0.996264)"/>
      <use xlink:href="#CMR17-67" transform="translate(392.364707 0) scale(0.996264)"/>
      <use xlink:href="#CMR17-6e" transform="translate(438.055184 0) scale(0.996264)"/>
      <use xlink:href="#CMR17-61" transform="translate(488.950554 0) scale(0.996264)"/>
      <use xlink:href="#CMR17-6c" transform="translate(534.641031 0) scale(0.996264)"/>
      <use xlink:href="#CMMI12-1c" transform="translate(589.588056 0) scale(0.996264)"/>
     </g>
    </g>
   </g>
   <g id="line2d_27">
    <path d="M 64.682931 116.45007 
L 64.83777 104.140136 
L 65.070029 102.414901 
L 65.534547 103.515607 
L 66.231323 103.955671 
L 67.00552 104.138199 
L 68.011975 104.176375 
L 78.386202 104.135434 
L 80.244273 104.13237 
L 83.031379 104.138261 
L 85.663646 104.143415 
L 89.844305 104.138034 
L 92.941089 104.131121 
L 103.392737 104.138326 
L 103.470156 93.960922 
L 103.547576 97.393352 
L 103.702415 101.658314 
L 103.779835 101.813878 
L 104.244352 99.393612 
L 104.78629 98.676409 
L 105.328227 98.362113 
L 106.257262 98.181507 
L 106.876619 98.167906 
L 111.212117 98.175266 
L 112.141153 98.16675 
L 116.399231 98.194445 
L 118.257302 98.169726 
L 124.52829 98.179976 
L 126.076682 98.196241 
L 130.412181 98.179214 
L 131.960573 98.196018 
L 136.373491 98.184722 
L 137.921883 98.193827 
L 140.167052 98.196146 
L 142.102542 98.173243 
L 142.179961 103.127141 
L 142.257381 102.581372 
L 142.41222 102.149758 
L 143.108997 102.638395 
L 143.960612 102.766477 
L 145.121907 102.777295 
L 147.986432 102.766213 
L 180.812347 102.746178 
L 180.889767 94.431428 
L 180.967186 97.440983 
L 181.199445 101.763266 
L 181.741382 99.338251 
L 182.28332 98.699076 
L 182.902677 98.397789 
L 183.754292 98.281834 
L 188.012371 98.260836 
L 189.173665 98.2808 
L 191.341414 98.28012 
L 193.122065 98.26042 
L 194.747877 98.261786 
L 196.373689 98.281715 
L 199.625312 98.271883 
L 201.173705 98.27877 
L 203.264034 98.278206 
L 205.97372 98.274035 
L 207.676952 98.257225 
L 209.689862 98.260207 
L 211.393093 98.269291 
L 212.941485 98.278782 
L 215.806011 98.253245 
L 219.522152 98.260044 
L 219.599572 98.63863 
L 219.831831 102.229959 
L 219.90925 102.212733 
L 220.296348 101.081181 
L 220.993125 100.640799 
L 221.689901 100.495409 
L 226.412498 100.47843 
L 227.264113 100.460753 
L 241.586741 100.477753 
L 244.451267 100.47568 
L 248.089989 100.471728 
L 258.231958 100.473089 
L 258.309377 108.927995 
L 258.386797 106.104783 
L 258.541636 102.468153 
L 258.619056 102.380605 
L 259.083573 104.561407 
L 259.625511 105.198634 
L 260.244867 105.510474 
L 261.096483 105.633207 
L 268.451346 105.646943 
L 269.76748 105.63797 
L 271.393291 105.640222 
L 273.096523 105.654178 
L 275.032013 105.648409 
L 276.657825 105.651158 
L 278.438476 105.642235 
L 280.141707 105.651459 
L 281.999778 105.647335 
L 283.703009 105.646658 
L 285.406241 105.642706 
L 287.186892 105.646291 
L 288.890123 105.643296 
L 290.593355 105.650513 
L 292.374006 105.643992 
L 294.077237 105.649947 
L 295.857888 105.644751 
L 296.941763 105.640461 
L 297.019182 95.386336 
L 297.096602 98.503263 
L 297.251441 101.97765 
L 297.328861 101.926255 
L 297.715959 99.824991 
L 298.257896 99.152078 
L 298.799834 98.836336 
L 299.651449 98.654342 
L 300.503065 98.631718 
L 317.612799 98.662901 
L 320.399905 98.657844 
L 323.032172 98.652604 
L 327.135411 98.660724 
L 329.922517 98.655896 
L 332.941882 98.655173 
L 335.651568 98.658918 
L 335.651568 98.658918 
" clip-path="url(#pfbdc7e327d)" style="fill: none; stroke: #1f77b4; stroke-width: 2; stroke-linecap: square"/>
   </g>
   <g id="line2d_28">
    <path d="M 64.682931 98.807354 
L 64.760351 98.334034 
L 64.83777 98.510785 
L 65.070029 98.969809 
L 66.541002 98.812008 
L 71.031339 98.768723 
L 76.682971 98.760672 
L 84.115254 98.759711 
L 94.876579 98.758028 
L 103.392737 98.756967 
L 103.470156 113.837678 
L 103.547576 113.155415 
L 103.779835 111.950537 
L 104.476611 112.271857 
L 106.025003 112.318684 
L 142.102542 112.533404 
L 142.179961 104.276166 
L 142.257381 104.384572 
L 142.48964 104.492549 
L 143.341256 104.41994 
L 147.212236 104.38046 
L 160.218731 104.448069 
L 169.431664 104.505394 
L 180.812347 104.572919 
L 180.889767 110.36559 
L 180.967186 109.782288 
L 181.199445 108.632132 
L 182.2059 108.963533 
L 184.760747 109.019368 
L 201.173705 109.086967 
L 218.438278 109.139562 
L 219.522152 109.143533 
L 219.676992 100.768626 
L 219.90925 100.265043 
L 220.528607 100.438641 
L 222.928615 100.542899 
L 230.051219 100.55929 
L 238.567377 100.522068 
L 257.225503 100.447519 
L 258.231958 100.443821 
L 258.309377 96.404783 
L 258.386797 96.946756 
L 258.619056 97.94852 
L 259.315832 97.647995 
L 260.941644 97.560793 
L 267.831989 97.507862 
L 275.419111 97.496174 
L 291.057872 97.483485 
L 296.941763 97.477338 
L 297.019182 107.146245 
L 297.096602 106.530169 
L 297.328861 105.569775 
L 297.793379 105.866302 
L 299.806288 105.985106 
L 310.257936 106.044892 
L 335.651568 106.053293 
L 335.651568 106.053293 
" clip-path="url(#pfbdc7e327d)" style="fill: none; stroke: #ff7f0e; stroke-width: 2; stroke-linecap: square"/>
   </g>
   <g id="line2d_29">
    <path d="M 64.682931 19.917349 
L 64.760351 86.165029 
L 64.83777 74.538221 
L 65.147449 47.542166 
L 65.379708 42.801887 
L 65.611967 41.435041 
L 65.844225 41.034982 
L 66.231323 40.883386 
L 69.173269 40.391129 
L 70.257143 40.170329 
L 70.79908 40.082774 
L 72.734571 39.794665 
L 73.741026 39.630937 
L 74.437802 39.474529 
L 80.708791 38.643664 
L 82.179763 38.465969 
L 83.882995 38.244817 
L 85.741065 38.051556 
L 87.289458 37.880011 
L 89.224948 37.693059 
L 90.928179 37.545977 
L 93.328187 37.341025 
L 103.392737 36.610346 
L 103.547576 110.34572 
L 104.012093 61.792981 
L 104.399191 62.868902 
L 104.863709 63.949748 
L 105.250807 64.18554 
L 106.257262 64.050225 
L 106.489521 63.913065 
L 106.954039 63.987421 
L 108.57985 63.901861 
L 108.812109 63.960964 
L 109.354047 63.71164 
L 110.59276 63.668205 
L 110.825019 63.655137 
L 111.599215 63.425787 
L 112.295992 63.475075 
L 112.915349 63.294945 
L 113.534706 63.354164 
L 114.154062 63.172444 
L 114.773419 63.226502 
L 115.392776 63.061687 
L 115.934713 63.128618 
L 116.63149 62.958978 
L 117.173427 63.003634 
L 117.792784 62.845214 
L 118.412141 62.880577 
L 118.954078 62.737984 
L 119.573435 62.789849 
L 120.192792 62.650725 
L 120.734729 62.701084 
L 121.354086 62.551865 
L 121.973443 62.587857 
L 122.51538 62.457256 
L 123.134737 62.505684 
L 123.754094 62.382245 
L 124.296031 62.426058 
L 124.915388 62.294046 
L 125.457326 62.348954 
L 126.076682 62.209219 
L 126.696039 62.248514 
L 127.237977 62.127619 
L 127.857333 62.177774 
L 128.399271 62.049131 
L 129.018628 62.109474 
L 129.637985 61.989427 
L 130.179922 62.043512 
L 130.799279 61.915741 
L 131.341216 61.979779 
L 132.037992 61.86353 
L 132.50251 61.918154 
L 133.199287 61.794456 
L 133.741224 61.835515 
L 134.360581 61.727792 
L 134.902518 61.779411 
L 135.521875 61.663472 
L 136.063812 61.725252 
L 136.683169 61.60144 
L 137.302526 61.648134 
L 137.844463 61.541651 
L 138.46382 61.598824 
L 139.005757 61.48407 
L 139.625114 61.551295 
L 140.244471 61.446354 
L 140.786408 61.505442 
L 141.405765 61.392007 
L 141.947703 61.461155 
L 142.102542 61.407816 
L 142.257381 118.907344 
L 142.48964 124.406519 
L 142.721899 126.02808 
L 142.954158 126.529605 
L 143.263836 126.705772 
L 144.115452 126.800938 
L 147.212236 127.026448 
L 150.38644 127.237435 
L 170.592958 128.116327 
L 180.812347 128.392287 
L 180.967186 90.658909 
L 181.354284 33.626483 
L 181.509124 32.173995 
L 181.741382 31.911275 
L 181.896222 32.109614 
L 182.28332 32.717382 
L 182.747837 32.880229 
L 183.676873 32.615234 
L 183.909131 32.512019 
L 184.29623 32.538244 
L 185.999461 32.305803 
L 186.1543 32.369335 
L 186.928496 31.997801 
L 187.934951 31.883723 
L 188.16721 31.872093 
L 188.941406 31.572715 
L 189.638183 31.575699 
L 190.334959 31.342756 
L 190.954316 31.321418 
L 191.573673 31.127156 
L 192.11561 31.13814 
L 192.812387 30.926868 
L 193.354324 30.921842 
L 193.973681 30.72575 
L 194.593038 30.710892 
L 195.134975 30.534895 
L 195.754332 30.540532 
L 196.373689 30.361891 
L 196.915626 30.374579 
L 197.612403 30.197936 
L 198.07692 30.2133 
L 198.773697 30.028477 
L 199.315634 30.028596 
L 199.934991 29.865636 
L 200.476928 29.879486 
L 201.096285 29.709041 
L 201.715642 29.705144 
L 202.257579 29.558387 
L 202.876936 29.56737 
L 203.496293 29.425283 
L 204.03823 29.434344 
L 204.657587 29.284955 
L 205.199524 29.305904 
L 205.818881 29.149737 
L 206.438238 29.15294 
L 206.980175 29.019455 
L 207.599532 29.034586 
L 208.14147 28.893954 
L 208.760826 28.92044 
L 209.380183 28.785829 
L 209.922121 28.810325 
L 210.541478 28.668587 
L 211.083415 28.704057 
L 211.702772 28.555552 
L 212.322129 28.574451 
L 212.864066 28.446611 
L 213.483423 28.476787 
L 214.10278 28.356039 
L 214.644717 28.382613 
L 215.264074 28.254158 
L 215.806011 28.291761 
L 216.425368 28.155897 
L 217.044725 28.177411 
L 217.586662 28.061169 
L 218.206019 28.094023 
L 218.747956 27.969893 
L 219.367313 28.01364 
L 219.522152 27.954819 
L 219.676992 130.089499 
L 219.754411 133.068308 
L 219.831831 132.828644 
L 219.90925 132.360237 
L 220.06409 133.846308 
L 220.296348 135.751696 
L 220.683446 136.441471 
L 220.993125 136.690107 
L 221.457643 136.759003 
L 223.702811 137.095054 
L 224.089909 137.21755 
L 224.477007 137.156068 
L 224.941525 137.09145 
L 225.173784 137.135165 
L 225.793141 137.385417 
L 226.102819 137.334771 
L 226.644757 137.274206 
L 227.341533 137.482829 
L 227.96089 137.415551 
L 228.657666 137.569749 
L 229.277023 137.558985 
L 229.89638 137.662745 
L 230.438317 137.650359 
L 231.057674 137.759362 
L 231.677031 137.765275 
L 232.218968 137.849107 
L 232.838325 137.8555 
L 233.457682 137.923719 
L 233.99962 137.943928 
L 234.618976 138.004804 
L 235.160914 138.030068 
L 235.702851 138.092062 
L 236.322208 138.113716 
L 236.864145 138.166086 
L 237.483502 138.194782 
L 238.025439 138.23708 
L 238.644796 138.273223 
L 239.186733 138.305248 
L 239.728671 138.330724 
L 240.348028 138.37079 
L 240.889965 138.404545 
L 241.509322 138.433918 
L 242.051259 138.475844 
L 242.670616 138.494853 
L 243.212553 138.54459 
L 243.83191 138.553829 
L 244.451267 138.624411 
L 245.84482 138.692499 
L 246.696436 138.734928 
L 248.089989 138.800803 
L 249.019024 138.847916 
L 251.80613 138.924496 
L 253.509361 139.034236 
L 256.141628 139.110143 
L 256.915824 139.16103 
L 258.231958 139.199907 
L 258.309377 118.866918 
L 258.386797 128.914009 
L 258.464216 127.963031 
L 258.696475 108.743899 
L 258.773895 108.181082 
L 259.160993 110.509006 
L 259.70293 111.755234 
L 260.090028 111.990027 
L 261.019064 111.957786 
L 261.173903 111.905372 
L 261.71584 112.055927 
L 263.341652 112.242034 
L 263.496491 112.280924 
L 264.038428 112.116032 
L 265.973919 112.117503 
L 266.283597 112.134031 
L 266.902954 112.264602 
L 267.522311 112.144363 
L 268.219087 112.26484 
L 268.761025 112.173392 
L 269.380382 112.299758 
L 269.999738 112.207136 
L 270.619095 112.307347 
L 271.238452 112.243129 
L 271.780389 112.331982 
L 272.399746 112.256862 
L 273.019103 112.33454 
L 273.56104 112.27198 
L 274.180397 112.355242 
L 274.722335 112.287703 
L 275.341692 112.374212 
L 275.961048 112.324381 
L 276.502986 112.391846 
L 277.122343 112.339509 
L 277.66428 112.408394 
L 278.283637 112.354534 
L 278.825574 112.424026 
L 279.444931 112.369348 
L 279.986868 112.438855 
L 280.606225 112.383885 
L 281.148162 112.452965 
L 281.767519 112.398103 
L 282.309456 112.466419 
L 282.928813 112.411979 
L 283.470751 112.479264 
L 284.090108 112.425498 
L 284.632045 112.491541 
L 285.251402 112.438655 
L 285.793339 112.503282 
L 286.412696 112.451447 
L 286.954633 112.514516 
L 287.57399 112.463877 
L 288.115927 112.525269 
L 288.735284 112.475948 
L 289.277221 112.535564 
L 289.896578 112.487667 
L 290.438516 112.545422 
L 291.057872 112.499041 
L 291.59981 112.554863 
L 292.219167 112.510075 
L 292.761104 112.563904 
L 293.380461 112.52078 
L 293.922398 112.572563 
L 294.464335 112.511562 
L 295.083692 112.580855 
L 295.62563 112.521492 
L 296.244986 112.588797 
L 296.786924 112.531117 
L 296.941763 112.573138 
L 297.019182 110.453072 
L 297.096602 116.497838 
L 297.174022 112.41809 
L 297.406281 89.76135 
L 297.4837 89.108304 
L 297.715959 90.198448 
L 297.948218 90.473522 
L 298.335316 91.196455 
L 298.799834 91.442029 
L 299.728869 91.334627 
L 299.883708 91.281336 
L 300.348226 91.392714 
L 302.051457 91.485404 
L 302.206296 91.518052 
L 302.748234 91.32269 
L 303.52243 91.304781 
L 304.296626 91.319479 
L 304.993402 91.223556 
L 305.690179 91.266604 
L 306.232116 91.173316 
L 306.851473 91.24598 
L 307.47083 91.145063 
L 308.090187 91.191987 
L 308.632124 91.106028 
L 309.251481 91.158923 
L 309.793418 91.071853 
L 310.412775 91.124417 
L 311.032132 91.056745 
L 311.574069 91.089642 
L 312.193426 91.027068 
L 312.735363 91.05514 
L 313.35472 90.999396 
L 313.896658 91.021155 
L 314.438595 90.958047 
L 315.057952 90.987803 
L 315.599889 90.933539 
L 316.219246 90.955141 
L 316.761183 90.910372 
L 317.38054 90.923206 
L 317.922477 90.888468 
L 318.464415 90.910139 
L 319.083771 90.867744 
L 319.625709 90.879764 
L 320.245066 90.848108 
L 320.787003 90.850091 
L 321.32894 90.815097 
L 321.948297 90.821146 
L 322.490234 90.797301 
L 323.032172 90.809878 
L 323.651529 90.780467 
L 324.193466 90.782475 
L 324.735403 90.75083 
L 325.35476 90.755731 
L 325.896697 90.735532 
L 326.438635 90.745744 
L 327.057991 90.721093 
L 327.599929 90.720452 
L 328.141866 90.694211 
L 328.761223 90.695769 
L 329.30316 90.681117 
L 329.845097 90.687127 
L 330.464454 90.668764 
L 331.006392 90.663763 
L 331.548329 90.644227 
L 332.167686 90.640989 
L 332.709623 90.633083 
L 333.25156 90.633635 
L 333.870917 90.622545 
L 334.412854 90.612037 
L 334.954792 90.600079 
L 335.574149 90.591047 
L 335.651568 90.577505 
L 335.651568 90.577505 
" clip-path="url(#pfbdc7e327d)" style="fill: none; stroke: #2ca02c; stroke-width: 2; stroke-linecap: square"/>
   </g>
   <g id="line2d_30">
    <path d="M 64.682931 94.195758 
L 64.760351 102.685683 
L 64.83777 102.219345 
L 65.070029 101.426492 
L 65.689386 101.452845 
L 67.237778 101.34093 
L 73.121669 101.401466 
L 77.457167 101.405264 
L 103.392737 101.402064 
L 103.470156 99.884317 
L 103.702415 102.821634 
L 103.779835 102.94758 
L 103.857254 102.869803 
L 104.166933 102.53158 
L 105.560486 102.519663 
L 123.444416 102.468365 
L 127.392816 102.469693 
L 131.650894 102.466886 
L 135.444455 102.47188 
L 142.102542 102.462601 
L 142.48964 101.848841 
L 143.031577 101.83461 
L 144.579969 101.777532 
L 149.844503 101.8042 
L 180.812347 101.807675 
L 180.889767 100.055252 
L 181.122026 102.798832 
L 181.199445 102.936172 
L 181.276865 102.873318 
L 181.586543 102.558639 
L 182.902677 102.551952 
L 219.522152 102.494126 
L 219.599572 100.799904 
L 219.676992 101.355854 
L 219.831831 101.962359 
L 219.98667 101.820648 
L 220.296348 101.500645 
L 221.225384 101.257617 
L 222.309258 101.21478 
L 238.877055 101.247007 
L 252.580326 101.247092 
L 258.231958 101.24734 
L 258.309377 104.014363 
L 258.386797 102.88905 
L 258.619056 101.421297 
L 259.083573 101.831585 
L 273.948139 101.911778 
L 280.373966 101.905078 
L 288.735284 101.904675 
L 296.399826 101.909953 
L 296.941763 101.906433 
L 297.019182 100.309301 
L 297.251441 102.817586 
L 297.328861 102.865488 
L 297.715959 102.459181 
L 300.193387 102.440227 
L 303.057912 102.411662 
L 305.070822 102.415612 
L 312.812783 102.409331 
L 319.31603 102.410612 
L 327.522509 102.409526 
L 335.651568 102.411965 
L 335.651568 102.411965 
" clip-path="url(#pfbdc7e327d)" style="fill: none; stroke: #d62728; stroke-width: 2; stroke-linecap: square"/>
   </g>
   <g id="line2d_31">
    <path d="M 64.682931 114.665583 
L 64.760351 111.551787 
L 64.91519 116.172674 
L 65.302288 114.139454 
L 65.611967 114.36204 
L 67.934555 114.362369 
L 103.392737 114.455985 
L 103.470156 113.644289 
L 103.624995 105.176648 
L 103.934674 110.290258 
L 104.012093 110.344765 
L 104.321772 109.905404 
L 105.560486 109.889269 
L 142.102542 109.946965 
L 142.179961 95.730702 
L 142.257381 96.387271 
L 142.334801 96.27638 
L 142.567059 95.504471 
L 142.799318 95.55435 
L 143.186416 95.578746 
L 149.379985 95.575062 
L 152.167091 95.580375 
L 155.109036 95.556182 
L 158.36066 95.555036 
L 162.076801 95.548499 
L 165.405845 95.542504 
L 176.476849 95.533974 
L 180.19299 95.521852 
L 180.812347 95.532524 
L 180.889767 104.462698 
L 181.044606 95.632186 
L 181.431704 100.376043 
L 181.818802 99.967159 
L 183.212355 99.956503 
L 202.412418 99.954213 
L 205.044685 99.957634 
L 207.289854 99.957964 
L 219.522152 99.93449 
L 219.599572 105.100948 
L 219.754411 101.115522 
L 220.06409 103.750534 
L 220.218929 103.602193 
L 220.451188 103.449413 
L 221.612482 103.447288 
L 222.076999 103.459364 
L 226.799596 103.457571 
L 229.818961 103.457175 
L 231.98671 103.46373 
L 236.322208 103.458911 
L 240.038349 103.462294 
L 244.451267 103.463427 
L 258.231958 103.46179 
L 258.309377 99.822805 
L 258.464216 107.710233 
L 258.773895 103.229715 
L 258.851314 103.209554 
L 259.160993 103.639451 
L 264.735205 103.644231 
L 273.019103 103.650291 
L 275.496531 103.656795 
L 278.283637 103.649613 
L 280.915904 103.641274 
L 285.483661 103.642997 
L 296.941763 103.649861 
L 297.019182 114.711293 
L 297.174022 107.838779 
L 297.4837 112.662133 
L 297.56112 112.608052 
L 297.870798 112.127624 
L 299.109512 112.135987 
L 335.651568 112.211252 
L 335.651568 112.211252 
" clip-path="url(#pfbdc7e327d)" style="fill: none; stroke: #9467bd; stroke-width: 2; stroke-linecap: square"/>
   </g>
   <g id="line2d_32">
    <path d="M 64.682931 202.264334 
L 64.760351 135.363483 
L 64.83777 149.431619 
L 65.070029 167.66184 
L 65.379708 174.527793 
L 65.689386 176.858486 
L 65.999065 177.578248 
L 66.386163 177.901106 
L 67.160359 178.172933 
L 72.579732 179.581818 
L 79.624916 181.023683 
L 86.437842 182.125399 
L 94.412062 183.128619 
L 103.160478 183.958354 
L 103.392737 183.976389 
L 103.470156 89.597551 
L 103.547576 89.597933 
L 103.702415 70.190164 
L 103.934674 44.05781 
L 104.166933 39.538563 
L 104.399191 38.990037 
L 104.63145 39.087914 
L 105.173388 39.457327 
L 105.637905 39.492866 
L 106.799199 39.242813 
L 112.295992 38.053578 
L 126.850879 35.726491 
L 128.786369 35.484367 
L 133.741224 34.956546 
L 137.070267 34.645128 
L 142.102542 34.247111 
L 142.257381 122.154675 
L 142.48964 131.030777 
L 142.799318 134.574764 
L 143.108997 135.475223 
L 143.418675 135.723973 
L 144.115452 135.877546 
L 147.676754 136.323936 
L 156.192911 137.153369 
L 164.709068 137.7751 
L 178.025241 138.451211 
L 180.812347 138.556585 
L 180.889767 94.892776 
L 180.967186 95.995401 
L 181.122026 80.531836 
L 181.354284 57.70927 
L 181.586543 53.743819 
L 181.818802 53.366588 
L 182.051061 53.512714 
L 182.592998 53.890614 
L 183.134935 53.937415 
L 185.534943 53.555621 
L 187.625273 53.18672 
L 193.664002 52.263185 
L 196.605948 51.859646 
L 198.386599 51.653576 
L 200.941446 51.369065 
L 206.438238 50.807258 
L 209.225344 50.584898 
L 213.715682 50.238655 
L 216.270529 50.071974 
L 219.522152 49.862767 
L 219.676992 109.64874 
L 219.754411 110.349799 
L 220.141509 105.026128 
L 220.373768 105.021651 
L 221.844741 105.231776 
L 234.077039 105.430218 
L 236.786725 105.440718 
L 241.122224 105.463736 
L 258.231958 105.529794 
L 258.309377 95.726312 
L 258.386797 98.152274 
L 258.464216 95.2019 
L 258.773895 69.668525 
L 259.006154 66.946708 
L 259.238413 66.66499 
L 259.548091 66.802173 
L 260.090028 67.03906 
L 260.709385 67.027493 
L 268.373927 66.083487 
L 270.077158 65.896716 
L 272.322327 65.663137 
L 276.425566 65.258371 
L 296.941763 63.96343 
L 297.096602 127.260759 
L 297.174022 130.365942 
L 297.4837 117.082133 
L 297.56112 116.975657 
L 298.103057 118.636946 
L 298.490155 119.132413 
L 298.954673 119.362889 
L 299.883708 119.46114 
L 301.50952 119.584784 
L 303.212751 119.669058 
L 307.315991 119.825063 
L 335.651568 120.466848 
L 335.651568 120.466848 
" clip-path="url(#pfbdc7e327d)" style="fill: none; stroke: #8c564b; stroke-width: 2; stroke-linecap: square"/>
   </g>
   <g id="patch_3">
    <path d="M 51.134499 211.381683 
L 51.134499 10.8 
" style="fill: none; stroke: #000000; stroke-width: 0.8; stroke-linejoin: miter; stroke-linecap: square"/>
   </g>
   <g id="patch_4">
    <path d="M 349.2 211.381683 
L 349.2 10.8 
" style="fill: none; stroke: #000000; stroke-width: 0.8; stroke-linejoin: miter; stroke-linecap: square"/>
   </g>
   <g id="patch_5">
    <path d="M 51.134499 211.381683 
L 349.2 211.381683 
" style="fill: none; stroke: #000000; stroke-width: 0.8; stroke-linejoin: miter; stroke-linecap: square"/>
   </g>
   <g id="patch_6">
    <path d="M 51.134499 10.8 
L 349.2 10.8 
" style="fill: none; stroke: #000000; stroke-width: 0.8; stroke-linejoin: miter; stroke-linecap: square"/>
   </g>
   <g id="legend_1">
    <g id="patch_7">
     <path d="M 180.004029 206.381683 
L 220.330471 206.381683 
Q 222.330471 206.381683 222.330471 204.381683 
L 222.330471 121.758613 
Q 222.330471 119.758613 220.330471 119.758613 
L 180.004029 119.758613 
Q 178.004029 119.758613 178.004029 121.758613 
L 178.004029 204.381683 
Q 178.004029 206.381683 180.004029 206.381683 
z
" style="fill: #ffffff; opacity: 0.8; stroke: #cccccc; stroke-linejoin: miter"/>
    </g>
    <g id="line2d_33">
     <path d="M 182.004029 127.258613 
L 192.004029 127.258613 
L 202.004029 127.258613 
" style="fill: none; stroke: #1f77b4; stroke-width: 2; stroke-linecap: square"/>
    </g>
    <g id="text_16">
     <!-- $\tau_{1}$ -->
     <g transform="translate(210.004029 130.758613) scale(0.1 -0.1)">
      <use xlink:href="#CMMI12-1c" transform="scale(0.996264)"/>
      <use xlink:href="#CMR17-31" transform="translate(42.363841 -14.943915) scale(0.697382)"/>
     </g>
    </g>
    <g id="line2d_34">
     <path d="M 182.004029 141.195792 
L 192.004029 141.195792 
L 202.004029 141.195792 
" style="fill: none; stroke: #ff7f0e; stroke-width: 2; stroke-linecap: square"/>
    </g>
    <g id="text_17">
     <!-- $\tau_{2}$ -->
     <g transform="translate(210.004029 144.695792) scale(0.1 -0.1)">
      <use xlink:href="#CMMI12-1c" transform="scale(0.996264)"/>
      <use xlink:href="#CMR17-32" transform="translate(42.363841 -14.943915) scale(0.697382)"/>
     </g>
    </g>
    <g id="line2d_35">
     <path d="M 182.004029 155.13297 
L 192.004029 155.13297 
L 202.004029 155.13297 
" style="fill: none; stroke: #2ca02c; stroke-width: 2; stroke-linecap: square"/>
    </g>
    <g id="text_18">
     <!-- $\tau_{3}$ -->
     <g transform="translate(210.004029 158.63297) scale(0.1 -0.1)">
      <use xlink:href="#CMMI12-1c" transform="scale(0.996264)"/>
      <use xlink:href="#CMR17-33" transform="translate(42.363841 -14.943915) scale(0.697382)"/>
     </g>
    </g>
    <g id="line2d_36">
     <path d="M 182.004029 169.070148 
L 192.004029 169.070148 
L 202.004029 169.070148 
" style="fill: none; stroke: #d62728; stroke-width: 2; stroke-linecap: square"/>
    </g>
    <g id="text_19">
     <!-- $\tau_{4}$ -->
     <g transform="translate(210.004029 172.570148) scale(0.1 -0.1)">
      <defs>
       <path id="CMR17-34" d="M 2150 4122 
C 2150 4256 2144 4256 2029 4256 
L 128 1254 
L 128 1088 
L 1779 1088 
L 1779 457 
C 1779 224 1766 160 1318 160 
L 1197 160 
L 1197 0 
C 1402 0 1747 0 1965 0 
C 2182 0 2528 0 2733 0 
L 2733 160 
L 2611 160 
C 2163 160 2150 224 2150 457 
L 2150 1088 
L 2803 1088 
L 2803 1254 
L 2150 1254 
L 2150 4122 
z
M 1798 3703 
L 1798 1254 
L 256 1254 
L 1798 3703 
z
" transform="scale(0.015625)"/>
      </defs>
      <use xlink:href="#CMMI12-1c" transform="scale(0.996264)"/>
      <use xlink:href="#CMR17-34" transform="translate(42.363841 -14.943915) scale(0.697382)"/>
     </g>
    </g>
    <g id="line2d_37">
     <path d="M 182.004029 183.007327 
L 192.004029 183.007327 
L 202.004029 183.007327 
" style="fill: none; stroke: #9467bd; stroke-width: 2; stroke-linecap: square"/>
    </g>
    <g id="text_20">
     <!-- $\tau_{5}$ -->
     <g transform="translate(210.004029 186.507327) scale(0.1 -0.1)">
      <use xlink:href="#CMMI12-1c" transform="scale(0.996264)"/>
      <use xlink:href="#CMR17-35" transform="translate(42.363841 -14.943915) scale(0.697382)"/>
     </g>
    </g>
    <g id="line2d_38">
     <path d="M 182.004029 196.944505 
L 192.004029 196.944505 
L 202.004029 196.944505 
" style="fill: none; stroke: #8c564b; stroke-width: 2; stroke-linecap: square"/>
    </g>
    <g id="text_21">
     <!-- $\tau_{6}$ -->
     <g transform="translate(210.004029 200.444505) scale(0.1 -0.1)">
      <defs>
       <path id="CMR17-36" d="M 678 2176 
C 678 3690 1395 4032 1811 4032 
C 1946 4032 2272 4009 2400 3776 
C 2298 3776 2106 3776 2106 3553 
C 2106 3381 2246 3323 2336 3323 
C 2394 3323 2566 3348 2566 3560 
C 2566 3954 2246 4179 1805 4179 
C 1043 4179 243 3390 243 1984 
C 243 253 966 -128 1478 -128 
C 2099 -128 2688 427 2688 1283 
C 2688 2081 2170 2662 1517 2662 
C 1126 2662 838 2407 678 1960 
L 678 2176 
z
M 1478 25 
C 691 25 691 1200 691 1436 
C 691 1896 909 2560 1504 2560 
C 1613 2560 1926 2560 2138 2120 
C 2253 1870 2253 1609 2253 1289 
C 2253 944 2253 690 2118 434 
C 1978 171 1773 25 1478 25 
z
" transform="scale(0.015625)"/>
      </defs>
      <use xlink:href="#CMMI12-1c" transform="scale(0.996264)"/>
      <use xlink:href="#CMR17-36" transform="translate(42.363841 -14.943915) scale(0.697382)"/>
     </g>
    </g>
   </g>
  </g>
 </g>
 <defs>
  <clipPath id="pfbdc7e327d">
   <rect x="51.134499" y="10.8" width="298.065501" height="200.581683"/>
  </clipPath>
 </defs>
</svg>
