<?xml version="1.0" encoding="utf-8" standalone="no"?>
<!DOCTYPE svg PUBLIC "-//W3C//DTD SVG 1.1//EN"
  "http://www.w3.org/Graphics/SVG/1.1/DTD/svg11.dtd">
<svg xmlns:xlink="http://www.w3.org/1999/xlink" width="360pt" height="252pt" viewBox="0 0 360 252" xmlns="http://www.w3.org/2000/svg" version="1.1">
 <metadata>
  <rdf:RDF xmlns:dc="http://purl.org/dc/elements/1.1/" xmlns:cc="http://creativecommons.org/ns#" xmlns:rdf="http://www.w3.org/1999/02/22-rdf-syntax-ns#">
   <cc:Work>
    <dc:type rdf:resource="http://purl.org/dc/dcmitype/StillImage"/>
    <dc:date>2024-10-21T20:01:38.150539</dc:date>
    <dc:format>image/svg+xml</dc:format>
    <dc:creator>
     <cc:Agent>
      <dc:title>Matplotlib v3.9.2, https://matplotlib.org/</dc:title>
     </cc:Agent>
    </dc:creator>
   </cc:Work>
  </rdf:RDF>
 </metadata>
 <defs>
  <style type="text/css">*{stroke-linejoin: round; stroke-linecap: butt}</style>
 </defs>
 <g id="figure_1">
  <g id="patch_1">
   <path d="M 0 252 
L 360 252 
L 360 0 
L 0 0 
z
" style="fill: #ffffff"/>
  </g>
  <g id="axes_1">
   <g id="patch_2">
    <path d="M 49.474054 211.381683 
L 349.2 211.381683 
L 349.2 13.496833 
L 49.474054 13.496833 
z
" style="fill: #ffffff"/>
   </g>
   <g id="matplotlib.axis_1">
    <g id="xtick_1">
     <g id="line2d_1">
      <path d="M 63.097961 211.381683 
L 63.097961 13.496833 
" clip-path="url(#p258d0aabac)" style="fill: none; stroke: #b0b0b0; stroke-width: 0.8; stroke-linecap: square"/>
     </g>
     <g id="line2d_2">
      <defs>
       <path id="m1af9c194ad" d="M 0 0 
L 0 3.5 
" style="stroke: #000000; stroke-width: 0.8"/>
      </defs>
      <g>
       <use xlink:href="#m1af9c194ad" x="63.097961" y="211.381683" style="stroke: #000000; stroke-width: 0.8"/>
      </g>
     </g>
     <g id="text_1">
      <!-- $\mathdefault{0}$ -->
      <g transform="translate(60.607293 225.300182) scale(0.1 -0.1)">
       <defs>
        <path id="CMR17-30" d="M 2688 2025 
C 2688 2416 2682 3080 2413 3591 
C 2176 4039 1798 4198 1466 4198 
C 1158 4198 768 4058 525 3597 
C 269 3118 243 2524 243 2025 
C 243 1661 250 1106 448 619 
C 723 -39 1216 -128 1466 -128 
C 1760 -128 2208 -7 2470 600 
C 2662 1042 2688 1559 2688 2025 
z
M 1466 -26 
C 1056 -26 813 325 723 812 
C 653 1188 653 1738 653 2096 
C 653 2588 653 2997 736 3387 
C 858 3929 1216 4096 1466 4096 
C 1728 4096 2067 3923 2189 3400 
C 2272 3036 2278 2607 2278 2096 
C 2278 1680 2278 1169 2202 792 
C 2067 95 1690 -26 1466 -26 
z
" transform="scale(0.015625)"/>
       </defs>
       <use xlink:href="#CMR17-30" transform="scale(0.996264)"/>
      </g>
     </g>
    </g>
    <g id="xtick_2">
     <g id="line2d_3">
      <path d="M 102.023408 211.381683 
L 102.023408 13.496833 
" clip-path="url(#p258d0aabac)" style="fill: none; stroke: #b0b0b0; stroke-width: 0.8; stroke-linecap: square"/>
     </g>
     <g id="line2d_4">
      <g>
       <use xlink:href="#m1af9c194ad" x="102.023408" y="211.381683" style="stroke: #000000; stroke-width: 0.8"/>
      </g>
     </g>
     <g id="text_2">
      <!-- $\mathdefault{5}$ -->
      <g transform="translate(99.532741 225.300182) scale(0.1 -0.1)">
       <defs>
        <path id="CMR17-35" d="M 730 3692 
C 794 3666 1056 3584 1325 3584 
C 1920 3584 2246 3911 2432 4100 
C 2432 4157 2432 4192 2394 4192 
C 2387 4192 2374 4192 2323 4163 
C 2099 4058 1837 3973 1517 3973 
C 1325 3973 1037 3999 723 4139 
C 653 4171 640 4171 634 4171 
C 602 4171 595 4164 595 4037 
L 595 2203 
C 595 2089 595 2057 659 2057 
C 691 2057 704 2070 736 2114 
C 941 2401 1222 2522 1542 2522 
C 1766 2522 2246 2382 2246 1289 
C 2246 1085 2246 715 2054 421 
C 1894 159 1645 25 1370 25 
C 947 25 518 320 403 814 
C 429 807 480 795 506 795 
C 589 795 749 840 749 1038 
C 749 1210 627 1280 506 1280 
C 358 1280 262 1190 262 1011 
C 262 454 704 -128 1382 -128 
C 2042 -128 2669 440 2669 1264 
C 2669 2030 2170 2624 1549 2624 
C 1222 2624 947 2503 730 2274 
L 730 3692 
z
" transform="scale(0.015625)"/>
       </defs>
       <use xlink:href="#CMR17-35" transform="scale(0.996264)"/>
      </g>
     </g>
    </g>
    <g id="xtick_3">
     <g id="line2d_5">
      <path d="M 140.948856 211.381683 
L 140.948856 13.496833 
" clip-path="url(#p258d0aabac)" style="fill: none; stroke: #b0b0b0; stroke-width: 0.8; stroke-linecap: square"/>
     </g>
     <g id="line2d_6">
      <g>
       <use xlink:href="#m1af9c194ad" x="140.948856" y="211.381683" style="stroke: #000000; stroke-width: 0.8"/>
      </g>
     </g>
     <g id="text_3">
      <!-- $\mathdefault{10}$ -->
      <g transform="translate(135.967521 225.300182) scale(0.1 -0.1)">
       <defs>
        <path id="CMR17-31" d="M 1702 4058 
C 1702 4192 1696 4192 1606 4192 
C 1357 3916 979 3827 621 3827 
C 602 3827 570 3827 563 3808 
C 557 3795 557 3782 557 3648 
C 755 3648 1088 3686 1344 3839 
L 1344 461 
C 1344 236 1331 160 781 160 
L 589 160 
L 589 0 
C 896 0 1216 0 1523 0 
C 1830 0 2150 0 2458 0 
L 2458 160 
L 2266 160 
C 1715 160 1702 230 1702 458 
L 1702 4058 
z
" transform="scale(0.015625)"/>
       </defs>
       <use xlink:href="#CMR17-31" transform="scale(0.996264)"/>
       <use xlink:href="#CMR17-30" transform="translate(45.690477 0) scale(0.996264)"/>
      </g>
     </g>
    </g>
    <g id="xtick_4">
     <g id="line2d_7">
      <path d="M 179.874303 211.381683 
L 179.874303 13.496833 
" clip-path="url(#p258d0aabac)" style="fill: none; stroke: #b0b0b0; stroke-width: 0.8; stroke-linecap: square"/>
     </g>
     <g id="line2d_8">
      <g>
       <use xlink:href="#m1af9c194ad" x="179.874303" y="211.381683" style="stroke: #000000; stroke-width: 0.8"/>
      </g>
     </g>
     <g id="text_4">
      <!-- $\mathdefault{15}$ -->
      <g transform="translate(174.892968 225.300182) scale(0.1 -0.1)">
       <use xlink:href="#CMR17-31" transform="scale(0.996264)"/>
       <use xlink:href="#CMR17-35" transform="translate(45.690477 0) scale(0.996264)"/>
      </g>
     </g>
    </g>
    <g id="xtick_5">
     <g id="line2d_9">
      <path d="M 218.799751 211.381683 
L 218.799751 13.496833 
" clip-path="url(#p258d0aabac)" style="fill: none; stroke: #b0b0b0; stroke-width: 0.8; stroke-linecap: square"/>
     </g>
     <g id="line2d_10">
      <g>
       <use xlink:href="#m1af9c194ad" x="218.799751" y="211.381683" style="stroke: #000000; stroke-width: 0.8"/>
      </g>
     </g>
     <g id="text_5">
      <!-- $\mathdefault{20}$ -->
      <g transform="translate(213.818416 225.300182) scale(0.1 -0.1)">
       <defs>
        <path id="CMR17-32" d="M 2669 989 
L 2554 989 
C 2490 536 2438 459 2413 420 
C 2381 369 1920 369 1830 369 
L 602 369 
C 832 619 1280 1072 1824 1597 
C 2214 1967 2669 2402 2669 3035 
C 2669 3790 2067 4224 1395 4224 
C 691 4224 262 3604 262 3030 
C 262 2780 448 2748 525 2748 
C 589 2748 781 2787 781 3010 
C 781 3207 614 3264 525 3264 
C 486 3264 448 3258 422 3245 
C 544 3790 915 4058 1306 4058 
C 1862 4058 2227 3617 2227 3035 
C 2227 2479 1901 2000 1536 1584 
L 262 146 
L 262 0 
L 2515 0 
L 2669 989 
z
" transform="scale(0.015625)"/>
       </defs>
       <use xlink:href="#CMR17-32" transform="scale(0.996264)"/>
       <use xlink:href="#CMR17-30" transform="translate(45.690477 0) scale(0.996264)"/>
      </g>
     </g>
    </g>
    <g id="xtick_6">
     <g id="line2d_11">
      <path d="M 257.725198 211.381683 
L 257.725198 13.496833 
" clip-path="url(#p258d0aabac)" style="fill: none; stroke: #b0b0b0; stroke-width: 0.8; stroke-linecap: square"/>
     </g>
     <g id="line2d_12">
      <g>
       <use xlink:href="#m1af9c194ad" x="257.725198" y="211.381683" style="stroke: #000000; stroke-width: 0.8"/>
      </g>
     </g>
     <g id="text_6">
      <!-- $\mathdefault{25}$ -->
      <g transform="translate(252.743863 225.300182) scale(0.1 -0.1)">
       <use xlink:href="#CMR17-32" transform="scale(0.996264)"/>
       <use xlink:href="#CMR17-35" transform="translate(45.690477 0) scale(0.996264)"/>
      </g>
     </g>
    </g>
    <g id="xtick_7">
     <g id="line2d_13">
      <path d="M 296.650646 211.381683 
L 296.650646 13.496833 
" clip-path="url(#p258d0aabac)" style="fill: none; stroke: #b0b0b0; stroke-width: 0.8; stroke-linecap: square"/>
     </g>
     <g id="line2d_14">
      <g>
       <use xlink:href="#m1af9c194ad" x="296.650646" y="211.381683" style="stroke: #000000; stroke-width: 0.8"/>
      </g>
     </g>
     <g id="text_7">
      <!-- $\mathdefault{30}$ -->
      <g transform="translate(291.669311 225.300182) scale(0.1 -0.1)">
       <defs>
        <path id="CMR17-33" d="M 1414 2157 
C 1984 2157 2234 1662 2234 1090 
C 2234 320 1824 25 1453 25 
C 1114 25 563 194 390 693 
C 422 680 454 680 486 680 
C 640 680 755 782 755 948 
C 755 1133 614 1216 486 1216 
C 378 1216 211 1165 211 926 
C 211 335 787 -128 1466 -128 
C 2176 -128 2720 430 2720 1085 
C 2720 1707 2208 2157 1600 2227 
C 2086 2328 2554 2756 2554 3329 
C 2554 3820 2048 4179 1472 4179 
C 890 4179 378 3829 378 3329 
C 378 3110 544 3072 627 3072 
C 762 3072 877 3155 877 3321 
C 877 3486 762 3569 627 3569 
C 602 3569 570 3569 544 3557 
C 730 3959 1235 4032 1459 4032 
C 1683 4032 2106 3925 2106 3320 
C 2106 3143 2080 2828 1862 2550 
C 1670 2304 1453 2304 1242 2284 
C 1210 2284 1062 2269 1037 2269 
C 992 2263 966 2257 966 2208 
C 966 2163 973 2157 1101 2157 
L 1414 2157 
z
" transform="scale(0.015625)"/>
       </defs>
       <use xlink:href="#CMR17-33" transform="scale(0.996264)"/>
       <use xlink:href="#CMR17-30" transform="translate(45.690477 0) scale(0.996264)"/>
      </g>
     </g>
    </g>
    <g id="xtick_8">
     <g id="line2d_15">
      <path d="M 335.576093 211.381683 
L 335.576093 13.496833 
" clip-path="url(#p258d0aabac)" style="fill: none; stroke: #b0b0b0; stroke-width: 0.8; stroke-linecap: square"/>
     </g>
     <g id="line2d_16">
      <g>
       <use xlink:href="#m1af9c194ad" x="335.576093" y="211.381683" style="stroke: #000000; stroke-width: 0.8"/>
      </g>
     </g>
     <g id="text_8">
      <!-- $\mathdefault{35}$ -->
      <g transform="translate(330.594758 225.300182) scale(0.1 -0.1)">
       <use xlink:href="#CMR17-33" transform="scale(0.996264)"/>
       <use xlink:href="#CMR17-35" transform="translate(45.690477 0) scale(0.996264)"/>
      </g>
     </g>
    </g>
    <g id="text_9">
     <!-- Time $t$ [s] -->
     <g transform="translate(178.138719 238.70934) scale(0.1 -0.1)">
      <defs>
       <path id="CMR17-54" d="M 3981 4326 
L 288 4326 
L 179 2918 
L 294 2918 
C 378 3976 467 4160 1453 4160 
C 1568 4160 1754 4160 1805 4154 
C 1926 4135 1926 4058 1926 3912 
L 1926 459 
C 1926 230 1907 160 1376 160 
L 1197 160 
L 1197 0 
C 1504 0 1824 0 2138 0 
C 2451 0 2771 0 3078 0 
L 3078 160 
L 2899 160 
C 2368 160 2349 230 2349 459 
L 2349 3912 
C 2349 4052 2349 4129 2464 4154 
C 2515 4160 2701 4160 2816 4160 
C 3795 4160 3891 3976 3974 2918 
L 4090 2918 
L 3981 4326 
z
" transform="scale(0.015625)"/>
       <path id="CMR17-69" d="M 992 3909 
C 992 4049 877 4170 730 4170 
C 589 4170 467 4056 467 3909 
C 467 3769 582 3648 730 3648 
C 870 3648 992 3763 992 3909 
z
M 243 2706 
L 243 2541 
C 602 2541 653 2502 653 2197 
L 653 427 
C 653 184 627 153 218 153 
L 218 -13 
C 371 0 646 0 806 0 
C 960 0 1222 0 1370 -13 
L 1370 153 
C 992 153 979 191 979 420 
L 979 2776 
L 243 2706 
z
" transform="scale(0.015625)"/>
       <path id="CMR17-6d" d="M 4326 1933 
C 4326 2252 4269 2790 3507 2790 
C 3072 2790 2771 2496 2656 2151 
L 2650 2151 
C 2573 2676 2195 2790 1837 2790 
C 1331 2790 1069 2400 973 2144 
L 966 2144 
L 966 2790 
L 211 2720 
L 211 2554 
C 589 2554 646 2515 646 2208 
L 646 428 
C 646 184 621 153 211 153 
L 211 -13 
C 365 0 646 0 813 0 
C 979 0 1267 0 1421 -13 
L 1421 153 
C 1011 153 986 178 986 428 
L 986 1658 
C 986 2247 1344 2688 1792 2688 
C 2266 2688 2317 2266 2317 1958 
L 2317 428 
C 2317 184 2291 153 1882 153 
L 1882 -13 
C 2035 0 2317 0 2483 0 
C 2650 0 2938 0 3091 -13 
L 3091 153 
C 2682 153 2656 178 2656 428 
L 2656 1658 
C 2656 2247 3014 2688 3462 2688 
C 3936 2688 3987 2266 3987 1958 
L 3987 428 
C 3987 184 3962 153 3552 153 
L 3552 -13 
C 3706 0 3987 0 4154 0 
C 4320 0 4608 0 4762 -13 
L 4762 153 
C 4352 153 4326 178 4326 428 
L 4326 1933 
z
" transform="scale(0.015625)"/>
       <path id="CMR17-65" d="M 2438 1472 
C 2464 1498 2464 1511 2464 1576 
C 2464 2238 2118 2816 1389 2816 
C 710 2816 173 2169 173 1383 
C 173 551 781 -64 1459 -64 
C 2176 -64 2458 607 2458 740 
C 2458 784 2419 784 2406 784 
C 2362 784 2355 771 2330 696 
C 2189 265 1837 51 1504 51 
C 1229 51 954 203 781 480 
C 582 803 582 1176 582 1472 
L 2438 1472 
z
M 589 1568 
C 634 2505 1126 2714 1382 2714 
C 1818 2714 2112 2297 2118 1568 
L 589 1568 
z
" transform="scale(0.015625)"/>
       <path id="CMMI12-74" d="M 1286 2566 
L 1875 2566 
C 1997 2566 2061 2566 2061 2681 
C 2061 2752 2022 2752 1894 2752 
L 1331 2752 
L 1568 3692 
C 1594 3781 1594 3794 1594 3840 
C 1594 3943 1510 4000 1427 4000 
C 1376 4000 1229 3981 1178 3775 
L 928 2752 
L 326 2752 
C 198 2752 141 2752 141 2630 
C 141 2566 186 2566 307 2566 
L 877 2566 
L 454 881 
C 403 658 384 594 384 511 
C 384 211 595 -64 954 -64 
C 1600 -64 1946 868 1946 912 
C 1946 951 1920 970 1882 970 
C 1869 970 1843 970 1830 944 
C 1824 938 1818 931 1773 829 
C 1638 511 1344 64 973 64 
C 781 64 768 224 768 364 
C 768 370 768 492 787 568 
L 1286 2566 
z
" transform="scale(0.015625)"/>
       <path id="CMR17-5b" d="M 1504 -1600 
L 1504 -1377 
L 902 -1377 
L 902 4544 
L 1504 4544 
L 1504 4767 
L 678 4767 
L 678 -1600 
L 1504 -1600 
z
" transform="scale(0.015625)"/>
       <path id="CMR17-73" d="M 1978 2697 
C 1978 2813 1971 2819 1933 2819 
C 1907 2819 1901 2813 1824 2717 
C 1805 2691 1747 2626 1728 2601 
C 1523 2819 1235 2819 1126 2819 
C 416 2819 160 2447 160 2076 
C 160 1498 813 1365 998 1325 
C 1402 1243 1542 1217 1677 1101 
C 1760 1025 1901 884 1901 654 
C 1901 384 1747 38 1158 38 
C 602 38 403 460 288 1021 
C 269 1110 269 1117 218 1117 
C 166 1117 160 1110 160 983 
L 160 63 
C 160 -51 166 -58 205 -58 
C 237 -58 243 -51 275 0 
C 314 57 410 211 448 276 
C 576 103 800 -64 1158 -64 
C 1792 -64 2131 283 2131 784 
C 2131 1112 1958 1285 1875 1362 
C 1683 1561 1459 1606 1190 1657 
C 838 1735 390 1825 390 2217 
C 390 2383 480 2737 1126 2737 
C 1811 2737 1850 2094 1862 1888 
C 1869 1856 1901 1849 1920 1849 
C 1978 1849 1978 1869 1978 1978 
L 1978 2697 
z
" transform="scale(0.015625)"/>
       <path id="CMR17-5d" d="M 915 4767 
L 90 4767 
L 90 4544 
L 691 4544 
L 691 -1377 
L 90 -1377 
L 90 -1600 
L 915 -1600 
L 915 4767 
z
" transform="scale(0.015625)"/>
      </defs>
      <use xlink:href="#CMR17-54" transform="scale(0.996264)"/>
      <use xlink:href="#CMR17-69" transform="translate(66.509881 0) scale(0.996264)"/>
      <use xlink:href="#CMR17-6d" transform="translate(91.380939 0) scale(0.996264)"/>
      <use xlink:href="#CMR17-65" transform="translate(168.300529 0) scale(0.996264)"/>
      <use xlink:href="#CMMI12-74" transform="translate(238.862156 0) scale(0.996264)"/>
      <use xlink:href="#CMR17-5b" transform="translate(304.164452 0) scale(0.996264)"/>
      <use xlink:href="#CMR17-73" transform="translate(329.035511 0) scale(0.996264)"/>
      <use xlink:href="#CMR17-5d" transform="translate(364.836848 0) scale(0.996264)"/>
     </g>
    </g>
   </g>
   <g id="matplotlib.axis_2">
    <g id="ytick_1">
     <g id="line2d_17">
      <path d="M 49.474054 198.057418 
L 349.2 198.057418 
" clip-path="url(#p258d0aabac)" style="fill: none; stroke: #b0b0b0; stroke-width: 0.8; stroke-linecap: square"/>
     </g>
     <g id="line2d_18">
      <defs>
       <path id="mb72f4df10b" d="M 0 0 
L -3.5 0 
" style="stroke: #000000; stroke-width: 0.8"/>
      </defs>
      <g>
       <use xlink:href="#mb72f4df10b" x="49.474054" y="198.057418" style="stroke: #000000; stroke-width: 0.8"/>
      </g>
     </g>
     <g id="text_10">
      <!-- $\mathdefault{−30}$ -->
      <g transform="translate(24.76264 201.516667) scale(0.1 -0.1)">
       <defs>
        <path id="CMSY10-0" d="M 4218 1472 
C 4326 1472 4442 1472 4442 1600 
C 4442 1728 4326 1728 4218 1728 
L 755 1728 
C 646 1728 531 1728 531 1600 
C 531 1472 646 1472 755 1472 
L 4218 1472 
z
" transform="scale(0.015625)"/>
       </defs>
       <use xlink:href="#CMSY10-0" transform="scale(0.996264)"/>
       <use xlink:href="#CMR17-33" transform="translate(77.487468 0) scale(0.996264)"/>
       <use xlink:href="#CMR17-30" transform="translate(123.177945 0) scale(0.996264)"/>
      </g>
     </g>
    </g>
    <g id="ytick_2">
     <g id="line2d_19">
      <path d="M 49.474054 171.802695 
L 349.2 171.802695 
" clip-path="url(#p258d0aabac)" style="fill: none; stroke: #b0b0b0; stroke-width: 0.8; stroke-linecap: square"/>
     </g>
     <g id="line2d_20">
      <g>
       <use xlink:href="#mb72f4df10b" x="49.474054" y="171.802695" style="stroke: #000000; stroke-width: 0.8"/>
      </g>
     </g>
     <g id="text_11">
      <!-- $\mathdefault{−20}$ -->
      <g transform="translate(24.76264 175.261944) scale(0.1 -0.1)">
       <use xlink:href="#CMSY10-0" transform="scale(0.996264)"/>
       <use xlink:href="#CMR17-32" transform="translate(77.487468 0) scale(0.996264)"/>
       <use xlink:href="#CMR17-30" transform="translate(123.177945 0) scale(0.996264)"/>
      </g>
     </g>
    </g>
    <g id="ytick_3">
     <g id="line2d_21">
      <path d="M 49.474054 145.547972 
L 349.2 145.547972 
" clip-path="url(#p258d0aabac)" style="fill: none; stroke: #b0b0b0; stroke-width: 0.8; stroke-linecap: square"/>
     </g>
     <g id="line2d_22">
      <g>
       <use xlink:href="#mb72f4df10b" x="49.474054" y="145.547972" style="stroke: #000000; stroke-width: 0.8"/>
      </g>
     </g>
     <g id="text_12">
      <!-- $\mathdefault{−10}$ -->
      <g transform="translate(24.76264 149.007221) scale(0.1 -0.1)">
       <use xlink:href="#CMSY10-0" transform="scale(0.996264)"/>
       <use xlink:href="#CMR17-31" transform="translate(77.487468 0) scale(0.996264)"/>
       <use xlink:href="#CMR17-30" transform="translate(123.177945 0) scale(0.996264)"/>
      </g>
     </g>
    </g>
    <g id="ytick_4">
     <g id="line2d_23">
      <path d="M 49.474054 119.293249 
L 349.2 119.293249 
" clip-path="url(#p258d0aabac)" style="fill: none; stroke: #b0b0b0; stroke-width: 0.8; stroke-linecap: square"/>
     </g>
     <g id="line2d_24">
      <g>
       <use xlink:href="#mb72f4df10b" x="49.474054" y="119.293249" style="stroke: #000000; stroke-width: 0.8"/>
      </g>
     </g>
     <g id="text_13">
      <!-- $\mathdefault{0}$ -->
      <g transform="translate(37.492719 122.752498) scale(0.1 -0.1)">
       <use xlink:href="#CMR17-30" transform="scale(0.996264)"/>
      </g>
     </g>
    </g>
    <g id="ytick_5">
     <g id="line2d_25">
      <path d="M 49.474054 93.038526 
L 349.2 93.038526 
" clip-path="url(#p258d0aabac)" style="fill: none; stroke: #b0b0b0; stroke-width: 0.8; stroke-linecap: square"/>
     </g>
     <g id="line2d_26">
      <g>
       <use xlink:href="#mb72f4df10b" x="49.474054" y="93.038526" style="stroke: #000000; stroke-width: 0.8"/>
      </g>
     </g>
     <g id="text_14">
      <!-- $\mathdefault{10}$ -->
      <g transform="translate(32.511384 96.497775) scale(0.1 -0.1)">
       <use xlink:href="#CMR17-31" transform="scale(0.996264)"/>
       <use xlink:href="#CMR17-30" transform="translate(45.690477 0) scale(0.996264)"/>
      </g>
     </g>
    </g>
    <g id="ytick_6">
     <g id="line2d_27">
      <path d="M 49.474054 66.783803 
L 349.2 66.783803 
" clip-path="url(#p258d0aabac)" style="fill: none; stroke: #b0b0b0; stroke-width: 0.8; stroke-linecap: square"/>
     </g>
     <g id="line2d_28">
      <g>
       <use xlink:href="#mb72f4df10b" x="49.474054" y="66.783803" style="stroke: #000000; stroke-width: 0.8"/>
      </g>
     </g>
     <g id="text_15">
      <!-- $\mathdefault{20}$ -->
      <g transform="translate(32.511384 70.243052) scale(0.1 -0.1)">
       <use xlink:href="#CMR17-32" transform="scale(0.996264)"/>
       <use xlink:href="#CMR17-30" transform="translate(45.690477 0) scale(0.996264)"/>
      </g>
     </g>
    </g>
    <g id="ytick_7">
     <g id="line2d_29">
      <path d="M 49.474054 40.529079 
L 349.2 40.529079 
" clip-path="url(#p258d0aabac)" style="fill: none; stroke: #b0b0b0; stroke-width: 0.8; stroke-linecap: square"/>
     </g>
     <g id="line2d_30">
      <g>
       <use xlink:href="#mb72f4df10b" x="49.474054" y="40.529079" style="stroke: #000000; stroke-width: 0.8"/>
      </g>
     </g>
     <g id="text_16">
      <!-- $\mathdefault{30}$ -->
      <g transform="translate(32.511384 43.988329) scale(0.1 -0.1)">
       <use xlink:href="#CMR17-33" transform="scale(0.996264)"/>
       <use xlink:href="#CMR17-30" transform="translate(45.690477 0) scale(0.996264)"/>
      </g>
     </g>
    </g>
    <g id="ytick_8">
     <g id="line2d_31">
      <path d="M 49.474054 14.274356 
L 349.2 14.274356 
" clip-path="url(#p258d0aabac)" style="fill: none; stroke: #b0b0b0; stroke-width: 0.8; stroke-linecap: square"/>
     </g>
     <g id="line2d_32">
      <g>
       <use xlink:href="#mb72f4df10b" x="49.474054" y="14.274356" style="stroke: #000000; stroke-width: 0.8"/>
      </g>
     </g>
     <g id="text_17">
      <!-- $\mathdefault{40}$ -->
      <g transform="translate(32.511384 17.733605) scale(0.1 -0.1)">
       <defs>
        <path id="CMR17-34" d="M 2150 4122 
C 2150 4256 2144 4256 2029 4256 
L 128 1254 
L 128 1088 
L 1779 1088 
L 1779 457 
C 1779 224 1766 160 1318 160 
L 1197 160 
L 1197 0 
C 1402 0 1747 0 1965 0 
C 2182 0 2528 0 2733 0 
L 2733 160 
L 2611 160 
C 2163 160 2150 224 2150 457 
L 2150 1088 
L 2803 1088 
L 2803 1254 
L 2150 1254 
L 2150 4122 
z
M 1798 3703 
L 1798 1254 
L 256 1254 
L 1798 3703 
z
" transform="scale(0.015625)"/>
       </defs>
       <use xlink:href="#CMR17-34" transform="scale(0.996264)"/>
       <use xlink:href="#CMR17-30" transform="translate(45.690477 0) scale(0.996264)"/>
      </g>
     </g>
    </g>
    <g id="text_18">
     <!-- Bending strain $\kappa_\mathrm{be}$ [rad/m] -->
     <g transform="translate(18.27198 171.650223) rotate(-90) scale(0.1 -0.1)">
      <defs>
       <path id="CMR17-42" d="M 333 4352 
L 333 4186 
C 774 4186 845 4186 845 3900 
L 845 452 
C 845 166 774 166 333 166 
L 333 0 
L 2534 0 
C 3354 0 3885 583 3885 1164 
C 3885 1741 3360 2233 2675 2233 
C 3290 2356 3718 2771 3718 3264 
C 3718 3802 3194 4352 2368 4352 
L 333 4352 
z
M 1248 2304 
L 1248 3937 
C 1248 4155 1261 4186 1517 4186 
L 2336 4186 
C 2970 4186 3251 3674 3251 3277 
C 3251 2791 2861 2304 2170 2304 
L 1248 2304 
z
M 1517 166 
C 1261 166 1248 197 1248 413 
L 1248 2202 
L 2432 2202 
C 3091 2202 3411 1625 3411 1162 
C 3411 699 3046 166 2349 166 
L 1517 166 
z
" transform="scale(0.015625)"/>
       <path id="CMR17-6e" d="M 2656 1933 
C 2656 2259 2592 2790 1837 2790 
C 1331 2790 1069 2400 973 2144 
L 966 2144 
L 966 2790 
L 211 2720 
L 211 2554 
C 589 2554 646 2515 646 2208 
L 646 428 
C 646 184 621 153 211 153 
L 211 -13 
C 365 0 646 0 813 0 
C 979 0 1267 0 1421 -13 
L 1421 153 
C 1011 153 986 178 986 428 
L 986 1658 
C 986 2247 1344 2688 1792 2688 
C 2266 2688 2317 2266 2317 1958 
L 2317 428 
C 2317 184 2291 153 1882 153 
L 1882 -13 
C 2035 0 2317 0 2483 0 
C 2650 0 2938 0 3091 -13 
L 3091 153 
C 2682 153 2656 178 2656 428 
L 2656 1933 
z
" transform="scale(0.015625)"/>
       <path id="CMR17-64" d="M 1869 4326 
L 1869 4160 
C 2246 4160 2304 4122 2304 3820 
L 2304 2345 
C 2278 2377 2016 2790 1498 2790 
C 845 2790 211 2208 211 1364 
C 211 525 806 -64 1434 -64 
C 1978 -64 2259 337 2291 380 
L 2291 -63 
L 3066 -63 
L 3066 128 
C 2688 128 2630 166 2630 473 
L 2630 4396 
L 1869 4326 
z
M 2291 755 
C 2291 563 2176 390 2029 262 
C 1811 70 1594 38 1472 38 
C 1286 38 621 134 621 1356 
C 621 2612 1363 2688 1530 2688 
C 1824 2688 2061 2522 2208 2291 
C 2291 2157 2291 2138 2291 2023 
L 2291 755 
z
" transform="scale(0.015625)"/>
       <path id="CMR17-67" d="M 710 1164 
C 832 1068 1043 960 1299 960 
C 1805 960 2240 1357 2240 1888 
C 2240 2054 2189 2310 1997 2509 
C 2176 2692 2438 2752 2586 2752 
C 2611 2752 2650 2752 2682 2734 
C 2656 2728 2598 2703 2598 2605 
C 2598 2527 2656 2471 2739 2471 
C 2835 2471 2886 2533 2886 2614 
C 2886 2731 2790 2854 2586 2854 
C 2330 2854 2106 2738 1926 2580 
C 1734 2753 1504 2816 1299 2816 
C 794 2816 358 2419 358 1888 
C 358 1522 570 1292 634 1228 
C 442 1004 442 743 442 711 
C 442 545 506 302 723 168 
C 390 85 128 -169 128 -486 
C 128 -943 736 -1280 1466 -1280 
C 2170 -1280 2803 -956 2803 -479 
C 2803 384 1856 384 1363 384 
C 1216 384 954 384 922 391 
C 723 423 589 602 589 826 
C 589 883 589 1024 710 1164 
z
M 1299 1068 
C 736 1068 736 1760 736 1889 
C 736 2016 736 2708 1299 2708 
C 1862 2708 1862 2016 1862 1889 
C 1862 1760 1862 1068 1299 1068 
z
M 1466 -1171 
C 826 -1171 384 -835 384 -486 
C 384 -289 493 -105 634 -4 
C 794 104 858 104 1293 104 
C 1818 104 2547 104 2547 -486 
C 2547 -835 2106 -1171 1466 -1171 
z
" transform="scale(0.015625)"/>
       <path id="CMR17-74" d="M 966 2560 
L 1862 2560 
L 1862 2725 
L 966 2725 
L 966 3904 
L 851 3904 
C 838 3245 614 2668 70 2668 
L 70 2560 
L 627 2560 
L 627 771 
C 627 650 627 -64 1370 -64 
C 1747 -64 1965 306 1965 777 
L 1965 1140 
L 1850 1140 
L 1850 783 
C 1850 344 1677 51 1408 51 
C 1222 51 966 178 966 758 
L 966 2560 
z
" transform="scale(0.015625)"/>
       <path id="CMR17-72" d="M 960 1497 
C 960 2112 1222 2688 1702 2688 
C 1747 2688 1792 2682 1837 2662 
C 1837 2662 1696 2617 1696 2452 
C 1696 2298 1818 2234 1914 2234 
C 1990 2234 2131 2279 2131 2458 
C 2131 2663 1926 2790 1709 2790 
C 1222 2790 1011 2317 947 2093 
L 941 2093 
L 941 2790 
L 198 2720 
L 198 2554 
C 576 2554 634 2515 634 2208 
L 634 428 
C 634 184 608 153 198 153 
L 198 -13 
C 352 0 646 0 813 0 
C 998 0 1325 0 1498 -13 
L 1498 153 
C 1037 153 960 153 960 440 
L 960 1497 
z
" transform="scale(0.015625)"/>
       <path id="CMR17-61" d="M 2304 1653 
C 2304 2072 2304 2294 2035 2543 
C 1798 2752 1523 2816 1306 2816 
C 800 2816 435 2407 435 1971 
C 435 1728 627 1728 666 1728 
C 749 1728 896 1778 896 1954 
C 896 2112 774 2181 666 2181 
C 640 2181 608 2174 589 2168 
C 723 2592 1069 2714 1293 2714 
C 1613 2714 1965 2429 1965 1885 
L 1965 1600 
C 1587 1600 1133 1549 774 1357 
C 371 1133 256 813 256 570 
C 256 77 832 -64 1171 -64 
C 1523 -64 1850 139 1990 511 
C 2003 233 2182 -18 2464 -18 
C 2598 -18 2938 70 2938 567 
L 2938 920 
L 2822 920 
L 2822 562 
C 2822 178 2650 128 2566 128 
C 2304 128 2304 458 2304 738 
L 2304 1653 
z
M 1965 870 
C 1965 317 1568 38 1216 38 
C 896 38 646 275 646 570 
C 646 761 730 1100 1101 1305 
C 1408 1478 1760 1504 1965 1504 
L 1965 870 
z
" transform="scale(0.015625)"/>
       <path id="CMMI12-14" d="M 1363 1600 
C 1574 1714 1811 1912 1971 2046 
C 2355 2377 2496 2479 2739 2574 
C 2714 2536 2707 2485 2707 2441 
C 2707 2268 2854 2236 2918 2236 
C 3123 2236 3238 2427 3238 2548 
C 3238 2586 3226 2752 3002 2752 
C 2618 2752 2240 2431 1958 2198 
C 1587 1876 1402 1738 1139 1656 
L 1382 2656 
C 1382 2759 1299 2816 1216 2816 
C 1158 2816 1018 2797 966 2592 
L 371 224 
C 352 148 352 134 352 96 
C 352 6 422 -64 518 -64 
C 710 -64 749 106 781 244 
C 819 380 1082 1472 1094 1472 
C 1907 1472 2182 1264 2182 943 
C 2182 897 2182 878 2163 806 
C 2138 682 2138 609 2138 570 
C 2138 178 2387 -64 2701 -64 
C 2963 -64 3110 123 3206 291 
C 3341 543 3424 898 3424 923 
C 3424 956 3398 981 3360 981 
C 3302 981 3296 956 3270 852 
C 3187 542 3046 64 2720 64 
C 2579 64 2509 148 2509 374 
C 2509 498 2534 641 2560 737 
C 2573 802 2592 880 2592 951 
C 2592 1541 1786 1600 1363 1600 
z
" transform="scale(0.015625)"/>
       <path id="CMR17-62" d="M 960 4396 
L 198 4326 
L 198 4160 
C 576 4160 634 4122 634 3817 
L 634 -13 
L 749 -13 
L 934 441 
C 1120 141 1395 -64 1766 -64 
C 2406 -64 3053 500 3053 1370 
C 3053 2188 2477 2790 1830 2790 
C 1434 2790 1152 2579 960 2330 
L 960 4396 
z
M 973 2004 
C 973 2118 973 2138 1062 2272 
C 1312 2657 1670 2688 1792 2688 
C 1984 2688 2643 2585 2643 1376 
C 2643 108 1888 38 1734 38 
C 1536 38 1248 114 1043 486 
C 973 608 973 621 973 735 
L 973 2004 
z
" transform="scale(0.015625)"/>
       <path id="CMR17-2f" d="M 2605 4545 
C 2637 4627 2637 4640 2637 4653 
C 2637 4729 2579 4768 2528 4768 
C 2451 4768 2426 4717 2400 4640 
L 326 -1377 
C 294 -1460 294 -1473 294 -1486 
C 294 -1562 352 -1600 403 -1600 
C 480 -1600 506 -1549 531 -1473 
L 2605 4545 
z
" transform="scale(0.015625)"/>
      </defs>
      <use xlink:href="#CMR17-42" transform="scale(0.996264)"/>
      <use xlink:href="#CMR17-65" transform="translate(65.188754 0) scale(0.996264)"/>
      <use xlink:href="#CMR17-6e" transform="translate(105.674415 0) scale(0.996264)"/>
      <use xlink:href="#CMR17-64" transform="translate(156.569785 0) scale(0.996264)"/>
      <use xlink:href="#CMR17-69" transform="translate(207.465154 0) scale(0.996264)"/>
      <use xlink:href="#CMR17-6e" transform="translate(232.336213 0) scale(0.996264)"/>
      <use xlink:href="#CMR17-67" transform="translate(283.231583 0) scale(0.996264)"/>
      <use xlink:href="#CMR17-73" transform="translate(358.998026 0) scale(0.996264)"/>
      <use xlink:href="#CMR17-74" transform="translate(394.799364 0) scale(0.996264)"/>
      <use xlink:href="#CMR17-72" transform="translate(430.080132 0) scale(0.996264)"/>
      <use xlink:href="#CMR17-61" transform="translate(465.360899 0) scale(0.996264)"/>
      <use xlink:href="#CMR17-69" transform="translate(511.051377 0) scale(0.996264)"/>
      <use xlink:href="#CMR17-6e" transform="translate(535.922435 0) scale(0.996264)"/>
      <use xlink:href="#CMMI12-14" transform="translate(616.893771 0) scale(0.996264)"/>
      <use xlink:href="#CMR17-62" transform="translate(673.048395 -14.943915) scale(0.697382)"/>
      <use xlink:href="#CMR17-65" transform="translate(710.496709 -14.943915) scale(0.697382)"/>
      <use xlink:href="#CMR17-5b" transform="translate(769.410639 0) scale(0.996264)"/>
      <use xlink:href="#CMR17-72" transform="translate(794.281698 0) scale(0.996264)"/>
      <use xlink:href="#CMR17-61" transform="translate(829.562465 0) scale(0.996264)"/>
      <use xlink:href="#CMR17-64" transform="translate(875.252942 0) scale(0.996264)"/>
      <use xlink:href="#CMR17-2f" transform="translate(926.148312 0) scale(0.996264)"/>
      <use xlink:href="#CMR17-6d" transform="translate(971.838789 0) scale(0.996264)"/>
      <use xlink:href="#CMR17-5d" transform="translate(1048.758379 0) scale(0.996264)"/>
     </g>
    </g>
   </g>
   <g id="line2d_33">
    <path d="M 63.097961 163.232239 
L 102.023408 163.232239 
L 102.17911 23.82041 
L 140.948856 23.82041 
L 141.104558 132.805846 
L 179.874303 132.805846 
L 180.030005 27.314697 
L 218.799751 27.314697 
L 218.955453 85.859789 
L 257.725198 85.859789 
L 257.8809 201.0773 
L 296.650646 201.0773 
L 296.806348 38.431626 
L 335.576093 38.431626 
L 335.576093 38.431626 
" clip-path="url(#p258d0aabac)" style="fill: none; stroke-dasharray: 3.5,5.775; stroke-dashoffset: 0; stroke: #1f77b4; stroke-width: 3.5"/>
   </g>
   <g id="line2d_34">
    <path d="M 63.097961 94.180069 
L 102.023408 94.180069 
L 102.17911 133.721896 
L 140.948856 133.721896 
L 141.104558 108.602168 
L 179.874303 108.602168 
L 180.030005 135.041478 
L 218.799751 135.041478 
L 218.955453 96.89078 
L 257.725198 96.89078 
L 257.8809 107.653876 
L 296.650646 107.653876 
L 296.806348 132.566648 
L 335.576093 132.566648 
L 335.576093 132.566648 
" clip-path="url(#p258d0aabac)" style="fill: none; stroke-dasharray: 3.5,5.775; stroke-dashoffset: 0; stroke: #ff7f0e; stroke-width: 3.5"/>
   </g>
   <g id="line2d_35">
    <path d="M 63.097961 119.293249 
L 63.720768 145.032424 
L 64.187873 154.431119 
L 64.654979 159.413539 
L 65.122084 162.215537 
L 65.58919 163.869134 
L 65.900593 164.359194 
L 66.211997 164.491646 
L 66.601251 164.358222 
L 67.146207 163.866173 
L 68.080418 162.94879 
L 68.391822 163.011527 
L 69.248182 163.358457 
L 70.026691 163.156314 
L 70.727349 163.285602 
L 71.350156 163.180957 
L 71.972963 163.279084 
L 72.59577 163.19128 
L 73.218577 163.266325 
L 73.841384 163.205949 
L 74.386341 163.266972 
L 75.086999 163.22328 
L 75.631955 163.25008 
L 76.176911 163.207566 
L 76.799718 163.248231 
L 77.422526 163.22532 
L 77.967482 163.24547 
L 78.590289 163.227931 
L 79.135245 163.242216 
L 79.758052 163.230992 
L 80.303009 163.238679 
L 80.925816 163.234279 
L 81.470772 163.234992 
L 82.093579 163.237634 
L 82.716386 163.219469 
L 83.339194 163.251111 
L 84.117703 163.206594 
L 85.986124 163.241747 
L 86.686782 163.240383 
L 87.38744 163.211303 
L 89.95652 163.222842 
L 90.81288 163.212555 
L 94.627573 163.238181 
L 95.951039 163.250533 
L 102.023408 163.223624 
L 102.17911 104.762731 
L 102.724066 60.19069 
L 103.191172 42.267687 
L 103.658277 32.983984 
L 104.125383 27.97662 
L 104.592488 25.08014 
L 105.059593 23.291146 
L 105.370997 22.700298 
L 105.682401 22.499572 
L 105.993804 22.542637 
L 106.460909 22.868001 
L 107.161568 23.697915 
L 107.550822 24.111759 
L 107.862226 24.139737 
L 108.25148 23.910189 
L 108.718585 23.645887 
L 109.10784 23.774523 
L 109.574945 23.936112 
L 110.664858 23.854629 
L 111.054112 23.883748 
L 111.75477 23.779421 
L 112.299727 23.879654 
L 113.000385 23.78396 
L 113.545341 23.871635 
L 114.245999 23.793465 
L 114.790955 23.861729 
L 115.413762 23.784761 
L 116.03657 23.849969 
L 116.581526 23.779576 
L 117.282184 23.836414 
L 117.82714 23.791563 
L 118.449947 23.842473 
L 118.994904 23.787073 
L 119.617711 23.847358 
L 120.240518 23.80048 
L 120.785474 23.85143 
L 121.408281 23.796028 
L 121.953238 23.854899 
L 122.653896 23.81087 
L 123.198852 23.841872 
L 123.743808 23.788599 
L 124.366615 23.845777 
L 124.989422 23.802193 
L 125.534379 23.849365 
L 126.157186 23.79825 
L 126.702142 23.852661 
L 127.324949 23.794545 
L 127.947756 23.839218 
L 128.492713 23.791077 
L 129.11552 23.843047 
L 129.660476 23.787851 
L 130.283283 23.846685 
L 130.90609 23.801175 
L 131.451047 23.850116 
L 132.073854 23.797374 
L 132.61881 23.853325 
L 133.319468 23.812413 
L 133.864424 23.840114 
L 134.409381 23.790316 
L 135.032188 23.843921 
L 135.654995 23.804162 
L 136.199951 23.847557 
L 136.822758 23.800192 
L 137.367715 23.850996 
L 137.990522 23.796367 
L 138.613329 23.837271 
L 139.158285 23.792716 
L 139.781093 23.841265 
L 140.326049 23.789271 
L 140.948856 23.845108 
L 141.104558 121.525039 
L 141.571663 127.570356 
L 142.038768 130.807447 
L 142.583725 132.995728 
L 142.972979 133.73493 
L 143.284383 133.893927 
L 143.595786 133.824102 
L 144.062892 133.468563 
L 145.074953 132.536975 
L 145.386357 132.616218 
L 146.164866 132.934444 
L 147.021226 132.750236 
L 147.566182 132.882373 
L 148.422542 132.795099 
L 148.889647 132.860238 
L 149.590305 132.775213 
L 150.135262 132.849517 
L 150.83592 132.788146 
L 151.380876 132.835591 
L 152.003683 132.784077 
L 152.548639 132.836506 
L 153.171446 132.7832 
L 153.794254 132.819983 
L 154.33921 132.783885 
L 154.962017 132.81937 
L 155.506973 132.785385 
L 156.12978 132.817954 
L 156.752588 132.802445 
L 157.297544 132.816029 
L 157.920351 132.804285 
L 158.465307 132.813754 
L 159.088114 132.806465 
L 159.633071 132.811224 
L 160.255878 132.808875 
L 160.800834 132.808507 
L 161.423641 132.811431 
L 161.968598 132.805659 
L 162.513554 132.800841 
L 163.136361 132.802732 
L 163.681317 132.803956 
L 164.304124 132.799779 
L 164.849081 132.807121 
L 165.471888 132.796853 
L 166.094695 132.821778 
L 166.717502 132.784263 
L 168.118818 132.784 
L 168.975178 132.788801 
L 169.675836 132.83262 
L 179.874303 132.824914 
L 180.107856 97.665592 
L 180.574961 62.267812 
L 181.042067 44.971669 
L 181.509172 36.025135 
L 181.976278 31.201951 
L 182.443383 28.409461 
L 182.910488 26.697527 
L 183.221892 26.162092 
L 183.533295 25.997367 
L 183.844699 26.063973 
L 184.311804 26.411577 
L 185.012462 27.247822 
L 185.401717 27.624845 
L 185.713121 27.625506 
L 186.102375 27.376443 
L 186.491629 27.138133 
L 186.803033 27.198597 
L 187.42584 27.428326 
L 188.360051 27.29959 
L 188.827156 27.383847 
L 189.605665 27.289854 
L 190.072771 27.376625 
L 190.85128 27.294167 
L 191.318385 27.369135 
L 192.096894 27.303623 
L 192.563999 27.360481 
L 193.264657 27.292939 
L 193.809614 27.349928 
L 194.432421 27.28556 
L 195.055228 27.337309 
L 195.600184 27.280245 
L 196.222991 27.342968 
L 196.845799 27.293214 
L 197.390755 27.347472 
L 198.013562 27.288309 
L 198.636369 27.334165 
L 199.181325 27.284129 
L 199.804133 27.338723 
L 200.349089 27.280521 
L 201.049747 27.324011 
L 201.594703 27.293433 
L 202.139659 27.346433 
L 202.762467 27.289376 
L 203.385274 27.332991 
L 203.93023 27.285641 
L 204.553037 27.337091 
L 205.097993 27.282212 
L 205.720801 27.340941 
L 206.343608 27.295432 
L 206.888564 27.344536 
L 207.511371 27.291457 
L 208.056327 27.347868 
L 208.756985 27.306314 
L 209.301942 27.334847 
L 209.846898 27.284158 
L 210.469705 27.338772 
L 211.092512 27.297773 
L 211.637469 27.342499 
L 212.260276 27.293696 
L 212.805232 27.346001 
L 213.428039 27.289788 
L 214.050846 27.33257 
L 214.595803 27.28608 
L 215.21861 27.336642 
L 215.763566 27.282603 
L 216.386373 27.340539 
L 217.00918 27.29583 
L 217.554137 27.344228 
L 218.176944 27.29176 
L 218.7219 27.347676 
L 218.799751 27.33045 
L 218.877602 116.937548 
L 218.955453 114.379408 
L 219.500409 97.948536 
L 219.967514 91.383991 
L 220.43462 87.864978 
L 220.979576 85.553421 
L 221.36883 84.805249 
L 221.680234 84.651314 
L 221.991638 84.728217 
L 222.458743 85.094609 
L 223.626506 86.158682 
L 224.015761 85.983794 
L 224.560717 85.68566 
L 224.949972 85.834723 
L 225.339226 85.985615 
L 225.728481 85.847983 
L 226.117735 85.767231 
L 226.974095 85.874768 
L 227.4412 85.801063 
L 228.141858 85.889854 
L 228.686815 85.81951 
L 229.309622 85.89067 
L 229.932429 85.838403 
L 230.477385 85.88801 
L 231.100192 85.840635 
L 231.722999 85.869581 
L 232.267956 85.843752 
L 232.890763 85.866739 
L 233.435719 85.847262 
L 234.058526 85.86346 
L 234.603483 85.850992 
L 235.22629 85.859963 
L 235.849097 85.867835 
L 236.394053 85.856394 
L 237.01686 85.870889 
L 237.639667 85.842147 
L 238.262475 85.882314 
L 239.741642 85.867951 
L 240.4423 85.869792 
L 241.142958 85.837378 
L 243.789888 85.860917 
L 244.490546 85.843989 
L 245.969713 85.850455 
L 246.826073 85.840655 
L 250.640767 85.865804 
L 251.964232 85.877903 
L 257.725198 85.874603 
L 257.8809 131.962417 
L 258.425856 170.250331 
L 258.892962 185.596413 
L 259.360067 193.562895 
L 259.827173 197.883294 
L 260.294278 200.414453 
L 260.761383 201.91041 
L 261.072787 202.306293 
L 261.38419 202.384062 
L 261.773445 202.21565 
L 262.318401 201.696753 
L 263.252612 200.751723 
L 263.564016 200.834095 
L 264.420375 201.221708 
L 265.276735 201.009801 
L 265.821691 201.164587 
L 266.755902 201.083088 
L 267.145157 201.14263 
L 267.923666 201.055417 
L 268.390771 201.132862 
L 269.16928 201.065873 
L 269.636385 201.121815 
L 270.337043 201.057683 
L 270.882 201.108682 
L 271.504807 201.053349 
L 272.049763 201.110779 
L 272.67257 201.051013 
L 273.295377 201.095718 
L 273.840334 201.049753 
L 274.463141 201.09716 
L 275.008097 201.049104 
L 275.630904 201.097992 
L 276.253711 201.064792 
L 276.798668 201.098426 
L 277.421475 201.064284 
L 277.966431 201.098588 
L 278.589238 201.064065 
L 279.134195 201.098554 
L 279.757002 201.064062 
L 280.301958 201.098374 
L 280.924765 201.064222 
L 281.469721 201.098083 
L 282.092529 201.064512 
L 282.637485 201.097702 
L 283.260292 201.064904 
L 283.805248 201.09725 
L 284.428055 201.065379 
L 284.973012 201.096737 
L 285.595819 201.065922 
L 286.140775 201.096175 
L 286.763582 201.066523 
L 287.308538 201.09557 
L 287.931346 201.067171 
L 288.476302 201.094928 
L 289.099109 201.067859 
L 289.644065 201.094254 
L 290.266873 201.06858 
L 290.811829 201.093553 
L 291.434636 201.06933 
L 291.979592 201.092828 
L 292.602399 201.070103 
L 293.147356 201.092082 
L 293.770163 201.070896 
L 294.315119 201.091318 
L 294.937926 201.071705 
L 295.482882 201.090538 
L 296.10569 201.072528 
L 296.650646 201.089745 
L 296.806348 106.813661 
L 297.351304 68.883865 
L 297.818409 53.760164 
L 298.285515 45.880596 
L 298.75262 41.594979 
L 299.219725 39.079044 
L 299.686831 37.594581 
L 299.998234 37.204979 
L 300.309638 37.130093 
L 300.698892 37.304216 
L 301.243849 37.820182 
L 302.178059 38.755899 
L 302.489463 38.675951 
L 303.345823 38.286445 
L 304.124332 38.520103 
L 304.82499 38.369905 
L 305.447797 38.488002 
L 306.148455 38.400886 
L 306.693411 38.474879 
L 307.394069 38.414689 
L 307.939026 38.459733 
L 308.561833 38.412011 
L 309.106789 38.459442 
L 309.729596 38.412409 
L 310.352403 38.441745 
L 310.89736 38.414222 
L 311.520167 38.439958 
L 312.065123 38.416773 
L 312.68793 38.437468 
L 313.232887 38.419765 
L 313.855694 38.434554 
L 314.40065 38.423051 
L 315.023457 38.431381 
L 315.568413 38.426537 
L 316.191221 38.428064 
L 316.736177 38.43015 
L 317.358984 38.424706 
L 317.90394 38.433816 
L 318.526747 38.421398 
L 319.071704 38.437459 
L 319.694511 38.418233 
L 320.317318 38.451341 
L 321.017976 38.403698 
L 327.713153 38.415969 
L 329.036618 38.407716 
L 332.072803 38.439543 
L 332.851312 38.448342 
L 334.330479 38.440837 
L 335.108988 38.446768 
L 335.576093 38.427398 
L 335.576093 38.427398 
" clip-path="url(#p258d0aabac)" style="fill: none; stroke: #1f77b4; stroke-width: 2; stroke-linecap: square"/>
   </g>
   <g id="line2d_36">
    <path d="M 63.097961 119.293249 
L 63.487215 108.506188 
L 63.954321 101.41686 
L 64.421426 97.239017 
L 64.966382 94.342241 
L 65.355637 93.186464 
L 65.66704 92.804029 
L 65.978444 92.717462 
L 66.367699 92.870473 
L 66.912655 93.368541 
L 68.002567 94.453846 
L 68.391822 94.333527 
L 69.014629 94.063851 
L 69.94884 94.180163 
L 70.415945 94.160004 
L 71.038752 94.182703 
L 71.661559 94.188072 
L 72.440068 94.160629 
L 76.721868 94.184664 
L 78.590289 94.182273 
L 80.614412 94.170989 
L 86.141826 94.175592 
L 90.034371 94.180853 
L 92.992705 94.175749 
L 98.909373 94.175701 
L 102.023408 94.17714 
L 102.17911 123.44202 
L 102.490514 126.925041 
L 103.191172 131.768289 
L 103.736128 134.011066 
L 104.125383 134.797875 
L 104.436786 135.007214 
L 104.74819 134.980182 
L 105.137444 134.726037 
L 105.915953 133.856639 
L 106.305208 133.48491 
L 106.616611 133.472077 
L 107.083717 133.747047 
L 107.472971 133.856858 
L 108.640735 133.757024 
L 109.10784 133.723959 
L 109.652796 133.721248 
L 110.664858 133.7233 
L 112.066174 133.741829 
L 123.89951 133.730825 
L 125.534379 133.725193 
L 127.013546 133.705547 
L 140.948856 133.723641 
L 141.104558 117.073261 
L 141.571663 112.890593 
L 142.116619 109.965828 
L 142.661576 108.18727 
L 142.972979 107.734281 
L 143.284383 107.600706 
L 143.673637 107.720232 
L 144.218594 108.195642 
L 144.919252 108.836351 
L 145.230655 108.792485 
L 146.009164 108.509233 
L 146.709822 108.642265 
L 147.332629 108.586052 
L 147.877586 108.614625 
L 148.578244 108.612101 
L 149.278902 108.582117 
L 154.33921 108.600854 
L 156.05193 108.606427 
L 157.8425 108.600443 
L 159.633071 108.601001 
L 161.501492 108.609705 
L 165.316186 108.605335 
L 167.340309 108.610989 
L 179.874303 108.608969 
L 180.030005 123.5805 
L 180.341409 127.484544 
L 180.964216 132.320158 
L 181.509172 134.879044 
L 181.898427 135.942826 
L 182.20983 136.294419 
L 182.521234 136.361076 
L 182.910488 136.182857 
L 183.533295 135.568393 
L 184.311804 134.781081 
L 184.623208 134.814244 
L 185.557419 135.141669 
L 186.180226 134.963366 
L 187.036586 135.049887 
L 187.581542 135.031528 
L 188.437902 135.033942 
L 191.474087 135.036622 
L 192.953254 135.024174 
L 197.390755 135.044802 
L 198.869922 135.025722 
L 213.583741 135.052111 
L 215.296461 135.035551 
L 216.853479 135.029841 
L 218.644049 135.052303 
L 218.799751 135.039842 
L 218.955453 115.47399 
L 219.422558 106.008587 
L 219.889663 100.957238 
L 220.356769 98.053181 
L 220.823874 96.302245 
L 221.213129 95.684846 
L 221.524532 95.573116 
L 221.913787 95.719741 
L 222.458743 96.222954 
L 223.392954 97.171729 
L 223.704357 97.124165 
L 224.560717 96.765965 
L 225.417077 96.929771 
L 225.962033 96.841348 
L 226.662691 96.913511 
L 227.285498 96.875581 
L 228.064007 96.883435 
L 229.309622 96.885665 
L 231.100192 96.892166 
L 232.968614 96.884574 
L 235.693395 96.88746 
L 237.639667 96.883456 
L 241.687914 96.898398 
L 252.353487 96.88777 
L 256.323882 96.893871 
L 257.725198 96.895762 
L 257.803049 117.420389 
L 257.8809 115.932916 
L 258.192304 113.163742 
L 258.892962 109.090876 
L 259.437918 107.153889 
L 259.827173 106.555848 
L 260.138576 106.437466 
L 260.527831 106.567244 
L 261.072787 107.062441 
L 261.929147 107.908969 
L 262.24055 107.867419 
L 263.09691 107.542165 
L 263.875419 107.701407 
L 264.420375 107.614266 
L 265.276735 107.642556 
L 266.755902 107.657702 
L 268.157218 107.672343 
L 296.650646 107.654217 
L 296.806348 122.962838 
L 297.117751 126.152097 
L 297.740558 130.427119 
L 298.285515 132.717018 
L 298.674769 133.568713 
L 298.986173 133.811921 
L 299.297576 133.808459 
L 299.686831 133.573547 
L 300.387489 132.827353 
L 300.932445 132.313922 
L 301.243849 132.338226 
L 302.178059 132.665016 
L 302.800867 132.492084 
L 303.657226 132.571215 
L 304.202183 132.55985 
L 305.058543 132.559026 
L 308.016877 132.563547 
L 309.651745 132.560462 
L 311.364465 132.574959 
L 313.232887 132.566334 
L 314.945606 132.568377 
L 316.736177 132.568682 
L 318.526747 132.561127 
L 321.173678 132.560816 
L 323.353503 132.557786 
L 327.557451 132.566953 
L 330.04868 132.55889 
L 335.576093 132.564289 
L 335.576093 132.564289 
" clip-path="url(#p258d0aabac)" style="fill: none; stroke: #ff7f0e; stroke-width: 2; stroke-linecap: square"/>
   </g>
   <g id="patch_3">
    <path d="M 49.474054 211.381683 
L 49.474054 13.496833 
" style="fill: none; stroke: #000000; stroke-width: 0.8; stroke-linejoin: miter; stroke-linecap: square"/>
   </g>
   <g id="patch_4">
    <path d="M 349.2 211.381683 
L 349.2 13.496833 
" style="fill: none; stroke: #000000; stroke-width: 0.8; stroke-linejoin: miter; stroke-linecap: square"/>
   </g>
   <g id="patch_5">
    <path d="M 49.474054 211.381683 
L 349.2 211.381683 
" style="fill: none; stroke: #000000; stroke-width: 0.8; stroke-linejoin: miter; stroke-linecap: square"/>
   </g>
   <g id="patch_6">
    <path d="M 49.474054 13.496833 
L 349.2 13.496833 
" style="fill: none; stroke: #000000; stroke-width: 0.8; stroke-linejoin: miter; stroke-linecap: square"/>
   </g>
   <g id="legend_1">
    <g id="patch_7">
     <path d="M 173.219846 206.381683 
L 225.454209 206.381683 
Q 227.454209 206.381683 227.454209 204.381683 
L 227.454209 140.409237 
Q 227.454209 138.409237 225.454209 138.409237 
L 173.219846 138.409237 
Q 171.219846 138.409237 171.219846 140.409237 
L 171.219846 204.381683 
Q 171.219846 206.381683 173.219846 206.381683 
z
" style="fill: #ffffff; opacity: 0.8; stroke: #cccccc; stroke-linejoin: miter"/>
    </g>
    <g id="line2d_37">
     <path d="M 175.219846 147.367539 
L 185.219846 147.367539 
L 195.219846 147.367539 
" style="fill: none; stroke-dasharray: 3.5,5.775; stroke-dashoffset: 0; stroke: #1f77b4; stroke-width: 3.5"/>
    </g>
    <g id="text_19">
     <!-- $\kappa_{\mathrm{be},1}^\mathrm{d}$ -->
     <g transform="translate(203.219846 150.867539) scale(0.1 -0.1)">
      <defs>
       <path id="CMMI12-3b" d="M 1248 -31 
C 1248 343 1126 619 864 619 
C 659 619 557 453 557 313 
C 557 172 653 0 870 0 
C 954 0 1024 26 1082 83 
C 1094 96 1101 96 1107 96 
C 1120 96 1120 5 1120 -27 
C 1120 -240 1082 -659 710 -1080 
C 640 -1157 640 -1170 640 -1183 
C 640 -1216 672 -1248 704 -1248 
C 755 -1248 1248 -771 1248 -31 
z
" transform="scale(0.015625)"/>
      </defs>
      <use xlink:href="#CMMI12-14" transform="scale(0.996264)"/>
      <use xlink:href="#CMR17-64" transform="translate(56.154624 36.153639) scale(0.697382)"/>
      <use xlink:href="#CMR17-62" transform="translate(56.154624 -28.215451) scale(0.697382)"/>
      <use xlink:href="#CMR17-65" transform="translate(93.602938 -28.215451) scale(0.697382)"/>
      <use xlink:href="#CMMI12-3b" transform="translate(121.94277 -28.215451) scale(0.697382)"/>
      <use xlink:href="#CMR17-31" transform="translate(140.910702 -28.215451) scale(0.697382)"/>
     </g>
    </g>
    <g id="line2d_38">
     <path d="M 175.219846 165.003367 
L 185.219846 165.003367 
L 195.219846 165.003367 
" style="fill: none; stroke-dasharray: 3.5,5.775; stroke-dashoffset: 0; stroke: #ff7f0e; stroke-width: 3.5"/>
    </g>
    <g id="text_20">
     <!-- $\kappa_{\mathrm{be},2}^\mathrm{d}$ -->
     <g transform="translate(203.219846 168.503367) scale(0.1 -0.1)">
      <use xlink:href="#CMMI12-14" transform="scale(0.996264)"/>
      <use xlink:href="#CMR17-64" transform="translate(56.154624 36.153639) scale(0.697382)"/>
      <use xlink:href="#CMR17-62" transform="translate(56.154624 -28.215451) scale(0.697382)"/>
      <use xlink:href="#CMR17-65" transform="translate(93.602938 -28.215451) scale(0.697382)"/>
      <use xlink:href="#CMMI12-3b" transform="translate(121.94277 -28.215451) scale(0.697382)"/>
      <use xlink:href="#CMR17-32" transform="translate(140.910702 -28.215451) scale(0.697382)"/>
     </g>
    </g>
    <g id="line2d_39">
     <path d="M 175.219846 181.180893 
L 185.219846 181.180893 
L 195.219846 181.180893 
" style="fill: none; stroke: #1f77b4; stroke-width: 2; stroke-linecap: square"/>
    </g>
    <g id="text_21">
     <!-- $\kappa_{\mathrm{be},1}$ -->
     <g transform="translate(203.219846 184.680893) scale(0.1 -0.1)">
      <use xlink:href="#CMMI12-14" transform="scale(0.996264)"/>
      <use xlink:href="#CMR17-62" transform="translate(56.154624 -14.943915) scale(0.697382)"/>
      <use xlink:href="#CMR17-65" transform="translate(93.602938 -14.943915) scale(0.697382)"/>
      <use xlink:href="#CMMI12-3b" transform="translate(121.94277 -14.943915) scale(0.697382)"/>
      <use xlink:href="#CMR17-31" transform="translate(140.910702 -14.943915) scale(0.697382)"/>
     </g>
    </g>
    <g id="line2d_40">
     <path d="M 175.219846 196.031288 
L 185.219846 196.031288 
L 195.219846 196.031288 
" style="fill: none; stroke: #ff7f0e; stroke-width: 2; stroke-linecap: square"/>
    </g>
    <g id="text_22">
     <!-- $\kappa_{\mathrm{be},2}$ -->
     <g transform="translate(203.219846 199.531288) scale(0.1 -0.1)">
      <use xlink:href="#CMMI12-14" transform="scale(0.996264)"/>
      <use xlink:href="#CMR17-62" transform="translate(56.154624 -14.943915) scale(0.697382)"/>
      <use xlink:href="#CMR17-65" transform="translate(93.602938 -14.943915) scale(0.697382)"/>
      <use xlink:href="#CMMI12-3b" transform="translate(121.94277 -14.943915) scale(0.697382)"/>
      <use xlink:href="#CMR17-32" transform="translate(140.910702 -14.943915) scale(0.697382)"/>
     </g>
    </g>
   </g>
  </g>
 </g>
 <defs>
  <clipPath id="p258d0aabac">
   <rect x="49.474054" y="13.496833" width="299.725946" height="197.88485"/>
  </clipPath>
 </defs>
</svg>
