<?xml version="1.0" encoding="utf-8" standalone="no"?>
<!DOCTYPE svg PUBLIC "-//W3C//DTD SVG 1.1//EN"
  "http://www.w3.org/Graphics/SVG/1.1/DTD/svg11.dtd">
<svg xmlns:xlink="http://www.w3.org/1999/xlink" width="288pt" height="273.6pt" viewBox="0 0 288 273.6" xmlns="http://www.w3.org/2000/svg" version="1.1">
 <metadata>
  <rdf:RDF xmlns:dc="http://purl.org/dc/elements/1.1/" xmlns:cc="http://creativecommons.org/ns#" xmlns:rdf="http://www.w3.org/1999/02/22-rdf-syntax-ns#">
   <cc:Work>
    <dc:type rdf:resource="http://purl.org/dc/dcmitype/StillImage"/>
    <dc:date>2024-10-30T11:14:18.478801</dc:date>
    <dc:format>image/svg+xml</dc:format>
    <dc:creator>
     <cc:Agent>
      <dc:title>Matplotlib v3.9.2, https://matplotlib.org/</dc:title>
     </cc:Agent>
    </dc:creator>
   </cc:Work>
  </rdf:RDF>
 </metadata>
 <defs>
  <style type="text/css">*{stroke-linejoin: round; stroke-linecap: butt}</style>
 </defs>
 <g id="figure_1">
  <g id="patch_1">
   <path d="M 0 273.6 
L 288 273.6 
L 288 0 
L 0 0 
z
" style="fill: #ffffff"/>
  </g>
  <g id="axes_1">
   <g id="patch_2">
    <path d="M 51.134499 232.981683 
L 277.2 232.981683 
L 277.2 10.8 
L 51.134499 10.8 
z
" style="fill: #ffffff"/>
   </g>
   <g id="matplotlib.axis_1">
    <g id="xtick_1">
     <g id="line2d_1">
      <path d="M 61.410204 232.981683 
L 61.410204 10.8 
" clip-path="url(#pfe239fdab1)" style="fill: none; stroke: #b0b0b0; stroke-width: 0.8; stroke-linecap: square"/>
     </g>
     <g id="line2d_2">
      <defs>
       <path id="m6bd1975bd5" d="M 0 0 
L 0 3.5 
" style="stroke: #000000; stroke-width: 0.8"/>
      </defs>
      <g>
       <use xlink:href="#m6bd1975bd5" x="61.410204" y="232.981683" style="stroke: #000000; stroke-width: 0.8"/>
      </g>
     </g>
     <g id="text_1">
      <!-- $\mathdefault{0}$ -->
      <g transform="translate(58.919536 246.900182) scale(0.1 -0.1)">
       <defs>
        <path id="CMR17-30" d="M 2688 2025 
C 2688 2416 2682 3080 2413 3591 
C 2176 4039 1798 4198 1466 4198 
C 1158 4198 768 4058 525 3597 
C 269 3118 243 2524 243 2025 
C 243 1661 250 1106 448 619 
C 723 -39 1216 -128 1466 -128 
C 1760 -128 2208 -7 2470 600 
C 2662 1042 2688 1559 2688 2025 
z
M 1466 -26 
C 1056 -26 813 325 723 812 
C 653 1188 653 1738 653 2096 
C 653 2588 653 2997 736 3387 
C 858 3929 1216 4096 1466 4096 
C 1728 4096 2067 3923 2189 3400 
C 2272 3036 2278 2607 2278 2096 
C 2278 1680 2278 1169 2202 792 
C 2067 95 1690 -26 1466 -26 
z
" transform="scale(0.015625)"/>
       </defs>
       <use xlink:href="#CMR17-30" transform="scale(0.996264)"/>
      </g>
     </g>
    </g>
    <g id="xtick_2">
     <g id="line2d_3">
      <path d="M 120.128516 232.981683 
L 120.128516 10.8 
" clip-path="url(#pfe239fdab1)" style="fill: none; stroke: #b0b0b0; stroke-width: 0.8; stroke-linecap: square"/>
     </g>
     <g id="line2d_4">
      <g>
       <use xlink:href="#m6bd1975bd5" x="120.128516" y="232.981683" style="stroke: #000000; stroke-width: 0.8"/>
      </g>
     </g>
     <g id="text_2">
      <!-- $\mathdefault{10}$ -->
      <g transform="translate(115.147181 246.900182) scale(0.1 -0.1)">
       <defs>
        <path id="CMR17-31" d="M 1702 4058 
C 1702 4192 1696 4192 1606 4192 
C 1357 3916 979 3827 621 3827 
C 602 3827 570 3827 563 3808 
C 557 3795 557 3782 557 3648 
C 755 3648 1088 3686 1344 3839 
L 1344 461 
C 1344 236 1331 160 781 160 
L 589 160 
L 589 0 
C 896 0 1216 0 1523 0 
C 1830 0 2150 0 2458 0 
L 2458 160 
L 2266 160 
C 1715 160 1702 230 1702 458 
L 1702 4058 
z
" transform="scale(0.015625)"/>
       </defs>
       <use xlink:href="#CMR17-31" transform="scale(0.996264)"/>
       <use xlink:href="#CMR17-30" transform="translate(45.690477 0) scale(0.996264)"/>
      </g>
     </g>
    </g>
    <g id="xtick_3">
     <g id="line2d_5">
      <path d="M 178.846828 232.981683 
L 178.846828 10.8 
" clip-path="url(#pfe239fdab1)" style="fill: none; stroke: #b0b0b0; stroke-width: 0.8; stroke-linecap: square"/>
     </g>
     <g id="line2d_6">
      <g>
       <use xlink:href="#m6bd1975bd5" x="178.846828" y="232.981683" style="stroke: #000000; stroke-width: 0.8"/>
      </g>
     </g>
     <g id="text_3">
      <!-- $\mathdefault{20}$ -->
      <g transform="translate(173.865492 246.900182) scale(0.1 -0.1)">
       <defs>
        <path id="CMR17-32" d="M 2669 989 
L 2554 989 
C 2490 536 2438 459 2413 420 
C 2381 369 1920 369 1830 369 
L 602 369 
C 832 619 1280 1072 1824 1597 
C 2214 1967 2669 2402 2669 3035 
C 2669 3790 2067 4224 1395 4224 
C 691 4224 262 3604 262 3030 
C 262 2780 448 2748 525 2748 
C 589 2748 781 2787 781 3010 
C 781 3207 614 3264 525 3264 
C 486 3264 448 3258 422 3245 
C 544 3790 915 4058 1306 4058 
C 1862 4058 2227 3617 2227 3035 
C 2227 2479 1901 2000 1536 1584 
L 262 146 
L 262 0 
L 2515 0 
L 2669 989 
z
" transform="scale(0.015625)"/>
       </defs>
       <use xlink:href="#CMR17-32" transform="scale(0.996264)"/>
       <use xlink:href="#CMR17-30" transform="translate(45.690477 0) scale(0.996264)"/>
      </g>
     </g>
    </g>
    <g id="xtick_4">
     <g id="line2d_7">
      <path d="M 237.56514 232.981683 
L 237.56514 10.8 
" clip-path="url(#pfe239fdab1)" style="fill: none; stroke: #b0b0b0; stroke-width: 0.8; stroke-linecap: square"/>
     </g>
     <g id="line2d_8">
      <g>
       <use xlink:href="#m6bd1975bd5" x="237.56514" y="232.981683" style="stroke: #000000; stroke-width: 0.8"/>
      </g>
     </g>
     <g id="text_4">
      <!-- $\mathdefault{30}$ -->
      <g transform="translate(232.583804 246.900182) scale(0.1 -0.1)">
       <defs>
        <path id="CMR17-33" d="M 1414 2157 
C 1984 2157 2234 1662 2234 1090 
C 2234 320 1824 25 1453 25 
C 1114 25 563 194 390 693 
C 422 680 454 680 486 680 
C 640 680 755 782 755 948 
C 755 1133 614 1216 486 1216 
C 378 1216 211 1165 211 926 
C 211 335 787 -128 1466 -128 
C 2176 -128 2720 430 2720 1085 
C 2720 1707 2208 2157 1600 2227 
C 2086 2328 2554 2756 2554 3329 
C 2554 3820 2048 4179 1472 4179 
C 890 4179 378 3829 378 3329 
C 378 3110 544 3072 627 3072 
C 762 3072 877 3155 877 3321 
C 877 3486 762 3569 627 3569 
C 602 3569 570 3569 544 3557 
C 730 3959 1235 4032 1459 4032 
C 1683 4032 2106 3925 2106 3320 
C 2106 3143 2080 2828 1862 2550 
C 1670 2304 1453 2304 1242 2284 
C 1210 2284 1062 2269 1037 2269 
C 992 2263 966 2257 966 2208 
C 966 2163 973 2157 1101 2157 
L 1414 2157 
z
" transform="scale(0.015625)"/>
       </defs>
       <use xlink:href="#CMR17-33" transform="scale(0.996264)"/>
       <use xlink:href="#CMR17-30" transform="translate(45.690477 0) scale(0.996264)"/>
      </g>
     </g>
    </g>
    <g id="text_5">
     <!-- Time $t$ [s] -->
     <g transform="translate(142.968942 260.30934) scale(0.1 -0.1)">
      <defs>
       <path id="CMR17-54" d="M 3981 4326 
L 288 4326 
L 179 2918 
L 294 2918 
C 378 3976 467 4160 1453 4160 
C 1568 4160 1754 4160 1805 4154 
C 1926 4135 1926 4058 1926 3912 
L 1926 459 
C 1926 230 1907 160 1376 160 
L 1197 160 
L 1197 0 
C 1504 0 1824 0 2138 0 
C 2451 0 2771 0 3078 0 
L 3078 160 
L 2899 160 
C 2368 160 2349 230 2349 459 
L 2349 3912 
C 2349 4052 2349 4129 2464 4154 
C 2515 4160 2701 4160 2816 4160 
C 3795 4160 3891 3976 3974 2918 
L 4090 2918 
L 3981 4326 
z
" transform="scale(0.015625)"/>
       <path id="CMR17-69" d="M 992 3909 
C 992 4049 877 4170 730 4170 
C 589 4170 467 4056 467 3909 
C 467 3769 582 3648 730 3648 
C 870 3648 992 3763 992 3909 
z
M 243 2706 
L 243 2541 
C 602 2541 653 2502 653 2197 
L 653 427 
C 653 184 627 153 218 153 
L 218 -13 
C 371 0 646 0 806 0 
C 960 0 1222 0 1370 -13 
L 1370 153 
C 992 153 979 191 979 420 
L 979 2776 
L 243 2706 
z
" transform="scale(0.015625)"/>
       <path id="CMR17-6d" d="M 4326 1933 
C 4326 2252 4269 2790 3507 2790 
C 3072 2790 2771 2496 2656 2151 
L 2650 2151 
C 2573 2676 2195 2790 1837 2790 
C 1331 2790 1069 2400 973 2144 
L 966 2144 
L 966 2790 
L 211 2720 
L 211 2554 
C 589 2554 646 2515 646 2208 
L 646 428 
C 646 184 621 153 211 153 
L 211 -13 
C 365 0 646 0 813 0 
C 979 0 1267 0 1421 -13 
L 1421 153 
C 1011 153 986 178 986 428 
L 986 1658 
C 986 2247 1344 2688 1792 2688 
C 2266 2688 2317 2266 2317 1958 
L 2317 428 
C 2317 184 2291 153 1882 153 
L 1882 -13 
C 2035 0 2317 0 2483 0 
C 2650 0 2938 0 3091 -13 
L 3091 153 
C 2682 153 2656 178 2656 428 
L 2656 1658 
C 2656 2247 3014 2688 3462 2688 
C 3936 2688 3987 2266 3987 1958 
L 3987 428 
C 3987 184 3962 153 3552 153 
L 3552 -13 
C 3706 0 3987 0 4154 0 
C 4320 0 4608 0 4762 -13 
L 4762 153 
C 4352 153 4326 178 4326 428 
L 4326 1933 
z
" transform="scale(0.015625)"/>
       <path id="CMR17-65" d="M 2438 1472 
C 2464 1498 2464 1511 2464 1576 
C 2464 2238 2118 2816 1389 2816 
C 710 2816 173 2169 173 1383 
C 173 551 781 -64 1459 -64 
C 2176 -64 2458 607 2458 740 
C 2458 784 2419 784 2406 784 
C 2362 784 2355 771 2330 696 
C 2189 265 1837 51 1504 51 
C 1229 51 954 203 781 480 
C 582 803 582 1176 582 1472 
L 2438 1472 
z
M 589 1568 
C 634 2505 1126 2714 1382 2714 
C 1818 2714 2112 2297 2118 1568 
L 589 1568 
z
" transform="scale(0.015625)"/>
       <path id="CMMI12-74" d="M 1286 2566 
L 1875 2566 
C 1997 2566 2061 2566 2061 2681 
C 2061 2752 2022 2752 1894 2752 
L 1331 2752 
L 1568 3692 
C 1594 3781 1594 3794 1594 3840 
C 1594 3943 1510 4000 1427 4000 
C 1376 4000 1229 3981 1178 3775 
L 928 2752 
L 326 2752 
C 198 2752 141 2752 141 2630 
C 141 2566 186 2566 307 2566 
L 877 2566 
L 454 881 
C 403 658 384 594 384 511 
C 384 211 595 -64 954 -64 
C 1600 -64 1946 868 1946 912 
C 1946 951 1920 970 1882 970 
C 1869 970 1843 970 1830 944 
C 1824 938 1818 931 1773 829 
C 1638 511 1344 64 973 64 
C 781 64 768 224 768 364 
C 768 370 768 492 787 568 
L 1286 2566 
z
" transform="scale(0.015625)"/>
       <path id="CMR17-5b" d="M 1504 -1600 
L 1504 -1377 
L 902 -1377 
L 902 4544 
L 1504 4544 
L 1504 4767 
L 678 4767 
L 678 -1600 
L 1504 -1600 
z
" transform="scale(0.015625)"/>
       <path id="CMR17-73" d="M 1978 2697 
C 1978 2813 1971 2819 1933 2819 
C 1907 2819 1901 2813 1824 2717 
C 1805 2691 1747 2626 1728 2601 
C 1523 2819 1235 2819 1126 2819 
C 416 2819 160 2447 160 2076 
C 160 1498 813 1365 998 1325 
C 1402 1243 1542 1217 1677 1101 
C 1760 1025 1901 884 1901 654 
C 1901 384 1747 38 1158 38 
C 602 38 403 460 288 1021 
C 269 1110 269 1117 218 1117 
C 166 1117 160 1110 160 983 
L 160 63 
C 160 -51 166 -58 205 -58 
C 237 -58 243 -51 275 0 
C 314 57 410 211 448 276 
C 576 103 800 -64 1158 -64 
C 1792 -64 2131 283 2131 784 
C 2131 1112 1958 1285 1875 1362 
C 1683 1561 1459 1606 1190 1657 
C 838 1735 390 1825 390 2217 
C 390 2383 480 2737 1126 2737 
C 1811 2737 1850 2094 1862 1888 
C 1869 1856 1901 1849 1920 1849 
C 1978 1849 1978 1869 1978 1978 
L 1978 2697 
z
" transform="scale(0.015625)"/>
       <path id="CMR17-5d" d="M 915 4767 
L 90 4767 
L 90 4544 
L 691 4544 
L 691 -1377 
L 90 -1377 
L 90 -1600 
L 915 -1600 
L 915 4767 
z
" transform="scale(0.015625)"/>
      </defs>
      <use xlink:href="#CMR17-54" transform="scale(0.996264)"/>
      <use xlink:href="#CMR17-69" transform="translate(66.509881 0) scale(0.996264)"/>
      <use xlink:href="#CMR17-6d" transform="translate(91.380939 0) scale(0.996264)"/>
      <use xlink:href="#CMR17-65" transform="translate(168.300529 0) scale(0.996264)"/>
      <use xlink:href="#CMMI12-74" transform="translate(238.862156 0) scale(0.996264)"/>
      <use xlink:href="#CMR17-5b" transform="translate(304.164452 0) scale(0.996264)"/>
      <use xlink:href="#CMR17-73" transform="translate(329.035511 0) scale(0.996264)"/>
      <use xlink:href="#CMR17-5d" transform="translate(364.836848 0) scale(0.996264)"/>
     </g>
    </g>
   </g>
   <g id="matplotlib.axis_2">
    <g id="ytick_1">
     <g id="line2d_9">
      <path d="M 51.134499 221.420524 
L 277.2 221.420524 
" clip-path="url(#pfe239fdab1)" style="fill: none; stroke: #b0b0b0; stroke-width: 0.8; stroke-linecap: square"/>
     </g>
     <g id="line2d_10">
      <defs>
       <path id="md788520ab6" d="M 0 0 
L -3.5 0 
" style="stroke: #000000; stroke-width: 0.8"/>
      </defs>
      <g>
       <use xlink:href="#md788520ab6" x="51.134499" y="221.420524" style="stroke: #000000; stroke-width: 0.8"/>
      </g>
     </g>
     <g id="text_6">
      <!-- $\mathdefault{−1.5}$ -->
      <g transform="translate(23.655677 224.879773) scale(0.1 -0.1)">
       <defs>
        <path id="CMSY10-0" d="M 4218 1472 
C 4326 1472 4442 1472 4442 1600 
C 4442 1728 4326 1728 4218 1728 
L 755 1728 
C 646 1728 531 1728 531 1600 
C 531 1472 646 1472 755 1472 
L 4218 1472 
z
" transform="scale(0.015625)"/>
        <path id="CMMI12-3a" d="M 1178 307 
C 1178 492 1024 619 870 619 
C 685 619 557 466 557 313 
C 557 128 710 0 864 0 
C 1050 0 1178 153 1178 307 
z
" transform="scale(0.015625)"/>
        <path id="CMR17-35" d="M 730 3692 
C 794 3666 1056 3584 1325 3584 
C 1920 3584 2246 3911 2432 4100 
C 2432 4157 2432 4192 2394 4192 
C 2387 4192 2374 4192 2323 4163 
C 2099 4058 1837 3973 1517 3973 
C 1325 3973 1037 3999 723 4139 
C 653 4171 640 4171 634 4171 
C 602 4171 595 4164 595 4037 
L 595 2203 
C 595 2089 595 2057 659 2057 
C 691 2057 704 2070 736 2114 
C 941 2401 1222 2522 1542 2522 
C 1766 2522 2246 2382 2246 1289 
C 2246 1085 2246 715 2054 421 
C 1894 159 1645 25 1370 25 
C 947 25 518 320 403 814 
C 429 807 480 795 506 795 
C 589 795 749 840 749 1038 
C 749 1210 627 1280 506 1280 
C 358 1280 262 1190 262 1011 
C 262 454 704 -128 1382 -128 
C 2042 -128 2669 440 2669 1264 
C 2669 2030 2170 2624 1549 2624 
C 1222 2624 947 2503 730 2274 
L 730 3692 
z
" transform="scale(0.015625)"/>
       </defs>
       <use xlink:href="#CMSY10-0" transform="scale(0.996264)"/>
       <use xlink:href="#CMR17-31" transform="translate(77.487468 0) scale(0.996264)"/>
       <use xlink:href="#CMMI12-3a" transform="translate(123.177945 0) scale(0.996264)"/>
       <use xlink:href="#CMR17-35" transform="translate(150.275122 0) scale(0.996264)"/>
      </g>
     </g>
    </g>
    <g id="ytick_2">
     <g id="line2d_11">
      <path d="M 51.134499 184.96417 
L 277.2 184.96417 
" clip-path="url(#pfe239fdab1)" style="fill: none; stroke: #b0b0b0; stroke-width: 0.8; stroke-linecap: square"/>
     </g>
     <g id="line2d_12">
      <g>
       <use xlink:href="#md788520ab6" x="51.134499" y="184.96417" style="stroke: #000000; stroke-width: 0.8"/>
      </g>
     </g>
     <g id="text_7">
      <!-- $\mathdefault{−1.0}$ -->
      <g transform="translate(23.655677 188.423419) scale(0.1 -0.1)">
       <use xlink:href="#CMSY10-0" transform="scale(0.996264)"/>
       <use xlink:href="#CMR17-31" transform="translate(77.487468 0) scale(0.996264)"/>
       <use xlink:href="#CMMI12-3a" transform="translate(123.177945 0) scale(0.996264)"/>
       <use xlink:href="#CMR17-30" transform="translate(150.275122 0) scale(0.996264)"/>
      </g>
     </g>
    </g>
    <g id="ytick_3">
     <g id="line2d_13">
      <path d="M 51.134499 148.507816 
L 277.2 148.507816 
" clip-path="url(#pfe239fdab1)" style="fill: none; stroke: #b0b0b0; stroke-width: 0.8; stroke-linecap: square"/>
     </g>
     <g id="line2d_14">
      <g>
       <use xlink:href="#md788520ab6" x="51.134499" y="148.507816" style="stroke: #000000; stroke-width: 0.8"/>
      </g>
     </g>
     <g id="text_8">
      <!-- $\mathdefault{−0.5}$ -->
      <g transform="translate(23.655677 151.967065) scale(0.1 -0.1)">
       <use xlink:href="#CMSY10-0" transform="scale(0.996264)"/>
       <use xlink:href="#CMR17-30" transform="translate(77.487468 0) scale(0.996264)"/>
       <use xlink:href="#CMMI12-3a" transform="translate(123.177945 0) scale(0.996264)"/>
       <use xlink:href="#CMR17-35" transform="translate(150.275122 0) scale(0.996264)"/>
      </g>
     </g>
    </g>
    <g id="ytick_4">
     <g id="line2d_15">
      <path d="M 51.134499 112.051462 
L 277.2 112.051462 
" clip-path="url(#pfe239fdab1)" style="fill: none; stroke: #b0b0b0; stroke-width: 0.8; stroke-linecap: square"/>
     </g>
     <g id="line2d_16">
      <g>
       <use xlink:href="#md788520ab6" x="51.134499" y="112.051462" style="stroke: #000000; stroke-width: 0.8"/>
      </g>
     </g>
     <g id="text_9">
      <!-- $\mathdefault{0.0}$ -->
      <g transform="translate(31.40442 115.510711) scale(0.1 -0.1)">
       <use xlink:href="#CMR17-30" transform="scale(0.996264)"/>
       <use xlink:href="#CMMI12-3a" transform="translate(45.690477 0) scale(0.996264)"/>
       <use xlink:href="#CMR17-30" transform="translate(72.787654 0) scale(0.996264)"/>
      </g>
     </g>
    </g>
    <g id="ytick_5">
     <g id="line2d_17">
      <path d="M 51.134499 75.595108 
L 277.2 75.595108 
" clip-path="url(#pfe239fdab1)" style="fill: none; stroke: #b0b0b0; stroke-width: 0.8; stroke-linecap: square"/>
     </g>
     <g id="line2d_18">
      <g>
       <use xlink:href="#md788520ab6" x="51.134499" y="75.595108" style="stroke: #000000; stroke-width: 0.8"/>
      </g>
     </g>
     <g id="text_10">
      <!-- $\mathdefault{0.5}$ -->
      <g transform="translate(31.40442 79.054357) scale(0.1 -0.1)">
       <use xlink:href="#CMR17-30" transform="scale(0.996264)"/>
       <use xlink:href="#CMMI12-3a" transform="translate(45.690477 0) scale(0.996264)"/>
       <use xlink:href="#CMR17-35" transform="translate(72.787654 0) scale(0.996264)"/>
      </g>
     </g>
    </g>
    <g id="ytick_6">
     <g id="line2d_19">
      <path d="M 51.134499 39.138754 
L 277.2 39.138754 
" clip-path="url(#pfe239fdab1)" style="fill: none; stroke: #b0b0b0; stroke-width: 0.8; stroke-linecap: square"/>
     </g>
     <g id="line2d_20">
      <g>
       <use xlink:href="#md788520ab6" x="51.134499" y="39.138754" style="stroke: #000000; stroke-width: 0.8"/>
      </g>
     </g>
     <g id="text_11">
      <!-- $\mathdefault{1.0}$ -->
      <g transform="translate(31.40442 42.598003) scale(0.1 -0.1)">
       <use xlink:href="#CMR17-31" transform="scale(0.996264)"/>
       <use xlink:href="#CMMI12-3a" transform="translate(45.690477 0) scale(0.996264)"/>
       <use xlink:href="#CMR17-30" transform="translate(72.787654 0) scale(0.996264)"/>
      </g>
     </g>
    </g>
    <g id="text_12">
     <!-- Control signal $\tau$ -->
     <g transform="translate(17.718498 156.350227) rotate(-90) scale(0.1 -0.1)">
      <defs>
       <path id="CMR17-43" d="M 3974 4289 
C 3974 4403 3968 4410 3930 4410 
C 3904 4410 3898 4403 3853 4327 
L 3571 3792 
C 3258 4187 2874 4416 2381 4416 
C 1286 4416 294 3456 294 2148 
C 294 826 1286 -128 2387 -128 
C 3366 -128 3974 730 3974 1461 
C 3974 1524 3974 1550 3917 1550 
C 3866 1550 3866 1531 3859 1474 
C 3808 585 3168 38 2477 38 
C 1824 38 781 495 781 2147 
C 781 3805 1843 4250 2464 4250 
C 3187 4250 3712 3628 3834 2745 
C 3846 2668 3846 2655 3904 2655 
C 3974 2655 3974 2668 3974 2783 
L 3974 4289 
z
" transform="scale(0.015625)"/>
       <path id="CMR17-6f" d="M 2758 1356 
C 2758 2176 2163 2816 1466 2816 
C 768 2816 173 2176 173 1356 
C 173 551 768 -64 1466 -64 
C 2163 -64 2758 551 2758 1356 
z
M 1466 51 
C 1165 51 909 230 762 480 
C 602 767 582 1126 582 1408 
C 582 1677 595 2010 762 2298 
C 890 2509 1139 2714 1466 2714 
C 1754 2714 1997 2554 2150 2330 
C 2349 2029 2349 1607 2349 1408 
C 2349 1158 2336 775 2163 467 
C 1984 173 1709 51 1466 51 
z
" transform="scale(0.015625)"/>
       <path id="CMR17-6e" d="M 2656 1933 
C 2656 2259 2592 2790 1837 2790 
C 1331 2790 1069 2400 973 2144 
L 966 2144 
L 966 2790 
L 211 2720 
L 211 2554 
C 589 2554 646 2515 646 2208 
L 646 428 
C 646 184 621 153 211 153 
L 211 -13 
C 365 0 646 0 813 0 
C 979 0 1267 0 1421 -13 
L 1421 153 
C 1011 153 986 178 986 428 
L 986 1658 
C 986 2247 1344 2688 1792 2688 
C 2266 2688 2317 2266 2317 1958 
L 2317 428 
C 2317 184 2291 153 1882 153 
L 1882 -13 
C 2035 0 2317 0 2483 0 
C 2650 0 2938 0 3091 -13 
L 3091 153 
C 2682 153 2656 178 2656 428 
L 2656 1933 
z
" transform="scale(0.015625)"/>
       <path id="CMR17-74" d="M 966 2560 
L 1862 2560 
L 1862 2725 
L 966 2725 
L 966 3904 
L 851 3904 
C 838 3245 614 2668 70 2668 
L 70 2560 
L 627 2560 
L 627 771 
C 627 650 627 -64 1370 -64 
C 1747 -64 1965 306 1965 777 
L 1965 1140 
L 1850 1140 
L 1850 783 
C 1850 344 1677 51 1408 51 
C 1222 51 966 178 966 758 
L 966 2560 
z
" transform="scale(0.015625)"/>
       <path id="CMR17-72" d="M 960 1497 
C 960 2112 1222 2688 1702 2688 
C 1747 2688 1792 2682 1837 2662 
C 1837 2662 1696 2617 1696 2452 
C 1696 2298 1818 2234 1914 2234 
C 1990 2234 2131 2279 2131 2458 
C 2131 2663 1926 2790 1709 2790 
C 1222 2790 1011 2317 947 2093 
L 941 2093 
L 941 2790 
L 198 2720 
L 198 2554 
C 576 2554 634 2515 634 2208 
L 634 428 
C 634 184 608 153 198 153 
L 198 -13 
C 352 0 646 0 813 0 
C 998 0 1325 0 1498 -13 
L 1498 153 
C 1037 153 960 153 960 440 
L 960 1497 
z
" transform="scale(0.015625)"/>
       <path id="CMR17-6c" d="M 979 4396 
L 218 4326 
L 218 4160 
C 595 4160 653 4122 653 3817 
L 653 426 
C 653 184 627 153 218 153 
L 218 -13 
C 371 0 653 0 813 0 
C 979 0 1261 0 1414 -13 
L 1414 153 
C 1005 153 979 178 979 426 
L 979 4396 
z
" transform="scale(0.015625)"/>
       <path id="CMR17-67" d="M 710 1164 
C 832 1068 1043 960 1299 960 
C 1805 960 2240 1357 2240 1888 
C 2240 2054 2189 2310 1997 2509 
C 2176 2692 2438 2752 2586 2752 
C 2611 2752 2650 2752 2682 2734 
C 2656 2728 2598 2703 2598 2605 
C 2598 2527 2656 2471 2739 2471 
C 2835 2471 2886 2533 2886 2614 
C 2886 2731 2790 2854 2586 2854 
C 2330 2854 2106 2738 1926 2580 
C 1734 2753 1504 2816 1299 2816 
C 794 2816 358 2419 358 1888 
C 358 1522 570 1292 634 1228 
C 442 1004 442 743 442 711 
C 442 545 506 302 723 168 
C 390 85 128 -169 128 -486 
C 128 -943 736 -1280 1466 -1280 
C 2170 -1280 2803 -956 2803 -479 
C 2803 384 1856 384 1363 384 
C 1216 384 954 384 922 391 
C 723 423 589 602 589 826 
C 589 883 589 1024 710 1164 
z
M 1299 1068 
C 736 1068 736 1760 736 1889 
C 736 2016 736 2708 1299 2708 
C 1862 2708 1862 2016 1862 1889 
C 1862 1760 1862 1068 1299 1068 
z
M 1466 -1171 
C 826 -1171 384 -835 384 -486 
C 384 -289 493 -105 634 -4 
C 794 104 858 104 1293 104 
C 1818 104 2547 104 2547 -486 
C 2547 -835 2106 -1171 1466 -1171 
z
" transform="scale(0.015625)"/>
       <path id="CMR17-61" d="M 2304 1653 
C 2304 2072 2304 2294 2035 2543 
C 1798 2752 1523 2816 1306 2816 
C 800 2816 435 2407 435 1971 
C 435 1728 627 1728 666 1728 
C 749 1728 896 1778 896 1954 
C 896 2112 774 2181 666 2181 
C 640 2181 608 2174 589 2168 
C 723 2592 1069 2714 1293 2714 
C 1613 2714 1965 2429 1965 1885 
L 1965 1600 
C 1587 1600 1133 1549 774 1357 
C 371 1133 256 813 256 570 
C 256 77 832 -64 1171 -64 
C 1523 -64 1850 139 1990 511 
C 2003 233 2182 -18 2464 -18 
C 2598 -18 2938 70 2938 567 
L 2938 920 
L 2822 920 
L 2822 562 
C 2822 178 2650 128 2566 128 
C 2304 128 2304 458 2304 738 
L 2304 1653 
z
M 1965 870 
C 1965 317 1568 38 1216 38 
C 896 38 646 275 646 570 
C 646 761 730 1100 1101 1305 
C 1408 1478 1760 1504 1965 1504 
L 1965 870 
z
" transform="scale(0.015625)"/>
       <path id="CMMI12-1c" d="M 1837 2408 
L 2899 2408 
C 2982 2408 3194 2408 3194 2612 
C 3194 2752 3072 2752 2957 2752 
L 1197 2752 
C 1050 2752 832 2752 538 2440 
C 371 2255 166 1917 166 1879 
C 166 1841 198 1828 237 1828 
C 282 1828 288 1847 320 1885 
C 653 2408 986 2408 1146 2408 
L 1677 2408 
L 1011 223 
C 979 127 979 114 979 95 
C 979 25 1024 -64 1152 -64 
C 1350 -64 1382 108 1402 203 
L 1837 2408 
z
" transform="scale(0.015625)"/>
      </defs>
      <use xlink:href="#CMR17-43" transform="scale(0.996264)"/>
      <use xlink:href="#CMR17-6f" transform="translate(66.509881 0) scale(0.996264)"/>
      <use xlink:href="#CMR17-6e" transform="translate(112.200358 0) scale(0.996264)"/>
      <use xlink:href="#CMR17-74" transform="translate(160.493274 0) scale(0.996264)"/>
      <use xlink:href="#CMR17-72" transform="translate(195.774041 0) scale(0.996264)"/>
      <use xlink:href="#CMR17-6f" transform="translate(231.054809 0) scale(0.996264)"/>
      <use xlink:href="#CMR17-6c" transform="translate(276.745286 0) scale(0.996264)"/>
      <use xlink:href="#CMR17-73" transform="translate(331.692311 0) scale(0.996264)"/>
      <use xlink:href="#CMR17-69" transform="translate(367.493649 0) scale(0.996264)"/>
      <use xlink:href="#CMR17-67" transform="translate(392.364707 0) scale(0.996264)"/>
      <use xlink:href="#CMR17-6e" transform="translate(438.055184 0) scale(0.996264)"/>
      <use xlink:href="#CMR17-61" transform="translate(488.950554 0) scale(0.996264)"/>
      <use xlink:href="#CMR17-6c" transform="translate(534.641031 0) scale(0.996264)"/>
      <use xlink:href="#CMMI12-1c" transform="translate(589.588056 0) scale(0.996264)"/>
     </g>
    </g>
   </g>
   <g id="line2d_21">
    <path d="M 61.410204 125.916059 
L 61.527641 112.62218 
L 61.645077 112.46227 
L 62.525852 113.397459 
L 63.28919 113.781963 
L 64.287401 114.024195 
L 65.403049 114.092489 
L 82.783669 113.995386 
L 90.76936 113.994205 
L 90.828078 108.52758 
L 90.886797 110.808941 
L 90.945515 111.335952 
L 91.004233 111.300425 
L 91.591416 109.716202 
L 92.119881 109.033033 
L 92.765783 108.588893 
L 93.646557 108.30256 
L 94.762205 108.170715 
L 96.582473 108.186855 
L 100.692755 108.226421 
L 111.320769 108.228082 
L 120.128516 108.229063 
L 120.187234 112.474019 
L 120.245952 112.163473 
L 120.363389 112.143423 
L 120.891854 112.409679 
L 122.007502 112.668942 
L 137.861446 112.653056 
L 149.487672 112.651185 
L 149.54639 108.730623 
L 149.605108 110.790852 
L 149.663827 111.287461 
L 149.722545 111.271207 
L 150.427165 109.603397 
L 150.95563 109.013114 
L 151.660249 108.59392 
L 152.658461 108.321673 
L 153.71539 108.238759 
L 155.946686 108.292895 
L 157.88439 108.300724 
L 165.517771 108.309927 
L 169.393179 108.31328 
L 178.846828 108.310702 
L 179.022983 111.849986 
L 179.140419 111.739713 
L 179.610166 111.174575 
L 180.256067 110.769946 
L 181.136842 110.485453 
L 182.076335 110.371286 
L 183.661729 110.409457 
L 185.951743 110.459445 
L 191.29511 110.451879 
L 196.286166 110.453041 
L 208.205984 110.45357 
L 208.264702 114.952794 
L 208.32342 113.085093 
L 208.382139 112.656457 
L 208.440857 112.693232 
L 209.02804 114.08396 
L 209.556505 114.706714 
L 210.202406 115.124845 
L 211.141899 115.418397 
L 212.198829 115.530281 
L 214.136533 115.497868 
L 217.189885 115.455839 
L 230.460224 115.456532 
L 237.56514 115.456025 
L 237.623858 109.187022 
L 237.682576 111.153915 
L 237.741294 111.563891 
L 237.800013 111.489556 
L 238.269759 110.233852 
L 238.798224 109.536614 
L 239.444125 109.075682 
L 240.207464 108.795836 
L 241.264393 108.631774 
L 242.791069 108.625689 
L 248.016999 108.695933 
L 266.924295 108.692053 
L 266.924295 108.692053 
" clip-path="url(#pfe239fdab1)" style="fill: none; stroke: #1f77b4; stroke-width: 2; stroke-linecap: square"/>
   </g>
   <g id="line2d_22">
    <path d="M 61.410204 109.076582 
L 61.468922 107.668545 
L 61.645077 109.640101 
L 61.87995 109.520399 
L 62.58457 109.207304 
L 63.758936 108.960235 
L 65.226894 108.873364 
L 68.749993 108.851221 
L 69.278458 108.872331 
L 71.392317 108.845034 
L 72.038218 108.854997 
L 72.742838 108.83593 
L 74.386951 108.845784 
L 75.913627 108.848485 
L 78.732106 108.835336 
L 82.548796 108.829622 
L 90.76936 108.817337 
L 90.828078 126.919977 
L 90.886797 122.515609 
L 91.004233 120.919616 
L 91.062951 120.956971 
L 91.532698 121.678652 
L 92.061163 122.059336 
L 92.765783 122.270351 
L 94.116304 122.375048 
L 94.703487 122.383996 
L 102.630459 122.622305 
L 104.450727 122.656233 
L 107.093051 122.724338 
L 120.128516 122.960476 
L 120.187234 114.396632 
L 120.245952 114.999094 
L 120.363389 115.129429 
L 120.833136 114.942457 
L 122.06622 114.813581 
L 125.530601 114.820059 
L 149.487672 115.320335 
L 149.54639 123.008625 
L 149.605108 119.037556 
L 149.722545 117.517973 
L 149.781263 117.523484 
L 150.427165 118.309536 
L 151.014348 118.625995 
L 151.895123 118.805747 
L 153.891545 118.894102 
L 161.348771 119.032618 
L 162.816729 119.043243 
L 178.846828 119.229038 
L 179.022983 109.250011 
L 179.081701 109.16267 
L 179.140419 109.20635 
L 179.551447 109.540102 
L 180.373504 109.826111 
L 181.430433 109.964571 
L 183.133264 110.05104 
L 197.695406 109.855321 
L 207.853674 109.748411 
L 208.205984 109.745609 
L 208.264702 104.21481 
L 208.32342 107.811241 
L 208.440857 109.09234 
L 208.499575 109.047632 
L 208.969322 108.395288 
L 209.556505 108.016667 
L 210.378561 107.789853 
L 211.846519 107.682702 
L 215.193463 107.592968 
L 221.711195 107.554483 
L 224.059928 107.538945 
L 231.693308 107.500844 
L 237.56514 107.475628 
L 237.623858 119.128637 
L 237.682576 115.318381 
L 237.800013 114.110026 
L 238.504632 115.104088 
L 239.150534 115.420854 
L 240.148745 115.612104 
L 242.145168 115.704482 
L 244.84621 115.747747 
L 266.924295 115.825849 
L 266.924295 115.825849 
" clip-path="url(#pfe239fdab1)" style="fill: none; stroke: #ff7f0e; stroke-width: 2; stroke-linecap: square"/>
   </g>
   <g id="line2d_23">
    <path d="M 61.410204 20.899167 
L 61.468922 104.560579 
L 61.527641 94.822027 
L 61.821232 66.209279 
L 62.114824 56.421375 
L 62.408415 53.053013 
L 62.702007 51.847932 
L 63.054317 51.315213 
L 63.582782 50.999032 
L 64.815866 50.58616 
L 69.689486 49.56065 
L 70.570261 49.393456 
L 71.216162 49.277717 
L 72.096937 49.113083 
L 73.623613 48.889039 
L 75.385162 48.659577 
L 76.970557 48.454287 
L 80.611092 48.085586 
L 85.89574 47.674801 
L 90.76936 47.405998 
L 90.828078 117.647889 
L 90.886797 112.646114 
L 91.180388 85.934392 
L 91.47398 77.865108 
L 91.767571 75.457993 
L 92.061163 74.76269 
L 92.413473 74.532111 
L 93.88143 74.173059 
L 95.64298 73.805045 
L 98.109149 73.581033 
L 99.988135 73.252489 
L 101.162501 73.135825 
L 101.808403 73.013449 
L 102.630459 72.954198 
L 103.041487 72.863673 
L 103.863543 72.829692 
L 104.33329 72.754326 
L 104.979191 72.736649 
L 105.566374 72.659974 
L 106.094839 72.639833 
L 106.740741 72.571929 
L 107.269206 72.531248 
L 107.856389 72.486204 
L 108.443572 72.430837 
L 109.089473 72.412514 
L 110.616149 72.286922 
L 111.907952 72.200752 
L 120.128516 71.855032 
L 120.245952 126.467695 
L 120.539544 133.081614 
L 120.833136 135.285634 
L 121.126727 136.026248 
L 121.479037 136.314676 
L 122.06622 136.438754 
L 127.29215 136.988138 
L 140.15146 137.678864 
L 149.487672 137.915564 
L 149.663827 88.977777 
L 149.957418 57.752521 
L 150.25101 47.973232 
L 150.544601 44.86998 
L 150.838193 43.872371 
L 151.190503 43.47163 
L 151.836404 43.179153 
L 153.832827 42.43579 
L 156.357714 41.865234 
L 156.592587 41.887932 
L 157.238489 41.640984 
L 159.000038 41.239785 
L 159.29363 41.228851 
L 160.174405 40.917361 
L 161.231334 40.785451 
L 161.759799 40.642765 
L 162.523137 40.541709 
L 162.934165 40.439905 
L 163.697503 40.349614 
L 164.16725 40.264258 
L 164.754433 40.206479 
L 165.341616 40.1057 
L 165.928799 40.029883 
L 166.515982 39.960332 
L 167.103165 39.867419 
L 167.749067 39.821317 
L 170.391391 39.504133 
L 171.918067 39.370681 
L 173.620898 39.219506 
L 176.145785 39.037267 
L 178.846828 38.873305 
L 178.964264 132.182817 
L 179.257856 141.250045 
L 179.551447 144.542331 
L 179.845039 145.715161 
L 180.197349 146.20668 
L 180.667095 146.419032 
L 181.312997 146.505947 
L 181.489152 146.466271 
L 182.311208 146.675666 
L 185.423279 147.164165 
L 186.010462 147.150043 
L 187.12611 147.4033 
L 188.006884 147.428708 
L 188.711504 147.531386 
L 189.53356 147.603267 
L 190.120744 147.644055 
L 190.766645 147.717911 
L 191.412546 147.740738 
L 193.937434 147.944484 
L 195.522828 148.056588 
L 198.165152 148.197737 
L 201.864406 148.373567 
L 208.205984 148.580381 
L 208.264702 125.923025 
L 208.32342 127.658306 
L 208.734448 122.3695 
L 208.969322 121.898431 
L 209.262913 121.822946 
L 211.141899 121.952424 
L 212.962167 121.958143 
L 215.487054 122.15034 
L 217.542195 122.169006 
L 217.777068 122.211614 
L 218.77528 122.111967 
L 219.832209 122.145529 
L 220.184519 122.140453 
L 220.947857 122.198933 
L 221.476322 122.178256 
L 222.122223 122.210432 
L 222.650688 122.200419 
L 223.237871 122.224875 
L 223.825055 122.224921 
L 224.412238 122.225964 
L 224.999421 122.247427 
L 225.645322 122.224722 
L 227.994055 122.251356 
L 230.460224 122.288539 
L 233.748449 122.307178 
L 237.56514 122.318419 
L 237.800013 112.499256 
L 238.034886 105.485386 
L 238.328478 102.704911 
L 238.622069 101.876092 
L 238.915661 101.637363 
L 239.444125 101.55616 
L 240.266182 101.440306 
L 242.321323 101.246407 
L 244.552619 101.308971 
L 245.022365 101.237156 
L 246.901351 101.169914 
L 247.136224 101.181537 
L 248.016999 101.02635 
L 249.073929 101.038349 
L 249.543675 100.985379 
L 250.307013 100.990695 
L 250.77676 100.953329 
L 251.422661 100.961826 
L 251.951126 100.925892 
L 252.597027 100.915367 
L 253.125492 100.903572 
L 253.712675 100.882662 
L 254.358577 100.886382 
L 255.767816 100.843457 
L 257.177056 100.791632 
L 266.924295 100.648893 
L 266.924295 100.648893 
" clip-path="url(#pfe239fdab1)" style="fill: none; stroke: #2ca02c; stroke-width: 2; stroke-linecap: square"/>
   </g>
   <g id="line2d_24">
    <path d="M 61.410204 104.370455 
L 61.468922 112.235022 
L 61.527641 111.934746 
L 61.703796 111.743648 
L 62.878162 111.432373 
L 64.34612 111.26514 
L 66.636134 111.348246 
L 68.280246 111.34196 
L 78.144923 111.34602 
L 90.76936 111.3464 
L 90.828078 111.170323 
L 91.004233 112.287346 
L 92.119881 112.324242 
L 93.822712 112.437316 
L 120.128516 112.377172 
L 120.304671 111.933755 
L 121.890065 111.720445 
L 123.886488 111.722258 
L 126.352657 111.73401 
L 130.932685 111.741407 
L 140.210178 111.7415 
L 149.487672 111.741582 
L 149.54639 111.24176 
L 149.722545 112.281422 
L 153.069489 112.470323 
L 157.649517 112.406407 
L 178.846828 112.406749 
L 178.905546 111.503824 
L 178.964264 111.82672 
L 179.081701 111.864647 
L 179.786321 111.476713 
L 180.84325 111.212255 
L 181.958898 111.131049 
L 186.186617 111.199772 
L 191.471265 111.200827 
L 208.205984 111.198995 
L 208.264702 112.776846 
L 208.32342 112.093458 
L 208.499575 111.857299 
L 209.145477 111.881266 
L 211.905237 111.796778 
L 215.193463 111.847781 
L 232.280491 111.837359 
L 237.56514 111.837689 
L 237.623858 111.355512 
L 237.800013 112.287312 
L 238.445914 112.252688 
L 241.02952 112.382355 
L 245.139802 112.321657 
L 250.07214 112.322488 
L 266.924295 112.325249 
L 266.924295 112.325249 
" clip-path="url(#pfe239fdab1)" style="fill: none; stroke: #d62728; stroke-width: 2; stroke-linecap: square"/>
   </g>
   <g id="line2d_25">
    <path d="M 61.410204 125.57601 
L 61.468922 114.808039 
L 61.527641 122.541526 
L 61.645077 124.766837 
L 61.938669 124.039702 
L 62.23226 124.006686 
L 64.522275 124.114666 
L 67.751782 124.196941 
L 69.806923 124.18656 
L 70.041796 124.191467 
L 71.27488 124.231879 
L 71.62719 124.224492 
L 72.33181 124.283323 
L 73.03643 124.275522 
L 73.682331 124.280336 
L 74.269514 124.305114 
L 74.856697 124.295992 
L 75.443881 124.328308 
L 76.089782 124.306181 
L 78.497233 124.354327 
L 80.258782 124.389452 
L 82.548796 124.420053 
L 89.594994 124.526612 
L 90.76936 124.542563 
L 90.828078 124.143562 
L 90.945515 109.362727 
L 91.239106 119.179123 
L 91.415261 119.953458 
L 91.591416 120.011443 
L 93.000656 119.718571 
L 94.762205 119.679501 
L 99.342233 119.687375 
L 99.518388 119.695679 
L 99.988135 119.793493 
L 101.338656 119.728842 
L 101.808403 119.78764 
L 102.630459 119.782871 
L 102.982769 119.775347 
L 103.687389 119.8295 
L 104.33329 119.816284 
L 104.920473 119.83283 
L 105.507656 119.830937 
L 106.094839 119.839014 
L 106.682022 119.850177 
L 107.269206 119.842572 
L 107.915107 119.876538 
L 109.324346 119.879148 
L 110.439994 119.886219 
L 111.849234 119.883206 
L 117.1926 119.940188 
L 120.128516 119.972687 
L 120.187234 108.147861 
L 120.245952 109.121699 
L 120.598262 105.778221 
L 120.833136 105.606949 
L 121.948783 105.551275 
L 122.124938 105.639517 
L 122.594685 105.582074 
L 128.525234 105.498853 
L 129.112418 105.574454 
L 129.523446 105.547816 
L 130.169347 105.531049 
L 130.75653 105.525441 
L 131.343713 105.525021 
L 131.930897 105.507941 
L 132.51808 105.521793 
L 133.105263 105.490391 
L 133.809882 105.520586 
L 138.800939 105.448928 
L 142.089164 105.425402 
L 147.138939 105.385663 
L 149.487672 105.367428 
L 149.54639 119.097349 
L 149.663827 102.578147 
L 149.957418 109.567069 
L 150.133573 110.177967 
L 150.368446 110.204283 
L 151.366658 109.962407 
L 151.836404 109.929156 
L 153.950263 109.882653 
L 156.416433 109.966922 
L 156.592587 109.967048 
L 156.944897 109.899743 
L 157.943109 109.876634 
L 158.119264 109.80965 
L 158.882602 109.920747 
L 161.348771 109.852979 
L 161.701081 109.872071 
L 162.464419 109.882126 
L 162.934165 109.873295 
L 163.580067 109.889348 
L 164.16725 109.885258 
L 164.754433 109.879642 
L 165.341616 109.890371 
L 165.928799 109.868477 
L 166.515982 109.895007 
L 167.27932 109.856635 
L 169.099588 109.87514 
L 170.450109 109.856598 
L 178.846828 109.850173 
L 178.905546 115.903947 
L 179.022983 108.889843 
L 179.316574 113.126062 
L 179.492729 113.435394 
L 179.845039 113.441414 
L 181.606588 113.334379 
L 182.428645 113.34168 
L 186.891236 113.397761 
L 187.537138 113.321328 
L 188.183039 113.351598 
L 191.236391 113.33432 
L 192.058448 113.361567 
L 193.996152 113.352412 
L 195.640265 113.344562 
L 198.341307 113.356744 
L 203.860829 113.363404 
L 208.205984 113.368536 
L 208.264702 105.957135 
L 208.382139 120.544862 
L 208.67573 113.817493 
L 208.851885 113.28855 
L 209.086758 113.284975 
L 209.967533 113.482314 
L 210.202406 113.504621 
L 211.200617 113.565248 
L 213.960378 113.551824 
L 214.488843 113.549659 
L 232.456646 113.582458 
L 236.097182 113.587447 
L 237.56514 113.592988 
L 237.623858 123.155275 
L 237.682576 111.167065 
L 237.741294 111.884176 
L 237.976168 120.81747 
L 238.152323 122.037695 
L 238.328478 122.164948 
L 240.501055 121.891752 
L 243.495689 121.95112 
L 244.024154 121.960662 
L 266.924295 122.244647 
L 266.924295 122.244647 
" clip-path="url(#pfe239fdab1)" style="fill: none; stroke: #9467bd; stroke-width: 2; stroke-linecap: square"/>
   </g>
   <g id="line2d_26">
    <path d="M 61.410204 222.882516 
L 61.468922 135.106776 
L 61.527641 145.029264 
L 61.821232 171.813659 
L 62.114824 181.696767 
L 62.408415 185.419453 
L 62.702007 186.861558 
L 63.054317 187.53472 
L 63.524063 187.891579 
L 64.522275 188.269839 
L 68.749993 189.713977 
L 72.566683 190.653397 
L 76.383374 191.36279 
L 81.02212 191.997379 
L 86.60036 192.526082 
L 90.76936 192.803001 
L 90.945515 91.323583 
L 91.239106 64.654445 
L 91.532698 55.277274 
L 91.82629 51.87465 
L 92.119881 50.613324 
L 92.472191 50.059377 
L 93.000656 49.740217 
L 95.349388 48.767844 
L 97.110938 48.310793 
L 105.155346 46.514291 
L 113.258473 45.499536 
L 118.132093 45.122574 
L 120.128516 45.002204 
L 120.245952 127.339556 
L 120.539544 138.867815 
L 120.833136 143.094569 
L 121.126727 144.662703 
L 121.420319 145.265254 
L 121.831347 145.575317 
L 122.653403 145.792213 
L 125.824192 146.335387 
L 132.51808 147.112181 
L 139.79915 147.622133 
L 148.137151 147.954961 
L 149.487672 147.992431 
L 149.663827 97.912209 
L 149.957418 76.313083 
L 150.25101 68.668085 
L 150.544601 65.905104 
L 150.838193 64.885057 
L 151.190503 64.438466 
L 151.777686 64.157683 
L 154.361292 63.304833 
L 156.240278 62.972829 
L 158.177982 62.528432 
L 159.704658 62.247926 
L 162.464419 61.804356 
L 174.031926 60.672637 
L 178.846828 60.417551 
L 178.964264 117.525441 
L 179.081701 117.053283 
L 179.375292 116.027672 
L 179.727602 115.592197 
L 180.256067 115.338479 
L 181.312997 115.129723 
L 181.606588 115.121438 
L 182.663518 115.181218 
L 185.247124 115.33736 
L 186.597645 115.338547 
L 188.594067 115.332212 
L 208.205984 115.404211 
L 208.617012 88.468819 
L 208.910603 81.486284 
L 209.204195 78.925303 
L 209.497786 77.955196 
L 209.850096 77.519746 
L 210.437279 77.245481 
L 212.433702 76.632027 
L 213.960378 76.425252 
L 216.015519 76.109853 
L 217.777068 75.82588 
L 230.460224 74.638998 
L 237.271548 74.332622 
L 237.56514 74.322914 
L 237.682576 126.90581 
L 237.858731 128.012323 
L 238.739506 129.373197 
L 239.385407 129.517782 
L 240.501055 129.510744 
L 242.027731 129.501419 
L 243.730562 129.693662 
L 245.19852 129.761491 
L 249.543675 129.861866 
L 264.34069 130.076754 
L 266.924295 130.096321 
L 266.924295 130.096321 
" clip-path="url(#pfe239fdab1)" style="fill: none; stroke: #8c564b; stroke-width: 2; stroke-linecap: square"/>
   </g>
   <g id="patch_3">
    <path d="M 51.134499 232.981683 
L 51.134499 10.8 
" style="fill: none; stroke: #000000; stroke-width: 0.8; stroke-linejoin: miter; stroke-linecap: square"/>
   </g>
   <g id="patch_4">
    <path d="M 277.2 232.981683 
L 277.2 10.8 
" style="fill: none; stroke: #000000; stroke-width: 0.8; stroke-linejoin: miter; stroke-linecap: square"/>
   </g>
   <g id="patch_5">
    <path d="M 51.134499 232.981683 
L 277.2 232.981683 
" style="fill: none; stroke: #000000; stroke-width: 0.8; stroke-linejoin: miter; stroke-linecap: square"/>
   </g>
   <g id="patch_6">
    <path d="M 51.134499 10.8 
L 277.2 10.8 
" style="fill: none; stroke: #000000; stroke-width: 0.8; stroke-linejoin: miter; stroke-linecap: square"/>
   </g>
   <g id="legend_1">
    <g id="patch_7">
     <path d="M 229.873558 227.981683 
L 270.2 227.981683 
Q 272.2 227.981683 272.2 225.981683 
L 272.2 143.358613 
Q 272.2 141.358613 270.2 141.358613 
L 229.873558 141.358613 
Q 227.873558 141.358613 227.873558 143.358613 
L 227.873558 225.981683 
Q 227.873558 227.981683 229.873558 227.981683 
z
" style="fill: #ffffff; opacity: 0.8; stroke: #cccccc; stroke-linejoin: miter"/>
    </g>
    <g id="line2d_27">
     <path d="M 231.873558 148.858613 
L 241.873558 148.858613 
L 251.873558 148.858613 
" style="fill: none; stroke: #1f77b4; stroke-width: 2; stroke-linecap: square"/>
    </g>
    <g id="text_13">
     <!-- $\tau_{1}$ -->
     <g transform="translate(259.873558 152.358613) scale(0.1 -0.1)">
      <use xlink:href="#CMMI12-1c" transform="scale(0.996264)"/>
      <use xlink:href="#CMR17-31" transform="translate(42.363841 -14.943915) scale(0.697382)"/>
     </g>
    </g>
    <g id="line2d_28">
     <path d="M 231.873558 162.795792 
L 241.873558 162.795792 
L 251.873558 162.795792 
" style="fill: none; stroke: #ff7f0e; stroke-width: 2; stroke-linecap: square"/>
    </g>
    <g id="text_14">
     <!-- $\tau_{2}$ -->
     <g transform="translate(259.873558 166.295792) scale(0.1 -0.1)">
      <use xlink:href="#CMMI12-1c" transform="scale(0.996264)"/>
      <use xlink:href="#CMR17-32" transform="translate(42.363841 -14.943915) scale(0.697382)"/>
     </g>
    </g>
    <g id="line2d_29">
     <path d="M 231.873558 176.73297 
L 241.873558 176.73297 
L 251.873558 176.73297 
" style="fill: none; stroke: #2ca02c; stroke-width: 2; stroke-linecap: square"/>
    </g>
    <g id="text_15">
     <!-- $\tau_{3}$ -->
     <g transform="translate(259.873558 180.23297) scale(0.1 -0.1)">
      <use xlink:href="#CMMI12-1c" transform="scale(0.996264)"/>
      <use xlink:href="#CMR17-33" transform="translate(42.363841 -14.943915) scale(0.697382)"/>
     </g>
    </g>
    <g id="line2d_30">
     <path d="M 231.873558 190.670148 
L 241.873558 190.670148 
L 251.873558 190.670148 
" style="fill: none; stroke: #d62728; stroke-width: 2; stroke-linecap: square"/>
    </g>
    <g id="text_16">
     <!-- $\tau_{4}$ -->
     <g transform="translate(259.873558 194.170148) scale(0.1 -0.1)">
      <defs>
       <path id="CMR17-34" d="M 2150 4122 
C 2150 4256 2144 4256 2029 4256 
L 128 1254 
L 128 1088 
L 1779 1088 
L 1779 457 
C 1779 224 1766 160 1318 160 
L 1197 160 
L 1197 0 
C 1402 0 1747 0 1965 0 
C 2182 0 2528 0 2733 0 
L 2733 160 
L 2611 160 
C 2163 160 2150 224 2150 457 
L 2150 1088 
L 2803 1088 
L 2803 1254 
L 2150 1254 
L 2150 4122 
z
M 1798 3703 
L 1798 1254 
L 256 1254 
L 1798 3703 
z
" transform="scale(0.015625)"/>
      </defs>
      <use xlink:href="#CMMI12-1c" transform="scale(0.996264)"/>
      <use xlink:href="#CMR17-34" transform="translate(42.363841 -14.943915) scale(0.697382)"/>
     </g>
    </g>
    <g id="line2d_31">
     <path d="M 231.873558 204.607327 
L 241.873558 204.607327 
L 251.873558 204.607327 
" style="fill: none; stroke: #9467bd; stroke-width: 2; stroke-linecap: square"/>
    </g>
    <g id="text_17">
     <!-- $\tau_{5}$ -->
     <g transform="translate(259.873558 208.107327) scale(0.1 -0.1)">
      <use xlink:href="#CMMI12-1c" transform="scale(0.996264)"/>
      <use xlink:href="#CMR17-35" transform="translate(42.363841 -14.943915) scale(0.697382)"/>
     </g>
    </g>
    <g id="line2d_32">
     <path d="M 231.873558 218.544505 
L 241.873558 218.544505 
L 251.873558 218.544505 
" style="fill: none; stroke: #8c564b; stroke-width: 2; stroke-linecap: square"/>
    </g>
    <g id="text_18">
     <!-- $\tau_{6}$ -->
     <g transform="translate(259.873558 222.044505) scale(0.1 -0.1)">
      <defs>
       <path id="CMR17-36" d="M 678 2176 
C 678 3690 1395 4032 1811 4032 
C 1946 4032 2272 4009 2400 3776 
C 2298 3776 2106 3776 2106 3553 
C 2106 3381 2246 3323 2336 3323 
C 2394 3323 2566 3348 2566 3560 
C 2566 3954 2246 4179 1805 4179 
C 1043 4179 243 3390 243 1984 
C 243 253 966 -128 1478 -128 
C 2099 -128 2688 427 2688 1283 
C 2688 2081 2170 2662 1517 2662 
C 1126 2662 838 2407 678 1960 
L 678 2176 
z
M 1478 25 
C 691 25 691 1200 691 1436 
C 691 1896 909 2560 1504 2560 
C 1613 2560 1926 2560 2138 2120 
C 2253 1870 2253 1609 2253 1289 
C 2253 944 2253 690 2118 434 
C 1978 171 1773 25 1478 25 
z
" transform="scale(0.015625)"/>
      </defs>
      <use xlink:href="#CMMI12-1c" transform="scale(0.996264)"/>
      <use xlink:href="#CMR17-36" transform="translate(42.363841 -14.943915) scale(0.697382)"/>
     </g>
    </g>
   </g>
  </g>
 </g>
 <defs>
  <clipPath id="pfe239fdab1">
   <rect x="51.134499" y="10.8" width="226.065501" height="222.181683"/>
  </clipPath>
 </defs>
</svg>
