<?xml version="1.0" encoding="utf-8" standalone="no"?>
<!DOCTYPE svg PUBLIC "-//W3C//DTD SVG 1.1//EN"
  "http://www.w3.org/Graphics/SVG/1.1/DTD/svg11.dtd">
<svg xmlns:xlink="http://www.w3.org/1999/xlink" width="360pt" height="252pt" viewBox="0 0 360 252" xmlns="http://www.w3.org/2000/svg" version="1.1">
 <metadata>
  <rdf:RDF xmlns:dc="http://purl.org/dc/elements/1.1/" xmlns:cc="http://creativecommons.org/ns#" xmlns:rdf="http://www.w3.org/1999/02/22-rdf-syntax-ns#">
   <cc:Work>
    <dc:type rdf:resource="http://purl.org/dc/dcmitype/StillImage"/>
    <dc:date>2024-10-21T20:03:26.994036</dc:date>
    <dc:format>image/svg+xml</dc:format>
    <dc:creator>
     <cc:Agent>
      <dc:title>Matplotlib v3.9.2, https://matplotlib.org/</dc:title>
     </cc:Agent>
    </dc:creator>
   </cc:Work>
  </rdf:RDF>
 </metadata>
 <defs>
  <style type="text/css">*{stroke-linejoin: round; stroke-linecap: butt}</style>
 </defs>
 <g id="figure_1">
  <g id="patch_1">
   <path d="M 0 252 
L 360 252 
L 360 0 
L 0 0 
z
" style="fill: #ffffff"/>
  </g>
  <g id="axes_1">
   <g id="patch_2">
    <path d="M 52.241463 211.381683 
L 349.2 211.381683 
L 349.2 10.8 
L 52.241463 10.8 
z
" style="fill: #ffffff"/>
   </g>
   <g id="matplotlib.axis_1">
    <g id="xtick_1">
     <g id="line2d_1">
      <path d="M 65.739578 211.381683 
L 65.739578 10.8 
" clip-path="url(#pd30d3e25d8)" style="fill: none; stroke: #b0b0b0; stroke-width: 0.8; stroke-linecap: square"/>
     </g>
     <g id="line2d_2">
      <defs>
       <path id="m26cf8167d8" d="M 0 0 
L 0 3.5 
" style="stroke: #000000; stroke-width: 0.8"/>
      </defs>
      <g>
       <use xlink:href="#m26cf8167d8" x="65.739578" y="211.381683" style="stroke: #000000; stroke-width: 0.8"/>
      </g>
     </g>
     <g id="text_1">
      <!-- $\mathdefault{0}$ -->
      <g transform="translate(63.248911 225.300182) scale(0.1 -0.1)">
       <defs>
        <path id="CMR17-30" d="M 2688 2025 
C 2688 2416 2682 3080 2413 3591 
C 2176 4039 1798 4198 1466 4198 
C 1158 4198 768 4058 525 3597 
C 269 3118 243 2524 243 2025 
C 243 1661 250 1106 448 619 
C 723 -39 1216 -128 1466 -128 
C 1760 -128 2208 -7 2470 600 
C 2662 1042 2688 1559 2688 2025 
z
M 1466 -26 
C 1056 -26 813 325 723 812 
C 653 1188 653 1738 653 2096 
C 653 2588 653 2997 736 3387 
C 858 3929 1216 4096 1466 4096 
C 1728 4096 2067 3923 2189 3400 
C 2272 3036 2278 2607 2278 2096 
C 2278 1680 2278 1169 2202 792 
C 2067 95 1690 -26 1466 -26 
z
" transform="scale(0.015625)"/>
       </defs>
       <use xlink:href="#CMR17-30" transform="scale(0.996264)"/>
      </g>
     </g>
    </g>
    <g id="xtick_2">
     <g id="line2d_3">
      <path d="M 104.305622 211.381683 
L 104.305622 10.8 
" clip-path="url(#pd30d3e25d8)" style="fill: none; stroke: #b0b0b0; stroke-width: 0.8; stroke-linecap: square"/>
     </g>
     <g id="line2d_4">
      <g>
       <use xlink:href="#m26cf8167d8" x="104.305622" y="211.381683" style="stroke: #000000; stroke-width: 0.8"/>
      </g>
     </g>
     <g id="text_2">
      <!-- $\mathdefault{5}$ -->
      <g transform="translate(101.814954 225.300182) scale(0.1 -0.1)">
       <defs>
        <path id="CMR17-35" d="M 730 3692 
C 794 3666 1056 3584 1325 3584 
C 1920 3584 2246 3911 2432 4100 
C 2432 4157 2432 4192 2394 4192 
C 2387 4192 2374 4192 2323 4163 
C 2099 4058 1837 3973 1517 3973 
C 1325 3973 1037 3999 723 4139 
C 653 4171 640 4171 634 4171 
C 602 4171 595 4164 595 4037 
L 595 2203 
C 595 2089 595 2057 659 2057 
C 691 2057 704 2070 736 2114 
C 941 2401 1222 2522 1542 2522 
C 1766 2522 2246 2382 2246 1289 
C 2246 1085 2246 715 2054 421 
C 1894 159 1645 25 1370 25 
C 947 25 518 320 403 814 
C 429 807 480 795 506 795 
C 589 795 749 840 749 1038 
C 749 1210 627 1280 506 1280 
C 358 1280 262 1190 262 1011 
C 262 454 704 -128 1382 -128 
C 2042 -128 2669 440 2669 1264 
C 2669 2030 2170 2624 1549 2624 
C 1222 2624 947 2503 730 2274 
L 730 3692 
z
" transform="scale(0.015625)"/>
       </defs>
       <use xlink:href="#CMR17-35" transform="scale(0.996264)"/>
      </g>
     </g>
    </g>
    <g id="xtick_3">
     <g id="line2d_5">
      <path d="M 142.871666 211.381683 
L 142.871666 10.8 
" clip-path="url(#pd30d3e25d8)" style="fill: none; stroke: #b0b0b0; stroke-width: 0.8; stroke-linecap: square"/>
     </g>
     <g id="line2d_6">
      <g>
       <use xlink:href="#m26cf8167d8" x="142.871666" y="211.381683" style="stroke: #000000; stroke-width: 0.8"/>
      </g>
     </g>
     <g id="text_3">
      <!-- $\mathdefault{10}$ -->
      <g transform="translate(137.89033 225.300182) scale(0.1 -0.1)">
       <defs>
        <path id="CMR17-31" d="M 1702 4058 
C 1702 4192 1696 4192 1606 4192 
C 1357 3916 979 3827 621 3827 
C 602 3827 570 3827 563 3808 
C 557 3795 557 3782 557 3648 
C 755 3648 1088 3686 1344 3839 
L 1344 461 
C 1344 236 1331 160 781 160 
L 589 160 
L 589 0 
C 896 0 1216 0 1523 0 
C 1830 0 2150 0 2458 0 
L 2458 160 
L 2266 160 
C 1715 160 1702 230 1702 458 
L 1702 4058 
z
" transform="scale(0.015625)"/>
       </defs>
       <use xlink:href="#CMR17-31" transform="scale(0.996264)"/>
       <use xlink:href="#CMR17-30" transform="translate(45.690477 0) scale(0.996264)"/>
      </g>
     </g>
    </g>
    <g id="xtick_4">
     <g id="line2d_7">
      <path d="M 181.43771 211.381683 
L 181.43771 10.8 
" clip-path="url(#pd30d3e25d8)" style="fill: none; stroke: #b0b0b0; stroke-width: 0.8; stroke-linecap: square"/>
     </g>
     <g id="line2d_8">
      <g>
       <use xlink:href="#m26cf8167d8" x="181.43771" y="211.381683" style="stroke: #000000; stroke-width: 0.8"/>
      </g>
     </g>
     <g id="text_4">
      <!-- $\mathdefault{15}$ -->
      <g transform="translate(176.456374 225.300182) scale(0.1 -0.1)">
       <use xlink:href="#CMR17-31" transform="scale(0.996264)"/>
       <use xlink:href="#CMR17-35" transform="translate(45.690477 0) scale(0.996264)"/>
      </g>
     </g>
    </g>
    <g id="xtick_5">
     <g id="line2d_9">
      <path d="M 220.003753 211.381683 
L 220.003753 10.8 
" clip-path="url(#pd30d3e25d8)" style="fill: none; stroke: #b0b0b0; stroke-width: 0.8; stroke-linecap: square"/>
     </g>
     <g id="line2d_10">
      <g>
       <use xlink:href="#m26cf8167d8" x="220.003753" y="211.381683" style="stroke: #000000; stroke-width: 0.8"/>
      </g>
     </g>
     <g id="text_5">
      <!-- $\mathdefault{20}$ -->
      <g transform="translate(215.022418 225.300182) scale(0.1 -0.1)">
       <defs>
        <path id="CMR17-32" d="M 2669 989 
L 2554 989 
C 2490 536 2438 459 2413 420 
C 2381 369 1920 369 1830 369 
L 602 369 
C 832 619 1280 1072 1824 1597 
C 2214 1967 2669 2402 2669 3035 
C 2669 3790 2067 4224 1395 4224 
C 691 4224 262 3604 262 3030 
C 262 2780 448 2748 525 2748 
C 589 2748 781 2787 781 3010 
C 781 3207 614 3264 525 3264 
C 486 3264 448 3258 422 3245 
C 544 3790 915 4058 1306 4058 
C 1862 4058 2227 3617 2227 3035 
C 2227 2479 1901 2000 1536 1584 
L 262 146 
L 262 0 
L 2515 0 
L 2669 989 
z
" transform="scale(0.015625)"/>
       </defs>
       <use xlink:href="#CMR17-32" transform="scale(0.996264)"/>
       <use xlink:href="#CMR17-30" transform="translate(45.690477 0) scale(0.996264)"/>
      </g>
     </g>
    </g>
    <g id="xtick_6">
     <g id="line2d_11">
      <path d="M 258.569797 211.381683 
L 258.569797 10.8 
" clip-path="url(#pd30d3e25d8)" style="fill: none; stroke: #b0b0b0; stroke-width: 0.8; stroke-linecap: square"/>
     </g>
     <g id="line2d_12">
      <g>
       <use xlink:href="#m26cf8167d8" x="258.569797" y="211.381683" style="stroke: #000000; stroke-width: 0.8"/>
      </g>
     </g>
     <g id="text_6">
      <!-- $\mathdefault{25}$ -->
      <g transform="translate(253.588462 225.300182) scale(0.1 -0.1)">
       <use xlink:href="#CMR17-32" transform="scale(0.996264)"/>
       <use xlink:href="#CMR17-35" transform="translate(45.690477 0) scale(0.996264)"/>
      </g>
     </g>
    </g>
    <g id="xtick_7">
     <g id="line2d_13">
      <path d="M 297.135841 211.381683 
L 297.135841 10.8 
" clip-path="url(#pd30d3e25d8)" style="fill: none; stroke: #b0b0b0; stroke-width: 0.8; stroke-linecap: square"/>
     </g>
     <g id="line2d_14">
      <g>
       <use xlink:href="#m26cf8167d8" x="297.135841" y="211.381683" style="stroke: #000000; stroke-width: 0.8"/>
      </g>
     </g>
     <g id="text_7">
      <!-- $\mathdefault{30}$ -->
      <g transform="translate(292.154506 225.300182) scale(0.1 -0.1)">
       <defs>
        <path id="CMR17-33" d="M 1414 2157 
C 1984 2157 2234 1662 2234 1090 
C 2234 320 1824 25 1453 25 
C 1114 25 563 194 390 693 
C 422 680 454 680 486 680 
C 640 680 755 782 755 948 
C 755 1133 614 1216 486 1216 
C 378 1216 211 1165 211 926 
C 211 335 787 -128 1466 -128 
C 2176 -128 2720 430 2720 1085 
C 2720 1707 2208 2157 1600 2227 
C 2086 2328 2554 2756 2554 3329 
C 2554 3820 2048 4179 1472 4179 
C 890 4179 378 3829 378 3329 
C 378 3110 544 3072 627 3072 
C 762 3072 877 3155 877 3321 
C 877 3486 762 3569 627 3569 
C 602 3569 570 3569 544 3557 
C 730 3959 1235 4032 1459 4032 
C 1683 4032 2106 3925 2106 3320 
C 2106 3143 2080 2828 1862 2550 
C 1670 2304 1453 2304 1242 2284 
C 1210 2284 1062 2269 1037 2269 
C 992 2263 966 2257 966 2208 
C 966 2163 973 2157 1101 2157 
L 1414 2157 
z
" transform="scale(0.015625)"/>
       </defs>
       <use xlink:href="#CMR17-33" transform="scale(0.996264)"/>
       <use xlink:href="#CMR17-30" transform="translate(45.690477 0) scale(0.996264)"/>
      </g>
     </g>
    </g>
    <g id="xtick_8">
     <g id="line2d_15">
      <path d="M 335.701885 211.381683 
L 335.701885 10.8 
" clip-path="url(#pd30d3e25d8)" style="fill: none; stroke: #b0b0b0; stroke-width: 0.8; stroke-linecap: square"/>
     </g>
     <g id="line2d_16">
      <g>
       <use xlink:href="#m26cf8167d8" x="335.701885" y="211.381683" style="stroke: #000000; stroke-width: 0.8"/>
      </g>
     </g>
     <g id="text_8">
      <!-- $\mathdefault{35}$ -->
      <g transform="translate(330.720549 225.300182) scale(0.1 -0.1)">
       <use xlink:href="#CMR17-33" transform="scale(0.996264)"/>
       <use xlink:href="#CMR17-35" transform="translate(45.690477 0) scale(0.996264)"/>
      </g>
     </g>
    </g>
    <g id="text_9">
     <!-- Time $t$ [s] -->
     <g transform="translate(179.522424 238.70934) scale(0.1 -0.1)">
      <defs>
       <path id="CMR17-54" d="M 3981 4326 
L 288 4326 
L 179 2918 
L 294 2918 
C 378 3976 467 4160 1453 4160 
C 1568 4160 1754 4160 1805 4154 
C 1926 4135 1926 4058 1926 3912 
L 1926 459 
C 1926 230 1907 160 1376 160 
L 1197 160 
L 1197 0 
C 1504 0 1824 0 2138 0 
C 2451 0 2771 0 3078 0 
L 3078 160 
L 2899 160 
C 2368 160 2349 230 2349 459 
L 2349 3912 
C 2349 4052 2349 4129 2464 4154 
C 2515 4160 2701 4160 2816 4160 
C 3795 4160 3891 3976 3974 2918 
L 4090 2918 
L 3981 4326 
z
" transform="scale(0.015625)"/>
       <path id="CMR17-69" d="M 992 3909 
C 992 4049 877 4170 730 4170 
C 589 4170 467 4056 467 3909 
C 467 3769 582 3648 730 3648 
C 870 3648 992 3763 992 3909 
z
M 243 2706 
L 243 2541 
C 602 2541 653 2502 653 2197 
L 653 427 
C 653 184 627 153 218 153 
L 218 -13 
C 371 0 646 0 806 0 
C 960 0 1222 0 1370 -13 
L 1370 153 
C 992 153 979 191 979 420 
L 979 2776 
L 243 2706 
z
" transform="scale(0.015625)"/>
       <path id="CMR17-6d" d="M 4326 1933 
C 4326 2252 4269 2790 3507 2790 
C 3072 2790 2771 2496 2656 2151 
L 2650 2151 
C 2573 2676 2195 2790 1837 2790 
C 1331 2790 1069 2400 973 2144 
L 966 2144 
L 966 2790 
L 211 2720 
L 211 2554 
C 589 2554 646 2515 646 2208 
L 646 428 
C 646 184 621 153 211 153 
L 211 -13 
C 365 0 646 0 813 0 
C 979 0 1267 0 1421 -13 
L 1421 153 
C 1011 153 986 178 986 428 
L 986 1658 
C 986 2247 1344 2688 1792 2688 
C 2266 2688 2317 2266 2317 1958 
L 2317 428 
C 2317 184 2291 153 1882 153 
L 1882 -13 
C 2035 0 2317 0 2483 0 
C 2650 0 2938 0 3091 -13 
L 3091 153 
C 2682 153 2656 178 2656 428 
L 2656 1658 
C 2656 2247 3014 2688 3462 2688 
C 3936 2688 3987 2266 3987 1958 
L 3987 428 
C 3987 184 3962 153 3552 153 
L 3552 -13 
C 3706 0 3987 0 4154 0 
C 4320 0 4608 0 4762 -13 
L 4762 153 
C 4352 153 4326 178 4326 428 
L 4326 1933 
z
" transform="scale(0.015625)"/>
       <path id="CMR17-65" d="M 2438 1472 
C 2464 1498 2464 1511 2464 1576 
C 2464 2238 2118 2816 1389 2816 
C 710 2816 173 2169 173 1383 
C 173 551 781 -64 1459 -64 
C 2176 -64 2458 607 2458 740 
C 2458 784 2419 784 2406 784 
C 2362 784 2355 771 2330 696 
C 2189 265 1837 51 1504 51 
C 1229 51 954 203 781 480 
C 582 803 582 1176 582 1472 
L 2438 1472 
z
M 589 1568 
C 634 2505 1126 2714 1382 2714 
C 1818 2714 2112 2297 2118 1568 
L 589 1568 
z
" transform="scale(0.015625)"/>
       <path id="CMMI12-74" d="M 1286 2566 
L 1875 2566 
C 1997 2566 2061 2566 2061 2681 
C 2061 2752 2022 2752 1894 2752 
L 1331 2752 
L 1568 3692 
C 1594 3781 1594 3794 1594 3840 
C 1594 3943 1510 4000 1427 4000 
C 1376 4000 1229 3981 1178 3775 
L 928 2752 
L 326 2752 
C 198 2752 141 2752 141 2630 
C 141 2566 186 2566 307 2566 
L 877 2566 
L 454 881 
C 403 658 384 594 384 511 
C 384 211 595 -64 954 -64 
C 1600 -64 1946 868 1946 912 
C 1946 951 1920 970 1882 970 
C 1869 970 1843 970 1830 944 
C 1824 938 1818 931 1773 829 
C 1638 511 1344 64 973 64 
C 781 64 768 224 768 364 
C 768 370 768 492 787 568 
L 1286 2566 
z
" transform="scale(0.015625)"/>
       <path id="CMR17-5b" d="M 1504 -1600 
L 1504 -1377 
L 902 -1377 
L 902 4544 
L 1504 4544 
L 1504 4767 
L 678 4767 
L 678 -1600 
L 1504 -1600 
z
" transform="scale(0.015625)"/>
       <path id="CMR17-73" d="M 1978 2697 
C 1978 2813 1971 2819 1933 2819 
C 1907 2819 1901 2813 1824 2717 
C 1805 2691 1747 2626 1728 2601 
C 1523 2819 1235 2819 1126 2819 
C 416 2819 160 2447 160 2076 
C 160 1498 813 1365 998 1325 
C 1402 1243 1542 1217 1677 1101 
C 1760 1025 1901 884 1901 654 
C 1901 384 1747 38 1158 38 
C 602 38 403 460 288 1021 
C 269 1110 269 1117 218 1117 
C 166 1117 160 1110 160 983 
L 160 63 
C 160 -51 166 -58 205 -58 
C 237 -58 243 -51 275 0 
C 314 57 410 211 448 276 
C 576 103 800 -64 1158 -64 
C 1792 -64 2131 283 2131 784 
C 2131 1112 1958 1285 1875 1362 
C 1683 1561 1459 1606 1190 1657 
C 838 1735 390 1825 390 2217 
C 390 2383 480 2737 1126 2737 
C 1811 2737 1850 2094 1862 1888 
C 1869 1856 1901 1849 1920 1849 
C 1978 1849 1978 1869 1978 1978 
L 1978 2697 
z
" transform="scale(0.015625)"/>
       <path id="CMR17-5d" d="M 915 4767 
L 90 4767 
L 90 4544 
L 691 4544 
L 691 -1377 
L 90 -1377 
L 90 -1600 
L 915 -1600 
L 915 4767 
z
" transform="scale(0.015625)"/>
      </defs>
      <use xlink:href="#CMR17-54" transform="scale(0.996264)"/>
      <use xlink:href="#CMR17-69" transform="translate(66.509881 0) scale(0.996264)"/>
      <use xlink:href="#CMR17-6d" transform="translate(91.380939 0) scale(0.996264)"/>
      <use xlink:href="#CMR17-65" transform="translate(168.300529 0) scale(0.996264)"/>
      <use xlink:href="#CMMI12-74" transform="translate(238.862156 0) scale(0.996264)"/>
      <use xlink:href="#CMR17-5b" transform="translate(304.164452 0) scale(0.996264)"/>
      <use xlink:href="#CMR17-73" transform="translate(329.035511 0) scale(0.996264)"/>
      <use xlink:href="#CMR17-5d" transform="translate(364.836848 0) scale(0.996264)"/>
     </g>
    </g>
   </g>
   <g id="matplotlib.axis_2">
    <g id="ytick_1">
     <g id="line2d_17">
      <path d="M 52.241463 177.440471 
L 349.2 177.440471 
" clip-path="url(#pd30d3e25d8)" style="fill: none; stroke: #b0b0b0; stroke-width: 0.8; stroke-linecap: square"/>
     </g>
     <g id="line2d_18">
      <defs>
       <path id="ma97ca34bef" d="M 0 0 
L -3.5 0 
" style="stroke: #000000; stroke-width: 0.8"/>
      </defs>
      <g>
       <use xlink:href="#ma97ca34bef" x="52.241463" y="177.440471" style="stroke: #000000; stroke-width: 0.8"/>
      </g>
     </g>
     <g id="text_10">
      <!-- $\mathdefault{−1.0}$ -->
      <g transform="translate(24.76264 180.899721) scale(0.1 -0.1)">
       <defs>
        <path id="CMSY10-0" d="M 4218 1472 
C 4326 1472 4442 1472 4442 1600 
C 4442 1728 4326 1728 4218 1728 
L 755 1728 
C 646 1728 531 1728 531 1600 
C 531 1472 646 1472 755 1472 
L 4218 1472 
z
" transform="scale(0.015625)"/>
        <path id="CMMI12-3a" d="M 1178 307 
C 1178 492 1024 619 870 619 
C 685 619 557 466 557 313 
C 557 128 710 0 864 0 
C 1050 0 1178 153 1178 307 
z
" transform="scale(0.015625)"/>
       </defs>
       <use xlink:href="#CMSY10-0" transform="scale(0.996264)"/>
       <use xlink:href="#CMR17-31" transform="translate(77.487468 0) scale(0.996264)"/>
       <use xlink:href="#CMMI12-3a" transform="translate(123.177945 0) scale(0.996264)"/>
       <use xlink:href="#CMR17-30" transform="translate(150.275122 0) scale(0.996264)"/>
      </g>
     </g>
    </g>
    <g id="ytick_2">
     <g id="line2d_19">
      <path d="M 52.241463 139.784945 
L 349.2 139.784945 
" clip-path="url(#pd30d3e25d8)" style="fill: none; stroke: #b0b0b0; stroke-width: 0.8; stroke-linecap: square"/>
     </g>
     <g id="line2d_20">
      <g>
       <use xlink:href="#ma97ca34bef" x="52.241463" y="139.784945" style="stroke: #000000; stroke-width: 0.8"/>
      </g>
     </g>
     <g id="text_11">
      <!-- $\mathdefault{−0.5}$ -->
      <g transform="translate(24.76264 143.244195) scale(0.1 -0.1)">
       <use xlink:href="#CMSY10-0" transform="scale(0.996264)"/>
       <use xlink:href="#CMR17-30" transform="translate(77.487468 0) scale(0.996264)"/>
       <use xlink:href="#CMMI12-3a" transform="translate(123.177945 0) scale(0.996264)"/>
       <use xlink:href="#CMR17-35" transform="translate(150.275122 0) scale(0.996264)"/>
      </g>
     </g>
    </g>
    <g id="ytick_3">
     <g id="line2d_21">
      <path d="M 52.241463 102.12942 
L 349.2 102.12942 
" clip-path="url(#pd30d3e25d8)" style="fill: none; stroke: #b0b0b0; stroke-width: 0.8; stroke-linecap: square"/>
     </g>
     <g id="line2d_22">
      <g>
       <use xlink:href="#ma97ca34bef" x="52.241463" y="102.12942" style="stroke: #000000; stroke-width: 0.8"/>
      </g>
     </g>
     <g id="text_12">
      <!-- $\mathdefault{0.0}$ -->
      <g transform="translate(32.511384 105.588669) scale(0.1 -0.1)">
       <use xlink:href="#CMR17-30" transform="scale(0.996264)"/>
       <use xlink:href="#CMMI12-3a" transform="translate(45.690477 0) scale(0.996264)"/>
       <use xlink:href="#CMR17-30" transform="translate(72.787654 0) scale(0.996264)"/>
      </g>
     </g>
    </g>
    <g id="ytick_4">
     <g id="line2d_23">
      <path d="M 52.241463 64.473894 
L 349.2 64.473894 
" clip-path="url(#pd30d3e25d8)" style="fill: none; stroke: #b0b0b0; stroke-width: 0.8; stroke-linecap: square"/>
     </g>
     <g id="line2d_24">
      <g>
       <use xlink:href="#ma97ca34bef" x="52.241463" y="64.473894" style="stroke: #000000; stroke-width: 0.8"/>
      </g>
     </g>
     <g id="text_13">
      <!-- $\mathdefault{0.5}$ -->
      <g transform="translate(32.511384 67.933143) scale(0.1 -0.1)">
       <use xlink:href="#CMR17-30" transform="scale(0.996264)"/>
       <use xlink:href="#CMMI12-3a" transform="translate(45.690477 0) scale(0.996264)"/>
       <use xlink:href="#CMR17-35" transform="translate(72.787654 0) scale(0.996264)"/>
      </g>
     </g>
    </g>
    <g id="ytick_5">
     <g id="line2d_25">
      <path d="M 52.241463 26.818368 
L 349.2 26.818368 
" clip-path="url(#pd30d3e25d8)" style="fill: none; stroke: #b0b0b0; stroke-width: 0.8; stroke-linecap: square"/>
     </g>
     <g id="line2d_26">
      <g>
       <use xlink:href="#ma97ca34bef" x="52.241463" y="26.818368" style="stroke: #000000; stroke-width: 0.8"/>
      </g>
     </g>
     <g id="text_14">
      <!-- $\mathdefault{1.0}$ -->
      <g transform="translate(32.511384 30.277617) scale(0.1 -0.1)">
       <use xlink:href="#CMR17-31" transform="scale(0.996264)"/>
       <use xlink:href="#CMMI12-3a" transform="translate(45.690477 0) scale(0.996264)"/>
       <use xlink:href="#CMR17-30" transform="translate(72.787654 0) scale(0.996264)"/>
      </g>
     </g>
    </g>
    <g id="text_15">
     <!-- Axial force [N] -->
     <g transform="translate(18.27198 142.929842) rotate(-90) scale(0.1 -0.1)">
      <defs>
       <path id="CMR17-41" d="M 2323 4378 
C 2291 4461 2278 4480 2214 4480 
C 2150 4480 2138 4461 2106 4378 
L 749 566 
C 627 223 371 153 147 153 
L 147 -13 
C 262 0 518 0 640 0 
C 800 0 1056 0 1210 -13 
L 1210 153 
C 909 153 864 361 864 439 
C 864 497 877 530 890 569 
L 1229 1536 
L 2906 1536 
L 3290 442 
C 3322 365 3322 352 3322 327 
C 3322 153 3046 153 2925 153 
L 2925 0 
C 3110 0 3443 0 3642 0 
C 3808 0 4128 0 4282 -13 
L 4282 153 
C 3942 153 3827 153 3744 387 
L 2323 4378 
z
M 2067 3893 
L 2848 1702 
L 1286 1702 
L 2067 3893 
z
" transform="scale(0.015625)"/>
       <path id="CMR17-78" d="M 1664 1477 
C 1856 1726 2074 2006 2253 2216 
C 2464 2458 2707 2560 2989 2560 
L 2989 2726 
C 2880 2726 2656 2726 2541 2726 
C 2368 2726 2170 2726 2022 2732 
L 2022 2566 
C 2112 2553 2163 2489 2163 2400 
C 2163 2285 2099 2215 2067 2171 
L 1594 1573 
L 1030 2306 
C 973 2376 973 2388 973 2420 
C 973 2497 1037 2560 1146 2560 
L 1146 2732 
C 992 2726 717 2726 557 2726 
C 384 2726 179 2726 38 2732 
L 38 2560 
C 384 2560 461 2534 614 2343 
L 1350 1395 
C 1363 1382 1395 1344 1395 1325 
C 1395 1299 838 619 768 530 
C 480 185 179 160 6 160 
L 6 0 
C 115 0 339 0 454 0 
C 582 0 864 0 979 -6 
L 979 160 
C 941 166 838 179 838 325 
C 838 440 890 510 947 586 
L 1478 1236 
L 2035 512 
C 2086 442 2163 346 2163 301 
C 2163 211 2086 160 1984 160 
L 1984 -6 
C 2138 0 2413 0 2573 0 
C 2746 0 2950 0 3091 -6 
L 3091 160 
C 2771 160 2675 172 2522 370 
L 1664 1477 
z
" transform="scale(0.015625)"/>
       <path id="CMR17-61" d="M 2304 1653 
C 2304 2072 2304 2294 2035 2543 
C 1798 2752 1523 2816 1306 2816 
C 800 2816 435 2407 435 1971 
C 435 1728 627 1728 666 1728 
C 749 1728 896 1778 896 1954 
C 896 2112 774 2181 666 2181 
C 640 2181 608 2174 589 2168 
C 723 2592 1069 2714 1293 2714 
C 1613 2714 1965 2429 1965 1885 
L 1965 1600 
C 1587 1600 1133 1549 774 1357 
C 371 1133 256 813 256 570 
C 256 77 832 -64 1171 -64 
C 1523 -64 1850 139 1990 511 
C 2003 233 2182 -18 2464 -18 
C 2598 -18 2938 70 2938 567 
L 2938 920 
L 2822 920 
L 2822 562 
C 2822 178 2650 128 2566 128 
C 2304 128 2304 458 2304 738 
L 2304 1653 
z
M 1965 870 
C 1965 317 1568 38 1216 38 
C 896 38 646 275 646 570 
C 646 761 730 1100 1101 1305 
C 1408 1478 1760 1504 1965 1504 
L 1965 870 
z
" transform="scale(0.015625)"/>
       <path id="CMR17-6c" d="M 979 4396 
L 218 4326 
L 218 4160 
C 595 4160 653 4122 653 3817 
L 653 426 
C 653 184 627 153 218 153 
L 218 -13 
C 371 0 653 0 813 0 
C 979 0 1261 0 1414 -13 
L 1414 153 
C 1005 153 979 178 979 426 
L 979 4396 
z
" transform="scale(0.015625)"/>
       <path id="CMR17-66" d="M 979 2560 
L 1709 2560 
L 1709 2725 
L 966 2725 
L 966 3494 
C 966 4022 1235 4352 1510 4352 
C 1594 4352 1690 4327 1754 4282 
C 1702 4269 1568 4225 1568 4067 
C 1568 3901 1696 3850 1786 3850 
C 1875 3850 2003 3901 2003 4067 
C 2003 4308 1773 4454 1517 4454 
C 1152 4454 653 4156 653 3481 
L 653 2725 
L 141 2725 
L 141 2560 
L 653 2560 
L 653 427 
C 653 184 627 153 218 153 
L 218 -13 
C 371 0 666 0 832 0 
C 1018 0 1344 0 1517 -13 
L 1517 153 
C 1056 153 979 153 979 439 
L 979 2560 
z
" transform="scale(0.015625)"/>
       <path id="CMR17-6f" d="M 2758 1356 
C 2758 2176 2163 2816 1466 2816 
C 768 2816 173 2176 173 1356 
C 173 551 768 -64 1466 -64 
C 2163 -64 2758 551 2758 1356 
z
M 1466 51 
C 1165 51 909 230 762 480 
C 602 767 582 1126 582 1408 
C 582 1677 595 2010 762 2298 
C 890 2509 1139 2714 1466 2714 
C 1754 2714 1997 2554 2150 2330 
C 2349 2029 2349 1607 2349 1408 
C 2349 1158 2336 775 2163 467 
C 1984 173 1709 51 1466 51 
z
" transform="scale(0.015625)"/>
       <path id="CMR17-72" d="M 960 1497 
C 960 2112 1222 2688 1702 2688 
C 1747 2688 1792 2682 1837 2662 
C 1837 2662 1696 2617 1696 2452 
C 1696 2298 1818 2234 1914 2234 
C 1990 2234 2131 2279 2131 2458 
C 2131 2663 1926 2790 1709 2790 
C 1222 2790 1011 2317 947 2093 
L 941 2093 
L 941 2790 
L 198 2720 
L 198 2554 
C 576 2554 634 2515 634 2208 
L 634 428 
C 634 184 608 153 198 153 
L 198 -13 
C 352 0 646 0 813 0 
C 998 0 1325 0 1498 -13 
L 1498 153 
C 1037 153 960 153 960 440 
L 960 1497 
z
" transform="scale(0.015625)"/>
       <path id="CMR17-63" d="M 2234 2240 
C 2112 2240 1933 2240 1933 2017 
C 1933 1838 2080 1787 2163 1787 
C 2208 1787 2394 1807 2394 2024 
C 2394 2467 1958 2803 1466 2803 
C 787 2803 211 2178 211 1363 
C 211 516 813 -64 1466 -64 
C 2259 -64 2458 677 2458 748 
C 2458 774 2451 793 2406 793 
C 2362 793 2355 787 2330 703 
C 2163 180 1798 51 1523 51 
C 1114 51 621 427 621 1369 
C 621 2338 1094 2688 1472 2688 
C 1722 2688 2093 2573 2234 2240 
z
" transform="scale(0.015625)"/>
       <path id="CMR17-4e" d="M 1312 4250 
C 1267 4320 1261 4320 1139 4320 
L 326 4320 
L 326 4160 
L 448 4160 
C 704 4160 819 4129 838 4122 
L 838 610 
C 838 451 838 153 326 153 
L 326 -13 
C 474 0 742 0 902 0 
C 1062 0 1331 0 1478 -13 
L 1478 153 
C 966 153 966 451 966 610 
L 966 4033 
C 1011 3995 1011 3982 1056 3919 
L 3430 76 
C 3475 0 3494 0 3526 0 
C 3590 0 3590 19 3590 139 
L 3590 3705 
C 3590 3863 3590 4160 4102 4160 
L 4102 4326 
C 3955 4320 3686 4320 3526 4320 
C 3366 4320 3098 4320 2950 4326 
L 2950 4160 
C 3462 4160 3462 3862 3462 3703 
L 3462 763 
L 1312 4250 
z
" transform="scale(0.015625)"/>
      </defs>
      <use xlink:href="#CMR17-41" transform="scale(0.996264)"/>
      <use xlink:href="#CMR17-78" transform="translate(69.07243 0) scale(0.996264)"/>
      <use xlink:href="#CMR17-69" transform="translate(117.365346 0) scale(0.996264)"/>
      <use xlink:href="#CMR17-61" transform="translate(142.236404 0) scale(0.996264)"/>
      <use xlink:href="#CMR17-6c" transform="translate(187.926881 0) scale(0.996264)"/>
      <use xlink:href="#CMR17-66" transform="translate(242.873906 0) scale(0.996264)"/>
      <use xlink:href="#CMR17-6f" transform="translate(270.347418 0) scale(0.996264)"/>
      <use xlink:href="#CMR17-72" transform="translate(316.037896 0) scale(0.996264)"/>
      <use xlink:href="#CMR17-63" transform="translate(351.318663 0) scale(0.996264)"/>
      <use xlink:href="#CMR17-65" transform="translate(391.804324 0) scale(0.996264)"/>
      <use xlink:href="#CMR17-5b" transform="translate(462.365951 0) scale(0.996264)"/>
      <use xlink:href="#CMR17-4e" transform="translate(487.237009 0) scale(0.996264)"/>
      <use xlink:href="#CMR17-5d" transform="translate(556.309439 0) scale(0.996264)"/>
     </g>
    </g>
   </g>
   <g id="line2d_27">
    <path d="M 65.739578 43.794408 
L 104.305622 43.794408 
L 104.459886 65.781667 
L 142.871666 65.781667 
L 143.02593 125.762059 
L 181.43771 125.762059 
L 181.591974 35.99755 
L 220.003753 35.99755 
L 220.158017 135.206552 
L 258.569797 135.206552 
L 258.724061 111.393148 
L 297.135841 111.393148 
L 297.290105 91.820483 
L 335.701885 91.820483 
L 335.701885 91.820483 
" clip-path="url(#pd30d3e25d8)" style="fill: none; stroke: #1f77b4; stroke-width: 1.5; stroke-linecap: square"/>
    <defs>
     <path id="m16265cfd5e" d="M 0 2.5 
C 0.663008 2.5 1.29895 2.236584 1.767767 1.767767 
C 2.236584 1.29895 2.5 0.663008 2.5 0 
C 2.5 -0.663008 2.236584 -1.29895 1.767767 -1.767767 
C 1.29895 -2.236584 0.663008 -2.5 0 -2.5 
C -0.663008 -2.5 -1.29895 -2.236584 -1.767767 -1.767767 
C -2.236584 -1.29895 -2.5 -0.663008 -2.5 0 
C -2.5 0.663008 -2.236584 1.29895 -1.767767 1.767767 
C -1.29895 2.236584 -0.663008 2.5 0 2.5 
z
" style="stroke: #1f77b4"/>
    </defs>
    <g clip-path="url(#pd30d3e25d8)">
     <use xlink:href="#m16265cfd5e" x="65.739578" y="43.794408" style="fill: #1f77b4; stroke: #1f77b4"/>
     <use xlink:href="#m16265cfd5e" x="73.452787" y="43.794408" style="fill: #1f77b4; stroke: #1f77b4"/>
     <use xlink:href="#m16265cfd5e" x="81.165996" y="43.794408" style="fill: #1f77b4; stroke: #1f77b4"/>
     <use xlink:href="#m16265cfd5e" x="88.879204" y="43.794408" style="fill: #1f77b4; stroke: #1f77b4"/>
     <use xlink:href="#m16265cfd5e" x="96.592413" y="43.794408" style="fill: #1f77b4; stroke: #1f77b4"/>
     <use xlink:href="#m16265cfd5e" x="104.305622" y="43.794408" style="fill: #1f77b4; stroke: #1f77b4"/>
     <use xlink:href="#m16265cfd5e" x="112.018831" y="65.781667" style="fill: #1f77b4; stroke: #1f77b4"/>
     <use xlink:href="#m16265cfd5e" x="119.732039" y="65.781667" style="fill: #1f77b4; stroke: #1f77b4"/>
     <use xlink:href="#m16265cfd5e" x="127.445248" y="65.781667" style="fill: #1f77b4; stroke: #1f77b4"/>
     <use xlink:href="#m16265cfd5e" x="135.158457" y="65.781667" style="fill: #1f77b4; stroke: #1f77b4"/>
     <use xlink:href="#m16265cfd5e" x="142.871666" y="65.781667" style="fill: #1f77b4; stroke: #1f77b4"/>
     <use xlink:href="#m16265cfd5e" x="150.584874" y="125.762059" style="fill: #1f77b4; stroke: #1f77b4"/>
     <use xlink:href="#m16265cfd5e" x="158.298083" y="125.762059" style="fill: #1f77b4; stroke: #1f77b4"/>
     <use xlink:href="#m16265cfd5e" x="166.011292" y="125.762059" style="fill: #1f77b4; stroke: #1f77b4"/>
     <use xlink:href="#m16265cfd5e" x="173.724501" y="125.762059" style="fill: #1f77b4; stroke: #1f77b4"/>
     <use xlink:href="#m16265cfd5e" x="181.43771" y="125.762059" style="fill: #1f77b4; stroke: #1f77b4"/>
     <use xlink:href="#m16265cfd5e" x="189.150918" y="35.99755" style="fill: #1f77b4; stroke: #1f77b4"/>
     <use xlink:href="#m16265cfd5e" x="196.864127" y="35.99755" style="fill: #1f77b4; stroke: #1f77b4"/>
     <use xlink:href="#m16265cfd5e" x="204.577336" y="35.99755" style="fill: #1f77b4; stroke: #1f77b4"/>
     <use xlink:href="#m16265cfd5e" x="212.290545" y="35.99755" style="fill: #1f77b4; stroke: #1f77b4"/>
     <use xlink:href="#m16265cfd5e" x="220.003753" y="35.99755" style="fill: #1f77b4; stroke: #1f77b4"/>
     <use xlink:href="#m16265cfd5e" x="227.716962" y="135.206552" style="fill: #1f77b4; stroke: #1f77b4"/>
     <use xlink:href="#m16265cfd5e" x="235.430171" y="135.206552" style="fill: #1f77b4; stroke: #1f77b4"/>
     <use xlink:href="#m16265cfd5e" x="243.14338" y="135.206552" style="fill: #1f77b4; stroke: #1f77b4"/>
     <use xlink:href="#m16265cfd5e" x="250.856588" y="135.206552" style="fill: #1f77b4; stroke: #1f77b4"/>
     <use xlink:href="#m16265cfd5e" x="258.569797" y="135.206552" style="fill: #1f77b4; stroke: #1f77b4"/>
     <use xlink:href="#m16265cfd5e" x="266.283006" y="111.393148" style="fill: #1f77b4; stroke: #1f77b4"/>
     <use xlink:href="#m16265cfd5e" x="273.996215" y="111.393148" style="fill: #1f77b4; stroke: #1f77b4"/>
     <use xlink:href="#m16265cfd5e" x="281.709423" y="111.393148" style="fill: #1f77b4; stroke: #1f77b4"/>
     <use xlink:href="#m16265cfd5e" x="289.422632" y="111.393148" style="fill: #1f77b4; stroke: #1f77b4"/>
     <use xlink:href="#m16265cfd5e" x="297.135841" y="111.393148" style="fill: #1f77b4; stroke: #1f77b4"/>
     <use xlink:href="#m16265cfd5e" x="304.84905" y="91.820483" style="fill: #1f77b4; stroke: #1f77b4"/>
     <use xlink:href="#m16265cfd5e" x="312.562258" y="91.820483" style="fill: #1f77b4; stroke: #1f77b4"/>
     <use xlink:href="#m16265cfd5e" x="320.275467" y="91.820483" style="fill: #1f77b4; stroke: #1f77b4"/>
     <use xlink:href="#m16265cfd5e" x="327.988676" y="91.820483" style="fill: #1f77b4; stroke: #1f77b4"/>
     <use xlink:href="#m16265cfd5e" x="335.701885" y="91.820483" style="fill: #1f77b4; stroke: #1f77b4"/>
    </g>
   </g>
   <g id="line2d_28">
    <path d="M 65.739578 173.580845 
L 104.305622 173.580845 
L 104.459886 42.931109 
L 142.871666 42.931109 
L 143.02593 133.941365 
L 181.43771 133.941365 
L 181.591974 56.541681 
L 220.003753 56.541681 
L 220.158017 105.014111 
L 258.569797 105.014111 
L 258.724061 68.978203 
L 297.135841 68.978203 
L 297.290105 118.166714 
L 335.701885 118.166714 
L 335.701885 118.166714 
" clip-path="url(#pd30d3e25d8)" style="fill: none; stroke: #ff7f0e; stroke-width: 1.5; stroke-linecap: square"/>
    <defs>
     <path id="m988523fc4a" d="M 0 2.5 
C 0.663008 2.5 1.29895 2.236584 1.767767 1.767767 
C 2.236584 1.29895 2.5 0.663008 2.5 0 
C 2.5 -0.663008 2.236584 -1.29895 1.767767 -1.767767 
C 1.29895 -2.236584 0.663008 -2.5 0 -2.5 
C -0.663008 -2.5 -1.29895 -2.236584 -1.767767 -1.767767 
C -2.236584 -1.29895 -2.5 -0.663008 -2.5 0 
C -2.5 0.663008 -2.236584 1.29895 -1.767767 1.767767 
C -1.29895 2.236584 -0.663008 2.5 0 2.5 
z
" style="stroke: #ff7f0e"/>
    </defs>
    <g clip-path="url(#pd30d3e25d8)">
     <use xlink:href="#m988523fc4a" x="65.739578" y="173.580845" style="fill: #ff7f0e; stroke: #ff7f0e"/>
     <use xlink:href="#m988523fc4a" x="73.452787" y="173.580845" style="fill: #ff7f0e; stroke: #ff7f0e"/>
     <use xlink:href="#m988523fc4a" x="81.165996" y="173.580845" style="fill: #ff7f0e; stroke: #ff7f0e"/>
     <use xlink:href="#m988523fc4a" x="88.879204" y="173.580845" style="fill: #ff7f0e; stroke: #ff7f0e"/>
     <use xlink:href="#m988523fc4a" x="96.592413" y="173.580845" style="fill: #ff7f0e; stroke: #ff7f0e"/>
     <use xlink:href="#m988523fc4a" x="104.305622" y="173.580845" style="fill: #ff7f0e; stroke: #ff7f0e"/>
     <use xlink:href="#m988523fc4a" x="112.018831" y="42.931109" style="fill: #ff7f0e; stroke: #ff7f0e"/>
     <use xlink:href="#m988523fc4a" x="119.732039" y="42.931109" style="fill: #ff7f0e; stroke: #ff7f0e"/>
     <use xlink:href="#m988523fc4a" x="127.445248" y="42.931109" style="fill: #ff7f0e; stroke: #ff7f0e"/>
     <use xlink:href="#m988523fc4a" x="135.158457" y="42.931109" style="fill: #ff7f0e; stroke: #ff7f0e"/>
     <use xlink:href="#m988523fc4a" x="142.871666" y="42.931109" style="fill: #ff7f0e; stroke: #ff7f0e"/>
     <use xlink:href="#m988523fc4a" x="150.584874" y="133.941365" style="fill: #ff7f0e; stroke: #ff7f0e"/>
     <use xlink:href="#m988523fc4a" x="158.298083" y="133.941365" style="fill: #ff7f0e; stroke: #ff7f0e"/>
     <use xlink:href="#m988523fc4a" x="166.011292" y="133.941365" style="fill: #ff7f0e; stroke: #ff7f0e"/>
     <use xlink:href="#m988523fc4a" x="173.724501" y="133.941365" style="fill: #ff7f0e; stroke: #ff7f0e"/>
     <use xlink:href="#m988523fc4a" x="181.43771" y="133.941365" style="fill: #ff7f0e; stroke: #ff7f0e"/>
     <use xlink:href="#m988523fc4a" x="189.150918" y="56.541681" style="fill: #ff7f0e; stroke: #ff7f0e"/>
     <use xlink:href="#m988523fc4a" x="196.864127" y="56.541681" style="fill: #ff7f0e; stroke: #ff7f0e"/>
     <use xlink:href="#m988523fc4a" x="204.577336" y="56.541681" style="fill: #ff7f0e; stroke: #ff7f0e"/>
     <use xlink:href="#m988523fc4a" x="212.290545" y="56.541681" style="fill: #ff7f0e; stroke: #ff7f0e"/>
     <use xlink:href="#m988523fc4a" x="220.003753" y="56.541681" style="fill: #ff7f0e; stroke: #ff7f0e"/>
     <use xlink:href="#m988523fc4a" x="227.716962" y="105.014111" style="fill: #ff7f0e; stroke: #ff7f0e"/>
     <use xlink:href="#m988523fc4a" x="235.430171" y="105.014111" style="fill: #ff7f0e; stroke: #ff7f0e"/>
     <use xlink:href="#m988523fc4a" x="243.14338" y="105.014111" style="fill: #ff7f0e; stroke: #ff7f0e"/>
     <use xlink:href="#m988523fc4a" x="250.856588" y="105.014111" style="fill: #ff7f0e; stroke: #ff7f0e"/>
     <use xlink:href="#m988523fc4a" x="258.569797" y="105.014111" style="fill: #ff7f0e; stroke: #ff7f0e"/>
     <use xlink:href="#m988523fc4a" x="266.283006" y="68.978203" style="fill: #ff7f0e; stroke: #ff7f0e"/>
     <use xlink:href="#m988523fc4a" x="273.996215" y="68.978203" style="fill: #ff7f0e; stroke: #ff7f0e"/>
     <use xlink:href="#m988523fc4a" x="281.709423" y="68.978203" style="fill: #ff7f0e; stroke: #ff7f0e"/>
     <use xlink:href="#m988523fc4a" x="289.422632" y="68.978203" style="fill: #ff7f0e; stroke: #ff7f0e"/>
     <use xlink:href="#m988523fc4a" x="297.135841" y="68.978203" style="fill: #ff7f0e; stroke: #ff7f0e"/>
     <use xlink:href="#m988523fc4a" x="304.84905" y="118.166714" style="fill: #ff7f0e; stroke: #ff7f0e"/>
     <use xlink:href="#m988523fc4a" x="312.562258" y="118.166714" style="fill: #ff7f0e; stroke: #ff7f0e"/>
     <use xlink:href="#m988523fc4a" x="320.275467" y="118.166714" style="fill: #ff7f0e; stroke: #ff7f0e"/>
     <use xlink:href="#m988523fc4a" x="327.988676" y="118.166714" style="fill: #ff7f0e; stroke: #ff7f0e"/>
     <use xlink:href="#m988523fc4a" x="335.701885" y="118.166714" style="fill: #ff7f0e; stroke: #ff7f0e"/>
    </g>
   </g>
   <g id="line2d_29">
    <path d="M 65.739578 78.252361 
L 65.81671 144.50004 
L 65.893842 132.873233 
L 66.202371 105.877178 
L 66.433767 101.136898 
L 66.665163 99.770052 
L 66.896559 99.369993 
L 67.28222 99.218397 
L 70.213239 98.726141 
L 71.293088 98.505341 
L 71.833013 98.417786 
L 73.761315 98.129677 
L 74.764032 97.965949 
L 75.458221 97.809541 
L 81.70592 96.978676 
L 83.17143 96.80098 
L 84.868336 96.579829 
L 86.719506 96.386568 
L 88.262148 96.215023 
L 90.19045 96.02807 
L 91.887356 95.880988 
L 94.278451 95.676037 
L 104.305622 94.945357 
L 104.459886 146.693473 
L 104.922679 98.140734 
L 105.308339 99.216655 
L 105.771132 100.297501 
L 106.156792 100.533293 
L 107.159509 100.397978 
L 107.390905 100.260818 
L 107.853698 100.335174 
L 109.473472 100.249614 
L 109.704868 100.308717 
L 110.244793 100.059393 
L 111.478906 100.015958 
L 111.710302 100.00289 
L 112.481623 99.77354 
L 113.175812 99.822828 
L 113.792869 99.642699 
L 114.409925 99.701918 
L 115.026982 99.520197 
L 115.644039 99.574255 
L 116.261095 99.409441 
L 116.80102 99.476371 
L 117.495209 99.306731 
L 118.035134 99.351387 
L 118.65219 99.192967 
L 119.269247 99.22833 
L 119.809172 99.085738 
L 120.426228 99.137602 
L 121.043285 98.998478 
L 121.58321 99.048837 
L 122.200266 98.899618 
L 122.817323 98.93561 
L 123.357248 98.805009 
L 123.974304 98.853437 
L 124.591361 98.729998 
L 125.131286 98.773811 
L 125.748342 98.641799 
L 126.288267 98.696707 
L 126.905324 98.556972 
L 127.52238 98.596267 
L 128.062305 98.475372 
L 128.679362 98.525527 
L 129.219286 98.396884 
L 129.836343 98.457227 
L 130.4534 98.33718 
L 130.993324 98.391265 
L 131.610381 98.263494 
L 132.150306 98.327532 
L 132.844494 98.211283 
L 133.307287 98.265907 
L 134.001476 98.142209 
L 134.5414 98.183268 
L 135.158457 98.075545 
L 135.698382 98.127164 
L 136.315438 98.011225 
L 136.855363 98.073005 
L 137.47242 97.949193 
L 138.089476 97.995887 
L 138.629401 97.889404 
L 139.246458 97.946577 
L 139.786382 97.831824 
L 140.403439 97.899048 
L 141.020496 97.794108 
L 141.56042 97.853195 
L 142.177477 97.73976 
L 142.717402 97.808908 
L 142.871666 97.755569 
L 142.948798 91.708341 
L 143.180194 99.707351 
L 143.41159 102.035193 
L 143.642987 102.793456 
L 143.951515 103.048341 
L 144.568572 103.133302 
L 150.122082 103.539651 
L 155.444196 103.835157 
L 159.532197 104.040383 
L 166.011292 104.308836 
L 172.181859 104.515422 
L 179.740804 104.725637 
L 181.43771 104.759648 
L 181.514842 160.715055 
L 181.591974 156.790779 
L 181.977634 99.758353 
L 182.131898 98.305865 
L 182.363295 98.043145 
L 182.517559 98.241483 
L 182.903219 98.849252 
L 183.366012 99.012099 
L 184.291597 98.747104 
L 184.522993 98.643889 
L 184.908653 98.670114 
L 186.605559 98.437673 
L 186.759824 98.501205 
L 187.531144 98.12967 
L 188.533862 98.015592 
L 188.765258 98.003963 
L 189.536579 97.704584 
L 190.230767 97.707569 
L 190.924956 97.474625 
L 191.542013 97.453288 
L 192.15907 97.259025 
L 192.698994 97.27001 
L 193.393183 97.058738 
L 193.933108 97.053712 
L 194.550164 96.857619 
L 195.167221 96.842761 
L 195.707146 96.666765 
L 196.324202 96.672402 
L 196.941259 96.49376 
L 197.481184 96.506449 
L 198.175373 96.329806 
L 198.638165 96.34517 
L 199.332354 96.160346 
L 199.872278 96.160465 
L 200.489335 95.997506 
L 201.02926 96.011356 
L 201.646316 95.84091 
L 202.263373 95.837014 
L 202.803298 95.690256 
L 203.420354 95.699239 
L 204.037411 95.557153 
L 204.577336 95.566213 
L 205.194392 95.416824 
L 205.734317 95.437774 
L 206.351374 95.281607 
L 206.96843 95.284809 
L 207.508355 95.151324 
L 208.125412 95.166456 
L 208.665336 95.025824 
L 209.282393 95.05231 
L 209.89945 94.917699 
L 210.439374 94.942194 
L 211.056431 94.800456 
L 211.596356 94.835927 
L 212.213412 94.687421 
L 212.830469 94.70632 
L 213.370394 94.578481 
L 213.98745 94.608656 
L 214.604507 94.487908 
L 215.144432 94.514482 
L 215.761488 94.386027 
L 216.301413 94.423631 
L 216.91847 94.287767 
L 217.535526 94.309281 
L 218.075451 94.193038 
L 218.692508 94.225893 
L 219.232432 94.101763 
L 219.849489 94.145509 
L 220.003753 94.086689 
L 220.080885 88.749965 
L 220.23515 99.991175 
L 220.389414 99.283105 
L 220.543678 100.769175 
L 220.775074 102.674563 
L 221.160735 103.364338 
L 221.469263 103.612975 
L 221.932055 103.68187 
L 224.168886 104.017922 
L 224.554546 104.140418 
L 224.940207 104.078935 
L 225.402999 104.014318 
L 225.634396 104.058032 
L 226.251452 104.308285 
L 226.559981 104.257639 
L 227.099905 104.197074 
L 227.794094 104.405696 
L 228.411151 104.338419 
L 229.10534 104.492617 
L 229.722396 104.481853 
L 230.339453 104.585613 
L 230.879378 104.573227 
L 231.496434 104.68223 
L 232.113491 104.688143 
L 232.653416 104.771974 
L 233.270472 104.778368 
L 233.887529 104.846587 
L 234.427454 104.866796 
L 235.04451 104.927672 
L 235.584435 104.952936 
L 236.12436 105.01493 
L 236.741416 105.036583 
L 237.281341 105.088954 
L 237.898398 105.11765 
L 238.438322 105.159948 
L 239.055379 105.19609 
L 239.595304 105.228116 
L 240.135228 105.253592 
L 240.752285 105.293658 
L 241.292209 105.327413 
L 241.909266 105.356785 
L 242.449191 105.398712 
L 243.066247 105.41772 
L 243.606172 105.467457 
L 244.223229 105.476697 
L 244.840285 105.547278 
L 246.228663 105.615367 
L 247.077116 105.657795 
L 248.465494 105.723671 
L 249.391079 105.770784 
L 252.167834 105.847364 
L 253.86474 105.957104 
L 256.487231 106.03301 
L 257.258552 106.083898 
L 258.569797 106.122774 
L 258.646929 109.60319 
L 258.724061 119.650281 
L 258.801193 118.699302 
L 259.03259 99.480171 
L 259.109722 98.917354 
L 259.495382 101.245278 
L 260.035307 102.491506 
L 260.420967 102.726299 
L 261.346552 102.694058 
L 261.500816 102.641644 
L 262.040741 102.792199 
L 263.660515 102.978306 
L 263.814779 103.017196 
L 264.354704 102.852304 
L 266.283006 102.853775 
L 266.591534 102.870303 
L 267.208591 103.000874 
L 267.825648 102.880635 
L 268.519836 103.001112 
L 269.059761 102.909664 
L 269.676818 103.03603 
L 270.293874 102.943408 
L 270.910931 103.043619 
L 271.527988 102.9794 
L 272.067912 103.068254 
L 272.684969 102.993134 
L 273.302026 103.070812 
L 273.84195 103.008252 
L 274.459007 103.091514 
L 274.998932 103.023975 
L 275.615988 103.110484 
L 276.233045 103.060653 
L 276.77297 103.128117 
L 277.390026 103.075781 
L 277.929951 103.144666 
L 278.547008 103.090806 
L 279.086932 103.160297 
L 279.703989 103.10562 
L 280.243914 103.175127 
L 280.86097 103.120157 
L 281.400895 103.189237 
L 282.017952 103.134375 
L 282.557876 103.202691 
L 283.174933 103.148251 
L 283.714858 103.215536 
L 284.331914 103.16177 
L 284.871839 103.227813 
L 285.488896 103.174927 
L 286.02882 103.239554 
L 286.645877 103.187719 
L 287.185802 103.250788 
L 287.802858 103.200149 
L 288.342783 103.261541 
L 288.95984 103.21222 
L 289.499764 103.271836 
L 290.116821 103.223939 
L 290.656746 103.281694 
L 291.273802 103.235312 
L 291.813727 103.291135 
L 292.430784 103.246347 
L 292.970708 103.300176 
L 293.587765 103.257052 
L 294.127689 103.308835 
L 294.667614 103.247834 
L 295.284671 103.317127 
L 295.824595 103.257764 
L 296.441652 103.325069 
L 296.981577 103.267389 
L 297.135841 103.30941 
L 297.290105 126.806774 
L 297.367237 122.727027 
L 297.598633 100.070286 
L 297.675765 99.41724 
L 297.984294 100.573218 
L 298.138558 100.782458 
L 298.524218 101.505392 
L 298.987011 101.750966 
L 299.912596 101.643564 
L 300.06686 101.590272 
L 300.529653 101.701651 
L 302.226559 101.794341 
L 302.380823 101.826989 
L 302.920747 101.631627 
L 303.692068 101.613718 
L 304.463389 101.628415 
L 305.157578 101.532493 
L 305.851767 101.57554 
L 306.391691 101.482253 
L 307.008748 101.554916 
L 307.625805 101.454 
L 308.242861 101.500923 
L 308.782786 101.414965 
L 309.399843 101.46786 
L 309.939767 101.38079 
L 310.556824 101.433353 
L 311.173881 101.365681 
L 311.713805 101.398579 
L 312.330862 101.336005 
L 312.870787 101.364076 
L 313.487843 101.308332 
L 314.027768 101.330092 
L 314.567693 101.266984 
L 315.184749 101.29674 
L 315.724674 101.242476 
L 316.341731 101.264077 
L 316.881655 101.219309 
L 317.498712 101.232142 
L 318.038637 101.197405 
L 318.578561 101.219076 
L 319.195618 101.176681 
L 319.735543 101.188701 
L 320.352599 101.157044 
L 320.892524 101.159027 
L 321.432448 101.124034 
L 322.049505 101.130082 
L 322.58943 101.106237 
L 323.129354 101.118814 
L 323.746411 101.089404 
L 324.286336 101.091411 
L 324.82626 101.059766 
L 325.443317 101.064667 
L 325.983242 101.044469 
L 326.523166 101.05468 
L 327.140223 101.03003 
L 327.680148 101.029389 
L 328.220072 101.003147 
L 328.837129 101.004705 
L 329.377053 100.990054 
L 329.916978 100.996064 
L 330.534035 100.977701 
L 331.073959 100.972699 
L 331.613884 100.953164 
L 332.230941 100.949926 
L 332.770865 100.94202 
L 333.31079 100.942572 
L 333.927847 100.931482 
L 334.467771 100.920974 
L 335.007696 100.909015 
L 335.624753 100.899983 
L 335.701885 100.886442 
L 335.701885 100.886442 
" clip-path="url(#pd30d3e25d8)" style="fill: none; stroke: #1f77b4; stroke-width: 1.5; stroke-linecap: square"/>
    <defs>
     <path id="m36d2134cf8" d="M -0 2.5 
L 2.5 -2.5 
L -2.5 -2.5 
z
" style="stroke: #1f77b4; stroke-linejoin: miter"/>
    </defs>
    <g clip-path="url(#pd30d3e25d8)">
     <use xlink:href="#m36d2134cf8" x="65.739578" y="78.252361" style="fill: #1f77b4; stroke: #1f77b4; stroke-linejoin: miter"/>
     <use xlink:href="#m36d2134cf8" x="73.452787" y="98.167076" style="fill: #1f77b4; stroke: #1f77b4; stroke-linejoin: miter"/>
     <use xlink:href="#m36d2134cf8" x="81.165996" y="97.025644" style="fill: #1f77b4; stroke: #1f77b4; stroke-linejoin: miter"/>
     <use xlink:href="#m36d2134cf8" x="88.879204" y="96.169419" style="fill: #1f77b4; stroke: #1f77b4; stroke-linejoin: miter"/>
     <use xlink:href="#m36d2134cf8" x="96.592413" y="95.486907" style="fill: #1f77b4; stroke: #1f77b4; stroke-linejoin: miter"/>
     <use xlink:href="#m36d2134cf8" x="104.305622" y="94.945357" style="fill: #1f77b4; stroke: #1f77b4; stroke-linejoin: miter"/>
     <use xlink:href="#m36d2134cf8" x="112.018831" y="99.894453" style="fill: #1f77b4; stroke: #1f77b4; stroke-linejoin: miter"/>
     <use xlink:href="#m36d2134cf8" x="119.732039" y="99.076446" style="fill: #1f77b4; stroke: #1f77b4; stroke-linejoin: miter"/>
     <use xlink:href="#m36d2134cf8" x="127.445248" y="98.622063" style="fill: #1f77b4; stroke: #1f77b4; stroke-linejoin: miter"/>
     <use xlink:href="#m36d2134cf8" x="135.158457" y="98.075545" style="fill: #1f77b4; stroke: #1f77b4; stroke-linejoin: miter"/>
     <use xlink:href="#m36d2134cf8" x="142.871666" y="97.755569" style="fill: #1f77b4; stroke: #1f77b4; stroke-linejoin: miter"/>
     <use xlink:href="#m36d2134cf8" x="150.584874" y="103.558192" style="fill: #1f77b4; stroke: #1f77b4; stroke-linejoin: miter"/>
     <use xlink:href="#m36d2134cf8" x="158.298083" y="103.984383" style="fill: #1f77b4; stroke: #1f77b4; stroke-linejoin: miter"/>
     <use xlink:href="#m36d2134cf8" x="166.011292" y="104.308836" style="fill: #1f77b4; stroke: #1f77b4; stroke-linejoin: miter"/>
     <use xlink:href="#m36d2134cf8" x="173.724501" y="104.560078" style="fill: #1f77b4; stroke: #1f77b4; stroke-linejoin: miter"/>
     <use xlink:href="#m36d2134cf8" x="181.43771" y="104.759648" style="fill: #1f77b4; stroke: #1f77b4; stroke-linejoin: miter"/>
     <use xlink:href="#m36d2134cf8" x="189.150918" y="97.837238" style="fill: #1f77b4; stroke: #1f77b4; stroke-linejoin: miter"/>
     <use xlink:href="#m36d2134cf8" x="196.864127" y="96.484989" style="fill: #1f77b4; stroke: #1f77b4; stroke-linejoin: miter"/>
     <use xlink:href="#m36d2134cf8" x="204.577336" y="95.566213" style="fill: #1f77b4; stroke: #1f77b4; stroke-linejoin: miter"/>
     <use xlink:href="#m36d2134cf8" x="212.290545" y="94.702957" style="fill: #1f77b4; stroke: #1f77b4; stroke-linejoin: miter"/>
     <use xlink:href="#m36d2134cf8" x="220.003753" y="94.086689" style="fill: #1f77b4; stroke: #1f77b4; stroke-linejoin: miter"/>
     <use xlink:href="#m36d2134cf8" x="227.716962" y="104.416969" style="fill: #1f77b4; stroke: #1f77b4; stroke-linejoin: miter"/>
     <use xlink:href="#m36d2134cf8" x="235.430171" y="104.916542" style="fill: #1f77b4; stroke: #1f77b4; stroke-linejoin: miter"/>
     <use xlink:href="#m36d2134cf8" x="243.14338" y="105.411544" style="fill: #1f77b4; stroke: #1f77b4; stroke-linejoin: miter"/>
     <use xlink:href="#m36d2134cf8" x="250.856588" y="105.812802" style="fill: #1f77b4; stroke: #1f77b4; stroke-linejoin: miter"/>
     <use xlink:href="#m36d2134cf8" x="258.569797" y="106.122774" style="fill: #1f77b4; stroke: #1f77b4; stroke-linejoin: miter"/>
     <use xlink:href="#m36d2134cf8" x="266.283006" y="102.853775" style="fill: #1f77b4; stroke: #1f77b4; stroke-linejoin: miter"/>
     <use xlink:href="#m36d2134cf8" x="273.996215" y="103.055632" style="fill: #1f77b4; stroke: #1f77b4; stroke-linejoin: miter"/>
     <use xlink:href="#m36d2134cf8" x="281.709423" y="103.109989" style="fill: #1f77b4; stroke: #1f77b4; stroke-linejoin: miter"/>
     <use xlink:href="#m36d2134cf8" x="289.422632" y="103.286855" style="fill: #1f77b4; stroke: #1f77b4; stroke-linejoin: miter"/>
     <use xlink:href="#m36d2134cf8" x="297.135841" y="103.30941" style="fill: #1f77b4; stroke: #1f77b4; stroke-linejoin: miter"/>
     <use xlink:href="#m36d2134cf8" x="304.84905" y="101.519606" style="fill: #1f77b4; stroke: #1f77b4; stroke-linejoin: miter"/>
     <use xlink:href="#m36d2134cf8" x="312.562258" y="101.386994" style="fill: #1f77b4; stroke: #1f77b4; stroke-linejoin: miter"/>
     <use xlink:href="#m36d2134cf8" x="320.275467" y="101.142896" style="fill: #1f77b4; stroke: #1f77b4; stroke-linejoin: miter"/>
     <use xlink:href="#m36d2134cf8" x="327.988676" y="100.982623" style="fill: #1f77b4; stroke: #1f77b4; stroke-linejoin: miter"/>
     <use xlink:href="#m36d2134cf8" x="335.701885" y="100.886442" style="fill: #1f77b4; stroke: #1f77b4; stroke-linejoin: miter"/>
    </g>
   </g>
   <g id="line2d_30">
    <path d="M 65.739578 130.812909 
L 65.81671 63.912059 
L 65.893842 77.980194 
L 66.125239 96.210415 
L 66.433767 103.076368 
L 66.742295 105.407061 
L 67.050824 106.126823 
L 67.436484 106.449681 
L 68.207805 106.721508 
L 73.607051 108.130393 
L 80.626071 109.572258 
L 87.413695 110.673974 
L 95.3583 111.677194 
L 104.074226 112.50693 
L 104.305622 112.524964 
L 104.459886 148.796243 
L 104.61415 129.388474 
L 104.845547 103.25612 
L 105.076943 98.736874 
L 105.308339 98.188348 
L 105.539735 98.286224 
L 106.07966 98.655637 
L 106.542452 98.691176 
L 107.699434 98.441123 
L 113.175812 97.251889 
L 127.676644 94.924801 
L 129.604947 94.682678 
L 134.5414 94.154856 
L 137.85808 93.843438 
L 142.871666 93.445421 
L 142.948798 84.762544 
L 143.257326 99.218832 
L 143.565855 102.762819 
L 143.874383 103.663278 
L 144.182911 103.912028 
L 144.8771 104.065601 
L 148.425176 104.511991 
L 156.909706 105.341424 
L 165.394235 105.963155 
L 178.660954 106.639266 
L 181.43771 106.74464 
L 181.591974 141.58314 
L 181.746238 126.119575 
L 181.977634 103.297008 
L 182.20903 99.331557 
L 182.440427 98.954327 
L 182.671823 99.100453 
L 183.211748 99.478352 
L 183.751672 99.525154 
L 186.142767 99.14336 
L 188.225333 98.774459 
L 194.241636 97.850924 
L 197.172655 97.447385 
L 198.946693 97.241315 
L 201.492052 96.956803 
L 206.96843 96.394996 
L 209.745186 96.172637 
L 214.218847 95.826393 
L 216.764206 95.659713 
L 220.003753 95.450505 
L 220.158017 106.764048 
L 220.23515 107.465108 
L 220.62081 102.141437 
L 220.852206 102.13696 
L 222.317716 102.347085 
L 234.504586 102.545526 
L 237.204209 102.556026 
L 241.523606 102.579045 
L 258.569797 102.645103 
L 258.724061 131.30349 
L 258.801193 128.353117 
L 259.109722 102.819742 
L 259.341118 100.097925 
L 259.572514 99.816206 
L 259.881043 99.95339 
L 260.420967 100.190277 
L 261.038024 100.17871 
L 268.674101 99.234703 
L 270.371006 99.047933 
L 272.607837 98.814353 
L 276.695838 98.409587 
L 297.135841 97.114646 
L 297.212973 99.618129 
L 297.367237 114.328647 
L 297.675765 101.044838 
L 297.752898 100.938363 
L 298.292822 102.599652 
L 298.678483 103.095118 
L 299.141275 103.325594 
L 300.06686 103.423845 
L 301.686634 103.547489 
L 303.38354 103.631763 
L 307.471541 103.787768 
L 335.701885 104.429553 
L 335.701885 104.429553 
" clip-path="url(#pd30d3e25d8)" style="fill: none; stroke: #ff7f0e; stroke-width: 1.5; stroke-linecap: square"/>
    <defs>
     <path id="m2066b1eaac" d="M -0 2.5 
L 2.5 -2.5 
L -2.5 -2.5 
z
" style="stroke: #ff7f0e; stroke-linejoin: miter"/>
    </defs>
    <g clip-path="url(#pd30d3e25d8)">
     <use xlink:href="#m2066b1eaac" x="65.739578" y="130.812909" style="fill: #ff7f0e; stroke: #ff7f0e; stroke-linejoin: miter"/>
     <use xlink:href="#m2066b1eaac" x="73.452787" y="108.096934" style="fill: #ff7f0e; stroke: #ff7f0e; stroke-linejoin: miter"/>
     <use xlink:href="#m2066b1eaac" x="81.165996" y="109.671272" style="fill: #ff7f0e; stroke: #ff7f0e; stroke-linejoin: miter"/>
     <use xlink:href="#m2066b1eaac" x="88.879204" y="110.880078" style="fill: #ff7f0e; stroke: #ff7f0e; stroke-linejoin: miter"/>
     <use xlink:href="#m2066b1eaac" x="96.592413" y="111.809917" style="fill: #ff7f0e; stroke: #ff7f0e; stroke-linejoin: miter"/>
     <use xlink:href="#m2066b1eaac" x="104.305622" y="112.524964" style="fill: #ff7f0e; stroke: #ff7f0e; stroke-linejoin: miter"/>
     <use xlink:href="#m2066b1eaac" x="112.018831" y="97.500896" style="fill: #ff7f0e; stroke: #ff7f0e; stroke-linejoin: miter"/>
     <use xlink:href="#m2066b1eaac" x="119.732039" y="96.069788" style="fill: #ff7f0e; stroke: #ff7f0e; stroke-linejoin: miter"/>
     <use xlink:href="#m2066b1eaac" x="127.445248" y="94.944255" style="fill: #ff7f0e; stroke: #ff7f0e; stroke-linejoin: miter"/>
     <use xlink:href="#m2066b1eaac" x="135.158457" y="94.107242" style="fill: #ff7f0e; stroke: #ff7f0e; stroke-linejoin: miter"/>
     <use xlink:href="#m2066b1eaac" x="142.871666" y="93.445421" style="fill: #ff7f0e; stroke: #ff7f0e; stroke-linejoin: miter"/>
     <use xlink:href="#m2066b1eaac" x="150.584874" y="104.741985" style="fill: #ff7f0e; stroke: #ff7f0e; stroke-linejoin: miter"/>
     <use xlink:href="#m2066b1eaac" x="158.298083" y="105.45594" style="fill: #ff7f0e; stroke: #ff7f0e; stroke-linejoin: miter"/>
     <use xlink:href="#m2066b1eaac" x="166.011292" y="106.002521" style="fill: #ff7f0e; stroke: #ff7f0e; stroke-linejoin: miter"/>
     <use xlink:href="#m2066b1eaac" x="173.724501" y="106.42184" style="fill: #ff7f0e; stroke: #ff7f0e; stroke-linejoin: miter"/>
     <use xlink:href="#m2066b1eaac" x="181.43771" y="106.74464" style="fill: #ff7f0e; stroke: #ff7f0e; stroke-linejoin: miter"/>
     <use xlink:href="#m2066b1eaac" x="189.150918" y="98.620199" style="fill: #ff7f0e; stroke: #ff7f0e; stroke-linejoin: miter"/>
     <use xlink:href="#m2066b1eaac" x="196.864127" y="97.502191" style="fill: #ff7f0e; stroke: #ff7f0e; stroke-linejoin: miter"/>
     <use xlink:href="#m2066b1eaac" x="204.577336" y="96.618515" style="fill: #ff7f0e; stroke: #ff7f0e; stroke-linejoin: miter"/>
     <use xlink:href="#m2066b1eaac" x="212.290545" y="95.966177" style="fill: #ff7f0e; stroke: #ff7f0e; stroke-linejoin: miter"/>
     <use xlink:href="#m2066b1eaac" x="220.003753" y="95.450505" style="fill: #ff7f0e; stroke: #ff7f0e; stroke-linejoin: miter"/>
     <use xlink:href="#m2066b1eaac" x="227.716962" y="102.483371" style="fill: #ff7f0e; stroke: #ff7f0e; stroke-linejoin: miter"/>
     <use xlink:href="#m2066b1eaac" x="235.430171" y="102.556682" style="fill: #ff7f0e; stroke: #ff7f0e; stroke-linejoin: miter"/>
     <use xlink:href="#m2066b1eaac" x="243.14338" y="102.595028" style="fill: #ff7f0e; stroke: #ff7f0e; stroke-linejoin: miter"/>
     <use xlink:href="#m2066b1eaac" x="250.856588" y="102.622743" style="fill: #ff7f0e; stroke: #ff7f0e; stroke-linejoin: miter"/>
     <use xlink:href="#m2066b1eaac" x="258.569797" y="102.645103" style="fill: #ff7f0e; stroke: #ff7f0e; stroke-linejoin: miter"/>
     <use xlink:href="#m2066b1eaac" x="266.283006" y="99.536159" style="fill: #ff7f0e; stroke: #ff7f0e; stroke-linejoin: miter"/>
     <use xlink:href="#m2066b1eaac" x="273.996215" y="98.668782" style="fill: #ff7f0e; stroke: #ff7f0e; stroke-linejoin: miter"/>
     <use xlink:href="#m2066b1eaac" x="281.709423" y="98.015944" style="fill: #ff7f0e; stroke: #ff7f0e; stroke-linejoin: miter"/>
     <use xlink:href="#m2066b1eaac" x="289.422632" y="97.496119" style="fill: #ff7f0e; stroke: #ff7f0e; stroke-linejoin: miter"/>
     <use xlink:href="#m2066b1eaac" x="297.135841" y="97.114646" style="fill: #ff7f0e; stroke: #ff7f0e; stroke-linejoin: miter"/>
     <use xlink:href="#m2066b1eaac" x="304.84905" y="103.69201" style="fill: #ff7f0e; stroke: #ff7f0e; stroke-linejoin: miter"/>
     <use xlink:href="#m2066b1eaac" x="312.562258" y="103.942729" style="fill: #ff7f0e; stroke: #ff7f0e; stroke-linejoin: miter"/>
     <use xlink:href="#m2066b1eaac" x="320.275467" y="104.15374" style="fill: #ff7f0e; stroke: #ff7f0e; stroke-linejoin: miter"/>
     <use xlink:href="#m2066b1eaac" x="327.988676" y="104.311532" style="fill: #ff7f0e; stroke: #ff7f0e; stroke-linejoin: miter"/>
     <use xlink:href="#m2066b1eaac" x="335.701885" y="104.429553" style="fill: #ff7f0e; stroke: #ff7f0e; stroke-linejoin: miter"/>
    </g>
   </g>
   <g id="line2d_31">
    <path d="M 65.739578 19.917349 
L 65.81671 86.165029 
L 65.893842 74.538221 
L 66.202371 47.542166 
L 66.433767 42.801887 
L 66.665163 41.435041 
L 66.896559 41.034982 
L 67.28222 40.883386 
L 70.213239 40.391129 
L 71.293088 40.170329 
L 71.833013 40.082774 
L 73.761315 39.794665 
L 74.764032 39.630937 
L 75.458221 39.474529 
L 81.70592 38.643664 
L 83.17143 38.465969 
L 84.868336 38.244817 
L 86.719506 38.051556 
L 88.262148 37.880011 
L 90.19045 37.693059 
L 91.887356 37.545977 
L 94.278451 37.341025 
L 104.305622 36.610346 
L 104.459886 110.34572 
L 104.922679 61.792981 
L 105.308339 62.868902 
L 105.771132 63.949748 
L 106.156792 64.18554 
L 107.159509 64.050225 
L 107.390905 63.913065 
L 107.853698 63.987421 
L 109.473472 63.901861 
L 109.704868 63.960964 
L 110.244793 63.71164 
L 111.478906 63.668205 
L 111.710302 63.655137 
L 112.481623 63.425787 
L 113.175812 63.475075 
L 113.792869 63.294945 
L 114.409925 63.354164 
L 115.026982 63.172444 
L 115.644039 63.226502 
L 116.261095 63.061687 
L 116.80102 63.128618 
L 117.495209 62.958978 
L 118.035134 63.003634 
L 118.65219 62.845214 
L 119.269247 62.880577 
L 119.809172 62.737984 
L 120.426228 62.789849 
L 121.043285 62.650725 
L 121.58321 62.701084 
L 122.200266 62.551865 
L 122.817323 62.587857 
L 123.357248 62.457256 
L 123.974304 62.505684 
L 124.591361 62.382245 
L 125.131286 62.426058 
L 125.748342 62.294046 
L 126.288267 62.348954 
L 126.905324 62.209219 
L 127.52238 62.248514 
L 128.062305 62.127619 
L 128.679362 62.177774 
L 129.219286 62.049131 
L 129.836343 62.109474 
L 130.4534 61.989427 
L 130.993324 62.043512 
L 131.610381 61.915741 
L 132.150306 61.979779 
L 132.844494 61.86353 
L 133.307287 61.918154 
L 134.001476 61.794456 
L 134.5414 61.835515 
L 135.158457 61.727792 
L 135.698382 61.779411 
L 136.315438 61.663472 
L 136.855363 61.725252 
L 137.47242 61.60144 
L 138.089476 61.648134 
L 138.629401 61.541651 
L 139.246458 61.598824 
L 139.786382 61.48407 
L 140.403439 61.551295 
L 141.020496 61.446354 
L 141.56042 61.505442 
L 142.177477 61.392007 
L 142.717402 61.461155 
L 142.871666 61.407816 
L 143.02593 118.907344 
L 143.257326 124.406519 
L 143.488722 126.02808 
L 143.720119 126.529605 
L 144.028647 126.705772 
L 144.8771 126.800938 
L 147.962383 127.026448 
L 151.124799 127.237435 
L 171.256274 128.116327 
L 181.43771 128.392287 
L 181.591974 90.658909 
L 181.977634 33.626483 
L 182.131898 32.173995 
L 182.363295 31.911275 
L 182.517559 32.109614 
L 182.903219 32.717382 
L 183.366012 32.880229 
L 184.291597 32.615234 
L 184.522993 32.512019 
L 184.908653 32.538244 
L 186.605559 32.305803 
L 186.759824 32.369335 
L 187.531144 31.997801 
L 188.533862 31.883723 
L 188.765258 31.872093 
L 189.536579 31.572715 
L 190.230767 31.575699 
L 190.924956 31.342756 
L 191.542013 31.321418 
L 192.15907 31.127156 
L 192.698994 31.13814 
L 193.393183 30.926868 
L 193.933108 30.921842 
L 194.550164 30.72575 
L 195.167221 30.710892 
L 195.707146 30.534895 
L 196.324202 30.540532 
L 196.941259 30.361891 
L 197.481184 30.374579 
L 198.175373 30.197936 
L 198.638165 30.2133 
L 199.332354 30.028477 
L 199.872278 30.028596 
L 200.489335 29.865636 
L 201.02926 29.879486 
L 201.646316 29.709041 
L 202.263373 29.705144 
L 202.803298 29.558387 
L 203.420354 29.56737 
L 204.037411 29.425283 
L 204.577336 29.434344 
L 205.194392 29.284955 
L 205.734317 29.305904 
L 206.351374 29.149737 
L 206.96843 29.15294 
L 207.508355 29.019455 
L 208.125412 29.034586 
L 208.665336 28.893954 
L 209.282393 28.92044 
L 209.89945 28.785829 
L 210.439374 28.810325 
L 211.056431 28.668587 
L 211.596356 28.704057 
L 212.213412 28.555552 
L 212.830469 28.574451 
L 213.370394 28.446611 
L 213.98745 28.476787 
L 214.604507 28.356039 
L 215.144432 28.382613 
L 215.761488 28.254158 
L 216.301413 28.291761 
L 216.91847 28.155897 
L 217.535526 28.177411 
L 218.075451 28.061169 
L 218.692508 28.094023 
L 219.232432 27.969893 
L 219.849489 28.01364 
L 220.003753 27.954819 
L 220.158017 130.089499 
L 220.23515 133.068308 
L 220.312282 132.828644 
L 220.389414 132.360237 
L 220.543678 133.846308 
L 220.775074 135.751696 
L 221.160735 136.441471 
L 221.469263 136.690107 
L 221.932055 136.759003 
L 224.168886 137.095054 
L 224.554546 137.21755 
L 224.940207 137.156068 
L 225.402999 137.09145 
L 225.634396 137.135165 
L 226.251452 137.385417 
L 226.559981 137.334771 
L 227.099905 137.274206 
L 227.794094 137.482829 
L 228.411151 137.415551 
L 229.10534 137.569749 
L 229.722396 137.558985 
L 230.339453 137.662745 
L 230.879378 137.650359 
L 231.496434 137.759362 
L 232.113491 137.765275 
L 232.653416 137.849107 
L 233.270472 137.8555 
L 233.887529 137.923719 
L 234.427454 137.943928 
L 235.04451 138.004804 
L 235.584435 138.030068 
L 236.12436 138.092062 
L 236.741416 138.113716 
L 237.281341 138.166086 
L 237.898398 138.194782 
L 238.438322 138.23708 
L 239.055379 138.273223 
L 239.595304 138.305248 
L 240.135228 138.330724 
L 240.752285 138.37079 
L 241.292209 138.404545 
L 241.909266 138.433918 
L 242.449191 138.475844 
L 243.066247 138.494853 
L 243.606172 138.54459 
L 244.223229 138.553829 
L 244.840285 138.624411 
L 246.228663 138.692499 
L 247.077116 138.734928 
L 248.465494 138.800803 
L 249.391079 138.847916 
L 252.167834 138.924496 
L 253.86474 139.034236 
L 256.487231 139.110143 
L 257.258552 139.16103 
L 258.569797 139.199907 
L 258.646929 118.866918 
L 258.724061 128.914009 
L 258.801193 127.963031 
L 259.03259 108.743899 
L 259.109722 108.181082 
L 259.495382 110.509006 
L 260.035307 111.755234 
L 260.420967 111.990027 
L 261.346552 111.957786 
L 261.500816 111.905372 
L 262.040741 112.055927 
L 263.660515 112.242034 
L 263.814779 112.280924 
L 264.354704 112.116032 
L 266.283006 112.117503 
L 266.591534 112.134031 
L 267.208591 112.264602 
L 267.825648 112.144363 
L 268.519836 112.26484 
L 269.059761 112.173392 
L 269.676818 112.299758 
L 270.293874 112.207136 
L 270.910931 112.307347 
L 271.527988 112.243129 
L 272.067912 112.331982 
L 272.684969 112.256862 
L 273.302026 112.33454 
L 273.84195 112.27198 
L 274.459007 112.355242 
L 274.998932 112.287703 
L 275.615988 112.374212 
L 276.233045 112.324381 
L 276.77297 112.391846 
L 277.390026 112.339509 
L 277.929951 112.408394 
L 278.547008 112.354534 
L 279.086932 112.424026 
L 279.703989 112.369348 
L 280.243914 112.438855 
L 280.86097 112.383885 
L 281.400895 112.452965 
L 282.017952 112.398103 
L 282.557876 112.466419 
L 283.174933 112.411979 
L 283.714858 112.479264 
L 284.331914 112.425498 
L 284.871839 112.491541 
L 285.488896 112.438655 
L 286.02882 112.503282 
L 286.645877 112.451447 
L 287.185802 112.514516 
L 287.802858 112.463877 
L 288.342783 112.525269 
L 288.95984 112.475948 
L 289.499764 112.535564 
L 290.116821 112.487667 
L 290.656746 112.545422 
L 291.273802 112.499041 
L 291.813727 112.554863 
L 292.430784 112.510075 
L 292.970708 112.563904 
L 293.587765 112.52078 
L 294.127689 112.572563 
L 294.667614 112.511562 
L 295.284671 112.580855 
L 295.824595 112.521492 
L 296.441652 112.588797 
L 296.981577 112.531117 
L 297.135841 112.573138 
L 297.212973 110.453072 
L 297.290105 116.497838 
L 297.367237 112.41809 
L 297.598633 89.76135 
L 297.675765 89.108304 
L 297.984294 90.264281 
L 298.138558 90.473522 
L 298.524218 91.196455 
L 298.987011 91.442029 
L 299.912596 91.334627 
L 300.06686 91.281336 
L 300.529653 91.392714 
L 302.226559 91.485404 
L 302.380823 91.518052 
L 302.920747 91.32269 
L 303.692068 91.304781 
L 304.463389 91.319479 
L 305.157578 91.223556 
L 305.851767 91.266604 
L 306.391691 91.173316 
L 307.008748 91.24598 
L 307.625805 91.145063 
L 308.242861 91.191987 
L 308.782786 91.106028 
L 309.399843 91.158923 
L 309.939767 91.071853 
L 310.556824 91.124417 
L 311.173881 91.056745 
L 311.713805 91.089642 
L 312.330862 91.027068 
L 312.870787 91.05514 
L 313.487843 90.999396 
L 314.027768 91.021155 
L 314.567693 90.958047 
L 315.184749 90.987803 
L 315.724674 90.933539 
L 316.341731 90.955141 
L 316.881655 90.910372 
L 317.498712 90.923206 
L 318.038637 90.888468 
L 318.578561 90.910139 
L 319.195618 90.867744 
L 319.735543 90.879764 
L 320.352599 90.848108 
L 320.892524 90.850091 
L 321.432448 90.815097 
L 322.049505 90.821146 
L 322.58943 90.797301 
L 323.129354 90.809878 
L 323.746411 90.780467 
L 324.286336 90.782475 
L 324.82626 90.75083 
L 325.443317 90.755731 
L 325.983242 90.735532 
L 326.523166 90.745744 
L 327.140223 90.721093 
L 327.680148 90.720452 
L 328.220072 90.694211 
L 328.837129 90.695769 
L 329.377053 90.681117 
L 329.916978 90.687127 
L 330.534035 90.668764 
L 331.073959 90.663763 
L 331.613884 90.644227 
L 332.230941 90.640989 
L 332.770865 90.633083 
L 333.31079 90.633635 
L 333.927847 90.622545 
L 334.467771 90.612037 
L 335.007696 90.600079 
L 335.624753 90.591047 
L 335.701885 90.577505 
L 335.701885 90.577505 
" clip-path="url(#pd30d3e25d8)" style="fill: none; stroke: #1f77b4; stroke-width: 2; stroke-linecap: square"/>
   </g>
   <g id="line2d_32">
    <path d="M 65.739578 202.264334 
L 65.81671 135.363483 
L 65.893842 149.431619 
L 66.125239 167.66184 
L 66.433767 174.527793 
L 66.742295 176.858486 
L 67.050824 177.578248 
L 67.436484 177.901106 
L 68.207805 178.172933 
L 73.607051 179.581818 
L 80.626071 181.023683 
L 87.413695 182.125399 
L 95.3583 183.128619 
L 104.074226 183.958354 
L 104.305622 183.976389 
L 104.382754 89.597551 
L 104.459886 89.597933 
L 104.61415 70.190164 
L 104.845547 44.05781 
L 105.076943 39.538563 
L 105.308339 38.990037 
L 105.539735 39.087914 
L 106.07966 39.457327 
L 106.542452 39.492866 
L 107.699434 39.242813 
L 113.175812 38.053578 
L 127.676644 35.726491 
L 129.604947 35.484367 
L 134.5414 34.956546 
L 137.85808 34.645128 
L 142.871666 34.247111 
L 143.02593 122.154675 
L 143.257326 131.030777 
L 143.565855 134.574764 
L 143.874383 135.475223 
L 144.182911 135.723973 
L 144.8771 135.877546 
L 148.425176 136.323936 
L 156.909706 137.153369 
L 165.394235 137.7751 
L 178.660954 138.451211 
L 181.43771 138.556585 
L 181.514842 94.892776 
L 181.591974 95.995401 
L 181.746238 80.531836 
L 181.977634 57.70927 
L 182.20903 53.743819 
L 182.440427 53.366588 
L 182.671823 53.512714 
L 183.211748 53.890614 
L 183.751672 53.937415 
L 186.142767 53.555621 
L 188.225333 53.18672 
L 194.241636 52.263185 
L 197.172655 51.859646 
L 198.946693 51.653576 
L 201.492052 51.369065 
L 206.96843 50.807258 
L 209.745186 50.584898 
L 214.218847 50.238655 
L 216.764206 50.071974 
L 220.003753 49.862767 
L 220.158017 109.64874 
L 220.23515 110.349799 
L 220.62081 105.026128 
L 220.852206 105.021651 
L 222.317716 105.231776 
L 234.504586 105.430218 
L 237.204209 105.440718 
L 241.523606 105.463736 
L 258.569797 105.529794 
L 258.646929 95.726312 
L 258.724061 98.152274 
L 258.801193 95.2019 
L 259.109722 69.668525 
L 259.341118 66.946708 
L 259.572514 66.66499 
L 259.881043 66.802173 
L 260.420967 67.03906 
L 261.038024 67.027493 
L 268.674101 66.083487 
L 270.371006 65.896716 
L 272.607837 65.663137 
L 276.695838 65.258371 
L 297.135841 63.96343 
L 297.290105 127.260759 
L 297.367237 130.365942 
L 297.675765 117.082133 
L 297.752898 116.975657 
L 298.292822 118.636946 
L 298.678483 119.132413 
L 299.141275 119.362889 
L 300.06686 119.46114 
L 301.686634 119.584784 
L 303.38354 119.669058 
L 307.471541 119.825063 
L 335.701885 120.466848 
L 335.701885 120.466848 
" clip-path="url(#pd30d3e25d8)" style="fill: none; stroke: #ff7f0e; stroke-width: 2; stroke-linecap: square"/>
   </g>
   <g id="patch_3">
    <path d="M 52.241463 211.381683 
L 52.241463 10.8 
" style="fill: none; stroke: #000000; stroke-width: 0.8; stroke-linejoin: miter; stroke-linecap: square"/>
   </g>
   <g id="patch_4">
    <path d="M 349.2 211.381683 
L 349.2 10.8 
" style="fill: none; stroke: #000000; stroke-width: 0.8; stroke-linejoin: miter; stroke-linecap: square"/>
   </g>
   <g id="patch_5">
    <path d="M 52.241463 211.381683 
L 349.2 211.381683 
" style="fill: none; stroke: #000000; stroke-width: 0.8; stroke-linejoin: miter; stroke-linecap: square"/>
   </g>
   <g id="patch_6">
    <path d="M 52.241463 10.8 
L 349.2 10.8 
" style="fill: none; stroke: #000000; stroke-width: 0.8; stroke-linejoin: miter; stroke-linecap: square"/>
   </g>
   <g id="legend_1">
    <g id="patch_7">
     <path d="M 175.939391 206.381683 
L 225.502071 206.381683 
Q 227.502071 206.381683 227.502071 204.381683 
L 227.502071 118.105747 
Q 227.502071 116.105747 225.502071 116.105747 
L 175.939391 116.105747 
Q 173.939391 116.105747 173.939391 118.105747 
L 173.939391 204.381683 
Q 173.939391 206.381683 175.939391 206.381683 
z
" style="fill: #ffffff; opacity: 0.8; stroke: #cccccc; stroke-linejoin: miter"/>
    </g>
    <g id="line2d_33">
     <path d="M 177.939391 123.605747 
L 187.939391 123.605747 
L 197.939391 123.605747 
" style="fill: none; stroke: #1f77b4; stroke-width: 1.5; stroke-linecap: square"/>
     <g>
      <use xlink:href="#m16265cfd5e" x="187.939391" y="123.605747" style="fill: #1f77b4; stroke: #1f77b4"/>
     </g>
    </g>
    <g id="text_16">
     <!-- $\tau_\mathrm{ff,1}$ -->
     <g transform="translate(205.939391 127.105747) scale(0.1 -0.1)">
      <defs>
       <path id="CMMI12-1c" d="M 1837 2408 
L 2899 2408 
C 2982 2408 3194 2408 3194 2612 
C 3194 2752 3072 2752 2957 2752 
L 1197 2752 
C 1050 2752 832 2752 538 2440 
C 371 2255 166 1917 166 1879 
C 166 1841 198 1828 237 1828 
C 282 1828 288 1847 320 1885 
C 653 2408 986 2408 1146 2408 
L 1677 2408 
L 1011 223 
C 979 127 979 114 979 95 
C 979 25 1024 -64 1152 -64 
C 1350 -64 1382 108 1402 203 
L 1837 2408 
z
" transform="scale(0.015625)"/>
       <path id="CMR17-b" d="M 2554 2560 
L 3283 2560 
L 3283 2725 
L 2541 2725 
L 2541 3494 
C 2541 4022 2810 4352 3085 4352 
C 3168 4352 3264 4327 3328 4282 
C 3277 4269 3142 4225 3142 4067 
C 3142 3901 3270 3850 3360 3850 
C 3450 3850 3578 3901 3578 4067 
C 3578 4308 3347 4454 3091 4454 
C 2842 4454 2637 4333 2477 4181 
C 2330 4390 2086 4454 1837 4454 
C 1338 4454 634 4168 634 3469 
L 634 2725 
L 122 2725 
L 122 2560 
L 634 2560 
L 634 427 
C 634 184 608 153 198 153 
L 198 -13 
C 352 0 634 0 794 0 
C 960 0 1242 0 1395 -13 
L 1395 153 
C 986 153 960 178 960 427 
L 960 2560 
L 2227 2560 
L 2227 427 
C 2227 184 2202 153 1792 153 
L 1792 -13 
C 1946 0 2240 0 2406 0 
C 2592 0 2918 0 3091 -13 
L 3091 153 
C 2630 153 2554 153 2554 439 
L 2554 2560 
z
M 947 2725 
L 947 3469 
C 947 4047 1395 4352 1824 4352 
C 1920 4352 2170 4332 2323 4187 
C 2208 4187 2099 4136 2099 3977 
C 2099 3812 2246 3767 2259 3767 
C 2227 3652 2227 3526 2227 3481 
L 2227 2725 
L 947 2725 
z
" transform="scale(0.015625)"/>
       <path id="CMMI12-3b" d="M 1248 -31 
C 1248 343 1126 619 864 619 
C 659 619 557 453 557 313 
C 557 172 653 0 870 0 
C 954 0 1024 26 1082 83 
C 1094 96 1101 96 1107 96 
C 1120 96 1120 5 1120 -27 
C 1120 -240 1082 -659 710 -1080 
C 640 -1157 640 -1170 640 -1183 
C 640 -1216 672 -1248 704 -1248 
C 755 -1248 1248 -771 1248 -31 
z
" transform="scale(0.015625)"/>
      </defs>
      <use xlink:href="#CMMI12-1c" transform="scale(0.996264)"/>
      <use xlink:href="#CMR17-b" transform="translate(42.363841 -14.943915) scale(0.697382)"/>
      <use xlink:href="#CMMI12-3b" transform="translate(83.138776 -14.943915) scale(0.697382)"/>
      <use xlink:href="#CMR17-31" transform="translate(102.106709 -14.943915) scale(0.697382)"/>
     </g>
    </g>
    <g id="line2d_34">
     <path d="M 177.939391 138.456142 
L 187.939391 138.456142 
L 197.939391 138.456142 
" style="fill: none; stroke: #ff7f0e; stroke-width: 1.5; stroke-linecap: square"/>
     <g>
      <use xlink:href="#m988523fc4a" x="187.939391" y="138.456142" style="fill: #ff7f0e; stroke: #ff7f0e"/>
     </g>
    </g>
    <g id="text_17">
     <!-- $\tau_\mathrm{ff,2}$ -->
     <g transform="translate(205.939391 141.956142) scale(0.1 -0.1)">
      <use xlink:href="#CMMI12-1c" transform="scale(0.996264)"/>
      <use xlink:href="#CMR17-b" transform="translate(42.363841 -14.943915) scale(0.697382)"/>
      <use xlink:href="#CMMI12-3b" transform="translate(83.138776 -14.943915) scale(0.697382)"/>
      <use xlink:href="#CMR17-32" transform="translate(102.106709 -14.943915) scale(0.697382)"/>
     </g>
    </g>
    <g id="line2d_35">
     <path d="M 177.939391 153.306537 
L 187.939391 153.306537 
L 197.939391 153.306537 
" style="fill: none; stroke: #1f77b4; stroke-width: 1.5; stroke-linecap: square"/>
     <g>
      <use xlink:href="#m36d2134cf8" x="187.939391" y="153.306537" style="fill: #1f77b4; stroke: #1f77b4; stroke-linejoin: miter"/>
     </g>
    </g>
    <g id="text_18">
     <!-- $\tau_{\mathrm{fb},1}$ -->
     <g transform="translate(205.939391 156.806537) scale(0.1 -0.1)">
      <defs>
       <path id="CMR17-62" d="M 960 4396 
L 198 4326 
L 198 4160 
C 576 4160 634 4122 634 3817 
L 634 -13 
L 749 -13 
L 934 441 
C 1120 141 1395 -64 1766 -64 
C 2406 -64 3053 500 3053 1370 
C 3053 2188 2477 2790 1830 2790 
C 1434 2790 1152 2579 960 2330 
L 960 4396 
z
M 973 2004 
C 973 2118 973 2138 1062 2272 
C 1312 2657 1670 2688 1792 2688 
C 1984 2688 2643 2585 2643 1376 
C 2643 108 1888 38 1734 38 
C 1536 38 1248 114 1043 486 
C 973 608 973 621 973 735 
L 973 2004 
z
" transform="scale(0.015625)"/>
      </defs>
      <use xlink:href="#CMMI12-1c" transform="scale(0.996264)"/>
      <use xlink:href="#CMR17-66" transform="translate(42.363841 -14.943915) scale(0.697382)"/>
      <use xlink:href="#CMR17-62" transform="translate(61.595205 -14.943915) scale(0.697382)"/>
      <use xlink:href="#CMMI12-3b" transform="translate(97.221813 -14.943915) scale(0.697382)"/>
      <use xlink:href="#CMR17-31" transform="translate(116.189746 -14.943915) scale(0.697382)"/>
     </g>
    </g>
    <g id="line2d_36">
     <path d="M 177.939391 168.156932 
L 187.939391 168.156932 
L 197.939391 168.156932 
" style="fill: none; stroke: #ff7f0e; stroke-width: 1.5; stroke-linecap: square"/>
     <g>
      <use xlink:href="#m2066b1eaac" x="187.939391" y="168.156932" style="fill: #ff7f0e; stroke: #ff7f0e; stroke-linejoin: miter"/>
     </g>
    </g>
    <g id="text_19">
     <!-- $\tau_{\mathrm{fb},2}$ -->
     <g transform="translate(205.939391 171.656932) scale(0.1 -0.1)">
      <use xlink:href="#CMMI12-1c" transform="scale(0.996264)"/>
      <use xlink:href="#CMR17-66" transform="translate(42.363841 -14.943915) scale(0.697382)"/>
      <use xlink:href="#CMR17-62" transform="translate(61.595205 -14.943915) scale(0.697382)"/>
      <use xlink:href="#CMMI12-3b" transform="translate(97.221813 -14.943915) scale(0.697382)"/>
      <use xlink:href="#CMR17-32" transform="translate(116.189746 -14.943915) scale(0.697382)"/>
     </g>
    </g>
    <g id="line2d_37">
     <path d="M 177.939391 183.007327 
L 187.939391 183.007327 
L 197.939391 183.007327 
" style="fill: none; stroke: #1f77b4; stroke-width: 2; stroke-linecap: square"/>
    </g>
    <g id="text_20">
     <!-- $\tau_1$ -->
     <g transform="translate(205.939391 186.507327) scale(0.1 -0.1)">
      <use xlink:href="#CMMI12-1c" transform="scale(0.996264)"/>
      <use xlink:href="#CMR17-31" transform="translate(42.363841 -14.943915) scale(0.697382)"/>
     </g>
    </g>
    <g id="line2d_38">
     <path d="M 177.939391 196.944505 
L 187.939391 196.944505 
L 197.939391 196.944505 
" style="fill: none; stroke: #ff7f0e; stroke-width: 2; stroke-linecap: square"/>
    </g>
    <g id="text_21">
     <!-- $\tau_2$ -->
     <g transform="translate(205.939391 200.444505) scale(0.1 -0.1)">
      <use xlink:href="#CMMI12-1c" transform="scale(0.996264)"/>
      <use xlink:href="#CMR17-32" transform="translate(42.363841 -14.943915) scale(0.697382)"/>
     </g>
    </g>
   </g>
  </g>
 </g>
 <defs>
  <clipPath id="pd30d3e25d8">
   <rect x="52.241463" y="10.8" width="296.958537" height="200.581683"/>
  </clipPath>
 </defs>
</svg>
