<?xml version="1.0" encoding="utf-8" standalone="no"?>
<!DOCTYPE svg PUBLIC "-//W3C//DTD SVG 1.1//EN"
  "http://www.w3.org/Graphics/SVG/1.1/DTD/svg11.dtd">
<svg xmlns:xlink="http://www.w3.org/1999/xlink" width="360pt" height="252pt" viewBox="0 0 360 252" xmlns="http://www.w3.org/2000/svg" version="1.1">
 <metadata>
  <rdf:RDF xmlns:dc="http://purl.org/dc/elements/1.1/" xmlns:cc="http://creativecommons.org/ns#" xmlns:rdf="http://www.w3.org/1999/02/22-rdf-syntax-ns#">
   <cc:Work>
    <dc:type rdf:resource="http://purl.org/dc/dcmitype/StillImage"/>
    <dc:date>2024-10-22T10:34:13.469155</dc:date>
    <dc:format>image/svg+xml</dc:format>
    <dc:creator>
     <cc:Agent>
      <dc:title>Matplotlib v3.9.2, https://matplotlib.org/</dc:title>
     </cc:Agent>
    </dc:creator>
   </cc:Work>
  </rdf:RDF>
 </metadata>
 <defs>
  <style type="text/css">*{stroke-linejoin: round; stroke-linecap: butt}</style>
 </defs>
 <g id="figure_1">
  <g id="patch_1">
   <path d="M 0 252 
L 360 252 
L 360 0 
L 0 0 
z
" style="fill: #ffffff"/>
  </g>
  <g id="axes_1">
   <g id="patch_2">
    <path d="M 57.222798 211.381683 
L 349.2 211.381683 
L 349.2 10.8 
L 57.222798 10.8 
z
" style="fill: #ffffff"/>
   </g>
   <g id="matplotlib.axis_1">
    <g id="xtick_1">
     <g id="line2d_1">
      <path d="M 70.494489 211.381683 
L 70.494489 10.8 
" clip-path="url(#pf91827b248)" style="fill: none; stroke: #b0b0b0; stroke-width: 0.8; stroke-linecap: square"/>
     </g>
     <g id="line2d_2">
      <defs>
       <path id="m3fd9e95ba7" d="M 0 0 
L 0 3.5 
" style="stroke: #000000; stroke-width: 0.8"/>
      </defs>
      <g>
       <use xlink:href="#m3fd9e95ba7" x="70.494489" y="211.381683" style="stroke: #000000; stroke-width: 0.8"/>
      </g>
     </g>
     <g id="text_1">
      <!-- $\mathdefault{0}$ -->
      <g transform="translate(68.003821 225.300182) scale(0.1 -0.1)">
       <defs>
        <path id="CMR17-30" d="M 2688 2025 
C 2688 2416 2682 3080 2413 3591 
C 2176 4039 1798 4198 1466 4198 
C 1158 4198 768 4058 525 3597 
C 269 3118 243 2524 243 2025 
C 243 1661 250 1106 448 619 
C 723 -39 1216 -128 1466 -128 
C 1760 -128 2208 -7 2470 600 
C 2662 1042 2688 1559 2688 2025 
z
M 1466 -26 
C 1056 -26 813 325 723 812 
C 653 1188 653 1738 653 2096 
C 653 2588 653 2997 736 3387 
C 858 3929 1216 4096 1466 4096 
C 1728 4096 2067 3923 2189 3400 
C 2272 3036 2278 2607 2278 2096 
C 2278 1680 2278 1169 2202 792 
C 2067 95 1690 -26 1466 -26 
z
" transform="scale(0.015625)"/>
       </defs>
       <use xlink:href="#CMR17-30" transform="scale(0.996264)"/>
      </g>
     </g>
    </g>
    <g id="xtick_2">
     <g id="line2d_3">
      <path d="M 108.413606 211.381683 
L 108.413606 10.8 
" clip-path="url(#pf91827b248)" style="fill: none; stroke: #b0b0b0; stroke-width: 0.8; stroke-linecap: square"/>
     </g>
     <g id="line2d_4">
      <g>
       <use xlink:href="#m3fd9e95ba7" x="108.413606" y="211.381683" style="stroke: #000000; stroke-width: 0.8"/>
      </g>
     </g>
     <g id="text_2">
      <!-- $\mathdefault{5}$ -->
      <g transform="translate(105.922939 225.300182) scale(0.1 -0.1)">
       <defs>
        <path id="CMR17-35" d="M 730 3692 
C 794 3666 1056 3584 1325 3584 
C 1920 3584 2246 3911 2432 4100 
C 2432 4157 2432 4192 2394 4192 
C 2387 4192 2374 4192 2323 4163 
C 2099 4058 1837 3973 1517 3973 
C 1325 3973 1037 3999 723 4139 
C 653 4171 640 4171 634 4171 
C 602 4171 595 4164 595 4037 
L 595 2203 
C 595 2089 595 2057 659 2057 
C 691 2057 704 2070 736 2114 
C 941 2401 1222 2522 1542 2522 
C 1766 2522 2246 2382 2246 1289 
C 2246 1085 2246 715 2054 421 
C 1894 159 1645 25 1370 25 
C 947 25 518 320 403 814 
C 429 807 480 795 506 795 
C 589 795 749 840 749 1038 
C 749 1210 627 1280 506 1280 
C 358 1280 262 1190 262 1011 
C 262 454 704 -128 1382 -128 
C 2042 -128 2669 440 2669 1264 
C 2669 2030 2170 2624 1549 2624 
C 1222 2624 947 2503 730 2274 
L 730 3692 
z
" transform="scale(0.015625)"/>
       </defs>
       <use xlink:href="#CMR17-35" transform="scale(0.996264)"/>
      </g>
     </g>
    </g>
    <g id="xtick_3">
     <g id="line2d_5">
      <path d="M 146.332723 211.381683 
L 146.332723 10.8 
" clip-path="url(#pf91827b248)" style="fill: none; stroke: #b0b0b0; stroke-width: 0.8; stroke-linecap: square"/>
     </g>
     <g id="line2d_6">
      <g>
       <use xlink:href="#m3fd9e95ba7" x="146.332723" y="211.381683" style="stroke: #000000; stroke-width: 0.8"/>
      </g>
     </g>
     <g id="text_3">
      <!-- $\mathdefault{10}$ -->
      <g transform="translate(141.351388 225.300182) scale(0.1 -0.1)">
       <defs>
        <path id="CMR17-31" d="M 1702 4058 
C 1702 4192 1696 4192 1606 4192 
C 1357 3916 979 3827 621 3827 
C 602 3827 570 3827 563 3808 
C 557 3795 557 3782 557 3648 
C 755 3648 1088 3686 1344 3839 
L 1344 461 
C 1344 236 1331 160 781 160 
L 589 160 
L 589 0 
C 896 0 1216 0 1523 0 
C 1830 0 2150 0 2458 0 
L 2458 160 
L 2266 160 
C 1715 160 1702 230 1702 458 
L 1702 4058 
z
" transform="scale(0.015625)"/>
       </defs>
       <use xlink:href="#CMR17-31" transform="scale(0.996264)"/>
       <use xlink:href="#CMR17-30" transform="translate(45.690477 0) scale(0.996264)"/>
      </g>
     </g>
    </g>
    <g id="xtick_4">
     <g id="line2d_7">
      <path d="M 184.25184 211.381683 
L 184.25184 10.8 
" clip-path="url(#pf91827b248)" style="fill: none; stroke: #b0b0b0; stroke-width: 0.8; stroke-linecap: square"/>
     </g>
     <g id="line2d_8">
      <g>
       <use xlink:href="#m3fd9e95ba7" x="184.25184" y="211.381683" style="stroke: #000000; stroke-width: 0.8"/>
      </g>
     </g>
     <g id="text_4">
      <!-- $\mathdefault{15}$ -->
      <g transform="translate(179.270505 225.300182) scale(0.1 -0.1)">
       <use xlink:href="#CMR17-31" transform="scale(0.996264)"/>
       <use xlink:href="#CMR17-35" transform="translate(45.690477 0) scale(0.996264)"/>
      </g>
     </g>
    </g>
    <g id="xtick_5">
     <g id="line2d_9">
      <path d="M 222.170958 211.381683 
L 222.170958 10.8 
" clip-path="url(#pf91827b248)" style="fill: none; stroke: #b0b0b0; stroke-width: 0.8; stroke-linecap: square"/>
     </g>
     <g id="line2d_10">
      <g>
       <use xlink:href="#m3fd9e95ba7" x="222.170958" y="211.381683" style="stroke: #000000; stroke-width: 0.8"/>
      </g>
     </g>
     <g id="text_5">
      <!-- $\mathdefault{20}$ -->
      <g transform="translate(217.189622 225.300182) scale(0.1 -0.1)">
       <defs>
        <path id="CMR17-32" d="M 2669 989 
L 2554 989 
C 2490 536 2438 459 2413 420 
C 2381 369 1920 369 1830 369 
L 602 369 
C 832 619 1280 1072 1824 1597 
C 2214 1967 2669 2402 2669 3035 
C 2669 3790 2067 4224 1395 4224 
C 691 4224 262 3604 262 3030 
C 262 2780 448 2748 525 2748 
C 589 2748 781 2787 781 3010 
C 781 3207 614 3264 525 3264 
C 486 3264 448 3258 422 3245 
C 544 3790 915 4058 1306 4058 
C 1862 4058 2227 3617 2227 3035 
C 2227 2479 1901 2000 1536 1584 
L 262 146 
L 262 0 
L 2515 0 
L 2669 989 
z
" transform="scale(0.015625)"/>
       </defs>
       <use xlink:href="#CMR17-32" transform="scale(0.996264)"/>
       <use xlink:href="#CMR17-30" transform="translate(45.690477 0) scale(0.996264)"/>
      </g>
     </g>
    </g>
    <g id="xtick_6">
     <g id="line2d_11">
      <path d="M 260.090075 211.381683 
L 260.090075 10.8 
" clip-path="url(#pf91827b248)" style="fill: none; stroke: #b0b0b0; stroke-width: 0.8; stroke-linecap: square"/>
     </g>
     <g id="line2d_12">
      <g>
       <use xlink:href="#m3fd9e95ba7" x="260.090075" y="211.381683" style="stroke: #000000; stroke-width: 0.8"/>
      </g>
     </g>
     <g id="text_6">
      <!-- $\mathdefault{25}$ -->
      <g transform="translate(255.108739 225.300182) scale(0.1 -0.1)">
       <use xlink:href="#CMR17-32" transform="scale(0.996264)"/>
       <use xlink:href="#CMR17-35" transform="translate(45.690477 0) scale(0.996264)"/>
      </g>
     </g>
    </g>
    <g id="xtick_7">
     <g id="line2d_13">
      <path d="M 298.009192 211.381683 
L 298.009192 10.8 
" clip-path="url(#pf91827b248)" style="fill: none; stroke: #b0b0b0; stroke-width: 0.8; stroke-linecap: square"/>
     </g>
     <g id="line2d_14">
      <g>
       <use xlink:href="#m3fd9e95ba7" x="298.009192" y="211.381683" style="stroke: #000000; stroke-width: 0.8"/>
      </g>
     </g>
     <g id="text_7">
      <!-- $\mathdefault{30}$ -->
      <g transform="translate(293.027857 225.300182) scale(0.1 -0.1)">
       <defs>
        <path id="CMR17-33" d="M 1414 2157 
C 1984 2157 2234 1662 2234 1090 
C 2234 320 1824 25 1453 25 
C 1114 25 563 194 390 693 
C 422 680 454 680 486 680 
C 640 680 755 782 755 948 
C 755 1133 614 1216 486 1216 
C 378 1216 211 1165 211 926 
C 211 335 787 -128 1466 -128 
C 2176 -128 2720 430 2720 1085 
C 2720 1707 2208 2157 1600 2227 
C 2086 2328 2554 2756 2554 3329 
C 2554 3820 2048 4179 1472 4179 
C 890 4179 378 3829 378 3329 
C 378 3110 544 3072 627 3072 
C 762 3072 877 3155 877 3321 
C 877 3486 762 3569 627 3569 
C 602 3569 570 3569 544 3557 
C 730 3959 1235 4032 1459 4032 
C 1683 4032 2106 3925 2106 3320 
C 2106 3143 2080 2828 1862 2550 
C 1670 2304 1453 2304 1242 2284 
C 1210 2284 1062 2269 1037 2269 
C 992 2263 966 2257 966 2208 
C 966 2163 973 2157 1101 2157 
L 1414 2157 
z
" transform="scale(0.015625)"/>
       </defs>
       <use xlink:href="#CMR17-33" transform="scale(0.996264)"/>
       <use xlink:href="#CMR17-30" transform="translate(45.690477 0) scale(0.996264)"/>
      </g>
     </g>
    </g>
    <g id="xtick_8">
     <g id="line2d_15">
      <path d="M 335.928309 211.381683 
L 335.928309 10.8 
" clip-path="url(#pf91827b248)" style="fill: none; stroke: #b0b0b0; stroke-width: 0.8; stroke-linecap: square"/>
     </g>
     <g id="line2d_16">
      <g>
       <use xlink:href="#m3fd9e95ba7" x="335.928309" y="211.381683" style="stroke: #000000; stroke-width: 0.8"/>
      </g>
     </g>
     <g id="text_8">
      <!-- $\mathdefault{35}$ -->
      <g transform="translate(330.946974 225.300182) scale(0.1 -0.1)">
       <use xlink:href="#CMR17-33" transform="scale(0.996264)"/>
       <use xlink:href="#CMR17-35" transform="translate(45.690477 0) scale(0.996264)"/>
      </g>
     </g>
    </g>
    <g id="text_9">
     <!-- Time $t$ [s] -->
     <g transform="translate(182.013091 238.70934) scale(0.1 -0.1)">
      <defs>
       <path id="CMR17-54" d="M 3981 4326 
L 288 4326 
L 179 2918 
L 294 2918 
C 378 3976 467 4160 1453 4160 
C 1568 4160 1754 4160 1805 4154 
C 1926 4135 1926 4058 1926 3912 
L 1926 459 
C 1926 230 1907 160 1376 160 
L 1197 160 
L 1197 0 
C 1504 0 1824 0 2138 0 
C 2451 0 2771 0 3078 0 
L 3078 160 
L 2899 160 
C 2368 160 2349 230 2349 459 
L 2349 3912 
C 2349 4052 2349 4129 2464 4154 
C 2515 4160 2701 4160 2816 4160 
C 3795 4160 3891 3976 3974 2918 
L 4090 2918 
L 3981 4326 
z
" transform="scale(0.015625)"/>
       <path id="CMR17-69" d="M 992 3909 
C 992 4049 877 4170 730 4170 
C 589 4170 467 4056 467 3909 
C 467 3769 582 3648 730 3648 
C 870 3648 992 3763 992 3909 
z
M 243 2706 
L 243 2541 
C 602 2541 653 2502 653 2197 
L 653 427 
C 653 184 627 153 218 153 
L 218 -13 
C 371 0 646 0 806 0 
C 960 0 1222 0 1370 -13 
L 1370 153 
C 992 153 979 191 979 420 
L 979 2776 
L 243 2706 
z
" transform="scale(0.015625)"/>
       <path id="CMR17-6d" d="M 4326 1933 
C 4326 2252 4269 2790 3507 2790 
C 3072 2790 2771 2496 2656 2151 
L 2650 2151 
C 2573 2676 2195 2790 1837 2790 
C 1331 2790 1069 2400 973 2144 
L 966 2144 
L 966 2790 
L 211 2720 
L 211 2554 
C 589 2554 646 2515 646 2208 
L 646 428 
C 646 184 621 153 211 153 
L 211 -13 
C 365 0 646 0 813 0 
C 979 0 1267 0 1421 -13 
L 1421 153 
C 1011 153 986 178 986 428 
L 986 1658 
C 986 2247 1344 2688 1792 2688 
C 2266 2688 2317 2266 2317 1958 
L 2317 428 
C 2317 184 2291 153 1882 153 
L 1882 -13 
C 2035 0 2317 0 2483 0 
C 2650 0 2938 0 3091 -13 
L 3091 153 
C 2682 153 2656 178 2656 428 
L 2656 1658 
C 2656 2247 3014 2688 3462 2688 
C 3936 2688 3987 2266 3987 1958 
L 3987 428 
C 3987 184 3962 153 3552 153 
L 3552 -13 
C 3706 0 3987 0 4154 0 
C 4320 0 4608 0 4762 -13 
L 4762 153 
C 4352 153 4326 178 4326 428 
L 4326 1933 
z
" transform="scale(0.015625)"/>
       <path id="CMR17-65" d="M 2438 1472 
C 2464 1498 2464 1511 2464 1576 
C 2464 2238 2118 2816 1389 2816 
C 710 2816 173 2169 173 1383 
C 173 551 781 -64 1459 -64 
C 2176 -64 2458 607 2458 740 
C 2458 784 2419 784 2406 784 
C 2362 784 2355 771 2330 696 
C 2189 265 1837 51 1504 51 
C 1229 51 954 203 781 480 
C 582 803 582 1176 582 1472 
L 2438 1472 
z
M 589 1568 
C 634 2505 1126 2714 1382 2714 
C 1818 2714 2112 2297 2118 1568 
L 589 1568 
z
" transform="scale(0.015625)"/>
       <path id="CMMI12-74" d="M 1286 2566 
L 1875 2566 
C 1997 2566 2061 2566 2061 2681 
C 2061 2752 2022 2752 1894 2752 
L 1331 2752 
L 1568 3692 
C 1594 3781 1594 3794 1594 3840 
C 1594 3943 1510 4000 1427 4000 
C 1376 4000 1229 3981 1178 3775 
L 928 2752 
L 326 2752 
C 198 2752 141 2752 141 2630 
C 141 2566 186 2566 307 2566 
L 877 2566 
L 454 881 
C 403 658 384 594 384 511 
C 384 211 595 -64 954 -64 
C 1600 -64 1946 868 1946 912 
C 1946 951 1920 970 1882 970 
C 1869 970 1843 970 1830 944 
C 1824 938 1818 931 1773 829 
C 1638 511 1344 64 973 64 
C 781 64 768 224 768 364 
C 768 370 768 492 787 568 
L 1286 2566 
z
" transform="scale(0.015625)"/>
       <path id="CMR17-5b" d="M 1504 -1600 
L 1504 -1377 
L 902 -1377 
L 902 4544 
L 1504 4544 
L 1504 4767 
L 678 4767 
L 678 -1600 
L 1504 -1600 
z
" transform="scale(0.015625)"/>
       <path id="CMR17-73" d="M 1978 2697 
C 1978 2813 1971 2819 1933 2819 
C 1907 2819 1901 2813 1824 2717 
C 1805 2691 1747 2626 1728 2601 
C 1523 2819 1235 2819 1126 2819 
C 416 2819 160 2447 160 2076 
C 160 1498 813 1365 998 1325 
C 1402 1243 1542 1217 1677 1101 
C 1760 1025 1901 884 1901 654 
C 1901 384 1747 38 1158 38 
C 602 38 403 460 288 1021 
C 269 1110 269 1117 218 1117 
C 166 1117 160 1110 160 983 
L 160 63 
C 160 -51 166 -58 205 -58 
C 237 -58 243 -51 275 0 
C 314 57 410 211 448 276 
C 576 103 800 -64 1158 -64 
C 1792 -64 2131 283 2131 784 
C 2131 1112 1958 1285 1875 1362 
C 1683 1561 1459 1606 1190 1657 
C 838 1735 390 1825 390 2217 
C 390 2383 480 2737 1126 2737 
C 1811 2737 1850 2094 1862 1888 
C 1869 1856 1901 1849 1920 1849 
C 1978 1849 1978 1869 1978 1978 
L 1978 2697 
z
" transform="scale(0.015625)"/>
       <path id="CMR17-5d" d="M 915 4767 
L 90 4767 
L 90 4544 
L 691 4544 
L 691 -1377 
L 90 -1377 
L 90 -1600 
L 915 -1600 
L 915 4767 
z
" transform="scale(0.015625)"/>
      </defs>
      <use xlink:href="#CMR17-54" transform="scale(0.996264)"/>
      <use xlink:href="#CMR17-69" transform="translate(66.509881 0) scale(0.996264)"/>
      <use xlink:href="#CMR17-6d" transform="translate(91.380939 0) scale(0.996264)"/>
      <use xlink:href="#CMR17-65" transform="translate(168.300529 0) scale(0.996264)"/>
      <use xlink:href="#CMMI12-74" transform="translate(238.862156 0) scale(0.996264)"/>
      <use xlink:href="#CMR17-5b" transform="translate(304.164452 0) scale(0.996264)"/>
      <use xlink:href="#CMR17-73" transform="translate(329.035511 0) scale(0.996264)"/>
      <use xlink:href="#CMR17-5d" transform="translate(364.836848 0) scale(0.996264)"/>
     </g>
    </g>
   </g>
   <g id="matplotlib.axis_2">
    <g id="ytick_1">
     <g id="line2d_17">
      <path d="M 57.222798 200.211311 
L 349.2 200.211311 
" clip-path="url(#pf91827b248)" style="fill: none; stroke: #b0b0b0; stroke-width: 0.8; stroke-linecap: square"/>
     </g>
     <g id="line2d_18">
      <defs>
       <path id="m419a9c6d98" d="M 0 0 
L -3.5 0 
" style="stroke: #000000; stroke-width: 0.8"/>
      </defs>
      <g>
       <use xlink:href="#m419a9c6d98" x="57.222798" y="200.211311" style="stroke: #000000; stroke-width: 0.8"/>
      </g>
     </g>
     <g id="text_10">
      <!-- $\mathdefault{−0.20}$ -->
      <g transform="translate(24.76264 203.67056) scale(0.1 -0.1)">
       <defs>
        <path id="CMSY10-0" d="M 4218 1472 
C 4326 1472 4442 1472 4442 1600 
C 4442 1728 4326 1728 4218 1728 
L 755 1728 
C 646 1728 531 1728 531 1600 
C 531 1472 646 1472 755 1472 
L 4218 1472 
z
" transform="scale(0.015625)"/>
        <path id="CMMI12-3a" d="M 1178 307 
C 1178 492 1024 619 870 619 
C 685 619 557 466 557 313 
C 557 128 710 0 864 0 
C 1050 0 1178 153 1178 307 
z
" transform="scale(0.015625)"/>
       </defs>
       <use xlink:href="#CMSY10-0" transform="scale(0.996264)"/>
       <use xlink:href="#CMR17-30" transform="translate(77.487468 0) scale(0.996264)"/>
       <use xlink:href="#CMMI12-3a" transform="translate(123.177945 0) scale(0.996264)"/>
       <use xlink:href="#CMR17-32" transform="translate(150.275122 0) scale(0.996264)"/>
       <use xlink:href="#CMR17-30" transform="translate(195.965599 0) scale(0.996264)"/>
      </g>
     </g>
    </g>
    <g id="ytick_2">
     <g id="line2d_19">
      <path d="M 57.222798 174.039026 
L 349.2 174.039026 
" clip-path="url(#pf91827b248)" style="fill: none; stroke: #b0b0b0; stroke-width: 0.8; stroke-linecap: square"/>
     </g>
     <g id="line2d_20">
      <g>
       <use xlink:href="#m419a9c6d98" x="57.222798" y="174.039026" style="stroke: #000000; stroke-width: 0.8"/>
      </g>
     </g>
     <g id="text_11">
      <!-- $\mathdefault{−0.15}$ -->
      <g transform="translate(24.76264 177.498275) scale(0.1 -0.1)">
       <use xlink:href="#CMSY10-0" transform="scale(0.996264)"/>
       <use xlink:href="#CMR17-30" transform="translate(77.487468 0) scale(0.996264)"/>
       <use xlink:href="#CMMI12-3a" transform="translate(123.177945 0) scale(0.996264)"/>
       <use xlink:href="#CMR17-31" transform="translate(150.275122 0) scale(0.996264)"/>
       <use xlink:href="#CMR17-35" transform="translate(195.965599 0) scale(0.996264)"/>
      </g>
     </g>
    </g>
    <g id="ytick_3">
     <g id="line2d_21">
      <path d="M 57.222798 147.866741 
L 349.2 147.866741 
" clip-path="url(#pf91827b248)" style="fill: none; stroke: #b0b0b0; stroke-width: 0.8; stroke-linecap: square"/>
     </g>
     <g id="line2d_22">
      <g>
       <use xlink:href="#m419a9c6d98" x="57.222798" y="147.866741" style="stroke: #000000; stroke-width: 0.8"/>
      </g>
     </g>
     <g id="text_12">
      <!-- $\mathdefault{−0.10}$ -->
      <g transform="translate(24.76264 151.32599) scale(0.1 -0.1)">
       <use xlink:href="#CMSY10-0" transform="scale(0.996264)"/>
       <use xlink:href="#CMR17-30" transform="translate(77.487468 0) scale(0.996264)"/>
       <use xlink:href="#CMMI12-3a" transform="translate(123.177945 0) scale(0.996264)"/>
       <use xlink:href="#CMR17-31" transform="translate(150.275122 0) scale(0.996264)"/>
       <use xlink:href="#CMR17-30" transform="translate(195.965599 0) scale(0.996264)"/>
      </g>
     </g>
    </g>
    <g id="ytick_4">
     <g id="line2d_23">
      <path d="M 57.222798 121.694456 
L 349.2 121.694456 
" clip-path="url(#pf91827b248)" style="fill: none; stroke: #b0b0b0; stroke-width: 0.8; stroke-linecap: square"/>
     </g>
     <g id="line2d_24">
      <g>
       <use xlink:href="#m419a9c6d98" x="57.222798" y="121.694456" style="stroke: #000000; stroke-width: 0.8"/>
      </g>
     </g>
     <g id="text_13">
      <!-- $\mathdefault{−0.05}$ -->
      <g transform="translate(24.76264 125.153705) scale(0.1 -0.1)">
       <use xlink:href="#CMSY10-0" transform="scale(0.996264)"/>
       <use xlink:href="#CMR17-30" transform="translate(77.487468 0) scale(0.996264)"/>
       <use xlink:href="#CMMI12-3a" transform="translate(123.177945 0) scale(0.996264)"/>
       <use xlink:href="#CMR17-30" transform="translate(150.275122 0) scale(0.996264)"/>
       <use xlink:href="#CMR17-35" transform="translate(195.965599 0) scale(0.996264)"/>
      </g>
     </g>
    </g>
    <g id="ytick_5">
     <g id="line2d_25">
      <path d="M 57.222798 95.52217 
L 349.2 95.52217 
" clip-path="url(#pf91827b248)" style="fill: none; stroke: #b0b0b0; stroke-width: 0.8; stroke-linecap: square"/>
     </g>
     <g id="line2d_26">
      <g>
       <use xlink:href="#m419a9c6d98" x="57.222798" y="95.52217" style="stroke: #000000; stroke-width: 0.8"/>
      </g>
     </g>
     <g id="text_14">
      <!-- $\mathdefault{0.00}$ -->
      <g transform="translate(32.511384 98.981419) scale(0.1 -0.1)">
       <use xlink:href="#CMR17-30" transform="scale(0.996264)"/>
       <use xlink:href="#CMMI12-3a" transform="translate(45.690477 0) scale(0.996264)"/>
       <use xlink:href="#CMR17-30" transform="translate(72.787654 0) scale(0.996264)"/>
       <use xlink:href="#CMR17-30" transform="translate(118.478131 0) scale(0.996264)"/>
      </g>
     </g>
    </g>
    <g id="ytick_6">
     <g id="line2d_27">
      <path d="M 57.222798 69.349885 
L 349.2 69.349885 
" clip-path="url(#pf91827b248)" style="fill: none; stroke: #b0b0b0; stroke-width: 0.8; stroke-linecap: square"/>
     </g>
     <g id="line2d_28">
      <g>
       <use xlink:href="#m419a9c6d98" x="57.222798" y="69.349885" style="stroke: #000000; stroke-width: 0.8"/>
      </g>
     </g>
     <g id="text_15">
      <!-- $\mathdefault{0.05}$ -->
      <g transform="translate(32.511384 72.809134) scale(0.1 -0.1)">
       <use xlink:href="#CMR17-30" transform="scale(0.996264)"/>
       <use xlink:href="#CMMI12-3a" transform="translate(45.690477 0) scale(0.996264)"/>
       <use xlink:href="#CMR17-30" transform="translate(72.787654 0) scale(0.996264)"/>
       <use xlink:href="#CMR17-35" transform="translate(118.478131 0) scale(0.996264)"/>
      </g>
     </g>
    </g>
    <g id="ytick_7">
     <g id="line2d_29">
      <path d="M 57.222798 43.1776 
L 349.2 43.1776 
" clip-path="url(#pf91827b248)" style="fill: none; stroke: #b0b0b0; stroke-width: 0.8; stroke-linecap: square"/>
     </g>
     <g id="line2d_30">
      <g>
       <use xlink:href="#m419a9c6d98" x="57.222798" y="43.1776" style="stroke: #000000; stroke-width: 0.8"/>
      </g>
     </g>
     <g id="text_16">
      <!-- $\mathdefault{0.10}$ -->
      <g transform="translate(32.511384 46.636849) scale(0.1 -0.1)">
       <use xlink:href="#CMR17-30" transform="scale(0.996264)"/>
       <use xlink:href="#CMMI12-3a" transform="translate(45.690477 0) scale(0.996264)"/>
       <use xlink:href="#CMR17-31" transform="translate(72.787654 0) scale(0.996264)"/>
       <use xlink:href="#CMR17-30" transform="translate(118.478131 0) scale(0.996264)"/>
      </g>
     </g>
    </g>
    <g id="ytick_8">
     <g id="line2d_31">
      <path d="M 57.222798 17.005315 
L 349.2 17.005315 
" clip-path="url(#pf91827b248)" style="fill: none; stroke: #b0b0b0; stroke-width: 0.8; stroke-linecap: square"/>
     </g>
     <g id="line2d_32">
      <g>
       <use xlink:href="#m419a9c6d98" x="57.222798" y="17.005315" style="stroke: #000000; stroke-width: 0.8"/>
      </g>
     </g>
     <g id="text_17">
      <!-- $\mathdefault{0.15}$ -->
      <g transform="translate(32.511384 20.464564) scale(0.1 -0.1)">
       <use xlink:href="#CMR17-30" transform="scale(0.996264)"/>
       <use xlink:href="#CMMI12-3a" transform="translate(45.690477 0) scale(0.996264)"/>
       <use xlink:href="#CMR17-31" transform="translate(72.787654 0) scale(0.996264)"/>
       <use xlink:href="#CMR17-35" transform="translate(118.478131 0) scale(0.996264)"/>
      </g>
     </g>
    </g>
    <g id="text_18">
     <!-- Shear force [N] -->
     <g transform="translate(18.27198 143.49715) rotate(-90) scale(0.1 -0.1)">
      <defs>
       <path id="CMR17-53" d="M 2803 4290 
C 2803 4404 2797 4411 2758 4411 
C 2720 4411 2707 4385 2682 4328 
L 2490 3907 
C 2246 4257 1875 4416 1472 4416 
C 819 4416 294 3901 294 3253 
C 294 3056 339 2776 557 2510 
C 794 2218 1018 2167 1530 2033 
C 1722 1982 2042 1899 2106 1874 
C 2470 1722 2662 1341 2662 985 
C 2662 527 2336 38 1779 38 
C 1094 38 454 419 410 1311 
C 403 1413 397 1419 352 1419 
C 301 1419 294 1413 294 1285 
L 294 -1 
C 294 -115 301 -122 339 -122 
C 384 -122 397 -90 486 108 
C 493 127 493 140 614 381 
C 934 -39 1472 -128 1779 -128 
C 2477 -128 2970 451 2970 1124 
C 2970 1454 2848 1708 2778 1823 
C 2509 2230 2221 2306 1914 2382 
C 1869 2402 1856 2402 1498 2490 
C 1152 2579 1005 2624 845 2796 
C 666 2992 602 3196 602 3399 
C 602 3812 934 4263 1478 4263 
C 2157 4263 2579 3786 2675 2993 
C 2694 2878 2701 2872 2746 2872 
C 2803 2872 2803 2891 2803 2999 
L 2803 4290 
z
" transform="scale(0.015625)"/>
       <path id="CMR17-68" d="M 2656 1933 
C 2656 2259 2592 2790 1837 2790 
C 1312 2790 1056 2368 979 2157 
L 973 2157 
L 973 4396 
L 211 4326 
L 211 4160 
C 589 4160 646 4122 646 3817 
L 646 426 
C 646 184 621 153 211 153 
L 211 -13 
C 365 0 646 0 813 0 
C 979 0 1267 0 1421 -13 
L 1421 153 
C 1011 153 986 178 986 428 
L 986 1658 
C 986 2247 1344 2688 1792 2688 
C 2266 2688 2317 2266 2317 1958 
L 2317 428 
C 2317 184 2291 153 1882 153 
L 1882 -13 
C 2035 0 2317 0 2483 0 
C 2650 0 2938 0 3091 -13 
L 3091 153 
C 2682 153 2656 178 2656 428 
L 2656 1933 
z
" transform="scale(0.015625)"/>
       <path id="CMR17-61" d="M 2304 1653 
C 2304 2072 2304 2294 2035 2543 
C 1798 2752 1523 2816 1306 2816 
C 800 2816 435 2407 435 1971 
C 435 1728 627 1728 666 1728 
C 749 1728 896 1778 896 1954 
C 896 2112 774 2181 666 2181 
C 640 2181 608 2174 589 2168 
C 723 2592 1069 2714 1293 2714 
C 1613 2714 1965 2429 1965 1885 
L 1965 1600 
C 1587 1600 1133 1549 774 1357 
C 371 1133 256 813 256 570 
C 256 77 832 -64 1171 -64 
C 1523 -64 1850 139 1990 511 
C 2003 233 2182 -18 2464 -18 
C 2598 -18 2938 70 2938 567 
L 2938 920 
L 2822 920 
L 2822 562 
C 2822 178 2650 128 2566 128 
C 2304 128 2304 458 2304 738 
L 2304 1653 
z
M 1965 870 
C 1965 317 1568 38 1216 38 
C 896 38 646 275 646 570 
C 646 761 730 1100 1101 1305 
C 1408 1478 1760 1504 1965 1504 
L 1965 870 
z
" transform="scale(0.015625)"/>
       <path id="CMR17-72" d="M 960 1497 
C 960 2112 1222 2688 1702 2688 
C 1747 2688 1792 2682 1837 2662 
C 1837 2662 1696 2617 1696 2452 
C 1696 2298 1818 2234 1914 2234 
C 1990 2234 2131 2279 2131 2458 
C 2131 2663 1926 2790 1709 2790 
C 1222 2790 1011 2317 947 2093 
L 941 2093 
L 941 2790 
L 198 2720 
L 198 2554 
C 576 2554 634 2515 634 2208 
L 634 428 
C 634 184 608 153 198 153 
L 198 -13 
C 352 0 646 0 813 0 
C 998 0 1325 0 1498 -13 
L 1498 153 
C 1037 153 960 153 960 440 
L 960 1497 
z
" transform="scale(0.015625)"/>
       <path id="CMR17-66" d="M 979 2560 
L 1709 2560 
L 1709 2725 
L 966 2725 
L 966 3494 
C 966 4022 1235 4352 1510 4352 
C 1594 4352 1690 4327 1754 4282 
C 1702 4269 1568 4225 1568 4067 
C 1568 3901 1696 3850 1786 3850 
C 1875 3850 2003 3901 2003 4067 
C 2003 4308 1773 4454 1517 4454 
C 1152 4454 653 4156 653 3481 
L 653 2725 
L 141 2725 
L 141 2560 
L 653 2560 
L 653 427 
C 653 184 627 153 218 153 
L 218 -13 
C 371 0 666 0 832 0 
C 1018 0 1344 0 1517 -13 
L 1517 153 
C 1056 153 979 153 979 439 
L 979 2560 
z
" transform="scale(0.015625)"/>
       <path id="CMR17-6f" d="M 2758 1356 
C 2758 2176 2163 2816 1466 2816 
C 768 2816 173 2176 173 1356 
C 173 551 768 -64 1466 -64 
C 2163 -64 2758 551 2758 1356 
z
M 1466 51 
C 1165 51 909 230 762 480 
C 602 767 582 1126 582 1408 
C 582 1677 595 2010 762 2298 
C 890 2509 1139 2714 1466 2714 
C 1754 2714 1997 2554 2150 2330 
C 2349 2029 2349 1607 2349 1408 
C 2349 1158 2336 775 2163 467 
C 1984 173 1709 51 1466 51 
z
" transform="scale(0.015625)"/>
       <path id="CMR17-63" d="M 2234 2240 
C 2112 2240 1933 2240 1933 2017 
C 1933 1838 2080 1787 2163 1787 
C 2208 1787 2394 1807 2394 2024 
C 2394 2467 1958 2803 1466 2803 
C 787 2803 211 2178 211 1363 
C 211 516 813 -64 1466 -64 
C 2259 -64 2458 677 2458 748 
C 2458 774 2451 793 2406 793 
C 2362 793 2355 787 2330 703 
C 2163 180 1798 51 1523 51 
C 1114 51 621 427 621 1369 
C 621 2338 1094 2688 1472 2688 
C 1722 2688 2093 2573 2234 2240 
z
" transform="scale(0.015625)"/>
       <path id="CMR17-4e" d="M 1312 4250 
C 1267 4320 1261 4320 1139 4320 
L 326 4320 
L 326 4160 
L 448 4160 
C 704 4160 819 4129 838 4122 
L 838 610 
C 838 451 838 153 326 153 
L 326 -13 
C 474 0 742 0 902 0 
C 1062 0 1331 0 1478 -13 
L 1478 153 
C 966 153 966 451 966 610 
L 966 4033 
C 1011 3995 1011 3982 1056 3919 
L 3430 76 
C 3475 0 3494 0 3526 0 
C 3590 0 3590 19 3590 139 
L 3590 3705 
C 3590 3863 3590 4160 4102 4160 
L 4102 4326 
C 3955 4320 3686 4320 3526 4320 
C 3366 4320 3098 4320 2950 4326 
L 2950 4160 
C 3462 4160 3462 3862 3462 3703 
L 3462 763 
L 1312 4250 
z
" transform="scale(0.015625)"/>
      </defs>
      <use xlink:href="#CMR17-53" transform="scale(0.996264)"/>
      <use xlink:href="#CMR17-68" transform="translate(50.89537 0) scale(0.996264)"/>
      <use xlink:href="#CMR17-65" transform="translate(101.79074 0) scale(0.996264)"/>
      <use xlink:href="#CMR17-61" transform="translate(142.2764 0) scale(0.996264)"/>
      <use xlink:href="#CMR17-72" transform="translate(187.966877 0) scale(0.996264)"/>
      <use xlink:href="#CMR17-66" transform="translate(253.323611 0) scale(0.996264)"/>
      <use xlink:href="#CMR17-6f" transform="translate(280.797124 0) scale(0.996264)"/>
      <use xlink:href="#CMR17-72" transform="translate(326.487601 0) scale(0.996264)"/>
      <use xlink:href="#CMR17-63" transform="translate(361.768369 0) scale(0.996264)"/>
      <use xlink:href="#CMR17-65" transform="translate(402.254029 0) scale(0.996264)"/>
      <use xlink:href="#CMR17-5b" transform="translate(472.815656 0) scale(0.996264)"/>
      <use xlink:href="#CMR17-4e" transform="translate(497.686714 0) scale(0.996264)"/>
      <use xlink:href="#CMR17-5d" transform="translate(566.759144 0) scale(0.996264)"/>
     </g>
    </g>
   </g>
   <g id="line2d_33">
    <path d="M 70.494489 71.999075 
L 108.413606 71.999075 
L 108.565283 165.321491 
L 146.332723 165.321491 
L 146.4844 109.815814 
L 184.25184 109.815814 
L 184.403517 143.107701 
L 222.170958 143.107701 
L 222.322634 85.820328 
L 260.090075 85.820328 
L 260.241751 63.388999 
L 298.009192 63.388999 
L 298.160868 122.876821 
L 335.928309 122.876821 
L 335.928309 122.876821 
" clip-path="url(#pf91827b248)" style="fill: none; stroke: #1f77b4; stroke-width: 1.5; stroke-linecap: square"/>
    <defs>
     <path id="m1a4271c57b" d="M 0 2.5 
C 0.663008 2.5 1.29895 2.236584 1.767767 1.767767 
C 2.236584 1.29895 2.5 0.663008 2.5 0 
C 2.5 -0.663008 2.236584 -1.29895 1.767767 -1.767767 
C 1.29895 -2.236584 0.663008 -2.5 0 -2.5 
C -0.663008 -2.5 -1.29895 -2.236584 -1.767767 -1.767767 
C -2.236584 -1.29895 -2.5 -0.663008 -2.5 0 
C -2.5 0.663008 -2.236584 1.29895 -1.767767 1.767767 
C -1.29895 2.236584 -0.663008 2.5 0 2.5 
z
" style="stroke: #1f77b4"/>
    </defs>
    <g clip-path="url(#pf91827b248)">
     <use xlink:href="#m1a4271c57b" x="70.494489" y="71.999075" style="fill: #1f77b4; stroke: #1f77b4"/>
     <use xlink:href="#m1a4271c57b" x="78.078312" y="71.999075" style="fill: #1f77b4; stroke: #1f77b4"/>
     <use xlink:href="#m1a4271c57b" x="85.662136" y="71.999075" style="fill: #1f77b4; stroke: #1f77b4"/>
     <use xlink:href="#m1a4271c57b" x="93.245959" y="71.999075" style="fill: #1f77b4; stroke: #1f77b4"/>
     <use xlink:href="#m1a4271c57b" x="100.829783" y="71.999075" style="fill: #1f77b4; stroke: #1f77b4"/>
     <use xlink:href="#m1a4271c57b" x="108.413606" y="71.999075" style="fill: #1f77b4; stroke: #1f77b4"/>
     <use xlink:href="#m1a4271c57b" x="115.99743" y="165.321491" style="fill: #1f77b4; stroke: #1f77b4"/>
     <use xlink:href="#m1a4271c57b" x="123.581253" y="165.321491" style="fill: #1f77b4; stroke: #1f77b4"/>
     <use xlink:href="#m1a4271c57b" x="131.165076" y="165.321491" style="fill: #1f77b4; stroke: #1f77b4"/>
     <use xlink:href="#m1a4271c57b" x="138.7489" y="165.321491" style="fill: #1f77b4; stroke: #1f77b4"/>
     <use xlink:href="#m1a4271c57b" x="146.332723" y="165.321491" style="fill: #1f77b4; stroke: #1f77b4"/>
     <use xlink:href="#m1a4271c57b" x="153.916547" y="109.815814" style="fill: #1f77b4; stroke: #1f77b4"/>
     <use xlink:href="#m1a4271c57b" x="161.50037" y="109.815814" style="fill: #1f77b4; stroke: #1f77b4"/>
     <use xlink:href="#m1a4271c57b" x="169.084194" y="109.815814" style="fill: #1f77b4; stroke: #1f77b4"/>
     <use xlink:href="#m1a4271c57b" x="176.668017" y="109.815814" style="fill: #1f77b4; stroke: #1f77b4"/>
     <use xlink:href="#m1a4271c57b" x="184.25184" y="109.815814" style="fill: #1f77b4; stroke: #1f77b4"/>
     <use xlink:href="#m1a4271c57b" x="191.835664" y="143.107701" style="fill: #1f77b4; stroke: #1f77b4"/>
     <use xlink:href="#m1a4271c57b" x="199.419487" y="143.107701" style="fill: #1f77b4; stroke: #1f77b4"/>
     <use xlink:href="#m1a4271c57b" x="207.003311" y="143.107701" style="fill: #1f77b4; stroke: #1f77b4"/>
     <use xlink:href="#m1a4271c57b" x="214.587134" y="143.107701" style="fill: #1f77b4; stroke: #1f77b4"/>
     <use xlink:href="#m1a4271c57b" x="222.170958" y="143.107701" style="fill: #1f77b4; stroke: #1f77b4"/>
     <use xlink:href="#m1a4271c57b" x="229.754781" y="85.820328" style="fill: #1f77b4; stroke: #1f77b4"/>
     <use xlink:href="#m1a4271c57b" x="237.338604" y="85.820328" style="fill: #1f77b4; stroke: #1f77b4"/>
     <use xlink:href="#m1a4271c57b" x="244.922428" y="85.820328" style="fill: #1f77b4; stroke: #1f77b4"/>
     <use xlink:href="#m1a4271c57b" x="252.506251" y="85.820328" style="fill: #1f77b4; stroke: #1f77b4"/>
     <use xlink:href="#m1a4271c57b" x="260.090075" y="85.820328" style="fill: #1f77b4; stroke: #1f77b4"/>
     <use xlink:href="#m1a4271c57b" x="267.673898" y="63.388999" style="fill: #1f77b4; stroke: #1f77b4"/>
     <use xlink:href="#m1a4271c57b" x="275.257722" y="63.388999" style="fill: #1f77b4; stroke: #1f77b4"/>
     <use xlink:href="#m1a4271c57b" x="282.841545" y="63.388999" style="fill: #1f77b4; stroke: #1f77b4"/>
     <use xlink:href="#m1a4271c57b" x="290.425368" y="63.388999" style="fill: #1f77b4; stroke: #1f77b4"/>
     <use xlink:href="#m1a4271c57b" x="298.009192" y="63.388999" style="fill: #1f77b4; stroke: #1f77b4"/>
     <use xlink:href="#m1a4271c57b" x="305.593015" y="122.876821" style="fill: #1f77b4; stroke: #1f77b4"/>
     <use xlink:href="#m1a4271c57b" x="313.176839" y="122.876821" style="fill: #1f77b4; stroke: #1f77b4"/>
     <use xlink:href="#m1a4271c57b" x="320.760662" y="122.876821" style="fill: #1f77b4; stroke: #1f77b4"/>
     <use xlink:href="#m1a4271c57b" x="328.344486" y="122.876821" style="fill: #1f77b4; stroke: #1f77b4"/>
     <use xlink:href="#m1a4271c57b" x="335.928309" y="122.876821" style="fill: #1f77b4; stroke: #1f77b4"/>
    </g>
   </g>
   <g id="line2d_34">
    <path d="M 70.494489 180.163707 
L 108.413606 180.163707 
L 108.565283 149.204766 
L 146.332723 149.204766 
L 146.4844 50.202219 
L 184.25184 50.202219 
L 184.403517 80.45689 
L 222.170958 80.45689 
L 222.322634 104.707508 
L 260.090075 104.707508 
L 260.241751 106.029166 
L 298.009192 106.029166 
L 298.160868 164.777838 
L 335.928309 164.777838 
L 335.928309 164.777838 
" clip-path="url(#pf91827b248)" style="fill: none; stroke: #ff7f0e; stroke-width: 1.5; stroke-linecap: square"/>
    <defs>
     <path id="m09453f2ee3" d="M 0 2.5 
C 0.663008 2.5 1.29895 2.236584 1.767767 1.767767 
C 2.236584 1.29895 2.5 0.663008 2.5 0 
C 2.5 -0.663008 2.236584 -1.29895 1.767767 -1.767767 
C 1.29895 -2.236584 0.663008 -2.5 0 -2.5 
C -0.663008 -2.5 -1.29895 -2.236584 -1.767767 -1.767767 
C -2.236584 -1.29895 -2.5 -0.663008 -2.5 0 
C -2.5 0.663008 -2.236584 1.29895 -1.767767 1.767767 
C -1.29895 2.236584 -0.663008 2.5 0 2.5 
z
" style="stroke: #ff7f0e"/>
    </defs>
    <g clip-path="url(#pf91827b248)">
     <use xlink:href="#m09453f2ee3" x="70.494489" y="180.163707" style="fill: #ff7f0e; stroke: #ff7f0e"/>
     <use xlink:href="#m09453f2ee3" x="78.078312" y="180.163707" style="fill: #ff7f0e; stroke: #ff7f0e"/>
     <use xlink:href="#m09453f2ee3" x="85.662136" y="180.163707" style="fill: #ff7f0e; stroke: #ff7f0e"/>
     <use xlink:href="#m09453f2ee3" x="93.245959" y="180.163707" style="fill: #ff7f0e; stroke: #ff7f0e"/>
     <use xlink:href="#m09453f2ee3" x="100.829783" y="180.163707" style="fill: #ff7f0e; stroke: #ff7f0e"/>
     <use xlink:href="#m09453f2ee3" x="108.413606" y="180.163707" style="fill: #ff7f0e; stroke: #ff7f0e"/>
     <use xlink:href="#m09453f2ee3" x="115.99743" y="149.204766" style="fill: #ff7f0e; stroke: #ff7f0e"/>
     <use xlink:href="#m09453f2ee3" x="123.581253" y="149.204766" style="fill: #ff7f0e; stroke: #ff7f0e"/>
     <use xlink:href="#m09453f2ee3" x="131.165076" y="149.204766" style="fill: #ff7f0e; stroke: #ff7f0e"/>
     <use xlink:href="#m09453f2ee3" x="138.7489" y="149.204766" style="fill: #ff7f0e; stroke: #ff7f0e"/>
     <use xlink:href="#m09453f2ee3" x="146.332723" y="149.204766" style="fill: #ff7f0e; stroke: #ff7f0e"/>
     <use xlink:href="#m09453f2ee3" x="153.916547" y="50.202219" style="fill: #ff7f0e; stroke: #ff7f0e"/>
     <use xlink:href="#m09453f2ee3" x="161.50037" y="50.202219" style="fill: #ff7f0e; stroke: #ff7f0e"/>
     <use xlink:href="#m09453f2ee3" x="169.084194" y="50.202219" style="fill: #ff7f0e; stroke: #ff7f0e"/>
     <use xlink:href="#m09453f2ee3" x="176.668017" y="50.202219" style="fill: #ff7f0e; stroke: #ff7f0e"/>
     <use xlink:href="#m09453f2ee3" x="184.25184" y="50.202219" style="fill: #ff7f0e; stroke: #ff7f0e"/>
     <use xlink:href="#m09453f2ee3" x="191.835664" y="80.45689" style="fill: #ff7f0e; stroke: #ff7f0e"/>
     <use xlink:href="#m09453f2ee3" x="199.419487" y="80.45689" style="fill: #ff7f0e; stroke: #ff7f0e"/>
     <use xlink:href="#m09453f2ee3" x="207.003311" y="80.45689" style="fill: #ff7f0e; stroke: #ff7f0e"/>
     <use xlink:href="#m09453f2ee3" x="214.587134" y="80.45689" style="fill: #ff7f0e; stroke: #ff7f0e"/>
     <use xlink:href="#m09453f2ee3" x="222.170958" y="80.45689" style="fill: #ff7f0e; stroke: #ff7f0e"/>
     <use xlink:href="#m09453f2ee3" x="229.754781" y="104.707508" style="fill: #ff7f0e; stroke: #ff7f0e"/>
     <use xlink:href="#m09453f2ee3" x="237.338604" y="104.707508" style="fill: #ff7f0e; stroke: #ff7f0e"/>
     <use xlink:href="#m09453f2ee3" x="244.922428" y="104.707508" style="fill: #ff7f0e; stroke: #ff7f0e"/>
     <use xlink:href="#m09453f2ee3" x="252.506251" y="104.707508" style="fill: #ff7f0e; stroke: #ff7f0e"/>
     <use xlink:href="#m09453f2ee3" x="260.090075" y="104.707508" style="fill: #ff7f0e; stroke: #ff7f0e"/>
     <use xlink:href="#m09453f2ee3" x="267.673898" y="106.029166" style="fill: #ff7f0e; stroke: #ff7f0e"/>
     <use xlink:href="#m09453f2ee3" x="275.257722" y="106.029166" style="fill: #ff7f0e; stroke: #ff7f0e"/>
     <use xlink:href="#m09453f2ee3" x="282.841545" y="106.029166" style="fill: #ff7f0e; stroke: #ff7f0e"/>
     <use xlink:href="#m09453f2ee3" x="290.425368" y="106.029166" style="fill: #ff7f0e; stroke: #ff7f0e"/>
     <use xlink:href="#m09453f2ee3" x="298.009192" y="106.029166" style="fill: #ff7f0e; stroke: #ff7f0e"/>
     <use xlink:href="#m09453f2ee3" x="305.593015" y="164.777838" style="fill: #ff7f0e; stroke: #ff7f0e"/>
     <use xlink:href="#m09453f2ee3" x="313.176839" y="164.777838" style="fill: #ff7f0e; stroke: #ff7f0e"/>
     <use xlink:href="#m09453f2ee3" x="320.760662" y="164.777838" style="fill: #ff7f0e; stroke: #ff7f0e"/>
     <use xlink:href="#m09453f2ee3" x="328.344486" y="164.777838" style="fill: #ff7f0e; stroke: #ff7f0e"/>
     <use xlink:href="#m09453f2ee3" x="335.928309" y="164.777838" style="fill: #ff7f0e; stroke: #ff7f0e"/>
    </g>
   </g>
   <g id="line2d_35">
    <path d="M 70.494489 97.688378 
L 70.570327 87.579977 
L 70.722004 100.946006 
L 70.797842 101.733927 
L 70.87368 101.712622 
L 71.707901 99.211116 
L 72.390445 98.044779 
L 73.148827 97.218649 
L 73.90721 96.613619 
L 74.210563 96.705686 
L 74.893107 96.371842 
L 75.879004 96.158039 
L 77.168254 96.120988 
L 78.154151 96.064625 
L 78.381665 96.008513 
L 79.291724 96.090389 
L 79.89843 96.029734 
L 80.429298 96.228697 
L 81.491033 95.983849 
L 82.097739 95.958135 
L 82.401092 96.071535 
L 82.704445 96.247083 
L 83.235312 96.155464 
L 83.690342 95.918204 
L 84.145371 96.038559 
L 84.524562 96.200096 
L 84.979592 96.055683 
L 85.358783 95.926623 
L 85.813812 96.078854 
L 86.117165 96.150468 
L 86.572195 96.002448 
L 86.951386 95.941632 
L 87.937283 96.03204 
L 88.392312 95.941852 
L 89.454048 95.987172 
L 89.909077 95.950733 
L 90.743298 96.004707 
L 91.350003 95.948996 
L 92.184224 95.9789 
L 92.866768 95.956457 
L 93.549312 95.967766 
L 94.307695 95.949471 
L 95.066077 95.936171 
L 95.900298 95.95141 
L 97.872092 95.909389 
L 99.692209 95.889869 
L 102.194871 95.868988 
L 108.413606 95.827243 
L 108.489444 132.465014 
L 108.641121 91.402839 
L 108.716959 89.387981 
L 108.792797 89.656156 
L 109.323665 94.389826 
L 109.854533 96.880351 
L 110.309562 98.096316 
L 110.84043 98.901324 
L 111.219621 99.258054 
L 111.978003 99.627981 
L 112.736386 99.836632 
L 112.9639 99.750085 
L 114.480665 100.095735 
L 115.390724 100.269308 
L 117.514194 100.789765 
L 118.196738 100.862568 
L 119.485988 100.952758 
L 119.713503 100.903799 
L 121.002753 101.276856 
L 121.836974 101.372764 
L 122.822871 101.402703 
L 123.581253 101.619662 
L 124.642988 101.696436 
L 125.098018 101.81987 
L 126.387268 101.969122 
L 126.918135 101.996359 
L 127.449003 102.015821 
L 128.4349 102.172195 
L 129.041606 102.237222 
L 129.799988 102.349641 
L 130.482532 102.414142 
L 131.240915 102.514642 
L 131.999297 102.604949 
L 132.757679 102.675581 
L 133.5919 102.798559 
L 136.625429 103.119281 
L 139.203929 103.380408 
L 146.332723 104.039465 
L 146.408562 98.064674 
L 146.560238 103.36227 
L 146.636076 103.325476 
L 147.015267 102.27917 
L 147.546135 101.689226 
L 148.456194 101.057706 
L 148.759547 100.984964 
L 148.911223 101.04558 
L 149.745444 100.763093 
L 150.655503 100.738023 
L 151.793076 100.936529 
L 152.096429 101.060773 
L 152.323944 100.858876 
L 153.537356 101.127791 
L 153.840709 101.121999 
L 154.144061 101.388313 
L 154.902444 101.472668 
L 155.129958 101.452331 
L 155.357473 101.304668 
L 156.115856 101.445072 
L 156.495047 101.702503 
L 157.025914 101.729859 
L 157.405106 101.582957 
L 157.860135 101.709374 
L 158.315164 101.970482 
L 158.694356 101.919957 
L 159.073547 101.814349 
L 159.452738 101.96114 
L 159.907767 102.167127 
L 160.362797 102.056332 
L 160.741988 102.075501 
L 161.576208 102.327369 
L 162.182914 102.280406 
L 163.092973 102.486699 
L 163.623841 102.4816 
L 164.458061 102.668371 
L 165.064767 102.676879 
L 165.898988 102.83269 
L 166.505694 102.865524 
L 167.339914 102.994878 
L 168.022458 103.067518 
L 168.705002 103.157259 
L 169.463385 103.239972 
L 170.221767 103.313931 
L 171.055988 103.433481 
L 173.179458 103.629627 
L 184.25184 104.696002 
L 184.327679 126.598922 
L 184.479355 89.282136 
L 184.555193 87.181125 
L 184.631032 87.220686 
L 185.389414 92.518967 
L 185.920282 94.445422 
L 186.451149 95.520258 
L 187.057855 96.228758 
L 187.816237 96.643203 
L 188.57462 96.834285 
L 188.726296 96.758164 
L 190.394737 97.136669 
L 190.925605 97.191459 
L 195.096708 97.756032 
L 195.930929 97.668073 
L 196.613473 97.839407 
L 196.916826 97.949291 
L 198.661105 97.967499 
L 199.040296 98.092365 
L 199.647002 98.027049 
L 200.102031 98.027039 
L 201.239605 98.156122 
L 201.694634 98.159181 
L 202.680531 98.28594 
L 203.211399 98.282324 
L 204.121458 98.393507 
L 204.652325 98.390105 
L 205.562384 98.491254 
L 206.16909 98.511719 
L 206.927473 98.591309 
L 207.685855 98.630418 
L 208.368399 98.679788 
L 209.126781 98.72833 
L 209.885164 98.763288 
L 210.719384 98.843362 
L 212.918693 98.941642 
L 222.095119 99.462501 
L 222.170958 99.464983 
L 222.246796 102.944474 
L 222.398472 85.112186 
L 222.474311 84.485163 
L 223.460208 88.106668 
L 224.142752 89.24805 
L 224.901134 90.057129 
L 225.356163 90.356714 
L 225.50784 90.242066 
L 226.417899 90.71602 
L 227.327958 90.860027 
L 228.465531 90.801115 
L 229.299752 90.742745 
L 229.527266 90.889345 
L 230.589002 90.679219 
L 231.195707 90.512807 
L 231.423222 90.3873 
L 233.319178 90.467616 
L 233.622531 90.293085 
L 233.925884 90.243878 
L 235.139296 90.313508 
L 235.746002 90.141517 
L 236.807737 90.137454 
L 237.262766 90.037135 
L 238.324501 90.008882 
L 238.779531 89.942019 
L 239.68959 89.924734 
L 240.296296 89.852513 
L 241.054678 89.831967 
L 241.737222 89.758552 
L 242.495604 89.721806 
L 243.253987 89.669094 
L 244.088207 89.592383 
L 245.908325 89.479464 
L 247.728443 89.380984 
L 256.753192 88.839145 
L 260.090075 88.670124 
L 260.165913 71.395439 
L 260.317589 104.866877 
L 260.393428 106.411587 
L 260.469266 106.090626 
L 261.000134 101.808925 
L 261.531001 99.53987 
L 262.061869 98.200945 
L 262.668575 97.273646 
L 263.351119 96.732394 
L 264.185339 96.345014 
L 264.792045 96.291687 
L 265.853781 96.058234 
L 266.384648 95.992886 
L 268.659795 95.781676 
L 268.811472 95.71087 
L 269.038986 95.64028 
L 269.949045 95.626082 
L 270.707428 95.623474 
L 271.162457 95.773404 
L 273.285927 95.557305 
L 273.58928 95.636727 
L 274.271825 95.501729 
L 274.651016 95.415472 
L 275.181883 95.529934 
L 275.561075 95.554321 
L 276.850325 95.481428 
L 277.305354 95.449889 
L 277.987898 95.336526 
L 278.822119 95.380111 
L 279.428824 95.293104 
L 280.338883 95.308174 
L 280.945589 95.261464 
L 281.703971 95.271419 
L 282.386516 95.222372 
L 283.144898 95.218133 
L 283.90328 95.1911 
L 284.661663 95.156387 
L 285.495883 95.158133 
L 287.543516 95.066812 
L 289.591148 95.0274 
L 292.473001 94.948935 
L 298.009192 94.805088 
L 298.08503 118.975078 
L 298.236707 84.047179 
L 298.312545 82.946101 
L 299.070927 89.424412 
L 299.601795 91.349182 
L 300.132662 92.485423 
L 300.739368 93.288789 
L 301.497751 93.812908 
L 302.180295 94.041334 
L 302.331971 93.981989 
L 303.469545 94.320999 
L 304.910471 94.480996 
L 306.730589 94.700786 
L 306.958104 94.762941 
L 307.716486 94.702967 
L 308.778221 94.607055 
L 309.157412 94.585437 
L 310.067471 94.745634 
L 310.294986 94.848652 
L 312.190942 94.823793 
L 312.570133 94.873664 
L 313.101 94.756556 
L 313.55603 94.755606 
L 314.541927 94.84903 
L 314.996956 94.791173 
L 316.210368 94.842445 
L 316.741236 94.88989 
L 317.272103 94.949554 
L 318.182162 94.925961 
L 318.788868 94.963893 
L 319.54725 94.949181 
L 320.305633 94.978088 
L 321.064015 94.998377 
L 321.822397 94.997033 
L 322.732456 95.048736 
L 335.928309 95.26412 
L 335.928309 95.26412 
" clip-path="url(#pf91827b248)" style="fill: none; stroke: #1f77b4; stroke-width: 1.5; stroke-linecap: square"/>
    <defs>
     <path id="medf073f812" d="M -0 2.5 
L 2.5 -2.5 
L -2.5 -2.5 
z
" style="stroke: #1f77b4; stroke-linejoin: miter"/>
    </defs>
    <g clip-path="url(#pf91827b248)">
     <use xlink:href="#medf073f812" x="70.494489" y="97.688378" style="fill: #1f77b4; stroke: #1f77b4; stroke-linejoin: miter"/>
     <use xlink:href="#medf073f812" x="78.078312" y="96.202795" style="fill: #1f77b4; stroke: #1f77b4; stroke-linejoin: miter"/>
     <use xlink:href="#medf073f812" x="85.662136" y="95.998345" style="fill: #1f77b4; stroke: #1f77b4; stroke-linejoin: miter"/>
     <use xlink:href="#medf073f812" x="93.245959" y="95.994914" style="fill: #1f77b4; stroke: #1f77b4; stroke-linejoin: miter"/>
     <use xlink:href="#medf073f812" x="100.829783" y="95.878906" style="fill: #1f77b4; stroke: #1f77b4; stroke-linejoin: miter"/>
     <use xlink:href="#medf073f812" x="108.413606" y="95.827243" style="fill: #1f77b4; stroke: #1f77b4; stroke-linejoin: miter"/>
     <use xlink:href="#medf073f812" x="115.99743" y="100.383744" style="fill: #1f77b4; stroke: #1f77b4; stroke-linejoin: miter"/>
     <use xlink:href="#medf073f812" x="123.581253" y="101.619662" style="fill: #1f77b4; stroke: #1f77b4; stroke-linejoin: miter"/>
     <use xlink:href="#medf073f812" x="131.165076" y="102.515942" style="fill: #1f77b4; stroke: #1f77b4; stroke-linejoin: miter"/>
     <use xlink:href="#medf073f812" x="138.7489" y="103.315937" style="fill: #1f77b4; stroke: #1f77b4; stroke-linejoin: miter"/>
     <use xlink:href="#medf073f812" x="146.332723" y="104.039465" style="fill: #1f77b4; stroke: #1f77b4; stroke-linejoin: miter"/>
     <use xlink:href="#medf073f812" x="153.916547" y="101.229115" style="fill: #1f77b4; stroke: #1f77b4; stroke-linejoin: miter"/>
     <use xlink:href="#medf073f812" x="161.50037" y="102.339246" style="fill: #1f77b4; stroke: #1f77b4; stroke-linejoin: miter"/>
     <use xlink:href="#medf073f812" x="169.084194" y="103.165195" style="fill: #1f77b4; stroke: #1f77b4; stroke-linejoin: miter"/>
     <use xlink:href="#medf073f812" x="176.668017" y="104.008929" style="fill: #1f77b4; stroke: #1f77b4; stroke-linejoin: miter"/>
     <use xlink:href="#medf073f812" x="184.25184" y="104.696002" style="fill: #1f77b4; stroke: #1f77b4; stroke-linejoin: miter"/>
     <use xlink:href="#medf073f812" x="191.835664" y="97.321093" style="fill: #1f77b4; stroke: #1f77b4; stroke-linejoin: miter"/>
     <use xlink:href="#medf073f812" x="199.419487" y="98.097411" style="fill: #1f77b4; stroke: #1f77b4; stroke-linejoin: miter"/>
     <use xlink:href="#medf073f812" x="207.003311" y="98.584238" style="fill: #1f77b4; stroke: #1f77b4; stroke-linejoin: miter"/>
     <use xlink:href="#medf073f812" x="214.587134" y="99.050493" style="fill: #1f77b4; stroke: #1f77b4; stroke-linejoin: miter"/>
     <use xlink:href="#medf073f812" x="222.170958" y="99.464983" style="fill: #1f77b4; stroke: #1f77b4; stroke-linejoin: miter"/>
     <use xlink:href="#medf073f812" x="229.754781" y="90.820236" style="fill: #1f77b4; stroke: #1f77b4; stroke-linejoin: miter"/>
     <use xlink:href="#medf073f812" x="237.338604" y="90.041633" style="fill: #1f77b4; stroke: #1f77b4; stroke-linejoin: miter"/>
     <use xlink:href="#medf073f812" x="244.922428" y="89.571012" style="fill: #1f77b4; stroke: #1f77b4; stroke-linejoin: miter"/>
     <use xlink:href="#medf073f812" x="252.506251" y="89.073552" style="fill: #1f77b4; stroke: #1f77b4; stroke-linejoin: miter"/>
     <use xlink:href="#medf073f812" x="260.090075" y="88.670124" style="fill: #1f77b4; stroke: #1f77b4; stroke-linejoin: miter"/>
     <use xlink:href="#medf073f812" x="267.673898" y="95.834304" style="fill: #1f77b4; stroke: #1f77b4; stroke-linejoin: miter"/>
     <use xlink:href="#medf073f812" x="275.257722" y="95.554264" style="fill: #1f77b4; stroke: #1f77b4; stroke-linejoin: miter"/>
     <use xlink:href="#medf073f812" x="282.841545" y="95.25448" style="fill: #1f77b4; stroke: #1f77b4; stroke-linejoin: miter"/>
     <use xlink:href="#medf073f812" x="290.425368" y="94.986121" style="fill: #1f77b4; stroke: #1f77b4; stroke-linejoin: miter"/>
     <use xlink:href="#medf073f812" x="298.009192" y="94.805088" style="fill: #1f77b4; stroke: #1f77b4; stroke-linejoin: miter"/>
     <use xlink:href="#medf073f812" x="305.593015" y="94.530042" style="fill: #1f77b4; stroke: #1f77b4; stroke-linejoin: miter"/>
     <use xlink:href="#medf073f812" x="313.176839" y="94.741202" style="fill: #1f77b4; stroke: #1f77b4; stroke-linejoin: miter"/>
     <use xlink:href="#medf073f812" x="320.760662" y="94.95943" style="fill: #1f77b4; stroke: #1f77b4; stroke-linejoin: miter"/>
     <use xlink:href="#medf073f812" x="328.344486" y="95.145615" style="fill: #1f77b4; stroke: #1f77b4; stroke-linejoin: miter"/>
     <use xlink:href="#medf073f812" x="335.928309" y="95.26412" style="fill: #1f77b4; stroke: #1f77b4; stroke-linejoin: miter"/>
    </g>
   </g>
   <g id="line2d_36">
    <path d="M 70.494489 107.974359 
L 70.570327 30.670303 
L 70.722004 100.491813 
L 70.797842 102.16525 
L 71.177033 96.945094 
L 71.404548 96.658239 
L 71.783739 96.833182 
L 72.61796 97.176382 
L 73.376342 97.339598 
L 73.528018 97.151987 
L 73.983048 97.69047 
L 74.058886 98.070323 
L 74.134724 97.939596 
L 74.362239 97.542424 
L 74.665592 97.48381 
L 77.395768 97.886192 
L 77.623283 98.104217 
L 78.078312 97.9142 
L 78.229989 97.443199 
L 78.533342 97.999099 
L 78.912533 98.107839 
L 79.367562 98.036094 
L 79.519239 97.954043 
L 79.974268 98.257165 
L 80.125945 98.664935 
L 80.505136 98.194635 
L 81.263518 98.186839 
L 81.491033 97.838297 
L 81.870224 98.191411 
L 82.401092 98.6341 
L 82.552768 98.86979 
L 83.235312 98.324743 
L 83.462827 97.996096 
L 83.690342 98.271713 
L 84.372886 98.931428 
L 85.131268 98.262867 
L 85.434621 98.561651 
L 85.965489 98.97569 
L 86.723871 98.510555 
L 87.558092 98.993118 
L 88.164798 98.687426 
L 88.619827 99.017011 
L 88.92318 99.116889 
L 89.757401 98.931319 
L 90.364106 99.202606 
L 91.122489 99.049437 
L 91.805033 99.292943 
L 92.563415 99.203804 
L 93.245959 99.387492 
L 93.928503 99.325062 
L 94.686886 99.486016 
L 95.36943 99.467911 
L 96.051974 99.597777 
L 96.810356 99.604916 
L 97.4929 99.701798 
L 98.251283 99.73634 
L 98.933827 99.808471 
L 99.692209 99.862649 
L 100.450592 99.914721 
L 101.208974 99.997614 
L 102.801577 100.129229 
L 108.413606 100.555168 
L 108.489444 128.649651 
L 108.641121 22.536944 
L 108.944474 87.605042 
L 109.171989 97.735573 
L 109.399503 99.029351 
L 109.55118 98.86587 
L 110.3854 97.386055 
L 110.764591 97.081567 
L 110.916268 97.280976 
L 111.371297 96.847024 
L 112.205518 96.656246 
L 112.736386 96.574945 
L 112.888062 95.848991 
L 113.267253 96.512975 
L 113.722283 96.622011 
L 114.404827 96.636538 
L 114.556503 96.474308 
L 114.935694 96.778703 
L 115.99743 97.032176 
L 116.224944 97.159721 
L 116.376621 97.336546 
L 116.83165 97.176394 
L 117.362518 97.228849 
L 117.514194 97.815318 
L 117.590033 97.654345 
L 117.817547 97.254943 
L 118.272577 97.237041 
L 118.57593 97.368165 
L 118.803444 97.343461 
L 119.41015 96.991247 
L 119.561827 96.41415 
L 119.713503 96.717972 
L 120.016856 97.204073 
L 120.396047 97.432523 
L 120.775238 97.42263 
L 121.002753 97.850991 
L 121.381944 97.40307 
L 121.912812 97.321482 
L 122.140327 96.917757 
L 123.202062 97.881249 
L 123.960444 97.044017 
L 124.187959 97.289913 
L 124.794665 97.970333 
L 125.022179 97.760597 
L 125.628885 97.260489 
L 126.463106 97.912708 
L 127.14565 97.419321 
L 127.600679 97.838927 
L 127.828194 97.985756 
L 128.055709 97.870941 
L 128.586577 97.545784 
L 128.965768 97.827126 
L 129.269121 98.018666 
L 129.572474 97.882062 
L 130.027503 97.666848 
L 130.406694 97.910884 
L 130.710047 98.061639 
L 131.0134 97.940727 
L 131.468429 97.781176 
L 132.378488 98.035105 
L 132.833518 97.8752 
L 133.212709 98.04674 
L 133.5919 98.158878 
L 134.501959 98.062659 
L 135.032826 98.209646 
L 135.791209 98.099912 
L 136.473753 98.261871 
L 137.156297 98.175244 
L 137.914679 98.316083 
L 138.597223 98.269925 
L 139.279768 98.385672 
L 140.03815 98.36101 
L 140.720694 98.444033 
L 141.403238 98.430152 
L 142.16162 98.504412 
L 142.844165 98.51493 
L 143.602547 98.566929 
L 144.285091 98.596375 
L 145.043473 98.631485 
L 145.801856 98.68676 
L 146.332723 98.706633 
L 146.4844 119.809138 
L 146.863591 96.913534 
L 147.091106 94.853474 
L 147.31862 94.525922 
L 147.77365 94.465762 
L 148.60787 94.383963 
L 148.683709 94.176797 
L 148.835385 94.925177 
L 149.290414 94.411056 
L 150.048797 94.418892 
L 151.868914 94.528509 
L 152.020591 94.688763 
L 152.096429 94.547789 
L 152.248106 93.910551 
L 152.703135 94.435454 
L 153.385679 94.36782 
L 153.613194 94.246516 
L 153.76487 94.132448 
L 153.916547 94.580588 
L 153.992385 94.782576 
L 154.068223 94.724751 
L 154.371576 94.306388 
L 154.674929 94.256852 
L 155.05412 94.333666 
L 155.281635 93.81729 
L 155.736664 94.177131 
L 155.964179 94.099416 
L 156.115856 94.263943 
L 156.34337 94.569181 
L 156.722561 94.301404 
L 156.950076 94.162584 
L 157.253429 93.782158 
L 157.860135 94.230273 
L 158.08765 94.451553 
L 158.391003 94.219836 
L 158.997708 93.773877 
L 159.756091 94.274482 
L 160.514473 93.746087 
L 161.197017 94.172738 
L 162.031238 93.746942 
L 162.637944 94.05494 
L 163.548003 93.750474 
L 164.003032 93.956481 
L 164.382223 93.768611 
L 164.761414 93.626751 
L 165.671473 93.765852 
L 166.202341 93.588966 
L 167.036561 93.7032 
L 167.643267 93.547414 
L 168.401649 93.635689 
L 169.084194 93.502185 
L 169.766738 93.566084 
L 170.52512 93.45321 
L 171.207664 93.479746 
L 171.966047 93.400537 
L 172.648591 93.398016 
L 173.331135 93.336009 
L 174.089517 93.320683 
L 174.847899 93.285351 
L 175.606282 93.235544 
L 176.440502 93.227964 
L 179.625708 93.067933 
L 181.597502 92.971943 
L 184.25184 92.85695 
L 184.327679 161.170389 
L 184.479355 42.577819 
L 184.858546 92.751811 
L 185.086061 97.137494 
L 185.237738 97.485996 
L 185.389414 97.326415 
L 186.299473 95.870746 
L 186.678664 95.589968 
L 186.906179 95.704869 
L 187.28537 95.351254 
L 188.11959 95.119897 
L 188.498782 95.039325 
L 188.650458 94.293474 
L 188.726296 94.399862 
L 189.029649 94.916793 
L 189.40884 94.997363 
L 190.394737 94.983108 
L 190.546414 94.791286 
L 191.001443 95.078712 
L 192.290693 95.423944 
L 192.44237 95.443029 
L 192.821561 95.284766 
L 193.124914 95.299773 
L 193.27659 95.949914 
L 193.352429 95.834429 
L 193.73162 95.089978 
L 194.793355 95.280413 
L 195.172546 94.974199 
L 195.324223 94.42692 
L 195.627576 94.833027 
L 196.006767 95.119869 
L 196.613473 95.524639 
L 196.765149 95.70996 
L 197.14434 95.08846 
L 197.523531 95.072237 
L 197.675208 94.961314 
L 197.902723 94.702137 
L 198.281914 95.047683 
L 198.585267 95.16031 
L 198.88862 95.489671 
L 199.72284 94.670456 
L 200.17787 95.071569 
L 200.632899 95.405413 
L 201.391281 94.731903 
L 202.149664 95.350509 
L 202.983884 94.826438 
L 203.59059 95.290283 
L 203.893943 95.066848 
L 204.348973 94.791599 
L 204.804002 95.135756 
L 205.031517 95.224832 
L 205.33487 95.040327 
L 205.714061 94.803764 
L 206.017414 94.941889 
L 206.472443 95.166287 
L 206.851634 94.947553 
L 207.154987 94.817965 
L 207.45834 94.946806 
L 207.91337 95.112843 
L 208.823428 94.910717 
L 209.278458 95.076363 
L 209.733487 94.885958 
L 210.03684 94.836969 
L 210.946899 94.957397 
L 211.401928 94.831632 
L 212.463664 94.888304 
L 212.918693 94.848263 
L 213.601237 94.951204 
L 214.359619 94.850113 
L 215.042164 94.913897 
L 215.724708 94.833285 
L 216.48309 94.879692 
L 217.165634 94.82996 
L 217.848178 94.863545 
L 218.606561 94.824011 
L 219.289105 94.834391 
L 220.047487 94.815384 
L 220.730031 94.80799 
L 221.488413 94.804228 
L 222.170958 94.784235 
L 222.246796 113.994108 
L 222.398472 63.639338 
L 222.701825 91.815754 
L 222.92934 95.947572 
L 223.156855 96.456584 
L 223.460208 96.315398 
L 224.21859 95.930307 
L 224.976972 95.730577 
L 225.128649 95.541245 
L 225.356163 95.659052 
L 225.432002 95.079833 
L 225.50784 95.093943 
L 225.811193 95.605461 
L 226.190384 95.645189 
L 228.768884 95.481014 
L 228.996399 95.663313 
L 229.223913 95.500705 
L 229.299752 95.607593 
L 229.451428 96.040961 
L 229.754781 95.539954 
L 230.133972 95.492318 
L 230.66484 95.503926 
L 230.816516 95.348082 
L 231.119869 95.467924 
L 231.271546 95.025309 
L 231.347384 95.079011 
L 231.650737 95.50736 
L 232.257443 95.6737 
L 232.409119 95.665024 
L 232.636634 96.019173 
L 233.167502 95.408448 
L 233.470855 95.402805 
L 233.698369 95.160138 
L 234.153399 95.672026 
L 234.380913 95.737297 
L 234.608428 95.914563 
L 235.063457 95.501844 
L 235.518487 95.370337 
L 235.897678 95.656002 
L 236.276869 95.796249 
L 236.959413 95.387598 
L 237.414443 95.649523 
L 237.793634 95.757889 
L 238.552016 95.480878 
L 239.23456 95.742174 
L 240.068781 95.549766 
L 240.675487 95.725235 
L 241.509707 95.586374 
L 242.116413 95.711169 
L 242.874796 95.597921 
L 243.55734 95.700628 
L 244.239884 95.613492 
L 244.998266 95.69402 
L 245.68081 95.64328 
L 246.439193 95.691507 
L 247.121737 95.669108 
L 247.880119 95.692922 
L 248.562663 95.691149 
L 249.321045 95.697808 
L 250.079428 95.71823 
L 250.989487 95.695273 
L 260.090075 95.792205 
L 260.165913 41.26355 
L 260.317589 145.989916 
L 260.696781 97.693638 
L 260.924295 93.896321 
L 261.075972 93.673527 
L 261.303486 94.01316 
L 261.910192 94.993482 
L 262.289384 95.333052 
L 262.516898 95.240047 
L 262.896089 95.610494 
L 263.654472 95.823764 
L 264.185339 95.923799 
L 264.261178 96.06742 
L 264.337016 96.650795 
L 264.412854 96.565459 
L 264.716207 96.046133 
L 265.095398 95.96988 
L 265.777942 95.985151 
L 265.929619 96.200543 
L 266.384648 95.923801 
L 267.59806 95.696072 
L 267.749736 95.579397 
L 268.204766 95.770836 
L 268.735633 95.76452 
L 268.88731 95.24145 
L 269.190663 95.749511 
L 269.645692 95.79845 
L 270.252398 95.789335 
L 270.707428 96.015058 
L 270.934942 96.606379 
L 271.314133 95.927665 
L 271.693325 95.733913 
L 272.072516 95.783033 
L 272.30003 95.371997 
L 272.375869 95.475737 
L 272.679222 95.830477 
L 273.210089 95.947505 
L 273.437604 96.327106 
L 274.423501 95.434578 
L 275.257722 96.319568 
L 275.788589 95.777932 
L 276.091942 95.519927 
L 276.926163 96.198597 
L 277.608707 95.608025 
L 277.91206 95.850823 
L 278.367089 96.176402 
L 278.74628 95.887006 
L 279.125472 95.692631 
L 279.580501 96.039647 
L 279.808016 96.137843 
L 280.111369 95.966087 
L 280.566398 95.74805 
L 281.021427 96.038326 
L 281.32478 96.08971 
L 282.083163 95.826158 
L 282.765707 96.065204 
L 283.448251 95.843763 
L 284.206633 96.04451 
L 284.889177 95.8853 
L 285.571721 96.049681 
L 286.330104 95.92285 
L 287.012648 96.036758 
L 287.695192 95.93655 
L 288.453574 96.027392 
L 289.136118 95.966607 
L 289.818663 96.037067 
L 290.577045 95.993081 
L 291.259589 96.033675 
L 291.942133 96.002589 
L 292.700515 96.033321 
L 293.38306 96.023793 
L 294.141442 96.035881 
L 294.899824 96.051543 
L 295.658207 96.034447 
L 297.25081 96.040995 
L 298.009192 96.081903 
L 298.08503 105.981596 
L 298.160868 19.917349 
L 298.236707 25.065545 
L 298.54006 89.19832 
L 298.767574 97.958407 
L 298.919251 98.838785 
L 299.070927 98.797764 
L 300.056824 97.37869 
L 300.360177 97.225113 
L 300.436015 97.412761 
L 300.511854 97.369357 
L 300.891045 97.049243 
L 301.649427 96.924446 
L 302.104457 96.886558 
L 302.256133 96.186951 
L 302.331971 96.322507 
L 302.635324 96.827675 
L 303.090354 96.935672 
L 303.924574 96.95737 
L 304.076251 96.824211 
L 304.455442 97.091722 
L 306.048045 97.45383 
L 306.427236 97.409151 
L 306.654751 97.478466 
L 306.806427 98.071524 
L 307.261456 97.346583 
L 308.171515 97.637498 
L 308.626545 97.425765 
L 308.854059 96.901006 
L 309.309089 97.491746 
L 310.067471 97.986142 
L 310.219148 98.179099 
L 310.598339 97.640126 
L 311.129206 97.540059 
L 311.280883 97.318179 
L 312.342618 98.130323 
L 313.101 97.497284 
L 313.328515 97.671939 
L 314.011059 98.238336 
L 314.769442 97.700249 
L 315.603662 98.259378 
L 316.286206 97.880642 
L 317.044589 98.339775 
L 317.727133 98.027741 
L 318.561353 98.371108 
L 319.092221 98.150392 
L 319.471412 98.36278 
L 319.850603 98.491827 
L 320.684824 98.348946 
L 321.29153 98.560923 
L 322.049912 98.447847 
L 322.732456 98.633716 
L 323.415 98.550103 
L 324.173383 98.710254 
L 324.855927 98.672881 
L 325.538471 98.801871 
L 326.296853 98.7903 
L 326.979397 98.884311 
L 327.661941 98.884222 
L 328.420324 98.969514 
L 329.102868 98.993341 
L 329.86125 99.057245 
L 330.619633 99.112373 
L 331.378015 99.144643 
L 332.43975 99.242605 
L 334.487383 99.347158 
L 335.928309 99.444125 
L 335.928309 99.444125 
" clip-path="url(#pf91827b248)" style="fill: none; stroke: #ff7f0e; stroke-width: 1.5; stroke-linecap: square"/>
    <defs>
     <path id="m48e55abb2e" d="M -0 2.5 
L 2.5 -2.5 
L -2.5 -2.5 
z
" style="stroke: #ff7f0e; stroke-linejoin: miter"/>
    </defs>
    <g clip-path="url(#pf91827b248)">
     <use xlink:href="#m48e55abb2e" x="70.494489" y="107.974359" style="fill: #ff7f0e; stroke: #ff7f0e; stroke-linejoin: miter"/>
     <use xlink:href="#m48e55abb2e" x="78.078312" y="97.9142" style="fill: #ff7f0e; stroke: #ff7f0e; stroke-linejoin: miter"/>
     <use xlink:href="#m48e55abb2e" x="85.662136" y="98.789795" style="fill: #ff7f0e; stroke: #ff7f0e; stroke-linejoin: miter"/>
     <use xlink:href="#m48e55abb2e" x="93.245959" y="99.387492" style="fill: #ff7f0e; stroke: #ff7f0e; stroke-linejoin: miter"/>
     <use xlink:href="#m48e55abb2e" x="100.829783" y="99.931809" style="fill: #ff7f0e; stroke: #ff7f0e; stroke-linejoin: miter"/>
     <use xlink:href="#m48e55abb2e" x="108.413606" y="100.555168" style="fill: #ff7f0e; stroke: #ff7f0e; stroke-linejoin: miter"/>
     <use xlink:href="#m48e55abb2e" x="115.99743" y="97.032176" style="fill: #ff7f0e; stroke: #ff7f0e; stroke-linejoin: miter"/>
     <use xlink:href="#m48e55abb2e" x="123.581253" y="97.49972" style="fill: #ff7f0e; stroke: #ff7f0e; stroke-linejoin: miter"/>
     <use xlink:href="#m48e55abb2e" x="131.165076" y="97.84747" style="fill: #ff7f0e; stroke: #ff7f0e; stroke-linejoin: miter"/>
     <use xlink:href="#m48e55abb2e" x="138.7489" y="98.317632" style="fill: #ff7f0e; stroke: #ff7f0e; stroke-linejoin: miter"/>
     <use xlink:href="#m48e55abb2e" x="146.332723" y="98.706633" style="fill: #ff7f0e; stroke: #ff7f0e; stroke-linejoin: miter"/>
     <use xlink:href="#m48e55abb2e" x="153.916547" y="94.580588" style="fill: #ff7f0e; stroke: #ff7f0e; stroke-linejoin: miter"/>
     <use xlink:href="#m48e55abb2e" x="161.50037" y="93.93536" style="fill: #ff7f0e; stroke: #ff7f0e; stroke-linejoin: miter"/>
     <use xlink:href="#m48e55abb2e" x="169.084194" y="93.502185" style="fill: #ff7f0e; stroke: #ff7f0e; stroke-linejoin: miter"/>
     <use xlink:href="#m48e55abb2e" x="176.668017" y="93.216457" style="fill: #ff7f0e; stroke: #ff7f0e; stroke-linejoin: miter"/>
     <use xlink:href="#m48e55abb2e" x="184.25184" y="92.85695" style="fill: #ff7f0e; stroke: #ff7f0e; stroke-linejoin: miter"/>
     <use xlink:href="#m48e55abb2e" x="191.835664" y="95.194082" style="fill: #ff7f0e; stroke: #ff7f0e; stroke-linejoin: miter"/>
     <use xlink:href="#m48e55abb2e" x="199.419487" y="95.048605" style="fill: #ff7f0e; stroke: #ff7f0e; stroke-linejoin: miter"/>
     <use xlink:href="#m48e55abb2e" x="207.003311" y="94.853157" style="fill: #ff7f0e; stroke: #ff7f0e; stroke-linejoin: miter"/>
     <use xlink:href="#m48e55abb2e" x="214.587134" y="94.910635" style="fill: #ff7f0e; stroke: #ff7f0e; stroke-linejoin: miter"/>
     <use xlink:href="#m48e55abb2e" x="222.170958" y="94.784235" style="fill: #ff7f0e; stroke: #ff7f0e; stroke-linejoin: miter"/>
     <use xlink:href="#m48e55abb2e" x="229.754781" y="95.539954" style="fill: #ff7f0e; stroke: #ff7f0e; stroke-linejoin: miter"/>
     <use xlink:href="#m48e55abb2e" x="237.338604" y="95.60506" style="fill: #ff7f0e; stroke: #ff7f0e; stroke-linejoin: miter"/>
     <use xlink:href="#m48e55abb2e" x="244.922428" y="95.707595" style="fill: #ff7f0e; stroke: #ff7f0e; stroke-linejoin: miter"/>
     <use xlink:href="#m48e55abb2e" x="252.506251" y="95.713434" style="fill: #ff7f0e; stroke: #ff7f0e; stroke-linejoin: miter"/>
     <use xlink:href="#m48e55abb2e" x="260.090075" y="95.792205" style="fill: #ff7f0e; stroke: #ff7f0e; stroke-linejoin: miter"/>
     <use xlink:href="#m48e55abb2e" x="267.673898" y="95.584293" style="fill: #ff7f0e; stroke: #ff7f0e; stroke-linejoin: miter"/>
     <use xlink:href="#m48e55abb2e" x="275.257722" y="96.319568" style="fill: #ff7f0e; stroke: #ff7f0e; stroke-linejoin: miter"/>
     <use xlink:href="#m48e55abb2e" x="282.841545" y="96.033429" style="fill: #ff7f0e; stroke: #ff7f0e; stroke-linejoin: miter"/>
     <use xlink:href="#m48e55abb2e" x="290.425368" y="95.96725" style="fill: #ff7f0e; stroke: #ff7f0e; stroke-linejoin: miter"/>
     <use xlink:href="#m48e55abb2e" x="298.009192" y="96.081903" style="fill: #ff7f0e; stroke: #ff7f0e; stroke-linejoin: miter"/>
     <use xlink:href="#m48e55abb2e" x="305.593015" y="97.305029" style="fill: #ff7f0e; stroke: #ff7f0e; stroke-linejoin: miter"/>
     <use xlink:href="#m48e55abb2e" x="313.176839" y="97.526277" style="fill: #ff7f0e; stroke: #ff7f0e; stroke-linejoin: miter"/>
     <use xlink:href="#m48e55abb2e" x="320.760662" y="98.390571" style="fill: #ff7f0e; stroke: #ff7f0e; stroke-linejoin: miter"/>
     <use xlink:href="#m48e55abb2e" x="328.344486" y="98.975894" style="fill: #ff7f0e; stroke: #ff7f0e; stroke-linejoin: miter"/>
     <use xlink:href="#m48e55abb2e" x="335.928309" y="99.444125" style="fill: #ff7f0e; stroke: #ff7f0e; stroke-linejoin: miter"/>
    </g>
   </g>
   <g id="line2d_37">
    <path d="M 70.494489 74.165283 
L 70.570327 64.056882 
L 70.722004 77.422911 
L 70.797842 78.210832 
L 70.87368 78.189527 
L 71.707901 75.688021 
L 72.390445 74.521684 
L 73.148827 73.695554 
L 73.90721 73.090524 
L 74.210563 73.182591 
L 74.893107 72.848747 
L 75.879004 72.634945 
L 77.168254 72.597893 
L 78.154151 72.54153 
L 78.381665 72.485418 
L 79.291724 72.567294 
L 79.89843 72.506639 
L 80.429298 72.705602 
L 81.491033 72.460754 
L 82.097739 72.43504 
L 82.401092 72.54844 
L 82.704445 72.723988 
L 83.235312 72.632369 
L 83.690342 72.395109 
L 84.145371 72.515464 
L 84.524562 72.677001 
L 84.979592 72.532588 
L 85.358783 72.403528 
L 85.813812 72.555759 
L 86.117165 72.627374 
L 86.572195 72.479354 
L 86.951386 72.418537 
L 87.937283 72.508945 
L 88.392312 72.418757 
L 89.454048 72.464077 
L 89.909077 72.427638 
L 90.743298 72.481612 
L 91.350003 72.425901 
L 92.184224 72.455806 
L 92.866768 72.433362 
L 93.549312 72.444671 
L 94.307695 72.426376 
L 95.066077 72.413077 
L 95.900298 72.428315 
L 97.872092 72.386294 
L 99.692209 72.366775 
L 102.194871 72.345893 
L 108.413606 72.304148 
L 108.489444 202.264334 
L 108.565283 170.645052 
L 108.716959 159.187302 
L 108.792797 159.455477 
L 109.323665 164.189147 
L 109.854533 166.679671 
L 110.309562 167.895637 
L 110.84043 168.700645 
L 111.219621 169.057374 
L 111.978003 169.427301 
L 112.736386 169.635952 
L 112.9639 169.549406 
L 114.480665 169.895055 
L 115.390724 170.068629 
L 117.514194 170.589086 
L 118.196738 170.661888 
L 119.485988 170.752078 
L 119.713503 170.70312 
L 121.002753 171.076177 
L 121.836974 171.172085 
L 122.822871 171.202024 
L 123.581253 171.418982 
L 124.642988 171.495756 
L 125.098018 171.619191 
L 126.387268 171.768443 
L 126.918135 171.79568 
L 127.449003 171.815142 
L 128.4349 171.971516 
L 129.041606 172.036543 
L 129.799988 172.148962 
L 130.482532 172.213463 
L 131.240915 172.313963 
L 131.999297 172.40427 
L 132.757679 172.474902 
L 133.5919 172.59788 
L 136.625429 172.918602 
L 139.203929 173.179728 
L 146.332723 173.838786 
L 146.408562 112.358318 
L 146.4844 116.683438 
L 146.560238 117.655914 
L 146.636076 117.61912 
L 147.015267 116.572814 
L 147.546135 115.98287 
L 148.456194 115.35135 
L 148.759547 115.278608 
L 148.911223 115.339224 
L 149.745444 115.056737 
L 150.655503 115.031668 
L 151.793076 115.230173 
L 152.096429 115.354417 
L 152.323944 115.15252 
L 153.537356 115.421435 
L 153.840709 115.415643 
L 154.144061 115.681957 
L 154.902444 115.766312 
L 155.129958 115.745975 
L 155.357473 115.598312 
L 156.115856 115.738716 
L 156.495047 115.996147 
L 157.025914 116.023503 
L 157.405106 115.876601 
L 157.860135 116.003018 
L 158.315164 116.264126 
L 158.694356 116.213601 
L 159.073547 116.107993 
L 159.452738 116.254785 
L 159.907767 116.460772 
L 160.362797 116.349977 
L 160.741988 116.369145 
L 161.576208 116.621014 
L 162.182914 116.57405 
L 163.092973 116.780343 
L 163.623841 116.775244 
L 164.458061 116.962015 
L 165.064767 116.970523 
L 165.898988 117.126334 
L 166.505694 117.159168 
L 167.339914 117.288522 
L 168.022458 117.361162 
L 168.705002 117.450903 
L 169.463385 117.533616 
L 170.221767 117.607575 
L 171.055988 117.727125 
L 173.179458 117.923271 
L 184.25184 118.989646 
L 184.327679 174.184453 
L 184.479355 136.867667 
L 184.555193 134.766656 
L 184.631032 134.806217 
L 185.389414 140.104498 
L 185.920282 142.030953 
L 186.451149 143.105789 
L 187.057855 143.814289 
L 187.816237 144.228734 
L 188.57462 144.419816 
L 188.726296 144.343695 
L 190.394737 144.7222 
L 190.925605 144.776989 
L 195.096708 145.341563 
L 195.930929 145.253604 
L 196.613473 145.424938 
L 196.916826 145.534822 
L 198.661105 145.55303 
L 199.040296 145.677896 
L 199.647002 145.61258 
L 200.102031 145.61257 
L 201.239605 145.741652 
L 201.694634 145.744712 
L 202.680531 145.871471 
L 203.211399 145.867855 
L 204.121458 145.979038 
L 204.652325 145.975636 
L 205.562384 146.076785 
L 206.16909 146.09725 
L 206.927473 146.17684 
L 207.685855 146.215948 
L 208.368399 146.265319 
L 209.126781 146.313861 
L 209.885164 146.348819 
L 210.719384 146.428893 
L 212.918693 146.527173 
L 222.095119 147.048031 
L 222.170958 147.050514 
L 222.322634 79.325222 
L 222.474311 74.78332 
L 223.460208 78.404825 
L 224.142752 79.546207 
L 224.901134 80.355286 
L 225.356163 80.654871 
L 225.50784 80.540224 
L 226.417899 81.014178 
L 227.327958 81.158184 
L 228.465531 81.099272 
L 229.299752 81.040902 
L 229.527266 81.187503 
L 230.589002 80.977376 
L 231.195707 80.810964 
L 231.423222 80.685458 
L 233.319178 80.765773 
L 233.622531 80.591242 
L 233.925884 80.542036 
L 235.139296 80.611665 
L 235.746002 80.439674 
L 236.807737 80.435612 
L 237.262766 80.335293 
L 238.324501 80.307039 
L 238.779531 80.240177 
L 239.68959 80.222891 
L 240.296296 80.150671 
L 241.054678 80.130124 
L 241.737222 80.056709 
L 242.495604 80.019963 
L 243.253987 79.967251 
L 244.088207 79.89054 
L 245.908325 79.777621 
L 247.728443 79.679142 
L 256.753192 79.137302 
L 260.090075 78.968282 
L 260.165913 39.262268 
L 260.317589 72.733706 
L 260.393428 74.278416 
L 260.469266 73.957455 
L 261.000134 69.675755 
L 261.531001 67.406699 
L 262.061869 66.067774 
L 262.668575 65.140475 
L 263.351119 64.599223 
L 264.185339 64.211843 
L 264.792045 64.158516 
L 265.853781 63.925063 
L 266.384648 63.859715 
L 268.659795 63.648505 
L 268.811472 63.577699 
L 269.038986 63.507109 
L 269.949045 63.492911 
L 270.707428 63.490303 
L 271.162457 63.640233 
L 273.285927 63.424134 
L 273.58928 63.503556 
L 274.271825 63.368558 
L 274.651016 63.282301 
L 275.181883 63.396763 
L 275.561075 63.42115 
L 276.850325 63.348257 
L 277.305354 63.316718 
L 277.987898 63.203355 
L 278.822119 63.24694 
L 279.428824 63.159933 
L 280.338883 63.175003 
L 280.945589 63.128293 
L 281.703971 63.138248 
L 282.386516 63.089201 
L 283.144898 63.084962 
L 283.90328 63.057929 
L 284.661663 63.023217 
L 285.495883 63.024962 
L 287.543516 62.933641 
L 289.591148 62.894229 
L 292.473001 62.815764 
L 298.009192 62.671917 
L 298.08503 146.329729 
L 298.160868 118.975622 
L 298.312545 110.300752 
L 299.070927 116.779063 
L 299.601795 118.703834 
L 300.132662 119.840074 
L 300.739368 120.64344 
L 301.497751 121.167559 
L 302.180295 121.395985 
L 302.331971 121.33664 
L 303.469545 121.67565 
L 304.910471 121.835647 
L 306.730589 122.055437 
L 306.958104 122.117592 
L 307.716486 122.057619 
L 308.778221 121.961706 
L 309.157412 121.940088 
L 310.067471 122.100285 
L 310.294986 122.203303 
L 312.190942 122.178444 
L 312.570133 122.228315 
L 313.101 122.111207 
L 313.55603 122.110257 
L 314.541927 122.203681 
L 314.996956 122.145825 
L 316.210368 122.197097 
L 316.741236 122.244541 
L 317.272103 122.304205 
L 318.182162 122.280612 
L 318.788868 122.318544 
L 319.54725 122.303833 
L 320.305633 122.332739 
L 321.064015 122.353028 
L 321.822397 122.351684 
L 322.732456 122.403387 
L 335.928309 122.618771 
L 335.928309 122.618771 
" clip-path="url(#pf91827b248)" style="fill: none; stroke: #1f77b4; stroke-width: 2; stroke-linecap: square"/>
   </g>
   <g id="line2d_38">
    <path d="M 70.494489 192.615896 
L 70.570327 115.31184 
L 70.722004 185.133349 
L 70.797842 186.806786 
L 71.177033 181.586631 
L 71.404548 181.299776 
L 71.783739 181.474719 
L 72.61796 181.817919 
L 73.376342 181.981135 
L 73.528018 181.793524 
L 73.983048 182.332007 
L 74.058886 182.71186 
L 74.134724 182.581132 
L 74.362239 182.183961 
L 74.665592 182.125347 
L 77.395768 182.527729 
L 77.623283 182.745754 
L 78.078312 182.555737 
L 78.229989 182.084735 
L 78.533342 182.640636 
L 78.912533 182.749376 
L 79.367562 182.677631 
L 79.519239 182.595579 
L 79.974268 182.898702 
L 80.125945 183.306471 
L 80.505136 182.836171 
L 81.263518 182.828376 
L 81.491033 182.479833 
L 81.870224 182.832948 
L 82.401092 183.275636 
L 82.552768 183.511327 
L 83.235312 182.96628 
L 83.462827 182.637633 
L 83.690342 182.91325 
L 84.372886 183.572964 
L 85.131268 182.904404 
L 85.434621 183.203188 
L 85.965489 183.617227 
L 86.723871 183.152092 
L 87.558092 183.634654 
L 88.164798 183.328962 
L 88.619827 183.658548 
L 88.92318 183.758426 
L 89.757401 183.572855 
L 90.364106 183.844142 
L 91.122489 183.690974 
L 91.805033 183.93448 
L 92.563415 183.845341 
L 93.245959 184.029029 
L 93.928503 183.966598 
L 94.686886 184.127553 
L 95.36943 184.109448 
L 96.051974 184.239313 
L 96.810356 184.246453 
L 97.4929 184.343334 
L 98.251283 184.377876 
L 98.933827 184.450007 
L 99.692209 184.504186 
L 100.450592 184.556258 
L 101.208974 184.639151 
L 102.801577 184.770765 
L 108.413606 185.196705 
L 108.489444 182.332246 
L 108.641121 76.219539 
L 108.944474 141.287637 
L 109.171989 151.418169 
L 109.399503 152.711947 
L 109.55118 152.548465 
L 110.3854 151.068651 
L 110.764591 150.764162 
L 110.916268 150.963571 
L 111.371297 150.529619 
L 112.205518 150.338842 
L 112.736386 150.257541 
L 112.888062 149.531586 
L 113.267253 150.195571 
L 113.722283 150.304607 
L 114.404827 150.319134 
L 114.556503 150.156904 
L 114.935694 150.461298 
L 115.99743 150.714772 
L 116.224944 150.842317 
L 116.376621 151.019141 
L 116.83165 150.858989 
L 117.362518 150.911444 
L 117.514194 151.497914 
L 117.590033 151.33694 
L 117.817547 150.937538 
L 118.272577 150.919636 
L 118.57593 151.050761 
L 118.803444 151.026056 
L 119.41015 150.673842 
L 119.561827 150.096745 
L 119.713503 150.400567 
L 120.016856 150.886668 
L 120.396047 151.115118 
L 120.775238 151.105225 
L 121.002753 151.533586 
L 121.381944 151.085665 
L 121.912812 151.004078 
L 122.140327 150.600353 
L 123.202062 151.563844 
L 123.960444 150.726612 
L 124.187959 150.972508 
L 124.794665 151.652928 
L 125.022179 151.443192 
L 125.628885 150.943084 
L 126.463106 151.595303 
L 127.14565 151.101916 
L 127.600679 151.521522 
L 127.828194 151.668351 
L 128.055709 151.553537 
L 128.586577 151.228379 
L 128.965768 151.509721 
L 129.269121 151.701261 
L 129.572474 151.564657 
L 130.027503 151.349444 
L 130.406694 151.593479 
L 130.710047 151.744234 
L 131.0134 151.623322 
L 131.468429 151.463771 
L 132.378488 151.717701 
L 132.833518 151.557796 
L 133.212709 151.729335 
L 133.5919 151.841473 
L 134.501959 151.745254 
L 135.032826 151.892241 
L 135.791209 151.782507 
L 136.473753 151.944466 
L 137.156297 151.857839 
L 137.914679 151.998679 
L 138.597223 151.95252 
L 139.279768 152.068267 
L 140.03815 152.043605 
L 140.720694 152.126629 
L 141.403238 152.112747 
L 142.16162 152.187008 
L 142.844165 152.197526 
L 143.602547 152.249525 
L 144.285091 152.278971 
L 145.043473 152.314081 
L 145.801856 152.369356 
L 146.332723 152.389228 
L 146.408562 67.497933 
L 146.4844 74.489187 
L 146.863591 51.593583 
L 147.091106 49.533523 
L 147.31862 49.205971 
L 147.77365 49.145811 
L 148.60787 49.064011 
L 148.683709 48.856845 
L 148.835385 49.605226 
L 149.290414 49.091105 
L 150.048797 49.098941 
L 151.868914 49.208558 
L 152.020591 49.368812 
L 152.096429 49.227838 
L 152.248106 48.5906 
L 152.703135 49.115503 
L 153.385679 49.047869 
L 153.613194 48.926565 
L 153.76487 48.812497 
L 153.916547 49.260637 
L 153.992385 49.462625 
L 154.068223 49.4048 
L 154.371576 48.986437 
L 154.674929 48.936901 
L 155.05412 49.013715 
L 155.281635 48.497339 
L 155.736664 48.85718 
L 155.964179 48.779465 
L 156.115856 48.943991 
L 156.34337 49.24923 
L 156.722561 48.981453 
L 156.950076 48.842633 
L 157.253429 48.462207 
L 157.860135 48.910322 
L 158.08765 49.131602 
L 158.391003 48.899885 
L 158.997708 48.453926 
L 159.756091 48.954531 
L 160.514473 48.426136 
L 161.197017 48.852787 
L 162.031238 48.426991 
L 162.637944 48.734989 
L 163.548003 48.430523 
L 164.003032 48.63653 
L 164.382223 48.44866 
L 164.761414 48.3068 
L 165.671473 48.445901 
L 166.202341 48.269015 
L 167.036561 48.383249 
L 167.643267 48.227463 
L 168.401649 48.315738 
L 169.084194 48.182234 
L 169.766738 48.246133 
L 170.52512 48.133259 
L 171.207664 48.159795 
L 171.966047 48.080585 
L 172.648591 48.078065 
L 173.331135 48.016058 
L 174.089517 48.000732 
L 174.847899 47.9654 
L 175.606282 47.915593 
L 176.440502 47.908013 
L 179.625708 47.747982 
L 181.597502 47.651992 
L 184.25184 47.536999 
L 184.327679 146.105109 
L 184.479355 27.512539 
L 184.858546 77.686531 
L 185.086061 82.072214 
L 185.237738 82.420715 
L 185.389414 82.261135 
L 186.299473 80.805466 
L 186.678664 80.524688 
L 186.906179 80.639589 
L 187.28537 80.285974 
L 188.11959 80.054617 
L 188.498782 79.974045 
L 188.650458 79.228194 
L 188.726296 79.334582 
L 189.029649 79.851513 
L 189.40884 79.932083 
L 190.394737 79.917828 
L 190.546414 79.726006 
L 191.001443 80.013432 
L 192.290693 80.358664 
L 192.44237 80.377749 
L 192.821561 80.219486 
L 193.124914 80.234493 
L 193.27659 80.884634 
L 193.352429 80.769149 
L 193.73162 80.024697 
L 194.793355 80.215133 
L 195.172546 79.908919 
L 195.324223 79.36164 
L 195.627576 79.767747 
L 196.006767 80.054589 
L 196.613473 80.459359 
L 196.765149 80.64468 
L 197.14434 80.02318 
L 197.523531 80.006956 
L 197.675208 79.896034 
L 197.902723 79.636857 
L 198.281914 79.982403 
L 198.585267 80.095029 
L 198.88862 80.424391 
L 199.72284 79.605176 
L 200.17787 80.006289 
L 200.632899 80.340133 
L 201.391281 79.666622 
L 202.149664 80.285229 
L 202.983884 79.761158 
L 203.59059 80.225003 
L 203.893943 80.001568 
L 204.348973 79.726319 
L 204.804002 80.070476 
L 205.031517 80.159552 
L 205.33487 79.975047 
L 205.714061 79.738484 
L 206.017414 79.876609 
L 206.472443 80.101007 
L 206.851634 79.882273 
L 207.154987 79.752685 
L 207.45834 79.881526 
L 207.91337 80.047563 
L 208.823428 79.845437 
L 209.278458 80.011082 
L 209.733487 79.820678 
L 210.03684 79.771689 
L 210.946899 79.892117 
L 211.401928 79.766352 
L 212.463664 79.823024 
L 212.918693 79.782983 
L 213.601237 79.885924 
L 214.359619 79.784833 
L 215.042164 79.848617 
L 215.724708 79.768005 
L 216.48309 79.814411 
L 217.165634 79.76468 
L 217.848178 79.798265 
L 218.606561 79.758731 
L 219.289105 79.769111 
L 220.047487 79.750104 
L 220.730031 79.742709 
L 221.488413 79.738948 
L 222.170958 79.718955 
L 222.246796 123.179446 
L 222.398472 72.824676 
L 222.701825 101.001092 
L 222.92934 105.13291 
L 223.156855 105.641922 
L 223.460208 105.500735 
L 224.21859 105.115645 
L 224.976972 104.915915 
L 225.128649 104.726583 
L 225.356163 104.84439 
L 225.432002 104.265171 
L 225.50784 104.279281 
L 225.811193 104.790799 
L 226.190384 104.830527 
L 228.768884 104.666352 
L 228.996399 104.848651 
L 229.223913 104.686043 
L 229.299752 104.792931 
L 229.451428 105.226299 
L 229.754781 104.725292 
L 230.133972 104.677656 
L 230.66484 104.689264 
L 230.816516 104.53342 
L 231.119869 104.653262 
L 231.271546 104.210647 
L 231.347384 104.264348 
L 231.650737 104.692698 
L 232.257443 104.859038 
L 232.409119 104.850362 
L 232.636634 105.204511 
L 233.167502 104.593786 
L 233.470855 104.588143 
L 233.698369 104.345476 
L 234.153399 104.857364 
L 234.380913 104.922635 
L 234.608428 105.099901 
L 235.063457 104.687182 
L 235.518487 104.555675 
L 235.897678 104.84134 
L 236.276869 104.981587 
L 236.959413 104.572936 
L 237.414443 104.834861 
L 237.793634 104.943227 
L 238.552016 104.666215 
L 239.23456 104.927512 
L 240.068781 104.735104 
L 240.675487 104.910573 
L 241.509707 104.771712 
L 242.116413 104.896507 
L 242.874796 104.783259 
L 243.55734 104.885966 
L 244.239884 104.79883 
L 244.998266 104.879358 
L 245.68081 104.828617 
L 246.439193 104.876845 
L 247.121737 104.854445 
L 247.880119 104.87826 
L 248.562663 104.876487 
L 249.321045 104.883146 
L 250.079428 104.903568 
L 250.989487 104.880611 
L 260.090075 104.977543 
L 260.165913 51.770546 
L 260.317589 156.496913 
L 260.696781 108.200634 
L 260.924295 104.403318 
L 261.075972 104.180523 
L 261.303486 104.520157 
L 261.910192 105.500479 
L 262.289384 105.840048 
L 262.516898 105.747043 
L 262.896089 106.11749 
L 263.654472 106.33076 
L 264.185339 106.430795 
L 264.261178 106.574416 
L 264.337016 107.157791 
L 264.412854 107.072455 
L 264.716207 106.553129 
L 265.095398 106.476876 
L 265.777942 106.492147 
L 265.929619 106.707539 
L 266.384648 106.430797 
L 267.59806 106.203068 
L 267.749736 106.086393 
L 268.204766 106.277832 
L 268.735633 106.271516 
L 268.88731 105.748446 
L 269.190663 106.256507 
L 269.645692 106.305446 
L 270.252398 106.296331 
L 270.707428 106.522054 
L 270.934942 107.113375 
L 271.314133 106.434661 
L 271.693325 106.240909 
L 272.072516 106.290029 
L 272.30003 105.878993 
L 272.375869 105.982733 
L 272.679222 106.337473 
L 273.210089 106.454501 
L 273.437604 106.834102 
L 274.423501 105.941574 
L 275.257722 106.826564 
L 275.788589 106.284929 
L 276.091942 106.026923 
L 276.926163 106.705593 
L 277.608707 106.115021 
L 277.91206 106.357819 
L 278.367089 106.683398 
L 278.74628 106.394002 
L 279.125472 106.199627 
L 279.580501 106.546643 
L 279.808016 106.644839 
L 280.111369 106.473083 
L 280.566398 106.255046 
L 281.021427 106.545322 
L 281.32478 106.596707 
L 282.083163 106.333154 
L 282.765707 106.5722 
L 283.448251 106.350759 
L 284.206633 106.551506 
L 284.889177 106.392296 
L 285.571721 106.556677 
L 286.330104 106.429846 
L 287.012648 106.543755 
L 287.695192 106.443546 
L 288.453574 106.534388 
L 289.136118 106.473603 
L 289.818663 106.544063 
L 290.577045 106.500077 
L 291.259589 106.540671 
L 291.942133 106.509585 
L 292.700515 106.540317 
L 293.38306 106.530789 
L 294.141442 106.542878 
L 294.899824 106.55854 
L 295.658207 106.541444 
L 297.25081 106.547991 
L 298.009192 106.588899 
L 298.08503 175.237264 
L 298.160868 89.173017 
L 298.236707 94.321213 
L 298.54006 158.453988 
L 298.767574 167.214075 
L 298.919251 168.094453 
L 299.070927 168.053432 
L 300.056824 166.634358 
L 300.360177 166.48078 
L 300.436015 166.668429 
L 300.511854 166.625024 
L 300.891045 166.30491 
L 301.649427 166.180113 
L 302.104457 166.142226 
L 302.256133 165.442619 
L 302.331971 165.578174 
L 302.635324 166.083343 
L 303.090354 166.191339 
L 303.924574 166.213038 
L 304.076251 166.079878 
L 304.455442 166.34739 
L 306.048045 166.709497 
L 306.427236 166.664819 
L 306.654751 166.734133 
L 306.806427 167.327191 
L 307.261456 166.602251 
L 308.171515 166.893165 
L 308.626545 166.681432 
L 308.854059 166.156673 
L 309.309089 166.747413 
L 310.067471 167.24181 
L 310.219148 167.434766 
L 310.598339 166.895793 
L 311.129206 166.795726 
L 311.280883 166.573847 
L 312.342618 167.385991 
L 313.101 166.752952 
L 313.328515 166.927606 
L 314.011059 167.494003 
L 314.769442 166.955916 
L 315.603662 167.515046 
L 316.286206 167.13631 
L 317.044589 167.595443 
L 317.727133 167.283408 
L 318.561353 167.626775 
L 319.092221 167.406059 
L 319.471412 167.618447 
L 319.850603 167.747495 
L 320.684824 167.604613 
L 321.29153 167.81659 
L 322.049912 167.703514 
L 322.732456 167.889383 
L 323.415 167.80577 
L 324.173383 167.965921 
L 324.855927 167.928548 
L 325.538471 168.057538 
L 326.296853 168.045968 
L 326.979397 168.139978 
L 327.661941 168.139889 
L 328.420324 168.225181 
L 329.102868 168.249008 
L 329.86125 168.312913 
L 330.619633 168.36804 
L 331.378015 168.40031 
L 332.43975 168.498273 
L 334.487383 168.602825 
L 335.928309 168.699792 
L 335.928309 168.699792 
" clip-path="url(#pf91827b248)" style="fill: none; stroke: #ff7f0e; stroke-width: 2; stroke-linecap: square"/>
   </g>
   <g id="patch_3">
    <path d="M 57.222798 211.381683 
L 57.222798 10.8 
" style="fill: none; stroke: #000000; stroke-width: 0.8; stroke-linejoin: miter; stroke-linecap: square"/>
   </g>
   <g id="patch_4">
    <path d="M 349.2 211.381683 
L 349.2 10.8 
" style="fill: none; stroke: #000000; stroke-width: 0.8; stroke-linejoin: miter; stroke-linecap: square"/>
   </g>
   <g id="patch_5">
    <path d="M 57.222798 211.381683 
L 349.2 211.381683 
" style="fill: none; stroke: #000000; stroke-width: 0.8; stroke-linejoin: miter; stroke-linecap: square"/>
   </g>
   <g id="patch_6">
    <path d="M 57.222798 10.8 
L 349.2 10.8 
" style="fill: none; stroke: #000000; stroke-width: 0.8; stroke-linejoin: miter; stroke-linecap: square"/>
   </g>
   <g id="legend_1">
    <g id="patch_7">
     <path d="M 178.430059 206.381683 
L 227.992739 206.381683 
Q 229.992739 206.381683 229.992739 204.381683 
L 229.992739 118.105747 
Q 229.992739 116.105747 227.992739 116.105747 
L 178.430059 116.105747 
Q 176.430059 116.105747 176.430059 118.105747 
L 176.430059 204.381683 
Q 176.430059 206.381683 178.430059 206.381683 
z
" style="fill: #ffffff; opacity: 0.8; stroke: #cccccc; stroke-linejoin: miter"/>
    </g>
    <g id="line2d_39">
     <path d="M 180.430059 123.605747 
L 190.430059 123.605747 
L 200.430059 123.605747 
" style="fill: none; stroke: #1f77b4; stroke-width: 1.5; stroke-linecap: square"/>
     <g>
      <use xlink:href="#m1a4271c57b" x="190.430059" y="123.605747" style="fill: #1f77b4; stroke: #1f77b4"/>
     </g>
    </g>
    <g id="text_19">
     <!-- $\tau_\mathrm{ff,1}$ -->
     <g transform="translate(208.430059 127.105747) scale(0.1 -0.1)">
      <defs>
       <path id="CMMI12-1c" d="M 1837 2408 
L 2899 2408 
C 2982 2408 3194 2408 3194 2612 
C 3194 2752 3072 2752 2957 2752 
L 1197 2752 
C 1050 2752 832 2752 538 2440 
C 371 2255 166 1917 166 1879 
C 166 1841 198 1828 237 1828 
C 282 1828 288 1847 320 1885 
C 653 2408 986 2408 1146 2408 
L 1677 2408 
L 1011 223 
C 979 127 979 114 979 95 
C 979 25 1024 -64 1152 -64 
C 1350 -64 1382 108 1402 203 
L 1837 2408 
z
" transform="scale(0.015625)"/>
       <path id="CMR17-b" d="M 2554 2560 
L 3283 2560 
L 3283 2725 
L 2541 2725 
L 2541 3494 
C 2541 4022 2810 4352 3085 4352 
C 3168 4352 3264 4327 3328 4282 
C 3277 4269 3142 4225 3142 4067 
C 3142 3901 3270 3850 3360 3850 
C 3450 3850 3578 3901 3578 4067 
C 3578 4308 3347 4454 3091 4454 
C 2842 4454 2637 4333 2477 4181 
C 2330 4390 2086 4454 1837 4454 
C 1338 4454 634 4168 634 3469 
L 634 2725 
L 122 2725 
L 122 2560 
L 634 2560 
L 634 427 
C 634 184 608 153 198 153 
L 198 -13 
C 352 0 634 0 794 0 
C 960 0 1242 0 1395 -13 
L 1395 153 
C 986 153 960 178 960 427 
L 960 2560 
L 2227 2560 
L 2227 427 
C 2227 184 2202 153 1792 153 
L 1792 -13 
C 1946 0 2240 0 2406 0 
C 2592 0 2918 0 3091 -13 
L 3091 153 
C 2630 153 2554 153 2554 439 
L 2554 2560 
z
M 947 2725 
L 947 3469 
C 947 4047 1395 4352 1824 4352 
C 1920 4352 2170 4332 2323 4187 
C 2208 4187 2099 4136 2099 3977 
C 2099 3812 2246 3767 2259 3767 
C 2227 3652 2227 3526 2227 3481 
L 2227 2725 
L 947 2725 
z
" transform="scale(0.015625)"/>
       <path id="CMMI12-3b" d="M 1248 -31 
C 1248 343 1126 619 864 619 
C 659 619 557 453 557 313 
C 557 172 653 0 870 0 
C 954 0 1024 26 1082 83 
C 1094 96 1101 96 1107 96 
C 1120 96 1120 5 1120 -27 
C 1120 -240 1082 -659 710 -1080 
C 640 -1157 640 -1170 640 -1183 
C 640 -1216 672 -1248 704 -1248 
C 755 -1248 1248 -771 1248 -31 
z
" transform="scale(0.015625)"/>
      </defs>
      <use xlink:href="#CMMI12-1c" transform="scale(0.996264)"/>
      <use xlink:href="#CMR17-b" transform="translate(42.363841 -14.943915) scale(0.697382)"/>
      <use xlink:href="#CMMI12-3b" transform="translate(83.138776 -14.943915) scale(0.697382)"/>
      <use xlink:href="#CMR17-31" transform="translate(102.106709 -14.943915) scale(0.697382)"/>
     </g>
    </g>
    <g id="line2d_40">
     <path d="M 180.430059 138.456142 
L 190.430059 138.456142 
L 200.430059 138.456142 
" style="fill: none; stroke: #ff7f0e; stroke-width: 1.5; stroke-linecap: square"/>
     <g>
      <use xlink:href="#m09453f2ee3" x="190.430059" y="138.456142" style="fill: #ff7f0e; stroke: #ff7f0e"/>
     </g>
    </g>
    <g id="text_20">
     <!-- $\tau_\mathrm{ff,2}$ -->
     <g transform="translate(208.430059 141.956142) scale(0.1 -0.1)">
      <use xlink:href="#CMMI12-1c" transform="scale(0.996264)"/>
      <use xlink:href="#CMR17-b" transform="translate(42.363841 -14.943915) scale(0.697382)"/>
      <use xlink:href="#CMMI12-3b" transform="translate(83.138776 -14.943915) scale(0.697382)"/>
      <use xlink:href="#CMR17-32" transform="translate(102.106709 -14.943915) scale(0.697382)"/>
     </g>
    </g>
    <g id="line2d_41">
     <path d="M 180.430059 153.306537 
L 190.430059 153.306537 
L 200.430059 153.306537 
" style="fill: none; stroke: #1f77b4; stroke-width: 1.5; stroke-linecap: square"/>
     <g>
      <use xlink:href="#medf073f812" x="190.430059" y="153.306537" style="fill: #1f77b4; stroke: #1f77b4; stroke-linejoin: miter"/>
     </g>
    </g>
    <g id="text_21">
     <!-- $\tau_{\mathrm{fb},1}$ -->
     <g transform="translate(208.430059 156.806537) scale(0.1 -0.1)">
      <defs>
       <path id="CMR17-62" d="M 960 4396 
L 198 4326 
L 198 4160 
C 576 4160 634 4122 634 3817 
L 634 -13 
L 749 -13 
L 934 441 
C 1120 141 1395 -64 1766 -64 
C 2406 -64 3053 500 3053 1370 
C 3053 2188 2477 2790 1830 2790 
C 1434 2790 1152 2579 960 2330 
L 960 4396 
z
M 973 2004 
C 973 2118 973 2138 1062 2272 
C 1312 2657 1670 2688 1792 2688 
C 1984 2688 2643 2585 2643 1376 
C 2643 108 1888 38 1734 38 
C 1536 38 1248 114 1043 486 
C 973 608 973 621 973 735 
L 973 2004 
z
" transform="scale(0.015625)"/>
      </defs>
      <use xlink:href="#CMMI12-1c" transform="scale(0.996264)"/>
      <use xlink:href="#CMR17-66" transform="translate(42.363841 -14.943915) scale(0.697382)"/>
      <use xlink:href="#CMR17-62" transform="translate(61.595205 -14.943915) scale(0.697382)"/>
      <use xlink:href="#CMMI12-3b" transform="translate(97.221813 -14.943915) scale(0.697382)"/>
      <use xlink:href="#CMR17-31" transform="translate(116.189746 -14.943915) scale(0.697382)"/>
     </g>
    </g>
    <g id="line2d_42">
     <path d="M 180.430059 168.156932 
L 190.430059 168.156932 
L 200.430059 168.156932 
" style="fill: none; stroke: #ff7f0e; stroke-width: 1.5; stroke-linecap: square"/>
     <g>
      <use xlink:href="#m48e55abb2e" x="190.430059" y="168.156932" style="fill: #ff7f0e; stroke: #ff7f0e; stroke-linejoin: miter"/>
     </g>
    </g>
    <g id="text_22">
     <!-- $\tau_{\mathrm{fb},2}$ -->
     <g transform="translate(208.430059 171.656932) scale(0.1 -0.1)">
      <use xlink:href="#CMMI12-1c" transform="scale(0.996264)"/>
      <use xlink:href="#CMR17-66" transform="translate(42.363841 -14.943915) scale(0.697382)"/>
      <use xlink:href="#CMR17-62" transform="translate(61.595205 -14.943915) scale(0.697382)"/>
      <use xlink:href="#CMMI12-3b" transform="translate(97.221813 -14.943915) scale(0.697382)"/>
      <use xlink:href="#CMR17-32" transform="translate(116.189746 -14.943915) scale(0.697382)"/>
     </g>
    </g>
    <g id="line2d_43">
     <path d="M 180.430059 183.007327 
L 190.430059 183.007327 
L 200.430059 183.007327 
" style="fill: none; stroke: #1f77b4; stroke-width: 2; stroke-linecap: square"/>
    </g>
    <g id="text_23">
     <!-- $\tau_1$ -->
     <g transform="translate(208.430059 186.507327) scale(0.1 -0.1)">
      <use xlink:href="#CMMI12-1c" transform="scale(0.996264)"/>
      <use xlink:href="#CMR17-31" transform="translate(42.363841 -14.943915) scale(0.697382)"/>
     </g>
    </g>
    <g id="line2d_44">
     <path d="M 180.430059 196.944505 
L 190.430059 196.944505 
L 200.430059 196.944505 
" style="fill: none; stroke: #ff7f0e; stroke-width: 2; stroke-linecap: square"/>
    </g>
    <g id="text_24">
     <!-- $\tau_2$ -->
     <g transform="translate(208.430059 200.444505) scale(0.1 -0.1)">
      <use xlink:href="#CMMI12-1c" transform="scale(0.996264)"/>
      <use xlink:href="#CMR17-32" transform="translate(42.363841 -14.943915) scale(0.697382)"/>
     </g>
    </g>
   </g>
  </g>
 </g>
 <defs>
  <clipPath id="pf91827b248">
   <rect x="57.222798" y="10.8" width="291.977202" height="200.581683"/>
  </clipPath>
 </defs>
</svg>
