<?xml version="1.0" encoding="utf-8" standalone="no"?>
<!DOCTYPE svg PUBLIC "-//W3C//DTD SVG 1.1//EN"
  "http://www.w3.org/Graphics/SVG/1.1/DTD/svg11.dtd">
<svg xmlns:xlink="http://www.w3.org/1999/xlink" width="360pt" height="216pt" viewBox="0 0 360 216" xmlns="http://www.w3.org/2000/svg" version="1.1">
 <metadata>
  <rdf:RDF xmlns:dc="http://purl.org/dc/elements/1.1/" xmlns:cc="http://creativecommons.org/ns#" xmlns:rdf="http://www.w3.org/1999/02/22-rdf-syntax-ns#">
   <cc:Work>
    <dc:type rdf:resource="http://purl.org/dc/dcmitype/StillImage"/>
    <dc:date>2024-10-24T18:03:54.285950</dc:date>
    <dc:format>image/svg+xml</dc:format>
    <dc:creator>
     <cc:Agent>
      <dc:title>Matplotlib v3.9.2, https://matplotlib.org/</dc:title>
     </cc:Agent>
    </dc:creator>
   </cc:Work>
  </rdf:RDF>
 </metadata>
 <defs>
  <style type="text/css">*{stroke-linejoin: round; stroke-linecap: butt}</style>
 </defs>
 <g id="figure_1">
  <g id="patch_1">
   <path d="M 0 216 
L 360 216 
L 360 0 
L 0 0 
z
" style="fill: #ffffff"/>
  </g>
  <g id="axes_1">
   <g id="patch_2">
    <path d="M 51.134499 175.381683 
L 349.2 175.381683 
L 349.2 10.8 
L 51.134499 10.8 
z
" style="fill: #ffffff"/>
   </g>
   <g id="matplotlib.axis_1">
    <g id="xtick_1">
     <g id="line2d_1">
      <path d="M 64.682931 175.381683 
L 64.682931 10.8 
" clip-path="url(#p002e9868ee)" style="fill: none; stroke: #b0b0b0; stroke-width: 0.8; stroke-linecap: square"/>
     </g>
     <g id="line2d_2">
      <defs>
       <path id="ma95bea21a0" d="M 0 0 
L 0 3.5 
" style="stroke: #000000; stroke-width: 0.8"/>
      </defs>
      <g>
       <use xlink:href="#ma95bea21a0" x="64.682931" y="175.381683" style="stroke: #000000; stroke-width: 0.8"/>
      </g>
     </g>
     <g id="text_1">
      <!-- $\mathdefault{0}$ -->
      <g transform="translate(62.192264 189.300182) scale(0.1 -0.1)">
       <defs>
        <path id="CMR17-30" d="M 2688 2025 
C 2688 2416 2682 3080 2413 3591 
C 2176 4039 1798 4198 1466 4198 
C 1158 4198 768 4058 525 3597 
C 269 3118 243 2524 243 2025 
C 243 1661 250 1106 448 619 
C 723 -39 1216 -128 1466 -128 
C 1760 -128 2208 -7 2470 600 
C 2662 1042 2688 1559 2688 2025 
z
M 1466 -26 
C 1056 -26 813 325 723 812 
C 653 1188 653 1738 653 2096 
C 653 2588 653 2997 736 3387 
C 858 3929 1216 4096 1466 4096 
C 1728 4096 2067 3923 2189 3400 
C 2272 3036 2278 2607 2278 2096 
C 2278 1680 2278 1169 2202 792 
C 2067 95 1690 -26 1466 -26 
z
" transform="scale(0.015625)"/>
       </defs>
       <use xlink:href="#CMR17-30" transform="scale(0.996264)"/>
      </g>
     </g>
    </g>
    <g id="xtick_2">
     <g id="line2d_3">
      <path d="M 103.392737 175.381683 
L 103.392737 10.8 
" clip-path="url(#p002e9868ee)" style="fill: none; stroke: #b0b0b0; stroke-width: 0.8; stroke-linecap: square"/>
     </g>
     <g id="line2d_4">
      <g>
       <use xlink:href="#ma95bea21a0" x="103.392737" y="175.381683" style="stroke: #000000; stroke-width: 0.8"/>
      </g>
     </g>
     <g id="text_2">
      <!-- $\mathdefault{5}$ -->
      <g transform="translate(100.902069 189.300182) scale(0.1 -0.1)">
       <defs>
        <path id="CMR17-35" d="M 730 3692 
C 794 3666 1056 3584 1325 3584 
C 1920 3584 2246 3911 2432 4100 
C 2432 4157 2432 4192 2394 4192 
C 2387 4192 2374 4192 2323 4163 
C 2099 4058 1837 3973 1517 3973 
C 1325 3973 1037 3999 723 4139 
C 653 4171 640 4171 634 4171 
C 602 4171 595 4164 595 4037 
L 595 2203 
C 595 2089 595 2057 659 2057 
C 691 2057 704 2070 736 2114 
C 941 2401 1222 2522 1542 2522 
C 1766 2522 2246 2382 2246 1289 
C 2246 1085 2246 715 2054 421 
C 1894 159 1645 25 1370 25 
C 947 25 518 320 403 814 
C 429 807 480 795 506 795 
C 589 795 749 840 749 1038 
C 749 1210 627 1280 506 1280 
C 358 1280 262 1190 262 1011 
C 262 454 704 -128 1382 -128 
C 2042 -128 2669 440 2669 1264 
C 2669 2030 2170 2624 1549 2624 
C 1222 2624 947 2503 730 2274 
L 730 3692 
z
" transform="scale(0.015625)"/>
       </defs>
       <use xlink:href="#CMR17-35" transform="scale(0.996264)"/>
      </g>
     </g>
    </g>
    <g id="xtick_3">
     <g id="line2d_5">
      <path d="M 142.102542 175.381683 
L 142.102542 10.8 
" clip-path="url(#p002e9868ee)" style="fill: none; stroke: #b0b0b0; stroke-width: 0.8; stroke-linecap: square"/>
     </g>
     <g id="line2d_6">
      <g>
       <use xlink:href="#ma95bea21a0" x="142.102542" y="175.381683" style="stroke: #000000; stroke-width: 0.8"/>
      </g>
     </g>
     <g id="text_3">
      <!-- $\mathdefault{10}$ -->
      <g transform="translate(137.121207 189.300182) scale(0.1 -0.1)">
       <defs>
        <path id="CMR17-31" d="M 1702 4058 
C 1702 4192 1696 4192 1606 4192 
C 1357 3916 979 3827 621 3827 
C 602 3827 570 3827 563 3808 
C 557 3795 557 3782 557 3648 
C 755 3648 1088 3686 1344 3839 
L 1344 461 
C 1344 236 1331 160 781 160 
L 589 160 
L 589 0 
C 896 0 1216 0 1523 0 
C 1830 0 2150 0 2458 0 
L 2458 160 
L 2266 160 
C 1715 160 1702 230 1702 458 
L 1702 4058 
z
" transform="scale(0.015625)"/>
       </defs>
       <use xlink:href="#CMR17-31" transform="scale(0.996264)"/>
       <use xlink:href="#CMR17-30" transform="translate(45.690477 0) scale(0.996264)"/>
      </g>
     </g>
    </g>
    <g id="xtick_4">
     <g id="line2d_7">
      <path d="M 180.812347 175.381683 
L 180.812347 10.8 
" clip-path="url(#p002e9868ee)" style="fill: none; stroke: #b0b0b0; stroke-width: 0.8; stroke-linecap: square"/>
     </g>
     <g id="line2d_8">
      <g>
       <use xlink:href="#ma95bea21a0" x="180.812347" y="175.381683" style="stroke: #000000; stroke-width: 0.8"/>
      </g>
     </g>
     <g id="text_4">
      <!-- $\mathdefault{15}$ -->
      <g transform="translate(175.831012 189.300182) scale(0.1 -0.1)">
       <use xlink:href="#CMR17-31" transform="scale(0.996264)"/>
       <use xlink:href="#CMR17-35" transform="translate(45.690477 0) scale(0.996264)"/>
      </g>
     </g>
    </g>
    <g id="xtick_5">
     <g id="line2d_9">
      <path d="M 219.522152 175.381683 
L 219.522152 10.8 
" clip-path="url(#p002e9868ee)" style="fill: none; stroke: #b0b0b0; stroke-width: 0.8; stroke-linecap: square"/>
     </g>
     <g id="line2d_10">
      <g>
       <use xlink:href="#ma95bea21a0" x="219.522152" y="175.381683" style="stroke: #000000; stroke-width: 0.8"/>
      </g>
     </g>
     <g id="text_5">
      <!-- $\mathdefault{20}$ -->
      <g transform="translate(214.540817 189.300182) scale(0.1 -0.1)">
       <defs>
        <path id="CMR17-32" d="M 2669 989 
L 2554 989 
C 2490 536 2438 459 2413 420 
C 2381 369 1920 369 1830 369 
L 602 369 
C 832 619 1280 1072 1824 1597 
C 2214 1967 2669 2402 2669 3035 
C 2669 3790 2067 4224 1395 4224 
C 691 4224 262 3604 262 3030 
C 262 2780 448 2748 525 2748 
C 589 2748 781 2787 781 3010 
C 781 3207 614 3264 525 3264 
C 486 3264 448 3258 422 3245 
C 544 3790 915 4058 1306 4058 
C 1862 4058 2227 3617 2227 3035 
C 2227 2479 1901 2000 1536 1584 
L 262 146 
L 262 0 
L 2515 0 
L 2669 989 
z
" transform="scale(0.015625)"/>
       </defs>
       <use xlink:href="#CMR17-32" transform="scale(0.996264)"/>
       <use xlink:href="#CMR17-30" transform="translate(45.690477 0) scale(0.996264)"/>
      </g>
     </g>
    </g>
    <g id="xtick_6">
     <g id="line2d_11">
      <path d="M 258.231958 175.381683 
L 258.231958 10.8 
" clip-path="url(#p002e9868ee)" style="fill: none; stroke: #b0b0b0; stroke-width: 0.8; stroke-linecap: square"/>
     </g>
     <g id="line2d_12">
      <g>
       <use xlink:href="#ma95bea21a0" x="258.231958" y="175.381683" style="stroke: #000000; stroke-width: 0.8"/>
      </g>
     </g>
     <g id="text_6">
      <!-- $\mathdefault{25}$ -->
      <g transform="translate(253.250622 189.300182) scale(0.1 -0.1)">
       <use xlink:href="#CMR17-32" transform="scale(0.996264)"/>
       <use xlink:href="#CMR17-35" transform="translate(45.690477 0) scale(0.996264)"/>
      </g>
     </g>
    </g>
    <g id="xtick_7">
     <g id="line2d_13">
      <path d="M 296.941763 175.381683 
L 296.941763 10.8 
" clip-path="url(#p002e9868ee)" style="fill: none; stroke: #b0b0b0; stroke-width: 0.8; stroke-linecap: square"/>
     </g>
     <g id="line2d_14">
      <g>
       <use xlink:href="#ma95bea21a0" x="296.941763" y="175.381683" style="stroke: #000000; stroke-width: 0.8"/>
      </g>
     </g>
     <g id="text_7">
      <!-- $\mathdefault{30}$ -->
      <g transform="translate(291.960428 189.300182) scale(0.1 -0.1)">
       <defs>
        <path id="CMR17-33" d="M 1414 2157 
C 1984 2157 2234 1662 2234 1090 
C 2234 320 1824 25 1453 25 
C 1114 25 563 194 390 693 
C 422 680 454 680 486 680 
C 640 680 755 782 755 948 
C 755 1133 614 1216 486 1216 
C 378 1216 211 1165 211 926 
C 211 335 787 -128 1466 -128 
C 2176 -128 2720 430 2720 1085 
C 2720 1707 2208 2157 1600 2227 
C 2086 2328 2554 2756 2554 3329 
C 2554 3820 2048 4179 1472 4179 
C 890 4179 378 3829 378 3329 
C 378 3110 544 3072 627 3072 
C 762 3072 877 3155 877 3321 
C 877 3486 762 3569 627 3569 
C 602 3569 570 3569 544 3557 
C 730 3959 1235 4032 1459 4032 
C 1683 4032 2106 3925 2106 3320 
C 2106 3143 2080 2828 1862 2550 
C 1670 2304 1453 2304 1242 2284 
C 1210 2284 1062 2269 1037 2269 
C 992 2263 966 2257 966 2208 
C 966 2163 973 2157 1101 2157 
L 1414 2157 
z
" transform="scale(0.015625)"/>
       </defs>
       <use xlink:href="#CMR17-33" transform="scale(0.996264)"/>
       <use xlink:href="#CMR17-30" transform="translate(45.690477 0) scale(0.996264)"/>
      </g>
     </g>
    </g>
    <g id="xtick_8">
     <g id="line2d_15">
      <path d="M 335.651568 175.381683 
L 335.651568 10.8 
" clip-path="url(#p002e9868ee)" style="fill: none; stroke: #b0b0b0; stroke-width: 0.8; stroke-linecap: square"/>
     </g>
     <g id="line2d_16">
      <g>
       <use xlink:href="#ma95bea21a0" x="335.651568" y="175.381683" style="stroke: #000000; stroke-width: 0.8"/>
      </g>
     </g>
     <g id="text_8">
      <!-- $\mathdefault{35}$ -->
      <g transform="translate(330.670233 189.300182) scale(0.1 -0.1)">
       <use xlink:href="#CMR17-33" transform="scale(0.996264)"/>
       <use xlink:href="#CMR17-35" transform="translate(45.690477 0) scale(0.996264)"/>
      </g>
     </g>
    </g>
    <g id="text_9">
     <!-- Time $t$ [s] -->
     <g transform="translate(178.968942 202.70934) scale(0.1 -0.1)">
      <defs>
       <path id="CMR17-54" d="M 3981 4326 
L 288 4326 
L 179 2918 
L 294 2918 
C 378 3976 467 4160 1453 4160 
C 1568 4160 1754 4160 1805 4154 
C 1926 4135 1926 4058 1926 3912 
L 1926 459 
C 1926 230 1907 160 1376 160 
L 1197 160 
L 1197 0 
C 1504 0 1824 0 2138 0 
C 2451 0 2771 0 3078 0 
L 3078 160 
L 2899 160 
C 2368 160 2349 230 2349 459 
L 2349 3912 
C 2349 4052 2349 4129 2464 4154 
C 2515 4160 2701 4160 2816 4160 
C 3795 4160 3891 3976 3974 2918 
L 4090 2918 
L 3981 4326 
z
" transform="scale(0.015625)"/>
       <path id="CMR17-69" d="M 992 3909 
C 992 4049 877 4170 730 4170 
C 589 4170 467 4056 467 3909 
C 467 3769 582 3648 730 3648 
C 870 3648 992 3763 992 3909 
z
M 243 2706 
L 243 2541 
C 602 2541 653 2502 653 2197 
L 653 427 
C 653 184 627 153 218 153 
L 218 -13 
C 371 0 646 0 806 0 
C 960 0 1222 0 1370 -13 
L 1370 153 
C 992 153 979 191 979 420 
L 979 2776 
L 243 2706 
z
" transform="scale(0.015625)"/>
       <path id="CMR17-6d" d="M 4326 1933 
C 4326 2252 4269 2790 3507 2790 
C 3072 2790 2771 2496 2656 2151 
L 2650 2151 
C 2573 2676 2195 2790 1837 2790 
C 1331 2790 1069 2400 973 2144 
L 966 2144 
L 966 2790 
L 211 2720 
L 211 2554 
C 589 2554 646 2515 646 2208 
L 646 428 
C 646 184 621 153 211 153 
L 211 -13 
C 365 0 646 0 813 0 
C 979 0 1267 0 1421 -13 
L 1421 153 
C 1011 153 986 178 986 428 
L 986 1658 
C 986 2247 1344 2688 1792 2688 
C 2266 2688 2317 2266 2317 1958 
L 2317 428 
C 2317 184 2291 153 1882 153 
L 1882 -13 
C 2035 0 2317 0 2483 0 
C 2650 0 2938 0 3091 -13 
L 3091 153 
C 2682 153 2656 178 2656 428 
L 2656 1658 
C 2656 2247 3014 2688 3462 2688 
C 3936 2688 3987 2266 3987 1958 
L 3987 428 
C 3987 184 3962 153 3552 153 
L 3552 -13 
C 3706 0 3987 0 4154 0 
C 4320 0 4608 0 4762 -13 
L 4762 153 
C 4352 153 4326 178 4326 428 
L 4326 1933 
z
" transform="scale(0.015625)"/>
       <path id="CMR17-65" d="M 2438 1472 
C 2464 1498 2464 1511 2464 1576 
C 2464 2238 2118 2816 1389 2816 
C 710 2816 173 2169 173 1383 
C 173 551 781 -64 1459 -64 
C 2176 -64 2458 607 2458 740 
C 2458 784 2419 784 2406 784 
C 2362 784 2355 771 2330 696 
C 2189 265 1837 51 1504 51 
C 1229 51 954 203 781 480 
C 582 803 582 1176 582 1472 
L 2438 1472 
z
M 589 1568 
C 634 2505 1126 2714 1382 2714 
C 1818 2714 2112 2297 2118 1568 
L 589 1568 
z
" transform="scale(0.015625)"/>
       <path id="CMMI12-74" d="M 1286 2566 
L 1875 2566 
C 1997 2566 2061 2566 2061 2681 
C 2061 2752 2022 2752 1894 2752 
L 1331 2752 
L 1568 3692 
C 1594 3781 1594 3794 1594 3840 
C 1594 3943 1510 4000 1427 4000 
C 1376 4000 1229 3981 1178 3775 
L 928 2752 
L 326 2752 
C 198 2752 141 2752 141 2630 
C 141 2566 186 2566 307 2566 
L 877 2566 
L 454 881 
C 403 658 384 594 384 511 
C 384 211 595 -64 954 -64 
C 1600 -64 1946 868 1946 912 
C 1946 951 1920 970 1882 970 
C 1869 970 1843 970 1830 944 
C 1824 938 1818 931 1773 829 
C 1638 511 1344 64 973 64 
C 781 64 768 224 768 364 
C 768 370 768 492 787 568 
L 1286 2566 
z
" transform="scale(0.015625)"/>
       <path id="CMR17-5b" d="M 1504 -1600 
L 1504 -1377 
L 902 -1377 
L 902 4544 
L 1504 4544 
L 1504 4767 
L 678 4767 
L 678 -1600 
L 1504 -1600 
z
" transform="scale(0.015625)"/>
       <path id="CMR17-73" d="M 1978 2697 
C 1978 2813 1971 2819 1933 2819 
C 1907 2819 1901 2813 1824 2717 
C 1805 2691 1747 2626 1728 2601 
C 1523 2819 1235 2819 1126 2819 
C 416 2819 160 2447 160 2076 
C 160 1498 813 1365 998 1325 
C 1402 1243 1542 1217 1677 1101 
C 1760 1025 1901 884 1901 654 
C 1901 384 1747 38 1158 38 
C 602 38 403 460 288 1021 
C 269 1110 269 1117 218 1117 
C 166 1117 160 1110 160 983 
L 160 63 
C 160 -51 166 -58 205 -58 
C 237 -58 243 -51 275 0 
C 314 57 410 211 448 276 
C 576 103 800 -64 1158 -64 
C 1792 -64 2131 283 2131 784 
C 2131 1112 1958 1285 1875 1362 
C 1683 1561 1459 1606 1190 1657 
C 838 1735 390 1825 390 2217 
C 390 2383 480 2737 1126 2737 
C 1811 2737 1850 2094 1862 1888 
C 1869 1856 1901 1849 1920 1849 
C 1978 1849 1978 1869 1978 1978 
L 1978 2697 
z
" transform="scale(0.015625)"/>
       <path id="CMR17-5d" d="M 915 4767 
L 90 4767 
L 90 4544 
L 691 4544 
L 691 -1377 
L 90 -1377 
L 90 -1600 
L 915 -1600 
L 915 4767 
z
" transform="scale(0.015625)"/>
      </defs>
      <use xlink:href="#CMR17-54" transform="scale(0.996264)"/>
      <use xlink:href="#CMR17-69" transform="translate(66.509881 0) scale(0.996264)"/>
      <use xlink:href="#CMR17-6d" transform="translate(91.380939 0) scale(0.996264)"/>
      <use xlink:href="#CMR17-65" transform="translate(168.300529 0) scale(0.996264)"/>
      <use xlink:href="#CMMI12-74" transform="translate(238.862156 0) scale(0.996264)"/>
      <use xlink:href="#CMR17-5b" transform="translate(304.164452 0) scale(0.996264)"/>
      <use xlink:href="#CMR17-73" transform="translate(329.035511 0) scale(0.996264)"/>
      <use xlink:href="#CMR17-5d" transform="translate(364.836848 0) scale(0.996264)"/>
     </g>
    </g>
   </g>
   <g id="matplotlib.axis_2">
    <g id="ytick_1">
     <g id="line2d_17">
      <path d="M 51.134499 166.817723 
L 349.2 166.817723 
" clip-path="url(#p002e9868ee)" style="fill: none; stroke: #b0b0b0; stroke-width: 0.8; stroke-linecap: square"/>
     </g>
     <g id="line2d_18">
      <defs>
       <path id="m7afc97d35e" d="M 0 0 
L -3.5 0 
" style="stroke: #000000; stroke-width: 0.8"/>
      </defs>
      <g>
       <use xlink:href="#m7afc97d35e" x="51.134499" y="166.817723" style="stroke: #000000; stroke-width: 0.8"/>
      </g>
     </g>
     <g id="text_10">
      <!-- $\mathdefault{−1.5}$ -->
      <g transform="translate(23.655677 170.276973) scale(0.1 -0.1)">
       <defs>
        <path id="CMSY10-0" d="M 4218 1472 
C 4326 1472 4442 1472 4442 1600 
C 4442 1728 4326 1728 4218 1728 
L 755 1728 
C 646 1728 531 1728 531 1600 
C 531 1472 646 1472 755 1472 
L 4218 1472 
z
" transform="scale(0.015625)"/>
        <path id="CMMI12-3a" d="M 1178 307 
C 1178 492 1024 619 870 619 
C 685 619 557 466 557 313 
C 557 128 710 0 864 0 
C 1050 0 1178 153 1178 307 
z
" transform="scale(0.015625)"/>
       </defs>
       <use xlink:href="#CMSY10-0" transform="scale(0.996264)"/>
       <use xlink:href="#CMR17-31" transform="translate(77.487468 0) scale(0.996264)"/>
       <use xlink:href="#CMMI12-3a" transform="translate(123.177945 0) scale(0.996264)"/>
       <use xlink:href="#CMR17-35" transform="translate(150.275122 0) scale(0.996264)"/>
      </g>
     </g>
    </g>
    <g id="ytick_2">
     <g id="line2d_19">
      <path d="M 51.134499 139.81258 
L 349.2 139.81258 
" clip-path="url(#p002e9868ee)" style="fill: none; stroke: #b0b0b0; stroke-width: 0.8; stroke-linecap: square"/>
     </g>
     <g id="line2d_20">
      <g>
       <use xlink:href="#m7afc97d35e" x="51.134499" y="139.81258" style="stroke: #000000; stroke-width: 0.8"/>
      </g>
     </g>
     <g id="text_11">
      <!-- $\mathdefault{−1.0}$ -->
      <g transform="translate(23.655677 143.27183) scale(0.1 -0.1)">
       <use xlink:href="#CMSY10-0" transform="scale(0.996264)"/>
       <use xlink:href="#CMR17-31" transform="translate(77.487468 0) scale(0.996264)"/>
       <use xlink:href="#CMMI12-3a" transform="translate(123.177945 0) scale(0.996264)"/>
       <use xlink:href="#CMR17-30" transform="translate(150.275122 0) scale(0.996264)"/>
      </g>
     </g>
    </g>
    <g id="ytick_3">
     <g id="line2d_21">
      <path d="M 51.134499 112.807438 
L 349.2 112.807438 
" clip-path="url(#p002e9868ee)" style="fill: none; stroke: #b0b0b0; stroke-width: 0.8; stroke-linecap: square"/>
     </g>
     <g id="line2d_22">
      <g>
       <use xlink:href="#m7afc97d35e" x="51.134499" y="112.807438" style="stroke: #000000; stroke-width: 0.8"/>
      </g>
     </g>
     <g id="text_12">
      <!-- $\mathdefault{−0.5}$ -->
      <g transform="translate(23.655677 116.266687) scale(0.1 -0.1)">
       <use xlink:href="#CMSY10-0" transform="scale(0.996264)"/>
       <use xlink:href="#CMR17-30" transform="translate(77.487468 0) scale(0.996264)"/>
       <use xlink:href="#CMMI12-3a" transform="translate(123.177945 0) scale(0.996264)"/>
       <use xlink:href="#CMR17-35" transform="translate(150.275122 0) scale(0.996264)"/>
      </g>
     </g>
    </g>
    <g id="ytick_4">
     <g id="line2d_23">
      <path d="M 51.134499 85.802295 
L 349.2 85.802295 
" clip-path="url(#p002e9868ee)" style="fill: none; stroke: #b0b0b0; stroke-width: 0.8; stroke-linecap: square"/>
     </g>
     <g id="line2d_24">
      <g>
       <use xlink:href="#m7afc97d35e" x="51.134499" y="85.802295" style="stroke: #000000; stroke-width: 0.8"/>
      </g>
     </g>
     <g id="text_13">
      <!-- $\mathdefault{0.0}$ -->
      <g transform="translate(31.40442 89.261544) scale(0.1 -0.1)">
       <use xlink:href="#CMR17-30" transform="scale(0.996264)"/>
       <use xlink:href="#CMMI12-3a" transform="translate(45.690477 0) scale(0.996264)"/>
       <use xlink:href="#CMR17-30" transform="translate(72.787654 0) scale(0.996264)"/>
      </g>
     </g>
    </g>
    <g id="ytick_5">
     <g id="line2d_25">
      <path d="M 51.134499 58.797152 
L 349.2 58.797152 
" clip-path="url(#p002e9868ee)" style="fill: none; stroke: #b0b0b0; stroke-width: 0.8; stroke-linecap: square"/>
     </g>
     <g id="line2d_26">
      <g>
       <use xlink:href="#m7afc97d35e" x="51.134499" y="58.797152" style="stroke: #000000; stroke-width: 0.8"/>
      </g>
     </g>
     <g id="text_14">
      <!-- $\mathdefault{0.5}$ -->
      <g transform="translate(31.40442 62.256401) scale(0.1 -0.1)">
       <use xlink:href="#CMR17-30" transform="scale(0.996264)"/>
       <use xlink:href="#CMMI12-3a" transform="translate(45.690477 0) scale(0.996264)"/>
       <use xlink:href="#CMR17-35" transform="translate(72.787654 0) scale(0.996264)"/>
      </g>
     </g>
    </g>
    <g id="ytick_6">
     <g id="line2d_27">
      <path d="M 51.134499 31.792009 
L 349.2 31.792009 
" clip-path="url(#p002e9868ee)" style="fill: none; stroke: #b0b0b0; stroke-width: 0.8; stroke-linecap: square"/>
     </g>
     <g id="line2d_28">
      <g>
       <use xlink:href="#m7afc97d35e" x="51.134499" y="31.792009" style="stroke: #000000; stroke-width: 0.8"/>
      </g>
     </g>
     <g id="text_15">
      <!-- $\mathdefault{1.0}$ -->
      <g transform="translate(31.40442 35.251258) scale(0.1 -0.1)">
       <use xlink:href="#CMR17-31" transform="scale(0.996264)"/>
       <use xlink:href="#CMMI12-3a" transform="translate(45.690477 0) scale(0.996264)"/>
       <use xlink:href="#CMR17-30" transform="translate(72.787654 0) scale(0.996264)"/>
      </g>
     </g>
    </g>
    <g id="text_16">
     <!-- Control signal $\tau$ -->
     <g transform="translate(17.718498 127.550227) rotate(-90) scale(0.1 -0.1)">
      <defs>
       <path id="CMR17-43" d="M 3974 4289 
C 3974 4403 3968 4410 3930 4410 
C 3904 4410 3898 4403 3853 4327 
L 3571 3792 
C 3258 4187 2874 4416 2381 4416 
C 1286 4416 294 3456 294 2148 
C 294 826 1286 -128 2387 -128 
C 3366 -128 3974 730 3974 1461 
C 3974 1524 3974 1550 3917 1550 
C 3866 1550 3866 1531 3859 1474 
C 3808 585 3168 38 2477 38 
C 1824 38 781 495 781 2147 
C 781 3805 1843 4250 2464 4250 
C 3187 4250 3712 3628 3834 2745 
C 3846 2668 3846 2655 3904 2655 
C 3974 2655 3974 2668 3974 2783 
L 3974 4289 
z
" transform="scale(0.015625)"/>
       <path id="CMR17-6f" d="M 2758 1356 
C 2758 2176 2163 2816 1466 2816 
C 768 2816 173 2176 173 1356 
C 173 551 768 -64 1466 -64 
C 2163 -64 2758 551 2758 1356 
z
M 1466 51 
C 1165 51 909 230 762 480 
C 602 767 582 1126 582 1408 
C 582 1677 595 2010 762 2298 
C 890 2509 1139 2714 1466 2714 
C 1754 2714 1997 2554 2150 2330 
C 2349 2029 2349 1607 2349 1408 
C 2349 1158 2336 775 2163 467 
C 1984 173 1709 51 1466 51 
z
" transform="scale(0.015625)"/>
       <path id="CMR17-6e" d="M 2656 1933 
C 2656 2259 2592 2790 1837 2790 
C 1331 2790 1069 2400 973 2144 
L 966 2144 
L 966 2790 
L 211 2720 
L 211 2554 
C 589 2554 646 2515 646 2208 
L 646 428 
C 646 184 621 153 211 153 
L 211 -13 
C 365 0 646 0 813 0 
C 979 0 1267 0 1421 -13 
L 1421 153 
C 1011 153 986 178 986 428 
L 986 1658 
C 986 2247 1344 2688 1792 2688 
C 2266 2688 2317 2266 2317 1958 
L 2317 428 
C 2317 184 2291 153 1882 153 
L 1882 -13 
C 2035 0 2317 0 2483 0 
C 2650 0 2938 0 3091 -13 
L 3091 153 
C 2682 153 2656 178 2656 428 
L 2656 1933 
z
" transform="scale(0.015625)"/>
       <path id="CMR17-74" d="M 966 2560 
L 1862 2560 
L 1862 2725 
L 966 2725 
L 966 3904 
L 851 3904 
C 838 3245 614 2668 70 2668 
L 70 2560 
L 627 2560 
L 627 771 
C 627 650 627 -64 1370 -64 
C 1747 -64 1965 306 1965 777 
L 1965 1140 
L 1850 1140 
L 1850 783 
C 1850 344 1677 51 1408 51 
C 1222 51 966 178 966 758 
L 966 2560 
z
" transform="scale(0.015625)"/>
       <path id="CMR17-72" d="M 960 1497 
C 960 2112 1222 2688 1702 2688 
C 1747 2688 1792 2682 1837 2662 
C 1837 2662 1696 2617 1696 2452 
C 1696 2298 1818 2234 1914 2234 
C 1990 2234 2131 2279 2131 2458 
C 2131 2663 1926 2790 1709 2790 
C 1222 2790 1011 2317 947 2093 
L 941 2093 
L 941 2790 
L 198 2720 
L 198 2554 
C 576 2554 634 2515 634 2208 
L 634 428 
C 634 184 608 153 198 153 
L 198 -13 
C 352 0 646 0 813 0 
C 998 0 1325 0 1498 -13 
L 1498 153 
C 1037 153 960 153 960 440 
L 960 1497 
z
" transform="scale(0.015625)"/>
       <path id="CMR17-6c" d="M 979 4396 
L 218 4326 
L 218 4160 
C 595 4160 653 4122 653 3817 
L 653 426 
C 653 184 627 153 218 153 
L 218 -13 
C 371 0 653 0 813 0 
C 979 0 1261 0 1414 -13 
L 1414 153 
C 1005 153 979 178 979 426 
L 979 4396 
z
" transform="scale(0.015625)"/>
       <path id="CMR17-67" d="M 710 1164 
C 832 1068 1043 960 1299 960 
C 1805 960 2240 1357 2240 1888 
C 2240 2054 2189 2310 1997 2509 
C 2176 2692 2438 2752 2586 2752 
C 2611 2752 2650 2752 2682 2734 
C 2656 2728 2598 2703 2598 2605 
C 2598 2527 2656 2471 2739 2471 
C 2835 2471 2886 2533 2886 2614 
C 2886 2731 2790 2854 2586 2854 
C 2330 2854 2106 2738 1926 2580 
C 1734 2753 1504 2816 1299 2816 
C 794 2816 358 2419 358 1888 
C 358 1522 570 1292 634 1228 
C 442 1004 442 743 442 711 
C 442 545 506 302 723 168 
C 390 85 128 -169 128 -486 
C 128 -943 736 -1280 1466 -1280 
C 2170 -1280 2803 -956 2803 -479 
C 2803 384 1856 384 1363 384 
C 1216 384 954 384 922 391 
C 723 423 589 602 589 826 
C 589 883 589 1024 710 1164 
z
M 1299 1068 
C 736 1068 736 1760 736 1889 
C 736 2016 736 2708 1299 2708 
C 1862 2708 1862 2016 1862 1889 
C 1862 1760 1862 1068 1299 1068 
z
M 1466 -1171 
C 826 -1171 384 -835 384 -486 
C 384 -289 493 -105 634 -4 
C 794 104 858 104 1293 104 
C 1818 104 2547 104 2547 -486 
C 2547 -835 2106 -1171 1466 -1171 
z
" transform="scale(0.015625)"/>
       <path id="CMR17-61" d="M 2304 1653 
C 2304 2072 2304 2294 2035 2543 
C 1798 2752 1523 2816 1306 2816 
C 800 2816 435 2407 435 1971 
C 435 1728 627 1728 666 1728 
C 749 1728 896 1778 896 1954 
C 896 2112 774 2181 666 2181 
C 640 2181 608 2174 589 2168 
C 723 2592 1069 2714 1293 2714 
C 1613 2714 1965 2429 1965 1885 
L 1965 1600 
C 1587 1600 1133 1549 774 1357 
C 371 1133 256 813 256 570 
C 256 77 832 -64 1171 -64 
C 1523 -64 1850 139 1990 511 
C 2003 233 2182 -18 2464 -18 
C 2598 -18 2938 70 2938 567 
L 2938 920 
L 2822 920 
L 2822 562 
C 2822 178 2650 128 2566 128 
C 2304 128 2304 458 2304 738 
L 2304 1653 
z
M 1965 870 
C 1965 317 1568 38 1216 38 
C 896 38 646 275 646 570 
C 646 761 730 1100 1101 1305 
C 1408 1478 1760 1504 1965 1504 
L 1965 870 
z
" transform="scale(0.015625)"/>
       <path id="CMMI12-1c" d="M 1837 2408 
L 2899 2408 
C 2982 2408 3194 2408 3194 2612 
C 3194 2752 3072 2752 2957 2752 
L 1197 2752 
C 1050 2752 832 2752 538 2440 
C 371 2255 166 1917 166 1879 
C 166 1841 198 1828 237 1828 
C 282 1828 288 1847 320 1885 
C 653 2408 986 2408 1146 2408 
L 1677 2408 
L 1011 223 
C 979 127 979 114 979 95 
C 979 25 1024 -64 1152 -64 
C 1350 -64 1382 108 1402 203 
L 1837 2408 
z
" transform="scale(0.015625)"/>
      </defs>
      <use xlink:href="#CMR17-43" transform="scale(0.996264)"/>
      <use xlink:href="#CMR17-6f" transform="translate(66.509881 0) scale(0.996264)"/>
      <use xlink:href="#CMR17-6e" transform="translate(112.200358 0) scale(0.996264)"/>
      <use xlink:href="#CMR17-74" transform="translate(160.493274 0) scale(0.996264)"/>
      <use xlink:href="#CMR17-72" transform="translate(195.774041 0) scale(0.996264)"/>
      <use xlink:href="#CMR17-6f" transform="translate(231.054809 0) scale(0.996264)"/>
      <use xlink:href="#CMR17-6c" transform="translate(276.745286 0) scale(0.996264)"/>
      <use xlink:href="#CMR17-73" transform="translate(331.692311 0) scale(0.996264)"/>
      <use xlink:href="#CMR17-69" transform="translate(367.493649 0) scale(0.996264)"/>
      <use xlink:href="#CMR17-67" transform="translate(392.364707 0) scale(0.996264)"/>
      <use xlink:href="#CMR17-6e" transform="translate(438.055184 0) scale(0.996264)"/>
      <use xlink:href="#CMR17-61" transform="translate(488.950554 0) scale(0.996264)"/>
      <use xlink:href="#CMR17-6c" transform="translate(534.641031 0) scale(0.996264)"/>
      <use xlink:href="#CMMI12-1c" transform="translate(589.588056 0) scale(0.996264)"/>
     </g>
    </g>
   </g>
   <g id="line2d_29">
    <path d="M 64.682931 96.072533 
L 64.83777 86.225056 
L 64.99261 86.106602 
L 66.153904 86.799346 
L 67.237778 87.099634 
L 68.786171 87.287616 
L 70.79908 87.299106 
L 76.528132 87.247207 
L 91.470117 87.242469 
L 103.392737 87.241386 
L 103.470156 83.19197 
L 103.547576 84.881894 
L 103.624995 85.272279 
L 103.702415 85.245962 
L 104.399191 84.151312 
L 105.018548 83.653439 
L 105.870164 83.284962 
L 106.876619 83.067441 
L 108.57985 82.930128 
L 111.521796 82.944933 
L 118.102463 82.978357 
L 123.366996 82.967447 
L 142.102542 82.970842 
L 142.179961 86.115305 
L 142.257381 85.885267 
L 142.41222 85.870415 
L 143.186416 86.081812 
L 144.889648 86.275435 
L 146.825138 86.286806 
L 151.702574 86.249254 
L 157.586464 86.243408 
L 168.502629 86.246934 
L 180.812347 86.246541 
L 180.889767 83.342374 
L 181.044606 85.236358 
L 181.199445 85.101881 
L 181.741382 84.28799 
L 182.360739 83.762113 
L 183.134935 83.39806 
L 184.29623 83.126392 
L 185.922041 82.990164 
L 188.554308 83.002521 
L 194.360779 83.028244 
L 214.180199 83.032347 
L 219.522152 83.031317 
L 219.676992 85.482926 
L 219.831831 85.636884 
L 220.606027 85.117105 
L 221.612482 84.79735 
L 223.006035 84.603076 
L 224.709266 84.553739 
L 236.399627 84.620753 
L 258.231958 84.618651 
L 258.309377 87.951464 
L 258.386797 86.567959 
L 258.464216 86.250446 
L 258.541636 86.277687 
L 259.315832 87.307873 
L 260.012609 87.76918 
L 260.941644 88.098001 
L 262.412617 88.330592 
L 264.657785 88.378738 
L 280.683645 88.326902 
L 296.941763 88.324234 
L 297.019182 83.680453 
L 297.096602 85.137434 
L 297.174022 85.441125 
L 297.251441 85.386061 
L 297.870798 84.455895 
L 298.490155 83.982787 
L 299.341771 83.624092 
L 300.270806 83.414618 
L 301.896618 83.265816 
L 304.451465 83.278779 
L 309.793418 83.31176 
L 335.651568 83.313803 
L 335.651568 83.313803 
" clip-path="url(#p002e9868ee)" style="fill: none; stroke: #1f77b4; stroke-width: 2; stroke-linecap: square"/>
   </g>
   <g id="line2d_30">
    <path d="M 64.682931 83.598644 
L 64.760351 82.555637 
L 64.91519 83.934773 
L 65.070029 84.013874 
L 66.463582 83.657682 
L 68.244233 83.492989 
L 68.86359 83.475204 
L 71.960375 83.446316 
L 82.566861 83.424684 
L 85.741065 83.417851 
L 103.392737 83.406608 
L 103.470156 96.816187 
L 103.547576 93.55364 
L 103.702415 92.371404 
L 103.857254 92.484302 
L 104.321772 92.887505 
L 105.018548 93.194019 
L 106.025003 93.371964 
L 108.192752 93.445441 
L 117.096008 93.60802 
L 123.057318 93.681435 
L 127.857333 93.741641 
L 142.102542 93.883176 
L 142.179961 87.539486 
L 142.257381 87.985761 
L 142.41222 88.082307 
L 143.108997 87.935526 
L 145.276746 87.824603 
L 148.683209 87.842862 
L 159.367115 87.992581 
L 163.780033 88.047522 
L 180.812347 88.223721 
L 180.889767 93.918843 
L 181.044606 90.068414 
L 181.199445 89.855709 
L 182.051061 90.437979 
L 182.902677 90.686744 
L 184.373649 90.824751 
L 189.018826 90.905617 
L 194.438199 90.962185 
L 198.618857 90.984368 
L 205.509203 91.03755 
L 214.876976 91.095019 
L 219.522152 91.119103 
L 219.676992 84.131058 
L 219.831831 83.662414 
L 221.147964 84.095007 
L 222.773776 84.268254 
L 223.315713 84.282473 
L 225.94798 84.314108 
L 244.683526 84.171571 
L 258.231958 84.094228 
L 258.309377 79.997274 
L 258.464216 83.450931 
L 258.619056 83.5772 
L 259.238413 83.093974 
L 260.090028 82.795433 
L 261.406162 82.621634 
L 264.270687 82.541692 
L 273.71588 82.490034 
L 279.212672 82.458789 
L 296.941763 82.412733 
L 297.019182 91.044731 
L 297.096602 88.222274 
L 297.251441 87.327181 
L 298.103057 88.030896 
L 298.954673 88.283896 
L 300.425645 88.444258 
L 303.754689 88.515103 
L 319.703128 88.568668 
L 327.522509 88.584251 
L 335.651568 88.598182 
L 335.651568 88.598182 
" clip-path="url(#p002e9868ee)" style="fill: none; stroke: #ff7f0e; stroke-width: 2; stroke-linecap: square"/>
   </g>
   <g id="line2d_31">
    <path d="M 64.682931 18.280986 
L 64.760351 80.253403 
L 64.83777 73.039544 
L 65.147449 54.492644 
L 65.457127 46.611866 
L 65.766806 43.276987 
L 66.076484 41.843173 
L 66.463582 41.109885 
L 66.9281 40.774418 
L 67.779716 40.526179 
L 70.024884 40.163802 
L 79.237818 39.147293 
L 81.792665 38.93694 
L 83.882995 38.785304 
L 87.521716 38.551824 
L 91.934634 38.319741 
L 99.986274 38.013698 
L 103.392737 37.915992 
L 103.470156 89.947863 
L 103.547576 86.242784 
L 103.934674 66.456004 
L 104.244352 61.176359 
L 104.554031 59.163755 
L 104.863709 58.411467 
L 105.250807 58.097965 
L 105.870164 57.969319 
L 106.412101 57.904006 
L 110.128243 57.458983 
L 114.61858 57.121413 
L 114.928258 57.031251 
L 116.399231 57.062912 
L 117.870204 56.884203 
L 119.186337 56.795609 
L 119.728274 56.782067 
L 120.65731 56.748662 
L 121.354086 56.697701 
L 122.205702 56.665829 
L 122.979898 56.628719 
L 123.754094 56.583196 
L 124.52829 56.562576 
L 125.379906 56.496731 
L 127.315396 56.433155 
L 128.941208 56.383228 
L 132.115412 56.274639 
L 135.754134 56.16078 
L 140.786408 56.05092 
L 142.102542 56.02668 
L 142.257381 96.481158 
L 142.567059 100.77881 
L 142.876738 102.562546 
L 143.186416 103.30422 
L 143.573514 103.662295 
L 144.115452 103.820035 
L 145.896103 103.958143 
L 152.39935 104.301987 
L 160.528409 104.596848 
L 169.354245 104.802284 
L 180.812347 104.961198 
L 181.044606 68.7104 
L 181.354284 48.325162 
L 181.663963 40.299231 
L 181.973641 37.096047 
L 182.28332 35.817866 
L 182.592998 35.298448 
L 183.057516 35.001598 
L 184.063971 34.747647 
L 187.005916 34.166541 
L 189.096245 33.913792 
L 191.960771 33.49195 
L 192.347869 33.383786 
L 194.360779 33.216551 
L 195.599493 33.105836 
L 196.14143 33.04279 
L 197.302724 32.922769 
L 197.844661 32.867272 
L 198.773697 32.762767 
L 199.470473 32.706268 
L 200.244669 32.628149 
L 201.018865 32.567856 
L 201.793062 32.510623 
L 202.644677 32.425942 
L 204.347909 32.301399 
L 208.373728 32.062664 
L 211.393093 31.905582 
L 219.522152 31.595377 
L 219.676992 100.71465 
L 219.98667 106.566794 
L 220.296348 109.182543 
L 220.606027 110.324332 
L 220.993125 110.906728 
L 221.457643 111.160592 
L 222.309258 111.305186 
L 225.018945 111.546285 
L 228.735086 111.806986 
L 229.122184 111.828937 
L 230.747996 111.969073 
L 232.141549 112.086989 
L 232.993165 112.071599 
L 235.160914 112.212938 
L 236.631886 112.279179 
L 238.489957 112.366443 
L 245.070624 112.581106 
L 250.489997 112.718437 
L 258.231958 112.86119 
L 258.309377 96.077692 
L 258.386797 97.363106 
L 258.851314 93.63641 
L 259.160993 93.142912 
L 259.548091 93.038056 
L 269.070703 93.250377 
L 269.535221 93.205173 
L 271.006193 93.313045 
L 272.632005 93.305862 
L 273.096523 93.337148 
L 274.412656 93.333889 
L 274.954593 93.328072 
L 275.883629 93.324512 
L 276.580405 93.327579 
L 277.354601 93.329183 
L 278.206217 93.323034 
L 279.057833 93.358934 
L 282.232037 93.367942 
L 284.632045 93.37147 
L 287.109472 93.371974 
L 295.238531 93.404893 
L 296.941763 93.407571 
L 297.174022 88.577985 
L 297.4837 81.752594 
L 297.793379 79.425046 
L 298.103057 78.541685 
L 298.412735 78.210024 
L 298.877253 78.059234 
L 300.657904 77.929463 
L 303.44501 77.806008 
L 307.47083 77.767918 
L 309.174061 77.724842 
L 309.638579 77.737317 
L 310.954712 77.64581 
L 313.741818 77.609001 
L 314.438595 77.588218 
L 315.290211 77.576982 
L 316.064407 77.574932 
L 316.838603 77.544383 
L 317.767638 77.559499 
L 335.651568 77.35581 
L 335.651568 77.35581 
" clip-path="url(#p002e9868ee)" style="fill: none; stroke: #2ca02c; stroke-width: 2; stroke-linecap: square"/>
   </g>
   <g id="line2d_32">
    <path d="M 64.682931 80.112568 
L 64.760351 85.938267 
L 64.83777 85.715837 
L 65.070029 85.574281 
L 66.85068 85.320215 
L 69.018429 85.219189 
L 99.057238 85.280042 
L 103.392737 85.280018 
L 103.470156 85.149589 
L 103.624995 85.940177 
L 103.857254 85.964601 
L 104.70887 85.972627 
L 108.192752 86.085403 
L 114.773419 86.046273 
L 121.973443 86.041406 
L 142.102542 86.043565 
L 142.334801 85.715103 
L 144.812228 85.539754 
L 147.986432 85.581911 
L 150.309021 85.567141 
L 158.36066 85.573718 
L 180.812347 85.57275 
L 180.889767 85.202506 
L 181.044606 85.931122 
L 181.276865 85.97187 
L 182.438159 86.015428 
L 185.380104 86.115402 
L 194.902716 86.069496 
L 218.206019 86.065539 
L 219.522152 86.065474 
L 219.599572 85.39663 
L 219.676992 85.635816 
L 219.831831 85.663911 
L 220.838286 85.360976 
L 222.464098 85.155693 
L 224.631847 85.128226 
L 232.218968 85.167983 
L 245.148043 85.171001 
L 258.231958 85.170827 
L 258.309377 86.339624 
L 258.386797 85.833404 
L 258.541636 85.655683 
L 260.554546 85.621512 
L 264.038428 85.642401 
L 273.63846 85.64284 
L 283.083653 85.643365 
L 296.941763 85.643942 
L 297.019182 85.286768 
L 297.174022 85.955536 
L 297.4837 85.945955 
L 298.567575 85.977698 
L 301.50952 86.047404 
L 308.012767 86.00708 
L 335.651568 86.005103 
L 335.651568 86.005103 
" clip-path="url(#p002e9868ee)" style="fill: none; stroke: #d62728; stroke-width: 2; stroke-linecap: square"/>
   </g>
   <g id="line2d_33">
    <path d="M 64.682931 95.82064 
L 64.760351 87.844237 
L 64.91519 95.048574 
L 64.99261 95.221243 
L 65.379708 94.682616 
L 65.844225 94.662306 
L 69.173269 94.74142 
L 85.353967 94.899689 
L 87.521716 94.930215 
L 91.083018 94.952114 
L 98.205623 95.01244 
L 103.392737 95.055112 
L 103.470156 94.75955 
L 103.624995 83.810606 
L 103.934674 90.524477 
L 104.166933 91.569767 
L 104.399191 91.703262 
L 105.405646 91.533703 
L 107.186297 91.459696 
L 111.289537 91.50188 
L 112.373411 91.515168 
L 136.52833 91.640351 
L 141.792863 91.670427 
L 142.102542 91.669964 
L 142.179961 82.910692 
L 142.257381 83.632065 
L 142.644479 81.269646 
L 142.876738 81.057084 
L 143.496095 81.017415 
L 180.812347 80.851079 
L 180.889767 91.021554 
L 181.044606 78.78491 
L 181.431704 83.961974 
L 181.663963 84.414498 
L 181.973641 84.433992 
L 183.367194 84.261289 
L 183.831712 84.23415 
L 186.696237 84.195743 
L 215.341493 84.175295 
L 219.522152 84.171684 
L 219.599572 88.656034 
L 219.754411 83.460317 
L 220.06409 86.367622 
L 220.296348 86.793952 
L 220.683446 86.841963 
L 223.702811 86.762176 
L 236.631886 86.766837 
L 238.722216 86.759175 
L 241.122224 86.77047 
L 258.231958 86.777921 
L 258.309377 81.287905 
L 258.464216 92.093803 
L 258.773895 87.506486 
L 259.006154 86.773717 
L 259.238413 86.695683 
L 262.799715 86.957411 
L 263.80617 86.931629 
L 296.941763 86.944184 
L 297.019182 94.027474 
L 297.096602 85.147175 
L 297.174022 85.678377 
L 297.4837 92.295739 
L 297.715959 93.199624 
L 297.948218 93.293886 
L 301.4321 93.051267 
L 302.206296 93.094949 
L 335.651568 93.352924 
L 335.651568 93.352924 
" clip-path="url(#p002e9868ee)" style="fill: none; stroke: #9467bd; stroke-width: 2; stroke-linecap: square"/>
   </g>
   <g id="line2d_34">
    <path d="M 64.682931 167.900698 
L 64.760351 102.880581 
L 64.83777 110.230691 
L 65.147449 127.529497 
L 65.457127 135.282613 
L 65.766806 138.819525 
L 66.076484 140.448963 
L 66.463582 141.338507 
L 66.85068 141.716722 
L 67.470037 141.981067 
L 69.095849 142.326478 
L 74.205543 143.310233 
L 85.121708 144.61372 
L 92.476571 145.141237 
L 101.534666 145.556673 
L 103.392737 145.619216 
L 103.547576 76.579324 
L 103.934674 53.178912 
L 104.244352 45.716816 
L 104.554031 42.431214 
L 104.863709 40.96003 
L 105.250807 40.190477 
L 105.715325 39.843733 
L 106.64436 39.565258 
L 109.895984 38.844466 
L 115.934713 37.97048 
L 123.521835 37.146198 
L 133.896063 36.46137 
L 142.102542 36.135376 
L 142.257381 97.126992 
L 142.567059 104.569494 
L 142.876738 107.901033 
L 143.186416 109.400488 
L 143.573514 110.187904 
L 143.960612 110.498339 
L 144.579969 110.680691 
L 146.825138 110.946672 
L 152.39935 111.408939 
L 160.605829 111.876967 
L 170.051021 112.208101 
L 180.812347 112.425665 
L 180.967186 80.168259 
L 181.354284 61.357387 
L 181.663963 55.270133 
L 181.973641 52.596708 
L 182.28332 51.403772 
L 182.670418 50.781879 
L 183.134935 50.502411 
L 184.21881 50.242551 
L 187.393014 49.672586 
L 194.360779 48.901483 
L 200.01241 48.426331 
L 205.664042 48.072598 
L 215.573752 47.664619 
L 219.522152 47.554336 
L 219.676992 89.857159 
L 219.831831 89.507407 
L 220.141509 88.84035 
L 220.528607 88.502817 
L 221.147964 88.281102 
L 222.541517 88.098515 
L 223.93507 88.089064 
L 229.199604 88.214707 
L 236.941565 88.249052 
L 258.231958 88.285852 
L 258.696475 70.187719 
L 259.006154 64.629634 
L 259.315832 62.175301 
L 259.625511 61.060869 
L 260.012609 60.466224 
L 260.477126 60.193001 
L 261.483581 59.957189 
L 264.193268 59.523582 
L 270.773935 58.972235 
L 291.444971 57.978018 
L 296.941763 57.854771 
L 297.096602 96.805693 
L 297.251441 97.582807 
L 297.4837 97.812936 
L 297.948218 98.391192 
L 298.412735 98.613567 
L 299.341771 98.740518 
L 301.277261 98.728629 
L 302.903073 98.730481 
L 317.45796 99.050389 
L 335.651568 99.169073 
L 335.651568 99.169073 
" clip-path="url(#p002e9868ee)" style="fill: none; stroke: #8c564b; stroke-width: 2; stroke-linecap: square"/>
   </g>
   <g id="patch_3">
    <path d="M 51.134499 175.381683 
L 51.134499 10.8 
" style="fill: none; stroke: #000000; stroke-width: 0.8; stroke-linejoin: miter; stroke-linecap: square"/>
   </g>
   <g id="patch_4">
    <path d="M 349.2 175.381683 
L 349.2 10.8 
" style="fill: none; stroke: #000000; stroke-width: 0.8; stroke-linejoin: miter; stroke-linecap: square"/>
   </g>
   <g id="patch_5">
    <path d="M 51.134499 175.381683 
L 349.2 175.381683 
" style="fill: none; stroke: #000000; stroke-width: 0.8; stroke-linejoin: miter; stroke-linecap: square"/>
   </g>
   <g id="patch_6">
    <path d="M 51.134499 10.8 
L 349.2 10.8 
" style="fill: none; stroke: #000000; stroke-width: 0.8; stroke-linejoin: miter; stroke-linecap: square"/>
   </g>
   <g id="legend_1">
    <g id="patch_7">
     <path d="M 301.873558 170.381683 
L 342.2 170.381683 
Q 344.2 170.381683 344.2 168.381683 
L 344.2 85.758613 
Q 344.2 83.758613 342.2 83.758613 
L 301.873558 83.758613 
Q 299.873558 83.758613 299.873558 85.758613 
L 299.873558 168.381683 
Q 299.873558 170.381683 301.873558 170.381683 
z
" style="fill: #ffffff; opacity: 0.8; stroke: #cccccc; stroke-linejoin: miter"/>
    </g>
    <g id="line2d_35">
     <path d="M 303.873558 91.258613 
L 313.873558 91.258613 
L 323.873558 91.258613 
" style="fill: none; stroke: #1f77b4; stroke-width: 2; stroke-linecap: square"/>
    </g>
    <g id="text_17">
     <!-- $\tau_{1}$ -->
     <g transform="translate(331.873558 94.758613) scale(0.1 -0.1)">
      <use xlink:href="#CMMI12-1c" transform="scale(0.996264)"/>
      <use xlink:href="#CMR17-31" transform="translate(42.363841 -14.943915) scale(0.697382)"/>
     </g>
    </g>
    <g id="line2d_36">
     <path d="M 303.873558 105.195792 
L 313.873558 105.195792 
L 323.873558 105.195792 
" style="fill: none; stroke: #ff7f0e; stroke-width: 2; stroke-linecap: square"/>
    </g>
    <g id="text_18">
     <!-- $\tau_{2}$ -->
     <g transform="translate(331.873558 108.695792) scale(0.1 -0.1)">
      <use xlink:href="#CMMI12-1c" transform="scale(0.996264)"/>
      <use xlink:href="#CMR17-32" transform="translate(42.363841 -14.943915) scale(0.697382)"/>
     </g>
    </g>
    <g id="line2d_37">
     <path d="M 303.873558 119.13297 
L 313.873558 119.13297 
L 323.873558 119.13297 
" style="fill: none; stroke: #2ca02c; stroke-width: 2; stroke-linecap: square"/>
    </g>
    <g id="text_19">
     <!-- $\tau_{3}$ -->
     <g transform="translate(331.873558 122.63297) scale(0.1 -0.1)">
      <use xlink:href="#CMMI12-1c" transform="scale(0.996264)"/>
      <use xlink:href="#CMR17-33" transform="translate(42.363841 -14.943915) scale(0.697382)"/>
     </g>
    </g>
    <g id="line2d_38">
     <path d="M 303.873558 133.070148 
L 313.873558 133.070148 
L 323.873558 133.070148 
" style="fill: none; stroke: #d62728; stroke-width: 2; stroke-linecap: square"/>
    </g>
    <g id="text_20">
     <!-- $\tau_{4}$ -->
     <g transform="translate(331.873558 136.570148) scale(0.1 -0.1)">
      <defs>
       <path id="CMR17-34" d="M 2150 4122 
C 2150 4256 2144 4256 2029 4256 
L 128 1254 
L 128 1088 
L 1779 1088 
L 1779 457 
C 1779 224 1766 160 1318 160 
L 1197 160 
L 1197 0 
C 1402 0 1747 0 1965 0 
C 2182 0 2528 0 2733 0 
L 2733 160 
L 2611 160 
C 2163 160 2150 224 2150 457 
L 2150 1088 
L 2803 1088 
L 2803 1254 
L 2150 1254 
L 2150 4122 
z
M 1798 3703 
L 1798 1254 
L 256 1254 
L 1798 3703 
z
" transform="scale(0.015625)"/>
      </defs>
      <use xlink:href="#CMMI12-1c" transform="scale(0.996264)"/>
      <use xlink:href="#CMR17-34" transform="translate(42.363841 -14.943915) scale(0.697382)"/>
     </g>
    </g>
    <g id="line2d_39">
     <path d="M 303.873558 147.007327 
L 313.873558 147.007327 
L 323.873558 147.007327 
" style="fill: none; stroke: #9467bd; stroke-width: 2; stroke-linecap: square"/>
    </g>
    <g id="text_21">
     <!-- $\tau_{5}$ -->
     <g transform="translate(331.873558 150.507327) scale(0.1 -0.1)">
      <use xlink:href="#CMMI12-1c" transform="scale(0.996264)"/>
      <use xlink:href="#CMR17-35" transform="translate(42.363841 -14.943915) scale(0.697382)"/>
     </g>
    </g>
    <g id="line2d_40">
     <path d="M 303.873558 160.944505 
L 313.873558 160.944505 
L 323.873558 160.944505 
" style="fill: none; stroke: #8c564b; stroke-width: 2; stroke-linecap: square"/>
    </g>
    <g id="text_22">
     <!-- $\tau_{6}$ -->
     <g transform="translate(331.873558 164.444505) scale(0.1 -0.1)">
      <defs>
       <path id="CMR17-36" d="M 678 2176 
C 678 3690 1395 4032 1811 4032 
C 1946 4032 2272 4009 2400 3776 
C 2298 3776 2106 3776 2106 3553 
C 2106 3381 2246 3323 2336 3323 
C 2394 3323 2566 3348 2566 3560 
C 2566 3954 2246 4179 1805 4179 
C 1043 4179 243 3390 243 1984 
C 243 253 966 -128 1478 -128 
C 2099 -128 2688 427 2688 1283 
C 2688 2081 2170 2662 1517 2662 
C 1126 2662 838 2407 678 1960 
L 678 2176 
z
M 1478 25 
C 691 25 691 1200 691 1436 
C 691 1896 909 2560 1504 2560 
C 1613 2560 1926 2560 2138 2120 
C 2253 1870 2253 1609 2253 1289 
C 2253 944 2253 690 2118 434 
C 1978 171 1773 25 1478 25 
z
" transform="scale(0.015625)"/>
      </defs>
      <use xlink:href="#CMMI12-1c" transform="scale(0.996264)"/>
      <use xlink:href="#CMR17-36" transform="translate(42.363841 -14.943915) scale(0.697382)"/>
     </g>
    </g>
   </g>
  </g>
 </g>
 <defs>
  <clipPath id="p002e9868ee">
   <rect x="51.134499" y="10.8" width="298.065501" height="164.581683"/>
  </clipPath>
 </defs>
</svg>
