<?xml version="1.0" encoding="utf-8" standalone="no"?>
<!DOCTYPE svg PUBLIC "-//W3C//DTD SVG 1.1//EN"
  "http://www.w3.org/Graphics/SVG/1.1/DTD/svg11.dtd">
<svg xmlns:xlink="http://www.w3.org/1999/xlink" width="288pt" height="273.6pt" viewBox="0 0 288 273.6" xmlns="http://www.w3.org/2000/svg" version="1.1">
 <metadata>
  <rdf:RDF xmlns:dc="http://purl.org/dc/elements/1.1/" xmlns:cc="http://creativecommons.org/ns#" xmlns:rdf="http://www.w3.org/1999/02/22-rdf-syntax-ns#">
   <cc:Work>
    <dc:type rdf:resource="http://purl.org/dc/dcmitype/StillImage"/>
    <dc:date>2024-10-30T11:14:22.387407</dc:date>
    <dc:format>image/svg+xml</dc:format>
    <dc:creator>
     <cc:Agent>
      <dc:title>Matplotlib v3.9.2, https://matplotlib.org/</dc:title>
     </cc:Agent>
    </dc:creator>
   </cc:Work>
  </rdf:RDF>
 </metadata>
 <defs>
  <style type="text/css">*{stroke-linejoin: round; stroke-linecap: butt}</style>
 </defs>
 <g id="figure_1">
  <g id="patch_1">
   <path d="M 0 273.6 
L 288 273.6 
L 288 0 
L 0 0 
z
" style="fill: #ffffff"/>
  </g>
  <g id="axes_1">
   <g id="patch_2">
    <path d="M 57.222798 232.981683 
L 277.2 232.981683 
L 277.2 10.8 
L 57.222798 10.8 
z
" style="fill: #ffffff"/>
   </g>
   <g id="matplotlib.axis_1">
    <g id="xtick_1">
     <g id="line2d_1">
      <path d="M 67.221762 232.981683 
L 67.221762 10.8 
" clip-path="url(#p7b29278711)" style="fill: none; stroke: #b0b0b0; stroke-width: 0.8; stroke-linecap: square"/>
     </g>
     <g id="line2d_2">
      <defs>
       <path id="ma2f3301962" d="M 0 0 
L 0 3.5 
" style="stroke: #000000; stroke-width: 0.8"/>
      </defs>
      <g>
       <use xlink:href="#ma2f3301962" x="67.221762" y="232.981683" style="stroke: #000000; stroke-width: 0.8"/>
      </g>
     </g>
     <g id="text_1">
      <!-- $\mathdefault{0}$ -->
      <g transform="translate(64.731094 246.900182) scale(0.1 -0.1)">
       <defs>
        <path id="CMR17-30" d="M 2688 2025 
C 2688 2416 2682 3080 2413 3591 
C 2176 4039 1798 4198 1466 4198 
C 1158 4198 768 4058 525 3597 
C 269 3118 243 2524 243 2025 
C 243 1661 250 1106 448 619 
C 723 -39 1216 -128 1466 -128 
C 1760 -128 2208 -7 2470 600 
C 2662 1042 2688 1559 2688 2025 
z
M 1466 -26 
C 1056 -26 813 325 723 812 
C 653 1188 653 1738 653 2096 
C 653 2588 653 2997 736 3387 
C 858 3929 1216 4096 1466 4096 
C 1728 4096 2067 3923 2189 3400 
C 2272 3036 2278 2607 2278 2096 
C 2278 1680 2278 1169 2202 792 
C 2067 95 1690 -26 1466 -26 
z
" transform="scale(0.015625)"/>
       </defs>
       <use xlink:href="#CMR17-30" transform="scale(0.996264)"/>
      </g>
     </g>
    </g>
    <g id="xtick_2">
     <g id="line2d_3">
      <path d="M 124.358697 232.981683 
L 124.358697 10.8 
" clip-path="url(#p7b29278711)" style="fill: none; stroke: #b0b0b0; stroke-width: 0.8; stroke-linecap: square"/>
     </g>
     <g id="line2d_4">
      <g>
       <use xlink:href="#ma2f3301962" x="124.358697" y="232.981683" style="stroke: #000000; stroke-width: 0.8"/>
      </g>
     </g>
     <g id="text_2">
      <!-- $\mathdefault{10}$ -->
      <g transform="translate(119.377362 246.900182) scale(0.1 -0.1)">
       <defs>
        <path id="CMR17-31" d="M 1702 4058 
C 1702 4192 1696 4192 1606 4192 
C 1357 3916 979 3827 621 3827 
C 602 3827 570 3827 563 3808 
C 557 3795 557 3782 557 3648 
C 755 3648 1088 3686 1344 3839 
L 1344 461 
C 1344 236 1331 160 781 160 
L 589 160 
L 589 0 
C 896 0 1216 0 1523 0 
C 1830 0 2150 0 2458 0 
L 2458 160 
L 2266 160 
C 1715 160 1702 230 1702 458 
L 1702 4058 
z
" transform="scale(0.015625)"/>
       </defs>
       <use xlink:href="#CMR17-31" transform="scale(0.996264)"/>
       <use xlink:href="#CMR17-30" transform="translate(45.690477 0) scale(0.996264)"/>
      </g>
     </g>
    </g>
    <g id="xtick_3">
     <g id="line2d_5">
      <path d="M 181.495633 232.981683 
L 181.495633 10.8 
" clip-path="url(#p7b29278711)" style="fill: none; stroke: #b0b0b0; stroke-width: 0.8; stroke-linecap: square"/>
     </g>
     <g id="line2d_6">
      <g>
       <use xlink:href="#ma2f3301962" x="181.495633" y="232.981683" style="stroke: #000000; stroke-width: 0.8"/>
      </g>
     </g>
     <g id="text_3">
      <!-- $\mathdefault{20}$ -->
      <g transform="translate(176.514298 246.900182) scale(0.1 -0.1)">
       <defs>
        <path id="CMR17-32" d="M 2669 989 
L 2554 989 
C 2490 536 2438 459 2413 420 
C 2381 369 1920 369 1830 369 
L 602 369 
C 832 619 1280 1072 1824 1597 
C 2214 1967 2669 2402 2669 3035 
C 2669 3790 2067 4224 1395 4224 
C 691 4224 262 3604 262 3030 
C 262 2780 448 2748 525 2748 
C 589 2748 781 2787 781 3010 
C 781 3207 614 3264 525 3264 
C 486 3264 448 3258 422 3245 
C 544 3790 915 4058 1306 4058 
C 1862 4058 2227 3617 2227 3035 
C 2227 2479 1901 2000 1536 1584 
L 262 146 
L 262 0 
L 2515 0 
L 2669 989 
z
" transform="scale(0.015625)"/>
       </defs>
       <use xlink:href="#CMR17-32" transform="scale(0.996264)"/>
       <use xlink:href="#CMR17-30" transform="translate(45.690477 0) scale(0.996264)"/>
      </g>
     </g>
    </g>
    <g id="xtick_4">
     <g id="line2d_7">
      <path d="M 238.632568 232.981683 
L 238.632568 10.8 
" clip-path="url(#p7b29278711)" style="fill: none; stroke: #b0b0b0; stroke-width: 0.8; stroke-linecap: square"/>
     </g>
     <g id="line2d_8">
      <g>
       <use xlink:href="#ma2f3301962" x="238.632568" y="232.981683" style="stroke: #000000; stroke-width: 0.8"/>
      </g>
     </g>
     <g id="text_4">
      <!-- $\mathdefault{30}$ -->
      <g transform="translate(233.651233 246.900182) scale(0.1 -0.1)">
       <defs>
        <path id="CMR17-33" d="M 1414 2157 
C 1984 2157 2234 1662 2234 1090 
C 2234 320 1824 25 1453 25 
C 1114 25 563 194 390 693 
C 422 680 454 680 486 680 
C 640 680 755 782 755 948 
C 755 1133 614 1216 486 1216 
C 378 1216 211 1165 211 926 
C 211 335 787 -128 1466 -128 
C 2176 -128 2720 430 2720 1085 
C 2720 1707 2208 2157 1600 2227 
C 2086 2328 2554 2756 2554 3329 
C 2554 3820 2048 4179 1472 4179 
C 890 4179 378 3829 378 3329 
C 378 3110 544 3072 627 3072 
C 762 3072 877 3155 877 3321 
C 877 3486 762 3569 627 3569 
C 602 3569 570 3569 544 3557 
C 730 3959 1235 4032 1459 4032 
C 1683 4032 2106 3925 2106 3320 
C 2106 3143 2080 2828 1862 2550 
C 1670 2304 1453 2304 1242 2284 
C 1210 2284 1062 2269 1037 2269 
C 992 2263 966 2257 966 2208 
C 966 2163 973 2157 1101 2157 
L 1414 2157 
z
" transform="scale(0.015625)"/>
       </defs>
       <use xlink:href="#CMR17-33" transform="scale(0.996264)"/>
       <use xlink:href="#CMR17-30" transform="translate(45.690477 0) scale(0.996264)"/>
      </g>
     </g>
    </g>
    <g id="text_5">
     <!-- Time $t$ [s] -->
     <g transform="translate(146.013091 260.30934) scale(0.1 -0.1)">
      <defs>
       <path id="CMR17-54" d="M 3981 4326 
L 288 4326 
L 179 2918 
L 294 2918 
C 378 3976 467 4160 1453 4160 
C 1568 4160 1754 4160 1805 4154 
C 1926 4135 1926 4058 1926 3912 
L 1926 459 
C 1926 230 1907 160 1376 160 
L 1197 160 
L 1197 0 
C 1504 0 1824 0 2138 0 
C 2451 0 2771 0 3078 0 
L 3078 160 
L 2899 160 
C 2368 160 2349 230 2349 459 
L 2349 3912 
C 2349 4052 2349 4129 2464 4154 
C 2515 4160 2701 4160 2816 4160 
C 3795 4160 3891 3976 3974 2918 
L 4090 2918 
L 3981 4326 
z
" transform="scale(0.015625)"/>
       <path id="CMR17-69" d="M 992 3909 
C 992 4049 877 4170 730 4170 
C 589 4170 467 4056 467 3909 
C 467 3769 582 3648 730 3648 
C 870 3648 992 3763 992 3909 
z
M 243 2706 
L 243 2541 
C 602 2541 653 2502 653 2197 
L 653 427 
C 653 184 627 153 218 153 
L 218 -13 
C 371 0 646 0 806 0 
C 960 0 1222 0 1370 -13 
L 1370 153 
C 992 153 979 191 979 420 
L 979 2776 
L 243 2706 
z
" transform="scale(0.015625)"/>
       <path id="CMR17-6d" d="M 4326 1933 
C 4326 2252 4269 2790 3507 2790 
C 3072 2790 2771 2496 2656 2151 
L 2650 2151 
C 2573 2676 2195 2790 1837 2790 
C 1331 2790 1069 2400 973 2144 
L 966 2144 
L 966 2790 
L 211 2720 
L 211 2554 
C 589 2554 646 2515 646 2208 
L 646 428 
C 646 184 621 153 211 153 
L 211 -13 
C 365 0 646 0 813 0 
C 979 0 1267 0 1421 -13 
L 1421 153 
C 1011 153 986 178 986 428 
L 986 1658 
C 986 2247 1344 2688 1792 2688 
C 2266 2688 2317 2266 2317 1958 
L 2317 428 
C 2317 184 2291 153 1882 153 
L 1882 -13 
C 2035 0 2317 0 2483 0 
C 2650 0 2938 0 3091 -13 
L 3091 153 
C 2682 153 2656 178 2656 428 
L 2656 1658 
C 2656 2247 3014 2688 3462 2688 
C 3936 2688 3987 2266 3987 1958 
L 3987 428 
C 3987 184 3962 153 3552 153 
L 3552 -13 
C 3706 0 3987 0 4154 0 
C 4320 0 4608 0 4762 -13 
L 4762 153 
C 4352 153 4326 178 4326 428 
L 4326 1933 
z
" transform="scale(0.015625)"/>
       <path id="CMR17-65" d="M 2438 1472 
C 2464 1498 2464 1511 2464 1576 
C 2464 2238 2118 2816 1389 2816 
C 710 2816 173 2169 173 1383 
C 173 551 781 -64 1459 -64 
C 2176 -64 2458 607 2458 740 
C 2458 784 2419 784 2406 784 
C 2362 784 2355 771 2330 696 
C 2189 265 1837 51 1504 51 
C 1229 51 954 203 781 480 
C 582 803 582 1176 582 1472 
L 2438 1472 
z
M 589 1568 
C 634 2505 1126 2714 1382 2714 
C 1818 2714 2112 2297 2118 1568 
L 589 1568 
z
" transform="scale(0.015625)"/>
       <path id="CMMI12-74" d="M 1286 2566 
L 1875 2566 
C 1997 2566 2061 2566 2061 2681 
C 2061 2752 2022 2752 1894 2752 
L 1331 2752 
L 1568 3692 
C 1594 3781 1594 3794 1594 3840 
C 1594 3943 1510 4000 1427 4000 
C 1376 4000 1229 3981 1178 3775 
L 928 2752 
L 326 2752 
C 198 2752 141 2752 141 2630 
C 141 2566 186 2566 307 2566 
L 877 2566 
L 454 881 
C 403 658 384 594 384 511 
C 384 211 595 -64 954 -64 
C 1600 -64 1946 868 1946 912 
C 1946 951 1920 970 1882 970 
C 1869 970 1843 970 1830 944 
C 1824 938 1818 931 1773 829 
C 1638 511 1344 64 973 64 
C 781 64 768 224 768 364 
C 768 370 768 492 787 568 
L 1286 2566 
z
" transform="scale(0.015625)"/>
       <path id="CMR17-5b" d="M 1504 -1600 
L 1504 -1377 
L 902 -1377 
L 902 4544 
L 1504 4544 
L 1504 4767 
L 678 4767 
L 678 -1600 
L 1504 -1600 
z
" transform="scale(0.015625)"/>
       <path id="CMR17-73" d="M 1978 2697 
C 1978 2813 1971 2819 1933 2819 
C 1907 2819 1901 2813 1824 2717 
C 1805 2691 1747 2626 1728 2601 
C 1523 2819 1235 2819 1126 2819 
C 416 2819 160 2447 160 2076 
C 160 1498 813 1365 998 1325 
C 1402 1243 1542 1217 1677 1101 
C 1760 1025 1901 884 1901 654 
C 1901 384 1747 38 1158 38 
C 602 38 403 460 288 1021 
C 269 1110 269 1117 218 1117 
C 166 1117 160 1110 160 983 
L 160 63 
C 160 -51 166 -58 205 -58 
C 237 -58 243 -51 275 0 
C 314 57 410 211 448 276 
C 576 103 800 -64 1158 -64 
C 1792 -64 2131 283 2131 784 
C 2131 1112 1958 1285 1875 1362 
C 1683 1561 1459 1606 1190 1657 
C 838 1735 390 1825 390 2217 
C 390 2383 480 2737 1126 2737 
C 1811 2737 1850 2094 1862 1888 
C 1869 1856 1901 1849 1920 1849 
C 1978 1849 1978 1869 1978 1978 
L 1978 2697 
z
" transform="scale(0.015625)"/>
       <path id="CMR17-5d" d="M 915 4767 
L 90 4767 
L 90 4544 
L 691 4544 
L 691 -1377 
L 90 -1377 
L 90 -1600 
L 915 -1600 
L 915 4767 
z
" transform="scale(0.015625)"/>
      </defs>
      <use xlink:href="#CMR17-54" transform="scale(0.996264)"/>
      <use xlink:href="#CMR17-69" transform="translate(66.509881 0) scale(0.996264)"/>
      <use xlink:href="#CMR17-6d" transform="translate(91.380939 0) scale(0.996264)"/>
      <use xlink:href="#CMR17-65" transform="translate(168.300529 0) scale(0.996264)"/>
      <use xlink:href="#CMMI12-74" transform="translate(238.862156 0) scale(0.996264)"/>
      <use xlink:href="#CMR17-5b" transform="translate(304.164452 0) scale(0.996264)"/>
      <use xlink:href="#CMR17-73" transform="translate(329.035511 0) scale(0.996264)"/>
      <use xlink:href="#CMR17-5d" transform="translate(364.836848 0) scale(0.996264)"/>
     </g>
    </g>
   </g>
   <g id="matplotlib.axis_2">
    <g id="ytick_1">
     <g id="line2d_9">
      <path d="M 57.222798 220.60841 
L 277.2 220.60841 
" clip-path="url(#p7b29278711)" style="fill: none; stroke: #b0b0b0; stroke-width: 0.8; stroke-linecap: square"/>
     </g>
     <g id="line2d_10">
      <defs>
       <path id="m4a5de821cf" d="M 0 0 
L -3.5 0 
" style="stroke: #000000; stroke-width: 0.8"/>
      </defs>
      <g>
       <use xlink:href="#m4a5de821cf" x="57.222798" y="220.60841" style="stroke: #000000; stroke-width: 0.8"/>
      </g>
     </g>
     <g id="text_6">
      <!-- $\mathdefault{−0.20}$ -->
      <g transform="translate(24.76264 224.067659) scale(0.1 -0.1)">
       <defs>
        <path id="CMSY10-0" d="M 4218 1472 
C 4326 1472 4442 1472 4442 1600 
C 4442 1728 4326 1728 4218 1728 
L 755 1728 
C 646 1728 531 1728 531 1600 
C 531 1472 646 1472 755 1472 
L 4218 1472 
z
" transform="scale(0.015625)"/>
        <path id="CMMI12-3a" d="M 1178 307 
C 1178 492 1024 619 870 619 
C 685 619 557 466 557 313 
C 557 128 710 0 864 0 
C 1050 0 1178 153 1178 307 
z
" transform="scale(0.015625)"/>
       </defs>
       <use xlink:href="#CMSY10-0" transform="scale(0.996264)"/>
       <use xlink:href="#CMR17-30" transform="translate(77.487468 0) scale(0.996264)"/>
       <use xlink:href="#CMMI12-3a" transform="translate(123.177945 0) scale(0.996264)"/>
       <use xlink:href="#CMR17-32" transform="translate(150.275122 0) scale(0.996264)"/>
       <use xlink:href="#CMR17-30" transform="translate(195.965599 0) scale(0.996264)"/>
      </g>
     </g>
    </g>
    <g id="ytick_2">
     <g id="line2d_11">
      <path d="M 57.222798 191.617715 
L 277.2 191.617715 
" clip-path="url(#p7b29278711)" style="fill: none; stroke: #b0b0b0; stroke-width: 0.8; stroke-linecap: square"/>
     </g>
     <g id="line2d_12">
      <g>
       <use xlink:href="#m4a5de821cf" x="57.222798" y="191.617715" style="stroke: #000000; stroke-width: 0.8"/>
      </g>
     </g>
     <g id="text_7">
      <!-- $\mathdefault{−0.15}$ -->
      <g transform="translate(24.76264 195.076964) scale(0.1 -0.1)">
       <defs>
        <path id="CMR17-35" d="M 730 3692 
C 794 3666 1056 3584 1325 3584 
C 1920 3584 2246 3911 2432 4100 
C 2432 4157 2432 4192 2394 4192 
C 2387 4192 2374 4192 2323 4163 
C 2099 4058 1837 3973 1517 3973 
C 1325 3973 1037 3999 723 4139 
C 653 4171 640 4171 634 4171 
C 602 4171 595 4164 595 4037 
L 595 2203 
C 595 2089 595 2057 659 2057 
C 691 2057 704 2070 736 2114 
C 941 2401 1222 2522 1542 2522 
C 1766 2522 2246 2382 2246 1289 
C 2246 1085 2246 715 2054 421 
C 1894 159 1645 25 1370 25 
C 947 25 518 320 403 814 
C 429 807 480 795 506 795 
C 589 795 749 840 749 1038 
C 749 1210 627 1280 506 1280 
C 358 1280 262 1190 262 1011 
C 262 454 704 -128 1382 -128 
C 2042 -128 2669 440 2669 1264 
C 2669 2030 2170 2624 1549 2624 
C 1222 2624 947 2503 730 2274 
L 730 3692 
z
" transform="scale(0.015625)"/>
       </defs>
       <use xlink:href="#CMSY10-0" transform="scale(0.996264)"/>
       <use xlink:href="#CMR17-30" transform="translate(77.487468 0) scale(0.996264)"/>
       <use xlink:href="#CMMI12-3a" transform="translate(123.177945 0) scale(0.996264)"/>
       <use xlink:href="#CMR17-31" transform="translate(150.275122 0) scale(0.996264)"/>
       <use xlink:href="#CMR17-35" transform="translate(195.965599 0) scale(0.996264)"/>
      </g>
     </g>
    </g>
    <g id="ytick_3">
     <g id="line2d_13">
      <path d="M 57.222798 162.62702 
L 277.2 162.62702 
" clip-path="url(#p7b29278711)" style="fill: none; stroke: #b0b0b0; stroke-width: 0.8; stroke-linecap: square"/>
     </g>
     <g id="line2d_14">
      <g>
       <use xlink:href="#m4a5de821cf" x="57.222798" y="162.62702" style="stroke: #000000; stroke-width: 0.8"/>
      </g>
     </g>
     <g id="text_8">
      <!-- $\mathdefault{−0.10}$ -->
      <g transform="translate(24.76264 166.086269) scale(0.1 -0.1)">
       <use xlink:href="#CMSY10-0" transform="scale(0.996264)"/>
       <use xlink:href="#CMR17-30" transform="translate(77.487468 0) scale(0.996264)"/>
       <use xlink:href="#CMMI12-3a" transform="translate(123.177945 0) scale(0.996264)"/>
       <use xlink:href="#CMR17-31" transform="translate(150.275122 0) scale(0.996264)"/>
       <use xlink:href="#CMR17-30" transform="translate(195.965599 0) scale(0.996264)"/>
      </g>
     </g>
    </g>
    <g id="ytick_4">
     <g id="line2d_15">
      <path d="M 57.222798 133.636325 
L 277.2 133.636325 
" clip-path="url(#p7b29278711)" style="fill: none; stroke: #b0b0b0; stroke-width: 0.8; stroke-linecap: square"/>
     </g>
     <g id="line2d_16">
      <g>
       <use xlink:href="#m4a5de821cf" x="57.222798" y="133.636325" style="stroke: #000000; stroke-width: 0.8"/>
      </g>
     </g>
     <g id="text_9">
      <!-- $\mathdefault{−0.05}$ -->
      <g transform="translate(24.76264 137.095574) scale(0.1 -0.1)">
       <use xlink:href="#CMSY10-0" transform="scale(0.996264)"/>
       <use xlink:href="#CMR17-30" transform="translate(77.487468 0) scale(0.996264)"/>
       <use xlink:href="#CMMI12-3a" transform="translate(123.177945 0) scale(0.996264)"/>
       <use xlink:href="#CMR17-30" transform="translate(150.275122 0) scale(0.996264)"/>
       <use xlink:href="#CMR17-35" transform="translate(195.965599 0) scale(0.996264)"/>
      </g>
     </g>
    </g>
    <g id="ytick_5">
     <g id="line2d_17">
      <path d="M 57.222798 104.64563 
L 277.2 104.64563 
" clip-path="url(#p7b29278711)" style="fill: none; stroke: #b0b0b0; stroke-width: 0.8; stroke-linecap: square"/>
     </g>
     <g id="line2d_18">
      <g>
       <use xlink:href="#m4a5de821cf" x="57.222798" y="104.64563" style="stroke: #000000; stroke-width: 0.8"/>
      </g>
     </g>
     <g id="text_10">
      <!-- $\mathdefault{0.00}$ -->
      <g transform="translate(32.511384 108.104879) scale(0.1 -0.1)">
       <use xlink:href="#CMR17-30" transform="scale(0.996264)"/>
       <use xlink:href="#CMMI12-3a" transform="translate(45.690477 0) scale(0.996264)"/>
       <use xlink:href="#CMR17-30" transform="translate(72.787654 0) scale(0.996264)"/>
       <use xlink:href="#CMR17-30" transform="translate(118.478131 0) scale(0.996264)"/>
      </g>
     </g>
    </g>
    <g id="ytick_6">
     <g id="line2d_19">
      <path d="M 57.222798 75.654935 
L 277.2 75.654935 
" clip-path="url(#p7b29278711)" style="fill: none; stroke: #b0b0b0; stroke-width: 0.8; stroke-linecap: square"/>
     </g>
     <g id="line2d_20">
      <g>
       <use xlink:href="#m4a5de821cf" x="57.222798" y="75.654935" style="stroke: #000000; stroke-width: 0.8"/>
      </g>
     </g>
     <g id="text_11">
      <!-- $\mathdefault{0.05}$ -->
      <g transform="translate(32.511384 79.114184) scale(0.1 -0.1)">
       <use xlink:href="#CMR17-30" transform="scale(0.996264)"/>
       <use xlink:href="#CMMI12-3a" transform="translate(45.690477 0) scale(0.996264)"/>
       <use xlink:href="#CMR17-30" transform="translate(72.787654 0) scale(0.996264)"/>
       <use xlink:href="#CMR17-35" transform="translate(118.478131 0) scale(0.996264)"/>
      </g>
     </g>
    </g>
    <g id="ytick_7">
     <g id="line2d_21">
      <path d="M 57.222798 46.66424 
L 277.2 46.66424 
" clip-path="url(#p7b29278711)" style="fill: none; stroke: #b0b0b0; stroke-width: 0.8; stroke-linecap: square"/>
     </g>
     <g id="line2d_22">
      <g>
       <use xlink:href="#m4a5de821cf" x="57.222798" y="46.66424" style="stroke: #000000; stroke-width: 0.8"/>
      </g>
     </g>
     <g id="text_12">
      <!-- $\mathdefault{0.10}$ -->
      <g transform="translate(32.511384 50.123489) scale(0.1 -0.1)">
       <use xlink:href="#CMR17-30" transform="scale(0.996264)"/>
       <use xlink:href="#CMMI12-3a" transform="translate(45.690477 0) scale(0.996264)"/>
       <use xlink:href="#CMR17-31" transform="translate(72.787654 0) scale(0.996264)"/>
       <use xlink:href="#CMR17-30" transform="translate(118.478131 0) scale(0.996264)"/>
      </g>
     </g>
    </g>
    <g id="ytick_8">
     <g id="line2d_23">
      <path d="M 57.222798 17.673545 
L 277.2 17.673545 
" clip-path="url(#p7b29278711)" style="fill: none; stroke: #b0b0b0; stroke-width: 0.8; stroke-linecap: square"/>
     </g>
     <g id="line2d_24">
      <g>
       <use xlink:href="#m4a5de821cf" x="57.222798" y="17.673545" style="stroke: #000000; stroke-width: 0.8"/>
      </g>
     </g>
     <g id="text_13">
      <!-- $\mathdefault{0.15}$ -->
      <g transform="translate(32.511384 21.132794) scale(0.1 -0.1)">
       <use xlink:href="#CMR17-30" transform="scale(0.996264)"/>
       <use xlink:href="#CMMI12-3a" transform="translate(45.690477 0) scale(0.996264)"/>
       <use xlink:href="#CMR17-31" transform="translate(72.787654 0) scale(0.996264)"/>
       <use xlink:href="#CMR17-35" transform="translate(118.478131 0) scale(0.996264)"/>
      </g>
     </g>
    </g>
    <g id="text_14">
     <!-- Shear force [N] -->
     <g transform="translate(18.27198 154.29715) rotate(-90) scale(0.1 -0.1)">
      <defs>
       <path id="CMR17-53" d="M 2803 4290 
C 2803 4404 2797 4411 2758 4411 
C 2720 4411 2707 4385 2682 4328 
L 2490 3907 
C 2246 4257 1875 4416 1472 4416 
C 819 4416 294 3901 294 3253 
C 294 3056 339 2776 557 2510 
C 794 2218 1018 2167 1530 2033 
C 1722 1982 2042 1899 2106 1874 
C 2470 1722 2662 1341 2662 985 
C 2662 527 2336 38 1779 38 
C 1094 38 454 419 410 1311 
C 403 1413 397 1419 352 1419 
C 301 1419 294 1413 294 1285 
L 294 -1 
C 294 -115 301 -122 339 -122 
C 384 -122 397 -90 486 108 
C 493 127 493 140 614 381 
C 934 -39 1472 -128 1779 -128 
C 2477 -128 2970 451 2970 1124 
C 2970 1454 2848 1708 2778 1823 
C 2509 2230 2221 2306 1914 2382 
C 1869 2402 1856 2402 1498 2490 
C 1152 2579 1005 2624 845 2796 
C 666 2992 602 3196 602 3399 
C 602 3812 934 4263 1478 4263 
C 2157 4263 2579 3786 2675 2993 
C 2694 2878 2701 2872 2746 2872 
C 2803 2872 2803 2891 2803 2999 
L 2803 4290 
z
" transform="scale(0.015625)"/>
       <path id="CMR17-68" d="M 2656 1933 
C 2656 2259 2592 2790 1837 2790 
C 1312 2790 1056 2368 979 2157 
L 973 2157 
L 973 4396 
L 211 4326 
L 211 4160 
C 589 4160 646 4122 646 3817 
L 646 426 
C 646 184 621 153 211 153 
L 211 -13 
C 365 0 646 0 813 0 
C 979 0 1267 0 1421 -13 
L 1421 153 
C 1011 153 986 178 986 428 
L 986 1658 
C 986 2247 1344 2688 1792 2688 
C 2266 2688 2317 2266 2317 1958 
L 2317 428 
C 2317 184 2291 153 1882 153 
L 1882 -13 
C 2035 0 2317 0 2483 0 
C 2650 0 2938 0 3091 -13 
L 3091 153 
C 2682 153 2656 178 2656 428 
L 2656 1933 
z
" transform="scale(0.015625)"/>
       <path id="CMR17-61" d="M 2304 1653 
C 2304 2072 2304 2294 2035 2543 
C 1798 2752 1523 2816 1306 2816 
C 800 2816 435 2407 435 1971 
C 435 1728 627 1728 666 1728 
C 749 1728 896 1778 896 1954 
C 896 2112 774 2181 666 2181 
C 640 2181 608 2174 589 2168 
C 723 2592 1069 2714 1293 2714 
C 1613 2714 1965 2429 1965 1885 
L 1965 1600 
C 1587 1600 1133 1549 774 1357 
C 371 1133 256 813 256 570 
C 256 77 832 -64 1171 -64 
C 1523 -64 1850 139 1990 511 
C 2003 233 2182 -18 2464 -18 
C 2598 -18 2938 70 2938 567 
L 2938 920 
L 2822 920 
L 2822 562 
C 2822 178 2650 128 2566 128 
C 2304 128 2304 458 2304 738 
L 2304 1653 
z
M 1965 870 
C 1965 317 1568 38 1216 38 
C 896 38 646 275 646 570 
C 646 761 730 1100 1101 1305 
C 1408 1478 1760 1504 1965 1504 
L 1965 870 
z
" transform="scale(0.015625)"/>
       <path id="CMR17-72" d="M 960 1497 
C 960 2112 1222 2688 1702 2688 
C 1747 2688 1792 2682 1837 2662 
C 1837 2662 1696 2617 1696 2452 
C 1696 2298 1818 2234 1914 2234 
C 1990 2234 2131 2279 2131 2458 
C 2131 2663 1926 2790 1709 2790 
C 1222 2790 1011 2317 947 2093 
L 941 2093 
L 941 2790 
L 198 2720 
L 198 2554 
C 576 2554 634 2515 634 2208 
L 634 428 
C 634 184 608 153 198 153 
L 198 -13 
C 352 0 646 0 813 0 
C 998 0 1325 0 1498 -13 
L 1498 153 
C 1037 153 960 153 960 440 
L 960 1497 
z
" transform="scale(0.015625)"/>
       <path id="CMR17-66" d="M 979 2560 
L 1709 2560 
L 1709 2725 
L 966 2725 
L 966 3494 
C 966 4022 1235 4352 1510 4352 
C 1594 4352 1690 4327 1754 4282 
C 1702 4269 1568 4225 1568 4067 
C 1568 3901 1696 3850 1786 3850 
C 1875 3850 2003 3901 2003 4067 
C 2003 4308 1773 4454 1517 4454 
C 1152 4454 653 4156 653 3481 
L 653 2725 
L 141 2725 
L 141 2560 
L 653 2560 
L 653 427 
C 653 184 627 153 218 153 
L 218 -13 
C 371 0 666 0 832 0 
C 1018 0 1344 0 1517 -13 
L 1517 153 
C 1056 153 979 153 979 439 
L 979 2560 
z
" transform="scale(0.015625)"/>
       <path id="CMR17-6f" d="M 2758 1356 
C 2758 2176 2163 2816 1466 2816 
C 768 2816 173 2176 173 1356 
C 173 551 768 -64 1466 -64 
C 2163 -64 2758 551 2758 1356 
z
M 1466 51 
C 1165 51 909 230 762 480 
C 602 767 582 1126 582 1408 
C 582 1677 595 2010 762 2298 
C 890 2509 1139 2714 1466 2714 
C 1754 2714 1997 2554 2150 2330 
C 2349 2029 2349 1607 2349 1408 
C 2349 1158 2336 775 2163 467 
C 1984 173 1709 51 1466 51 
z
" transform="scale(0.015625)"/>
       <path id="CMR17-63" d="M 2234 2240 
C 2112 2240 1933 2240 1933 2017 
C 1933 1838 2080 1787 2163 1787 
C 2208 1787 2394 1807 2394 2024 
C 2394 2467 1958 2803 1466 2803 
C 787 2803 211 2178 211 1363 
C 211 516 813 -64 1466 -64 
C 2259 -64 2458 677 2458 748 
C 2458 774 2451 793 2406 793 
C 2362 793 2355 787 2330 703 
C 2163 180 1798 51 1523 51 
C 1114 51 621 427 621 1369 
C 621 2338 1094 2688 1472 2688 
C 1722 2688 2093 2573 2234 2240 
z
" transform="scale(0.015625)"/>
       <path id="CMR17-4e" d="M 1312 4250 
C 1267 4320 1261 4320 1139 4320 
L 326 4320 
L 326 4160 
L 448 4160 
C 704 4160 819 4129 838 4122 
L 838 610 
C 838 451 838 153 326 153 
L 326 -13 
C 474 0 742 0 902 0 
C 1062 0 1331 0 1478 -13 
L 1478 153 
C 966 153 966 451 966 610 
L 966 4033 
C 1011 3995 1011 3982 1056 3919 
L 3430 76 
C 3475 0 3494 0 3526 0 
C 3590 0 3590 19 3590 139 
L 3590 3705 
C 3590 3863 3590 4160 4102 4160 
L 4102 4326 
C 3955 4320 3686 4320 3526 4320 
C 3366 4320 3098 4320 2950 4326 
L 2950 4160 
C 3462 4160 3462 3862 3462 3703 
L 3462 763 
L 1312 4250 
z
" transform="scale(0.015625)"/>
      </defs>
      <use xlink:href="#CMR17-53" transform="scale(0.996264)"/>
      <use xlink:href="#CMR17-68" transform="translate(50.89537 0) scale(0.996264)"/>
      <use xlink:href="#CMR17-65" transform="translate(101.79074 0) scale(0.996264)"/>
      <use xlink:href="#CMR17-61" transform="translate(142.2764 0) scale(0.996264)"/>
      <use xlink:href="#CMR17-72" transform="translate(187.966877 0) scale(0.996264)"/>
      <use xlink:href="#CMR17-66" transform="translate(253.323611 0) scale(0.996264)"/>
      <use xlink:href="#CMR17-6f" transform="translate(280.797124 0) scale(0.996264)"/>
      <use xlink:href="#CMR17-72" transform="translate(326.487601 0) scale(0.996264)"/>
      <use xlink:href="#CMR17-63" transform="translate(361.768369 0) scale(0.996264)"/>
      <use xlink:href="#CMR17-65" transform="translate(402.254029 0) scale(0.996264)"/>
      <use xlink:href="#CMR17-5b" transform="translate(472.815656 0) scale(0.996264)"/>
      <use xlink:href="#CMR17-4e" transform="translate(497.686714 0) scale(0.996264)"/>
      <use xlink:href="#CMR17-5d" transform="translate(566.759144 0) scale(0.996264)"/>
     </g>
    </g>
   </g>
   <g id="line2d_25">
    <path d="M 67.221762 78.589408 
L 95.79023 78.589408 
L 95.904503 181.961416 
L 124.358697 181.961416 
L 124.472971 120.478511 
L 152.927165 120.478511 
L 153.041439 157.355494 
L 181.495633 157.355494 
L 181.609907 93.899027 
L 210.064101 93.899027 
L 210.178375 69.052141 
L 238.632568 69.052141 
L 238.746842 134.946016 
L 267.201036 134.946016 
L 267.201036 134.946016 
" clip-path="url(#p7b29278711)" style="fill: none; stroke: #1f77b4; stroke-width: 1.5; stroke-linecap: square"/>
    <defs>
     <path id="ma76c297821" d="M 0 2.5 
C 0.663008 2.5 1.29895 2.236584 1.767767 1.767767 
C 2.236584 1.29895 2.5 0.663008 2.5 0 
C 2.5 -0.663008 2.236584 -1.29895 1.767767 -1.767767 
C 1.29895 -2.236584 0.663008 -2.5 0 -2.5 
C -0.663008 -2.5 -1.29895 -2.236584 -1.767767 -1.767767 
C -2.236584 -1.29895 -2.5 -0.663008 -2.5 0 
C -2.5 0.663008 -2.236584 1.29895 -1.767767 1.767767 
C -1.29895 2.236584 -0.663008 2.5 0 2.5 
z
" style="stroke: #1f77b4"/>
    </defs>
    <g clip-path="url(#p7b29278711)">
     <use xlink:href="#ma76c297821" x="67.221762" y="78.589408" style="fill: #1f77b4; stroke: #1f77b4"/>
     <use xlink:href="#ma76c297821" x="72.935455" y="78.589408" style="fill: #1f77b4; stroke: #1f77b4"/>
     <use xlink:href="#ma76c297821" x="78.649149" y="78.589408" style="fill: #1f77b4; stroke: #1f77b4"/>
     <use xlink:href="#ma76c297821" x="84.362842" y="78.589408" style="fill: #1f77b4; stroke: #1f77b4"/>
     <use xlink:href="#ma76c297821" x="90.076536" y="78.589408" style="fill: #1f77b4; stroke: #1f77b4"/>
     <use xlink:href="#ma76c297821" x="95.79023" y="78.589408" style="fill: #1f77b4; stroke: #1f77b4"/>
     <use xlink:href="#ma76c297821" x="101.503923" y="181.961416" style="fill: #1f77b4; stroke: #1f77b4"/>
     <use xlink:href="#ma76c297821" x="107.217617" y="181.961416" style="fill: #1f77b4; stroke: #1f77b4"/>
     <use xlink:href="#ma76c297821" x="112.93131" y="181.961416" style="fill: #1f77b4; stroke: #1f77b4"/>
     <use xlink:href="#ma76c297821" x="118.645004" y="181.961416" style="fill: #1f77b4; stroke: #1f77b4"/>
     <use xlink:href="#ma76c297821" x="124.358697" y="181.961416" style="fill: #1f77b4; stroke: #1f77b4"/>
     <use xlink:href="#ma76c297821" x="130.072391" y="120.478511" style="fill: #1f77b4; stroke: #1f77b4"/>
     <use xlink:href="#ma76c297821" x="135.786084" y="120.478511" style="fill: #1f77b4; stroke: #1f77b4"/>
     <use xlink:href="#ma76c297821" x="141.499778" y="120.478511" style="fill: #1f77b4; stroke: #1f77b4"/>
     <use xlink:href="#ma76c297821" x="147.213472" y="120.478511" style="fill: #1f77b4; stroke: #1f77b4"/>
     <use xlink:href="#ma76c297821" x="152.927165" y="120.478511" style="fill: #1f77b4; stroke: #1f77b4"/>
     <use xlink:href="#ma76c297821" x="158.640859" y="157.355494" style="fill: #1f77b4; stroke: #1f77b4"/>
     <use xlink:href="#ma76c297821" x="164.354552" y="157.355494" style="fill: #1f77b4; stroke: #1f77b4"/>
     <use xlink:href="#ma76c297821" x="170.068246" y="157.355494" style="fill: #1f77b4; stroke: #1f77b4"/>
     <use xlink:href="#ma76c297821" x="175.781939" y="157.355494" style="fill: #1f77b4; stroke: #1f77b4"/>
     <use xlink:href="#ma76c297821" x="181.495633" y="157.355494" style="fill: #1f77b4; stroke: #1f77b4"/>
     <use xlink:href="#ma76c297821" x="187.209326" y="93.899027" style="fill: #1f77b4; stroke: #1f77b4"/>
     <use xlink:href="#ma76c297821" x="192.92302" y="93.899027" style="fill: #1f77b4; stroke: #1f77b4"/>
     <use xlink:href="#ma76c297821" x="198.636714" y="93.899027" style="fill: #1f77b4; stroke: #1f77b4"/>
     <use xlink:href="#ma76c297821" x="204.350407" y="93.899027" style="fill: #1f77b4; stroke: #1f77b4"/>
     <use xlink:href="#ma76c297821" x="210.064101" y="93.899027" style="fill: #1f77b4; stroke: #1f77b4"/>
     <use xlink:href="#ma76c297821" x="215.777794" y="69.052141" style="fill: #1f77b4; stroke: #1f77b4"/>
     <use xlink:href="#ma76c297821" x="221.491488" y="69.052141" style="fill: #1f77b4; stroke: #1f77b4"/>
     <use xlink:href="#ma76c297821" x="227.205181" y="69.052141" style="fill: #1f77b4; stroke: #1f77b4"/>
     <use xlink:href="#ma76c297821" x="232.918875" y="69.052141" style="fill: #1f77b4; stroke: #1f77b4"/>
     <use xlink:href="#ma76c297821" x="238.632568" y="69.052141" style="fill: #1f77b4; stroke: #1f77b4"/>
     <use xlink:href="#ma76c297821" x="244.346262" y="134.946016" style="fill: #1f77b4; stroke: #1f77b4"/>
     <use xlink:href="#ma76c297821" x="250.059956" y="134.946016" style="fill: #1f77b4; stroke: #1f77b4"/>
     <use xlink:href="#ma76c297821" x="255.773649" y="134.946016" style="fill: #1f77b4; stroke: #1f77b4"/>
     <use xlink:href="#ma76c297821" x="261.487343" y="134.946016" style="fill: #1f77b4; stroke: #1f77b4"/>
     <use xlink:href="#ma76c297821" x="267.201036" y="134.946016" style="fill: #1f77b4; stroke: #1f77b4"/>
    </g>
   </g>
   <g id="line2d_26">
    <path d="M 67.221762 198.401943 
L 95.79023 198.401943 
L 95.904503 164.109132 
L 124.358697 164.109132 
L 124.472971 54.445318 
L 152.927165 54.445318 
L 153.041439 87.958018 
L 181.495633 87.958018 
L 181.609907 114.820107 
L 210.064101 114.820107 
L 210.178375 116.284091 
L 238.632568 116.284091 
L 238.746842 181.359219 
L 267.201036 181.359219 
L 267.201036 181.359219 
" clip-path="url(#p7b29278711)" style="fill: none; stroke: #ff7f0e; stroke-width: 1.5; stroke-linecap: square"/>
    <defs>
     <path id="m56de839465" d="M 0 2.5 
C 0.663008 2.5 1.29895 2.236584 1.767767 1.767767 
C 2.236584 1.29895 2.5 0.663008 2.5 0 
C 2.5 -0.663008 2.236584 -1.29895 1.767767 -1.767767 
C 1.29895 -2.236584 0.663008 -2.5 0 -2.5 
C -0.663008 -2.5 -1.29895 -2.236584 -1.767767 -1.767767 
C -2.236584 -1.29895 -2.5 -0.663008 -2.5 0 
C -2.5 0.663008 -2.236584 1.29895 -1.767767 1.767767 
C -1.29895 2.236584 -0.663008 2.5 0 2.5 
z
" style="stroke: #ff7f0e"/>
    </defs>
    <g clip-path="url(#p7b29278711)">
     <use xlink:href="#m56de839465" x="67.221762" y="198.401943" style="fill: #ff7f0e; stroke: #ff7f0e"/>
     <use xlink:href="#m56de839465" x="72.935455" y="198.401943" style="fill: #ff7f0e; stroke: #ff7f0e"/>
     <use xlink:href="#m56de839465" x="78.649149" y="198.401943" style="fill: #ff7f0e; stroke: #ff7f0e"/>
     <use xlink:href="#m56de839465" x="84.362842" y="198.401943" style="fill: #ff7f0e; stroke: #ff7f0e"/>
     <use xlink:href="#m56de839465" x="90.076536" y="198.401943" style="fill: #ff7f0e; stroke: #ff7f0e"/>
     <use xlink:href="#m56de839465" x="95.79023" y="198.401943" style="fill: #ff7f0e; stroke: #ff7f0e"/>
     <use xlink:href="#m56de839465" x="101.503923" y="164.109132" style="fill: #ff7f0e; stroke: #ff7f0e"/>
     <use xlink:href="#m56de839465" x="107.217617" y="164.109132" style="fill: #ff7f0e; stroke: #ff7f0e"/>
     <use xlink:href="#m56de839465" x="112.93131" y="164.109132" style="fill: #ff7f0e; stroke: #ff7f0e"/>
     <use xlink:href="#m56de839465" x="118.645004" y="164.109132" style="fill: #ff7f0e; stroke: #ff7f0e"/>
     <use xlink:href="#m56de839465" x="124.358697" y="164.109132" style="fill: #ff7f0e; stroke: #ff7f0e"/>
     <use xlink:href="#m56de839465" x="130.072391" y="54.445318" style="fill: #ff7f0e; stroke: #ff7f0e"/>
     <use xlink:href="#m56de839465" x="135.786084" y="54.445318" style="fill: #ff7f0e; stroke: #ff7f0e"/>
     <use xlink:href="#m56de839465" x="141.499778" y="54.445318" style="fill: #ff7f0e; stroke: #ff7f0e"/>
     <use xlink:href="#m56de839465" x="147.213472" y="54.445318" style="fill: #ff7f0e; stroke: #ff7f0e"/>
     <use xlink:href="#m56de839465" x="152.927165" y="54.445318" style="fill: #ff7f0e; stroke: #ff7f0e"/>
     <use xlink:href="#m56de839465" x="158.640859" y="87.958018" style="fill: #ff7f0e; stroke: #ff7f0e"/>
     <use xlink:href="#m56de839465" x="164.354552" y="87.958018" style="fill: #ff7f0e; stroke: #ff7f0e"/>
     <use xlink:href="#m56de839465" x="170.068246" y="87.958018" style="fill: #ff7f0e; stroke: #ff7f0e"/>
     <use xlink:href="#m56de839465" x="175.781939" y="87.958018" style="fill: #ff7f0e; stroke: #ff7f0e"/>
     <use xlink:href="#m56de839465" x="181.495633" y="87.958018" style="fill: #ff7f0e; stroke: #ff7f0e"/>
     <use xlink:href="#m56de839465" x="187.209326" y="114.820107" style="fill: #ff7f0e; stroke: #ff7f0e"/>
     <use xlink:href="#m56de839465" x="192.92302" y="114.820107" style="fill: #ff7f0e; stroke: #ff7f0e"/>
     <use xlink:href="#m56de839465" x="198.636714" y="114.820107" style="fill: #ff7f0e; stroke: #ff7f0e"/>
     <use xlink:href="#m56de839465" x="204.350407" y="114.820107" style="fill: #ff7f0e; stroke: #ff7f0e"/>
     <use xlink:href="#m56de839465" x="210.064101" y="114.820107" style="fill: #ff7f0e; stroke: #ff7f0e"/>
     <use xlink:href="#m56de839465" x="215.777794" y="116.284091" style="fill: #ff7f0e; stroke: #ff7f0e"/>
     <use xlink:href="#m56de839465" x="221.491488" y="116.284091" style="fill: #ff7f0e; stroke: #ff7f0e"/>
     <use xlink:href="#m56de839465" x="227.205181" y="116.284091" style="fill: #ff7f0e; stroke: #ff7f0e"/>
     <use xlink:href="#m56de839465" x="232.918875" y="116.284091" style="fill: #ff7f0e; stroke: #ff7f0e"/>
     <use xlink:href="#m56de839465" x="238.632568" y="116.284091" style="fill: #ff7f0e; stroke: #ff7f0e"/>
     <use xlink:href="#m56de839465" x="244.346262" y="181.359219" style="fill: #ff7f0e; stroke: #ff7f0e"/>
     <use xlink:href="#m56de839465" x="250.059956" y="181.359219" style="fill: #ff7f0e; stroke: #ff7f0e"/>
     <use xlink:href="#m56de839465" x="255.773649" y="181.359219" style="fill: #ff7f0e; stroke: #ff7f0e"/>
     <use xlink:href="#m56de839465" x="261.487343" y="181.359219" style="fill: #ff7f0e; stroke: #ff7f0e"/>
     <use xlink:href="#m56de839465" x="267.201036" y="181.359219" style="fill: #ff7f0e; stroke: #ff7f0e"/>
    </g>
   </g>
   <g id="line2d_27">
    <path d="M 67.221762 107.045109 
L 67.278899 95.848167 
L 67.45031 111.52631 
L 67.507446 111.502712 
L 68.250227 108.39147 
L 68.821596 107.121422 
L 69.564376 106.058173 
L 69.850061 105.910882 
L 69.964335 106.006691 
L 70.649978 105.533159 
L 71.392758 105.332669 
L 72.364086 105.316909 
L 72.935455 105.399549 
L 73.106866 105.168854 
L 73.849646 105.275038 
L 74.306742 105.207851 
L 74.7067 105.42824 
L 75.44948 105.210375 
L 75.678028 105.120813 
L 76.077987 105.151094 
L 76.706493 105.402244 
L 76.877904 105.285235 
L 77.106452 105.083664 
L 77.449273 105.167248 
L 77.849232 105.388125 
L 78.134916 105.236595 
L 78.420601 105.093636 
L 78.706286 105.214938 
L 78.991971 105.341588 
L 79.334792 105.177628 
L 79.620477 105.110262 
L 80.363257 105.210406 
L 80.706079 105.110505 
L 81.505996 105.160706 
L 81.848817 105.120343 
L 82.477324 105.18013 
L 82.934419 105.118419 
L 83.505788 105.167096 
L 84.077158 105.126683 
L 84.59139 105.13921 
L 85.16276 105.118946 
L 85.734129 105.104213 
L 86.305498 105.115792 
L 86.991141 105.071962 
L 94.133258 104.998121 
L 95.79023 104.983555 
L 95.847366 145.56673 
L 95.904503 110.542468 
L 96.018777 97.850869 
L 96.075914 98.147924 
L 96.53301 103.886844 
L 96.990105 106.681846 
L 97.390064 107.941097 
L 97.847159 108.72545 
L 98.418529 109.163268 
L 99.047035 109.424702 
L 99.218446 109.328835 
L 100.304047 109.712585 
L 100.704006 109.804011 
L 104.075085 110.716208 
L 104.303633 110.606789 
L 105.217824 110.974406 
L 105.503509 111.060547 
L 106.931932 111.356417 
L 107.389027 111.371438 
L 107.674712 111.33763 
L 108.131808 111.563354 
L 108.474629 111.624264 
L 109.103136 111.660731 
L 109.617368 111.830314 
L 110.245874 111.885568 
L 110.760107 112.02362 
L 111.331476 112.083804 
L 111.845708 112.211259 
L 112.417078 112.279776 
L 112.988447 112.391099 
L 113.50268 112.471037 
L 114.074049 112.568988 
L 114.645418 112.674473 
L 115.273925 112.749201 
L 116.873759 113.035639 
L 120.130564 113.513754 
L 124.358697 114.080125 
L 124.415834 107.461928 
L 124.472971 112.252806 
L 124.530108 113.330005 
L 124.587245 113.289248 
L 124.930067 112.006456 
L 125.444299 111.270908 
L 126.129942 110.589606 
L 126.301353 110.763838 
L 126.929859 110.450931 
L 127.558366 110.417005 
L 128.358283 110.601892 
L 128.758241 110.646387 
L 128.929652 110.582977 
L 129.558158 110.817222 
L 130.072391 110.967137 
L 130.243802 111.143479 
L 130.815171 111.236918 
L 130.986582 111.21439 
L 131.21513 111.061099 
L 131.843636 111.382234 
L 132.072184 111.505313 
L 132.415005 111.521804 
L 132.70069 111.359084 
L 132.986375 111.445979 
L 133.500607 111.798094 
L 133.786292 111.646543 
L 134.014839 111.629086 
L 134.300524 111.840239 
L 134.586209 112.006161 
L 134.871893 111.914069 
L 135.157578 111.880148 
L 135.957495 112.138068 
L 136.24318 112.109791 
L 137.100234 112.326015 
L 137.385919 112.354498 
L 138.014425 112.561382 
L 138.47152 112.570806 
L 139.100027 112.743396 
L 139.557122 112.779766 
L 140.128492 112.927543 
L 140.642724 112.981013 
L 141.214093 113.102916 
L 141.728326 113.174444 
L 142.299695 113.276236 
L 142.871064 113.377823 
L 143.499571 113.453788 
L 145.099405 113.735326 
L 148.584758 114.231911 
L 151.384468 114.616007 
L 152.927165 114.807362 
L 152.984302 139.068938 
L 153.155713 95.406364 
L 153.21285 95.450185 
L 153.841356 101.700999 
L 154.298452 103.8676 
L 154.755547 104.976312 
L 155.212643 105.597421 
L 155.841149 106.006863 
L 156.18397 106.099042 
L 156.355381 106.039595 
L 157.212435 106.349571 
L 158.869406 106.681212 
L 159.72646 107.008163 
L 159.955008 107.022689 
L 160.412104 107.028033 
L 161.212021 107.029239 
L 161.440569 106.967033 
L 162.183349 107.156163 
L 162.469033 107.334119 
L 163.783183 107.354288 
L 164.068868 107.4926 
L 164.468826 107.45107 
L 164.754511 107.399112 
L 165.154469 107.570111 
L 165.497291 107.633432 
L 166.182934 107.612462 
L 166.64003 107.746138 
L 167.325673 107.748872 
L 167.725631 107.853982 
L 168.468412 107.886085 
L 168.86837 107.952243 
L 169.496876 107.976602 
L 170.011109 108.045275 
L 170.525341 108.071056 
L 171.096711 108.143282 
L 171.66808 108.197051 
L 172.239449 108.235773 
L 172.810819 108.31396 
L 174.010694 108.426373 
L 181.495633 109.013032 
L 181.55277 112.867217 
L 181.724181 92.420083 
L 182.524098 96.602048 
L 183.095467 97.908881 
L 183.666836 98.691275 
L 183.895384 98.923922 
L 184.009658 98.796928 
L 184.752438 99.345813 
L 185.380945 99.481435 
L 186.237999 99.416179 
L 186.866505 99.351524 
L 187.037916 99.513911 
L 187.780696 99.289591 
L 188.237791 99.182408 
L 188.466339 98.957802 
L 189.323393 99.162291 
L 189.494804 99.195648 
L 190.066173 98.926551 
L 190.294721 98.79047 
L 190.808953 98.960491 
L 191.037501 98.962383 
L 191.894555 98.719791 
L 192.237377 98.802452 
L 193.208705 98.657261 
L 193.551526 98.597295 
L 194.008622 98.46457 
L 194.694265 98.445423 
L 195.151361 98.365426 
L 195.72273 98.342667 
L 196.236962 98.261346 
L 196.808332 98.220643 
L 197.379701 98.162254 
L 197.95107 98.089895 
L 198.579577 98.057019 
L 201.036465 97.801787 
L 202.522025 97.664332 
L 204.86464 97.469629 
L 210.064101 97.055709 
L 210.121238 77.920768 
L 210.292648 116.707693 
L 210.406922 115.505664 
L 210.749744 111.609386 
L 211.206839 108.832883 
L 211.663935 107.313992 
L 212.178167 106.350097 
L 212.749537 105.80258 
L 213.206632 105.562105 
L 213.320906 105.660801 
L 214.292234 105.248256 
L 216.006342 104.957504 
L 216.634848 104.85465 
L 216.806259 104.776458 
L 217.491902 104.760731 
L 218.063272 104.757842 
L 218.406093 104.923918 
L 219.948791 104.641645 
L 220.291612 104.768645 
L 220.748708 104.622987 
L 221.034392 104.527441 
L 221.377214 104.615224 
L 221.662899 104.689779 
L 222.062857 104.520201 
L 222.348542 104.477649 
L 223.148459 104.509362 
L 223.491281 104.431683 
L 224.291198 104.439092 
L 224.634019 104.391897 
L 225.319663 104.408589 
L 225.776758 104.356849 
L 226.348127 104.367876 
L 226.86236 104.313547 
L 227.433729 104.308852 
L 227.947962 104.270834 
L 228.519331 104.252501 
L 229.0907 104.234136 
L 229.719207 104.181352 
L 231.14763 104.137958 
L 232.347506 104.098504 
L 235.661448 103.962954 
L 238.632568 103.851327 
L 238.689705 130.624106 
L 238.861116 90.715284 
L 239.489623 98.269839 
L 239.946718 100.451866 
L 240.46095 101.801792 
L 240.860909 102.380808 
L 241.489415 102.911033 
L 241.7751 103.005327 
L 241.889374 102.939592 
L 242.746428 103.315108 
L 243.717756 103.476484 
L 246.574603 103.787467 
L 246.688876 103.709206 
L 246.860287 103.59418 
L 247.603067 103.711116 
L 248.288711 103.855377 
L 248.574395 103.76536 
L 248.802943 103.718839 
L 249.317175 103.872046 
L 249.60286 103.927288 
L 249.945682 103.827799 
L 250.231366 103.778441 
L 250.631325 103.939689 
L 250.974147 103.946116 
L 251.545516 103.863139 
L 252.116885 103.970281 
L 252.631118 103.905571 
L 253.259624 103.986112 
L 253.716719 103.9516 
L 254.345226 104.01511 
L 254.802321 103.997145 
L 255.430828 104.042957 
L 255.94506 104.052896 
L 256.516429 104.071208 
L 257.087799 104.102208 
L 257.716305 104.09259 
L 260.058919 104.171145 
L 261.658754 104.227341 
L 263.601409 104.280694 
L 267.201036 104.359791 
L 267.201036 104.359791 
" clip-path="url(#p7b29278711)" style="fill: none; stroke: #1f77b4; stroke-width: 1.5; stroke-linecap: square"/>
    <defs>
     <path id="mbf21ab9ba2" d="M -0 2.5 
L 2.5 -2.5 
L -2.5 -2.5 
z
" style="stroke: #1f77b4; stroke-linejoin: miter"/>
    </defs>
    <g clip-path="url(#p7b29278711)">
     <use xlink:href="#mbf21ab9ba2" x="67.221762" y="107.045109" style="fill: #1f77b4; stroke: #1f77b4; stroke-linejoin: miter"/>
     <use xlink:href="#mbf21ab9ba2" x="72.935455" y="105.399549" style="fill: #1f77b4; stroke: #1f77b4; stroke-linejoin: miter"/>
     <use xlink:href="#mbf21ab9ba2" x="78.649149" y="105.173082" style="fill: #1f77b4; stroke: #1f77b4; stroke-linejoin: miter"/>
     <use xlink:href="#mbf21ab9ba2" x="84.362842" y="105.169282" style="fill: #1f77b4; stroke: #1f77b4; stroke-linejoin: miter"/>
     <use xlink:href="#mbf21ab9ba2" x="90.076536" y="105.040782" style="fill: #1f77b4; stroke: #1f77b4; stroke-linejoin: miter"/>
     <use xlink:href="#mbf21ab9ba2" x="95.79023" y="104.983555" style="fill: #1f77b4; stroke: #1f77b4; stroke-linejoin: miter"/>
     <use xlink:href="#mbf21ab9ba2" x="101.503923" y="110.030731" style="fill: #1f77b4; stroke: #1f77b4; stroke-linejoin: miter"/>
     <use xlink:href="#mbf21ab9ba2" x="107.217617" y="111.399741" style="fill: #1f77b4; stroke: #1f77b4; stroke-linejoin: miter"/>
     <use xlink:href="#mbf21ab9ba2" x="112.93131" y="112.392539" style="fill: #1f77b4; stroke: #1f77b4; stroke-linejoin: miter"/>
     <use xlink:href="#mbf21ab9ba2" x="118.645004" y="113.278682" style="fill: #1f77b4; stroke: #1f77b4; stroke-linejoin: miter"/>
     <use xlink:href="#mbf21ab9ba2" x="124.358697" y="114.080125" style="fill: #1f77b4; stroke: #1f77b4; stroke-linejoin: miter"/>
     <use xlink:href="#mbf21ab9ba2" x="130.072391" y="110.967137" style="fill: #1f77b4; stroke: #1f77b4; stroke-linejoin: miter"/>
     <use xlink:href="#mbf21ab9ba2" x="135.786084" y="112.196815" style="fill: #1f77b4; stroke: #1f77b4; stroke-linejoin: miter"/>
     <use xlink:href="#mbf21ab9ba2" x="141.499778" y="113.111707" style="fill: #1f77b4; stroke: #1f77b4; stroke-linejoin: miter"/>
     <use xlink:href="#mbf21ab9ba2" x="147.213472" y="114.0463" style="fill: #1f77b4; stroke: #1f77b4; stroke-linejoin: miter"/>
     <use xlink:href="#mbf21ab9ba2" x="152.927165" y="114.807362" style="fill: #1f77b4; stroke: #1f77b4; stroke-linejoin: miter"/>
     <use xlink:href="#mbf21ab9ba2" x="158.640859" y="106.638273" style="fill: #1f77b4; stroke: #1f77b4; stroke-linejoin: miter"/>
     <use xlink:href="#mbf21ab9ba2" x="164.354552" y="107.49819" style="fill: #1f77b4; stroke: #1f77b4; stroke-linejoin: miter"/>
     <use xlink:href="#mbf21ab9ba2" x="170.068246" y="108.037442" style="fill: #1f77b4; stroke: #1f77b4; stroke-linejoin: miter"/>
     <use xlink:href="#mbf21ab9ba2" x="175.781939" y="108.553906" style="fill: #1f77b4; stroke: #1f77b4; stroke-linejoin: miter"/>
     <use xlink:href="#mbf21ab9ba2" x="181.495633" y="109.013032" style="fill: #1f77b4; stroke: #1f77b4; stroke-linejoin: miter"/>
     <use xlink:href="#mbf21ab9ba2" x="187.209326" y="99.437359" style="fill: #1f77b4; stroke: #1f77b4; stroke-linejoin: miter"/>
     <use xlink:href="#mbf21ab9ba2" x="192.92302" y="98.574911" style="fill: #1f77b4; stroke: #1f77b4; stroke-linejoin: miter"/>
     <use xlink:href="#mbf21ab9ba2" x="198.636714" y="98.053611" style="fill: #1f77b4; stroke: #1f77b4; stroke-linejoin: miter"/>
     <use xlink:href="#mbf21ab9ba2" x="204.350407" y="97.502581" style="fill: #1f77b4; stroke: #1f77b4; stroke-linejoin: miter"/>
     <use xlink:href="#mbf21ab9ba2" x="210.064101" y="97.055709" style="fill: #1f77b4; stroke: #1f77b4; stroke-linejoin: miter"/>
     <use xlink:href="#mbf21ab9ba2" x="215.777794" y="104.991376" style="fill: #1f77b4; stroke: #1f77b4; stroke-linejoin: miter"/>
     <use xlink:href="#mbf21ab9ba2" x="221.491488" y="104.681179" style="fill: #1f77b4; stroke: #1f77b4; stroke-linejoin: miter"/>
     <use xlink:href="#mbf21ab9ba2" x="227.205181" y="104.349113" style="fill: #1f77b4; stroke: #1f77b4; stroke-linejoin: miter"/>
     <use xlink:href="#mbf21ab9ba2" x="232.918875" y="104.051855" style="fill: #1f77b4; stroke: #1f77b4; stroke-linejoin: miter"/>
     <use xlink:href="#mbf21ab9ba2" x="238.632568" y="103.851327" style="fill: #1f77b4; stroke: #1f77b4; stroke-linejoin: miter"/>
     <use xlink:href="#mbf21ab9ba2" x="244.346262" y="103.546663" style="fill: #1f77b4; stroke: #1f77b4; stroke-linejoin: miter"/>
     <use xlink:href="#mbf21ab9ba2" x="250.059956" y="103.780561" style="fill: #1f77b4; stroke: #1f77b4; stroke-linejoin: miter"/>
     <use xlink:href="#mbf21ab9ba2" x="255.773649" y="104.02229" style="fill: #1f77b4; stroke: #1f77b4; stroke-linejoin: miter"/>
     <use xlink:href="#mbf21ab9ba2" x="261.487343" y="104.228525" style="fill: #1f77b4; stroke: #1f77b4; stroke-linejoin: miter"/>
     <use xlink:href="#mbf21ab9ba2" x="267.201036" y="104.359791" style="fill: #1f77b4; stroke: #1f77b4; stroke-linejoin: miter"/>
    </g>
   </g>
   <g id="line2d_28">
    <path d="M 67.221762 118.438755 
L 67.278899 32.810072 
L 67.336036 94.308038 
L 67.45031 112.004081 
L 67.735994 106.221784 
L 67.907405 105.904038 
L 68.19309 106.09782 
L 68.878733 106.501514 
L 69.392965 106.658771 
L 69.507239 106.450956 
L 69.850061 107.047427 
L 69.907198 107.468185 
L 69.964335 107.32338 
L 70.192882 106.837446 
L 70.478567 106.839875 
L 72.47836 107.36432 
L 72.592634 107.505729 
L 72.935455 107.29525 
L 73.049729 106.773528 
L 73.335414 107.441295 
L 73.678235 107.519365 
L 73.906783 107.43027 
L 74.021057 107.339383 
L 74.363879 107.675148 
L 74.478153 108.126829 
L 74.820974 107.614585 
L 75.049522 107.740104 
L 75.335207 107.597248 
L 75.506617 107.211173 
L 75.792302 107.602313 
L 76.192261 108.092673 
L 76.306535 108.353744 
L 76.363671 108.29772 
L 76.706493 107.865812 
L 76.820767 107.750003 
L 76.992178 107.385965 
L 77.049315 107.445762 
L 77.620684 108.438122 
L 77.734958 108.342281 
L 78.24919 107.681464 
L 78.477738 108.012422 
L 78.877697 108.471048 
L 79.449066 107.955824 
L 80.077572 108.490353 
L 80.534668 108.151742 
L 80.877489 108.516819 
L 81.106037 108.627452 
L 81.734543 108.421899 
L 82.191639 108.7224 
L 82.763008 108.552737 
L 83.277241 108.822465 
L 83.84861 108.723727 
L 84.362842 108.927196 
L 84.877075 108.858043 
L 85.448444 109.03633 
L 85.90554 108.99338 
L 86.534046 109.149717 
L 86.991141 109.145984 
L 87.562511 109.275348 
L 88.076743 109.293314 
L 88.648113 109.393508 
L 89.162345 109.435497 
L 89.733714 109.514193 
L 90.305084 109.588469 
L 90.93359 109.637551 
L 92.41915 109.835486 
L 93.790437 109.994886 
L 95.618819 110.199777 
L 95.79023 110.220615 
L 95.847366 141.340503 
L 95.96164 23.800857 
L 96.247325 101.862467 
L 96.418736 108.020102 
L 96.53301 108.530488 
L 96.590147 108.48121 
L 97.561475 106.372953 
L 97.675748 106.593835 
L 97.732885 106.491004 
L 98.01857 106.113153 
L 98.589939 105.915748 
L 99.047035 105.811775 
L 99.161309 105.007645 
L 99.218446 105.202828 
L 99.446993 105.743132 
L 99.789815 105.863909 
L 100.304047 105.880001 
L 100.418321 105.700301 
L 100.761143 106.066311 
L 101.675334 106.459523 
L 101.789608 106.65539 
L 101.846745 106.610152 
L 102.132429 106.477992 
L 102.532388 106.536095 
L 102.646662 107.18572 
L 102.703799 107.007412 
L 102.87521 106.564999 
L 103.218031 106.545169 
L 103.446579 106.690414 
L 103.560853 106.708088 
L 104.075085 106.272907 
L 104.189359 105.633664 
L 104.246496 105.741067 
L 104.532181 106.508651 
L 104.875002 106.754476 
L 105.10355 106.750744 
L 105.274961 107.225234 
L 105.332098 107.096885 
L 105.560646 106.729077 
L 105.960604 106.638704 
L 106.132015 106.191503 
L 106.874795 107.339662 
L 106.931932 107.25875 
L 107.503301 106.331359 
L 107.674712 106.603735 
L 108.131808 107.357427 
L 108.303218 107.125105 
L 108.760314 106.571142 
L 109.331683 107.344694 
L 109.38882 107.293597 
L 109.903053 106.747079 
L 110.531559 107.310226 
L 110.988654 106.88716 
L 111.217202 107.124141 
L 111.560024 107.401948 
L 112.18853 107.100979 
L 112.645626 107.447923 
L 113.274132 107.223729 
L 113.67409 107.51137 
L 113.959775 107.341375 
L 114.24546 107.269557 
L 114.873966 107.520225 
L 115.273925 107.365161 
L 116.016705 107.54542 
L 116.359526 107.476128 
L 116.988033 107.660349 
L 117.445128 107.584405 
L 118.016497 107.740411 
L 118.473593 107.668778 
L 119.102099 107.803192 
L 119.559195 107.769322 
L 120.130564 107.882139 
L 120.644797 107.866763 
L 121.216166 107.94902 
L 121.730398 107.960671 
L 122.244631 108.026861 
L 122.816 108.050886 
L 123.330233 108.09653 
L 123.901602 108.137485 
L 124.358697 108.173017 
L 124.472971 131.547984 
L 124.530108 125.103825 
L 124.758656 106.186825 
L 124.930067 103.904924 
L 125.101478 103.542099 
L 125.444299 103.475461 
L 126.072805 103.384852 
L 126.129942 103.155377 
L 126.244216 103.984349 
L 126.301353 103.857092 
L 126.529901 103.438421 
L 126.872723 103.405555 
L 128.529694 103.544965 
L 128.643968 103.722476 
L 128.701104 103.56632 
L 128.815378 102.860461 
L 128.872515 102.995699 
L 129.101063 103.423048 
L 129.386748 103.426384 
L 129.843843 103.232605 
L 129.958117 103.106253 
L 130.129528 103.826391 
L 130.243802 103.601659 
L 130.472349 103.264535 
L 130.700897 103.268447 
L 130.872308 103.415598 
L 130.986582 103.116334 
L 131.100856 102.757157 
L 131.157993 102.833924 
L 131.38654 103.16643 
L 131.672225 103.125624 
L 131.900773 103.590016 
L 131.95791 103.502708 
L 132.186458 103.293403 
L 132.357868 103.139634 
L 132.586416 102.718242 
L 132.643553 102.763729 
L 133.272059 103.423207 
L 133.329196 103.35606 
L 133.843429 102.662845 
L 133.900566 102.709069 
L 134.414798 103.311472 
L 134.471935 103.263582 
L 135.043304 102.678286 
L 135.557537 103.150881 
L 136.186043 102.679233 
L 136.643138 103.020399 
L 137.328782 102.683145 
L 137.72874 102.894422 
L 138.357247 102.59624 
L 138.814342 102.775194 
L 139.385711 102.523666 
L 139.899944 102.662431 
L 140.414176 102.458218 
L 140.985546 102.555999 
L 141.499778 102.408119 
L 142.01401 102.478899 
L 142.58538 102.35387 
L 143.099612 102.383264 
L 143.613845 102.284282 
L 144.185214 102.292732 
L 144.699446 102.224048 
L 145.270816 102.207071 
L 145.785048 102.160938 
L 146.356418 102.125822 
L 146.927787 102.099894 
L 147.556293 102.029384 
L 149.841771 101.886948 
L 151.727289 101.768757 
L 152.927165 101.6934 
L 152.984302 177.363295 
L 153.098576 45.999871 
L 153.384261 101.57694 
L 153.555671 106.434902 
L 153.669945 106.820933 
L 153.727082 106.766725 
L 154.755547 104.720728 
L 154.869821 104.937216 
L 154.926958 104.848003 
L 155.212643 104.456309 
L 155.841149 104.200037 
L 156.126834 104.110789 
L 156.241107 103.284619 
L 156.355381 103.62306 
L 156.583929 104.014474 
L 156.983888 104.073918 
L 157.555257 104.048518 
L 157.669531 103.836039 
L 158.012352 104.154417 
L 158.98368 104.536826 
L 159.097954 104.557966 
L 159.383639 104.382661 
L 159.612187 104.399283 
L 159.72646 105.119436 
L 159.783597 104.991515 
L 160.069282 104.166896 
L 160.812062 104.419566 
L 161.154884 104.038649 
L 161.269158 103.432436 
L 161.326295 103.505984 
L 161.669116 104.115147 
L 162.240486 104.648365 
L 162.297623 104.871476 
L 162.35476 104.853642 
L 162.697581 104.136211 
L 163.040403 104.024377 
L 163.154677 103.705268 
L 163.211814 103.73729 
L 163.497498 104.120046 
L 163.726046 104.244801 
L 163.897457 104.642161 
L 163.954594 104.609631 
L 164.5831 103.702197 
L 164.640237 103.753832 
L 165.211606 104.574205 
L 165.268743 104.516299 
L 165.840113 103.770261 
L 166.411482 104.455483 
L 166.468619 104.390336 
L 166.982851 103.815545 
L 167.554221 104.352319 
L 168.12559 103.8774 
L 168.639822 104.289837 
L 169.211192 103.894125 
L 169.725424 104.225969 
L 170.296794 103.911988 
L 170.753889 104.192224 
L 171.439532 103.968331 
L 171.782354 104.151814 
L 172.068039 103.982303 
L 172.353723 103.886641 
L 172.98223 104.055399 
L 173.439325 103.894102 
L 174.010694 104.035718 
L 174.524927 103.899152 
L 175.039159 104.013178 
L 175.610529 103.901201 
L 176.067624 103.989148 
L 176.69613 103.899783 
L 177.153226 103.951322 
L 177.724595 103.878878 
L 178.238828 103.91608 
L 178.75306 103.85957 
L 179.324429 103.883785 
L 179.838662 103.851489 
L 180.410031 103.854541 
L 180.924264 103.841069 
L 181.495633 103.828229 
L 181.55277 125.106751 
L 181.667044 69.329437 
L 181.952728 103.016547 
L 182.124139 105.476406 
L 182.29555 105.670794 
L 183.78111 104.739774 
L 183.895384 104.797252 
L 183.952521 104.155659 
L 184.009658 104.171288 
L 184.238206 104.73789 
L 184.523891 104.781896 
L 186.466546 104.600042 
L 186.58082 104.840236 
L 186.637957 104.801972 
L 186.809368 104.621853 
L 186.866505 104.740251 
L 186.980779 105.220287 
L 187.266463 104.628374 
L 187.609285 104.627512 
L 187.89497 104.625421 
L 188.009244 104.452795 
L 188.066381 104.496013 
L 188.237791 104.585542 
L 188.352065 104.095263 
L 188.409202 104.154748 
L 188.694887 104.661745 
L 188.923435 104.814182 
L 189.037708 104.861629 
L 189.209119 104.803867 
L 189.38053 105.196153 
L 189.780489 104.519661 
L 190.009036 104.51341 
L 190.180447 104.244611 
L 190.580406 104.810046 
L 190.69468 104.883923 
L 190.86609 105.080278 
L 191.266049 104.593716 
L 191.494597 104.400836 
L 192.065966 104.987504 
L 192.523061 104.555281 
L 192.694472 104.523738 
L 193.265842 104.906732 
L 193.837211 104.599891 
L 194.351443 104.889325 
L 194.97995 104.676198 
L 195.437045 104.870562 
L 196.065551 104.716748 
L 196.522647 104.854981 
L 197.094016 104.729538 
L 197.608249 104.843305 
L 198.122481 104.746786 
L 198.693851 104.835985 
L 199.208083 104.779781 
L 199.722315 104.847001 
L 200.293685 104.80839 
L 200.807917 104.84661 
L 201.379286 104.832806 
L 201.950656 104.840182 
L 202.522025 104.862803 
L 203.150532 104.838868 
L 205.550283 104.885078 
L 206.978706 104.913029 
L 209.835553 104.93953 
L 210.064101 104.944744 
L 210.121238 44.544072 
L 210.235512 160.548086 
L 210.521196 107.050936 
L 210.692607 102.844699 
L 210.806881 102.597912 
L 210.978292 102.97412 
L 211.492524 104.151206 
L 211.721072 104.436146 
L 211.778209 104.385536 
L 211.835346 104.240695 
L 211.892483 104.333125 
L 212.178167 104.743465 
L 212.749537 104.979701 
L 213.149495 105.090508 
L 213.206632 105.249596 
L 213.263769 105.895793 
L 213.320906 105.801266 
L 213.549454 105.226017 
L 213.835138 105.141552 
L 214.349371 105.158468 
L 214.463645 105.397054 
L 214.863603 105.075949 
L 215.720657 104.838258 
L 215.834931 104.709019 
L 216.177753 104.921074 
L 216.577711 104.914077 
L 216.691985 104.33468 
L 216.749122 104.519804 
L 216.97767 104.925919 
L 217.320492 104.938881 
L 217.606176 104.848855 
L 218.063272 105.191595 
L 218.234682 105.846594 
L 218.577504 105.033433 
L 218.863189 104.892812 
L 219.091737 104.934584 
L 219.263147 104.479285 
L 219.320284 104.594197 
L 219.548832 104.987137 
L 219.948791 105.116767 
L 220.120201 105.537246 
L 220.862982 104.548605 
L 221.491488 105.528897 
L 221.548625 105.463225 
L 222.119994 104.643145 
L 222.7485 105.394898 
L 222.805637 105.316296 
L 223.262733 104.74073 
L 223.491281 105.009674 
L 223.834102 105.370313 
L 224.119787 105.049754 
L 224.405472 104.834447 
L 224.748293 105.218832 
L 224.976841 105.304936 
L 225.54821 104.929235 
L 226.062443 105.274287 
L 226.633812 104.982353 
L 227.148044 105.247141 
L 227.662277 105.001854 
L 228.233646 105.224219 
L 228.747879 105.047864 
L 229.262111 105.229946 
L 229.83348 105.089457 
L 230.290576 105.232795 
L 230.919082 105.126337 
L 231.376178 105.222969 
L 231.947547 105.137927 
L 232.461779 105.215974 
L 232.976012 105.151084 
L 233.547381 105.212217 
L 234.061614 105.177783 
L 234.632983 105.211824 
L 235.147215 105.201271 
L 235.718585 105.214661 
L 236.232817 105.221627 
L 236.804187 105.220385 
L 237.375556 105.247151 
L 238.518295 105.264062 
L 238.632568 105.265638 
L 238.689705 116.231398 
L 238.746842 20.899167 
L 238.803979 26.601756 
L 239.032527 97.640785 
L 239.203938 107.344217 
L 239.375349 108.356148 
L 239.546759 107.974707 
L 240.003855 106.924814 
L 240.403813 106.531957 
L 240.46095 106.739813 
L 240.518087 106.691734 
L 240.803772 106.337148 
L 241.375141 106.198912 
L 241.717963 106.156944 
L 241.832237 105.381999 
L 241.889374 105.532152 
L 242.117922 106.09172 
L 242.460743 106.211347 
L 243.089249 106.235382 
L 243.203523 106.087883 
L 243.546345 106.407648 
L 244.460536 106.764803 
L 244.57481 106.884526 
L 244.860494 106.731265 
L 245.146179 106.812593 
L 245.260453 107.469515 
L 245.546138 106.646998 
L 245.603275 106.666508 
L 246.288918 106.98875 
L 246.631739 106.754216 
L 246.746013 106.153063 
L 246.80315 106.172947 
L 247.203109 106.876311 
L 247.717341 107.374939 
L 247.831615 107.588674 
L 248.174437 106.975084 
L 248.460121 106.988489 
L 248.631532 106.635045 
L 248.688669 106.700357 
L 248.974354 107.077965 
L 249.202902 107.26461 
L 249.374312 107.58849 
L 249.888545 107.000218 
L 250.002819 106.833437 
L 250.059956 106.865552 
L 250.688462 107.654291 
L 251.259831 107.058259 
L 251.888338 107.677599 
L 252.40257 107.258078 
L 252.973939 107.766654 
L 253.488172 107.421017 
L 254.116678 107.80136 
L 254.516637 107.556876 
L 254.802321 107.792136 
L 255.088006 107.93508 
L 255.716512 107.776812 
L 256.173608 108.011616 
L 256.744977 107.886363 
L 257.259209 108.092248 
L 257.773442 107.999631 
L 258.344811 108.177028 
L 258.801907 108.113662 
L 259.430413 108.266049 
L 259.887509 108.24406 
L 260.458878 108.369828 
L 260.97311 108.36973 
L 261.54448 108.464207 
L 262.058712 108.490599 
L 262.630081 108.561386 
L 263.144314 108.606876 
L 263.715683 108.660888 
L 264.287053 108.732082 
L 265.029833 108.773402 
L 267.201036 108.989927 
L 267.201036 108.989927 
" clip-path="url(#p7b29278711)" style="fill: none; stroke: #ff7f0e; stroke-width: 1.5; stroke-linecap: square"/>
    <defs>
     <path id="m0d53ea6346" d="M -0 2.5 
L 2.5 -2.5 
L -2.5 -2.5 
z
" style="stroke: #ff7f0e; stroke-linejoin: miter"/>
    </defs>
    <g clip-path="url(#p7b29278711)">
     <use xlink:href="#m0d53ea6346" x="67.221762" y="118.438755" style="fill: #ff7f0e; stroke: #ff7f0e; stroke-linejoin: miter"/>
     <use xlink:href="#m0d53ea6346" x="72.935455" y="107.29525" style="fill: #ff7f0e; stroke: #ff7f0e; stroke-linejoin: miter"/>
     <use xlink:href="#m0d53ea6346" x="78.649149" y="108.265135" style="fill: #ff7f0e; stroke: #ff7f0e; stroke-linejoin: miter"/>
     <use xlink:href="#m0d53ea6346" x="84.362842" y="108.927196" style="fill: #ff7f0e; stroke: #ff7f0e; stroke-linejoin: miter"/>
     <use xlink:href="#m0d53ea6346" x="90.076536" y="109.530128" style="fill: #ff7f0e; stroke: #ff7f0e; stroke-linejoin: miter"/>
     <use xlink:href="#m0d53ea6346" x="95.79023" y="110.220615" style="fill: #ff7f0e; stroke: #ff7f0e; stroke-linejoin: miter"/>
     <use xlink:href="#m0d53ea6346" x="101.503923" y="106.318244" style="fill: #ff7f0e; stroke: #ff7f0e; stroke-linejoin: miter"/>
     <use xlink:href="#m0d53ea6346" x="107.217617" y="106.836136" style="fill: #ff7f0e; stroke: #ff7f0e; stroke-linejoin: miter"/>
     <use xlink:href="#m0d53ea6346" x="112.93131" y="107.221334" style="fill: #ff7f0e; stroke: #ff7f0e; stroke-linejoin: miter"/>
     <use xlink:href="#m0d53ea6346" x="118.645004" y="107.742126" style="fill: #ff7f0e; stroke: #ff7f0e; stroke-linejoin: miter"/>
     <use xlink:href="#m0d53ea6346" x="124.358697" y="108.173017" style="fill: #ff7f0e; stroke: #ff7f0e; stroke-linejoin: miter"/>
     <use xlink:href="#m0d53ea6346" x="130.072391" y="103.602652" style="fill: #ff7f0e; stroke: #ff7f0e; stroke-linejoin: miter"/>
     <use xlink:href="#m0d53ea6346" x="135.786084" y="102.887941" style="fill: #ff7f0e; stroke: #ff7f0e; stroke-linejoin: miter"/>
     <use xlink:href="#m0d53ea6346" x="141.499778" y="102.408119" style="fill: #ff7f0e; stroke: #ff7f0e; stroke-linejoin: miter"/>
     <use xlink:href="#m0d53ea6346" x="147.213472" y="102.091622" style="fill: #ff7f0e; stroke: #ff7f0e; stroke-linejoin: miter"/>
     <use xlink:href="#m0d53ea6346" x="152.927165" y="101.6934" style="fill: #ff7f0e; stroke: #ff7f0e; stroke-linejoin: miter"/>
     <use xlink:href="#m0d53ea6346" x="158.640859" y="104.28221" style="fill: #ff7f0e; stroke: #ff7f0e; stroke-linejoin: miter"/>
     <use xlink:href="#m0d53ea6346" x="164.354552" y="104.121068" style="fill: #ff7f0e; stroke: #ff7f0e; stroke-linejoin: miter"/>
     <use xlink:href="#m0d53ea6346" x="170.068246" y="103.904572" style="fill: #ff7f0e; stroke: #ff7f0e; stroke-linejoin: miter"/>
     <use xlink:href="#m0d53ea6346" x="175.781939" y="103.96824" style="fill: #ff7f0e; stroke: #ff7f0e; stroke-linejoin: miter"/>
     <use xlink:href="#m0d53ea6346" x="181.495633" y="103.828229" style="fill: #ff7f0e; stroke: #ff7f0e; stroke-linejoin: miter"/>
     <use xlink:href="#m0d53ea6346" x="187.209326" y="104.665328" style="fill: #ff7f0e; stroke: #ff7f0e; stroke-linejoin: miter"/>
     <use xlink:href="#m0d53ea6346" x="192.92302" y="104.737446" style="fill: #ff7f0e; stroke: #ff7f0e; stroke-linejoin: miter"/>
     <use xlink:href="#m0d53ea6346" x="198.636714" y="104.851023" style="fill: #ff7f0e; stroke: #ff7f0e; stroke-linejoin: miter"/>
     <use xlink:href="#m0d53ea6346" x="204.350407" y="104.85749" style="fill: #ff7f0e; stroke: #ff7f0e; stroke-linejoin: miter"/>
     <use xlink:href="#m0d53ea6346" x="210.064101" y="104.944744" style="fill: #ff7f0e; stroke: #ff7f0e; stroke-linejoin: miter"/>
     <use xlink:href="#m0d53ea6346" x="215.777794" y="104.714443" style="fill: #ff7f0e; stroke: #ff7f0e; stroke-linejoin: miter"/>
     <use xlink:href="#m0d53ea6346" x="221.491488" y="105.528897" style="fill: #ff7f0e; stroke: #ff7f0e; stroke-linejoin: miter"/>
     <use xlink:href="#m0d53ea6346" x="227.205181" y="105.211945" style="fill: #ff7f0e; stroke: #ff7f0e; stroke-linejoin: miter"/>
     <use xlink:href="#m0d53ea6346" x="232.918875" y="105.138638" style="fill: #ff7f0e; stroke: #ff7f0e; stroke-linejoin: miter"/>
     <use xlink:href="#m0d53ea6346" x="238.632568" y="105.265638" style="fill: #ff7f0e; stroke: #ff7f0e; stroke-linejoin: miter"/>
     <use xlink:href="#m0d53ea6346" x="244.346262" y="106.620479" style="fill: #ff7f0e; stroke: #ff7f0e; stroke-linejoin: miter"/>
     <use xlink:href="#m0d53ea6346" x="250.059956" y="106.865552" style="fill: #ff7f0e; stroke: #ff7f0e; stroke-linejoin: miter"/>
     <use xlink:href="#m0d53ea6346" x="255.773649" y="107.822919" style="fill: #ff7f0e; stroke: #ff7f0e; stroke-linejoin: miter"/>
     <use xlink:href="#m0d53ea6346" x="261.487343" y="108.471274" style="fill: #ff7f0e; stroke: #ff7f0e; stroke-linejoin: miter"/>
     <use xlink:href="#m0d53ea6346" x="267.201036" y="108.989927" style="fill: #ff7f0e; stroke: #ff7f0e; stroke-linejoin: miter"/>
    </g>
   </g>
   <g id="line2d_29">
    <path d="M 67.221762 80.988887 
L 67.278899 69.791945 
L 67.45031 85.470089 
L 67.507446 85.44649 
L 68.250227 82.335248 
L 68.821596 81.0652 
L 69.564376 80.001952 
L 69.850061 79.85466 
L 69.964335 79.95047 
L 70.649978 79.476937 
L 71.392758 79.276447 
L 72.364086 79.260687 
L 72.935455 79.343327 
L 73.106866 79.112632 
L 73.849646 79.218816 
L 74.306742 79.151629 
L 74.7067 79.372019 
L 75.44948 79.154153 
L 75.678028 79.064591 
L 76.077987 79.094872 
L 76.706493 79.346022 
L 76.877904 79.229013 
L 77.106452 79.027443 
L 77.449273 79.111027 
L 77.849232 79.331903 
L 78.134916 79.180373 
L 78.420601 79.037415 
L 78.706286 79.158716 
L 78.991971 79.285366 
L 79.334792 79.121406 
L 79.620477 79.05404 
L 80.363257 79.154184 
L 80.706079 79.054284 
L 81.505996 79.104484 
L 81.848817 79.064122 
L 82.477324 79.123908 
L 82.934419 79.062197 
L 83.505788 79.110874 
L 84.077158 79.070461 
L 84.59139 79.082988 
L 85.16276 79.062724 
L 85.734129 79.047992 
L 86.305498 79.059571 
L 86.991141 79.015741 
L 94.133258 78.9419 
L 95.79023 78.927333 
L 95.847366 222.882516 
L 95.904503 187.858254 
L 96.018777 175.166656 
L 96.075914 175.46371 
L 96.53301 181.20263 
L 96.990105 183.997632 
L 97.390064 185.256883 
L 97.847159 186.041236 
L 98.418529 186.479054 
L 99.047035 186.740488 
L 99.218446 186.644622 
L 100.304047 187.028371 
L 100.704006 187.119797 
L 104.075085 188.031994 
L 104.303633 187.922575 
L 105.217824 188.290192 
L 105.503509 188.376333 
L 106.931932 188.672203 
L 107.389027 188.687224 
L 107.674712 188.653416 
L 108.131808 188.87914 
L 108.474629 188.94005 
L 109.103136 188.976517 
L 109.617368 189.1461 
L 110.245874 189.201354 
L 110.760107 189.339406 
L 111.331476 189.39959 
L 111.845708 189.527045 
L 112.417078 189.595562 
L 112.988447 189.706885 
L 113.50268 189.786823 
L 114.074049 189.884774 
L 114.645418 189.990259 
L 115.273925 190.064987 
L 116.873759 190.351425 
L 120.130564 190.82954 
L 124.358697 191.395911 
L 124.415834 123.294809 
L 124.472971 128.085687 
L 124.530108 129.162886 
L 124.587245 129.122129 
L 124.930067 127.839337 
L 125.444299 127.103789 
L 126.129942 126.422487 
L 126.301353 126.596719 
L 126.929859 126.283812 
L 127.558366 126.249886 
L 128.358283 126.434773 
L 128.758241 126.479268 
L 128.929652 126.415858 
L 129.558158 126.650103 
L 130.072391 126.800018 
L 130.243802 126.97636 
L 130.815171 127.069799 
L 130.986582 127.047271 
L 131.21513 126.89398 
L 131.843636 127.215115 
L 132.072184 127.338194 
L 132.415005 127.354685 
L 132.70069 127.191965 
L 132.986375 127.278859 
L 133.500607 127.630975 
L 133.786292 127.479424 
L 134.014839 127.461967 
L 134.300524 127.67312 
L 134.586209 127.839042 
L 134.871893 127.74695 
L 135.157578 127.713029 
L 135.957495 127.970949 
L 136.24318 127.942672 
L 137.100234 128.158895 
L 137.385919 128.187379 
L 138.014425 128.394263 
L 138.47152 128.403687 
L 139.100027 128.576277 
L 139.557122 128.612647 
L 140.128492 128.760424 
L 140.642724 128.813894 
L 141.214093 128.935797 
L 141.728326 129.007325 
L 142.299695 129.109117 
L 142.871064 129.210704 
L 143.499571 129.286669 
L 145.099405 129.568207 
L 148.584758 130.064792 
L 151.384468 130.448888 
L 152.927165 130.640243 
L 152.984302 191.778802 
L 153.041439 160.2002 
L 153.155713 148.116229 
L 153.21285 148.16005 
L 153.841356 154.410863 
L 154.298452 156.577464 
L 154.755547 157.686176 
L 155.212643 158.307286 
L 155.841149 158.716727 
L 156.18397 158.808907 
L 156.355381 158.749459 
L 157.212435 159.059435 
L 158.869406 159.391076 
L 159.72646 159.718028 
L 159.955008 159.732554 
L 160.412104 159.737898 
L 161.212021 159.739103 
L 161.440569 159.676897 
L 162.183349 159.866028 
L 162.469033 160.043984 
L 163.783183 160.064153 
L 164.068868 160.202465 
L 164.468826 160.160935 
L 164.754511 160.108977 
L 165.154469 160.279976 
L 165.497291 160.343297 
L 166.182934 160.322326 
L 166.64003 160.456003 
L 167.325673 160.458736 
L 167.725631 160.563847 
L 168.468412 160.595949 
L 168.86837 160.662107 
L 169.496876 160.686467 
L 170.011109 160.755139 
L 170.525341 160.78092 
L 171.096711 160.853146 
L 171.66808 160.906915 
L 172.239449 160.945638 
L 172.810819 161.023824 
L 174.010694 161.136238 
L 181.495633 161.722896 
L 181.667044 82.368024 
L 181.724181 81.673479 
L 181.781318 82.020829 
L 182.124139 84.428774 
L 182.638372 86.171201 
L 183.209741 87.356377 
L 183.78111 88.0601 
L 183.895384 88.177319 
L 184.009658 88.050325 
L 184.752438 88.59921 
L 185.380945 88.734832 
L 186.237999 88.669576 
L 186.866505 88.604921 
L 187.037916 88.767308 
L 187.780696 88.542988 
L 188.237791 88.435804 
L 188.466339 88.211199 
L 189.323393 88.415688 
L 189.494804 88.449045 
L 190.066173 88.179948 
L 190.294721 88.043867 
L 190.808953 88.213888 
L 191.037501 88.215779 
L 191.894555 87.973187 
L 192.237377 88.055849 
L 193.208705 87.910658 
L 193.551526 87.850692 
L 194.008622 87.717967 
L 194.694265 87.69882 
L 195.151361 87.618823 
L 195.72273 87.596064 
L 196.236962 87.514743 
L 196.808332 87.47404 
L 197.379701 87.415651 
L 197.95107 87.343292 
L 198.579577 87.310415 
L 201.036465 87.055184 
L 202.522025 86.917728 
L 204.86464 86.723026 
L 210.064101 86.309106 
L 210.121238 42.327279 
L 210.178375 70.926688 
L 210.292648 81.114204 
L 210.349785 80.758679 
L 210.806881 75.57113 
L 211.263976 72.995566 
L 211.721072 71.586671 
L 212.178167 70.756608 
L 212.749537 70.209091 
L 213.206632 69.968616 
L 213.320906 70.067311 
L 214.292234 69.654767 
L 216.006342 69.364015 
L 216.634848 69.26116 
L 216.806259 69.182969 
L 217.491902 69.167242 
L 218.063272 69.164353 
L 218.406093 69.330429 
L 219.948791 69.048156 
L 220.291612 69.175156 
L 220.748708 69.029498 
L 221.034392 68.933952 
L 221.377214 69.021735 
L 221.662899 69.09629 
L 222.062857 68.926712 
L 222.348542 68.88416 
L 223.148459 68.915872 
L 223.491281 68.838193 
L 224.291198 68.845603 
L 224.634019 68.798407 
L 225.319663 68.8151 
L 225.776758 68.76336 
L 226.348127 68.774387 
L 226.86236 68.720058 
L 227.433729 68.715363 
L 227.947962 68.677344 
L 228.519331 68.659011 
L 229.0907 68.640646 
L 229.719207 68.587862 
L 231.14763 68.544468 
L 232.347506 68.505014 
L 235.661448 68.369464 
L 238.632568 68.257838 
L 238.689705 160.924492 
L 238.746842 130.624708 
L 238.861116 121.01567 
L 239.489623 128.570225 
L 239.946718 130.752252 
L 240.46095 132.102178 
L 240.860909 132.681194 
L 241.489415 133.211419 
L 241.7751 133.305713 
L 241.889374 133.239978 
L 242.746428 133.615494 
L 243.717756 133.77687 
L 246.574603 134.087853 
L 246.688876 134.009592 
L 246.860287 133.894567 
L 247.603067 134.011502 
L 248.288711 134.155763 
L 248.574395 134.065746 
L 248.802943 134.019225 
L 249.317175 134.172432 
L 249.60286 134.227674 
L 249.945682 134.128185 
L 250.231366 134.078827 
L 250.631325 134.240075 
L 250.974147 134.246502 
L 251.545516 134.163525 
L 252.116885 134.270667 
L 252.631118 134.205957 
L 253.259624 134.286498 
L 253.716719 134.251986 
L 254.345226 134.315496 
L 254.802321 134.297531 
L 255.430828 134.343343 
L 255.94506 134.353282 
L 256.516429 134.371594 
L 257.087799 134.402594 
L 257.716305 134.392976 
L 260.058919 134.471531 
L 261.658754 134.527727 
L 263.601409 134.58108 
L 267.201036 134.660177 
L 267.201036 134.660177 
" clip-path="url(#p7b29278711)" style="fill: none; stroke: #1f77b4; stroke-width: 2; stroke-linecap: square"/>
   </g>
   <g id="line2d_30">
    <path d="M 67.221762 212.195068 
L 67.278899 126.566385 
L 67.336036 188.064351 
L 67.45031 205.760394 
L 67.735994 199.978097 
L 67.907405 199.660351 
L 68.19309 199.854133 
L 68.878733 200.257827 
L 69.392965 200.415084 
L 69.507239 200.207269 
L 69.850061 200.80374 
L 69.907198 201.224498 
L 69.964335 201.079693 
L 70.192882 200.59376 
L 70.478567 200.596188 
L 72.47836 201.120633 
L 72.592634 201.262042 
L 72.935455 201.051563 
L 73.049729 200.529841 
L 73.335414 201.197608 
L 73.678235 201.275678 
L 73.906783 201.186583 
L 74.021057 201.095696 
L 74.363879 201.431461 
L 74.478153 201.883142 
L 74.820974 201.370898 
L 75.049522 201.496417 
L 75.335207 201.353561 
L 75.506617 200.967486 
L 75.792302 201.358626 
L 76.192261 201.848986 
L 76.306535 202.110057 
L 76.363671 202.054033 
L 76.706493 201.622125 
L 76.820767 201.506316 
L 76.992178 201.142278 
L 77.049315 201.202075 
L 77.620684 202.194435 
L 77.734958 202.098595 
L 78.24919 201.437777 
L 78.477738 201.768735 
L 78.877697 202.227361 
L 79.449066 201.712137 
L 80.077572 202.246666 
L 80.534668 201.908055 
L 80.877489 202.273132 
L 81.106037 202.383766 
L 81.734543 202.178212 
L 82.191639 202.478713 
L 82.763008 202.30905 
L 83.277241 202.578778 
L 83.84861 202.48004 
L 84.362842 202.683509 
L 84.877075 202.614356 
L 85.448444 202.792643 
L 85.90554 202.749693 
L 86.534046 202.90603 
L 86.991141 202.902297 
L 87.562511 203.031661 
L 88.076743 203.049627 
L 88.648113 203.149821 
L 89.162345 203.19181 
L 89.733714 203.270506 
L 90.305084 203.344782 
L 90.93359 203.393864 
L 92.41915 203.591799 
L 93.790437 203.751199 
L 95.618819 203.95609 
L 95.79023 203.976928 
L 95.847366 200.804005 
L 95.96164 83.26436 
L 96.247325 161.325969 
L 96.418736 167.483604 
L 96.53301 167.99399 
L 96.590147 167.944712 
L 97.561475 165.836456 
L 97.675748 166.057338 
L 97.732885 165.954506 
L 98.01857 165.576655 
L 98.589939 165.379251 
L 99.047035 165.275277 
L 99.161309 164.471147 
L 99.218446 164.66633 
L 99.446993 165.206634 
L 99.789815 165.327412 
L 100.304047 165.343503 
L 100.418321 165.163803 
L 100.761143 165.529814 
L 101.675334 165.923026 
L 101.789608 166.118892 
L 101.846745 166.073654 
L 102.132429 165.941494 
L 102.532388 165.999597 
L 102.646662 166.649222 
L 102.703799 166.470914 
L 102.87521 166.028501 
L 103.218031 166.008671 
L 103.446579 166.153916 
L 103.560853 166.17159 
L 104.075085 165.736409 
L 104.189359 165.097166 
L 104.246496 165.204569 
L 104.532181 165.972153 
L 104.875002 166.217978 
L 105.10355 166.214246 
L 105.274961 166.688736 
L 105.332098 166.560387 
L 105.560646 166.192579 
L 105.960604 166.102206 
L 106.132015 165.655006 
L 106.874795 166.803165 
L 106.931932 166.722253 
L 107.503301 165.794861 
L 107.674712 166.067238 
L 108.131808 166.820929 
L 108.303218 166.588608 
L 108.760314 166.034645 
L 109.331683 166.808197 
L 109.38882 166.757099 
L 109.903053 166.210581 
L 110.531559 166.773728 
L 110.988654 166.350662 
L 111.217202 166.587643 
L 111.560024 166.86545 
L 112.18853 166.564481 
L 112.645626 166.911425 
L 113.274132 166.687231 
L 113.67409 166.974872 
L 113.959775 166.804878 
L 114.24546 166.733059 
L 114.873966 166.983727 
L 115.273925 166.828663 
L 116.016705 167.008922 
L 116.359526 166.93963 
L 116.988033 167.123851 
L 117.445128 167.047907 
L 118.016497 167.203913 
L 118.473593 167.13228 
L 119.102099 167.266694 
L 119.559195 167.232824 
L 120.130564 167.345641 
L 120.644797 167.330265 
L 121.216166 167.412522 
L 121.730398 167.424173 
L 122.244631 167.490364 
L 122.816 167.514388 
L 123.330233 167.560032 
L 123.901602 167.600988 
L 124.358697 167.63652 
L 124.415834 73.603552 
L 124.472971 81.347672 
L 124.815793 54.75978 
L 124.987204 53.504243 
L 125.215751 53.296836 
L 126.072805 53.18454 
L 126.129942 52.955065 
L 126.244216 53.784037 
L 126.301353 53.656781 
L 126.529901 53.238109 
L 126.872723 53.205243 
L 128.529694 53.344653 
L 128.643968 53.522164 
L 128.701104 53.366009 
L 128.815378 52.660149 
L 128.872515 52.795388 
L 129.101063 53.222736 
L 129.386748 53.226072 
L 129.843843 53.032293 
L 129.958117 52.905942 
L 130.129528 53.62608 
L 130.243802 53.401347 
L 130.472349 53.064224 
L 130.700897 53.068135 
L 130.872308 53.215287 
L 130.986582 52.916022 
L 131.100856 52.556845 
L 131.157993 52.633613 
L 131.38654 52.966118 
L 131.672225 52.925312 
L 131.900773 53.389705 
L 131.95791 53.302396 
L 132.186458 53.093092 
L 132.357868 52.939322 
L 132.586416 52.51793 
L 132.643553 52.563418 
L 133.272059 53.222896 
L 133.329196 53.155748 
L 133.843429 52.462533 
L 133.900566 52.508757 
L 134.414798 53.11116 
L 134.471935 53.06327 
L 135.043304 52.477974 
L 135.557537 52.95057 
L 136.186043 52.478921 
L 136.643138 52.820087 
L 137.328782 52.482834 
L 137.72874 52.69411 
L 138.357247 52.395929 
L 138.814342 52.574883 
L 139.385711 52.323354 
L 139.899944 52.462119 
L 140.414176 52.257907 
L 140.985546 52.355688 
L 141.499778 52.207807 
L 142.01401 52.278587 
L 142.58538 52.153559 
L 143.099612 52.182952 
L 143.613845 52.083971 
L 144.185214 52.092421 
L 144.699446 52.023737 
L 145.270816 52.00676 
L 145.785048 51.960626 
L 146.356418 51.925511 
L 146.927787 51.899583 
L 147.556293 51.829073 
L 149.841771 51.686636 
L 151.727289 51.568445 
L 152.927165 51.493089 
L 152.984302 160.675683 
L 153.098576 29.312259 
L 153.384261 84.889328 
L 153.555671 89.74729 
L 153.669945 90.133321 
L 153.727082 90.079113 
L 154.755547 88.033116 
L 154.869821 88.249604 
L 154.926958 88.160391 
L 155.212643 87.768697 
L 155.841149 87.512425 
L 156.126834 87.423177 
L 156.241107 86.597007 
L 156.355381 86.935448 
L 156.583929 87.326862 
L 156.983888 87.386306 
L 157.555257 87.360906 
L 157.669531 87.148427 
L 158.012352 87.466805 
L 158.98368 87.849214 
L 159.097954 87.870354 
L 159.383639 87.695049 
L 159.612187 87.711672 
L 159.72646 88.431824 
L 159.783597 88.303903 
L 160.069282 87.479284 
L 160.812062 87.731954 
L 161.154884 87.351037 
L 161.269158 86.744824 
L 161.326295 86.818372 
L 161.669116 87.427535 
L 162.240486 87.960753 
L 162.297623 88.183864 
L 162.35476 88.16603 
L 162.697581 87.448599 
L 163.040403 87.336765 
L 163.154677 87.017656 
L 163.211814 87.049678 
L 163.497498 87.432434 
L 163.726046 87.55719 
L 163.897457 87.954549 
L 163.954594 87.922019 
L 164.5831 87.014585 
L 164.640237 87.06622 
L 165.211606 87.886593 
L 165.268743 87.828687 
L 165.840113 87.082649 
L 166.411482 87.767871 
L 166.468619 87.702724 
L 166.982851 87.127933 
L 167.554221 87.664707 
L 168.12559 87.189788 
L 168.639822 87.602225 
L 169.211192 87.206513 
L 169.725424 87.538357 
L 170.296794 87.224376 
L 170.753889 87.504612 
L 171.439532 87.280719 
L 171.782354 87.464203 
L 172.068039 87.294691 
L 172.353723 87.199029 
L 172.98223 87.367787 
L 173.439325 87.20649 
L 174.010694 87.348106 
L 174.524927 87.21154 
L 175.039159 87.325566 
L 175.610529 87.213589 
L 176.067624 87.301536 
L 176.69613 87.212171 
L 177.153226 87.26371 
L 177.724595 87.191266 
L 178.238828 87.228468 
L 178.75306 87.171958 
L 179.324429 87.196174 
L 179.838662 87.163877 
L 180.410031 87.166929 
L 180.924264 87.153457 
L 181.495633 87.140617 
L 181.55277 135.281229 
L 181.667044 79.503915 
L 181.952728 113.191025 
L 182.124139 115.650883 
L 182.29555 115.845272 
L 183.78111 114.914252 
L 183.895384 114.97173 
L 183.952521 114.330136 
L 184.009658 114.345765 
L 184.238206 114.912367 
L 184.523891 114.956373 
L 186.466546 114.77452 
L 186.58082 115.014713 
L 186.637957 114.976449 
L 186.809368 114.796331 
L 186.866505 114.914729 
L 186.980779 115.394765 
L 187.266463 114.802851 
L 187.609285 114.80199 
L 187.89497 114.799898 
L 188.009244 114.627272 
L 188.066381 114.67049 
L 188.237791 114.76002 
L 188.352065 114.269741 
L 188.409202 114.329225 
L 188.694887 114.836222 
L 188.923435 114.98866 
L 189.037708 115.036107 
L 189.209119 114.978345 
L 189.38053 115.370631 
L 189.780489 114.694139 
L 190.009036 114.687888 
L 190.180447 114.419089 
L 190.580406 114.984523 
L 190.69468 115.0584 
L 190.86609 115.254756 
L 191.266049 114.768193 
L 191.494597 114.575313 
L 192.065966 115.161982 
L 192.523061 114.729758 
L 192.694472 114.698216 
L 193.265842 115.08121 
L 193.837211 114.774368 
L 194.351443 115.063803 
L 194.97995 114.850675 
L 195.437045 115.045039 
L 196.065551 114.891225 
L 196.522647 115.029459 
L 197.094016 114.904016 
L 197.608249 115.017783 
L 198.122481 114.921264 
L 198.693851 115.010463 
L 199.208083 114.954259 
L 199.722315 115.021479 
L 200.293685 114.982868 
L 200.807917 115.021088 
L 201.379286 115.007283 
L 201.950656 115.014659 
L 202.522025 115.03728 
L 203.150532 115.013345 
L 205.550283 115.059556 
L 206.978706 115.087506 
L 209.835553 115.114008 
L 210.064101 115.119222 
L 210.121238 56.182533 
L 210.235512 172.186547 
L 210.521196 118.689396 
L 210.692607 114.48316 
L 210.806881 114.236373 
L 210.978292 114.612581 
L 211.492524 115.789667 
L 211.721072 116.074607 
L 211.778209 116.023997 
L 211.835346 115.879156 
L 211.892483 115.971586 
L 212.178167 116.381926 
L 212.749537 116.618162 
L 213.149495 116.728969 
L 213.206632 116.888057 
L 213.263769 117.534254 
L 213.320906 117.439727 
L 213.549454 116.864478 
L 213.835138 116.780013 
L 214.349371 116.796929 
L 214.463645 117.035515 
L 214.863603 116.71441 
L 215.720657 116.476719 
L 215.834931 116.34748 
L 216.177753 116.559535 
L 216.577711 116.552538 
L 216.691985 115.973141 
L 216.749122 116.158264 
L 216.97767 116.56438 
L 217.320492 116.577342 
L 217.606176 116.487316 
L 218.063272 116.830056 
L 218.234682 117.485055 
L 218.577504 116.671894 
L 218.863189 116.531272 
L 219.091737 116.573045 
L 219.263147 116.117745 
L 219.320284 116.232657 
L 219.548832 116.625598 
L 219.948791 116.755228 
L 220.120201 117.175707 
L 220.862982 116.187066 
L 221.491488 117.167358 
L 221.548625 117.101686 
L 222.119994 116.281606 
L 222.7485 117.033359 
L 222.805637 116.954757 
L 223.262733 116.379191 
L 223.491281 116.648135 
L 223.834102 117.008774 
L 224.119787 116.688215 
L 224.405472 116.472908 
L 224.748293 116.857293 
L 224.976841 116.943397 
L 225.54821 116.567696 
L 226.062443 116.912747 
L 226.633812 116.620814 
L 227.148044 116.885602 
L 227.662277 116.640315 
L 228.233646 116.86268 
L 228.747879 116.686325 
L 229.262111 116.868407 
L 229.83348 116.727918 
L 230.290576 116.871255 
L 230.919082 116.764798 
L 231.376178 116.86143 
L 231.947547 116.776388 
L 232.461779 116.854435 
L 232.976012 116.789545 
L 233.547381 116.850678 
L 234.061614 116.816244 
L 234.632983 116.850285 
L 235.147215 116.839732 
L 235.718585 116.853122 
L 236.232817 116.860088 
L 236.804187 116.858846 
L 237.375556 116.885612 
L 238.518295 116.902523 
L 238.632568 116.904099 
L 238.689705 192.944987 
L 238.746842 97.612756 
L 238.803979 103.315345 
L 239.032527 174.354373 
L 239.203938 184.057806 
L 239.375349 185.069737 
L 239.546759 184.688296 
L 240.003855 183.638402 
L 240.403813 183.245546 
L 240.46095 183.453401 
L 240.518087 183.405323 
L 240.803772 183.050737 
L 241.375141 182.912501 
L 241.717963 182.870533 
L 241.832237 182.095588 
L 241.889374 182.245741 
L 242.117922 182.805309 
L 242.460743 182.924935 
L 243.089249 182.948971 
L 243.203523 182.801472 
L 243.546345 183.121237 
L 244.460536 183.478391 
L 244.57481 183.598115 
L 244.860494 183.444854 
L 245.146179 183.526181 
L 245.260453 184.183104 
L 245.546138 183.360586 
L 245.603275 183.380097 
L 246.288918 183.702339 
L 246.631739 183.467805 
L 246.746013 182.866652 
L 246.80315 182.886536 
L 247.203109 183.5899 
L 247.717341 184.088528 
L 247.831615 184.302263 
L 248.174437 183.688673 
L 248.460121 183.702078 
L 248.631532 183.348634 
L 248.688669 183.413945 
L 248.974354 183.791554 
L 249.202902 183.978199 
L 249.374312 184.302078 
L 249.888545 183.713806 
L 250.002819 183.547026 
L 250.059956 183.579141 
L 250.688462 184.367879 
L 251.259831 183.771848 
L 251.888338 184.391188 
L 252.40257 183.971667 
L 252.973939 184.480243 
L 253.488172 184.134606 
L 254.116678 184.514949 
L 254.516637 184.270465 
L 254.802321 184.505725 
L 255.088006 184.648668 
L 255.716512 184.490401 
L 256.173608 184.725204 
L 256.744977 184.599952 
L 257.259209 184.805837 
L 257.773442 184.71322 
L 258.344811 184.890616 
L 258.801907 184.827251 
L 259.430413 184.979638 
L 259.887509 184.957648 
L 260.458878 185.083417 
L 260.97311 185.083319 
L 261.54448 185.177796 
L 262.058712 185.204188 
L 262.630081 185.274974 
L 263.144314 185.320465 
L 263.715683 185.374477 
L 264.287053 185.445671 
L 265.029833 185.486991 
L 267.201036 185.703516 
L 267.201036 185.703516 
" clip-path="url(#p7b29278711)" style="fill: none; stroke: #ff7f0e; stroke-width: 2; stroke-linecap: square"/>
   </g>
   <g id="patch_3">
    <path d="M 57.222798 232.981683 
L 57.222798 10.8 
" style="fill: none; stroke: #000000; stroke-width: 0.8; stroke-linejoin: miter; stroke-linecap: square"/>
   </g>
   <g id="patch_4">
    <path d="M 277.2 232.981683 
L 277.2 10.8 
" style="fill: none; stroke: #000000; stroke-width: 0.8; stroke-linejoin: miter; stroke-linecap: square"/>
   </g>
   <g id="patch_5">
    <path d="M 57.222798 232.981683 
L 277.2 232.981683 
" style="fill: none; stroke: #000000; stroke-width: 0.8; stroke-linejoin: miter; stroke-linecap: square"/>
   </g>
   <g id="patch_6">
    <path d="M 57.222798 10.8 
L 277.2 10.8 
" style="fill: none; stroke: #000000; stroke-width: 0.8; stroke-linejoin: miter; stroke-linecap: square"/>
   </g>
   <g id="legend_1">
    <g id="patch_7">
     <path d="M 220.63732 227.981683 
L 270.2 227.981683 
Q 272.2 227.981683 272.2 225.981683 
L 272.2 139.705747 
Q 272.2 137.705747 270.2 137.705747 
L 220.63732 137.705747 
Q 218.63732 137.705747 218.63732 139.705747 
L 218.63732 225.981683 
Q 218.63732 227.981683 220.63732 227.981683 
z
" style="fill: #ffffff; opacity: 0.8; stroke: #cccccc; stroke-linejoin: miter"/>
    </g>
    <g id="line2d_31">
     <path d="M 222.63732 145.205747 
L 232.63732 145.205747 
L 242.63732 145.205747 
" style="fill: none; stroke: #1f77b4; stroke-width: 1.5; stroke-linecap: square"/>
     <g>
      <use xlink:href="#ma76c297821" x="232.63732" y="145.205747" style="fill: #1f77b4; stroke: #1f77b4"/>
     </g>
    </g>
    <g id="text_15">
     <!-- $\tau_\mathrm{ff,1}$ -->
     <g transform="translate(250.63732 148.705747) scale(0.1 -0.1)">
      <defs>
       <path id="CMMI12-1c" d="M 1837 2408 
L 2899 2408 
C 2982 2408 3194 2408 3194 2612 
C 3194 2752 3072 2752 2957 2752 
L 1197 2752 
C 1050 2752 832 2752 538 2440 
C 371 2255 166 1917 166 1879 
C 166 1841 198 1828 237 1828 
C 282 1828 288 1847 320 1885 
C 653 2408 986 2408 1146 2408 
L 1677 2408 
L 1011 223 
C 979 127 979 114 979 95 
C 979 25 1024 -64 1152 -64 
C 1350 -64 1382 108 1402 203 
L 1837 2408 
z
" transform="scale(0.015625)"/>
       <path id="CMR17-b" d="M 2554 2560 
L 3283 2560 
L 3283 2725 
L 2541 2725 
L 2541 3494 
C 2541 4022 2810 4352 3085 4352 
C 3168 4352 3264 4327 3328 4282 
C 3277 4269 3142 4225 3142 4067 
C 3142 3901 3270 3850 3360 3850 
C 3450 3850 3578 3901 3578 4067 
C 3578 4308 3347 4454 3091 4454 
C 2842 4454 2637 4333 2477 4181 
C 2330 4390 2086 4454 1837 4454 
C 1338 4454 634 4168 634 3469 
L 634 2725 
L 122 2725 
L 122 2560 
L 634 2560 
L 634 427 
C 634 184 608 153 198 153 
L 198 -13 
C 352 0 634 0 794 0 
C 960 0 1242 0 1395 -13 
L 1395 153 
C 986 153 960 178 960 427 
L 960 2560 
L 2227 2560 
L 2227 427 
C 2227 184 2202 153 1792 153 
L 1792 -13 
C 1946 0 2240 0 2406 0 
C 2592 0 2918 0 3091 -13 
L 3091 153 
C 2630 153 2554 153 2554 439 
L 2554 2560 
z
M 947 2725 
L 947 3469 
C 947 4047 1395 4352 1824 4352 
C 1920 4352 2170 4332 2323 4187 
C 2208 4187 2099 4136 2099 3977 
C 2099 3812 2246 3767 2259 3767 
C 2227 3652 2227 3526 2227 3481 
L 2227 2725 
L 947 2725 
z
" transform="scale(0.015625)"/>
       <path id="CMMI12-3b" d="M 1248 -31 
C 1248 343 1126 619 864 619 
C 659 619 557 453 557 313 
C 557 172 653 0 870 0 
C 954 0 1024 26 1082 83 
C 1094 96 1101 96 1107 96 
C 1120 96 1120 5 1120 -27 
C 1120 -240 1082 -659 710 -1080 
C 640 -1157 640 -1170 640 -1183 
C 640 -1216 672 -1248 704 -1248 
C 755 -1248 1248 -771 1248 -31 
z
" transform="scale(0.015625)"/>
      </defs>
      <use xlink:href="#CMMI12-1c" transform="scale(0.996264)"/>
      <use xlink:href="#CMR17-b" transform="translate(42.363841 -14.943915) scale(0.697382)"/>
      <use xlink:href="#CMMI12-3b" transform="translate(83.138776 -14.943915) scale(0.697382)"/>
      <use xlink:href="#CMR17-31" transform="translate(102.106709 -14.943915) scale(0.697382)"/>
     </g>
    </g>
    <g id="line2d_32">
     <path d="M 222.63732 160.056142 
L 232.63732 160.056142 
L 242.63732 160.056142 
" style="fill: none; stroke: #ff7f0e; stroke-width: 1.5; stroke-linecap: square"/>
     <g>
      <use xlink:href="#m56de839465" x="232.63732" y="160.056142" style="fill: #ff7f0e; stroke: #ff7f0e"/>
     </g>
    </g>
    <g id="text_16">
     <!-- $\tau_\mathrm{ff,2}$ -->
     <g transform="translate(250.63732 163.556142) scale(0.1 -0.1)">
      <use xlink:href="#CMMI12-1c" transform="scale(0.996264)"/>
      <use xlink:href="#CMR17-b" transform="translate(42.363841 -14.943915) scale(0.697382)"/>
      <use xlink:href="#CMMI12-3b" transform="translate(83.138776 -14.943915) scale(0.697382)"/>
      <use xlink:href="#CMR17-32" transform="translate(102.106709 -14.943915) scale(0.697382)"/>
     </g>
    </g>
    <g id="line2d_33">
     <path d="M 222.63732 174.906537 
L 232.63732 174.906537 
L 242.63732 174.906537 
" style="fill: none; stroke: #1f77b4; stroke-width: 1.5; stroke-linecap: square"/>
     <g>
      <use xlink:href="#mbf21ab9ba2" x="232.63732" y="174.906537" style="fill: #1f77b4; stroke: #1f77b4; stroke-linejoin: miter"/>
     </g>
    </g>
    <g id="text_17">
     <!-- $\tau_{\mathrm{fb},1}$ -->
     <g transform="translate(250.63732 178.406537) scale(0.1 -0.1)">
      <defs>
       <path id="CMR17-62" d="M 960 4396 
L 198 4326 
L 198 4160 
C 576 4160 634 4122 634 3817 
L 634 -13 
L 749 -13 
L 934 441 
C 1120 141 1395 -64 1766 -64 
C 2406 -64 3053 500 3053 1370 
C 3053 2188 2477 2790 1830 2790 
C 1434 2790 1152 2579 960 2330 
L 960 4396 
z
M 973 2004 
C 973 2118 973 2138 1062 2272 
C 1312 2657 1670 2688 1792 2688 
C 1984 2688 2643 2585 2643 1376 
C 2643 108 1888 38 1734 38 
C 1536 38 1248 114 1043 486 
C 973 608 973 621 973 735 
L 973 2004 
z
" transform="scale(0.015625)"/>
      </defs>
      <use xlink:href="#CMMI12-1c" transform="scale(0.996264)"/>
      <use xlink:href="#CMR17-66" transform="translate(42.363841 -14.943915) scale(0.697382)"/>
      <use xlink:href="#CMR17-62" transform="translate(61.595205 -14.943915) scale(0.697382)"/>
      <use xlink:href="#CMMI12-3b" transform="translate(97.221813 -14.943915) scale(0.697382)"/>
      <use xlink:href="#CMR17-31" transform="translate(116.189746 -14.943915) scale(0.697382)"/>
     </g>
    </g>
    <g id="line2d_34">
     <path d="M 222.63732 189.756932 
L 232.63732 189.756932 
L 242.63732 189.756932 
" style="fill: none; stroke: #ff7f0e; stroke-width: 1.5; stroke-linecap: square"/>
     <g>
      <use xlink:href="#m0d53ea6346" x="232.63732" y="189.756932" style="fill: #ff7f0e; stroke: #ff7f0e; stroke-linejoin: miter"/>
     </g>
    </g>
    <g id="text_18">
     <!-- $\tau_{\mathrm{fb},2}$ -->
     <g transform="translate(250.63732 193.256932) scale(0.1 -0.1)">
      <use xlink:href="#CMMI12-1c" transform="scale(0.996264)"/>
      <use xlink:href="#CMR17-66" transform="translate(42.363841 -14.943915) scale(0.697382)"/>
      <use xlink:href="#CMR17-62" transform="translate(61.595205 -14.943915) scale(0.697382)"/>
      <use xlink:href="#CMMI12-3b" transform="translate(97.221813 -14.943915) scale(0.697382)"/>
      <use xlink:href="#CMR17-32" transform="translate(116.189746 -14.943915) scale(0.697382)"/>
     </g>
    </g>
    <g id="line2d_35">
     <path d="M 222.63732 204.607327 
L 232.63732 204.607327 
L 242.63732 204.607327 
" style="fill: none; stroke: #1f77b4; stroke-width: 2; stroke-linecap: square"/>
    </g>
    <g id="text_19">
     <!-- $\tau_1$ -->
     <g transform="translate(250.63732 208.107327) scale(0.1 -0.1)">
      <use xlink:href="#CMMI12-1c" transform="scale(0.996264)"/>
      <use xlink:href="#CMR17-31" transform="translate(42.363841 -14.943915) scale(0.697382)"/>
     </g>
    </g>
    <g id="line2d_36">
     <path d="M 222.63732 218.544505 
L 232.63732 218.544505 
L 242.63732 218.544505 
" style="fill: none; stroke: #ff7f0e; stroke-width: 2; stroke-linecap: square"/>
    </g>
    <g id="text_20">
     <!-- $\tau_2$ -->
     <g transform="translate(250.63732 222.044505) scale(0.1 -0.1)">
      <use xlink:href="#CMMI12-1c" transform="scale(0.996264)"/>
      <use xlink:href="#CMR17-32" transform="translate(42.363841 -14.943915) scale(0.697382)"/>
     </g>
    </g>
   </g>
  </g>
 </g>
 <defs>
  <clipPath id="p7b29278711">
   <rect x="57.222798" y="10.8" width="219.977202" height="222.181683"/>
  </clipPath>
 </defs>
</svg>
